<svg id="svg" version="1.1" xmlns="http://www.w3.org/2000/svg" xmlns:xlink="http://www.w3.org/1999/xlink" width="400" height="400" viewBox="0, 0, 400,400"><g id="svgg"><path id="path0" d="M174.200 70.677 C 172.880 70.756,171.530 70.934,171.200 71.073 C 170.870 71.211,170.060 71.372,169.400 71.430 C 167.107 71.630,162.996 72.423,162.334 72.793 C 161.967 72.997,160.482 73.371,159.034 73.624 C 157.585 73.876,156.400 74.228,156.400 74.406 C 156.400 74.584,155.680 74.851,154.800 75.000 C 153.920 75.149,153.200 75.406,153.200 75.571 C 153.200 75.737,152.210 76.110,151.000 76.400 C 149.790 76.690,148.800 77.065,148.800 77.232 C 148.800 77.399,148.260 77.655,147.600 77.800 C 146.940 77.945,146.400 78.201,146.400 78.368 C 146.400 78.536,145.680 78.889,144.800 79.153 C 143.920 79.416,143.200 79.805,143.200 80.016 C 143.200 80.227,142.993 80.400,142.740 80.400 C 142.095 80.400,138.000 82.508,138.000 82.840 C 138.000 82.990,137.583 83.218,137.074 83.346 C 136.564 83.474,135.709 83.940,135.174 84.382 C 133.771 85.539,133.588 85.674,131.613 87.000 C 130.631 87.660,129.513 88.470,129.130 88.800 C 128.746 89.130,127.673 90.030,126.744 90.800 C 121.277 95.335,112.793 104.664,113.133 105.768 C 113.207 106.005,113.142 106.075,112.989 105.922 C 112.720 105.654,110.800 107.639,110.800 108.184 C 110.800 108.332,110.350 109.043,109.800 109.764 C 109.250 110.486,108.800 111.284,108.800 111.538 C 108.800 111.792,108.663 112.000,108.495 112.000 C 108.185 112.000,107.779 112.678,106.577 115.200 C 106.210 115.970,105.792 116.690,105.647 116.800 C 105.258 117.096,104.248 119.349,104.337 119.721 C 104.380 119.898,104.141 120.316,103.807 120.650 C 103.473 120.984,103.200 121.514,103.200 121.829 C 103.200 122.143,103.034 122.400,102.832 122.400 C 102.629 122.400,102.336 122.982,102.179 123.694 C 102.023 124.406,101.662 125.351,101.377 125.794 C 101.092 126.237,100.736 127.275,100.585 128.100 C 100.434 128.925,100.184 129.600,100.029 129.600 C 99.874 129.600,99.514 130.772,99.229 132.204 C 98.945 133.636,98.568 134.896,98.393 135.004 C 98.218 135.112,97.948 136.146,97.793 137.300 C 97.637 138.455,97.353 139.595,97.161 139.834 C 96.969 140.073,96.612 142.503,96.368 145.234 C 96.123 147.965,95.761 150.513,95.562 150.895 C 95.055 151.868,95.091 165.600,95.600 165.600 C 95.820 165.600,96.000 166.443,96.000 167.473 C 96.000 169.944,96.827 176.492,97.203 177.000 C 97.366 177.220,97.629 178.300,97.787 179.400 C 97.945 180.500,98.214 181.580,98.385 181.800 C 98.556 182.020,98.922 183.190,99.200 184.400 C 99.478 185.610,99.840 186.780,100.006 187.000 C 100.172 187.220,100.436 188.030,100.593 188.800 C 100.750 189.570,101.102 190.560,101.376 191.000 C 101.650 191.440,101.995 192.295,102.144 192.900 C 102.293 193.505,102.592 194.000,102.808 194.000 C 103.023 194.000,103.200 194.168,103.200 194.374 C 103.200 194.580,103.410 195.255,103.666 195.874 C 103.923 196.493,104.161 197.090,104.195 197.200 C 104.445 198.006,105.379 199.600,105.601 199.600 C 105.751 199.600,106.083 200.299,106.339 201.153 C 106.594 202.006,107.073 202.928,107.402 203.202 C 107.731 203.475,108.000 203.946,108.000 204.249 C 108.000 204.552,108.147 204.800,108.326 204.800 C 108.505 204.800,108.954 205.385,109.323 206.100 C 110.124 207.649,110.786 208.678,111.600 209.636 C 112.446 210.632,112.938 211.271,113.624 212.260 C 115.550 215.041,124.717 224.800,125.403 224.800 C 125.569 224.800,126.300 225.430,127.026 226.200 C 127.752 226.970,128.467 227.600,128.615 227.600 C 128.890 227.600,130.889 229.122,132.034 230.202 C 132.382 230.531,132.794 230.800,132.950 230.800 C 133.258 230.800,135.455 232.300,136.318 233.100 C 136.614 233.375,137.087 233.600,137.367 233.600 C 137.648 233.600,138.293 233.960,138.800 234.400 C 139.307 234.840,139.950 235.200,140.228 235.200 C 140.506 235.200,140.794 235.335,140.867 235.500 C 141.069 235.951,145.112 238.000,145.800 238.000 C 146.130 238.000,146.400 238.160,146.400 238.357 C 146.400 238.553,146.889 238.836,147.486 238.986 C 148.083 239.136,149.298 239.585,150.186 239.984 C 151.074 240.383,152.385 240.834,153.100 240.986 C 153.815 241.139,154.400 241.418,154.400 241.607 C 154.400 241.796,155.210 242.072,156.200 242.221 C 157.190 242.369,158.000 242.625,158.000 242.789 C 158.000 242.953,159.395 243.322,161.100 243.609 C 162.805 243.897,164.290 244.257,164.400 244.411 C 164.590 244.677,167.279 245.127,174.000 246.020 C 178.656 246.638,234.486 246.344,234.700 245.700 C 234.792 245.425,235.217 245.200,235.646 245.200 C 236.074 245.200,236.529 244.930,236.655 244.600 C 236.782 244.270,237.140 244.000,237.450 244.000 C 238.157 244.000,240.667 241.450,241.003 240.390 C 241.141 239.956,241.414 239.600,241.609 239.600 C 241.804 239.600,242.082 238.968,242.227 238.196 C 242.372 237.423,242.650 236.693,242.845 236.572 C 243.335 236.269,243.294 230.505,242.800 230.200 C 242.580 230.064,242.400 229.580,242.400 229.124 C 242.400 227.687,238.451 222.400,237.377 222.400 C 237.238 222.400,236.556 221.995,235.862 221.500 L 234.600 220.600 207.209 220.489 C 190.143 220.420,179.672 220.232,179.429 219.989 C 179.215 219.775,178.241 219.600,177.265 219.600 C 174.812 219.600,168.400 218.717,168.400 218.379 C 168.400 218.227,167.704 217.991,166.853 217.855 C 166.002 217.719,164.787 217.337,164.153 217.006 C 163.519 216.676,162.668 216.404,162.262 216.402 C 161.856 216.401,161.046 216.138,160.462 215.818 C 158.599 214.797,154.939 213.200,154.461 213.200 C 154.208 213.200,154.000 213.059,154.000 212.886 C 154.000 212.713,153.011 212.038,151.801 211.386 C 150.592 210.734,149.602 210.087,149.601 209.949 C 149.601 209.810,149.046 209.468,148.370 209.187 C 147.693 208.907,146.631 208.210,146.010 207.639 C 145.388 207.068,143.857 205.700,142.606 204.600 C 139.731 202.071,139.408 201.751,137.098 199.145 C 133.995 195.644,133.201 194.625,133.200 194.143 C 133.200 193.891,132.930 193.582,132.600 193.455 C 132.270 193.329,132.000 192.949,132.000 192.613 C 132.000 192.276,131.853 192.000,131.674 192.000 C 131.495 192.000,131.041 191.415,130.664 190.700 C 130.288 189.985,129.266 188.054,128.392 186.410 C 127.518 184.765,126.602 182.813,126.357 182.071 C 126.113 181.329,125.663 180.245,125.359 179.661 C 125.054 179.078,124.804 178.296,124.802 177.924 C 124.801 177.552,124.646 177.152,124.459 177.036 C 124.271 176.920,123.881 175.425,123.593 173.713 C 123.304 172.001,122.918 170.500,122.735 170.377 C 122.552 170.254,122.284 168.229,122.140 165.877 C 121.996 163.525,121.726 161.600,121.539 161.600 C 121.353 161.600,121.200 160.160,121.200 158.400 C 121.200 156.640,121.353 155.200,121.539 155.200 C 121.726 155.200,121.996 153.284,122.139 150.941 C 122.282 148.599,122.559 146.484,122.753 146.241 C 122.948 145.999,123.338 144.487,123.621 142.882 C 123.903 141.277,124.284 139.872,124.467 139.758 C 124.650 139.645,124.800 139.284,124.800 138.954 C 124.800 138.625,125.147 137.595,125.571 136.664 C 125.995 135.734,126.472 134.438,126.632 133.786 C 126.792 133.134,127.030 132.510,127.162 132.400 C 127.398 132.201,127.760 131.549,130.108 127.100 C 130.776 125.835,131.475 124.800,131.661 124.800 C 131.848 124.800,132.000 124.558,132.000 124.262 C 132.000 123.966,132.360 123.398,132.800 123.000 C 133.240 122.602,133.600 122.094,133.600 121.872 C 133.600 121.649,133.873 121.182,134.207 120.834 C 134.540 120.485,135.485 119.456,136.307 118.548 C 139.002 115.566,140.678 113.822,142.266 112.347 C 144.433 110.333,148.977 106.884,150.192 106.331 C 150.746 106.078,151.200 105.720,151.200 105.536 C 151.200 105.351,151.446 105.200,151.746 105.200 C 152.046 105.200,152.736 104.851,153.278 104.425 C 153.820 103.998,154.744 103.529,155.332 103.381 C 155.919 103.234,156.400 102.953,156.400 102.757 C 156.400 102.560,156.625 102.394,156.900 102.386 C 157.175 102.379,158.120 102.025,159.000 101.600 C 159.880 101.175,160.753 100.821,160.940 100.814 C 161.126 100.806,161.846 100.538,162.540 100.218 C 164.012 99.537,167.988 98.507,171.400 97.921 C 172.720 97.695,174.232 97.305,174.761 97.055 C 176.077 96.432,283.095 96.401,283.515 97.023 C 283.672 97.256,285.060 97.646,286.600 97.890 C 290.262 98.470,294.946 99.634,295.205 100.029 C 295.318 100.200,296.263 100.555,297.305 100.818 C 298.347 101.080,299.200 101.434,299.200 101.603 C 299.200 101.772,299.830 102.029,300.600 102.174 C 301.370 102.318,302.000 102.589,302.000 102.775 C 302.000 102.961,302.437 103.223,302.972 103.357 C 303.507 103.491,304.182 103.828,304.472 104.105 C 304.762 104.383,305.450 104.841,306.000 105.124 C 308.338 106.328,309.420 106.963,309.826 107.368 C 310.063 107.606,310.919 108.250,311.726 108.800 C 312.534 109.350,313.196 109.935,313.197 110.100 C 313.199 110.265,313.403 110.400,313.651 110.400 C 314.202 110.400,323.200 119.425,323.200 119.977 C 323.200 120.194,323.560 120.565,324.000 120.800 C 324.440 121.035,324.800 121.479,324.800 121.786 C 324.800 122.092,325.114 122.657,325.497 123.040 C 326.293 123.836,326.974 124.913,327.683 126.500 C 327.954 127.105,328.294 127.600,328.439 127.600 C 328.584 127.600,328.942 128.185,329.235 128.900 C 329.527 129.615,329.999 130.438,330.283 130.729 C 330.567 131.019,330.800 131.515,330.800 131.830 C 330.800 132.145,331.160 133.075,331.600 133.896 C 332.040 134.716,332.400 135.706,332.400 136.094 C 332.400 136.482,332.564 136.800,332.765 136.800 C 332.966 136.800,333.251 137.520,333.400 138.400 C 333.549 139.280,333.845 140.000,334.059 140.000 C 334.272 140.000,334.336 140.180,334.200 140.400 C 334.064 140.620,334.188 140.803,334.476 140.806 C 334.893 140.811,334.890 140.882,334.457 141.156 C 334.118 141.371,334.067 141.594,334.320 141.750 C 334.543 141.888,334.852 142.946,335.007 144.100 C 335.163 145.255,335.445 146.393,335.634 146.628 C 336.807 148.086,336.796 168.306,335.622 169.794 C 335.445 170.017,335.171 171.100,335.013 172.200 C 334.855 173.300,334.542 174.423,334.318 174.695 C 334.094 174.967,334.015 175.462,334.143 175.795 C 334.270 176.128,334.216 176.400,334.023 176.400 C 333.829 176.400,333.549 177.120,333.400 178.000 C 333.251 178.880,332.980 179.600,332.797 179.600 C 332.613 179.600,332.349 180.122,332.209 180.761 C 332.068 181.399,331.604 182.608,331.177 183.446 C 330.750 184.284,330.400 185.201,330.400 185.485 C 330.400 185.768,330.234 186.000,330.031 186.000 C 329.828 186.000,329.454 186.630,329.200 187.400 C 328.946 188.170,328.575 188.800,328.377 188.800 C 328.178 188.800,327.902 189.250,327.764 189.800 C 327.626 190.350,327.375 190.800,327.205 190.800 C 327.036 190.800,326.679 191.327,326.412 191.971 C 326.145 192.615,325.673 193.240,325.363 193.359 C 325.054 193.478,324.800 193.831,324.800 194.145 C 324.800 194.458,324.553 194.809,324.251 194.925 C 323.950 195.041,323.576 195.643,323.420 196.264 C 323.264 196.884,322.926 197.522,322.668 197.681 C 322.036 198.072,322.016 207.511,322.646 207.915 C 322.891 208.072,323.229 208.639,323.397 209.176 C 323.721 210.213,327.378 214.000,328.055 214.000 C 328.276 214.000,328.727 214.270,329.057 214.600 C 329.387 214.930,330.084 215.200,330.605 215.200 C 331.126 215.200,331.664 215.380,331.800 215.600 C 332.105 216.094,337.869 216.135,338.172 215.645 C 338.293 215.450,339.023 215.172,339.796 215.027 C 340.568 214.882,341.200 214.604,341.200 214.409 C 341.200 214.214,341.605 213.927,342.100 213.771 C 343.080 213.464,344.130 212.444,345.872 210.108 C 346.490 209.278,347.087 208.510,347.199 208.400 C 347.824 207.785,349.600 204.885,349.600 204.478 C 349.600 204.215,349.758 204.000,349.951 204.000 C 350.145 204.000,350.542 203.415,350.835 202.700 C 351.127 201.985,351.599 201.162,351.883 200.871 C 352.167 200.581,352.400 200.086,352.400 199.771 C 352.400 199.457,352.550 199.200,352.732 199.200 C 353.076 199.200,355.200 194.730,355.200 194.007 C 355.200 193.783,355.363 193.600,355.563 193.600 C 355.763 193.600,356.157 192.700,356.439 191.600 C 356.721 190.500,357.097 189.600,357.276 189.600 C 357.454 189.600,357.600 189.320,357.600 188.978 C 357.600 188.636,357.943 187.601,358.362 186.678 C 358.782 185.755,359.252 184.145,359.408 183.100 C 359.563 182.055,359.832 181.200,360.004 181.200 C 360.176 181.200,360.544 179.625,360.821 177.700 C 361.098 175.775,361.474 174.005,361.656 173.767 C 361.838 173.528,362.108 171.497,362.255 169.253 C 362.402 167.008,362.675 165.077,362.861 164.962 C 363.304 164.688,363.304 151.600,362.861 151.600 C 362.674 151.600,362.404 149.684,362.261 147.341 C 362.118 144.999,361.849 142.884,361.663 142.641 C 361.477 142.399,361.088 140.625,360.798 138.700 C 360.508 136.775,360.153 135.200,360.009 135.200 C 359.865 135.200,359.514 134.028,359.229 132.596 C 358.945 131.164,358.552 129.894,358.356 129.773 C 358.160 129.652,357.994 129.248,357.986 128.876 C 357.979 128.504,357.625 127.480,357.200 126.600 C 356.775 125.720,356.421 124.766,356.414 124.479 C 356.397 123.843,354.716 120.652,354.300 120.467 C 354.135 120.393,354.000 120.126,354.000 119.872 C 354.000 119.418,352.002 115.189,351.603 114.800 C 351.491 114.690,351.129 114.060,350.800 113.400 C 350.471 112.740,350.111 112.110,350.001 112.000 C 349.890 111.890,348.633 110.060,347.207 107.934 C 345.780 105.808,344.475 104.153,344.307 104.258 C 344.138 104.362,344.000 104.152,344.000 103.792 C 344.000 103.432,343.280 102.446,342.400 101.600 C 341.520 100.754,340.799 99.914,340.798 99.731 C 340.793 99.170,330.648 89.600,330.057 89.600 C 329.882 89.600,329.317 89.150,328.800 88.600 C 328.283 88.050,327.641 87.600,327.373 87.600 C 327.105 87.600,326.782 87.330,326.655 87.000 C 326.529 86.670,326.158 86.400,325.832 86.400 C 325.506 86.400,325.096 86.159,324.920 85.864 C 324.744 85.569,323.700 84.810,322.600 84.178 C 321.500 83.545,320.362 82.796,320.071 82.514 C 319.781 82.231,319.308 82.000,319.020 82.000 C 318.733 82.000,318.283 81.742,318.021 81.426 C 317.759 81.110,317.017 80.736,316.372 80.594 C 315.728 80.452,315.200 80.200,315.200 80.032 C 315.200 79.865,314.480 79.490,313.600 79.200 C 312.720 78.910,312.000 78.521,312.000 78.336 C 312.000 78.151,311.810 78.000,311.578 78.000 C 311.346 78.000,310.356 77.635,309.378 77.190 C 308.400 76.744,307.060 76.272,306.400 76.140 C 305.740 76.008,305.200 75.763,305.200 75.595 C 305.200 75.427,304.525 75.163,303.700 75.009 C 302.875 74.855,301.975 74.542,301.700 74.315 C 301.425 74.088,301.200 74.036,301.200 74.200 C 301.200 74.364,300.975 74.319,300.700 74.099 C 300.425 73.880,299.300 73.571,298.200 73.413 C 297.100 73.255,296.020 72.980,295.800 72.802 C 295.293 72.393,290.649 71.530,288.800 71.502 C 288.030 71.490,287.272 71.282,287.115 71.040 C 286.847 70.627,180.760 70.286,174.200 70.677 M166.800 153.963 C 166.800 154.162,166.440 154.231,166.000 154.116 C 165.553 153.999,165.200 154.104,165.200 154.353 C 165.200 154.599,164.834 154.800,164.387 154.800 C 163.941 154.800,163.471 155.070,163.345 155.400 C 163.218 155.730,162.891 156.000,162.619 156.000 C 161.935 156.000,159.318 158.599,159.003 159.590 C 158.862 160.035,158.586 160.400,158.391 160.400 C 158.196 160.400,157.918 161.032,157.773 161.804 C 157.628 162.577,157.350 163.307,157.155 163.428 C 156.665 163.731,156.706 169.495,157.200 169.800 C 157.420 169.936,157.600 170.420,157.600 170.876 C 157.600 172.341,161.516 177.600,162.607 177.600 C 162.755 177.600,163.444 178.005,164.138 178.500 L 165.400 179.400 192.791 179.511 C 209.857 179.580,220.328 179.768,220.571 180.011 C 220.785 180.225,221.759 180.400,222.735 180.400 C 225.188 180.400,231.600 181.283,231.600 181.621 C 231.600 181.773,232.296 182.009,233.147 182.145 C 233.998 182.281,235.213 182.663,235.847 182.994 C 236.481 183.324,237.332 183.596,237.738 183.598 C 238.144 183.599,238.954 183.849,239.538 184.153 C 242.138 185.507,245.053 186.800,245.506 186.800 C 245.778 186.800,246.000 186.941,246.000 187.114 C 246.000 187.287,246.989 187.962,248.199 188.614 C 249.408 189.266,250.398 189.913,250.399 190.051 C 250.399 190.190,250.954 190.532,251.630 190.813 C 252.307 191.093,253.369 191.790,253.990 192.361 C 254.612 192.932,256.143 194.300,257.394 195.400 C 260.269 197.929,260.592 198.249,262.902 200.855 C 266.050 204.407,266.799 205.376,266.800 205.900 C 266.800 206.175,266.986 206.400,267.213 206.400 C 267.439 206.400,267.745 206.715,267.892 207.100 C 268.039 207.485,268.314 207.980,268.504 208.200 C 269.618 209.496,273.572 217.038,273.590 217.900 C 273.595 218.175,273.788 218.400,274.018 218.400 C 274.247 218.400,274.398 218.625,274.353 218.900 C 274.308 219.175,274.481 219.907,274.736 220.526 C 274.991 221.145,275.200 221.900,275.200 222.202 C 275.200 222.505,275.354 222.848,275.541 222.964 C 275.729 223.080,276.119 224.575,276.407 226.287 C 276.696 227.999,277.082 229.500,277.265 229.623 C 277.448 229.746,277.716 231.771,277.860 234.123 C 278.004 236.475,278.274 238.400,278.461 238.400 C 278.647 238.400,278.800 239.840,278.800 241.600 C 278.800 243.360,278.647 244.800,278.461 244.800 C 278.274 244.800,278.004 246.716,277.861 249.059 C 277.718 251.401,277.441 253.516,277.247 253.759 C 277.052 254.001,276.662 255.513,276.379 257.118 C 276.097 258.723,275.716 260.128,275.533 260.242 C 275.350 260.355,275.200 260.695,275.200 260.998 C 275.200 261.300,274.990 262.055,274.734 262.674 C 274.477 263.293,274.237 263.890,274.200 264.000 C 274.163 264.110,273.923 264.707,273.666 265.326 C 273.410 265.945,273.200 266.695,273.200 266.993 C 273.200 267.290,273.065 267.593,272.900 267.667 C 272.606 267.797,272.345 268.251,269.892 272.900 C 269.224 274.165,268.525 275.200,268.339 275.200 C 268.152 275.200,268.000 275.442,268.000 275.738 C 268.000 276.034,267.640 276.602,267.200 277.000 C 266.760 277.398,266.400 277.906,266.400 278.128 C 266.400 278.351,266.134 278.818,265.810 279.166 C 265.485 279.515,264.540 280.547,263.710 281.461 C 261.019 284.421,259.330 286.171,257.734 287.653 C 255.567 289.667,251.023 293.116,249.808 293.669 C 249.254 293.922,248.800 294.280,248.800 294.464 C 248.800 294.649,248.554 294.800,248.254 294.800 C 247.954 294.800,247.264 295.149,246.722 295.575 C 246.180 296.002,245.256 296.471,244.668 296.619 C 244.081 296.766,243.600 297.047,243.600 297.243 C 243.600 297.440,243.375 297.601,243.100 297.602 C 242.825 297.604,242.122 297.854,241.539 298.159 C 240.955 298.463,239.785 298.936,238.939 299.208 C 238.092 299.481,237.211 299.853,236.980 300.035 C 236.749 300.216,235.804 300.486,234.880 300.634 C 233.956 300.781,233.200 301.021,233.200 301.165 C 233.200 301.310,232.885 301.452,232.500 301.480 C 230.706 301.612,226.101 302.543,225.239 302.948 C 223.920 303.569,116.903 303.597,116.485 302.977 C 116.239 302.612,112.093 301.752,109.300 301.486 C 108.805 301.439,108.400 301.285,108.400 301.145 C 108.400 301.005,107.590 300.769,106.600 300.621 C 105.610 300.472,104.800 300.200,104.800 300.015 C 104.800 299.831,103.900 299.464,102.800 299.200 C 101.700 298.936,100.800 298.578,100.800 298.405 C 100.800 298.231,100.170 297.971,99.400 297.826 C 98.630 297.682,98.000 297.411,98.000 297.225 C 98.000 297.039,97.563 296.777,97.028 296.643 C 96.493 296.509,95.818 296.172,95.528 295.895 C 95.238 295.617,94.550 295.159,94.000 294.876 C 91.686 293.685,90.588 293.062,90.400 292.836 C 90.290 292.704,89.480 292.062,88.600 291.410 C 87.720 290.758,86.756 290.039,86.458 289.812 C 85.079 288.764,76.800 280.355,76.800 280.003 C 76.800 279.785,76.440 279.382,76.000 279.107 C 75.560 278.832,75.200 278.394,75.200 278.132 C 75.200 277.871,74.886 277.343,74.503 276.960 C 73.707 276.164,73.026 275.087,72.317 273.500 C 72.046 272.895,71.706 272.400,71.561 272.400 C 71.416 272.400,71.058 271.815,70.765 271.100 C 70.473 270.385,70.001 269.562,69.717 269.271 C 69.433 268.981,69.200 268.485,69.200 268.170 C 69.200 267.855,68.840 266.925,68.400 266.104 C 67.960 265.284,67.600 264.294,67.600 263.906 C 67.600 263.518,67.449 263.200,67.264 263.200 C 67.079 263.200,66.699 262.165,66.419 260.900 C 66.140 259.635,65.768 258.420,65.593 258.200 C 65.418 257.980,65.145 256.900,64.987 255.800 C 64.829 254.700,64.546 253.607,64.360 253.372 C 63.191 251.895,63.207 231.689,64.378 230.206 C 64.555 229.983,64.829 228.900,64.987 227.800 C 65.145 226.700,65.418 225.620,65.593 225.400 C 65.768 225.180,66.140 223.965,66.419 222.700 C 66.699 221.435,67.064 220.400,67.232 220.400 C 67.399 220.400,67.651 219.878,67.791 219.239 C 67.932 218.601,68.396 217.392,68.823 216.554 C 69.250 215.716,69.600 214.799,69.600 214.515 C 69.600 214.232,69.766 214.000,69.969 214.000 C 70.172 214.000,70.546 213.370,70.800 212.600 C 71.054 211.830,71.425 211.200,71.623 211.200 C 71.822 211.200,72.098 210.750,72.236 210.200 C 72.374 209.650,72.625 209.200,72.795 209.200 C 72.964 209.200,73.321 208.673,73.588 208.029 C 73.855 207.385,74.327 206.760,74.637 206.641 C 74.946 206.522,75.200 206.169,75.200 205.855 C 75.200 205.542,75.447 205.191,75.749 205.075 C 76.050 204.959,76.424 204.357,76.580 203.736 C 76.736 203.116,77.074 202.478,77.332 202.319 C 77.964 201.928,77.984 192.489,77.354 192.085 C 77.109 191.928,76.771 191.361,76.603 190.824 C 76.279 189.787,72.622 186.000,71.945 186.000 C 71.724 186.000,71.273 185.730,70.943 185.400 C 70.613 185.070,69.916 184.800,69.395 184.800 C 68.874 184.800,68.346 184.636,68.222 184.436 C 67.949 183.994,62.362 183.960,61.800 184.397 C 61.580 184.568,60.815 184.833,60.100 184.986 C 59.385 185.138,58.800 185.417,58.800 185.605 C 58.800 185.793,58.395 186.073,57.900 186.229 C 56.920 186.536,55.870 187.556,54.128 189.892 C 53.510 190.722,52.913 191.490,52.801 191.600 C 52.176 192.215,50.400 195.115,50.400 195.522 C 50.400 195.785,50.242 196.000,50.049 196.000 C 49.855 196.000,49.458 196.585,49.165 197.300 C 48.873 198.015,48.401 198.838,48.117 199.129 C 47.833 199.419,47.600 199.914,47.600 200.229 C 47.600 200.543,47.450 200.800,47.268 200.800 C 46.924 200.800,44.800 205.270,44.800 205.993 C 44.800 206.217,44.620 206.400,44.400 206.400 C 44.180 206.400,44.029 206.535,44.065 206.700 C 44.100 206.865,43.920 207.507,43.665 208.126 C 43.409 208.745,43.200 209.495,43.200 209.793 C 43.200 210.090,43.065 210.393,42.900 210.467 C 42.465 210.660,41.193 214.256,40.695 216.700 C 40.459 217.855,40.135 218.800,39.975 218.800 C 39.814 218.800,39.456 220.375,39.179 222.300 C 38.902 224.225,38.526 225.995,38.344 226.233 C 38.162 226.472,37.892 228.503,37.745 230.747 C 37.598 232.992,37.325 234.923,37.139 235.038 C 36.696 235.312,36.696 248.400,37.139 248.400 C 37.326 248.400,37.596 250.316,37.739 252.659 C 37.882 255.001,38.151 257.116,38.337 257.359 C 38.523 257.601,38.912 259.375,39.202 261.300 C 39.492 263.225,39.880 264.800,40.064 264.800 C 40.249 264.800,40.400 265.154,40.400 265.588 C 40.400 266.494,42.135 271.994,43.009 273.860 C 43.334 274.554,43.600 275.409,43.600 275.760 C 43.600 276.112,43.780 276.400,44.000 276.400 C 44.220 276.400,44.377 276.535,44.348 276.700 C 44.258 277.216,45.359 279.600,45.688 279.600 C 45.859 279.600,46.000 279.822,46.000 280.094 C 46.000 280.572,47.982 284.795,48.397 285.200 C 48.509 285.310,48.871 285.940,49.201 286.600 C 49.530 287.260,49.939 287.980,50.109 288.200 C 50.278 288.420,51.516 290.206,52.858 292.170 C 55.815 296.495,55.828 296.511,57.700 298.413 C 58.525 299.251,59.200 300.069,59.200 300.230 C 59.200 300.782,69.360 310.400,69.943 310.400 C 70.118 310.400,70.683 310.850,71.200 311.400 C 71.717 311.950,72.359 312.400,72.627 312.400 C 72.895 312.400,73.218 312.670,73.345 313.000 C 73.471 313.330,73.842 313.600,74.168 313.600 C 74.494 313.600,74.904 313.841,75.080 314.136 C 75.256 314.431,76.300 315.190,77.400 315.822 C 78.500 316.455,79.638 317.204,79.929 317.486 C 80.219 317.769,80.692 318.000,80.980 318.000 C 81.267 318.000,81.717 318.258,81.979 318.574 C 82.241 318.890,82.983 319.264,83.628 319.406 C 84.272 319.548,84.800 319.800,84.800 319.968 C 84.800 320.135,85.520 320.510,86.400 320.800 C 87.280 321.090,88.000 321.479,88.000 321.664 C 88.000 321.849,88.190 322.000,88.422 322.000 C 88.654 322.000,89.644 322.365,90.622 322.810 C 91.600 323.256,92.940 323.728,93.600 323.860 C 94.260 323.992,94.800 324.237,94.800 324.405 C 94.800 324.573,95.412 324.826,96.160 324.966 C 96.908 325.106,98.033 325.470,98.660 325.773 C 99.287 326.077,100.745 326.449,101.900 326.600 C 103.054 326.751,104.092 327.025,104.206 327.209 C 104.320 327.393,105.445 327.669,106.706 327.821 C 107.968 327.974,109.180 328.240,109.400 328.413 C 111.632 330.167,230.001 330.162,232.200 328.408 C 232.420 328.233,233.725 327.961,235.101 327.805 C 236.476 327.649,237.692 327.375,237.802 327.197 C 237.913 327.018,239.262 326.659,240.801 326.400 C 242.341 326.140,243.600 325.780,243.600 325.599 C 243.600 325.418,244.320 325.149,245.200 325.000 C 246.080 324.851,246.800 324.594,246.800 324.429 C 246.800 324.263,247.790 323.890,249.000 323.600 C 250.210 323.310,251.200 322.935,251.200 322.768 C 251.200 322.601,251.740 322.345,252.400 322.200 C 253.060 322.055,253.600 321.799,253.600 321.632 C 253.600 321.464,254.320 321.111,255.200 320.847 C 256.080 320.584,256.800 320.195,256.800 319.984 C 256.800 319.773,257.022 319.600,257.294 319.600 C 257.985 319.600,262.000 317.533,262.000 317.178 C 262.000 317.018,262.417 316.782,262.926 316.654 C 263.436 316.526,264.291 316.060,264.826 315.618 C 266.229 314.461,266.412 314.326,268.387 313.000 C 269.369 312.340,270.487 311.530,270.870 311.200 C 271.254 310.870,272.327 309.970,273.256 309.200 C 275.238 307.556,282.072 300.816,283.800 298.801 C 285.626 296.671,289.200 292.016,289.200 291.767 C 289.200 291.646,289.650 290.957,290.200 290.236 C 290.750 289.514,291.200 288.716,291.200 288.462 C 291.200 288.208,291.337 288.000,291.505 288.000 C 291.815 288.000,292.221 287.322,293.423 284.800 C 293.790 284.030,294.207 283.310,294.350 283.200 C 294.726 282.912,296.800 278.530,296.800 278.025 C 296.800 277.791,296.966 277.600,297.168 277.600 C 297.371 277.600,297.664 277.018,297.821 276.306 C 297.977 275.594,298.338 274.649,298.623 274.206 C 298.908 273.763,299.264 272.725,299.415 271.900 C 299.566 271.075,299.816 270.400,299.971 270.400 C 300.126 270.400,300.486 269.228,300.771 267.796 C 301.055 266.364,301.432 265.104,301.607 264.996 C 301.782 264.888,302.052 263.854,302.207 262.700 C 302.363 261.545,302.647 260.405,302.839 260.166 C 303.031 259.927,303.388 257.497,303.632 254.766 C 303.877 252.035,304.239 249.487,304.438 249.105 C 304.945 248.132,304.909 234.400,304.400 234.400 C 304.180 234.400,304.000 233.557,304.000 232.527 C 304.000 230.056,303.173 223.508,302.797 223.000 C 302.634 222.780,302.371 221.700,302.213 220.600 C 302.055 219.500,301.786 218.420,301.615 218.200 C 301.444 217.980,301.077 216.829,300.799 215.642 C 300.520 214.455,300.048 213.015,299.749 212.442 C 299.450 211.869,299.204 211.029,299.202 210.576 C 299.201 210.124,298.936 209.404,298.613 208.976 C 298.290 208.549,298.020 207.898,298.013 207.529 C 298.006 207.159,297.757 206.614,297.460 206.318 C 297.164 206.021,296.686 205.063,296.400 204.189 C 295.906 202.683,294.915 200.836,294.367 200.400 C 294.229 200.290,293.901 199.539,293.638 198.732 C 293.374 197.925,292.898 197.048,292.580 196.783 C 292.261 196.518,292.000 196.054,292.000 195.751 C 292.000 195.448,291.853 195.200,291.674 195.200 C 291.495 195.200,291.037 194.615,290.658 193.900 C 289.604 191.916,289.057 191.037,288.400 190.271 C 288.070 189.887,287.613 189.353,287.384 189.086 C 287.155 188.819,286.683 188.188,286.336 187.686 C 284.614 185.192,275.224 175.200,274.603 175.200 C 274.433 175.200,273.700 174.570,272.974 173.800 C 272.248 173.030,271.533 172.400,271.385 172.400 C 271.110 172.400,269.111 170.878,267.966 169.798 C 267.618 169.469,267.206 169.200,267.050 169.200 C 266.742 169.200,264.545 167.700,263.682 166.900 C 263.386 166.625,262.913 166.400,262.633 166.400 C 262.352 166.400,261.707 166.040,261.200 165.600 C 260.693 165.160,260.035 164.800,259.739 164.800 C 259.442 164.800,259.200 164.626,259.200 164.413 C 259.200 164.199,258.930 164.129,258.600 164.255 C 258.270 164.382,258.000 164.328,258.000 164.134 C 258.000 163.601,253.460 161.376,252.700 161.536 C 252.535 161.571,252.400 161.420,252.400 161.200 C 252.400 160.980,252.210 160.800,251.978 160.800 C 251.746 160.800,250.801 160.460,249.878 160.045 C 248.955 159.630,247.615 159.166,246.900 159.014 C 246.185 158.861,245.600 158.582,245.600 158.393 C 245.600 158.204,244.790 157.928,243.800 157.779 C 242.810 157.631,242.000 157.375,242.000 157.211 C 242.000 157.047,240.605 156.678,238.900 156.391 C 237.195 156.103,235.710 155.743,235.600 155.589 C 235.367 155.263,229.858 154.412,227.127 154.279 C 226.097 154.229,225.122 154.056,224.961 153.894 C 224.527 153.460,166.800 153.528,166.800 153.963 " stroke="none" fill="#343434" fill-rule="evenodd"></path><path id="path1" d="" stroke="none" fill="#383434" fill-rule="evenodd"></path><path id="path2" d="" stroke="none" fill="#383434" fill-rule="evenodd"></path><path id="path3" d="" stroke="none" fill="#383434" fill-rule="evenodd"></path><path id="path4" d="" stroke="none" fill="#383434" fill-rule="evenodd"></path></g></svg>