<svg id="svg" version="1.1" xmlns="http://www.w3.org/2000/svg" xmlns:xlink="http://www.w3.org/1999/xlink" width="400" height="400" viewBox="0, 0, 400,400"><g id="svgg"><path id="path0" d="M330.600 95.048 C 326.443 96.114,329.473 93.183,237.707 184.919 L 150.014 272.584 112.707 235.304 C 74.349 196.975,74.090 196.723,72.400 196.201 C 71.850 196.031,71.274 195.696,71.120 195.455 C 70.742 194.864,62.870 194.848,62.486 195.438 C 62.329 195.680,61.750 195.987,61.200 196.122 C 59.850 196.453,57.547 198.309,55.785 200.487 C 55.265 201.130,54.292 203.473,54.393 203.838 C 54.434 203.988,54.234 204.255,53.948 204.432 C 52.384 205.399,53.568 213.014,55.737 215.937 C 58.730 219.969,142.539 302.903,144.600 303.872 C 147.196 305.092,152.860 305.495,154.045 304.543 C 154.350 304.298,155.047 303.961,155.592 303.793 C 157.464 303.217,159.128 301.577,251.011 209.705 C 337.859 122.869,345.927 114.629,345.415 113.295 C 345.302 113.000,345.382 112.865,345.593 112.996 C 347.047 113.895,346.905 105.745,345.415 102.818 C 344.304 100.637,340.391 96.402,339.482 96.398 C 339.217 96.396,338.460 96.113,337.800 95.767 C 336.578 95.128,332.051 94.676,330.600 95.048 " stroke="none" fill="#343434" fill-rule="evenodd"></path><path id="path1" d="" stroke="none" fill="#383434" fill-rule="evenodd"></path><path id="path2" d="" stroke="none" fill="#383434" fill-rule="evenodd"></path><path id="path3" d="" stroke="none" fill="#383434" fill-rule="evenodd"></path><path id="path4" d="" stroke="none" fill="#383434" fill-rule="evenodd"></path></g></svg>