<svg id="svg" version="1.1" xmlns="http://www.w3.org/2000/svg" xmlns:xlink="http://www.w3.org/1999/xlink" width="400" height="400" viewBox="0, 0, 400,400"><g id="svgg"><path id="path0" d="M197.835 78.343 C 197.719 78.531,196.629 78.788,195.414 78.914 C 193.577 79.103,189.963 80.433,189.200 81.200 C 189.090 81.311,188.515 81.651,187.922 81.957 C 185.255 83.330,180.045 89.698,180.538 90.982 C 180.669 91.325,180.573 91.549,180.317 91.495 C 179.781 91.383,178.875 94.054,178.831 95.876 C 178.814 96.578,178.620 97.264,178.400 97.400 C 178.180 97.536,178.000 98.807,178.000 100.224 C 178.000 101.675,178.175 102.800,178.400 102.800 C 178.620 102.800,178.800 103.307,178.800 103.927 C 178.800 110.854,187.612 120.183,194.970 121.048 C 196.197 121.192,197.200 121.465,197.200 121.655 C 197.200 121.845,198.460 122.000,200.000 122.000 C 201.540 122.000,202.800 121.845,202.800 121.655 C 202.800 121.465,203.803 121.192,205.030 121.048 C 212.388 120.183,221.200 110.854,221.200 103.927 C 221.200 103.307,221.380 102.800,221.600 102.800 C 222.088 102.800,222.142 97.735,221.657 97.435 C 221.469 97.319,221.208 96.327,221.078 95.232 C 220.688 91.938,218.050 87.123,215.199 84.504 C 213.196 82.663,212.869 82.414,211.815 81.934 C 211.257 81.680,210.800 81.320,210.800 81.136 C 210.800 80.951,210.572 80.800,210.294 80.800 C 210.016 80.800,209.087 80.424,208.229 79.964 C 207.372 79.505,205.704 79.029,204.523 78.907 C 203.343 78.785,202.281 78.531,202.165 78.343 C 202.048 78.154,201.074 78.000,200.000 78.000 C 198.926 78.000,197.952 78.154,197.835 78.343 M197.400 178.400 C 197.264 178.620,196.656 178.800,196.049 178.800 C 193.041 178.800,187.654 181.519,184.587 184.587 C 181.519 187.654,178.800 193.041,178.800 196.049 C 178.800 196.656,178.620 197.264,178.400 197.400 C 177.913 197.701,177.862 202.268,178.343 202.565 C 178.531 202.681,178.792 203.670,178.921 204.762 C 179.781 212.024,187.973 220.219,195.232 221.078 C 196.327 221.208,197.319 221.469,197.435 221.657 C 197.552 221.846,198.706 222.000,200.000 222.000 C 201.294 222.000,202.448 221.846,202.565 221.657 C 202.681 221.469,203.673 221.208,204.768 221.078 C 212.027 220.219,220.219 212.024,221.079 204.762 C 221.208 203.670,221.469 202.681,221.657 202.565 C 222.104 202.288,222.104 197.712,221.657 197.435 C 221.469 197.319,221.208 196.330,221.079 195.238 C 220.219 187.976,212.027 179.781,204.768 178.922 C 203.673 178.792,202.681 178.531,202.565 178.343 C 202.268 177.862,197.701 177.913,197.400 178.400 M197.200 278.311 C 197.200 278.483,195.985 278.818,194.500 279.057 C 187.473 280.187,179.762 288.079,178.952 294.970 C 178.808 296.197,178.535 297.200,178.345 297.200 C 177.896 297.200,177.894 302.287,178.343 302.565 C 178.531 302.681,178.794 303.693,178.927 304.813 C 179.129 306.520,180.483 310.087,181.200 310.800 C 181.311 310.910,181.651 311.485,181.957 312.078 C 182.570 313.269,185.399 316.263,186.797 317.200 C 187.290 317.530,188.105 318.115,188.609 318.500 C 189.114 318.885,189.680 319.200,189.869 319.200 C 190.058 319.200,190.913 319.576,191.771 320.036 C 192.628 320.495,194.296 320.971,195.477 321.093 C 196.657 321.215,197.719 321.469,197.835 321.657 C 197.952 321.846,198.926 322.000,200.000 322.000 C 201.074 322.000,202.048 321.846,202.165 321.657 C 202.281 321.469,203.343 321.215,204.523 321.093 C 205.704 320.971,207.372 320.495,208.229 320.036 C 209.087 319.576,209.942 319.200,210.131 319.200 C 210.320 319.200,210.886 318.885,211.391 318.500 C 211.895 318.115,212.703 317.530,213.187 317.200 C 216.952 314.631,220.589 308.903,221.078 304.768 C 221.208 303.673,221.469 302.681,221.657 302.565 C 222.142 302.265,222.088 297.200,221.600 297.200 C 221.380 297.200,221.200 296.693,221.200 296.073 C 221.200 289.146,212.388 279.817,205.030 278.952 C 203.803 278.808,202.800 278.535,202.800 278.345 C 202.800 278.155,201.540 278.000,200.000 278.000 C 198.460 278.000,197.200 278.140,197.200 278.311 " stroke="none" fill="#343434" fill-rule="evenodd"></path><path id="path1" d="" stroke="none" fill="#383434" fill-rule="evenodd"></path><path id="path2" d="" stroke="none" fill="#383434" fill-rule="evenodd"></path><path id="path3" d="" stroke="none" fill="#383434" fill-rule="evenodd"></path><path id="path4" d="" stroke="none" fill="#383434" fill-rule="evenodd"></path></g></svg>