<svg id="svg" version="1.1" xmlns="http://www.w3.org/2000/svg" xmlns:xlink="http://www.w3.org/1999/xlink" width="400" height="400" viewBox="0, 0, 400,400"><g id="svgg"><path id="path0" d="M191.038 37.139 C 190.923 37.325,188.173 37.603,184.927 37.756 C 181.681 37.910,178.930 38.172,178.813 38.340 C 178.696 38.507,176.440 38.876,173.800 39.160 C 171.161 39.443,168.911 39.820,168.800 39.996 C 168.690 40.172,167.385 40.446,165.900 40.605 C 164.415 40.764,163.200 41.007,163.200 41.147 C 163.200 41.286,162.795 41.433,162.300 41.474 C 160.695 41.605,156.606 42.542,156.400 42.824 C 156.290 42.976,155.300 43.307,154.200 43.562 C 151.386 44.212,151.443 44.196,150.997 44.475 C 150.775 44.614,149.920 44.854,149.097 45.008 C 148.274 45.163,147.600 45.429,147.600 45.600 C 147.600 45.771,146.925 46.037,146.100 46.192 C 145.275 46.346,143.845 46.816,142.922 47.236 C 141.999 47.656,140.975 48.000,140.646 48.000 C 140.316 48.000,139.936 48.180,139.800 48.400 C 139.664 48.620,138.753 49.002,137.776 49.248 C 136.799 49.494,136.000 49.839,136.000 50.016 C 136.000 50.192,135.415 50.465,134.700 50.622 C 133.985 50.778,132.773 51.243,132.006 51.653 C 131.239 52.064,130.384 52.400,130.106 52.400 C 129.828 52.400,129.600 52.562,129.600 52.761 C 129.600 53.076,127.263 54.110,126.845 53.980 C 126.759 53.953,126.579 54.088,126.445 54.279 C 126.310 54.469,125.030 55.211,123.600 55.926 C 120.872 57.292,119.534 58.050,119.200 58.423 C 119.090 58.545,118.415 58.882,117.700 59.171 C 116.985 59.460,116.400 59.816,116.400 59.961 C 116.400 60.106,115.905 60.448,115.300 60.720 C 113.258 61.640,112.000 62.442,112.000 62.822 C 112.000 63.030,111.724 63.200,111.387 63.200 C 111.051 63.200,110.667 63.480,110.536 63.823 C 110.404 64.166,110.065 64.357,109.781 64.248 C 109.498 64.139,109.167 64.309,109.046 64.625 C 108.924 64.941,108.549 65.200,108.213 65.200 C 107.876 65.200,107.600 65.351,107.600 65.536 C 107.600 65.720,107.143 66.080,106.585 66.334 C 105.481 66.837,104.708 67.414,103.683 68.500 C 103.320 68.885,102.862 69.200,102.667 69.200 C 102.471 69.200,101.386 69.965,100.256 70.900 C 99.125 71.835,97.959 72.780,97.664 73.000 C 97.370 73.220,96.528 73.965,95.794 74.657 C 95.060 75.348,94.268 75.978,94.032 76.057 C 92.666 76.514,76.514 92.666,76.057 94.032 C 75.978 94.268,75.348 95.060,74.657 95.794 C 73.965 96.528,73.220 97.370,73.000 97.664 C 72.780 97.959,71.835 99.125,70.900 100.256 C 69.965 101.386,69.200 102.471,69.200 102.667 C 69.200 102.862,68.885 103.320,68.500 103.683 C 67.414 104.708,66.837 105.481,66.334 106.585 C 66.080 107.143,65.720 107.600,65.536 107.600 C 65.351 107.600,65.200 107.876,65.200 108.213 C 65.200 108.549,64.941 108.924,64.625 109.046 C 64.309 109.167,64.139 109.498,64.248 109.781 C 64.357 110.065,64.166 110.404,63.823 110.536 C 63.480 110.667,63.200 111.051,63.200 111.387 C 63.200 111.724,63.030 112.000,62.822 112.000 C 62.442 112.000,61.640 113.258,60.720 115.300 C 60.448 115.905,60.106 116.400,59.961 116.400 C 59.816 116.400,59.460 116.985,59.171 117.700 C 58.882 118.415,58.545 119.090,58.423 119.200 C 58.050 119.534,57.292 120.872,55.926 123.600 C 55.211 125.030,54.469 126.310,54.279 126.445 C 54.088 126.579,53.953 126.759,53.980 126.845 C 54.110 127.263,53.076 129.600,52.761 129.600 C 52.562 129.600,52.400 129.828,52.400 130.106 C 52.400 130.384,52.064 131.239,51.653 132.006 C 51.243 132.773,50.778 133.985,50.622 134.700 C 50.465 135.415,50.185 136.000,50.000 136.000 C 49.815 136.000,49.538 136.585,49.386 137.300 C 49.233 138.015,48.875 139.050,48.590 139.600 C 47.626 141.464,46.470 144.593,46.190 146.100 C 46.037 146.925,45.771 147.600,45.600 147.600 C 45.429 147.600,45.163 148.275,45.009 149.100 C 44.855 149.925,44.542 150.825,44.315 151.100 C 44.088 151.375,44.036 151.600,44.200 151.600 C 44.364 151.600,44.316 151.825,44.094 152.100 C 43.872 152.375,43.558 153.410,43.396 154.400 C 43.234 155.390,42.978 156.290,42.826 156.400 C 42.565 156.589,41.669 160.464,41.485 162.200 C 41.438 162.640,41.294 163.090,41.164 163.200 C 40.713 163.582,38.866 174.539,38.826 177.067 C 38.812 177.983,38.627 178.793,38.416 178.867 C 38.206 178.940,37.908 181.661,37.755 184.914 C 37.602 188.167,37.325 190.923,37.139 191.038 C 36.952 191.153,36.800 195.186,36.800 200.000 C 36.800 204.814,36.952 208.847,37.139 208.962 C 37.325 209.077,37.602 211.833,37.755 215.086 C 37.908 218.339,38.206 221.060,38.416 221.133 C 38.627 221.207,38.812 222.017,38.826 222.933 C 38.866 225.461,40.713 236.418,41.164 236.800 C 41.294 236.910,41.438 237.360,41.485 237.800 C 41.669 239.536,42.565 243.411,42.826 243.600 C 42.978 243.710,43.234 244.610,43.396 245.600 C 43.558 246.590,43.872 247.625,44.094 247.900 C 44.316 248.175,44.364 248.400,44.200 248.400 C 44.036 248.400,44.088 248.625,44.315 248.900 C 44.542 249.175,44.855 250.075,45.009 250.900 C 45.163 251.725,45.449 252.400,45.645 252.400 C 45.840 252.400,46.000 252.685,46.000 253.033 C 46.000 253.868,47.976 259.579,48.618 260.600 C 48.895 261.040,49.243 261.985,49.393 262.700 C 49.542 263.415,49.815 264.000,50.000 264.000 C 50.185 264.000,50.465 264.585,50.622 265.300 C 50.778 266.015,51.243 267.227,51.653 267.994 C 52.064 268.761,52.400 269.616,52.400 269.894 C 52.400 270.172,52.562 270.400,52.761 270.400 C 53.083 270.400,53.987 272.429,53.947 273.062 C 53.939 273.199,54.088 273.421,54.279 273.555 C 54.469 273.690,55.211 274.970,55.926 276.400 C 57.292 279.128,58.050 280.466,58.423 280.800 C 58.545 280.910,58.882 281.585,59.171 282.300 C 59.460 283.015,59.816 283.600,59.961 283.600 C 60.106 283.600,60.448 284.095,60.720 284.700 C 61.640 286.742,62.442 288.000,62.822 288.000 C 63.030 288.000,63.200 288.276,63.200 288.613 C 63.200 288.949,63.480 289.333,63.823 289.464 C 64.166 289.596,64.357 289.935,64.248 290.219 C 64.139 290.502,64.309 290.833,64.625 290.954 C 64.941 291.076,65.200 291.451,65.200 291.787 C 65.200 292.124,65.351 292.400,65.536 292.400 C 65.720 292.400,66.080 292.857,66.334 293.415 C 66.837 294.519,67.414 295.292,68.500 296.317 C 68.885 296.680,69.200 297.138,69.200 297.333 C 69.200 297.529,69.965 298.614,70.900 299.744 C 71.835 300.875,72.780 302.041,73.000 302.336 C 73.220 302.630,73.965 303.472,74.657 304.206 C 75.348 304.940,75.978 305.732,76.057 305.968 C 76.514 307.334,92.666 323.486,94.032 323.943 C 94.268 324.022,95.060 324.652,95.794 325.343 C 96.528 326.035,97.370 326.780,97.664 327.000 C 97.959 327.220,99.125 328.165,100.256 329.100 C 101.386 330.035,102.471 330.800,102.667 330.800 C 102.862 330.800,103.320 331.115,103.683 331.500 C 104.708 332.586,105.481 333.163,106.585 333.666 C 107.143 333.920,107.600 334.280,107.600 334.464 C 107.600 334.649,107.861 334.800,108.180 334.800 C 108.499 334.800,108.904 335.025,109.080 335.301 C 109.256 335.576,109.940 336.071,110.600 336.400 C 111.260 336.729,111.944 337.224,112.120 337.499 C 112.296 337.775,112.701 338.000,113.020 338.000 C 113.339 338.000,113.600 338.168,113.600 338.374 C 113.600 338.580,114.230 338.976,115.000 339.254 C 115.770 339.533,116.400 339.883,116.400 340.032 C 116.400 340.181,116.985 340.540,117.700 340.829 C 118.415 341.118,119.090 341.455,119.200 341.577 C 119.534 341.950,120.872 342.708,123.600 344.074 C 125.030 344.789,126.290 345.489,126.400 345.629 C 126.510 345.769,127.275 346.104,128.100 346.373 C 128.925 346.642,129.600 347.028,129.600 347.231 C 129.600 347.434,129.828 347.600,130.106 347.600 C 130.384 347.600,131.239 347.936,132.006 348.347 C 132.773 348.757,133.985 349.222,134.700 349.378 C 135.415 349.535,136.000 349.808,136.000 349.984 C 136.000 350.161,136.799 350.506,137.776 350.752 C 138.753 350.998,139.664 351.380,139.800 351.600 C 139.936 351.820,140.316 352.000,140.646 352.000 C 140.975 352.000,141.999 352.344,142.922 352.764 C 143.845 353.184,145.275 353.654,146.100 353.808 C 146.925 353.963,147.600 354.229,147.600 354.400 C 147.600 354.571,148.275 354.837,149.100 354.991 C 149.925 355.145,150.805 355.441,151.056 355.648 C 151.306 355.855,152.611 356.218,153.956 356.455 C 155.300 356.692,156.400 357.026,156.400 357.197 C 156.400 357.368,157.387 357.631,158.594 357.782 C 159.800 357.933,160.879 358.205,160.992 358.386 C 161.104 358.568,162.772 358.937,164.698 359.206 C 166.624 359.475,168.380 359.837,168.600 360.011 C 168.820 360.185,171.160 360.559,173.800 360.842 C 176.440 361.124,178.696 361.493,178.813 361.660 C 178.930 361.828,181.681 362.090,184.927 362.244 C 188.173 362.397,190.923 362.675,191.038 362.861 C 191.316 363.311,285.490 363.302,285.768 362.853 C 285.886 362.661,286.706 362.389,287.591 362.248 C 288.476 362.106,289.200 361.832,289.200 361.639 C 289.200 361.445,289.643 361.176,290.184 361.040 C 291.309 360.757,294.000 358.147,294.000 357.339 C 294.000 357.042,294.145 356.800,294.323 356.800 C 295.935 356.800,296.933 347.540,295.600 344.961 C 294.052 341.966,291.231 338.800,290.111 338.800 C 289.830 338.800,289.600 338.628,289.600 338.418 C 289.600 338.208,288.970 337.918,288.200 337.774 C 287.430 337.629,286.800 337.351,286.800 337.155 C 286.800 336.950,268.311 336.800,243.082 336.800 C 202.042 336.800,183.232 336.435,182.206 335.619 C 181.983 335.441,180.360 335.166,178.600 335.008 C 176.840 334.850,175.215 334.569,174.990 334.385 C 174.764 334.201,174.089 334.105,173.490 334.170 C 172.890 334.236,172.400 334.160,172.400 334.000 C 172.400 333.841,171.404 333.593,170.186 333.450 C 168.969 333.307,167.664 333.019,167.286 332.811 C 166.588 332.426,163.172 331.584,161.900 331.484 C 161.515 331.453,161.200 331.298,161.200 331.139 C 161.200 330.979,160.390 330.728,159.400 330.579 C 158.410 330.431,157.600 330.178,157.600 330.018 C 157.600 329.858,156.613 329.506,155.407 329.236 C 154.201 328.967,153.110 328.578,152.983 328.373 C 152.856 328.168,152.482 328.000,152.151 328.000 C 151.820 328.000,150.565 327.550,149.363 327.000 C 148.160 326.450,147.028 326.000,146.848 326.000 C 146.667 326.000,145.699 325.564,144.696 325.030 C 143.693 324.497,142.766 324.167,142.636 324.297 C 142.506 324.427,142.400 324.343,142.400 324.111 C 142.400 323.879,141.770 323.571,141.000 323.426 C 140.230 323.282,139.600 323.010,139.600 322.821 C 139.600 322.632,139.105 322.276,138.500 322.029 C 137.895 321.782,136.236 320.954,134.813 320.190 C 133.391 319.425,132.015 318.800,131.756 318.800 C 131.497 318.800,131.182 318.530,131.055 318.200 C 130.929 317.870,130.549 317.600,130.213 317.600 C 129.876 317.600,129.600 317.442,129.600 317.249 C 129.600 317.055,129.015 316.661,128.300 316.372 C 127.585 316.083,126.856 315.611,126.680 315.323 C 126.504 315.036,126.114 314.800,125.813 314.800 C 125.513 314.800,125.207 314.665,125.133 314.500 C 125.060 314.335,124.190 313.663,123.200 313.006 C 121.319 311.758,117.337 308.888,116.532 308.200 C 116.275 307.980,115.596 307.440,115.023 307.000 C 114.451 306.560,113.229 305.525,112.309 304.700 C 111.388 303.875,110.515 303.200,110.368 303.200 C 110.020 303.200,96.800 289.980,96.800 289.632 C 96.800 289.375,94.525 286.701,92.822 284.958 C 92.370 284.495,92.000 283.925,92.000 283.691 C 92.000 283.458,91.865 283.207,91.700 283.133 C 91.368 282.986,88.846 279.591,86.994 276.800 C 86.337 275.810,85.665 274.940,85.500 274.867 C 85.335 274.793,85.200 274.487,85.200 274.187 C 85.200 273.886,84.964 273.496,84.677 273.320 C 84.389 273.144,83.917 272.415,83.628 271.700 C 83.339 270.985,82.945 270.400,82.751 270.400 C 82.558 270.400,82.400 270.124,82.400 269.787 C 82.400 269.451,82.130 269.071,81.800 268.945 C 81.470 268.818,81.200 268.503,81.200 268.244 C 81.200 267.985,80.586 266.609,79.835 265.187 C 79.084 263.764,78.075 261.790,77.592 260.800 C 75.221 255.940,74.000 253.316,74.000 253.082 C 74.000 252.940,73.550 251.840,73.000 250.637 C 72.450 249.435,72.000 248.206,72.000 247.906 C 72.000 247.606,71.847 247.189,71.659 246.980 C 71.471 246.771,71.083 245.700,70.797 244.600 C 70.510 243.500,70.147 242.420,69.990 242.200 C 69.833 241.980,69.478 240.810,69.200 239.600 C 68.922 238.390,68.559 237.220,68.393 237.000 C 68.227 236.780,67.960 235.790,67.800 234.800 C 67.640 233.810,67.366 232.820,67.190 232.600 C 67.015 232.380,66.652 230.670,66.385 228.800 C 66.118 226.930,65.760 225.220,65.589 225.000 C 65.419 224.780,65.150 223.160,64.992 221.400 C 64.834 219.640,64.558 218.017,64.380 217.793 C 63.206 216.317,63.206 183.683,64.380 182.207 C 64.558 181.983,64.834 180.360,64.992 178.600 C 65.150 176.840,65.419 175.220,65.589 175.000 C 65.760 174.780,66.118 173.070,66.385 171.200 C 66.652 169.330,67.015 167.620,67.190 167.400 C 67.366 167.180,67.640 166.190,67.800 165.200 C 67.960 164.210,68.227 163.220,68.393 163.000 C 68.559 162.780,68.922 161.610,69.200 160.400 C 69.478 159.190,69.833 158.020,69.990 157.800 C 70.147 157.580,70.510 156.500,70.797 155.400 C 71.083 154.300,71.471 153.229,71.659 153.020 C 71.847 152.811,72.000 152.394,72.000 152.094 C 72.000 151.794,72.450 150.565,73.000 149.363 C 73.550 148.160,74.000 147.060,74.000 146.918 C 74.000 146.684,75.221 144.060,77.592 139.200 C 78.075 138.210,79.084 136.236,79.835 134.813 C 80.586 133.391,81.200 132.015,81.200 131.756 C 81.200 131.497,81.470 131.182,81.800 131.055 C 82.130 130.929,82.400 130.549,82.400 130.213 C 82.400 129.876,82.558 129.600,82.751 129.600 C 82.945 129.600,83.339 129.015,83.628 128.300 C 83.917 127.585,84.389 126.856,84.677 126.680 C 84.964 126.504,85.200 126.114,85.200 125.813 C 85.200 125.513,85.335 125.207,85.500 125.133 C 85.665 125.060,86.337 124.190,86.994 123.200 C 88.242 121.319,91.112 117.337,91.800 116.532 C 92.020 116.275,92.560 115.596,93.000 115.023 C 93.440 114.451,94.475 113.229,95.300 112.309 C 96.125 111.388,96.800 110.515,96.800 110.368 C 96.800 110.020,110.020 96.800,110.368 96.800 C 110.515 96.800,111.388 96.125,112.309 95.300 C 113.229 94.475,114.451 93.440,115.023 93.000 C 115.596 92.560,116.275 92.020,116.532 91.800 C 117.337 91.112,121.319 88.242,123.200 86.994 C 124.190 86.337,125.060 85.665,125.133 85.500 C 125.207 85.335,125.513 85.200,125.813 85.200 C 126.114 85.200,126.504 84.964,126.680 84.677 C 126.856 84.389,127.585 83.917,128.300 83.628 C 129.015 83.339,129.600 82.945,129.600 82.751 C 129.600 82.558,129.876 82.400,130.213 82.400 C 130.549 82.400,130.929 82.130,131.055 81.800 C 131.182 81.470,131.497 81.200,131.756 81.200 C 132.015 81.200,133.391 80.575,134.813 79.810 C 136.236 79.046,137.895 78.218,138.500 77.971 C 139.105 77.724,139.600 77.374,139.600 77.193 C 139.600 77.012,140.185 76.736,140.900 76.580 C 141.615 76.424,143.170 75.780,144.356 75.148 C 145.542 74.517,146.662 74.000,146.844 74.000 C 147.027 74.000,148.160 73.550,149.363 73.000 C 150.565 72.450,151.820 72.000,152.151 72.000 C 152.482 72.000,152.856 71.832,152.983 71.627 C 153.110 71.422,154.201 71.033,155.407 70.764 C 156.613 70.494,157.600 70.154,157.600 70.010 C 157.600 69.865,158.772 69.514,160.204 69.229 C 161.636 68.945,162.896 68.568,163.004 68.393 C 163.112 68.218,164.100 67.951,165.200 67.800 C 166.300 67.649,167.288 67.381,167.397 67.204 C 167.507 67.028,169.172 66.663,171.098 66.394 C 173.024 66.125,174.780 65.764,175.000 65.593 C 175.220 65.421,176.840 65.150,178.600 64.992 C 180.360 64.834,181.983 64.558,182.207 64.380 C 183.683 63.206,216.317 63.206,217.793 64.380 C 218.017 64.558,219.640 64.834,221.400 64.992 C 223.160 65.150,224.780 65.421,225.000 65.593 C 225.220 65.764,226.976 66.125,228.902 66.394 C 230.828 66.663,232.493 67.028,232.603 67.204 C 232.712 67.381,233.700 67.649,234.800 67.800 C 235.900 67.951,236.888 68.218,236.996 68.393 C 237.104 68.568,238.364 68.945,239.796 69.229 C 241.228 69.514,242.400 69.865,242.400 70.010 C 242.400 70.154,243.387 70.494,244.593 70.764 C 245.799 71.033,246.890 71.422,247.017 71.627 C 247.144 71.832,247.518 72.000,247.849 72.000 C 248.180 72.000,249.435 72.450,250.637 73.000 C 251.840 73.550,252.973 74.000,253.156 74.000 C 253.338 74.000,254.458 74.517,255.644 75.148 C 256.830 75.780,258.385 76.424,259.100 76.580 C 259.815 76.736,260.400 77.012,260.400 77.193 C 260.400 77.374,260.895 77.724,261.500 77.971 C 262.105 78.218,263.764 79.046,265.187 79.810 C 266.609 80.575,267.985 81.200,268.244 81.200 C 268.503 81.200,268.818 81.470,268.945 81.800 C 269.071 82.130,269.451 82.400,269.787 82.400 C 270.124 82.400,270.400 82.558,270.400 82.751 C 270.400 82.945,270.985 83.339,271.700 83.628 C 272.415 83.917,273.144 84.389,273.320 84.677 C 273.496 84.964,273.886 85.200,274.187 85.200 C 274.487 85.200,274.793 85.335,274.867 85.500 C 274.940 85.665,275.810 86.337,276.800 86.994 C 279.591 88.846,282.986 91.368,283.133 91.700 C 283.207 91.865,283.458 92.000,283.691 92.000 C 283.925 92.000,284.495 92.370,284.958 92.822 C 286.701 94.525,289.375 96.800,289.632 96.800 C 289.980 96.800,303.200 110.020,303.200 110.368 C 303.200 110.515,303.875 111.388,304.700 112.309 C 305.525 113.229,306.560 114.451,307.000 115.023 C 307.440 115.596,307.980 116.275,308.200 116.532 C 308.888 117.337,311.758 121.319,313.006 123.200 C 313.663 124.190,314.335 125.060,314.500 125.133 C 314.665 125.207,314.800 125.513,314.800 125.813 C 314.800 126.114,315.036 126.504,315.323 126.680 C 315.611 126.856,316.083 127.585,316.372 128.300 C 316.661 129.015,317.055 129.600,317.249 129.600 C 317.442 129.600,317.600 129.876,317.600 130.213 C 317.600 130.549,317.870 130.929,318.200 131.055 C 318.530 131.182,318.800 131.477,318.800 131.711 C 318.800 132.120,319.952 134.497,322.428 139.200 C 323.065 140.410,323.590 141.625,323.593 141.900 C 323.597 142.175,323.810 142.400,324.067 142.400 C 324.323 142.400,324.427 142.506,324.297 142.636 C 324.167 142.766,324.497 143.693,325.030 144.696 C 325.564 145.699,326.000 146.667,326.000 146.848 C 326.000 147.028,326.450 148.160,327.000 149.363 C 327.550 150.565,328.000 151.794,328.000 152.094 C 328.000 152.394,328.153 152.811,328.341 153.020 C 328.529 153.229,328.917 154.300,329.203 155.400 C 329.490 156.500,329.860 157.580,330.026 157.800 C 330.192 158.020,330.455 158.875,330.609 159.700 C 330.763 160.525,331.010 161.200,331.159 161.200 C 331.307 161.200,331.453 161.515,331.484 161.900 C 331.584 163.172,332.426 166.588,332.811 167.286 C 333.019 167.664,333.307 168.969,333.450 170.186 C 333.593 171.404,333.841 172.400,334.000 172.400 C 334.160 172.400,334.236 172.890,334.170 173.490 C 334.105 174.089,334.201 174.764,334.385 174.990 C 334.569 175.215,334.850 176.840,335.008 178.600 C 335.166 180.360,335.441 181.983,335.619 182.206 C 337.159 184.143,337.137 231.423,335.594 232.966 C 335.377 233.183,335.200 233.621,335.200 233.940 C 335.200 234.478,333.250 238.751,332.799 239.200 C 332.689 239.310,332.343 239.896,332.031 240.502 C 331.718 241.108,330.959 242.098,330.342 242.702 C 329.726 243.306,329.217 244.000,329.211 244.244 C 329.205 244.488,328.727 245.028,328.148 245.444 C 327.569 245.860,326.685 246.560,326.183 247.000 C 324.635 248.357,322.906 249.458,320.800 250.429 C 320.250 250.683,319.350 251.123,318.800 251.408 C 318.250 251.693,317.080 252.057,316.200 252.215 C 315.320 252.374,314.358 252.697,314.062 252.933 C 313.350 253.500,302.825 253.484,302.464 252.915 C 302.319 252.686,301.390 252.366,300.400 252.204 C 299.410 252.042,298.383 251.734,298.118 251.520 C 297.852 251.306,297.447 251.247,297.218 251.389 C 296.988 251.531,296.800 251.460,296.800 251.231 C 296.800 251.002,296.350 250.702,295.800 250.564 C 295.250 250.426,294.800 250.197,294.800 250.054 C 294.800 249.912,294.227 249.542,293.528 249.232 C 292.121 248.609,290.964 247.725,288.706 245.547 C 287.878 244.748,287.193 244.208,287.184 244.347 C 287.175 244.486,286.883 244.074,286.535 243.430 C 286.186 242.787,285.740 242.067,285.543 241.830 C 285.346 241.594,284.824 240.962,284.382 240.426 C 283.940 239.891,283.474 239.036,283.346 238.526 C 283.218 238.017,282.953 237.600,282.757 237.600 C 282.560 237.600,282.400 237.410,282.400 237.178 C 282.400 236.946,282.044 235.974,281.608 235.018 C 281.173 234.062,280.697 232.267,280.552 231.029 C 280.406 229.791,280.133 228.682,279.944 228.565 C 279.755 228.448,279.599 220.758,279.599 211.476 C 279.597 195.731,279.162 185.950,278.421 185.002 C 278.248 184.781,277.981 183.614,277.828 182.410 C 277.674 181.205,277.407 180.035,277.234 179.810 C 277.061 179.584,276.687 178.270,276.403 176.888 C 276.118 175.507,275.731 174.281,275.543 174.165 C 275.354 174.048,275.200 173.682,275.200 173.351 C 275.200 173.020,274.750 171.765,274.200 170.563 C 273.650 169.360,273.200 168.216,273.200 168.021 C 273.200 167.611,271.919 165.099,271.558 164.800 C 271.425 164.690,271.096 163.925,270.827 163.100 C 270.558 162.275,270.208 161.600,270.049 161.600 C 269.891 161.600,269.533 160.970,269.254 160.200 C 268.976 159.430,268.580 158.800,268.374 158.800 C 268.168 158.800,268.000 158.543,268.000 158.229 C 268.000 157.914,267.775 157.419,267.500 157.129 C 267.225 156.838,266.481 155.835,265.846 154.900 C 265.211 153.965,264.536 153.200,264.346 153.200 C 264.156 153.200,264.000 152.964,264.000 152.675 C 264.000 152.387,263.640 151.764,263.200 151.292 C 262.760 150.820,262.400 150.312,262.400 150.164 C 262.400 150.016,261.770 149.300,261.000 148.574 C 260.230 147.848,259.597 147.107,259.594 146.927 C 259.587 146.518,253.444 140.400,253.041 140.400 C 252.879 140.400,252.152 139.770,251.426 139.000 C 250.700 138.230,249.902 137.600,249.653 137.600 C 249.404 137.600,249.200 137.416,249.200 137.191 C 249.200 136.967,248.707 136.562,248.105 136.291 C 247.504 136.021,246.723 135.530,246.371 135.200 C 246.020 134.870,245.320 134.330,244.817 134.000 C 244.314 133.670,243.698 133.206,243.448 132.968 C 242.935 132.481,241.144 131.461,239.500 130.720 C 238.895 130.448,238.400 130.098,238.400 129.943 C 238.400 129.789,237.725 129.442,236.900 129.173 C 236.075 128.904,235.310 128.575,235.200 128.442 C 234.901 128.081,232.389 126.800,231.979 126.800 C 231.784 126.800,230.640 126.350,229.437 125.800 C 228.235 125.250,226.980 124.800,226.649 124.800 C 226.318 124.800,225.943 124.631,225.815 124.425 C 225.688 124.218,225.227 124.118,224.792 124.202 C 224.356 124.285,224.000 124.200,224.000 124.012 C 224.000 123.824,223.235 123.544,222.300 123.390 C 221.365 123.236,220.420 122.968,220.200 122.794 C 219.755 122.444,215.268 121.572,213.400 121.473 C 212.740 121.438,212.072 121.227,211.915 121.005 C 211.733 120.748,207.388 120.600,200.000 120.600 C 192.612 120.600,188.267 120.748,188.085 121.005 C 187.928 121.227,187.260 121.438,186.600 121.473 C 184.732 121.572,180.245 122.444,179.800 122.794 C 179.580 122.968,178.635 123.236,177.700 123.390 C 176.765 123.544,176.000 123.824,176.000 124.012 C 176.000 124.200,175.644 124.285,175.208 124.202 C 174.773 124.118,174.312 124.218,174.185 124.425 C 174.057 124.631,173.682 124.800,173.351 124.800 C 173.020 124.800,171.765 125.250,170.563 125.800 C 169.360 126.350,168.216 126.800,168.021 126.800 C 167.611 126.800,165.099 128.081,164.800 128.442 C 164.690 128.575,163.925 128.904,163.100 129.173 C 162.275 129.442,161.600 129.789,161.600 129.943 C 161.600 130.098,161.105 130.448,160.500 130.720 C 158.856 131.461,157.065 132.481,156.552 132.968 C 156.302 133.206,155.686 133.670,155.183 134.000 C 154.680 134.330,153.977 134.870,153.622 135.200 C 153.266 135.530,152.486 136.055,151.888 136.368 C 151.290 136.680,150.800 137.085,150.800 137.268 C 150.800 137.450,150.596 137.600,150.347 137.600 C 150.098 137.600,149.300 138.230,148.574 139.000 C 147.848 139.770,147.107 140.403,146.927 140.406 C 146.518 140.413,140.400 146.556,140.400 146.959 C 140.400 147.121,139.770 147.848,139.000 148.574 C 138.230 149.300,137.600 150.098,137.600 150.347 C 137.600 150.596,137.450 150.800,137.268 150.800 C 137.085 150.800,136.680 151.290,136.368 151.888 C 136.055 152.486,135.530 153.266,135.200 153.622 C 134.870 153.977,134.330 154.680,134.000 155.183 C 133.670 155.686,133.206 156.302,132.968 156.552 C 132.481 157.065,131.461 158.856,130.720 160.500 C 130.448 161.105,130.098 161.600,129.943 161.600 C 129.789 161.600,129.442 162.275,129.173 163.100 C 128.904 163.925,128.575 164.690,128.442 164.800 C 128.081 165.099,126.800 167.611,126.800 168.021 C 126.800 168.216,126.350 169.360,125.800 170.563 C 125.250 171.765,124.800 173.020,124.800 173.351 C 124.800 173.682,124.631 174.057,124.425 174.185 C 124.218 174.312,124.118 174.773,124.202 175.208 C 124.285 175.644,124.200 176.000,124.012 176.000 C 123.824 176.000,123.544 176.765,123.390 177.700 C 123.236 178.635,122.968 179.580,122.794 179.800 C 122.444 180.245,121.572 184.732,121.473 186.600 C 121.438 187.260,121.227 187.928,121.005 188.085 C 120.748 188.267,120.600 192.612,120.600 200.000 C 120.600 207.388,120.748 211.733,121.005 211.915 C 121.227 212.072,121.438 212.740,121.473 213.400 C 121.572 215.268,122.444 219.755,122.794 220.200 C 122.968 220.420,123.236 221.365,123.390 222.300 C 123.544 223.235,123.824 224.000,124.012 224.000 C 124.200 224.000,124.285 224.356,124.202 224.792 C 124.118 225.227,124.218 225.688,124.425 225.815 C 124.631 225.943,124.800 226.318,124.800 226.649 C 124.800 226.980,125.250 228.235,125.800 229.437 C 126.350 230.640,126.800 231.784,126.800 231.979 C 126.800 232.389,128.081 234.901,128.442 235.200 C 128.575 235.310,128.904 236.075,129.173 236.900 C 129.442 237.725,129.789 238.400,129.943 238.400 C 130.098 238.400,130.448 238.895,130.720 239.500 C 131.461 241.144,132.481 242.935,132.968 243.448 C 133.206 243.698,133.670 244.314,134.000 244.817 C 134.330 245.320,134.870 246.020,135.200 246.371 C 135.530 246.723,136.021 247.504,136.291 248.105 C 136.562 248.707,136.967 249.200,137.191 249.200 C 137.416 249.200,137.600 249.404,137.600 249.653 C 137.600 249.902,138.230 250.700,139.000 251.426 C 139.770 252.152,140.403 252.893,140.406 253.073 C 140.413 253.482,146.556 259.600,146.959 259.600 C 147.121 259.600,147.848 260.230,148.574 261.000 C 149.300 261.770,150.016 262.400,150.164 262.400 C 150.312 262.400,150.820 262.760,151.292 263.200 C 151.764 263.640,152.387 264.000,152.675 264.000 C 152.964 264.000,153.200 264.156,153.200 264.346 C 153.200 264.536,153.965 265.211,154.900 265.846 C 155.835 266.481,156.838 267.225,157.129 267.500 C 157.419 267.775,157.914 268.000,158.229 268.000 C 158.543 268.000,158.800 268.168,158.800 268.374 C 158.800 268.580,159.430 268.976,160.200 269.254 C 160.970 269.533,161.600 269.891,161.600 270.049 C 161.600 270.208,162.275 270.558,163.100 270.827 C 163.925 271.096,164.690 271.425,164.800 271.558 C 165.099 271.919,167.611 273.200,168.021 273.200 C 168.216 273.200,169.360 273.650,170.563 274.200 C 171.765 274.750,173.020 275.200,173.351 275.200 C 173.682 275.200,174.048 275.354,174.165 275.543 C 174.281 275.731,175.507 276.118,176.888 276.403 C 178.270 276.687,179.584 277.061,179.810 277.234 C 180.035 277.407,181.205 277.674,182.410 277.828 C 183.614 277.981,184.781 278.248,185.002 278.421 C 186.833 279.853,213.167 279.853,214.998 278.421 C 215.219 278.248,216.386 277.981,217.590 277.828 C 218.795 277.674,219.965 277.407,220.190 277.234 C 220.416 277.061,221.730 276.687,223.112 276.403 C 224.493 276.118,225.719 275.731,225.835 275.543 C 225.952 275.354,226.318 275.200,226.649 275.200 C 226.980 275.200,228.235 274.750,229.437 274.200 C 230.640 273.650,231.784 273.200,231.979 273.200 C 232.389 273.200,234.901 271.919,235.200 271.558 C 235.310 271.425,236.075 271.096,236.900 270.827 C 237.725 270.558,238.400 270.208,238.400 270.049 C 238.400 269.891,239.030 269.533,239.800 269.254 C 240.570 268.976,241.200 268.580,241.200 268.374 C 241.200 268.168,241.457 268.000,241.771 268.000 C 242.086 268.000,242.581 267.775,242.871 267.500 C 243.162 267.225,244.165 266.481,245.100 265.846 C 246.035 265.211,246.800 264.536,246.800 264.346 C 246.800 264.156,247.070 264.000,247.400 264.000 C 247.730 264.000,248.360 263.640,248.800 263.200 C 249.240 262.760,249.714 262.400,249.853 262.400 C 249.992 262.400,250.700 261.770,251.426 261.000 C 252.152 260.230,252.893 259.597,253.073 259.594 C 253.563 259.585,259.600 253.403,259.600 252.911 C 259.600 252.677,259.870 252.382,260.200 252.255 C 260.530 252.129,260.800 252.194,260.800 252.400 C 260.800 252.713,263.182 256.434,264.600 258.336 C 265.517 259.566,273.478 267.600,273.780 267.600 C 273.961 267.600,274.509 268.005,274.998 268.500 C 276.302 269.820,277.693 270.800,278.261 270.800 C 278.536 270.800,278.904 271.027,279.080 271.304 C 279.445 271.879,283.557 274.000,284.306 274.000 C 284.578 274.000,284.800 274.141,284.800 274.312 C 284.800 274.781,289.723 276.784,290.900 276.794 C 291.285 276.797,291.600 276.960,291.600 277.155 C 291.600 277.350,292.455 277.636,293.500 277.792 C 294.545 277.948,295.580 278.220,295.800 278.398 C 297.624 279.872,318.677 279.886,320.600 278.415 C 320.820 278.247,321.801 277.987,322.780 277.837 C 323.759 277.687,324.749 277.418,324.980 277.238 C 325.211 277.058,325.934 276.782,326.586 276.626 C 327.238 276.470,328.534 275.995,329.464 275.571 C 330.395 275.147,331.346 274.800,331.578 274.800 C 331.810 274.800,332.000 274.649,332.000 274.464 C 332.000 274.279,332.720 273.890,333.600 273.600 C 334.480 273.310,335.200 272.921,335.200 272.736 C 335.200 272.551,335.461 272.400,335.780 272.400 C 336.099 272.400,336.504 272.164,336.680 271.877 C 336.856 271.589,337.585 271.117,338.300 270.828 C 339.015 270.539,339.600 270.172,339.600 270.013 C 339.600 269.853,339.939 269.560,340.353 269.361 C 343.057 268.064,352.400 258.637,352.400 257.206 C 352.400 256.983,352.584 256.800,352.810 256.800 C 353.035 256.800,353.391 256.350,353.600 255.800 C 353.809 255.250,354.165 254.800,354.390 254.800 C 354.616 254.800,354.800 254.554,354.800 254.254 C 354.800 253.954,355.135 253.279,355.545 252.754 C 355.955 252.229,356.429 251.350,356.599 250.800 C 356.769 250.250,357.019 249.709,357.154 249.599 C 357.741 249.119,359.158 246.031,359.412 244.678 C 359.564 243.865,359.816 243.200,359.971 243.200 C 360.126 243.200,360.492 241.985,360.784 240.500 C 361.076 239.015,361.452 237.710,361.620 237.600 C 361.787 237.490,362.052 235.960,362.208 234.200 C 362.364 232.440,362.651 230.697,362.846 230.326 C 363.299 229.465,363.314 191.317,362.861 191.038 C 362.675 190.923,362.398 188.167,362.245 184.914 C 362.092 181.661,361.794 178.940,361.584 178.867 C 361.373 178.793,361.188 177.983,361.174 177.067 C 361.129 174.232,359.056 162.257,358.416 161.135 C 358.208 160.769,357.915 159.554,357.767 158.435 C 357.618 157.316,357.357 156.400,357.186 156.400 C 357.015 156.400,356.755 155.524,356.607 154.452 C 356.460 153.381,356.090 152.023,355.785 151.435 C 355.480 150.847,355.113 149.744,354.970 148.983 C 354.828 148.222,354.571 147.600,354.400 147.600 C 354.229 147.600,353.963 146.925,353.810 146.100 C 353.530 144.593,352.374 141.464,351.410 139.600 C 351.125 139.050,350.767 138.015,350.614 137.300 C 350.462 136.585,350.185 136.000,350.000 136.000 C 349.815 136.000,349.535 135.415,349.378 134.700 C 349.222 133.985,348.757 132.773,348.347 132.006 C 347.936 131.239,347.600 130.384,347.600 130.106 C 347.600 129.828,347.434 129.600,347.231 129.600 C 347.028 129.600,346.642 128.925,346.373 128.100 C 346.104 127.275,345.769 126.510,345.629 126.400 C 345.489 126.290,344.789 125.030,344.074 123.600 C 342.708 120.872,341.950 119.534,341.577 119.200 C 341.455 119.090,341.118 118.415,340.829 117.700 C 340.540 116.985,340.181 116.400,340.032 116.400 C 339.883 116.400,339.533 115.770,339.254 115.000 C 338.976 114.230,338.580 113.600,338.374 113.600 C 338.168 113.600,338.000 113.339,338.000 113.020 C 338.000 112.701,337.775 112.296,337.499 112.120 C 337.224 111.944,336.729 111.260,336.400 110.600 C 336.071 109.940,335.576 109.256,335.301 109.080 C 335.025 108.904,334.800 108.499,334.800 108.180 C 334.800 107.861,334.642 107.600,334.449 107.600 C 334.255 107.600,333.873 107.060,333.600 106.400 C 333.327 105.740,332.957 105.200,332.778 105.200 C 332.600 105.200,332.340 104.840,332.200 104.400 C 332.060 103.960,331.688 103.600,331.373 103.600 C 331.058 103.600,330.800 103.310,330.800 102.956 C 330.800 102.601,330.035 101.386,329.100 100.256 C 328.165 99.125,327.220 97.959,327.000 97.664 C 326.780 97.370,326.035 96.528,325.343 95.794 C 324.652 95.060,324.022 94.268,323.943 94.032 C 323.486 92.666,307.359 76.520,306.000 76.067 C 305.747 75.982,304.940 75.348,304.206 74.657 C 303.472 73.966,302.630 73.220,302.336 73.000 C 302.041 72.780,300.875 71.835,299.744 70.900 C 298.614 69.965,297.529 69.200,297.333 69.200 C 297.138 69.200,296.680 68.885,296.317 68.500 C 295.292 67.414,294.519 66.837,293.415 66.334 C 292.857 66.080,292.400 65.720,292.400 65.536 C 292.400 65.351,292.124 65.200,291.787 65.200 C 291.451 65.200,291.076 64.941,290.954 64.625 C 290.833 64.309,290.502 64.139,290.219 64.248 C 289.935 64.357,289.596 64.166,289.464 63.823 C 289.333 63.480,288.949 63.200,288.613 63.200 C 288.276 63.200,288.000 63.030,288.000 62.822 C 288.000 62.442,286.742 61.640,284.700 60.720 C 284.095 60.448,283.600 60.106,283.600 59.961 C 283.600 59.816,283.015 59.460,282.300 59.171 C 281.585 58.882,280.910 58.545,280.800 58.423 C 280.466 58.050,279.128 57.292,276.400 55.926 C 274.970 55.211,273.690 54.469,273.555 54.279 C 273.421 54.088,273.241 53.953,273.155 53.980 C 272.737 54.110,270.400 53.076,270.400 52.761 C 270.400 52.562,270.172 52.400,269.894 52.400 C 269.616 52.400,268.761 52.064,267.994 51.653 C 267.227 51.243,266.015 50.778,265.300 50.622 C 264.585 50.465,264.000 50.185,264.000 50.000 C 264.000 49.815,263.415 49.535,262.700 49.378 C 261.985 49.222,260.773 48.757,260.006 48.347 C 259.239 47.936,258.305 47.600,257.930 47.600 C 257.554 47.600,257.144 47.432,257.017 47.227 C 256.890 47.022,255.799 46.633,254.593 46.364 C 253.387 46.094,252.400 45.741,252.400 45.581 C 252.400 45.420,251.726 45.163,250.903 45.008 C 250.080 44.854,249.225 44.614,249.003 44.475 C 248.557 44.196,248.614 44.212,245.800 43.562 C 244.700 43.307,243.710 42.976,243.600 42.824 C 243.394 42.542,239.305 41.605,237.700 41.474 C 237.205 41.433,236.800 41.286,236.800 41.147 C 236.800 41.007,235.585 40.764,234.100 40.605 C 232.615 40.446,231.310 40.172,231.200 39.996 C 231.089 39.820,228.839 39.443,226.200 39.160 C 223.560 38.876,221.304 38.507,221.187 38.340 C 221.070 38.172,218.319 37.910,215.073 37.756 C 211.827 37.603,209.077 37.325,208.962 37.139 C 208.689 36.696,191.311 36.696,191.038 37.139 M208.191 147.172 C 208.416 147.347,209.668 147.611,210.974 147.758 C 212.279 147.904,213.539 148.179,213.774 148.368 C 214.008 148.556,215.235 148.940,216.500 149.219 C 217.765 149.499,218.800 149.879,218.800 150.064 C 218.800 150.249,219.115 150.400,219.500 150.399 C 220.123 150.398,227.169 153.727,228.195 154.507 C 228.418 154.676,229.026 155.166,229.548 155.596 C 230.069 156.025,230.817 156.478,231.211 156.603 C 231.604 156.728,232.027 157.094,232.150 157.415 C 232.274 157.737,232.577 158.000,232.824 158.000 C 233.340 158.000,240.410 165.043,242.200 167.340 C 242.860 168.188,243.638 169.133,243.929 169.440 C 244.219 169.748,244.309 170.003,244.129 170.006 C 243.948 170.009,243.990 170.144,244.221 170.306 C 245.161 170.962,249.600 179.323,249.600 180.437 C 249.600 180.820,249.742 181.193,249.915 181.267 C 250.339 181.446,251.560 185.589,252.135 188.800 C 252.391 190.230,252.772 191.668,252.983 191.996 C 253.194 192.324,253.366 195.926,253.366 200.000 C 253.366 204.074,253.194 207.676,252.983 208.004 C 252.649 208.524,251.710 212.894,251.501 214.900 C 251.461 215.285,251.303 215.600,251.149 215.600 C 250.996 215.600,250.749 216.320,250.600 217.200 C 250.451 218.080,250.166 218.800,249.965 218.800 C 249.764 218.800,249.600 219.128,249.600 219.530 C 249.600 220.670,245.178 229.026,244.221 229.694 C 243.990 229.856,243.948 229.991,244.129 229.994 C 244.309 229.997,244.219 230.252,243.929 230.560 C 243.638 230.867,242.860 231.812,242.200 232.660 C 240.599 234.714,233.365 242.000,232.925 242.000 C 232.734 242.000,232.280 242.315,231.917 242.700 C 230.954 243.720,230.000 244.467,230.000 244.200 C 230.000 244.073,229.724 244.201,229.386 244.484 C 229.048 244.768,228.553 245.180,228.286 245.400 C 227.356 246.165,220.196 249.602,219.533 249.601 C 219.167 249.600,218.807 249.742,218.733 249.915 C 218.554 250.340,214.367 251.576,211.400 252.082 C 210.080 252.307,208.579 252.689,208.063 252.932 C 206.804 253.527,193.196 253.527,191.937 252.932 C 191.421 252.689,189.920 252.307,188.600 252.082 C 185.633 251.576,181.446 250.340,181.267 249.915 C 181.193 249.742,180.833 249.600,180.467 249.601 C 179.804 249.602,172.644 246.165,171.714 245.400 C 171.447 245.180,170.952 244.768,170.614 244.484 C 170.276 244.201,170.000 244.073,170.000 244.200 C 170.000 244.467,169.046 243.720,168.083 242.700 C 167.720 242.315,167.266 242.000,167.075 242.000 C 166.311 242.000,157.275 232.451,156.320 230.636 C 156.078 230.176,155.763 229.710,155.619 229.600 C 154.763 228.945,150.400 220.526,150.400 219.530 C 150.400 219.128,150.249 218.800,150.064 218.800 C 149.879 218.800,149.499 217.765,149.219 216.500 C 148.940 215.235,148.568 214.020,148.394 213.800 C 148.220 213.580,147.948 212.320,147.789 211.000 C 147.631 209.680,147.306 208.357,147.068 208.059 C 146.476 207.321,146.476 192.679,147.068 191.941 C 147.306 191.643,147.631 190.320,147.789 189.000 C 147.948 187.680,148.220 186.420,148.394 186.200 C 148.568 185.980,148.940 184.765,149.219 183.500 C 149.499 182.235,149.879 181.200,150.064 181.200 C 150.249 181.200,150.400 180.872,150.400 180.470 C 150.400 179.474,154.763 171.055,155.619 170.400 C 155.763 170.290,156.078 169.824,156.320 169.364 C 157.350 167.405,166.335 158.000,167.176 158.000 C 167.423 158.000,167.726 157.737,167.850 157.415 C 167.973 157.094,168.396 156.728,168.789 156.603 C 169.183 156.478,169.931 156.025,170.452 155.596 C 170.974 155.166,171.582 154.676,171.805 154.507 C 172.831 153.727,179.877 150.398,180.500 150.399 C 180.885 150.400,181.200 150.245,181.200 150.055 C 181.200 149.865,182.285 149.479,183.612 149.198 C 184.938 148.916,186.111 148.544,186.218 148.371 C 186.325 148.198,187.445 147.941,188.706 147.801 C 189.968 147.661,191.360 147.382,191.800 147.181 C 193.458 146.423,207.221 146.415,208.191 147.172 " stroke="none" fill="#343434" fill-rule="evenodd"></path><path id="path1" d="" stroke="none" fill="#383434" fill-rule="evenodd"></path><path id="path2" d="" stroke="none" fill="#383434" fill-rule="evenodd"></path><path id="path3" d="" stroke="none" fill="#383434" fill-rule="evenodd"></path><path id="path4" d="" stroke="none" fill="#383434" fill-rule="evenodd"></path></g></svg>