<svg id="svg" version="1.1" xmlns="http://www.w3.org/2000/svg" xmlns:xlink="http://www.w3.org/1999/xlink" width="400" height="400" viewBox="0, 0, 400,400"><g id="svgg"><path id="path0" d="M114.622 37.564 C 114.495 37.770,113.493 37.842,112.395 37.724 C 111.035 37.578,110.400 37.656,110.400 37.969 C 110.400 38.299,110.183 38.312,109.624 38.013 C 109.099 37.732,108.767 37.729,108.597 38.005 C 108.458 38.230,108.169 38.305,107.955 38.172 C 107.740 38.040,107.298 38.152,106.973 38.423 C 106.647 38.693,106.267 38.800,106.127 38.660 C 105.988 38.521,105.677 38.554,105.437 38.735 C 104.722 39.271,101.325 40.442,100.327 40.496 C 99.817 40.524,98.905 40.886,98.300 41.300 C 97.695 41.715,97.200 41.930,97.200 41.778 C 97.200 41.626,96.930 41.726,96.600 42.000 C 96.270 42.274,96.000 42.380,96.000 42.235 C 96.000 42.090,95.640 42.165,95.200 42.400 C 94.760 42.635,94.400 43.086,94.400 43.402 C 94.400 43.747,94.161 43.883,93.800 43.745 C 93.468 43.617,93.200 43.733,93.200 44.004 C 93.200 44.296,92.878 44.409,92.399 44.284 C 91.959 44.169,91.700 44.238,91.823 44.437 C 91.946 44.637,91.767 44.800,91.424 44.800 C 91.081 44.800,90.800 45.055,90.800 45.366 C 90.800 45.678,90.260 46.172,89.600 46.464 C 88.940 46.756,88.400 47.142,88.400 47.321 C 88.400 47.501,88.232 47.544,88.028 47.417 C 87.823 47.291,87.525 47.398,87.366 47.655 C 87.192 47.937,87.249 48.017,87.511 47.855 C 87.749 47.708,88.035 47.733,88.145 47.910 C 88.255 48.088,87.998 48.260,87.575 48.292 C 86.697 48.358,81.489 53.446,79.994 55.697 C 79.447 56.521,78.865 57.196,78.700 57.197 C 78.535 57.199,78.400 57.532,78.400 57.938 C 78.400 58.344,78.044 58.998,77.609 59.391 C 77.175 59.785,76.908 60.252,77.018 60.429 C 77.127 60.606,76.960 60.897,76.646 61.075 C 76.333 61.254,76.014 61.760,75.938 62.200 C 75.862 62.640,75.493 63.230,75.117 63.511 C 74.741 63.792,74.526 64.264,74.640 64.559 C 74.753 64.855,74.596 65.347,74.291 65.652 C 73.986 65.957,73.810 66.431,73.901 66.704 C 74.088 67.264,73.149 69.600,72.738 69.600 C 72.591 69.600,72.520 70.054,72.581 70.610 C 72.642 71.165,72.536 71.716,72.346 71.833 C 72.156 71.951,72.000 72.397,72.000 72.824 C 72.000 73.251,71.853 73.600,71.673 73.600 C 71.493 73.600,71.397 74.256,71.461 75.058 C 71.524 75.860,71.451 76.715,71.298 76.958 C 71.146 77.201,70.943 78.210,70.849 79.200 C 70.542 82.420,70.619 318.952,70.928 320.600 C 71.093 321.480,71.294 323.133,71.374 324.274 C 71.454 325.414,71.656 326.567,71.822 326.835 C 71.988 327.104,72.166 327.715,72.219 328.192 C 72.271 328.670,72.678 329.813,73.122 330.732 C 73.566 331.651,73.884 332.711,73.828 333.087 C 73.773 333.463,74.064 334.131,74.474 334.571 C 74.884 335.012,75.136 335.590,75.034 335.857 C 74.931 336.123,75.105 336.555,75.419 336.816 C 75.734 337.077,75.896 337.445,75.779 337.635 C 75.662 337.824,75.924 338.286,76.362 338.661 C 76.801 339.036,77.082 339.467,76.989 339.618 C 76.895 339.769,77.175 340.215,77.609 340.609 C 78.044 341.002,78.400 341.640,78.400 342.026 C 78.400 342.413,78.930 343.175,79.578 343.720 C 80.226 344.265,80.646 344.821,80.511 344.956 C 80.377 345.090,80.477 345.200,80.733 345.200 C 80.990 345.200,81.200 345.393,81.200 345.629 C 81.200 346.182,82.218 347.200,82.771 347.200 C 83.007 347.200,83.200 347.398,83.200 347.640 C 83.200 348.364,87.986 352.802,89.318 353.313 C 89.693 353.457,90.000 353.761,90.000 353.987 C 90.000 354.214,90.281 354.400,90.624 354.400 C 90.967 354.400,91.155 354.549,91.042 354.731 C 90.930 354.914,91.594 355.392,92.519 355.794 C 93.443 356.197,94.344 356.768,94.520 357.063 C 94.696 357.358,95.191 357.600,95.620 357.600 C 96.049 357.600,96.400 357.792,96.400 358.027 C 96.400 358.266,96.738 358.347,97.170 358.209 C 97.658 358.054,98.072 358.200,98.299 358.606 C 98.503 358.971,99.809 359.509,101.329 359.856 C 102.798 360.191,104.000 360.641,104.000 360.856 C 104.000 361.071,104.165 361.145,104.368 361.020 C 104.570 360.895,105.006 361.063,105.336 361.393 C 105.786 361.843,105.977 361.869,106.103 361.496 C 106.236 361.101,106.393 361.101,106.872 361.497 C 107.203 361.770,107.580 361.887,107.710 361.756 C 107.840 361.626,108.175 361.661,108.454 361.833 C 109.533 362.500,116.780 362.558,200.000 362.559 C 283.165 362.560,290.463 362.502,291.546 361.833 C 291.825 361.661,292.160 361.626,292.290 361.756 C 292.420 361.887,292.782 361.781,293.094 361.522 C 293.535 361.156,293.742 361.179,294.024 361.626 C 294.224 361.942,294.392 362.020,294.397 361.800 C 294.408 361.313,296.288 360.400,297.280 360.400 C 297.676 360.400,298.000 360.258,298.000 360.085 C 298.000 359.912,298.585 359.726,299.300 359.672 C 300.015 359.619,300.660 359.399,300.734 359.185 C 300.808 358.970,301.033 358.897,301.234 359.021 C 301.435 359.145,301.600 359.057,301.600 358.824 C 301.600 358.591,301.920 358.400,302.311 358.400 C 302.702 358.400,303.377 358.151,303.811 357.847 C 304.245 357.543,304.773 357.287,304.984 357.277 C 305.196 357.267,305.498 356.931,305.656 356.530 C 305.814 356.128,305.956 356.017,305.972 356.282 C 306.006 356.862,308.373 355.498,310.054 353.931 C 310.684 353.343,311.200 352.938,311.200 353.031 C 311.200 353.124,311.531 352.885,311.937 352.500 C 312.342 352.115,312.584 351.637,312.475 351.438 C 312.366 351.239,312.466 351.194,312.698 351.337 C 313.201 351.648,315.600 349.643,315.600 348.911 C 315.600 348.630,315.870 348.400,316.200 348.400 C 316.530 348.400,316.800 348.130,316.800 347.800 C 316.800 347.470,317.068 347.200,317.395 347.200 C 317.722 347.200,318.423 346.525,318.952 345.700 C 319.481 344.875,320.293 343.803,320.757 343.317 C 321.221 342.831,321.600 342.157,321.600 341.820 C 321.600 341.483,321.960 340.982,322.400 340.707 C 322.840 340.432,323.200 339.968,323.200 339.675 C 323.200 339.382,323.480 338.863,323.823 338.520 C 324.166 338.177,324.356 337.662,324.245 337.374 C 324.135 337.087,324.244 336.785,324.488 336.704 C 324.731 336.623,324.984 336.296,325.049 335.978 C 325.423 334.167,325.979 332.460,326.531 331.429 C 326.877 330.784,327.068 330.109,326.956 329.929 C 326.844 329.748,327.033 329.600,327.376 329.600 C 327.719 329.600,328.000 329.420,328.000 329.200 C 328.000 328.980,327.792 328.800,327.538 328.800 C 327.235 328.800,327.277 328.559,327.660 328.100 C 327.980 327.715,328.289 326.770,328.345 326.000 C 328.401 325.230,328.554 324.240,328.686 323.800 C 328.817 323.360,329.012 322.100,329.120 321.000 C 329.427 317.855,329.592 127.909,329.288 127.429 C 329.138 127.193,328.993 126.271,328.965 125.379 C 328.937 124.487,328.698 123.103,328.434 122.303 C 328.170 121.503,328.002 120.612,328.061 120.324 C 328.120 120.036,327.917 119.350,327.611 118.800 C 327.304 118.250,327.086 117.350,327.125 116.800 C 327.164 116.250,326.800 115.170,326.317 114.400 C 325.397 112.934,325.331 112.774,325.250 111.800 C 325.223 111.470,324.975 111.245,324.700 111.300 C 324.425 111.355,324.182 111.040,324.159 110.600 C 324.137 110.160,324.070 109.620,324.012 109.400 C 323.953 109.180,323.927 108.865,323.953 108.700 C 323.979 108.535,323.805 108.400,323.567 108.400 C 323.328 108.400,323.206 108.182,323.295 107.916 C 323.434 107.499,322.616 106.349,320.967 104.640 C 320.730 104.394,320.409 103.691,320.256 103.079 C 320.102 102.467,319.674 101.850,319.306 101.708 C 318.173 101.274,317.200 100.258,317.200 99.511 C 317.200 99.120,317.026 98.800,316.812 98.800 C 316.482 98.800,292.995 75.502,290.553 72.753 C 288.871 70.859,272.080 54.400,271.830 54.400 C 271.433 54.400,269.200 52.020,269.200 51.596 C 269.200 51.390,268.660 50.941,268.000 50.600 C 267.340 50.259,266.800 49.726,266.800 49.417 C 266.800 49.107,266.449 48.743,266.020 48.606 C 265.592 48.470,265.129 48.006,264.992 47.574 C 264.855 47.142,264.609 46.871,264.447 46.971 C 264.285 47.071,263.532 46.624,262.776 45.978 C 262.019 45.331,261.175 44.801,260.900 44.801 C 260.625 44.800,260.400 44.647,260.400 44.460 C 260.400 44.273,259.590 43.787,258.600 43.378 C 257.610 42.970,256.800 42.537,256.800 42.416 C 256.800 41.966,254.400 41.152,253.909 41.435 C 253.629 41.596,253.534 41.580,253.698 41.399 C 254.020 41.044,250.817 39.449,250.473 39.794 C 250.359 39.908,249.942 39.710,249.547 39.352 C 249.153 38.995,248.575 38.801,248.264 38.920 C 247.952 39.040,247.521 38.961,247.304 38.744 C 247.088 38.528,246.169 38.341,245.261 38.329 C 244.354 38.316,243.690 38.179,243.786 38.023 C 243.882 37.868,242.975 37.775,241.771 37.818 C 240.567 37.860,239.492 37.749,239.382 37.571 C 239.095 37.106,114.910 37.099,114.622 37.564 M168.897 63.000 L 220.393 63.000 220.297 90.700 C 220.244 105.935,220.290 118.400,220.400 118.400 C 220.510 118.400,220.590 118.985,220.577 119.700 C 220.547 121.426,220.785 122.055,221.342 121.721 C 221.634 121.546,221.620 121.669,221.303 122.060 C 221.030 122.397,220.920 122.786,221.058 122.924 C 221.195 123.062,221.367 123.831,221.439 124.632 C 221.511 125.434,221.873 126.312,222.244 126.583 C 222.615 126.854,222.973 127.583,223.039 128.202 C 223.105 128.821,223.393 129.476,223.680 129.658 C 223.966 129.839,224.037 129.991,223.838 129.994 C 223.639 129.997,223.751 130.315,224.087 130.700 C 224.423 131.085,225.011 132.073,225.393 132.896 C 225.775 133.720,226.203 134.323,226.344 134.238 C 226.485 134.153,226.832 134.335,227.116 134.642 C 227.413 134.964,227.456 135.200,227.216 135.200 C 226.987 135.200,227.160 135.560,227.600 136.000 C 228.040 136.440,228.498 136.800,228.617 136.800 C 228.736 136.800,229.231 137.186,229.717 137.659 C 230.203 138.131,230.347 138.373,230.038 138.197 C 229.662 137.982,229.571 138.029,229.762 138.338 C 229.919 138.592,230.317 138.800,230.647 138.800 C 230.977 138.800,231.135 138.981,230.998 139.203 C 230.861 139.424,231.076 139.730,231.475 139.883 C 231.874 140.035,232.542 140.477,232.961 140.866 C 233.379 141.254,233.872 141.479,234.057 141.365 C 234.242 141.250,234.817 141.581,235.335 142.099 C 235.853 142.617,236.485 142.972,236.739 142.887 C 236.992 142.803,237.200 142.926,237.200 143.162 C 237.200 143.398,237.515 143.561,237.900 143.526 C 239.160 143.409,241.200 144.088,241.200 144.625 C 241.200 144.914,241.515 145.141,241.900 145.129 C 243.085 145.093,245.780 145.648,246.151 146.004 C 246.344 146.190,246.899 146.191,247.384 146.006 C 247.880 145.817,248.515 145.829,248.833 146.034 C 249.159 146.243,260.870 146.391,276.385 146.382 L 303.370 146.367 303.691 147.235 C 304.214 148.649,303.884 320.905,303.358 321.081 C 303.115 321.162,303.001 321.672,303.105 322.214 C 303.247 322.956,303.121 323.200,302.598 323.200 C 302.044 323.200,301.998 323.315,302.370 323.764 C 302.691 324.150,302.706 324.411,302.419 324.588 C 302.189 324.731,302.000 325.207,302.000 325.647 C 302.000 326.087,301.843 326.350,301.651 326.232 C 301.459 326.113,300.995 326.823,300.618 327.808 C 300.242 328.794,299.758 329.600,299.543 329.600 C 299.329 329.600,299.264 329.780,299.400 330.000 C 299.615 330.348,299.047 330.578,298.661 330.300 C 298.390 330.104,297.212 331.296,297.391 331.585 C 297.593 331.912,295.795 333.600,295.246 333.600 C 295.055 333.600,294.674 333.870,294.400 334.200 C 294.126 334.530,293.485 334.800,292.975 334.800 C 292.465 334.800,291.936 334.980,291.800 335.200 C 291.664 335.420,291.225 335.600,290.825 335.600 C 290.425 335.600,289.876 335.868,289.604 336.196 C 289.332 336.523,288.950 336.693,288.755 336.572 C 288.560 336.451,288.230 336.458,288.021 336.587 C 287.296 337.035,110.800 336.786,110.800 336.337 C 110.800 336.193,109.809 335.763,108.597 335.382 C 107.385 335.000,106.012 334.357,105.545 333.953 C 105.079 333.548,104.539 333.314,104.346 333.434 C 104.152 333.553,103.874 333.338,103.728 332.956 C 103.398 332.097,102.325 331.002,101.248 330.426 C 100.801 330.187,100.029 329.106,99.533 328.024 C 99.037 326.942,98.509 326.133,98.360 326.225 C 98.211 326.317,97.968 325.580,97.819 324.588 C 97.670 323.596,97.393 322.881,97.202 322.999 C 96.677 323.323,96.406 322.638,96.804 321.994 C 97.020 321.644,96.972 321.207,96.677 320.852 C 95.969 319.999,95.985 79.304,96.693 78.866 C 96.964 78.699,97.108 78.161,97.014 77.670 C 96.902 77.090,96.996 76.874,97.284 77.052 C 97.576 77.233,97.650 77.033,97.500 76.463 C 97.376 75.988,97.438 75.600,97.637 75.600 C 97.837 75.600,98.000 75.240,98.000 74.800 C 98.000 74.360,98.166 74.000,98.369 74.000 C 98.572 74.000,98.940 73.388,99.186 72.641 C 99.705 71.071,100.620 69.927,101.900 69.249 C 102.395 68.986,102.800 68.508,102.800 68.186 C 102.800 67.864,103.070 67.600,103.400 67.600 C 103.730 67.600,104.000 67.311,104.000 66.957 C 104.000 66.555,104.221 66.399,104.589 66.541 C 104.914 66.665,105.319 66.549,105.489 66.283 C 105.930 65.598,108.318 64.400,109.245 64.400 C 109.674 64.400,110.128 64.131,110.254 63.802 C 110.381 63.474,110.654 63.310,110.861 63.438 C 111.069 63.566,111.545 63.540,111.919 63.381 C 112.294 63.221,113.270 63.060,114.089 63.023 C 114.908 62.986,115.708 62.825,115.868 62.665 C 116.028 62.506,116.438 62.516,116.779 62.688 C 117.121 62.859,140.574 63.000,168.897 63.000 M247.000 66.000 C 247.140 66.440,247.422 66.823,247.627 66.850 C 247.832 66.877,248.172 66.922,248.383 66.950 C 249.103 67.044,252.001 69.674,251.780 70.033 C 251.658 70.230,251.838 70.284,252.179 70.153 C 252.521 70.022,252.800 70.074,252.800 70.268 C 252.800 70.463,253.340 71.213,254.000 71.936 C 254.660 72.658,255.200 73.167,255.200 73.066 C 255.200 72.965,257.900 75.581,261.200 78.879 C 264.500 82.177,267.200 84.993,267.201 85.137 C 267.201 85.282,267.921 86.030,268.800 86.800 C 269.680 87.570,272.084 89.865,274.143 91.900 C 276.203 93.935,278.093 95.600,278.344 95.600 C 278.595 95.600,278.800 95.782,278.800 96.005 C 278.800 96.228,279.700 97.306,280.800 98.400 C 281.900 99.494,282.800 100.501,282.800 100.638 C 282.800 100.975,284.533 102.784,284.864 102.793 C 285.347 102.806,297.290 114.975,298.287 116.470 C 298.826 117.278,299.533 118.042,299.859 118.167 C 300.184 118.292,300.326 118.596,300.174 118.842 C 300.022 119.088,300.140 119.440,300.437 119.623 C 300.734 119.806,300.881 120.053,300.763 120.170 C 300.611 120.322,257.176 120.520,248.327 120.408 C 245.968 120.379,245.971 120.412,246.041 92.522 C 246.077 78.485,246.127 66.595,246.153 66.100 C 246.211 64.985,246.661 64.932,247.000 66.000 M131.617 170.721 C 130.939 171.189,130.740 171.227,130.976 170.842 C 131.251 170.395,131.090 170.405,130.159 170.895 C 129.522 171.231,127.981 171.991,126.735 172.583 C 124.424 173.682,122.601 175.200,123.592 175.200 C 123.876 175.200,123.634 175.573,123.054 176.029 C 122.474 176.485,122.000 177.094,122.000 177.383 C 122.000 177.672,121.732 178.424,121.405 179.054 C 121.053 179.731,120.971 180.255,121.204 180.333 C 121.430 180.409,121.342 180.834,120.999 181.322 C 120.313 182.303,120.197 184.628,120.816 185.010 C 121.045 185.152,121.123 185.612,120.989 186.034 C 120.853 186.462,120.934 186.800,121.173 186.800 C 121.408 186.800,121.600 187.172,121.600 187.626 C 121.600 189.169,124.783 193.200,126.001 193.200 C 126.220 193.200,126.355 193.335,126.300 193.500 C 126.245 193.665,126.360 193.830,126.555 193.866 C 126.751 193.902,127.059 194.172,127.240 194.466 C 127.422 194.760,127.892 195.029,128.285 195.064 C 128.678 195.099,130.260 195.320,131.800 195.556 C 135.757 196.161,264.322 196.153,268.200 195.547 C 269.740 195.306,271.303 195.118,271.673 195.128 C 272.044 195.138,272.559 194.890,272.819 194.578 C 273.078 194.265,273.450 194.107,273.645 194.228 C 273.840 194.349,274.000 194.246,274.000 194.000 C 274.000 193.755,274.765 192.784,275.700 191.844 C 277.683 189.850,278.400 188.724,278.400 187.605 C 278.400 187.162,278.558 186.800,278.750 186.800 C 279.131 186.800,279.287 185.694,279.259 183.200 C 279.234 180.893,279.075 180.000,278.691 180.000 C 278.505 180.000,278.461 179.825,278.593 179.612 C 278.885 179.139,277.818 176.953,276.653 175.635 C 276.184 175.105,276.070 174.819,276.400 175.000 C 276.730 175.181,276.578 174.865,276.062 174.298 C 275.546 173.731,274.657 173.151,274.087 173.007 C 273.516 172.864,272.853 172.479,272.614 172.151 C 272.374 171.823,271.913 171.515,271.589 171.466 C 271.265 171.418,270.775 171.237,270.500 171.065 C 270.225 170.893,270.000 170.928,270.000 171.142 C 270.000 171.379,269.533 171.354,268.800 171.078 C 268.140 170.828,267.600 170.484,267.600 170.312 C 267.600 169.585,132.675 169.990,131.617 170.721 M132.239 220.737 C 132.125 220.922,131.492 221.041,130.833 221.002 C 130.104 220.959,129.548 221.157,129.413 221.510 C 129.224 222.002,129.089 222.007,128.518 221.545 C 127.947 221.082,127.897 221.085,128.186 221.563 C 128.446 221.995,128.331 222.075,127.688 221.907 C 127.166 221.771,126.768 221.907,126.629 222.270 C 126.506 222.589,126.224 222.739,126.003 222.602 C 125.772 222.459,125.580 222.833,125.554 223.476 C 125.526 224.150,125.434 224.320,125.325 223.901 C 125.179 223.346,124.984 223.288,124.371 223.616 C 123.510 224.076,123.325 225.183,124.100 225.232 C 124.375 225.249,124.117 225.440,123.526 225.656 C 122.810 225.918,122.367 226.441,122.195 227.225 C 122.053 227.871,121.760 228.400,121.545 228.400 C 121.329 228.400,121.269 228.588,121.411 228.818 C 121.553 229.047,121.457 229.490,121.199 229.801 C 120.722 230.376,120.496 234.103,120.871 235.200 C 120.984 235.530,121.296 236.615,121.563 237.610 C 122.054 239.436,124.647 242.800,125.563 242.800 C 125.829 242.800,125.965 242.935,125.865 243.100 C 125.765 243.265,126.144 243.746,126.707 244.168 C 127.271 244.591,127.593 244.713,127.424 244.439 C 127.185 244.052,127.298 244.054,127.932 244.451 C 128.381 244.731,128.659 245.104,128.551 245.280 C 128.341 245.618,129.340 245.729,131.520 245.608 C 132.246 245.568,133.136 245.775,133.497 246.068 C 133.968 246.450,134.069 246.459,133.853 246.100 C 133.613 245.701,146.949 245.600,200.000 245.600 C 253.051 245.600,266.387 245.701,266.147 246.100 C 265.917 246.483,265.982 246.494,266.423 246.150 C 267.426 245.369,269.595 245.246,269.632 245.969 C 269.652 246.382,269.733 246.427,269.865 246.100 C 269.976 245.825,270.372 245.600,270.745 245.600 C 271.118 245.600,271.683 245.240,272.000 244.800 C 272.317 244.360,272.810 244.000,273.095 244.000 C 273.554 244.000,274.414 243.186,277.149 240.161 C 277.774 239.470,278.344 238.314,278.608 237.200 C 278.634 237.090,278.870 236.254,279.132 235.342 C 279.394 234.431,279.530 233.261,279.434 232.742 C 279.338 232.224,279.246 231.294,279.230 230.676 C 279.210 229.932,279.044 229.649,278.737 229.839 C 278.420 230.035,278.345 229.854,278.500 229.263 C 278.624 228.788,278.562 228.400,278.363 228.400 C 278.163 228.400,278.000 227.956,278.000 227.414 C 278.000 226.482,276.664 225.297,275.870 225.525 C 275.689 225.577,275.656 225.432,275.798 225.203 C 275.939 224.974,276.268 224.909,276.528 225.058 C 276.787 225.207,276.564 224.850,276.030 224.265 C 275.497 223.679,274.828 223.200,274.544 223.200 C 274.260 223.200,273.822 222.816,273.571 222.346 C 273.213 221.677,273.041 221.610,272.779 222.035 C 272.511 222.468,272.388 222.434,272.170 221.866 C 272.020 221.474,271.656 221.247,271.361 221.360 C 271.067 221.473,270.737 221.421,270.628 221.246 C 270.520 221.070,269.877 220.960,269.200 221.000 C 268.523 221.040,267.875 220.922,267.761 220.737 C 267.646 220.551,237.154 220.400,200.000 220.400 C 162.846 220.400,132.354 220.551,132.239 220.737 M139.606 269.857 C 139.597 270.502,138.320 270.918,137.990 270.384 C 137.800 270.077,137.529 270.129,137.106 270.551 C 136.770 270.887,136.401 271.068,136.287 270.953 C 135.938 270.604,134.400 271.753,134.400 272.363 C 134.400 272.677,134.302 272.835,134.182 272.715 C 133.168 271.701,128.228 279.951,129.052 281.284 C 129.171 281.477,129.051 281.897,128.785 282.218 C 128.511 282.548,128.474 282.800,128.701 282.800 C 129.070 282.800,129.220 283.622,129.266 285.900 C 129.276 286.395,129.446 286.800,129.642 286.800 C 129.839 286.800,130.000 287.231,130.000 287.757 C 130.000 288.284,130.270 288.818,130.600 288.945 C 130.930 289.071,131.200 289.451,131.200 289.787 C 131.200 290.124,131.399 290.400,131.643 290.400 C 131.886 290.400,131.974 290.690,131.838 291.045 C 131.664 291.499,131.764 291.623,132.175 291.465 C 132.566 291.315,132.686 291.431,132.538 291.817 C 132.407 292.159,132.619 292.488,133.058 292.625 C 133.466 292.753,134.070 293.023,134.400 293.225 C 136.834 294.713,137.949 295.154,138.111 294.692 C 138.237 294.331,138.486 294.376,139.042 294.858 C 139.866 295.572,143.812 295.586,145.382 294.879 C 145.832 294.677,146.863 294.225,147.673 293.875 C 149.446 293.109,150.800 292.004,150.800 291.324 C 150.800 291.045,151.064 290.927,151.400 291.055 C 151.805 291.211,152.000 291.036,152.000 290.518 C 152.000 290.096,152.360 289.364,152.800 288.892 C 153.244 288.415,153.600 287.481,153.600 286.790 C 153.600 286.107,153.823 285.154,154.096 284.674 C 154.618 283.753,154.869 280.800,154.425 280.800 C 154.282 280.800,153.926 279.723,153.634 278.406 C 153.342 277.090,152.964 276.099,152.793 276.204 C 152.467 276.406,151.821 275.234,151.946 274.670 C 151.987 274.489,151.835 274.455,151.610 274.594 C 151.384 274.733,151.200 274.637,151.200 274.381 C 151.200 274.124,150.922 274.021,150.579 274.153 C 150.238 274.284,150.063 274.221,150.191 274.014 C 150.517 273.486,149.161 272.000,148.354 272.000 C 147.986 272.000,147.574 271.710,147.438 271.355 C 147.277 270.935,146.901 270.785,146.364 270.925 C 145.779 271.078,145.598 270.983,145.744 270.602 C 145.893 270.214,145.676 270.112,144.976 270.239 C 144.439 270.336,144.000 270.232,144.000 270.008 C 144.000 269.784,143.730 269.600,143.400 269.600 C 143.070 269.600,142.800 269.786,142.800 270.014 C 142.800 270.289,142.558 270.299,142.078 270.042 C 141.656 269.816,141.122 269.801,140.789 270.007 C 140.432 270.228,140.108 270.180,139.917 269.879 C 139.701 269.539,139.610 269.533,139.606 269.857 M197.240 270.520 C 197.015 270.745,196.332 270.982,195.721 271.047 C 195.111 271.112,194.549 271.353,194.472 271.583 C 194.396 271.812,194.099 272.000,193.813 272.000 C 193.527 272.000,192.643 272.720,191.848 273.600 C 191.053 274.480,190.225 275.200,190.009 275.200 C 189.793 275.200,189.218 275.965,188.731 276.900 C 187.784 278.720,187.635 279.182,187.441 280.908 C 187.373 281.518,187.201 282.133,187.058 282.275 C 186.678 282.656,186.744 284.400,187.139 284.400 C 187.326 284.400,187.495 284.977,187.515 285.682 C 187.553 287.021,188.781 289.987,189.300 289.995 C 189.465 289.998,189.600 290.193,189.600 290.429 C 189.600 290.664,189.870 291.127,190.200 291.457 C 190.530 291.787,190.800 291.927,190.800 291.767 C 190.800 291.445,192.299 293.095,192.773 293.940 C 193.124 294.565,199.644 295.995,200.933 295.729 C 201.410 295.631,202.610 295.343,203.600 295.089 C 204.590 294.835,205.580 294.604,205.800 294.575 C 206.020 294.546,206.425 294.494,206.700 294.461 C 206.975 294.427,207.200 294.119,207.200 293.776 C 207.200 293.433,207.380 293.264,207.600 293.400 C 207.820 293.536,208.000 293.379,208.000 293.051 C 208.000 292.722,208.374 292.335,208.830 292.190 C 209.287 292.046,209.564 291.831,209.447 291.714 C 209.330 291.597,209.631 291.169,210.117 290.764 C 210.603 290.358,210.837 290.021,210.639 290.013 C 210.440 290.006,210.635 289.685,211.071 289.300 C 212.018 288.465,212.817 286.326,212.601 285.204 C 212.516 284.762,212.616 284.400,212.823 284.400 C 213.338 284.400,213.302 282.510,212.781 282.188 C 212.550 282.046,212.400 281.630,212.446 281.265 C 212.580 280.208,211.946 277.600,211.555 277.600 C 211.360 277.600,211.200 277.150,211.200 276.600 C 211.200 276.050,211.047 275.600,210.861 275.600 C 210.675 275.600,209.640 274.794,208.561 273.809 C 207.482 272.824,206.390 272.014,206.133 272.009 C 205.877 272.004,205.597 271.790,205.511 271.533 C 205.426 271.277,204.781 271.067,204.078 271.067 C 203.375 271.067,202.800 270.906,202.800 270.710 C 202.800 270.513,202.620 270.464,202.400 270.600 C 202.180 270.736,202.000 270.696,202.000 270.511 C 202.000 270.025,197.726 270.034,197.240 270.520 M255.470 270.828 C 255.068 271.073,254.635 271.168,254.507 271.040 C 254.379 270.912,254.014 271.022,253.698 271.285 C 253.381 271.548,252.735 271.818,252.261 271.886 C 250.569 272.128,250.150 272.397,250.811 272.815 C 251.277 273.110,251.214 273.189,250.508 273.194 C 249.899 273.198,249.538 273.509,249.371 274.173 C 249.201 274.850,248.935 275.073,248.498 274.905 C 248.088 274.748,247.968 274.824,248.153 275.123 C 248.415 275.548,246.983 278.030,246.300 278.333 C 246.135 278.407,246.000 278.872,246.000 279.367 C 246.000 279.862,245.880 280.387,245.733 280.533 C 245.391 280.876,245.388 283.270,245.729 284.159 C 245.884 284.564,245.830 284.742,245.595 284.597 C 245.378 284.463,245.200 284.533,245.200 284.753 C 245.200 284.973,245.380 285.264,245.600 285.400 C 245.820 285.536,246.000 286.267,246.000 287.024 C 246.000 287.781,246.172 288.400,246.381 288.400 C 246.591 288.400,247.061 289.030,247.427 289.800 C 247.792 290.570,248.251 291.200,248.446 291.200 C 248.641 291.200,248.800 291.413,248.800 291.674 C 248.800 292.465,250.446 293.957,251.059 293.722 C 251.375 293.601,251.604 293.659,251.569 293.851 C 251.372 294.929,251.651 295.274,252.541 295.051 C 253.058 294.921,253.603 294.936,253.752 295.086 C 254.066 295.400,255.017 295.615,256.307 295.665 C 256.806 295.684,257.314 295.860,257.435 296.057 C 257.556 296.253,257.841 296.298,258.069 296.157 C 258.296 296.017,259.307 295.837,260.314 295.757 C 261.321 295.678,262.286 295.385,262.458 295.107 C 262.630 294.828,263.137 294.578,263.585 294.550 C 265.103 294.457,265.248 294.401,265.000 294.000 C 264.864 293.780,264.935 293.600,265.157 293.600 C 265.380 293.600,266.155 293.000,266.881 292.267 C 267.606 291.534,268.526 290.815,268.925 290.670 C 269.324 290.525,269.546 290.237,269.419 290.030 C 269.291 289.824,269.373 289.540,269.600 289.400 C 269.827 289.260,269.909 288.977,269.783 288.772 C 269.656 288.568,269.738 288.400,269.964 288.400 C 270.190 288.400,270.271 288.130,270.145 287.800 C 270.018 287.470,270.096 287.200,270.318 287.200 C 270.539 287.200,270.749 286.615,270.783 285.900 C 270.975 281.861,270.940 280.520,270.622 279.800 C 270.428 279.360,270.254 278.880,270.235 278.733 C 270.216 278.587,270.065 278.332,269.900 278.167 C 269.735 278.002,269.600 277.520,269.600 277.096 C 269.600 276.669,269.253 276.234,268.822 276.122 C 268.395 276.010,267.990 275.570,267.922 275.143 C 267.855 274.717,267.649 274.390,267.464 274.416 C 267.280 274.442,266.646 273.923,266.056 273.263 C 265.466 272.602,264.447 271.933,263.792 271.775 C 263.136 271.618,262.423 271.388,262.207 271.264 C 261.739 270.995,261.289 270.918,258.400 270.614 C 257.071 270.474,255.911 270.558,255.470 270.828 " stroke="none" fill="#343434" fill-rule="evenodd"></path><path id="path1" d="M114.200 36.667 C 111.268 36.932,104.605 38.087,104.200 38.399 C 103.980 38.569,103.170 38.839,102.400 38.999 C 100.972 39.296,98.804 40.168,95.615 41.727 C 93.811 42.610,93.248 42.971,92.186 43.929 C 91.864 44.219,91.600 44.350,91.600 44.219 C 91.600 43.937,89.682 45.146,88.777 46.000 C 88.427 46.330,87.363 47.230,86.412 48.000 C 84.864 49.254,83.899 50.210,80.924 53.439 C 78.246 56.345,73.203 64.858,73.201 66.476 C 73.200 66.848,73.038 67.253,72.840 67.375 C 72.642 67.497,72.269 68.543,72.011 69.699 C 71.754 70.854,71.381 72.160,71.184 72.600 C 70.091 75.036,70.000 84.799,70.000 200.000 C 70.000 315.201,70.091 324.964,71.184 327.400 C 71.381 327.840,71.754 329.146,72.011 330.301 C 72.269 331.457,72.642 332.503,72.840 332.625 C 73.038 332.747,73.200 333.152,73.201 333.524 C 73.203 335.142,78.246 343.655,80.924 346.561 C 83.899 349.790,84.864 350.746,86.412 352.000 C 87.363 352.770,88.451 353.697,88.830 354.059 C 89.208 354.422,90.392 355.223,91.459 355.840 C 92.527 356.457,93.490 357.060,93.600 357.181 C 94.195 357.833,100.613 360.627,102.387 361.006 C 103.150 361.168,104.086 361.497,104.469 361.736 C 104.851 361.974,105.302 362.032,105.470 361.863 C 105.832 361.502,104.785 360.762,104.319 361.050 C 104.144 361.158,104.000 361.071,104.000 360.856 C 104.000 360.641,102.798 360.191,101.329 359.856 C 99.809 359.509,98.503 358.971,98.299 358.606 C 98.072 358.200,97.658 358.054,97.170 358.209 C 96.738 358.347,96.400 358.266,96.400 358.027 C 96.400 357.792,96.049 357.600,95.620 357.600 C 95.191 357.600,94.696 357.358,94.520 357.063 C 94.344 356.768,93.443 356.197,92.519 355.794 C 91.594 355.392,90.930 354.914,91.042 354.731 C 91.155 354.549,90.967 354.400,90.624 354.400 C 90.281 354.400,90.000 354.214,90.000 353.987 C 90.000 353.761,89.693 353.457,89.318 353.313 C 87.986 352.802,83.200 348.364,83.200 347.640 C 83.200 347.398,83.007 347.200,82.771 347.200 C 82.218 347.200,81.200 346.182,81.200 345.629 C 81.200 345.393,80.990 345.200,80.733 345.200 C 80.477 345.200,80.377 345.090,80.511 344.956 C 80.646 344.821,80.226 344.265,79.578 343.720 C 78.930 343.175,78.400 342.413,78.400 342.026 C 78.400 341.640,78.044 341.002,77.609 340.609 C 77.175 340.215,76.895 339.769,76.989 339.618 C 77.082 339.467,76.801 339.036,76.362 338.661 C 75.924 338.286,75.662 337.824,75.779 337.635 C 75.896 337.445,75.734 337.077,75.419 336.816 C 75.105 336.555,74.931 336.123,75.034 335.857 C 75.136 335.590,74.884 335.012,74.474 334.571 C 74.064 334.131,73.773 333.463,73.828 333.087 C 73.884 332.711,73.566 331.651,73.122 330.732 C 72.678 329.813,72.271 328.670,72.219 328.192 C 72.166 327.715,71.988 327.104,71.822 326.835 C 71.656 326.567,71.454 325.414,71.374 324.274 C 71.294 323.133,71.093 321.480,70.928 320.600 C 70.619 318.952,70.542 82.420,70.849 79.200 C 70.943 78.210,71.146 77.201,71.298 76.958 C 71.451 76.715,71.524 75.860,71.461 75.058 C 71.397 74.256,71.493 73.600,71.673 73.600 C 71.853 73.600,72.000 73.251,72.000 72.824 C 72.000 72.397,72.156 71.951,72.346 71.833 C 72.536 71.716,72.642 71.165,72.581 70.610 C 72.520 70.054,72.591 69.600,72.738 69.600 C 73.149 69.600,74.088 67.264,73.901 66.704 C 73.810 66.431,73.986 65.957,74.291 65.652 C 74.596 65.347,74.753 64.855,74.640 64.559 C 74.526 64.264,74.741 63.792,75.117 63.511 C 75.493 63.230,75.862 62.640,75.938 62.200 C 76.014 61.760,76.333 61.254,76.646 61.075 C 76.960 60.897,77.127 60.606,77.018 60.429 C 76.908 60.252,77.175 59.785,77.609 59.391 C 78.044 58.998,78.400 58.344,78.400 57.938 C 78.400 57.532,78.535 57.199,78.700 57.197 C 78.865 57.196,79.447 56.521,79.994 55.697 C 81.489 53.446,86.697 48.358,87.575 48.292 C 87.998 48.260,88.336 48.136,88.325 48.017 C 88.257 47.272,88.533 46.936,89.600 46.464 C 90.260 46.172,90.800 45.692,90.800 45.398 C 90.800 45.104,91.340 44.745,92.000 44.600 C 92.660 44.455,93.200 44.151,93.200 43.925 C 93.200 43.699,93.470 43.618,93.800 43.745 C 94.161 43.883,94.400 43.747,94.400 43.402 C 94.400 43.086,94.760 42.635,95.200 42.400 C 95.640 42.165,96.000 42.090,96.000 42.235 C 96.000 42.380,96.270 42.274,96.600 42.000 C 96.930 41.726,97.200 41.626,97.200 41.778 C 97.200 41.930,97.695 41.715,98.300 41.300 C 98.905 40.886,99.817 40.524,100.327 40.496 C 101.325 40.442,104.722 39.271,105.437 38.735 C 105.677 38.554,105.988 38.521,106.127 38.660 C 106.267 38.800,106.647 38.693,106.973 38.423 C 107.298 38.152,107.740 38.040,107.955 38.172 C 108.169 38.305,108.458 38.230,108.597 38.005 C 108.767 37.729,109.099 37.732,109.624 38.013 C 110.183 38.312,110.400 38.299,110.400 37.969 C 110.400 37.656,111.035 37.578,112.395 37.724 C 113.493 37.842,114.495 37.770,114.622 37.564 C 114.891 37.130,238.956 37.090,239.391 37.524 C 239.544 37.676,240.328 37.826,241.134 37.858 C 243.770 37.963,246.973 38.446,247.405 38.804 C 247.647 39.005,248.072 39.002,248.402 38.799 C 249.151 38.336,248.864 38.236,244.200 37.328 C 240.868 36.679,120.796 36.068,114.200 36.667 M249.545 39.328 C 249.845 39.693,250.232 39.904,250.405 39.797 C 250.890 39.497,254.036 41.027,253.698 41.399 C 253.534 41.580,253.629 41.596,253.909 41.435 C 254.400 41.152,256.800 41.966,256.800 42.416 C 256.800 42.537,257.610 42.970,258.600 43.378 C 259.590 43.787,260.400 44.273,260.400 44.460 C 260.400 44.647,260.625 44.800,260.900 44.801 C 261.175 44.801,262.019 45.331,262.776 45.978 C 263.532 46.624,264.285 47.071,264.447 46.971 C 264.609 46.871,264.855 47.142,264.992 47.574 C 265.129 48.006,265.592 48.470,266.020 48.606 C 266.449 48.743,266.800 49.107,266.800 49.417 C 266.800 49.726,267.340 50.259,268.000 50.600 C 268.660 50.941,269.200 51.390,269.200 51.596 C 269.200 52.020,271.433 54.400,271.830 54.400 C 272.080 54.400,288.871 70.859,290.553 72.753 C 292.995 75.502,316.482 98.800,316.812 98.800 C 317.026 98.800,317.200 99.120,317.200 99.511 C 317.200 100.258,318.173 101.274,319.306 101.708 C 319.674 101.850,320.102 102.467,320.256 103.079 C 320.409 103.691,320.730 104.394,320.967 104.640 C 322.616 106.349,323.434 107.499,323.295 107.916 C 323.206 108.182,323.328 108.400,323.567 108.400 C 323.805 108.400,323.979 108.535,323.953 108.700 C 323.927 108.865,323.953 109.180,324.012 109.400 C 324.070 109.620,324.137 110.160,324.159 110.600 C 324.182 111.040,324.425 111.355,324.700 111.300 C 324.975 111.245,325.223 111.470,325.250 111.800 C 325.331 112.774,325.397 112.934,326.317 114.400 C 326.800 115.170,327.164 116.250,327.125 116.800 C 327.086 117.350,327.304 118.250,327.611 118.800 C 327.917 119.350,328.120 120.036,328.061 120.324 C 328.002 120.612,328.170 121.503,328.434 122.303 C 328.698 123.103,328.937 124.487,328.965 125.379 C 328.993 126.271,329.138 127.193,329.288 127.429 C 329.592 127.909,329.427 317.855,329.120 321.000 C 329.012 322.100,328.817 323.360,328.686 323.800 C 328.554 324.240,328.401 325.230,328.345 326.000 C 328.289 326.770,327.980 327.715,327.660 328.100 C 327.277 328.559,327.235 328.800,327.538 328.800 C 327.792 328.800,328.000 328.980,328.000 329.200 C 328.000 329.420,327.719 329.600,327.376 329.600 C 327.033 329.600,326.844 329.748,326.956 329.929 C 327.068 330.109,326.877 330.784,326.531 331.429 C 325.979 332.460,325.423 334.167,325.049 335.978 C 324.984 336.296,324.731 336.623,324.488 336.704 C 324.244 336.785,324.135 337.087,324.245 337.374 C 324.356 337.662,324.166 338.177,323.823 338.520 C 323.480 338.863,323.200 339.382,323.200 339.675 C 323.200 339.968,322.840 340.432,322.400 340.707 C 321.960 340.982,321.600 341.483,321.600 341.820 C 321.600 342.157,321.221 342.831,320.757 343.317 C 320.293 343.803,319.481 344.875,318.952 345.700 C 318.423 346.525,317.722 347.200,317.395 347.200 C 317.068 347.200,316.800 347.470,316.800 347.800 C 316.800 348.130,316.530 348.400,316.200 348.400 C 315.870 348.400,315.600 348.630,315.600 348.911 C 315.600 349.643,313.201 351.648,312.698 351.337 C 312.466 351.194,312.366 351.239,312.475 351.438 C 312.584 351.637,312.342 352.115,311.937 352.500 C 311.531 352.885,311.200 353.124,311.200 353.031 C 311.200 352.938,310.697 353.343,310.083 353.931 C 309.469 354.519,308.365 355.321,307.629 355.712 C 306.893 356.104,306.398 356.531,306.528 356.661 C 306.795 356.928,310.120 355.065,311.170 354.059 C 311.549 353.697,312.634 352.770,313.580 352.000 C 318.866 347.700,326.795 336.651,326.799 333.580 C 326.800 333.239,326.966 332.789,327.168 332.580 C 327.524 332.212,328.415 329.294,329.299 325.600 C 329.597 324.355,329.803 294.272,329.965 228.000 C 330.208 128.907,330.142 123.523,328.630 119.005 C 328.335 118.122,327.968 116.817,327.816 116.105 C 327.663 115.392,327.372 114.706,327.169 114.581 C 326.966 114.455,326.800 114.082,326.800 113.752 C 326.800 112.203,322.150 104.128,319.227 100.600 C 317.621 98.661,267.554 48.699,265.800 47.285 C 263.605 45.515,263.672 45.563,261.200 43.959 C 256.493 40.905,248.100 37.570,249.545 39.328 M115.868 62.665 C 115.708 62.825,114.908 62.986,114.089 63.023 C 113.270 63.060,112.294 63.221,111.919 63.381 C 111.545 63.540,111.069 63.566,110.861 63.438 C 110.654 63.310,110.381 63.474,110.254 63.802 C 110.128 64.131,109.674 64.400,109.245 64.400 C 108.318 64.400,105.930 65.598,105.489 66.283 C 105.319 66.549,104.914 66.665,104.589 66.541 C 104.221 66.399,104.000 66.555,104.000 66.957 C 104.000 67.311,103.730 67.600,103.400 67.600 C 103.070 67.600,102.800 67.864,102.800 68.186 C 102.800 68.508,102.395 68.986,101.900 69.249 C 100.620 69.927,99.705 71.071,99.186 72.641 C 98.940 73.388,98.572 74.000,98.369 74.000 C 98.166 74.000,98.000 74.360,98.000 74.800 C 98.000 75.240,97.837 75.600,97.637 75.600 C 97.438 75.600,97.376 75.988,97.500 76.463 C 97.650 77.033,97.576 77.233,97.284 77.052 C 96.996 76.874,96.902 77.090,97.014 77.670 C 97.108 78.161,96.964 78.699,96.693 78.866 C 95.985 79.304,95.969 319.999,96.677 320.852 C 96.972 321.207,97.020 321.644,96.804 321.994 C 96.406 322.638,96.677 323.323,97.202 322.999 C 97.393 322.881,97.670 323.596,97.819 324.588 C 97.968 325.580,98.211 326.317,98.360 326.225 C 98.509 326.133,99.037 326.942,99.533 328.024 C 100.029 329.106,100.801 330.187,101.248 330.426 C 102.325 331.002,103.398 332.097,103.728 332.956 C 103.874 333.338,104.152 333.553,104.346 333.434 C 104.539 333.314,105.079 333.548,105.545 333.953 C 106.012 334.357,107.385 335.000,108.597 335.382 C 109.809 335.763,110.800 336.193,110.800 336.337 C 110.800 336.786,287.296 337.035,288.021 336.587 C 288.230 336.458,288.560 336.451,288.755 336.572 C 288.950 336.693,289.332 336.523,289.604 336.196 C 289.876 335.868,290.425 335.600,290.825 335.600 C 291.225 335.600,291.664 335.420,291.800 335.200 C 291.936 334.980,292.465 334.800,292.975 334.800 C 293.485 334.800,294.126 334.530,294.400 334.200 C 294.674 333.870,295.055 333.600,295.246 333.600 C 295.795 333.600,297.593 331.912,297.391 331.585 C 297.212 331.296,298.390 330.104,298.661 330.300 C 299.047 330.578,299.615 330.348,299.400 330.000 C 299.264 329.780,299.329 329.600,299.543 329.600 C 299.758 329.600,300.242 328.794,300.618 327.808 C 300.995 326.823,301.459 326.113,301.651 326.232 C 301.843 326.350,302.000 326.087,302.000 325.647 C 302.000 325.207,302.183 324.734,302.407 324.596 C 302.824 324.338,302.575 323.600,302.071 323.600 C 301.916 323.600,301.467 324.343,301.073 325.252 C 300.259 327.130,297.972 330.257,296.735 331.180 C 296.279 331.521,295.598 332.084,295.222 332.431 C 294.846 332.777,294.238 333.177,293.869 333.318 C 293.501 333.459,293.200 333.755,293.200 333.975 C 293.200 334.195,292.930 334.271,292.600 334.145 C 292.270 334.018,292.000 334.099,292.000 334.325 C 292.000 334.551,291.415 334.863,290.700 335.018 C 289.985 335.174,289.272 335.503,289.115 335.750 C 288.905 336.081,265.334 336.200,200.000 336.200 C 134.666 336.200,111.095 336.081,110.885 335.750 C 110.728 335.503,110.015 335.174,109.300 335.018 C 108.585 334.863,108.000 334.551,108.000 334.325 C 108.000 334.099,107.745 334.012,107.433 334.132 C 107.121 334.252,106.767 334.091,106.646 333.775 C 106.524 333.459,106.239 333.200,106.013 333.200 C 105.786 333.200,105.261 332.885,104.847 332.500 C 104.434 332.115,103.721 331.521,103.265 331.180 C 101.110 329.571,98.173 324.576,97.713 321.739 C 97.591 320.992,97.336 320.284,97.146 320.167 C 96.691 319.886,96.691 80.114,97.146 79.833 C 97.336 79.716,97.591 79.008,97.713 78.261 C 98.229 75.077,101.186 70.328,103.817 68.456 C 104.578 67.915,105.200 67.355,105.200 67.211 C 105.200 67.067,105.830 66.702,106.600 66.400 C 107.370 66.098,108.000 65.719,108.000 65.557 C 108.000 65.396,108.585 65.137,109.300 64.982 C 110.015 64.826,110.728 64.497,110.885 64.250 C 111.094 63.921,125.786 63.771,165.385 63.692 L 219.600 63.583 219.613 91.492 C 219.623 114.021,219.728 119.534,220.155 120.098 C 220.631 120.725,220.681 120.674,220.642 119.599 C 220.619 118.940,220.510 118.401,220.400 118.401 C 220.290 118.400,220.244 105.935,220.297 90.700 L 220.393 63.000 168.897 63.000 C 140.574 63.000,117.121 62.859,116.779 62.688 C 116.438 62.516,116.028 62.506,115.868 62.665 M246.153 66.100 C 246.127 66.595,246.077 78.485,246.041 92.522 C 245.971 120.412,245.968 120.379,248.327 120.408 C 257.176 120.520,300.611 120.322,300.763 120.170 C 300.881 120.053,300.734 119.806,300.437 119.623 C 300.140 119.440,300.022 119.088,300.174 118.842 C 300.326 118.596,300.184 118.292,299.859 118.167 C 299.533 118.042,298.826 117.278,298.287 116.470 C 297.290 114.975,285.347 102.806,284.864 102.793 C 284.533 102.784,282.800 100.975,282.800 100.638 C 282.800 100.501,281.900 99.494,280.800 98.400 C 279.700 97.306,278.800 96.228,278.800 96.005 C 278.800 95.782,278.595 95.600,278.344 95.600 C 278.093 95.600,276.203 93.935,274.143 91.900 C 272.084 89.865,269.680 87.570,268.800 86.800 C 267.921 86.030,267.201 85.282,267.201 85.137 C 267.200 84.993,264.500 82.177,261.200 78.879 C 257.900 75.581,255.200 72.963,255.200 73.062 C 255.200 73.328,253.191 71.112,252.793 70.407 C 252.540 69.960,252.331 69.918,251.999 70.246 C 251.667 70.575,257.718 76.862,275.115 94.261 C 288.077 107.225,298.894 118.229,299.155 118.716 L 299.628 119.600 274.030 119.600 L 248.431 119.600 247.607 118.716 C 246.793 117.842,246.784 117.538,246.800 92.016 C 246.809 77.817,246.813 65.975,246.808 65.700 C 246.793 64.810,246.202 65.171,246.153 66.100 M247.600 67.235 C 247.600 67.436,247.786 67.600,248.013 67.600 C 248.241 67.600,249.072 68.245,249.860 69.033 C 250.756 69.930,251.434 70.326,251.670 70.090 C 251.906 69.854,251.444 69.215,250.437 68.382 C 248.824 67.048,247.600 66.553,247.600 67.235 M220.623 123.200 C 220.747 124.410,221.012 125.565,221.212 125.767 C 221.428 125.987,221.520 125.540,221.441 124.654 C 221.368 123.841,221.195 123.062,221.058 122.924 C 220.920 122.786,221.030 122.397,221.303 122.060 C 221.637 121.648,221.647 121.538,221.334 121.726 C 221.078 121.879,220.762 121.779,220.632 121.502 C 220.502 121.226,220.498 121.990,220.623 123.200 M221.859 127.500 C 222.519 130.146,226.161 135.666,227.028 135.334 C 227.448 135.173,227.460 135.015,227.082 134.606 C 226.817 134.319,226.485 134.153,226.344 134.238 C 226.203 134.323,225.775 133.720,225.393 132.896 C 225.011 132.073,224.423 131.085,224.087 130.700 C 223.751 130.315,223.639 129.997,223.838 129.994 C 224.037 129.991,223.966 129.839,223.680 129.658 C 223.393 129.476,223.112 128.886,223.054 128.347 C 222.930 127.176,222.497 126.400,221.969 126.400 C 221.750 126.400,221.703 126.873,221.859 127.500 M226.800 135.786 C 226.800 136.346,229.280 138.397,229.668 138.158 C 229.947 137.985,230.014 138.054,229.839 138.336 C 229.527 138.842,231.256 140.637,232.408 141.002 C 232.803 141.128,233.227 141.494,233.350 141.815 C 233.474 142.137,233.851 142.400,234.187 142.400 C 234.524 142.400,234.800 142.544,234.800 142.720 C 234.800 142.895,235.475 143.281,236.300 143.576 C 237.125 143.871,237.890 144.240,238.000 144.395 C 238.110 144.550,239.460 145.105,241.000 145.627 L 243.800 146.578 273.500 146.708 L 303.200 146.838 303.200 233.339 C 303.200 281.660,303.047 320.008,302.853 320.220 C 302.123 321.020,301.979 323.200,302.657 323.200 C 303.118 323.200,303.241 322.928,303.105 322.214 C 303.001 321.672,303.115 321.162,303.358 321.081 C 303.884 320.905,304.214 148.649,303.691 147.235 L 303.370 146.367 276.385 146.382 C 260.870 146.391,249.159 146.243,248.833 146.034 C 248.515 145.829,247.880 145.817,247.384 146.006 C 246.899 146.191,246.344 146.190,246.151 146.004 C 245.780 145.648,243.085 145.093,241.900 145.129 C 241.515 145.141,241.200 144.914,241.200 144.625 C 241.200 144.088,239.160 143.409,237.900 143.526 C 237.515 143.561,237.200 143.398,237.200 143.162 C 237.200 142.926,236.992 142.803,236.739 142.887 C 236.485 142.972,235.853 142.617,235.335 142.099 C 234.817 141.581,234.242 141.250,234.057 141.365 C 233.872 141.479,233.379 141.254,232.961 140.866 C 232.542 140.477,231.874 140.035,231.475 139.883 C 231.076 139.730,230.861 139.424,230.998 139.203 C 231.135 138.981,230.956 138.800,230.600 138.800 C 230.244 138.800,230.044 138.652,230.156 138.471 C 230.375 138.118,229.020 136.800,228.438 136.800 C 228.244 136.800,227.982 136.530,227.855 136.200 C 227.648 135.661,226.800 135.328,226.800 135.786 M131.000 170.000 C 130.864 170.220,130.357 170.400,129.873 170.400 C 127.704 170.400,123.294 173.717,121.927 176.377 C 121.638 176.940,121.267 177.500,121.103 177.622 C 120.658 177.954,119.898 181.573,119.890 183.400 C 119.875 186.884,122.323 191.973,124.758 193.520 C 125.331 193.884,125.890 194.296,126.000 194.437 C 126.110 194.578,127.010 195.122,128.000 195.646 L 129.800 196.600 199.832 196.600 L 269.865 196.600 271.918 195.638 C 273.047 195.110,273.870 194.513,273.746 194.312 C 273.622 194.112,273.223 194.206,272.860 194.521 C 272.497 194.836,271.930 195.100,271.600 195.107 C 271.270 195.114,269.740 195.315,268.200 195.552 C 264.306 196.153,135.726 196.156,131.800 195.556 C 130.260 195.320,128.678 195.099,128.285 195.064 C 127.892 195.029,127.422 194.760,127.240 194.466 C 127.059 194.172,126.751 193.902,126.555 193.866 C 126.360 193.830,126.245 193.665,126.300 193.500 C 126.355 193.335,126.220 193.200,126.001 193.200 C 124.783 193.200,121.600 189.169,121.600 187.626 C 121.600 187.172,121.408 186.800,121.173 186.800 C 120.934 186.800,120.853 186.462,120.989 186.034 C 121.123 185.612,121.045 185.152,120.816 185.010 C 120.197 184.628,120.313 182.303,120.999 181.322 C 121.342 180.834,121.430 180.409,121.204 180.333 C 120.971 180.255,121.053 179.731,121.405 179.054 C 121.732 178.424,122.000 177.672,122.000 177.383 C 122.000 177.094,122.474 176.485,123.054 176.029 C 123.634 175.573,123.876 175.200,123.592 175.200 C 122.600 175.200,124.425 173.681,126.735 172.585 C 127.981 171.994,129.322 171.344,129.716 171.142 C 130.110 170.939,130.579 170.863,130.757 170.974 C 130.936 171.084,131.424 170.916,131.841 170.600 C 132.684 169.962,267.600 169.676,267.600 170.312 C 267.600 170.484,268.140 170.828,268.800 171.078 C 269.533 171.354,270.000 171.379,270.000 171.142 C 270.000 170.928,270.225 170.893,270.500 171.065 C 270.775 171.237,271.265 171.418,271.589 171.466 C 271.913 171.515,272.374 171.823,272.614 172.151 C 272.853 172.479,273.520 172.865,274.095 173.009 C 275.088 173.259,276.893 174.800,276.192 174.800 C 276.010 174.800,276.231 175.205,276.683 175.700 C 277.807 176.928,278.885 179.138,278.593 179.612 C 278.461 179.825,278.505 180.000,278.691 180.000 C 279.075 180.000,279.234 180.893,279.259 183.200 C 279.287 185.694,279.131 186.800,278.750 186.800 C 278.558 186.800,278.400 187.162,278.400 187.605 C 278.400 188.730,277.681 189.852,275.655 191.889 C 273.844 193.709,273.668 194.572,275.330 193.483 C 277.703 191.928,280.125 186.819,280.110 183.400 C 280.084 177.435,274.682 170.400,270.127 170.400 C 269.643 170.400,269.136 170.220,269.000 170.000 C 268.658 169.446,131.342 169.446,131.000 170.000 M130.634 219.900 C 130.469 220.065,129.689 220.382,128.899 220.604 C 127.412 221.022,126.636 222.000,127.790 222.000 C 128.209 222.000,128.338 221.819,128.147 221.500 C 127.940 221.156,128.056 221.170,128.518 221.545 C 129.089 222.007,129.224 222.002,129.413 221.510 C 129.548 221.157,130.104 220.959,130.833 221.002 C 131.492 221.041,132.125 220.922,132.239 220.737 C 132.354 220.551,162.846 220.400,200.000 220.400 C 237.154 220.400,267.646 220.551,267.761 220.737 C 267.875 220.922,268.523 221.040,269.200 221.000 C 269.877 220.960,270.527 221.081,270.643 221.270 C 270.760 221.459,271.035 221.502,271.254 221.366 C 271.474 221.231,271.918 221.453,272.243 221.860 C 272.812 222.575,272.828 222.573,272.713 221.812 C 272.634 221.291,272.098 220.884,271.130 220.612 C 270.324 220.385,269.531 220.065,269.366 219.900 C 269.201 219.735,237.987 219.600,200.000 219.600 C 162.013 219.600,130.799 219.735,130.634 219.900 M125.723 222.100 C 125.241 222.321,124.748 222.758,124.628 223.071 C 124.508 223.385,124.573 223.540,124.774 223.416 C 124.975 223.292,125.222 223.507,125.323 223.895 C 125.436 224.325,125.525 224.162,125.554 223.476 C 125.579 222.858,125.768 222.456,125.972 222.583 C 126.177 222.709,126.465 222.618,126.612 222.380 C 127.007 221.741,126.711 221.648,125.723 222.100 M273.584 222.370 C 273.828 222.826,274.264 223.200,274.552 223.200 C 275.507 223.200,276.457 224.582,275.895 225.154 C 275.623 225.431,275.580 225.606,275.800 225.544 C 276.655 225.301,278.000 226.445,278.000 227.414 C 278.000 227.956,278.163 228.400,278.363 228.400 C 278.562 228.400,278.624 228.788,278.500 229.263 C 278.345 229.854,278.420 230.035,278.737 229.839 C 279.044 229.649,279.210 229.932,279.230 230.676 C 279.246 231.294,279.338 232.224,279.434 232.742 C 279.530 233.261,279.394 234.431,279.132 235.342 C 278.870 236.254,278.634 237.090,278.608 237.200 C 278.344 238.314,277.774 239.470,277.149 240.161 C 274.414 243.186,273.554 244.000,273.095 244.000 C 272.810 244.000,272.317 244.360,272.000 244.800 C 271.683 245.240,271.103 245.600,270.712 245.600 C 270.320 245.600,270.000 245.780,270.000 246.000 C 270.000 246.595,273.328 245.295,274.000 244.437 C 274.110 244.296,274.669 243.884,275.242 243.520 C 279.820 240.611,281.559 231.237,278.356 226.739 C 277.940 226.155,277.600 225.575,277.600 225.452 C 277.600 225.077,274.862 222.461,273.971 221.985 C 273.210 221.577,273.177 221.610,273.584 222.370 M122.927 224.740 C 122.712 224.883,122.281 225.585,121.970 226.300 C 121.659 227.015,121.293 227.600,121.156 227.600 C 121.020 227.600,120.600 228.866,120.224 230.414 C 119.131 234.910,121.364 241.363,124.758 243.520 C 125.331 243.884,125.890 244.296,126.000 244.437 C 126.110 244.578,127.010 245.122,128.000 245.646 L 129.800 246.600 198.000 246.719 C 266.154 246.838,269.600 246.796,269.600 245.845 C 269.600 245.239,267.309 245.460,266.423 246.150 C 265.982 246.494,265.917 246.483,266.147 246.100 C 266.387 245.701,253.051 245.600,200.000 245.600 C 146.949 245.600,133.613 245.701,133.853 246.100 C 134.082 246.481,134.002 246.477,133.518 246.085 C 133.169 245.802,131.875 245.559,130.643 245.544 C 129.412 245.529,128.492 245.375,128.600 245.201 C 128.762 244.937,128.227 244.555,127.200 244.200 C 126.140 243.834,125.642 243.456,125.826 243.158 C 125.948 242.961,125.829 242.800,125.563 242.800 C 124.647 242.800,122.054 239.436,121.563 237.610 C 121.296 236.615,120.984 235.530,120.871 235.200 C 120.496 234.103,120.722 230.376,121.199 229.801 C 121.457 229.490,121.553 229.047,121.411 228.818 C 121.269 228.588,121.329 228.400,121.545 228.400 C 121.760 228.400,122.053 227.871,122.195 227.225 C 122.356 226.489,122.803 225.928,123.387 225.725 C 124.121 225.470,124.214 225.301,123.820 224.940 C 123.544 224.687,123.143 224.597,122.927 224.740 M138.400 269.434 C 133.408 271.289,128.800 275.834,128.800 278.903 C 128.800 279.260,128.620 279.664,128.400 279.800 C 128.180 279.936,128.000 281.297,128.000 282.824 C 128.000 284.408,128.172 285.600,128.400 285.600 C 128.620 285.600,128.800 285.952,128.800 286.381 C 128.800 287.169,129.582 289.230,130.021 289.600 C 130.152 289.710,130.375 290.115,130.517 290.500 C 130.789 291.239,132.000 291.483,132.000 290.800 C 132.000 290.580,131.820 290.400,131.600 290.400 C 131.380 290.400,131.200 290.124,131.200 289.787 C 131.200 289.451,130.930 289.071,130.600 288.945 C 130.270 288.818,130.000 288.284,130.000 287.757 C 130.000 287.231,129.839 286.800,129.642 286.800 C 129.446 286.800,129.276 286.395,129.266 285.900 C 129.220 283.622,129.070 282.800,128.701 282.800 C 128.474 282.800,128.511 282.548,128.785 282.218 C 129.051 281.897,129.171 281.477,129.052 281.284 C 128.228 279.951,133.168 271.701,134.182 272.715 C 134.302 272.835,134.400 272.677,134.400 272.363 C 134.400 271.753,135.938 270.604,136.287 270.953 C 136.401 271.068,136.781 270.876,137.130 270.527 C 137.550 270.108,137.815 270.046,137.915 270.346 C 138.125 270.974,138.629 270.913,139.371 270.171 C 139.729 269.814,140.000 269.736,140.000 269.991 C 140.000 270.298,140.217 270.318,140.690 270.054 C 141.127 269.809,141.639 269.807,142.090 270.048 C 142.557 270.298,142.800 270.287,142.800 270.014 C 142.800 269.786,143.070 269.600,143.400 269.600 C 143.730 269.600,144.000 269.784,144.000 270.008 C 144.000 270.232,144.439 270.336,144.976 270.239 C 145.676 270.112,145.893 270.214,145.744 270.602 C 145.598 270.983,145.779 271.078,146.364 270.925 C 146.901 270.785,147.277 270.935,147.438 271.355 C 147.574 271.710,148.037 272.000,148.466 272.000 C 148.978 272.000,149.148 272.172,148.959 272.500 C 148.801 272.775,148.812 272.874,148.983 272.719 C 149.407 272.338,150.514 273.492,150.205 273.992 C 150.069 274.212,150.193 274.302,150.479 274.193 C 150.766 274.085,151.353 274.524,151.784 275.170 C 152.215 275.815,152.689 276.269,152.836 276.178 C 152.983 276.087,153.342 277.090,153.634 278.406 C 153.926 279.723,154.282 280.800,154.425 280.800 C 154.869 280.800,154.618 283.753,154.096 284.674 C 153.823 285.154,153.600 286.107,153.600 286.790 C 153.600 287.481,153.244 288.415,152.800 288.892 C 152.360 289.364,152.000 290.096,152.000 290.518 C 152.000 291.036,151.805 291.211,151.400 291.055 C 151.064 290.927,150.800 291.045,150.800 291.324 C 150.800 292.004,149.446 293.109,147.673 293.875 C 146.863 294.225,145.832 294.677,145.382 294.879 C 143.812 295.586,139.866 295.572,139.042 294.858 C 138.486 294.376,138.237 294.331,138.111 294.692 C 137.949 295.154,136.834 294.713,134.400 293.225 C 134.070 293.023,133.466 292.753,133.058 292.625 C 132.619 292.488,132.407 292.159,132.538 291.817 C 132.693 291.414,132.566 291.315,132.117 291.487 C 131.516 291.718,132.346 292.669,134.600 294.330 C 138.005 296.839,145.840 296.787,148.668 294.237 C 148.934 293.997,149.767 293.355,150.519 292.812 C 151.817 291.874,152.255 291.291,154.134 288.000 C 156.018 284.700,154.378 274.214,152.056 274.710 C 151.772 274.770,151.653 274.638,151.790 274.416 C 152.126 273.873,150.134 271.987,148.182 271.000 C 147.312 270.560,146.486 270.044,146.347 269.852 C 146.057 269.454,139.304 269.098,138.400 269.434 M196.628 269.955 C 196.507 270.150,195.777 270.428,195.004 270.573 C 194.232 270.718,193.600 271.008,193.600 271.218 C 193.600 271.428,193.356 271.600,193.058 271.600 C 192.186 271.600,188.535 275.724,187.526 277.848 C 186.251 280.536,186.244 285.712,187.513 288.508 C 193.514 301.737,213.276 297.681,213.376 283.200 C 213.400 279.751,211.744 274.480,211.287 276.552 C 211.196 276.966,211.296 277.416,211.510 277.552 C 211.965 277.842,212.590 280.299,212.455 281.265 C 212.404 281.630,212.550 282.046,212.781 282.188 C 213.302 282.510,213.338 284.400,212.823 284.400 C 212.616 284.400,212.516 284.762,212.601 285.204 C 212.817 286.326,212.018 288.465,211.071 289.300 C 210.635 289.685,210.440 290.006,210.639 290.013 C 210.837 290.021,210.603 290.358,210.117 290.764 C 209.631 291.169,209.330 291.597,209.447 291.714 C 209.564 291.831,209.287 292.046,208.830 292.190 C 208.374 292.335,208.000 292.722,208.000 293.051 C 208.000 293.379,207.820 293.536,207.600 293.400 C 207.380 293.264,207.200 293.433,207.200 293.776 C 207.200 294.119,206.975 294.427,206.700 294.461 C 206.425 294.494,206.020 294.546,205.800 294.575 C 205.580 294.604,204.590 294.835,203.600 295.089 C 202.610 295.343,201.410 295.631,200.933 295.729 C 199.644 295.995,193.124 294.565,192.773 293.940 C 192.299 293.095,190.800 291.445,190.800 291.767 C 190.800 291.927,190.530 291.787,190.200 291.457 C 189.870 291.127,189.600 290.664,189.600 290.429 C 189.600 290.193,189.465 289.998,189.300 289.995 C 188.781 289.987,187.553 287.021,187.515 285.682 C 187.495 284.977,187.326 284.400,187.139 284.400 C 186.744 284.400,186.678 282.656,187.058 282.275 C 187.201 282.133,187.373 281.518,187.441 280.908 C 187.635 279.182,187.784 278.720,188.731 276.900 C 189.218 275.965,189.793 275.200,190.009 275.200 C 190.225 275.200,191.053 274.480,191.848 273.600 C 192.643 272.720,193.527 272.000,193.813 272.000 C 194.099 272.000,194.396 271.812,194.472 271.583 C 194.549 271.353,195.149 271.096,195.806 271.010 C 196.463 270.925,197.090 270.821,197.200 270.780 C 197.310 270.739,197.548 270.731,197.730 270.763 C 197.911 270.794,197.961 270.660,197.840 270.465 C 197.720 270.270,198.607 270.125,199.811 270.143 C 201.015 270.160,202.000 270.326,202.000 270.511 C 202.000 270.696,202.180 270.736,202.400 270.600 C 202.620 270.464,202.800 270.513,202.800 270.710 C 202.800 270.906,203.375 271.067,204.078 271.067 C 204.781 271.067,205.426 271.277,205.511 271.533 C 205.597 271.790,205.877 272.004,206.133 272.009 C 206.390 272.014,207.482 272.824,208.561 273.809 C 211.223 276.240,211.847 276.085,209.400 273.600 C 208.317 272.500,207.198 271.600,206.915 271.600 C 206.632 271.600,206.400 271.428,206.400 271.218 C 206.400 271.008,205.768 270.718,204.996 270.573 C 204.223 270.428,203.493 270.150,203.372 269.955 C 203.251 269.760,201.734 269.600,200.000 269.600 C 198.266 269.600,196.749 269.760,196.628 269.955 M255.428 269.955 C 255.307 270.150,254.551 270.433,253.747 270.584 C 252.014 270.909,250.453 272.130,252.051 271.910 C 252.573 271.838,253.267 271.613,253.593 271.409 C 255.017 270.518,260.745 270.426,262.217 271.270 C 262.428 271.391,263.136 271.618,263.792 271.775 C 264.447 271.933,265.466 272.602,266.056 273.263 C 266.646 273.923,267.280 274.405,267.464 274.332 C 267.649 274.259,267.855 274.587,267.922 275.059 C 267.990 275.532,268.395 276.010,268.822 276.122 C 269.253 276.234,269.600 276.669,269.600 277.096 C 269.600 277.520,269.735 278.002,269.900 278.167 C 270.065 278.332,270.216 278.587,270.235 278.733 C 270.254 278.880,270.428 279.360,270.622 279.800 C 270.940 280.520,270.975 281.861,270.783 285.900 C 270.749 286.615,270.539 287.200,270.318 287.200 C 270.096 287.200,270.018 287.470,270.145 287.800 C 270.271 288.130,270.171 288.400,269.921 288.400 C 269.671 288.400,269.585 288.518,269.730 288.663 C 269.875 288.808,269.793 289.168,269.548 289.463 C 269.276 289.791,269.258 290.000,269.502 290.000 C 270.201 290.000,270.757 289.012,271.035 287.271 C 271.184 286.342,271.461 285.486,271.653 285.368 C 272.136 285.069,272.090 281.303,271.600 281.000 C 271.380 280.864,271.200 280.398,271.200 279.964 C 271.200 276.610,265.179 270.400,261.927 270.400 C 261.553 270.400,261.136 270.220,261.000 270.000 C 260.695 269.506,255.730 269.465,255.428 269.955 M248.828 273.667 C 243.406 279.198,243.425 287.667,248.870 292.900 C 250.977 294.925,251.467 295.167,251.467 294.183 C 251.467 293.843,251.246 293.650,250.976 293.754 C 250.427 293.965,248.800 292.410,248.800 291.674 C 248.800 291.413,248.641 291.200,248.446 291.200 C 248.251 291.200,247.792 290.570,247.427 289.800 C 247.061 289.030,246.591 288.400,246.381 288.400 C 246.172 288.400,246.000 287.781,246.000 287.024 C 246.000 286.267,245.820 285.536,245.600 285.400 C 245.380 285.264,245.200 284.973,245.200 284.753 C 245.200 284.533,245.378 284.463,245.595 284.597 C 245.830 284.742,245.884 284.564,245.729 284.159 C 245.388 283.270,245.391 280.876,245.733 280.533 C 245.880 280.387,246.000 279.862,246.000 279.367 C 246.000 278.872,246.135 278.407,246.300 278.333 C 246.983 278.030,248.415 275.548,248.153 275.123 C 247.968 274.824,248.088 274.748,248.498 274.905 C 248.935 275.073,249.201 274.850,249.371 274.173 C 249.535 273.521,249.910 273.190,250.508 273.168 C 250.998 273.151,251.174 273.046,250.898 272.934 C 250.621 272.823,250.497 272.567,250.621 272.366 C 251.129 271.544,250.367 272.097,248.828 273.667 M268.800 290.689 C 268.470 290.814,267.606 291.520,266.881 292.258 C 266.155 292.996,265.380 293.600,265.157 293.600 C 264.935 293.600,264.864 293.780,265.000 294.000 C 265.248 294.401,265.103 294.457,263.585 294.550 C 263.137 294.578,262.630 294.828,262.458 295.107 C 262.286 295.385,261.321 295.678,260.314 295.757 C 259.307 295.837,258.296 296.017,258.069 296.157 C 257.841 296.298,257.556 296.253,257.435 296.057 C 257.314 295.860,256.806 295.684,256.307 295.665 C 255.060 295.617,254.296 295.437,253.665 295.044 C 253.366 294.857,252.960 294.880,252.743 295.097 C 251.176 296.664,260.614 297.185,263.630 295.698 C 266.066 294.498,271.099 289.993,269.514 290.432 C 269.451 290.449,269.130 290.565,268.800 290.689 M305.474 356.837 C 305.341 357.347,305.111 357.644,304.963 357.497 C 304.816 357.349,304.319 357.492,303.858 357.814 C 303.398 358.136,302.702 358.400,302.311 358.400 C 301.920 358.400,301.600 358.591,301.600 358.824 C 301.600 359.057,301.435 359.145,301.234 359.021 C 301.033 358.897,300.808 358.970,300.734 359.185 C 300.660 359.399,300.015 359.619,299.300 359.672 C 298.585 359.726,298.000 359.912,298.000 360.085 C 298.000 360.258,297.676 360.400,297.280 360.400 C 296.386 360.400,294.407 361.294,294.403 361.700 C 294.399 362.120,295.506 362.076,295.772 361.645 C 295.893 361.450,296.668 361.164,297.496 361.009 C 299.113 360.706,302.481 359.305,306.337 357.330 C 306.412 357.292,306.303 356.956,306.095 356.584 C 305.762 355.989,305.688 356.019,305.474 356.837 M106.098 361.693 C 106.927 364.181,292.317 364.399,293.853 361.913 C 294.223 361.316,293.664 361.049,293.073 361.540 C 292.772 361.789,292.420 361.887,292.290 361.756 C 292.160 361.626,291.825 361.661,291.546 361.833 C 290.463 362.502,283.165 362.560,200.000 362.559 C 117.228 362.558,109.530 362.498,108.481 361.850 C 108.216 361.686,107.832 361.656,107.628 361.783 C 107.423 361.909,107.142 361.830,107.004 361.607 C 106.647 361.030,105.900 361.101,106.098 361.693 " stroke="none" fill="#2c2c2c" fill-rule="evenodd"></path><path id="path2" d="" stroke="none" fill="#343830" fill-rule="evenodd"></path><path id="path3" d="" stroke="none" fill="#343830" fill-rule="evenodd"></path><path id="path4" d="" stroke="none" fill="#343830" fill-rule="evenodd"></path></g></svg>