<svg id="svg" version="1.1" xmlns="http://www.w3.org/2000/svg" xmlns:xlink="http://www.w3.org/1999/xlink" width="400" height="400" viewBox="0, 0, 400,400"><g id="svgg"><path id="path0" d="M191.721 53.873 C 191.832 54.053,190.455 54.176,188.662 54.146 C 186.868 54.116,185.040 54.240,184.600 54.421 C 184.160 54.602,182.045 54.868,179.900 55.013 C 177.755 55.157,176.000 55.404,176.000 55.562 C 176.000 55.720,174.110 56.080,171.800 56.363 C 169.490 56.645,167.600 57.018,167.600 57.192 C 167.600 57.366,166.610 57.632,165.400 57.783 C 164.190 57.934,163.200 58.190,163.200 58.351 C 163.200 58.512,161.854 58.870,160.208 59.147 C 158.563 59.423,157.122 59.803,157.006 59.990 C 156.891 60.177,156.077 60.452,155.198 60.600 C 154.319 60.749,153.600 61.045,153.600 61.259 C 153.600 61.472,153.412 61.531,153.182 61.389 C 152.953 61.247,152.548 61.311,152.282 61.530 C 152.017 61.749,151.125 62.055,150.300 62.209 C 149.475 62.363,148.800 62.641,148.800 62.826 C 148.800 63.012,148.170 63.282,147.400 63.426 C 146.630 63.571,146.000 63.857,146.000 64.062 C 146.000 64.267,145.775 64.398,145.500 64.353 C 145.225 64.308,144.493 64.481,143.874 64.736 C 143.255 64.991,142.580 65.200,142.374 65.200 C 142.168 65.200,142.000 65.346,142.000 65.524 C 142.000 65.703,141.100 66.079,140.000 66.361 C 138.900 66.643,138.000 67.037,138.000 67.237 C 138.000 67.437,137.743 67.600,137.429 67.600 C 137.114 67.600,136.614 67.843,136.318 68.140 C 136.021 68.436,135.063 68.913,134.189 69.198 C 133.315 69.483,132.510 69.839,132.400 69.989 C 132.220 70.236,131.115 70.849,128.503 72.152 C 128.010 72.399,127.605 72.721,127.603 72.868 C 127.601 73.016,127.061 73.255,126.402 73.399 C 125.744 73.544,125.069 73.877,124.902 74.140 C 124.736 74.402,124.150 74.847,123.600 75.128 C 121.137 76.387,120.400 76.869,120.400 77.222 C 120.400 77.430,120.124 77.600,119.787 77.600 C 119.451 77.600,119.078 77.854,118.959 78.164 C 118.839 78.474,118.350 78.827,117.871 78.947 C 117.032 79.159,116.425 79.559,114.006 81.500 C 113.389 81.995,112.767 82.400,112.623 82.400 C 112.479 82.400,111.945 82.850,111.435 83.400 C 110.925 83.950,110.314 84.400,110.077 84.400 C 109.840 84.400,109.410 84.731,109.123 85.137 C 108.835 85.542,108.155 86.109,107.611 86.398 C 107.068 86.687,106.090 87.525,105.438 88.261 C 104.786 88.998,104.084 89.600,103.877 89.600 C 103.188 89.600,87.189 106.120,86.354 107.694 C 86.089 108.192,85.542 108.835,85.137 109.123 C 84.731 109.410,84.400 109.840,84.400 110.077 C 84.400 110.314,83.950 110.925,83.400 111.435 C 82.850 111.945,82.400 112.479,82.400 112.623 C 82.400 112.767,81.995 113.389,81.500 114.006 C 79.559 116.425,79.159 117.032,78.947 117.871 C 78.827 118.350,78.474 118.839,78.164 118.959 C 77.854 119.078,77.600 119.451,77.600 119.787 C 77.600 120.124,77.430 120.400,77.222 120.400 C 76.869 120.400,76.387 121.137,75.128 123.600 C 74.847 124.150,74.402 124.736,74.140 124.902 C 73.877 125.069,73.544 125.744,73.399 126.402 C 73.255 127.061,73.008 127.600,72.852 127.600 C 72.695 127.600,72.048 128.635,71.414 129.900 C 70.779 131.165,70.138 132.290,69.988 132.400 C 69.838 132.510,69.483 133.315,69.198 134.189 C 68.913 135.063,68.436 136.021,68.140 136.318 C 67.843 136.614,67.600 137.114,67.600 137.429 C 67.600 137.743,67.437 138.000,67.237 138.000 C 67.037 138.000,66.643 138.900,66.361 140.000 C 66.079 141.100,65.703 142.000,65.524 142.000 C 65.346 142.000,65.200 142.168,65.200 142.374 C 65.200 142.580,64.991 143.255,64.736 143.874 C 64.481 144.493,64.308 145.225,64.353 145.500 C 64.398 145.775,64.255 146.000,64.036 146.000 C 63.816 146.000,63.518 146.630,63.374 147.400 C 63.229 148.170,62.971 148.800,62.800 148.800 C 62.629 148.800,62.363 149.475,62.209 150.300 C 62.055 151.125,61.749 152.017,61.530 152.282 C 61.311 152.548,61.247 152.953,61.389 153.182 C 61.531 153.412,61.472 153.600,61.259 153.600 C 61.045 153.600,60.749 154.319,60.600 155.198 C 60.452 156.077,60.187 156.885,60.011 156.993 C 59.836 157.101,59.471 158.365,59.200 159.800 C 58.929 161.235,58.557 162.503,58.372 162.617 C 58.188 162.731,57.915 163.899,57.767 165.212 C 57.618 166.525,57.357 167.600,57.186 167.600 C 57.016 167.600,56.645 169.490,56.363 171.800 C 56.080 174.110,55.720 176.000,55.562 176.000 C 55.404 176.000,55.156 177.755,55.010 179.900 C 54.865 182.045,54.637 184.070,54.505 184.400 C 53.627 186.592,53.627 213.408,54.505 215.600 C 54.637 215.930,54.865 217.955,55.010 220.100 C 55.156 222.245,55.404 224.000,55.562 224.000 C 55.720 224.000,56.080 225.890,56.363 228.200 C 56.645 230.510,57.016 232.400,57.186 232.400 C 57.357 232.400,57.618 233.475,57.767 234.788 C 57.915 236.101,58.188 237.269,58.372 237.383 C 58.557 237.497,58.929 238.765,59.200 240.200 C 59.471 241.635,59.836 242.899,60.011 243.007 C 60.187 243.115,60.452 243.923,60.600 244.802 C 60.749 245.681,61.045 246.400,61.259 246.400 C 61.472 246.400,61.531 246.588,61.389 246.818 C 61.247 247.047,61.311 247.452,61.530 247.718 C 61.749 247.983,62.055 248.875,62.209 249.700 C 62.363 250.525,62.629 251.200,62.800 251.200 C 62.971 251.200,63.229 251.830,63.374 252.600 C 63.518 253.370,63.816 254.000,64.036 254.000 C 64.255 254.000,64.398 254.225,64.353 254.500 C 64.308 254.775,64.481 255.507,64.736 256.126 C 64.991 256.745,65.200 257.420,65.200 257.626 C 65.200 257.832,65.346 258.000,65.524 258.000 C 65.703 258.000,66.079 258.900,66.361 260.000 C 66.643 261.100,67.037 262.000,67.237 262.000 C 67.437 262.000,67.600 262.257,67.600 262.571 C 67.600 262.886,67.843 263.386,68.140 263.682 C 68.436 263.979,68.913 264.937,69.198 265.811 C 69.483 266.685,69.838 267.490,69.988 267.600 C 70.138 267.710,70.779 268.835,71.414 270.100 C 72.048 271.365,72.695 272.400,72.852 272.400 C 73.008 272.400,73.255 272.939,73.399 273.598 C 73.544 274.256,73.877 274.931,74.140 275.098 C 74.402 275.264,74.847 275.850,75.128 276.400 C 76.387 278.863,76.869 279.600,77.222 279.600 C 77.430 279.600,77.600 279.876,77.600 280.213 C 77.600 280.549,77.854 280.922,78.164 281.041 C 78.474 281.161,78.827 281.650,78.947 282.129 C 79.159 282.968,79.559 283.575,81.500 285.994 C 81.995 286.611,82.400 287.249,82.400 287.412 C 82.400 287.575,82.850 288.125,83.400 288.635 C 83.950 289.145,84.400 289.740,84.400 289.958 C 84.400 290.176,84.731 290.590,85.137 290.877 C 85.542 291.165,86.089 291.808,86.354 292.306 C 87.195 293.892,103.172 310.400,103.866 310.400 C 104.079 310.400,104.786 311.002,105.438 311.739 C 106.090 312.475,107.019 313.289,107.503 313.548 C 107.986 313.807,108.813 314.419,109.340 314.909 C 110.830 316.296,112.447 317.600,112.676 317.600 C 112.791 317.600,113.389 318.005,114.006 318.500 C 116.425 320.441,117.032 320.841,117.871 321.053 C 118.350 321.173,118.839 321.526,118.959 321.836 C 119.078 322.146,119.451 322.400,119.787 322.400 C 120.124 322.400,120.400 322.570,120.400 322.778 C 120.400 323.131,121.137 323.613,123.600 324.872 C 124.150 325.153,124.733 325.592,124.895 325.847 C 125.057 326.102,125.685 326.435,126.291 326.587 C 126.896 326.739,127.484 326.984,127.596 327.132 C 127.909 327.544,129.252 328.349,130.800 329.053 C 131.570 329.403,132.290 329.824,132.400 329.987 C 132.510 330.150,133.315 330.517,134.189 330.802 C 135.063 331.087,136.021 331.564,136.318 331.860 C 136.614 332.157,137.114 332.400,137.429 332.400 C 137.743 332.400,138.000 332.563,138.000 332.763 C 138.000 332.963,138.900 333.357,140.000 333.639 C 141.100 333.921,142.000 334.297,142.000 334.476 C 142.000 334.654,142.190 334.800,142.422 334.800 C 142.654 334.800,143.599 335.140,144.522 335.555 C 145.445 335.970,146.785 336.434,147.500 336.586 C 148.215 336.739,148.800 337.013,148.800 337.197 C 148.800 337.380,149.519 337.651,150.398 337.800 C 151.277 337.948,152.090 338.222,152.205 338.408 C 152.320 338.594,153.409 338.968,154.625 339.241 C 155.841 339.513,156.922 339.874,157.027 340.043 C 157.131 340.212,158.563 340.577,160.208 340.853 C 161.854 341.130,163.200 341.488,163.200 341.649 C 163.200 341.810,164.190 342.066,165.400 342.217 C 166.610 342.368,167.600 342.634,167.600 342.808 C 167.600 342.982,169.490 343.355,171.800 343.637 C 174.110 343.920,176.000 344.280,176.000 344.438 C 176.000 344.596,177.755 344.843,179.900 344.987 C 182.045 345.132,184.232 345.463,184.761 345.725 C 185.448 346.065,189.779 346.200,200.000 346.200 C 210.221 346.200,214.552 346.065,215.239 345.725 C 215.768 345.463,217.955 345.132,220.100 344.987 C 222.245 344.843,224.000 344.596,224.000 344.438 C 224.000 344.280,225.890 343.920,228.200 343.637 C 230.510 343.355,232.400 342.982,232.400 342.808 C 232.400 342.634,233.390 342.368,234.600 342.217 C 235.810 342.066,236.800 341.810,236.800 341.649 C 236.800 341.488,238.146 341.130,239.792 340.853 C 241.437 340.577,242.872 340.207,242.980 340.032 C 243.088 339.857,244.262 339.484,245.588 339.202 C 246.915 338.921,248.000 338.551,248.000 338.381 C 248.000 338.210,248.720 337.949,249.600 337.800 C 250.480 337.651,251.200 337.380,251.200 337.197 C 251.200 337.013,251.785 336.739,252.500 336.586 C 253.215 336.434,254.555 335.970,255.478 335.555 C 256.401 335.140,257.346 334.800,257.578 334.800 C 257.810 334.800,258.000 334.654,258.000 334.476 C 258.000 334.297,258.900 333.921,260.000 333.639 C 261.100 333.357,262.000 332.963,262.000 332.763 C 262.000 332.563,262.257 332.400,262.571 332.400 C 262.886 332.400,263.386 332.157,263.682 331.860 C 263.979 331.564,264.937 331.087,265.811 330.802 C 266.685 330.517,267.490 330.175,267.600 330.042 C 267.710 329.909,268.430 329.486,269.200 329.102 C 270.874 328.268,272.125 327.499,272.404 327.132 C 272.516 326.984,273.104 326.739,273.709 326.587 C 274.315 326.435,274.943 326.102,275.105 325.847 C 275.267 325.592,275.850 325.153,276.400 324.872 C 278.863 323.613,279.600 323.131,279.600 322.778 C 279.600 322.570,279.876 322.400,280.213 322.400 C 280.549 322.400,280.922 322.146,281.041 321.836 C 281.161 321.526,281.650 321.173,282.129 321.053 C 282.968 320.841,283.575 320.441,285.994 318.500 C 286.611 318.005,287.223 317.600,287.355 317.600 C 287.620 317.600,289.256 316.279,290.687 314.909 C 291.199 314.419,291.976 313.827,292.415 313.592 C 294.426 312.516,312.516 294.426,313.592 292.415 C 313.827 291.976,314.419 291.199,314.909 290.687 C 316.279 289.256,317.600 287.620,317.600 287.355 C 317.600 287.223,318.005 286.611,318.500 285.994 C 320.441 283.575,320.841 282.968,321.053 282.129 C 321.173 281.650,321.526 281.161,321.836 281.041 C 322.146 280.922,322.400 280.549,322.400 280.213 C 322.400 279.876,322.570 279.600,322.778 279.600 C 323.131 279.600,323.613 278.863,324.872 276.400 C 325.153 275.850,325.598 275.264,325.860 275.098 C 326.123 274.931,326.456 274.256,326.601 273.598 C 326.745 272.939,326.991 272.400,327.146 272.400 C 327.301 272.400,327.962 271.365,328.614 270.100 C 329.266 268.835,329.909 267.710,330.042 267.600 C 330.175 267.490,330.517 266.685,330.802 265.811 C 331.087 264.937,331.564 263.979,331.860 263.682 C 332.157 263.386,332.400 262.886,332.400 262.571 C 332.400 262.257,332.563 262.000,332.763 262.000 C 332.963 262.000,333.357 261.100,333.639 260.000 C 333.921 258.900,334.297 258.000,334.476 258.000 C 334.654 258.000,334.800 257.810,334.800 257.578 C 334.800 257.346,335.165 256.356,335.610 255.378 C 336.056 254.400,336.528 253.060,336.660 252.400 C 336.792 251.740,337.042 251.200,337.215 251.200 C 337.388 251.200,337.651 250.480,337.800 249.600 C 337.949 248.720,338.206 248.000,338.372 248.000 C 338.537 248.000,338.901 246.965,339.181 245.700 C 339.460 244.435,339.830 243.220,340.001 243.000 C 340.173 242.780,340.532 241.520,340.800 240.200 C 341.068 238.880,341.442 237.608,341.631 237.374 C 341.821 237.139,342.096 235.924,342.243 234.674 C 342.390 233.423,342.648 232.400,342.817 232.400 C 342.986 232.400,343.355 230.510,343.637 228.200 C 343.920 225.890,344.280 224.000,344.438 224.000 C 344.596 224.000,344.843 222.245,344.987 220.100 C 345.132 217.955,345.433 215.825,345.657 215.366 C 347.130 212.351,345.978 193.200,344.323 193.200 C 344.145 193.200,344.000 192.970,344.000 192.689 C 344.000 191.761,341.734 189.677,339.550 188.597 C 338.367 188.012,337.087 187.369,336.705 187.167 C 335.796 186.686,213.725 186.674,213.428 187.155 C 213.307 187.350,212.577 187.628,211.804 187.773 C 211.032 187.918,210.400 188.196,210.400 188.391 C 210.400 188.586,210.033 188.863,209.584 189.005 C 207.926 189.531,204.382 193.936,204.224 195.667 C 204.211 195.813,204.065 196.068,203.900 196.233 C 203.735 196.398,203.600 198.093,203.600 200.000 C 203.600 201.907,203.735 203.602,203.900 203.767 C 204.065 203.932,204.211 204.187,204.224 204.333 C 204.386 206.111,207.881 210.454,209.584 210.995 C 210.033 211.137,210.400 211.414,210.400 211.609 C 210.400 211.804,211.032 212.082,211.804 212.227 C 212.577 212.372,213.307 212.650,213.428 212.845 C 213.554 213.049,236.184 213.200,266.460 213.200 L 319.272 213.200 318.984 216.700 C 318.826 218.625,318.558 220.290,318.390 220.400 C 318.221 220.510,317.954 221.815,317.795 223.300 C 317.636 224.785,317.370 226.000,317.202 226.000 C 317.035 226.000,316.674 227.440,316.400 229.200 C 316.126 230.960,315.767 232.400,315.602 232.400 C 315.437 232.400,315.181 233.156,315.034 234.080 C 314.886 235.004,314.573 235.992,314.338 236.275 C 314.103 236.558,314.015 237.062,314.143 237.395 C 314.270 237.728,314.201 238.000,313.987 238.000 C 313.774 238.000,313.594 238.315,313.586 238.700 C 313.579 239.085,313.225 240.120,312.800 241.000 C 312.375 241.880,312.021 242.904,312.014 243.276 C 312.006 243.648,311.820 244.064,311.600 244.200 C 311.380 244.336,310.998 245.247,310.752 246.224 C 310.506 247.201,310.175 248.000,310.016 248.000 C 309.857 248.000,309.498 248.765,309.219 249.700 C 308.940 250.635,308.596 251.490,308.456 251.600 C 308.315 251.710,307.390 253.420,306.400 255.400 C 305.410 257.380,304.475 259.057,304.322 259.126 C 304.170 259.195,304.135 259.487,304.245 259.774 C 304.356 260.062,304.166 260.404,303.823 260.536 C 303.480 260.667,303.200 261.051,303.200 261.387 C 303.200 261.724,303.020 262.000,302.800 262.000 C 302.580 262.000,302.400 262.208,302.400 262.462 C 302.400 262.716,301.950 263.514,301.400 264.236 C 300.850 264.957,300.400 265.739,300.400 265.973 C 300.400 266.208,300.249 266.400,300.064 266.400 C 299.880 266.400,299.520 266.857,299.266 267.415 C 298.763 268.519,298.186 269.292,297.100 270.317 C 296.715 270.680,296.400 271.213,296.400 271.501 C 296.400 271.789,296.137 272.126,295.815 272.250 C 295.494 272.373,295.109 272.862,294.960 273.337 C 294.811 273.812,294.309 274.574,293.844 275.032 C 293.380 275.489,292.190 276.810,291.200 277.968 C 290.210 279.126,288.635 280.899,287.700 281.908 C 286.765 282.917,286.000 283.902,286.000 284.095 C 286.000 284.289,285.865 284.375,285.700 284.287 C 285.307 284.077,283.996 285.463,284.300 285.767 C 284.428 285.895,284.356 286.000,284.138 286.000 C 283.921 286.000,282.917 286.765,281.908 287.700 C 280.899 288.635,279.126 290.210,277.968 291.200 C 276.810 292.190,275.468 293.405,274.986 293.900 C 274.503 294.395,273.930 294.800,273.713 294.800 C 273.495 294.800,272.866 295.205,272.315 295.700 C 271.765 296.195,270.912 296.870,270.420 297.200 C 269.928 297.530,269.161 298.110,268.715 298.488 C 268.270 298.867,267.566 299.284,267.152 299.415 C 266.739 299.546,266.400 299.822,266.400 300.027 C 266.400 300.232,266.208 300.400,265.973 300.400 C 265.739 300.400,264.957 300.850,264.236 301.400 C 263.514 301.950,262.716 302.400,262.462 302.400 C 262.208 302.400,262.000 302.580,262.000 302.800 C 262.000 303.020,261.724 303.200,261.387 303.200 C 261.051 303.200,260.667 303.480,260.536 303.823 C 260.404 304.166,260.050 304.351,259.748 304.236 C 259.447 304.120,259.200 304.180,259.200 304.369 C 259.200 304.558,258.743 304.828,258.184 304.968 C 257.625 305.109,257.278 305.403,257.413 305.622 C 257.549 305.841,257.511 305.973,257.330 305.915 C 256.819 305.752,254.400 306.853,254.400 307.249 C 254.400 307.442,254.210 307.600,253.978 307.600 C 253.746 307.600,252.795 307.947,251.864 308.371 C 250.934 308.795,249.683 309.264,249.086 309.414 C 248.489 309.564,248.000 309.826,248.000 309.996 C 248.000 310.166,247.201 310.506,246.224 310.752 C 245.247 310.998,244.336 311.380,244.200 311.600 C 244.064 311.820,243.648 312.006,243.276 312.014 C 242.904 312.021,241.880 312.375,241.000 312.800 C 240.120 313.225,239.085 313.579,238.700 313.586 C 238.315 313.594,238.000 313.763,238.000 313.963 C 238.000 314.162,237.640 314.231,237.200 314.116 C 236.760 314.001,236.400 314.091,236.400 314.316 C 236.400 314.541,235.500 314.849,234.400 315.000 C 233.300 315.151,232.400 315.417,232.400 315.590 C 232.400 315.763,230.960 316.139,229.200 316.424 C 227.440 316.710,226.000 317.073,226.000 317.231 C 226.000 317.390,224.740 317.645,223.200 317.800 C 221.660 317.955,220.400 318.212,220.400 318.373 C 220.400 318.731,210.854 319.601,206.924 319.601 C 205.342 319.600,203.936 319.780,203.800 320.000 C 203.478 320.522,196.522 320.522,196.200 320.000 C 196.064 319.780,194.658 319.600,193.076 319.601 C 189.146 319.601,179.600 318.731,179.600 318.373 C 179.600 318.212,178.340 317.955,176.800 317.800 C 175.260 317.645,174.000 317.390,174.000 317.231 C 174.000 317.073,172.560 316.710,170.800 316.424 C 169.040 316.139,167.600 315.763,167.600 315.590 C 167.600 315.417,166.700 315.151,165.600 315.000 C 164.500 314.849,163.600 314.541,163.600 314.316 C 163.600 314.091,163.240 314.001,162.800 314.116 C 162.360 314.231,162.000 314.162,162.000 313.963 C 162.000 313.763,161.685 313.594,161.300 313.586 C 160.915 313.579,159.880 313.225,159.000 312.800 C 158.120 312.375,157.096 312.021,156.724 312.014 C 156.352 312.006,155.936 311.820,155.800 311.600 C 155.664 311.380,154.753 310.998,153.776 310.752 C 152.799 310.506,152.000 310.175,152.000 310.016 C 152.000 309.857,151.260 309.505,150.356 309.234 C 149.451 308.963,147.606 308.143,146.256 307.412 C 144.905 306.682,143.170 305.750,142.400 305.342 C 141.630 304.934,140.943 304.475,140.874 304.322 C 140.805 304.170,140.513 304.135,140.226 304.245 C 139.938 304.356,139.596 304.166,139.464 303.823 C 139.333 303.480,138.949 303.200,138.613 303.200 C 138.276 303.200,138.000 303.020,138.000 302.800 C 138.000 302.580,137.792 302.400,137.538 302.400 C 137.284 302.400,136.486 301.950,135.764 301.400 C 135.043 300.850,134.261 300.400,134.027 300.400 C 133.792 300.400,133.600 300.232,133.600 300.027 C 133.600 299.822,133.261 299.546,132.848 299.415 C 132.434 299.284,131.730 298.867,131.285 298.488 C 130.839 298.110,130.072 297.530,129.580 297.200 C 129.088 296.870,128.235 296.195,127.685 295.700 C 127.134 295.205,126.556 294.800,126.400 294.800 C 126.244 294.800,125.664 294.395,125.111 293.900 C 124.558 293.405,123.158 292.190,122.000 291.200 C 120.842 290.210,118.667 288.207,117.166 286.748 C 115.665 285.290,114.338 284.195,114.218 284.315 C 114.098 284.435,114.000 284.356,114.000 284.138 C 114.000 283.921,113.235 282.917,112.300 281.908 C 111.365 280.899,109.790 279.125,108.800 277.967 C 107.810 276.808,106.609 275.447,106.131 274.943 C 105.653 274.438,105.151 273.677,105.016 273.250 C 104.880 272.823,104.506 272.373,104.185 272.250 C 103.863 272.126,103.600 271.789,103.600 271.501 C 103.600 271.213,103.285 270.680,102.900 270.317 C 101.814 269.292,101.237 268.519,100.734 267.415 C 100.480 266.857,100.120 266.400,99.936 266.400 C 99.751 266.400,99.600 266.208,99.600 265.973 C 99.600 265.739,99.150 264.957,98.600 264.236 C 98.050 263.514,97.600 262.716,97.600 262.462 C 97.600 262.208,97.464 262.000,97.298 262.000 C 97.131 262.000,96.741 261.415,96.430 260.700 C 96.119 259.985,95.760 259.310,95.632 259.200 C 95.504 259.090,94.590 257.380,93.600 255.400 C 92.610 253.420,91.685 251.710,91.544 251.600 C 91.404 251.490,91.060 250.635,90.781 249.700 C 90.502 248.765,90.143 248.000,89.984 248.000 C 89.825 248.000,89.494 247.201,89.248 246.224 C 89.002 245.247,88.620 244.336,88.400 244.200 C 88.180 244.064,88.000 243.684,88.000 243.354 C 88.000 243.025,87.656 242.001,87.236 241.078 C 86.816 240.155,86.346 238.723,86.191 237.896 C 86.036 237.068,85.760 236.299,85.578 236.186 C 85.395 236.074,85.125 235.176,84.978 234.191 C 84.830 233.206,84.572 232.400,84.403 232.400 C 84.235 232.400,83.874 230.960,83.600 229.200 C 83.326 227.440,82.962 226.000,82.792 226.000 C 82.621 226.000,82.355 224.740,82.200 223.200 C 82.045 221.660,81.788 220.400,81.627 220.400 C 81.269 220.400,80.399 210.854,80.399 206.924 C 80.400 205.342,80.220 203.936,80.000 203.800 C 79.478 203.478,79.478 196.522,80.000 196.200 C 80.220 196.064,80.400 194.658,80.399 193.076 C 80.399 189.146,81.269 179.600,81.627 179.600 C 81.788 179.600,82.045 178.340,82.200 176.800 C 82.355 175.260,82.621 174.000,82.792 174.000 C 82.962 174.000,83.326 172.560,83.600 170.800 C 83.874 169.040,84.235 167.600,84.403 167.600 C 84.572 167.600,84.830 166.794,84.978 165.809 C 85.125 164.824,85.395 163.926,85.578 163.814 C 85.760 163.701,86.036 162.932,86.191 162.104 C 86.346 161.277,86.816 159.845,87.236 158.922 C 87.656 157.999,88.000 156.975,88.000 156.646 C 88.000 156.316,88.180 155.936,88.400 155.800 C 88.620 155.664,89.002 154.753,89.248 153.776 C 89.494 152.799,89.825 152.000,89.984 152.000 C 90.143 152.000,90.502 151.235,90.781 150.300 C 91.060 149.365,91.404 148.510,91.544 148.400 C 91.685 148.290,92.610 146.580,93.600 144.600 C 94.590 142.620,95.504 140.910,95.632 140.800 C 95.760 140.690,96.119 140.015,96.430 139.300 C 96.741 138.585,97.131 138.000,97.298 138.000 C 97.464 138.000,97.600 137.808,97.600 137.573 C 97.600 137.339,98.050 136.557,98.600 135.836 C 99.150 135.114,99.600 134.316,99.600 134.062 C 99.600 133.808,99.751 133.600,99.936 133.600 C 100.120 133.600,100.480 133.143,100.734 132.585 C 101.237 131.481,101.814 130.708,102.900 129.683 C 103.285 129.320,103.600 128.852,103.600 128.645 C 103.600 128.437,103.874 127.982,104.209 127.634 C 104.544 127.285,105.364 126.280,106.031 125.400 C 110.146 119.968,119.811 110.297,125.400 106.018 C 126.280 105.344,127.382 104.480,127.849 104.096 C 128.316 103.713,129.097 103.130,129.586 102.800 C 130.075 102.470,130.839 101.890,131.285 101.512 C 131.730 101.133,132.434 100.716,132.848 100.585 C 133.261 100.454,133.600 100.178,133.600 99.973 C 133.600 99.768,133.808 99.600,134.062 99.600 C 134.316 99.600,135.114 99.150,135.836 98.600 C 136.557 98.050,137.339 97.600,137.573 97.600 C 137.808 97.600,138.000 97.464,138.000 97.298 C 138.000 97.131,138.585 96.741,139.300 96.430 C 140.015 96.119,140.690 95.760,140.800 95.632 C 140.910 95.504,141.630 95.066,142.400 94.658 C 143.170 94.250,144.905 93.318,146.256 92.588 C 147.606 91.857,149.451 91.037,150.356 90.766 C 151.260 90.495,152.000 90.143,152.000 89.984 C 152.000 89.825,152.799 89.494,153.776 89.248 C 154.753 89.002,155.664 88.620,155.800 88.400 C 155.936 88.180,156.316 88.000,156.646 88.000 C 156.975 88.000,157.999 87.656,158.922 87.236 C 159.845 86.816,161.275 86.346,162.100 86.192 C 162.925 86.037,163.600 85.768,163.600 85.593 C 163.600 85.418,164.500 85.151,165.600 85.000 C 166.700 84.849,167.600 84.583,167.600 84.410 C 167.600 84.237,169.040 83.861,170.800 83.576 C 172.560 83.290,174.000 82.927,174.000 82.769 C 174.000 82.610,175.260 82.355,176.800 82.200 C 178.340 82.045,179.600 81.788,179.600 81.627 C 179.600 81.271,189.134 80.399,193.020 80.399 C 194.571 80.400,196.033 80.207,196.270 79.970 C 196.685 79.555,201.045 79.647,205.800 80.171 C 206.900 80.292,210.635 80.597,214.100 80.848 C 217.565 81.100,220.400 81.444,220.400 81.612 C 220.400 81.781,221.660 82.045,223.200 82.200 C 224.740 82.355,226.000 82.610,226.000 82.769 C 226.000 82.927,227.440 83.290,229.200 83.576 C 230.960 83.861,232.400 84.237,232.400 84.410 C 232.400 84.583,233.300 84.849,234.400 85.000 C 235.500 85.151,236.400 85.418,236.400 85.593 C 236.400 85.768,237.075 86.037,237.900 86.192 C 238.725 86.346,240.155 86.816,241.078 87.236 C 242.001 87.656,243.025 88.000,243.354 88.000 C 243.684 88.000,244.064 88.180,244.200 88.400 C 244.336 88.620,245.247 89.002,246.224 89.248 C 247.201 89.494,248.000 89.825,248.000 89.984 C 248.000 90.143,248.765 90.502,249.700 90.781 C 250.635 91.060,251.490 91.404,251.600 91.544 C 251.710 91.685,253.420 92.610,255.400 93.600 C 257.380 94.590,259.090 95.504,259.200 95.632 C 259.310 95.760,259.985 96.119,260.700 96.430 C 261.415 96.741,262.000 97.131,262.000 97.298 C 262.000 97.464,262.192 97.600,262.427 97.600 C 262.661 97.600,263.443 98.050,264.164 98.600 C 264.886 99.150,265.684 99.600,265.938 99.600 C 266.192 99.600,266.400 99.784,266.400 100.010 C 266.400 100.235,266.855 100.593,267.411 100.804 C 268.481 101.211,269.238 101.757,270.317 102.900 C 270.680 103.285,271.213 103.600,271.501 103.600 C 271.789 103.600,272.126 103.863,272.250 104.185 C 272.373 104.506,272.813 104.877,273.227 105.009 C 273.641 105.140,274.660 105.874,275.490 106.638 C 278.063 109.008,278.173 109.090,279.200 109.403 C 279.750 109.571,280.328 109.909,280.485 110.154 C 281.074 111.074,288.774 110.711,290.901 109.664 C 291.995 109.125,292.691 108.547,292.539 108.302 C 292.392 108.063,292.464 107.993,292.705 108.141 C 293.874 108.864,297.474 103.712,298.068 100.466 C 298.609 97.507,298.149 92.678,297.261 92.000 C 297.117 91.890,296.747 91.312,296.440 90.715 C 295.636 89.155,293.585 87.162,293.094 87.465 C 292.851 87.616,292.796 87.531,292.962 87.262 C 293.119 87.008,293.075 86.800,292.866 86.800 C 292.656 86.800,292.060 86.353,291.542 85.807 C 291.024 85.261,290.384 84.811,290.120 84.807 C 289.856 84.803,289.496 84.570,289.320 84.289 C 288.934 83.672,285.600 81.041,285.600 81.353 C 285.600 81.474,285.056 81.042,284.392 80.392 C 283.727 79.743,282.751 79.102,282.221 78.969 C 281.691 78.837,281.161 78.474,281.041 78.164 C 280.922 77.854,280.549 77.600,280.213 77.600 C 279.876 77.600,279.600 77.430,279.600 77.222 C 279.600 76.842,278.342 76.040,276.300 75.120 C 275.695 74.848,275.200 74.506,275.200 74.361 C 275.200 74.216,274.615 73.860,273.900 73.571 C 273.185 73.282,272.510 72.945,272.400 72.823 C 272.034 72.415,269.815 71.167,268.700 70.742 C 268.095 70.511,267.600 70.183,267.600 70.013 C 267.600 69.843,266.790 69.477,265.800 69.200 C 264.810 68.923,264.000 68.543,264.000 68.356 C 264.000 68.168,263.550 67.902,263.000 67.764 C 262.450 67.626,262.000 67.371,262.000 67.197 C 262.000 67.022,261.100 66.664,260.000 66.400 C 258.900 66.136,258.000 65.766,258.000 65.578 C 258.000 65.390,257.370 65.118,256.600 64.974 C 255.830 64.829,255.200 64.557,255.200 64.368 C 255.200 64.179,254.930 64.129,254.600 64.255 C 254.270 64.382,254.000 64.306,254.000 64.087 C 254.000 63.868,253.370 63.571,252.600 63.426 C 251.830 63.282,251.200 63.012,251.200 62.826 C 251.200 62.641,250.525 62.363,249.700 62.209 C 248.875 62.055,247.983 61.749,247.718 61.530 C 247.452 61.311,247.047 61.247,246.818 61.389 C 246.588 61.531,246.400 61.472,246.400 61.259 C 246.400 61.045,245.681 60.749,244.802 60.600 C 243.923 60.452,243.109 60.177,242.994 59.990 C 242.878 59.803,241.437 59.423,239.792 59.147 C 238.146 58.870,236.800 58.512,236.800 58.351 C 236.800 58.190,235.810 57.934,234.600 57.783 C 233.390 57.632,232.400 57.375,232.400 57.213 C 232.400 57.051,230.510 56.685,228.200 56.400 C 225.890 56.115,224.000 55.745,224.000 55.578 C 224.000 55.411,222.245 55.156,220.100 55.010 C 217.955 54.865,215.930 54.635,215.600 54.500 C 214.219 53.934,191.389 53.334,191.721 53.873 " stroke="none" fill="#343434" fill-rule="evenodd"></path><path id="path1" d="" stroke="none" fill="#383434" fill-rule="evenodd"></path><path id="path2" d="" stroke="none" fill="#383434" fill-rule="evenodd"></path><path id="path3" d="" stroke="none" fill="#383434" fill-rule="evenodd"></path><path id="path4" d="" stroke="none" fill="#383434" fill-rule="evenodd"></path></g></svg>