<svg id="svg" version="1.1" xmlns="http://www.w3.org/2000/svg" xmlns:xlink="http://www.w3.org/1999/xlink" width="400" height="400" viewBox="0, 0, 400,400"><g id="svgg"><path id="path0" d="M196.560 37.665 C 196.458 37.830,195.617 37.885,194.692 37.789 C 193.766 37.692,191.926 37.801,190.604 38.031 C 189.282 38.261,187.129 38.536,185.819 38.642 C 184.510 38.749,183.250 38.986,183.019 39.168 C 182.642 39.466,181.915 39.642,178.875 40.173 C 178.367 40.262,177.197 40.687,176.275 41.118 C 175.354 41.548,173.970 42.033,173.200 42.195 C 172.430 42.357,171.485 42.767,171.100 43.107 C 170.715 43.446,170.400 43.615,170.400 43.483 C 170.400 43.131,167.903 44.025,167.200 44.628 C 166.870 44.911,166.468 45.164,166.307 45.189 C 165.503 45.315,163.200 46.450,163.200 46.720 C 163.200 46.890,162.798 47.060,162.306 47.097 C 161.814 47.134,161.349 47.352,161.273 47.582 C 161.196 47.812,160.948 48.000,160.723 48.000 C 160.108 48.000,156.400 50.480,156.400 50.891 C 156.400 51.087,156.227 51.140,156.016 51.010 C 155.507 50.695,154.000 51.657,154.000 52.296 C 154.000 52.573,153.716 52.800,153.369 52.800 C 153.022 52.800,152.210 53.329,151.564 53.975 C 150.917 54.621,150.018 55.267,149.565 55.411 C 149.038 55.578,148.826 55.891,148.976 56.281 C 149.140 56.710,149.027 56.819,148.589 56.651 C 148.201 56.502,147.863 56.696,147.685 57.170 C 147.528 57.586,146.500 58.546,145.400 59.303 C 144.300 60.060,143.378 60.886,143.350 61.139 C 143.322 61.393,143.278 61.758,143.250 61.951 C 143.222 62.145,142.656 62.528,141.991 62.804 C 141.327 63.079,140.669 63.489,140.530 63.714 C 140.373 63.968,140.478 63.999,140.807 63.796 C 141.098 63.616,140.991 63.942,140.568 64.522 C 140.146 65.101,139.616 65.581,139.391 65.587 C 139.166 65.594,138.643 66.230,138.228 67.000 C 137.813 67.770,137.322 68.400,137.137 68.400 C 136.952 68.400,136.800 68.676,136.800 69.013 C 136.800 69.349,136.530 69.729,136.200 69.855 C 135.870 69.982,135.600 70.336,135.600 70.643 C 135.600 70.949,135.420 71.200,135.200 71.200 C 134.980 71.200,134.800 71.388,134.800 71.617 C 134.800 72.059,134.616 72.321,133.011 74.158 C 132.455 74.796,132.000 75.533,132.000 75.796 C 132.000 76.060,131.636 76.606,131.191 77.009 C 130.569 77.571,130.499 77.819,130.891 78.078 C 131.289 78.341,131.260 78.497,130.761 78.793 C 130.410 79.001,129.635 80.258,129.039 81.586 C 128.443 82.914,127.800 84.000,127.609 84.000 C 127.419 84.000,127.149 84.585,127.008 85.300 C 126.765 86.539,126.591 87.027,125.401 89.800 C 124.460 91.991,124.027 93.387,123.913 94.600 C 123.851 95.260,123.685 95.890,123.544 96.000 C 123.404 96.110,123.198 96.878,123.087 97.707 C 122.977 98.536,122.665 99.481,122.394 99.807 C 122.123 100.133,122.036 100.400,122.200 100.400 C 122.364 100.400,122.334 100.625,122.133 100.900 C 121.933 101.175,121.807 102.028,121.853 102.796 C 121.900 103.564,121.750 104.419,121.520 104.696 C 121.237 105.037,121.235 105.200,121.514 105.200 C 121.740 105.200,121.831 105.560,121.716 106.000 C 121.601 106.440,121.303 106.803,121.053 106.806 C 120.782 106.810,120.817 106.950,121.141 107.155 C 121.557 107.419,121.580 107.690,121.241 108.323 C 120.634 109.458,120.668 110.526,121.300 110.147 C 121.642 109.942,121.627 110.060,121.253 110.521 C 120.952 110.892,120.800 111.557,120.915 111.997 C 121.031 112.438,120.986 112.885,120.816 112.990 C 120.427 113.231,120.515 116.033,120.934 116.700 C 121.110 116.982,121.064 117.200,120.828 117.200 C 120.543 117.200,120.375 123.064,120.304 135.500 L 120.200 153.800 118.600 153.914 C 117.720 153.976,115.519 154.098,113.708 154.185 C 111.898 154.272,110.278 154.427,110.108 154.531 C 109.518 154.892,107.797 154.973,107.300 154.664 C 106.980 154.465,106.800 154.580,106.800 154.984 C 106.800 155.438,106.521 155.565,105.807 155.436 C 105.220 155.329,104.055 155.659,102.955 156.244 C 101.933 156.788,100.795 157.182,100.426 157.119 C 100.058 157.057,99.266 157.327,98.667 157.719 C 98.068 158.112,97.402 158.325,97.189 158.193 C 96.975 158.061,96.800 158.143,96.800 158.376 C 96.800 158.609,96.530 158.800,96.200 158.800 C 95.870 158.800,95.600 158.974,95.600 159.187 C 95.600 159.401,95.330 159.471,95.000 159.345 C 94.670 159.218,94.400 159.315,94.400 159.560 C 94.400 159.806,93.690 160.290,92.823 160.638 C 91.955 160.985,91.188 161.568,91.117 161.934 C 91.047 162.299,90.679 162.599,90.299 162.599 C 89.920 162.600,89.583 162.780,89.551 163.000 C 89.449 163.698,88.093 164.409,87.333 164.162 C 86.723 163.965,86.701 163.997,87.200 164.356 C 87.631 164.666,87.655 164.789,87.284 164.794 C 86.805 164.800,84.682 166.827,82.659 169.212 C 82.186 169.768,81.620 170.265,81.400 170.316 C 81.180 170.367,80.999 170.694,80.997 171.042 C 80.996 171.390,80.591 172.002,80.097 172.402 C 79.604 172.801,79.200 173.333,79.200 173.583 C 79.200 173.833,78.740 174.465,78.178 174.986 C 77.615 175.507,77.128 176.296,77.095 176.739 C 77.061 177.182,76.910 177.468,76.759 177.375 C 76.608 177.282,76.203 177.909,75.859 178.769 C 75.515 179.628,75.046 180.448,74.817 180.590 C 74.220 180.959,74.300 181.704,74.900 181.365 C 75.300 181.139,75.300 181.190,74.900 181.621 C 74.625 181.918,74.400 182.565,74.400 183.060 C 74.400 183.555,74.124 184.114,73.787 184.303 C 73.451 184.492,73.080 185.170,72.964 185.810 C 72.848 186.451,72.599 187.161,72.410 187.388 C 72.222 187.614,72.053 187.935,72.034 188.100 C 72.015 188.265,71.985 188.445,71.966 188.500 C 71.947 188.555,71.874 189.140,71.804 189.800 C 71.734 190.460,71.560 191.990,71.418 193.200 C 71.275 194.410,71.119 195.850,71.072 196.400 C 71.025 196.950,70.855 197.607,70.695 197.859 C 70.328 198.437,70.572 318.898,70.944 320.800 C 71.094 321.570,71.286 323.133,71.369 324.274 C 71.452 325.414,71.656 326.567,71.822 326.835 C 71.988 327.104,72.166 327.715,72.219 328.192 C 72.271 328.670,72.678 329.813,73.122 330.732 C 73.566 331.651,73.884 332.711,73.828 333.087 C 73.773 333.463,74.064 334.131,74.474 334.571 C 74.884 335.012,75.136 335.590,75.034 335.857 C 74.931 336.123,75.105 336.555,75.419 336.816 C 75.734 337.077,75.896 337.445,75.779 337.635 C 75.662 337.824,75.924 338.286,76.362 338.661 C 76.801 339.036,77.082 339.467,76.989 339.618 C 76.895 339.769,77.175 340.215,77.609 340.609 C 78.044 341.002,78.400 341.640,78.400 342.026 C 78.400 342.413,78.930 343.175,79.578 343.720 C 80.226 344.265,80.646 344.821,80.511 344.956 C 80.377 345.090,80.477 345.200,80.733 345.200 C 80.990 345.200,81.200 345.393,81.200 345.629 C 81.200 346.182,82.218 347.200,82.771 347.200 C 83.007 347.200,83.200 347.398,83.200 347.640 C 83.200 348.364,87.986 352.802,89.318 353.313 C 89.693 353.457,90.000 353.761,90.000 353.987 C 90.000 354.214,90.281 354.400,90.624 354.400 C 90.967 354.400,91.155 354.549,91.042 354.731 C 90.930 354.914,91.594 355.392,92.519 355.794 C 93.443 356.197,94.344 356.768,94.520 357.063 C 94.696 357.358,95.191 357.600,95.620 357.600 C 96.049 357.600,96.400 357.792,96.400 358.027 C 96.400 358.266,96.738 358.347,97.170 358.209 C 97.658 358.054,98.072 358.200,98.299 358.606 C 98.503 358.971,99.809 359.509,101.329 359.856 C 102.798 360.191,104.000 360.641,104.000 360.856 C 104.000 361.071,104.165 361.145,104.368 361.020 C 104.570 360.895,105.006 361.063,105.336 361.393 C 105.786 361.843,105.977 361.869,106.103 361.496 C 106.236 361.101,106.393 361.101,106.872 361.497 C 107.203 361.770,107.580 361.887,107.710 361.756 C 107.840 361.626,108.175 361.661,108.454 361.833 C 109.533 362.500,116.780 362.558,200.000 362.559 C 283.165 362.560,290.463 362.502,291.546 361.833 C 291.825 361.661,292.160 361.626,292.290 361.756 C 292.420 361.887,292.782 361.781,293.094 361.522 C 293.535 361.156,293.742 361.179,294.024 361.626 C 294.224 361.942,294.392 362.020,294.397 361.800 C 294.408 361.313,296.288 360.400,297.280 360.400 C 297.676 360.400,298.000 360.258,298.000 360.085 C 298.000 359.912,298.585 359.726,299.300 359.672 C 300.015 359.619,300.660 359.399,300.734 359.185 C 300.808 358.970,301.033 358.897,301.234 359.021 C 301.435 359.145,301.600 359.057,301.600 358.824 C 301.600 358.591,301.920 358.400,302.311 358.400 C 302.702 358.400,303.467 358.088,304.011 357.707 C 304.555 357.326,305.083 357.070,305.184 357.137 C 305.286 357.204,305.498 356.931,305.656 356.530 C 305.814 356.128,305.956 356.017,305.972 356.282 C 306.006 356.862,308.373 355.498,310.054 353.931 C 310.684 353.343,311.200 352.938,311.200 353.031 C 311.200 353.124,311.531 352.885,311.937 352.500 C 312.342 352.115,312.584 351.637,312.475 351.438 C 312.366 351.239,312.466 351.194,312.698 351.337 C 313.201 351.648,315.600 349.643,315.600 348.911 C 315.600 348.630,315.870 348.400,316.200 348.400 C 316.530 348.400,316.800 348.130,316.800 347.800 C 316.800 347.470,317.068 347.200,317.395 347.200 C 317.722 347.200,318.423 346.525,318.952 345.700 C 319.481 344.875,320.293 343.803,320.757 343.317 C 321.221 342.831,321.600 342.157,321.600 341.820 C 321.600 341.483,321.960 340.982,322.400 340.707 C 322.840 340.432,323.200 339.968,323.200 339.675 C 323.200 339.382,323.480 338.863,323.823 338.520 C 324.166 338.177,324.356 337.662,324.245 337.374 C 324.135 337.087,324.244 336.785,324.488 336.704 C 324.731 336.623,324.984 336.296,325.049 335.978 C 325.423 334.167,325.979 332.460,326.531 331.429 C 326.877 330.784,327.068 330.109,326.956 329.929 C 326.844 329.748,327.033 329.600,327.376 329.600 C 327.719 329.600,328.000 329.420,328.000 329.200 C 328.000 328.980,327.792 328.800,327.538 328.800 C 327.276 328.800,327.389 328.454,327.800 328.000 C 328.198 327.560,328.435 327.200,328.325 327.200 C 328.216 327.200,328.276 326.345,328.457 325.300 C 328.639 324.255,328.924 322.050,329.090 320.400 C 329.438 316.950,329.446 198.015,329.099 196.200 C 328.786 194.565,328.260 190.403,328.227 189.300 C 328.212 188.805,328.065 188.400,327.900 188.400 C 327.735 188.400,327.600 188.130,327.600 187.800 C 327.600 187.470,327.408 187.200,327.173 187.200 C 326.937 187.200,326.853 186.863,326.985 186.446 C 327.264 185.570,326.445 183.525,325.942 183.836 C 325.754 183.952,325.600 183.339,325.600 182.473 C 325.600 181.592,325.347 180.688,325.026 180.421 C 324.710 180.159,324.336 179.417,324.194 178.772 C 324.052 178.128,323.800 177.600,323.632 177.600 C 323.322 177.600,322.295 175.722,322.210 175.000 C 322.185 174.780,321.950 174.644,321.689 174.698 C 321.428 174.751,321.101 174.346,320.964 173.798 C 320.826 173.249,320.583 172.800,320.424 172.800 C 320.265 172.800,319.894 172.350,319.600 171.801 C 319.306 171.251,318.984 170.882,318.885 170.982 C 318.638 171.229,317.813 170.353,317.490 169.500 C 317.344 169.115,317.029 168.800,316.789 168.800 C 316.549 168.800,316.465 168.618,316.602 168.397 C 316.739 168.175,316.435 167.826,315.926 167.622 C 315.417 167.418,315.117 167.239,315.260 167.225 C 315.706 167.182,313.306 164.800,312.816 164.800 C 312.561 164.800,312.481 164.592,312.638 164.338 C 312.819 164.045,312.747 163.985,312.441 164.174 C 312.155 164.351,311.569 164.051,310.999 163.436 C 310.470 162.866,309.859 162.400,309.639 162.400 C 309.419 162.400,309.096 162.165,308.920 161.878 C 308.744 161.592,307.925 161.043,307.100 160.660 C 306.275 160.276,305.600 159.794,305.600 159.587 C 305.600 159.380,304.790 159.008,303.800 158.758 C 302.810 158.509,302.000 158.167,302.000 157.999 C 302.000 157.583,300.404 157.104,299.300 157.188 C 298.805 157.226,298.400 157.085,298.400 156.875 C 298.400 156.461,296.907 155.876,296.100 155.974 C 295.825 156.008,295.600 155.847,295.600 155.618 C 295.600 155.388,295.060 155.200,294.400 155.200 C 293.733 155.200,293.200 154.987,293.200 154.720 C 293.200 154.371,293.080 154.360,292.760 154.680 C 292.462 154.978,291.909 155.001,291.060 154.752 C 289.939 154.424,286.678 154.147,281.200 153.914 L 279.400 153.838 279.364 135.419 C 279.345 125.289,279.290 116.730,279.243 116.400 C 279.196 116.070,279.230 115.318,279.320 114.729 C 279.410 114.141,279.342 113.430,279.170 113.151 C 278.997 112.872,279.019 112.337,279.220 111.964 C 279.472 111.491,279.397 111.130,278.973 110.777 C 278.499 110.385,278.475 110.201,278.863 109.961 C 279.259 109.717,279.246 109.433,278.800 108.600 C 278.313 107.690,278.316 107.498,278.818 107.180 C 279.252 106.906,279.267 106.811,278.876 106.806 C 278.588 106.803,278.456 106.632,278.583 106.428 C 278.709 106.223,278.646 105.952,278.442 105.826 C 278.237 105.699,278.102 104.607,278.141 103.398 C 278.180 102.189,278.055 101.200,277.863 101.200 C 277.671 101.200,277.618 100.930,277.745 100.600 C 277.871 100.270,277.771 100.000,277.521 100.000 C 277.271 100.000,277.185 99.882,277.330 99.737 C 277.475 99.592,277.408 99.251,277.182 98.979 C 276.957 98.707,276.813 98.330,276.862 98.142 C 277.089 97.282,275.332 91.038,274.492 89.718 C 274.184 89.232,274.035 88.668,274.161 88.463 C 274.288 88.258,274.146 87.887,273.846 87.638 C 273.545 87.389,273.188 86.488,273.052 85.636 C 272.909 84.738,272.527 83.981,272.145 83.834 C 271.782 83.695,271.600 83.467,271.739 83.327 C 271.879 83.188,271.778 82.814,271.514 82.496 C 271.251 82.179,270.992 81.626,270.939 81.267 C 270.887 80.908,270.654 80.551,270.422 80.474 C 270.190 80.397,270.000 80.073,270.000 79.754 C 270.000 79.436,269.715 79.065,269.366 78.932 C 268.866 78.740,268.843 78.621,269.256 78.365 C 269.664 78.113,269.594 77.840,268.935 77.121 C 268.472 76.614,267.978 75.824,267.839 75.364 C 267.700 74.904,267.140 74.289,266.593 73.996 C 266.047 73.704,265.600 73.305,265.600 73.109 C 265.600 72.913,265.804 72.879,266.054 73.033 C 266.304 73.188,266.090 72.749,265.579 72.057 C 265.068 71.366,264.523 70.800,264.368 70.800 C 264.213 70.800,263.979 70.395,263.848 69.900 C 263.717 69.405,262.708 68.021,261.607 66.824 C 260.506 65.627,259.505 64.331,259.382 63.944 C 259.260 63.557,258.813 63.131,258.390 62.997 C 257.967 62.863,257.248 62.229,256.792 61.589 C 255.657 59.994,253.679 58.054,253.437 58.296 C 253.228 58.505,251.800 57.224,251.800 56.829 C 251.800 56.703,251.659 56.647,251.486 56.705 C 251.313 56.762,250.253 55.932,249.131 54.860 C 245.895 51.767,245.603 51.540,245.575 52.100 C 245.561 52.375,245.382 52.183,245.178 51.674 C 244.974 51.165,244.616 50.867,244.382 51.011 C 244.149 51.155,243.631 50.897,243.232 50.437 C 242.833 49.977,242.232 49.600,241.896 49.600 C 241.560 49.600,241.192 49.357,241.078 49.060 C 240.964 48.763,238.971 47.585,236.648 46.442 C 234.326 45.300,232.317 44.190,232.185 43.976 C 232.053 43.762,231.783 43.687,231.585 43.809 C 231.388 43.931,230.455 43.659,229.513 43.204 C 227.866 42.408,226.145 41.924,224.729 41.859 C 224.361 41.842,224.146 41.687,224.253 41.514 C 224.360 41.341,224.268 41.200,224.050 41.200 C 223.831 41.200,223.145 40.991,222.526 40.735 C 221.907 40.480,221.258 40.302,221.084 40.341 C 220.910 40.379,220.370 40.192,219.884 39.924 C 219.398 39.656,218.820 39.420,218.600 39.399 C 218.380 39.378,217.536 39.216,216.724 39.040 C 215.913 38.864,214.293 38.691,213.124 38.655 C 211.956 38.619,210.782 38.450,210.515 38.280 C 209.611 37.704,196.882 37.143,196.560 37.665 M204.406 62.749 C 204.411 62.285,204.467 62.286,204.761 62.751 C 204.953 63.054,205.298 63.186,205.528 63.045 C 205.757 62.903,206.060 62.973,206.200 63.200 C 206.340 63.427,206.610 63.517,206.800 63.400 C 206.990 63.283,207.248 63.354,207.374 63.557 C 207.500 63.761,208.515 63.871,209.631 63.801 C 210.746 63.732,211.554 63.780,211.426 63.908 C 211.298 64.036,211.864 64.371,212.683 64.653 C 213.843 65.052,214.245 65.058,214.494 64.683 C 214.731 64.327,214.921 64.379,215.218 64.883 C 215.440 65.260,215.886 65.465,216.211 65.341 C 216.535 65.216,216.800 65.280,216.800 65.482 C 216.800 65.684,217.745 66.090,218.900 66.385 C 221.498 67.049,226.000 69.098,226.000 69.616 C 226.000 69.827,226.461 70.000,227.024 70.000 C 227.587 70.000,227.944 70.167,227.818 70.371 C 227.692 70.575,227.951 70.857,228.394 70.998 C 228.837 71.139,229.200 71.432,229.200 71.651 C 229.200 71.869,229.380 71.936,229.600 71.800 C 229.820 71.664,230.006 71.698,230.013 71.876 C 230.043 72.650,232.078 73.720,232.438 73.152 C 232.728 72.695,232.790 72.703,232.799 73.200 C 232.806 73.530,233.663 74.520,234.704 75.400 C 237.759 77.981,240.400 80.824,240.406 81.538 C 240.411 82.062,240.484 82.087,240.756 81.657 C 240.996 81.279,241.183 81.249,241.374 81.557 C 241.524 81.801,241.536 82.180,241.400 82.400 C 241.264 82.620,241.356 82.800,241.605 82.800 C 242.265 82.800,243.289 83.932,243.022 84.365 C 242.896 84.569,243.205 85.065,243.708 85.468 C 245.454 86.863,246.831 89.009,246.312 89.528 C 245.949 89.891,246.007 90.000,246.563 90.000 C 247.052 90.000,247.209 90.201,247.047 90.621 C 246.916 90.962,246.968 91.143,247.162 91.024 C 247.356 90.904,247.629 91.262,247.769 91.819 C 247.909 92.377,248.178 92.737,248.366 92.621 C 248.555 92.504,248.803 92.767,248.917 93.205 C 249.032 93.643,248.962 93.900,248.763 93.777 C 248.563 93.654,248.400 93.743,248.400 93.976 C 248.400 94.209,248.575 94.400,248.790 94.400 C 249.341 94.400,250.485 96.739,250.177 97.237 C 250.037 97.464,250.254 98.018,250.661 98.467 C 251.067 98.916,251.343 99.310,251.274 99.342 C 251.205 99.374,251.239 99.670,251.351 100.000 C 251.462 100.330,251.755 101.632,252.003 102.893 C 252.251 104.154,252.607 105.281,252.793 105.396 C 252.980 105.511,253.119 106.611,253.101 107.839 C 253.083 109.067,253.246 110.191,253.463 110.336 C 253.680 110.481,253.834 111.140,253.804 111.800 C 253.775 112.460,253.903 113.315,254.089 113.700 C 254.311 114.158,254.269 114.400,253.967 114.400 C 253.684 114.400,253.601 114.746,253.752 115.300 C 253.887 115.795,254.002 124.660,254.007 135.000 L 254.017 153.800 200.108 153.897 L 146.200 153.993 146.239 132.117 C 146.261 119.483,146.430 110.190,146.639 110.121 C 146.837 110.055,146.977 109.063,146.948 107.918 C 146.920 106.772,147.053 105.557,147.245 105.217 C 147.437 104.878,147.854 103.520,148.172 102.200 C 148.915 99.114,149.724 96.800,150.060 96.800 C 150.206 96.800,150.231 96.440,150.116 96.000 C 149.999 95.553,150.104 95.200,150.353 95.200 C 150.599 95.200,150.800 94.919,150.800 94.576 C 150.800 94.210,150.989 94.069,151.258 94.236 C 151.575 94.432,151.653 94.188,151.511 93.446 C 151.398 92.855,151.396 92.462,151.506 92.573 C 151.821 92.887,153.278 90.851,153.028 90.446 C 152.905 90.247,153.071 89.982,153.396 89.857 C 153.721 89.732,153.896 89.394,153.785 89.104 C 153.550 88.493,155.350 85.883,155.739 86.272 C 155.882 86.416,156.000 86.233,156.000 85.867 C 156.000 85.500,156.189 85.200,156.421 85.200 C 156.652 85.200,157.030 84.660,157.260 84.000 C 157.490 83.340,157.935 82.800,158.249 82.800 C 158.563 82.800,158.995 82.339,159.209 81.776 C 159.423 81.213,160.724 79.660,162.099 78.324 C 166.612 73.942,168.578 72.322,167.785 73.638 C 167.383 74.305,168.401 73.568,169.911 72.100 C 170.420 71.605,171.055 71.200,171.322 71.200 C 171.589 71.200,172.037 70.833,172.317 70.384 C 172.597 69.936,172.989 69.669,173.187 69.792 C 173.386 69.915,174.323 69.488,175.269 68.843 C 176.215 68.198,177.147 67.767,177.339 67.886 C 177.532 68.005,177.843 67.854,178.030 67.551 C 178.218 67.248,178.557 66.978,178.785 66.950 C 179.013 66.922,179.290 66.855,179.400 66.800 C 179.681 66.659,179.996 66.581,181.696 66.225 C 182.582 66.040,183.087 65.741,182.934 65.493 C 182.770 65.228,182.992 65.157,183.538 65.300 C 184.100 65.447,184.539 65.294,184.794 64.863 C 185.100 64.344,185.259 64.312,185.525 64.714 C 185.877 65.247,187.200 64.975,187.200 64.370 C 187.200 64.180,187.472 64.130,187.805 64.257 C 188.138 64.385,188.633 64.311,188.905 64.093 C 189.177 63.875,190.231 63.701,191.246 63.706 C 192.261 63.710,193.328 63.568,193.617 63.390 C 194.447 62.877,197.200 62.783,197.200 63.268 C 197.200 63.548,197.374 63.566,197.700 63.317 C 198.278 62.877,201.580 62.865,202.258 63.301 C 202.518 63.468,202.823 63.318,202.963 62.953 C 203.163 62.432,203.323 62.404,203.805 62.804 C 204.283 63.200,204.401 63.190,204.406 62.749 M287.400 179.801 C 288.060 179.979,288.870 180.200,289.200 180.291 C 289.530 180.383,290.115 180.456,290.500 180.454 C 290.885 180.452,291.200 180.692,291.200 180.987 C 291.200 181.337,291.515 181.456,292.100 181.328 C 292.750 181.185,292.850 181.237,292.460 181.513 C 292.062 181.796,292.297 181.967,293.360 182.166 C 294.152 182.315,294.800 182.661,294.800 182.935 C 294.800 183.210,295.385 183.607,296.100 183.817 C 296.815 184.028,297.423 184.425,297.450 184.700 C 297.478 184.975,297.522 185.399,297.550 185.643 C 297.578 185.886,297.879 185.978,298.221 185.847 C 298.577 185.711,298.737 185.778,298.597 186.005 C 298.463 186.222,298.547 186.400,298.785 186.400 C 299.422 186.400,302.459 191.269,302.217 191.901 C 302.102 192.198,302.187 192.332,302.405 192.197 C 302.622 192.063,302.800 192.133,302.800 192.353 C 302.800 192.573,302.617 192.866,302.393 193.004 C 302.170 193.142,302.092 193.426,302.221 193.634 C 302.350 193.843,302.651 193.892,302.889 193.745 C 303.154 193.581,303.208 193.663,303.027 193.956 C 302.864 194.219,302.972 194.725,303.266 195.079 C 303.978 195.938,304.070 320.843,303.358 321.081 C 303.115 321.162,303.001 321.672,303.105 322.214 C 303.247 322.956,303.121 323.200,302.598 323.200 C 302.044 323.200,301.998 323.315,302.370 323.764 C 302.691 324.150,302.706 324.411,302.419 324.588 C 302.189 324.731,302.000 325.207,302.000 325.647 C 302.000 326.087,301.843 326.350,301.651 326.232 C 301.459 326.113,300.995 326.823,300.618 327.808 C 300.242 328.794,299.758 329.600,299.543 329.600 C 299.329 329.600,299.264 329.780,299.400 330.000 C 299.615 330.348,299.047 330.578,298.661 330.300 C 298.390 330.104,297.212 331.296,297.391 331.585 C 297.593 331.912,295.795 333.600,295.246 333.600 C 295.055 333.600,294.674 333.870,294.400 334.200 C 294.126 334.530,293.485 334.800,292.975 334.800 C 292.465 334.800,291.936 334.980,291.800 335.200 C 291.664 335.420,291.225 335.600,290.825 335.600 C 290.425 335.600,289.876 335.868,289.604 336.196 C 289.332 336.523,288.950 336.693,288.755 336.572 C 288.560 336.451,288.230 336.458,288.021 336.587 C 287.296 337.035,110.800 336.786,110.800 336.337 C 110.800 336.193,109.809 335.763,108.597 335.382 C 107.385 335.000,106.012 334.357,105.545 333.953 C 105.079 333.548,104.539 333.314,104.346 333.434 C 104.152 333.553,103.874 333.338,103.728 332.956 C 103.398 332.097,102.325 331.002,101.248 330.426 C 100.801 330.187,100.029 329.106,99.533 328.024 C 99.037 326.942,98.509 326.133,98.360 326.225 C 98.211 326.317,97.968 325.580,97.819 324.588 C 97.670 323.596,97.393 322.881,97.202 322.999 C 96.677 323.323,96.406 322.638,96.804 321.994 C 97.020 321.644,96.972 321.207,96.677 320.852 C 96.090 320.144,95.976 197.096,96.561 195.800 C 96.760 195.360,96.884 194.686,96.837 194.303 C 96.780 193.845,96.947 193.681,97.324 193.826 C 97.753 193.991,97.850 193.798,97.710 193.065 C 97.517 192.054,98.478 189.536,99.529 188.300 C 99.856 187.915,99.993 187.600,99.833 187.600 C 99.674 187.600,99.816 187.327,100.150 186.993 C 100.484 186.659,100.902 186.431,101.079 186.486 C 101.559 186.637,103.400 184.651,103.400 183.982 C 103.400 183.638,103.701 183.451,104.137 183.526 C 104.542 183.595,105.121 183.325,105.424 182.926 C 105.727 182.527,105.980 182.375,105.987 182.589 C 105.994 182.803,106.280 182.578,106.623 182.089 C 106.965 181.600,107.460 181.214,107.723 181.232 C 108.068 181.254,108.062 181.319,107.700 181.465 C 107.425 181.576,107.200 181.833,107.200 182.037 C 107.200 182.240,107.548 182.189,107.973 181.924 C 108.399 181.658,108.714 181.252,108.673 181.020 C 108.633 180.789,109.090 180.619,109.688 180.642 C 110.286 180.665,110.677 180.524,110.556 180.329 C 110.435 180.133,110.790 180.055,111.345 180.156 C 111.900 180.256,112.410 180.169,112.479 179.962 C 112.557 179.728,145.388 179.587,199.102 179.589 C 267.694 179.592,285.601 179.490,285.606 179.096 C 285.610 178.753,285.703 178.736,285.906 179.038 C 286.068 179.280,286.740 179.623,287.400 179.801 " stroke="none" fill="#343434" fill-rule="evenodd"></path><path id="path1" d="M197.200 36.666 C 193.129 36.966,184.158 38.100,183.600 38.385 C 183.270 38.553,182.190 38.812,181.200 38.961 C 179.288 39.248,175.033 40.528,172.940 41.447 C 172.246 41.751,171.481 42.000,171.238 42.000 C 170.996 42.000,170.125 42.360,169.304 42.800 C 168.484 43.240,167.584 43.600,167.306 43.600 C 167.028 43.600,166.800 43.810,166.800 44.067 C 166.800 44.323,166.690 44.424,166.556 44.289 C 166.331 44.064,160.852 46.633,160.400 47.176 C 160.290 47.308,159.750 47.640,159.200 47.912 C 152.590 51.192,139.910 62.628,135.600 69.197 C 135.270 69.700,134.595 70.607,134.100 71.213 C 133.605 71.820,133.200 72.500,133.200 72.724 C 133.200 72.949,133.058 73.193,132.885 73.267 C 132.448 73.452,128.800 79.764,128.800 80.335 C 128.800 80.591,128.620 80.800,128.400 80.800 C 128.180 80.800,127.994 81.025,127.987 81.300 C 127.981 81.575,127.532 82.700,126.991 83.800 C 126.450 84.900,126.006 86.100,126.004 86.467 C 126.002 86.833,125.853 87.193,125.672 87.267 C 125.320 87.410,124.208 90.402,123.542 93.000 C 123.316 93.880,122.966 94.960,122.764 95.400 C 122.426 96.137,121.600 100.023,121.600 100.878 C 121.600 101.081,121.792 101.129,122.027 100.984 C 122.261 100.839,122.353 100.619,122.230 100.497 C 122.107 100.374,122.205 100.035,122.446 99.744 C 122.688 99.453,122.977 98.536,123.087 97.707 C 123.198 96.878,123.404 96.110,123.544 96.000 C 123.685 95.890,123.851 95.260,123.913 94.600 C 124.027 93.387,124.460 91.991,125.401 89.800 C 126.591 87.027,126.765 86.539,127.008 85.300 C 127.149 84.585,127.419 84.000,127.609 84.000 C 127.800 84.000,128.443 82.914,129.039 81.586 C 129.635 80.258,130.410 79.001,130.761 78.793 C 131.260 78.497,131.289 78.341,130.891 78.078 C 130.499 77.819,130.569 77.571,131.191 77.009 C 131.636 76.606,132.000 76.060,132.000 75.796 C 132.000 75.533,132.455 74.796,133.011 74.158 C 134.616 72.321,134.800 72.059,134.800 71.617 C 134.800 71.388,134.980 71.200,135.200 71.200 C 135.420 71.200,135.600 70.949,135.600 70.643 C 135.600 70.336,135.870 69.982,136.200 69.855 C 136.530 69.729,136.800 69.349,136.800 69.013 C 136.800 68.676,136.952 68.400,137.137 68.400 C 137.322 68.400,137.813 67.770,138.228 67.000 C 138.643 66.230,139.168 65.600,139.395 65.600 C 139.833 65.600,141.018 63.978,140.899 63.543 C 140.860 63.401,141.362 63.064,142.014 62.794 C 142.666 62.524,143.222 62.145,143.250 61.951 C 143.278 61.758,143.322 61.393,143.350 61.139 C 143.378 60.886,144.300 60.060,145.400 59.303 C 146.500 58.546,147.528 57.586,147.685 57.170 C 147.863 56.696,148.201 56.502,148.589 56.651 C 149.027 56.819,149.140 56.710,148.976 56.281 C 148.826 55.891,149.038 55.578,149.565 55.411 C 150.018 55.267,150.917 54.621,151.564 53.975 C 152.210 53.329,153.022 52.800,153.369 52.800 C 153.716 52.800,154.000 52.573,154.000 52.296 C 154.000 51.657,155.507 50.695,156.016 51.010 C 156.227 51.140,156.400 51.087,156.400 50.891 C 156.400 50.480,160.108 48.000,160.723 48.000 C 160.948 48.000,161.196 47.812,161.273 47.582 C 161.349 47.352,161.814 47.134,162.306 47.097 C 162.798 47.060,163.200 46.890,163.200 46.720 C 163.200 46.450,165.503 45.315,166.307 45.189 C 166.468 45.164,166.870 44.911,167.200 44.628 C 167.903 44.025,170.400 43.131,170.400 43.483 C 170.400 43.615,170.715 43.446,171.100 43.107 C 171.485 42.767,172.430 42.357,173.200 42.195 C 173.970 42.033,175.354 41.548,176.275 41.118 C 177.197 40.687,178.367 40.262,178.875 40.173 C 181.915 39.642,182.642 39.466,183.019 39.168 C 183.250 38.986,184.510 38.749,185.819 38.642 C 187.129 38.536,189.282 38.261,190.604 38.031 C 191.926 37.801,193.766 37.692,194.692 37.789 C 195.617 37.885,196.458 37.830,196.560 37.665 C 196.882 37.143,209.611 37.704,210.515 38.280 C 210.782 38.450,211.956 38.619,213.124 38.655 C 214.293 38.691,215.913 38.864,216.724 39.040 C 217.536 39.216,218.380 39.378,218.600 39.399 C 218.820 39.420,219.398 39.656,219.884 39.924 C 220.370 40.192,220.910 40.379,221.084 40.341 C 221.258 40.302,221.907 40.480,222.526 40.735 C 223.145 40.991,223.831 41.200,224.050 41.200 C 224.268 41.200,224.360 41.341,224.253 41.514 C 224.146 41.687,224.361 41.842,224.729 41.859 C 226.145 41.924,227.866 42.408,229.513 43.204 C 230.455 43.659,231.388 43.931,231.585 43.809 C 231.783 43.687,232.053 43.762,232.185 43.976 C 232.317 44.190,234.326 45.300,236.648 46.442 C 238.971 47.585,240.964 48.763,241.078 49.060 C 241.192 49.357,241.560 49.600,241.896 49.600 C 242.232 49.600,242.833 49.977,243.232 50.437 C 243.631 50.897,244.149 51.155,244.382 51.011 C 244.616 50.867,244.955 51.149,245.136 51.638 C 245.410 52.379,245.507 52.419,245.715 51.879 C 246.004 51.124,244.127 49.613,240.800 47.924 C 240.250 47.645,239.710 47.308,239.600 47.176 C 239.148 46.633,233.669 44.064,233.444 44.289 C 233.310 44.424,233.200 44.323,233.200 44.067 C 233.200 43.810,232.972 43.600,232.694 43.600 C 232.416 43.600,231.516 43.240,230.696 42.800 C 229.875 42.360,229.004 42.000,228.762 42.000 C 228.519 42.000,227.754 41.751,227.060 41.447 C 224.967 40.528,220.712 39.248,218.800 38.961 C 217.810 38.812,216.730 38.554,216.400 38.386 C 215.013 37.684,200.738 36.404,197.200 36.666 M246.000 51.986 C 246.000 52.198,246.387 52.579,246.860 52.832 C 247.332 53.085,248.490 54.085,249.433 55.055 C 250.375 56.025,251.293 56.769,251.473 56.709 C 251.653 56.649,251.839 56.741,251.886 56.914 C 252.030 57.443,253.225 58.508,253.437 58.296 C 253.679 58.054,255.657 59.994,256.792 61.589 C 257.248 62.229,257.967 62.863,258.390 62.997 C 258.813 63.131,259.260 63.557,259.382 63.944 C 259.505 64.331,260.506 65.627,261.607 66.824 C 262.708 68.021,263.717 69.405,263.848 69.900 C 263.979 70.395,264.213 70.800,264.368 70.800 C 264.523 70.800,265.068 71.366,265.579 72.057 C 266.090 72.749,266.304 73.188,266.054 73.033 C 265.804 72.879,265.600 72.913,265.600 73.109 C 265.600 73.305,266.055 73.708,266.611 74.006 C 267.167 74.303,267.724 74.956,267.850 75.457 C 267.976 75.958,268.329 76.575,268.635 76.829 C 268.941 77.083,269.075 77.478,268.934 77.707 C 268.784 77.949,268.870 78.004,269.138 77.838 C 269.392 77.681,269.600 77.743,269.600 77.976 C 269.600 78.209,269.375 78.405,269.100 78.412 C 268.823 78.419,268.912 78.606,269.300 78.832 C 269.685 79.056,270.000 79.486,270.000 79.787 C 270.000 80.087,270.190 80.397,270.422 80.474 C 270.654 80.551,270.887 80.908,270.939 81.267 C 270.992 81.626,271.251 82.179,271.514 82.496 C 271.778 82.814,271.879 83.188,271.739 83.327 C 271.600 83.467,271.782 83.695,272.145 83.834 C 272.527 83.981,272.909 84.738,273.052 85.636 C 273.188 86.488,273.545 87.389,273.846 87.638 C 274.146 87.887,274.288 88.258,274.161 88.463 C 274.035 88.668,274.184 89.232,274.492 89.718 C 275.332 91.038,277.089 97.282,276.862 98.142 C 276.813 98.330,276.957 98.707,277.182 98.979 C 277.408 99.251,277.475 99.592,277.330 99.737 C 277.185 99.882,277.271 100.000,277.521 100.000 C 277.771 100.000,277.871 100.270,277.745 100.600 C 277.618 100.930,277.714 101.200,277.957 101.200 C 278.201 101.200,278.400 101.045,278.400 100.855 C 278.400 100.018,277.569 96.126,277.236 95.400 C 277.034 94.960,276.684 93.880,276.458 93.000 C 275.792 90.402,274.680 87.410,274.328 87.267 C 274.147 87.193,273.998 86.833,273.996 86.467 C 273.994 86.100,273.550 84.900,273.009 83.800 C 272.468 82.700,272.019 81.575,272.013 81.300 C 272.006 81.025,271.820 80.800,271.600 80.800 C 271.380 80.800,271.200 80.591,271.200 80.335 C 271.200 79.764,267.552 73.452,267.115 73.267 C 266.942 73.193,266.800 72.949,266.800 72.724 C 266.800 72.500,266.395 71.820,265.900 71.213 C 265.405 70.607,264.730 69.700,264.400 69.197 C 260.571 63.361,246.000 49.731,246.000 51.986 M202.996 62.807 C 202.615 63.422,202.695 63.455,205.328 63.751 C 206.890 63.927,207.572 63.878,207.400 63.600 C 207.260 63.373,206.990 63.283,206.800 63.400 C 206.610 63.517,206.340 63.427,206.200 63.200 C 206.060 62.973,205.757 62.903,205.528 63.045 C 205.298 63.186,204.953 63.054,204.761 62.751 C 204.467 62.286,204.411 62.285,204.406 62.749 C 204.401 63.176,204.275 63.194,203.836 62.830 C 203.424 62.488,203.197 62.482,202.996 62.807 M193.740 63.300 C 193.637 63.465,193.173 63.600,192.710 63.600 C 192.246 63.600,191.957 63.690,192.067 63.801 C 192.381 64.115,197.200 63.524,197.200 63.172 C 197.200 62.775,193.993 62.894,193.740 63.300 M197.761 63.263 C 197.646 63.448,198.673 63.600,200.043 63.600 C 201.413 63.600,202.400 63.467,202.238 63.304 C 201.823 62.889,198.014 62.854,197.761 63.263 M188.978 64.035 C 188.831 64.274,188.410 64.391,188.043 64.295 C 187.676 64.199,187.122 64.393,186.811 64.726 C 186.312 65.260,186.401 65.300,187.573 65.065 C 188.303 64.919,189.218 64.800,189.607 64.800 C 189.996 64.800,190.418 64.530,190.545 64.200 C 190.816 63.493,189.405 63.344,188.978 64.035 M209.600 64.150 C 209.600 64.491,210.290 64.786,211.465 64.947 C 213.593 65.239,214.372 64.934,212.470 64.554 C 211.779 64.416,211.287 64.183,211.378 64.036 C 211.468 63.890,211.105 63.734,210.571 63.689 C 209.982 63.641,209.600 63.822,209.600 64.150 M184.667 64.969 C 184.527 65.333,184.130 65.455,183.562 65.306 C 182.998 65.158,182.769 65.227,182.934 65.493 C 183.087 65.741,182.582 66.040,181.696 66.225 C 179.996 66.581,179.681 66.659,179.400 66.800 C 179.290 66.855,179.013 66.922,178.785 66.950 C 178.557 66.978,178.218 67.248,178.030 67.551 C 177.843 67.854,177.532 68.005,177.339 67.886 C 177.147 67.767,176.215 68.198,175.269 68.843 C 174.323 69.488,173.386 69.915,173.187 69.792 C 172.989 69.669,172.597 69.936,172.317 70.384 C 172.037 70.833,171.589 71.200,171.322 71.200 C 171.055 71.200,170.376 71.661,169.812 72.224 C 169.249 72.787,168.399 73.323,167.924 73.415 C 167.448 73.506,166.435 74.170,165.672 74.891 C 161.326 78.994,159.199 81.299,159.194 81.910 C 159.189 82.508,159.130 82.520,158.756 82.000 C 158.392 81.494,158.360 81.509,158.550 82.100 C 158.690 82.536,158.568 82.800,158.227 82.800 C 157.925 82.800,157.490 83.340,157.260 84.000 C 157.030 84.660,156.652 85.200,156.421 85.200 C 156.189 85.200,156.000 85.500,156.000 85.867 C 156.000 86.233,155.882 86.416,155.739 86.272 C 155.350 85.883,153.550 88.493,153.785 89.104 C 153.896 89.394,153.731 89.728,153.419 89.848 C 153.093 89.973,152.954 90.337,153.093 90.699 C 153.256 91.123,153.179 91.234,152.858 91.036 C 152.595 90.873,152.413 90.889,152.454 91.070 C 152.577 91.626,151.935 92.807,151.616 92.610 C 151.451 92.508,151.406 92.896,151.516 93.472 C 151.654 94.193,151.574 94.431,151.258 94.236 C 150.989 94.069,150.800 94.210,150.800 94.576 C 150.800 94.919,150.599 95.200,150.353 95.200 C 150.104 95.200,149.999 95.553,150.116 96.000 C 150.231 96.440,150.206 96.800,150.060 96.800 C 149.724 96.800,148.915 99.114,148.172 102.200 C 147.854 103.520,147.437 104.878,147.245 105.217 C 147.053 105.557,146.920 106.772,146.948 107.918 C 146.977 109.063,146.837 110.055,146.639 110.121 C 146.430 110.190,146.261 119.483,146.239 132.117 L 146.200 153.993 200.108 153.897 L 254.017 153.800 254.007 135.000 C 254.002 124.660,253.887 115.795,253.752 115.300 C 253.601 114.746,253.684 114.400,253.967 114.400 C 254.269 114.400,254.311 114.158,254.089 113.700 C 253.903 113.315,253.775 112.460,253.804 111.800 C 253.834 111.140,253.680 110.481,253.463 110.336 C 253.246 110.191,253.083 109.067,253.101 107.839 C 253.119 106.611,252.980 105.511,252.793 105.396 C 252.607 105.281,252.251 104.154,252.003 102.893 C 251.755 101.632,251.478 100.373,251.387 100.096 C 251.296 99.818,251.262 99.522,251.311 99.438 C 251.360 99.353,251.067 98.916,250.661 98.467 C 250.254 98.018,250.037 97.464,250.177 97.237 C 250.485 96.739,249.341 94.400,248.790 94.400 C 248.575 94.400,248.400 94.209,248.400 93.976 C 248.400 93.743,248.563 93.654,248.763 93.777 C 248.962 93.900,249.032 93.643,248.917 93.205 C 248.803 92.767,248.564 92.499,248.387 92.608 C 248.210 92.718,247.856 92.176,247.601 91.404 C 247.346 90.632,246.878 90.000,246.559 90.000 C 246.115 90.000,246.215 90.440,246.990 91.897 C 247.546 92.940,248.000 94.020,248.000 94.297 C 248.000 94.574,248.137 94.800,248.305 94.800 C 248.473 94.800,249.125 96.375,249.755 98.300 C 250.385 100.225,251.066 102.126,251.269 102.524 C 251.471 102.923,251.827 104.723,252.060 106.524 C 252.292 108.326,252.644 110.113,252.841 110.495 C 253.040 110.879,253.200 120.575,253.200 132.195 L 253.200 153.200 200.000 153.200 L 146.800 153.200 146.800 132.024 C 146.800 120.377,146.953 110.752,147.141 110.636 C 147.328 110.521,147.594 109.222,147.732 107.750 C 147.869 106.279,148.232 104.338,148.539 103.437 C 148.846 102.537,149.613 100.225,150.243 98.300 C 150.874 96.375,151.527 94.800,151.695 94.800 C 151.863 94.800,152.000 94.574,152.000 94.297 C 152.000 93.446,155.240 87.745,157.284 85.000 C 160.843 80.220,169.904 72.000,171.613 72.000 C 171.826 72.000,172.000 71.852,172.000 71.671 C 172.000 71.235,179.250 67.600,180.120 67.600 C 180.494 67.600,180.800 67.439,180.800 67.243 C 180.800 67.047,181.834 66.634,183.098 66.325 C 184.656 65.945,185.438 65.545,185.527 65.082 C 185.686 64.259,184.976 64.166,184.667 64.969 M214.473 65.082 C 214.562 65.545,215.344 65.945,216.902 66.325 C 218.166 66.634,219.200 67.047,219.200 67.243 C 219.200 67.439,219.506 67.600,219.880 67.600 C 220.750 67.600,228.000 71.235,228.000 71.671 C 228.000 71.852,228.174 72.000,228.387 72.000 C 229.760 72.000,237.052 78.266,240.723 82.600 C 242.860 85.123,242.768 84.999,244.381 87.500 C 245.727 89.587,246.025 89.842,246.531 89.335 C 246.845 89.021,245.012 86.510,243.708 85.468 C 243.205 85.065,242.896 84.569,243.022 84.365 C 243.289 83.932,242.265 82.800,241.605 82.800 C 241.356 82.800,241.264 82.620,241.400 82.400 C 241.536 82.180,241.524 81.801,241.374 81.557 C 241.183 81.249,240.996 81.279,240.756 81.657 C 240.484 82.087,240.411 82.062,240.406 81.538 C 240.400 80.824,237.759 77.981,234.704 75.400 C 233.663 74.520,232.806 73.530,232.799 73.200 C 232.790 72.703,232.728 72.695,232.438 73.152 C 232.078 73.720,230.043 72.650,230.013 71.876 C 230.006 71.698,229.820 71.664,229.600 71.800 C 229.380 71.936,229.200 71.869,229.200 71.651 C 229.200 71.432,228.837 71.139,228.394 70.998 C 227.951 70.857,227.692 70.575,227.818 70.371 C 227.944 70.167,227.587 70.000,227.024 70.000 C 226.461 70.000,226.000 69.827,226.000 69.616 C 226.000 69.098,221.498 67.049,218.900 66.385 C 217.745 66.090,216.800 65.684,216.800 65.482 C 216.800 65.280,216.523 65.221,216.185 65.350 C 215.835 65.485,215.472 65.331,215.342 64.993 C 215.027 64.172,214.312 64.245,214.473 65.082 M121.190 102.500 C 120.301 104.539,119.862 113.633,119.728 132.840 L 119.586 153.079 114.174 153.351 C 111.198 153.500,108.006 153.871,107.081 154.175 C 106.157 154.480,104.635 154.850,103.700 154.999 C 102.765 155.148,102.000 155.414,102.000 155.591 C 102.000 155.767,101.367 156.030,100.593 156.175 C 97.667 156.724,87.282 162.865,87.500 163.917 C 87.555 164.183,87.298 164.400,86.929 164.400 C 86.157 164.400,79.354 171.285,78.989 172.436 C 78.855 172.856,78.578 173.200,78.373 173.200 C 78.168 173.200,78.000 173.411,78.000 173.669 C 78.000 173.926,77.746 174.421,77.435 174.769 C 76.025 176.344,72.790 183.360,71.795 187.000 C 71.434 188.320,70.940 190.120,70.697 191.000 C 69.469 195.457,69.921 325.716,71.171 327.400 C 71.334 327.620,71.690 328.832,71.961 330.093 C 72.232 331.354,72.622 332.490,72.827 332.617 C 73.032 332.744,73.200 333.152,73.201 333.524 C 73.203 335.142,78.246 343.655,80.924 346.561 C 83.899 349.790,84.864 350.746,86.412 352.000 C 87.363 352.770,88.451 353.697,88.830 354.059 C 89.208 354.422,90.392 355.223,91.459 355.840 C 92.527 356.457,93.490 357.060,93.600 357.181 C 94.195 357.833,100.613 360.627,102.387 361.006 C 103.150 361.168,104.086 361.497,104.469 361.736 C 104.851 361.974,105.302 362.032,105.470 361.863 C 105.832 361.502,104.785 360.762,104.319 361.050 C 104.144 361.158,104.000 361.071,104.000 360.856 C 104.000 360.641,102.798 360.191,101.329 359.856 C 99.809 359.509,98.503 358.971,98.299 358.606 C 98.072 358.200,97.658 358.054,97.170 358.209 C 96.738 358.347,96.400 358.266,96.400 358.027 C 96.400 357.792,96.049 357.600,95.620 357.600 C 95.191 357.600,94.696 357.358,94.520 357.063 C 94.344 356.768,93.443 356.197,92.519 355.794 C 91.594 355.392,90.930 354.914,91.042 354.731 C 91.155 354.549,90.986 354.400,90.666 354.400 C 90.347 354.400,89.982 354.130,89.855 353.800 C 89.729 353.470,89.442 353.200,89.217 353.200 C 88.421 353.200,83.200 348.375,83.200 347.640 C 83.200 347.398,83.007 347.200,82.771 347.200 C 82.218 347.200,81.200 346.182,81.200 345.629 C 81.200 345.393,80.990 345.200,80.733 345.200 C 80.477 345.200,80.377 345.090,80.511 344.956 C 80.646 344.821,80.226 344.265,79.578 343.720 C 78.930 343.175,78.400 342.413,78.400 342.026 C 78.400 341.640,78.044 341.002,77.609 340.609 C 77.175 340.215,76.895 339.769,76.989 339.618 C 77.082 339.467,76.801 339.036,76.362 338.661 C 75.924 338.286,75.662 337.824,75.779 337.635 C 75.896 337.445,75.734 337.077,75.419 336.816 C 75.105 336.555,74.931 336.123,75.034 335.857 C 75.136 335.590,74.884 335.012,74.474 334.571 C 74.064 334.131,73.773 333.463,73.828 333.087 C 73.884 332.711,73.566 331.651,73.122 330.732 C 72.678 329.813,72.271 328.670,72.219 328.192 C 72.166 327.715,71.988 327.104,71.822 326.835 C 71.656 326.567,71.452 325.414,71.369 324.274 C 71.286 323.133,71.094 321.570,70.944 320.800 C 70.572 318.898,70.328 198.437,70.695 197.859 C 70.855 197.607,71.025 196.950,71.072 196.400 C 71.119 195.850,71.275 194.410,71.418 193.200 C 71.560 191.990,71.715 190.544,71.761 189.987 C 71.807 189.430,71.980 188.755,72.146 188.487 C 72.312 188.219,72.325 188.000,72.175 188.000 C 72.025 188.000,72.093 187.769,72.327 187.488 C 72.561 187.206,72.848 186.451,72.964 185.810 C 73.080 185.170,73.451 184.492,73.787 184.303 C 74.124 184.114,74.400 183.555,74.400 183.060 C 74.400 182.565,74.625 181.918,74.900 181.621 C 75.300 181.190,75.300 181.139,74.900 181.365 C 74.300 181.704,74.220 180.959,74.817 180.590 C 75.046 180.448,75.515 179.628,75.859 178.769 C 76.203 177.909,76.608 177.282,76.759 177.375 C 76.910 177.468,77.061 177.182,77.095 176.739 C 77.128 176.296,77.615 175.507,78.178 174.986 C 78.740 174.465,79.200 173.833,79.200 173.583 C 79.200 173.333,79.604 172.801,80.097 172.402 C 80.591 172.002,80.996 171.433,80.997 171.138 C 80.999 170.842,81.109 170.600,81.242 170.600 C 81.375 170.600,81.941 170.060,82.500 169.400 C 84.692 166.813,86.699 164.967,88.099 164.247 C 88.905 163.832,89.527 163.292,89.482 163.047 C 89.437 162.801,89.758 162.600,90.195 162.599 C 90.632 162.599,91.047 162.299,91.117 161.934 C 91.188 161.568,91.955 160.985,92.823 160.638 C 93.690 160.290,94.400 159.806,94.400 159.560 C 94.400 159.315,94.670 159.218,95.000 159.345 C 95.330 159.471,95.600 159.401,95.600 159.187 C 95.600 158.974,95.870 158.800,96.200 158.800 C 96.530 158.800,96.800 158.609,96.800 158.376 C 96.800 158.143,96.975 158.061,97.189 158.193 C 97.402 158.325,98.068 158.112,98.667 157.719 C 99.266 157.327,100.058 157.057,100.426 157.119 C 100.795 157.182,101.933 156.788,102.955 156.244 C 104.055 155.659,105.220 155.329,105.807 155.436 C 106.521 155.565,106.800 155.438,106.800 154.984 C 106.800 154.580,106.980 154.465,107.300 154.664 C 107.797 154.973,109.518 154.892,110.108 154.531 C 110.278 154.427,111.898 154.272,113.708 154.185 C 115.519 154.098,117.720 153.976,118.600 153.914 L 120.200 153.800 120.304 135.500 C 120.375 123.064,120.543 117.200,120.828 117.200 C 121.064 117.200,121.110 116.982,120.934 116.700 C 120.515 116.033,120.427 113.231,120.816 112.990 C 120.986 112.885,121.031 112.438,120.915 111.997 C 120.800 111.557,120.952 110.892,121.253 110.521 C 121.627 110.060,121.642 109.942,121.300 110.147 C 120.668 110.526,120.634 109.458,121.241 108.323 C 121.580 107.690,121.557 107.419,121.141 107.155 C 120.817 106.950,120.782 106.810,121.053 106.806 C 121.303 106.803,121.601 106.440,121.716 106.000 C 121.831 105.560,121.740 105.200,121.514 105.200 C 121.240 105.200,121.235 105.033,121.498 104.700 C 121.891 104.205,122.115 101.600,121.765 101.600 C 121.665 101.600,121.406 102.005,121.190 102.500 M278.105 103.527 C 278.119 104.686,278.284 105.728,278.471 105.844 C 278.659 105.960,278.709 106.223,278.583 106.428 C 278.456 106.632,278.588 106.803,278.876 106.806 C 279.267 106.811,279.252 106.906,278.818 107.180 C 278.310 107.502,278.310 107.685,278.818 108.639 C 279.273 109.492,279.290 109.768,278.898 109.900 C 278.621 109.992,278.528 110.278,278.691 110.534 C 279.005 111.030,279.224 112.693,279.213 114.500 C 279.209 115.105,279.234 115.915,279.267 116.300 C 279.301 116.685,279.345 125.289,279.364 135.419 L 279.400 153.838 281.200 153.914 C 286.678 154.147,289.939 154.424,291.060 154.752 C 291.909 155.001,292.462 154.978,292.760 154.680 C 293.080 154.360,293.200 154.371,293.200 154.720 C 293.200 154.987,293.733 155.200,294.400 155.200 C 295.060 155.200,295.600 155.388,295.600 155.618 C 295.600 155.847,295.825 156.008,296.100 155.974 C 296.907 155.876,298.400 156.461,298.400 156.875 C 298.400 157.085,298.805 157.226,299.300 157.188 C 300.404 157.104,302.000 157.583,302.000 157.999 C 302.000 158.167,302.810 158.509,303.800 158.758 C 304.790 159.008,305.600 159.380,305.600 159.587 C 305.600 159.794,306.275 160.276,307.100 160.660 C 307.925 161.043,308.744 161.592,308.920 161.878 C 309.096 162.165,309.405 162.400,309.606 162.400 C 309.808 162.400,310.525 162.940,311.200 163.600 C 311.875 164.260,312.619 164.800,312.853 164.800 C 313.318 164.800,315.685 167.184,315.260 167.225 C 315.117 167.239,315.417 167.418,315.926 167.622 C 316.435 167.826,316.751 168.156,316.628 168.355 C 316.505 168.554,316.674 168.819,317.002 168.946 C 317.331 169.072,317.600 169.373,317.600 169.616 C 317.600 170.145,318.629 171.238,318.885 170.982 C 318.984 170.882,319.306 171.251,319.600 171.801 C 319.894 172.350,320.265 172.800,320.424 172.800 C 320.583 172.800,320.826 173.249,320.964 173.798 C 321.101 174.346,321.428 174.751,321.689 174.698 C 321.950 174.644,322.185 174.780,322.210 175.000 C 322.295 175.722,323.322 177.600,323.632 177.600 C 323.800 177.600,324.052 178.128,324.194 178.772 C 324.336 179.417,324.710 180.159,325.026 180.421 C 325.347 180.688,325.600 181.592,325.600 182.473 C 325.600 183.339,325.754 183.952,325.942 183.836 C 326.445 183.525,327.264 185.570,326.985 186.446 C 326.853 186.863,326.937 187.200,327.173 187.200 C 327.408 187.200,327.600 187.470,327.600 187.800 C 327.600 188.130,327.780 188.400,328.000 188.400 C 329.274 188.400,324.863 177.337,322.565 174.769 C 322.254 174.421,322.000 173.926,322.000 173.669 C 322.000 173.411,321.832 173.200,321.627 173.200 C 321.422 173.200,321.137 172.830,320.993 172.378 C 319.764 168.506,304.656 157.160,299.421 156.178 C 298.640 156.031,298.000 155.767,298.000 155.591 C 298.000 155.414,297.235 155.148,296.300 154.999 C 295.365 154.850,293.843 154.480,292.919 154.175 C 291.994 153.871,288.804 153.500,285.829 153.351 L 280.421 153.079 280.310 132.473 C 280.232 117.879,280.071 111.823,279.758 111.719 C 279.515 111.638,279.401 111.127,279.505 110.584 C 279.816 108.957,279.173 102.916,278.607 102.142 C 278.148 101.514,278.084 101.692,278.105 103.527 M285.606 179.096 C 285.601 179.490,267.699 179.592,199.128 179.589 C 150.052 179.587,112.557 179.737,112.428 179.936 C 112.303 180.129,111.850 180.233,111.423 180.167 C 110.995 180.102,110.455 180.168,110.223 180.313 C 109.990 180.459,109.530 180.584,109.200 180.589 C 108.870 180.595,108.650 180.839,108.710 181.130 C 108.784 181.488,108.567 181.580,108.044 181.414 C 107.508 181.244,107.072 181.448,106.634 182.073 C 106.285 182.571,105.994 182.803,105.987 182.589 C 105.980 182.375,105.727 182.527,105.424 182.926 C 105.121 183.325,104.542 183.595,104.137 183.526 C 103.693 183.450,103.400 183.638,103.400 184.000 C 103.400 184.330,103.177 184.743,102.905 184.917 C 102.633 185.092,102.214 185.599,101.976 186.046 C 101.715 186.532,102.441 186.124,103.786 185.028 C 105.021 184.023,106.192 183.200,106.389 183.200 C 106.585 183.200,106.860 182.840,107.000 182.400 C 107.140 181.960,107.432 181.600,107.651 181.600 C 107.869 181.600,107.946 181.763,107.823 181.963 C 107.700 182.162,107.959 182.231,108.399 182.116 C 108.840 182.001,109.200 181.766,109.200 181.594 C 109.200 180.494,116.374 180.400,200.000 180.400 C 283.678 180.400,290.800 180.494,290.800 181.598 C 290.800 181.771,291.272 182.032,291.848 182.176 C 292.425 182.321,293.144 182.656,293.446 182.920 C 293.748 183.184,295.071 184.210,296.385 185.200 C 297.700 186.190,298.781 187.132,298.788 187.292 C 298.795 187.453,299.399 188.533,300.132 189.692 C 300.865 190.852,301.583 192.126,301.729 192.525 C 301.993 193.247,302.800 193.117,302.800 192.353 C 302.800 192.133,302.622 192.063,302.405 192.197 C 302.187 192.332,302.102 192.198,302.217 191.901 C 302.459 191.269,299.422 186.400,298.785 186.400 C 298.547 186.400,298.463 186.222,298.597 186.005 C 298.737 185.778,298.577 185.711,298.221 185.847 C 297.879 185.978,297.578 185.886,297.550 185.643 C 297.522 185.399,297.478 184.975,297.450 184.700 C 297.423 184.425,296.815 184.028,296.100 183.817 C 295.385 183.607,294.800 183.210,294.800 182.935 C 294.800 182.661,294.152 182.315,293.360 182.166 C 292.297 181.967,292.062 181.796,292.460 181.513 C 292.850 181.237,292.750 181.185,292.100 181.328 C 291.515 181.456,291.200 181.337,291.200 180.987 C 291.200 180.692,290.885 180.452,290.500 180.454 C 290.115 180.456,289.530 180.383,289.200 180.291 C 288.870 180.200,288.060 179.979,287.400 179.801 C 286.740 179.623,286.068 179.280,285.906 179.038 C 285.703 178.736,285.610 178.753,285.606 179.096 M100.084 187.015 C 99.801 187.337,99.693 187.600,99.846 187.600 C 99.999 187.600,99.856 187.915,99.529 188.300 C 98.628 189.361,97.599 191.804,97.609 192.860 C 97.616 193.540,98.002 193.088,99.007 191.222 C 99.772 189.804,100.577 188.463,100.798 188.242 C 101.265 187.775,101.342 186.393,100.900 186.415 C 100.735 186.424,100.368 186.694,100.084 187.015 M328.159 189.900 C 328.282 190.505,328.495 191.900,328.633 193.000 C 328.771 194.100,328.984 195.540,329.106 196.200 C 329.449 198.048,329.433 316.996,329.090 320.400 C 328.924 322.050,328.639 324.255,328.457 325.300 C 328.276 326.345,328.216 327.200,328.325 327.200 C 328.435 327.200,328.198 327.560,327.800 328.000 C 327.389 328.454,327.276 328.800,327.538 328.800 C 327.792 328.800,328.000 328.980,328.000 329.200 C 328.000 329.420,327.719 329.600,327.376 329.600 C 327.033 329.600,326.844 329.748,326.956 329.929 C 327.068 330.109,326.877 330.784,326.531 331.429 C 325.979 332.460,325.423 334.167,325.049 335.978 C 324.984 336.296,324.731 336.623,324.488 336.704 C 324.244 336.785,324.135 337.087,324.245 337.374 C 324.356 337.662,324.166 338.177,323.823 338.520 C 323.480 338.863,323.200 339.382,323.200 339.675 C 323.200 339.968,322.840 340.432,322.400 340.707 C 321.960 340.982,321.600 341.483,321.600 341.820 C 321.600 342.157,321.221 342.831,320.757 343.317 C 320.293 343.803,319.481 344.875,318.952 345.700 C 318.423 346.525,317.722 347.200,317.395 347.200 C 317.068 347.200,316.800 347.470,316.800 347.800 C 316.800 348.130,316.530 348.400,316.200 348.400 C 315.870 348.400,315.600 348.630,315.600 348.911 C 315.600 349.643,313.201 351.648,312.698 351.337 C 312.466 351.194,312.366 351.239,312.475 351.438 C 312.584 351.637,312.342 352.115,311.937 352.500 C 311.531 352.885,311.200 353.124,311.200 353.031 C 311.200 352.938,310.697 353.343,310.083 353.931 C 309.469 354.519,308.365 355.321,307.629 355.712 C 306.893 356.104,306.398 356.531,306.528 356.661 C 306.795 356.928,310.120 355.065,311.170 354.059 C 311.549 353.697,312.634 352.770,313.580 352.000 C 318.866 347.700,326.795 336.651,326.799 333.580 C 326.800 333.239,326.966 332.789,327.168 332.580 C 327.524 332.212,328.416 329.291,329.299 325.600 C 330.432 320.866,330.097 192.403,328.944 189.400 C 328.545 188.358,327.927 188.751,328.159 189.900 M96.829 194.256 C 96.881 194.665,96.760 195.360,96.561 195.800 C 95.976 197.096,96.090 320.144,96.677 320.852 C 96.972 321.207,97.020 321.644,96.804 321.994 C 96.406 322.638,96.677 323.323,97.202 322.999 C 97.393 322.881,97.670 323.596,97.819 324.588 C 97.968 325.580,98.211 326.317,98.360 326.225 C 98.509 326.133,99.037 326.942,99.533 328.024 C 100.029 329.106,100.801 330.187,101.248 330.426 C 102.325 331.002,103.398 332.097,103.728 332.956 C 103.874 333.338,104.152 333.553,104.346 333.434 C 104.539 333.314,105.079 333.548,105.545 333.953 C 106.012 334.357,107.385 335.000,108.597 335.382 C 109.809 335.763,110.800 336.193,110.800 336.337 C 110.800 336.786,287.296 337.035,288.021 336.587 C 288.230 336.458,288.560 336.451,288.755 336.572 C 288.950 336.693,289.332 336.523,289.604 336.196 C 289.876 335.868,290.425 335.600,290.825 335.600 C 291.225 335.600,291.664 335.420,291.800 335.200 C 291.936 334.980,292.465 334.800,292.975 334.800 C 293.485 334.800,294.126 334.530,294.400 334.200 C 294.674 333.870,295.055 333.600,295.246 333.600 C 295.812 333.600,297.590 331.907,297.380 331.567 C 297.274 331.396,297.415 331.111,297.693 330.934 C 298.197 330.614,298.414 330.546,299.224 330.450 C 299.457 330.423,299.536 330.220,299.400 330.000 C 299.264 329.780,299.329 329.600,299.543 329.600 C 299.758 329.600,300.242 328.794,300.618 327.808 C 300.995 326.823,301.459 326.113,301.651 326.232 C 301.843 326.350,302.000 326.087,302.000 325.647 C 302.000 325.207,302.183 324.734,302.407 324.596 C 302.824 324.338,302.575 323.600,302.071 323.600 C 301.916 323.600,301.467 324.343,301.073 325.252 C 300.259 327.130,297.972 330.257,296.735 331.180 C 296.279 331.521,295.598 332.084,295.222 332.431 C 294.846 332.777,294.238 333.177,293.869 333.318 C 293.501 333.459,293.200 333.755,293.200 333.975 C 293.200 334.195,292.930 334.271,292.600 334.145 C 292.270 334.018,292.000 334.099,292.000 334.325 C 292.000 334.551,291.415 334.863,290.700 335.018 C 289.985 335.174,289.272 335.503,289.115 335.750 C 288.905 336.081,265.334 336.200,200.000 336.200 C 134.666 336.200,111.095 336.081,110.885 335.750 C 110.728 335.503,110.015 335.174,109.300 335.018 C 108.585 334.863,108.000 334.551,108.000 334.325 C 108.000 334.099,107.730 334.018,107.400 334.145 C 107.070 334.271,106.800 334.195,106.800 333.975 C 106.800 333.755,106.499 333.459,106.131 333.318 C 105.762 333.177,105.154 332.777,104.778 332.431 C 104.402 332.084,103.721 331.521,103.265 331.180 C 101.110 329.571,98.173 324.576,97.713 321.739 C 97.591 320.992,97.336 320.284,97.146 320.167 C 96.642 319.855,96.696 196.911,97.200 196.600 C 97.736 196.268,97.712 194.116,97.167 193.780 C 96.908 193.619,96.772 193.810,96.829 194.256 M302.332 195.070 C 302.418 195.806,302.649 196.506,302.844 196.627 C 303.308 196.914,303.317 319.712,302.853 320.220 C 302.123 321.020,301.979 323.200,302.657 323.200 C 303.118 323.200,303.241 322.928,303.105 322.214 C 303.001 321.672,303.115 321.162,303.358 321.081 C 304.070 320.843,303.978 195.938,303.266 195.079 C 302.972 194.725,302.829 194.277,302.948 194.084 C 303.067 193.891,302.942 193.733,302.671 193.733 C 302.346 193.733,302.230 194.191,302.332 195.070 M305.474 356.837 C 305.341 357.347,305.111 357.644,304.963 357.497 C 304.816 357.349,304.319 357.492,303.858 357.814 C 303.398 358.136,302.702 358.400,302.311 358.400 C 301.920 358.400,301.600 358.591,301.600 358.824 C 301.600 359.057,301.435 359.145,301.234 359.021 C 301.033 358.897,300.808 358.970,300.734 359.185 C 300.660 359.399,300.015 359.619,299.300 359.672 C 298.585 359.726,298.000 359.912,298.000 360.085 C 298.000 360.258,297.676 360.400,297.280 360.400 C 296.386 360.400,294.407 361.294,294.403 361.700 C 294.399 362.120,295.506 362.076,295.772 361.645 C 295.893 361.450,296.668 361.164,297.496 361.009 C 299.113 360.706,302.481 359.305,306.337 357.330 C 306.412 357.292,306.303 356.956,306.095 356.584 C 305.762 355.989,305.688 356.019,305.474 356.837 M106.098 361.693 C 106.927 364.181,292.317 364.399,293.853 361.913 C 294.223 361.316,293.664 361.049,293.073 361.540 C 292.772 361.789,292.420 361.887,292.290 361.756 C 292.160 361.626,291.825 361.661,291.546 361.833 C 290.463 362.502,283.165 362.560,200.000 362.559 C 117.228 362.558,109.530 362.498,108.481 361.850 C 108.216 361.686,107.832 361.656,107.628 361.783 C 107.423 361.909,107.142 361.830,107.004 361.607 C 106.647 361.030,105.900 361.101,106.098 361.693 " stroke="none" fill="#2c2c2c" fill-rule="evenodd"></path><path id="path2" d="" stroke="none" fill="#343830" fill-rule="evenodd"></path><path id="path3" d="" stroke="none" fill="#343830" fill-rule="evenodd"></path><path id="path4" d="" stroke="none" fill="#343830" fill-rule="evenodd"></path></g></svg>