<svg id="svg" version="1.1" xmlns="http://www.w3.org/2000/svg" xmlns:xlink="http://www.w3.org/1999/xlink" width="400" height="400" viewBox="0, 0, 400,400"><g id="svgg"><path id="path0" d="M190.000 53.944 C 189.450 54.109,188.010 54.213,186.800 54.175 C 185.590 54.137,184.420 54.241,184.200 54.406 C 183.980 54.571,182.045 54.834,179.900 54.990 C 177.755 55.147,176.000 55.404,176.000 55.561 C 176.000 55.719,174.110 56.088,171.800 56.381 C 169.490 56.675,167.600 57.048,167.600 57.211 C 167.600 57.374,166.610 57.632,165.400 57.783 C 164.190 57.934,163.200 58.190,163.200 58.351 C 163.200 58.512,161.854 58.870,160.208 59.147 C 158.563 59.423,157.122 59.803,157.006 59.990 C 156.891 60.177,156.077 60.452,155.198 60.600 C 154.319 60.749,153.600 61.045,153.600 61.259 C 153.600 61.472,153.412 61.531,153.182 61.389 C 152.953 61.247,152.548 61.311,152.282 61.530 C 152.017 61.749,151.125 62.055,150.300 62.209 C 149.475 62.363,148.800 62.641,148.800 62.826 C 148.800 63.012,148.170 63.282,147.400 63.426 C 146.630 63.571,146.000 63.868,146.000 64.087 C 146.000 64.306,145.730 64.382,145.400 64.255 C 145.070 64.129,144.800 64.179,144.800 64.368 C 144.800 64.557,144.170 64.829,143.400 64.974 C 142.630 65.118,142.000 65.390,142.000 65.578 C 142.000 65.766,141.100 66.136,140.000 66.400 C 138.900 66.664,138.000 67.042,138.000 67.240 C 138.000 67.438,137.743 67.600,137.429 67.600 C 137.114 67.600,136.614 67.843,136.318 68.140 C 136.021 68.436,135.063 68.913,134.189 69.198 C 133.315 69.483,132.510 69.833,132.400 69.975 C 132.290 70.118,131.165 70.751,129.900 71.383 C 128.635 72.014,127.600 72.667,127.600 72.834 C 127.600 73.000,127.048 73.258,126.373 73.406 C 125.698 73.554,125.053 73.917,124.940 74.213 C 124.826 74.509,124.208 74.866,123.567 75.007 C 122.925 75.148,122.400 75.434,122.400 75.642 C 122.400 75.850,121.950 76.191,121.400 76.400 C 120.850 76.609,120.400 76.965,120.400 77.190 C 120.400 77.416,120.228 77.600,120.018 77.600 C 119.808 77.600,118.953 78.053,118.118 78.607 C 117.283 79.161,116.260 79.836,115.844 80.107 C 115.429 80.378,114.593 81.005,113.987 81.500 C 113.380 81.995,112.778 82.400,112.647 82.400 C 112.344 82.400,111.039 83.442,109.267 85.100 C 108.503 85.815,107.709 86.400,107.504 86.400 C 107.299 86.400,106.562 86.938,105.866 87.595 C 105.170 88.252,103.176 90.097,101.435 91.695 C 96.144 96.551,89.561 103.322,89.128 104.353 C 88.979 104.709,88.844 98.760,88.828 91.132 C 88.799 76.614,88.590 74.480,86.880 71.179 C 85.967 69.417,83.228 66.590,82.082 66.226 C 81.597 66.072,81.200 65.794,81.200 65.608 C 81.200 65.422,80.435 65.144,79.500 64.989 C 78.565 64.834,77.620 64.597,77.400 64.462 C 76.783 64.082,73.200 64.084,73.200 64.464 C 73.200 64.649,72.705 64.803,72.100 64.806 C 71.495 64.809,70.550 65.074,70.000 65.393 C 69.450 65.713,68.505 66.178,67.900 66.427 C 67.295 66.675,66.800 67.026,66.800 67.207 C 66.800 67.387,66.171 68.128,65.403 68.853 C 64.634 69.578,63.798 70.807,63.545 71.585 C 63.291 72.363,62.885 73.128,62.642 73.285 C 61.794 73.833,62.042 139.528,62.898 141.000 C 63.281 141.660,63.596 142.381,63.598 142.603 C 63.601 143.220,66.933 146.805,67.500 146.802 C 67.775 146.801,68.000 146.958,68.000 147.151 C 68.000 147.344,68.945 147.929,70.100 148.451 L 72.200 149.400 104.800 149.400 C 140.756 149.400,138.008 149.577,141.803 147.013 C 144.478 145.206,146.800 141.745,146.800 139.564 C 146.800 138.950,146.980 138.336,147.200 138.200 C 147.420 138.064,147.600 137.153,147.600 136.176 C 147.600 135.199,147.420 134.400,147.200 134.400 C 146.980 134.400,146.800 133.887,146.800 133.260 C 146.800 130.541,143.363 126.198,139.788 124.400 L 137.800 123.400 122.900 123.278 C 114.705 123.210,108.000 123.094,108.000 123.019 C 108.000 122.157,123.509 106.800,124.380 106.800 C 124.534 106.800,125.083 106.350,125.600 105.800 C 126.117 105.250,126.688 104.800,126.870 104.800 C 127.051 104.800,127.530 104.485,127.934 104.100 C 128.338 103.715,129.075 103.130,129.571 102.800 C 130.068 102.470,130.845 101.885,131.299 101.500 C 131.752 101.115,132.262 100.800,132.433 100.800 C 132.603 100.800,132.981 100.575,133.271 100.299 C 134.130 99.486,137.149 97.600,137.591 97.600 C 137.816 97.600,138.000 97.454,138.000 97.275 C 138.000 97.096,138.630 96.702,139.400 96.400 C 140.170 96.098,140.800 95.704,140.800 95.525 C 140.800 95.346,140.994 95.200,141.230 95.200 C 141.467 95.200,142.893 94.480,144.400 93.600 C 145.907 92.720,147.423 92.000,147.770 92.000 C 148.116 92.000,148.400 91.843,148.400 91.652 C 148.400 91.461,149.210 91.077,150.200 90.800 C 151.190 90.523,152.000 90.161,152.000 89.996 C 152.000 89.830,152.799 89.494,153.776 89.248 C 154.753 89.002,155.664 88.620,155.800 88.400 C 155.936 88.180,156.316 88.000,156.646 88.000 C 156.975 88.000,157.999 87.656,158.922 87.236 C 159.845 86.816,161.275 86.346,162.100 86.192 C 162.925 86.037,163.600 85.768,163.600 85.593 C 163.600 85.418,164.500 85.151,165.600 85.000 C 166.700 84.849,167.600 84.583,167.600 84.410 C 167.600 84.237,169.040 83.861,170.800 83.576 C 172.560 83.290,174.000 82.927,174.000 82.769 C 174.000 82.610,175.260 82.355,176.800 82.200 C 178.340 82.045,179.600 81.784,179.600 81.619 C 179.600 81.269,188.681 80.393,192.276 80.397 C 193.638 80.399,194.864 80.220,195.000 80.000 C 195.142 79.770,197.263 79.600,200.000 79.600 C 202.737 79.600,204.858 79.770,205.000 80.000 C 205.136 80.220,206.362 80.399,207.724 80.397 C 211.244 80.393,220.400 81.265,220.400 81.605 C 220.400 81.761,221.607 82.013,223.083 82.164 C 224.558 82.316,225.953 82.581,226.183 82.755 C 226.412 82.929,227.905 83.309,229.500 83.600 C 231.095 83.890,232.400 84.256,232.400 84.413 C 232.400 84.569,233.300 84.816,234.400 84.962 C 235.500 85.108,236.400 85.381,236.400 85.569 C 236.400 85.757,237.075 86.037,237.900 86.192 C 238.725 86.346,240.155 86.816,241.078 87.236 C 242.001 87.656,243.025 88.000,243.354 88.000 C 243.684 88.000,244.064 88.180,244.200 88.400 C 244.336 88.620,245.247 89.002,246.224 89.248 C 247.201 89.494,248.000 89.830,248.000 89.996 C 248.000 90.161,248.810 90.523,249.800 90.800 C 250.790 91.077,251.600 91.452,251.600 91.634 C 251.600 91.815,252.230 92.082,253.000 92.226 C 253.770 92.371,254.400 92.628,254.400 92.797 C 254.400 92.966,255.435 93.619,256.700 94.248 C 257.965 94.877,259.090 95.498,259.200 95.628 C 259.310 95.758,259.985 96.119,260.700 96.430 C 261.415 96.741,262.000 97.131,262.000 97.298 C 262.000 97.464,262.208 97.600,262.462 97.600 C 262.716 97.600,263.514 98.050,264.236 98.600 C 264.957 99.150,265.739 99.600,265.973 99.600 C 266.208 99.600,266.400 99.768,266.400 99.973 C 266.400 100.178,266.739 100.454,267.152 100.585 C 267.566 100.716,268.270 101.133,268.715 101.512 C 269.161 101.890,269.928 102.470,270.420 102.800 C 270.912 103.130,271.765 103.805,272.315 104.300 C 272.866 104.795,273.462 105.200,273.640 105.200 C 273.818 105.200,274.390 105.605,274.912 106.100 C 275.433 106.595,276.808 107.810,277.967 108.800 C 279.125 109.790,280.899 111.365,281.908 112.300 C 282.917 113.235,283.921 114.000,284.138 114.000 C 284.356 114.000,284.435 114.098,284.315 114.218 C 284.195 114.338,285.290 115.665,286.748 117.166 C 288.207 118.667,290.210 120.842,291.200 122.000 C 292.190 123.158,293.405 124.558,293.900 125.111 C 294.395 125.664,294.800 126.244,294.800 126.400 C 294.800 126.556,295.205 127.134,295.700 127.685 C 296.195 128.235,296.870 129.088,297.200 129.580 C 297.530 130.072,298.110 130.839,298.488 131.285 C 298.867 131.730,299.284 132.434,299.415 132.848 C 299.546 133.261,299.822 133.600,300.027 133.600 C 300.232 133.600,300.400 133.792,300.400 134.027 C 300.400 134.261,300.850 135.043,301.400 135.764 C 301.950 136.486,302.400 137.284,302.400 137.538 C 302.400 137.792,302.580 138.000,302.800 138.000 C 303.020 138.000,303.200 138.276,303.200 138.613 C 303.200 138.949,303.480 139.333,303.823 139.464 C 304.166 139.596,304.356 139.938,304.245 140.226 C 304.135 140.513,304.170 140.805,304.322 140.874 C 304.475 140.943,305.410 142.620,306.400 144.600 C 307.390 146.580,308.315 148.290,308.456 148.400 C 308.596 148.510,308.940 149.365,309.219 150.300 C 309.498 151.235,309.878 152.000,310.063 152.000 C 310.248 152.000,310.400 152.322,310.400 152.715 C 310.400 153.109,310.760 154.137,311.200 155.000 C 311.640 155.863,312.001 156.756,312.002 156.985 C 312.004 157.213,312.257 157.883,312.565 158.473 C 312.873 159.063,313.246 160.098,313.394 160.773 C 313.542 161.448,313.824 162.000,314.019 162.000 C 314.215 162.000,314.270 162.272,314.143 162.605 C 314.015 162.938,314.103 163.442,314.338 163.725 C 314.573 164.008,314.886 164.996,315.034 165.920 C 315.181 166.844,315.437 167.600,315.602 167.600 C 315.767 167.600,316.126 169.040,316.400 170.800 C 316.674 172.560,317.035 174.000,317.202 174.000 C 317.370 174.000,317.635 175.215,317.793 176.700 C 317.950 178.185,318.221 179.580,318.395 179.800 C 318.570 180.020,318.913 182.720,319.158 185.800 C 319.403 188.880,319.694 192.480,319.805 193.800 C 319.916 195.120,320.155 198.090,320.336 200.400 C 320.716 205.248,321.312 206.647,324.113 209.272 C 326.808 211.797,327.031 211.954,328.234 212.172 C 328.837 212.281,329.517 212.557,329.745 212.785 C 330.258 213.298,335.754 213.336,336.705 212.833 C 337.087 212.631,338.367 211.988,339.550 211.403 C 341.734 210.323,344.000 208.239,344.000 207.311 C 344.000 207.030,344.145 206.800,344.323 206.800 C 345.978 206.800,347.130 187.649,345.657 184.634 C 345.433 184.175,345.132 182.045,344.987 179.900 C 344.843 177.755,344.596 176.000,344.438 176.000 C 344.280 176.000,343.920 174.110,343.637 171.800 C 343.355 169.490,342.982 167.600,342.808 167.600 C 342.634 167.600,342.368 166.610,342.217 165.400 C 342.066 164.190,341.810 163.200,341.649 163.200 C 341.488 163.200,341.130 161.854,340.853 160.208 C 340.577 158.563,340.212 157.131,340.043 157.027 C 339.874 156.922,339.513 155.841,339.241 154.625 C 338.968 153.409,338.594 152.320,338.408 152.205 C 338.222 152.090,337.948 151.277,337.800 150.398 C 337.651 149.519,337.380 148.800,337.197 148.800 C 337.013 148.800,336.739 148.215,336.586 147.500 C 336.434 146.785,335.970 145.445,335.555 144.522 C 335.140 143.599,334.800 142.654,334.800 142.422 C 334.800 142.190,334.620 142.000,334.400 142.000 C 334.180 142.000,334.000 141.702,334.000 141.339 C 334.000 140.619,332.073 136.325,331.604 136.000 C 331.446 135.890,331.084 135.080,330.800 134.200 C 330.516 133.320,330.167 132.510,330.025 132.400 C 329.882 132.290,329.249 131.165,328.617 129.900 C 327.986 128.635,327.333 127.600,327.166 127.600 C 327.000 127.600,326.745 127.061,326.601 126.402 C 326.456 125.744,326.123 125.069,325.860 124.902 C 325.598 124.736,325.153 124.150,324.872 123.600 C 323.613 121.137,323.131 120.400,322.778 120.400 C 322.570 120.400,322.400 120.124,322.400 119.787 C 322.400 119.451,322.146 119.078,321.836 118.959 C 321.526 118.839,321.173 118.350,321.053 117.871 C 320.841 117.032,320.441 116.425,318.500 114.006 C 318.005 113.389,317.600 112.791,317.600 112.676 C 317.600 112.450,316.435 111.011,314.700 109.096 C 314.095 108.428,313.600 107.737,313.600 107.560 C 313.600 107.383,312.970 106.627,312.200 105.879 C 311.430 105.131,310.800 104.377,310.800 104.204 C 310.800 103.791,296.209 89.200,295.796 89.200 C 295.623 89.200,294.869 88.570,294.121 87.800 C 293.373 87.030,292.617 86.400,292.440 86.400 C 292.263 86.400,291.584 85.905,290.931 85.300 C 289.090 83.594,287.618 82.400,287.355 82.400 C 287.223 82.400,286.611 81.995,285.994 81.500 C 283.575 79.559,282.968 79.159,282.129 78.947 C 281.650 78.827,281.161 78.474,281.041 78.164 C 280.922 77.854,280.549 77.600,280.213 77.600 C 279.876 77.600,279.600 77.430,279.600 77.222 C 279.600 76.869,278.863 76.387,276.400 75.128 C 275.850 74.847,275.264 74.402,275.098 74.140 C 274.931 73.877,274.256 73.544,273.598 73.399 C 272.939 73.255,272.399 73.016,272.397 72.868 C 272.395 72.721,271.990 72.399,271.497 72.152 C 268.885 70.849,267.780 70.236,267.600 69.989 C 267.490 69.839,266.685 69.483,265.811 69.198 C 264.937 68.913,263.979 68.436,263.682 68.140 C 263.386 67.843,262.886 67.600,262.571 67.600 C 262.257 67.600,262.000 67.438,262.000 67.240 C 262.000 67.042,261.100 66.664,260.000 66.400 C 258.900 66.136,258.000 65.766,258.000 65.578 C 258.000 65.390,257.370 65.118,256.600 64.974 C 255.830 64.829,255.200 64.557,255.200 64.368 C 255.200 64.179,254.930 64.129,254.600 64.255 C 254.270 64.382,254.000 64.306,254.000 64.087 C 254.000 63.868,253.370 63.571,252.600 63.426 C 251.830 63.282,251.200 63.012,251.200 62.826 C 251.200 62.641,250.525 62.363,249.700 62.209 C 248.875 62.055,247.983 61.749,247.718 61.530 C 247.452 61.311,247.047 61.247,246.818 61.389 C 246.588 61.531,246.400 61.472,246.400 61.259 C 246.400 61.045,245.681 60.749,244.802 60.600 C 243.923 60.452,243.115 60.187,243.007 60.011 C 242.899 59.836,241.593 59.468,240.105 59.194 C 238.617 58.919,237.202 58.539,236.960 58.348 C 236.717 58.157,235.637 57.883,234.560 57.739 C 233.482 57.595,232.510 57.355,232.400 57.205 C 232.161 56.881,226.942 56.000,225.256 56.000 C 224.602 56.000,224.007 55.837,223.933 55.639 C 223.812 55.308,219.920 54.771,213.200 54.158 C 209.053 53.779,191.099 53.613,190.000 53.944 M197.028 137.155 C 196.907 137.350,196.195 137.624,195.445 137.765 C 194.694 137.906,193.860 138.286,193.591 138.611 C 193.322 138.935,192.877 139.200,192.602 139.200 C 192.327 139.200,191.348 140.055,190.426 141.100 C 188.053 143.791,188.009 143.857,187.751 145.146 C 187.540 146.198,187.326 146.333,185.469 146.580 C 184.342 146.729,183.235 146.996,183.010 147.174 C 182.784 147.351,181.925 147.617,181.100 147.766 C 180.275 147.915,179.600 148.208,179.600 148.418 C 179.600 148.628,179.357 148.800,179.060 148.800 C 178.369 148.800,174.912 150.631,174.134 151.408 C 173.809 151.734,173.326 152.000,173.060 152.000 C 172.795 152.000,172.292 152.315,171.943 152.700 C 171.594 153.085,170.474 154.107,169.454 154.972 C 168.435 155.836,167.600 156.680,167.600 156.847 C 167.600 157.014,167.082 157.718,166.448 158.412 C 165.814 159.106,165.050 160.152,164.749 160.737 C 164.448 161.321,164.111 161.890,164.001 162.000 C 163.890 162.110,163.368 163.100,162.841 164.200 C 162.313 165.300,161.722 166.522,161.527 166.916 C 161.332 167.310,161.280 167.805,161.410 168.016 C 161.540 168.227,161.466 168.400,161.243 168.400 C 161.021 168.400,160.718 169.480,160.568 170.800 C 160.419 172.120,160.140 173.200,159.948 173.200 C 159.475 173.200,159.503 182.634,159.980 183.505 C 160.188 183.887,160.469 185.055,160.604 186.100 C 160.739 187.145,161.029 188.000,161.248 188.000 C 161.468 188.000,161.531 188.188,161.389 188.418 C 161.247 188.647,161.306 189.052,161.519 189.318 C 161.733 189.583,162.033 190.385,162.186 191.100 C 162.338 191.815,162.593 192.400,162.751 192.400 C 162.910 192.400,163.267 193.030,163.546 193.800 C 163.824 194.570,164.220 195.200,164.426 195.200 C 164.632 195.200,164.800 195.476,164.800 195.813 C 164.800 196.149,165.070 196.529,165.400 196.655 C 165.730 196.782,166.000 197.116,166.000 197.398 C 166.000 198.065,171.935 204.000,172.602 204.000 C 172.884 204.000,173.218 204.270,173.345 204.600 C 173.471 204.930,173.831 205.200,174.145 205.200 C 174.458 205.200,174.812 205.453,174.930 205.762 C 175.049 206.072,175.698 206.446,176.373 206.594 C 177.048 206.742,177.600 207.029,177.600 207.232 C 177.600 207.434,177.825 207.601,178.100 207.602 C 178.375 207.604,179.120 207.876,179.755 208.207 C 180.959 208.835,183.717 209.606,188.800 210.734 C 190.450 211.100,191.980 211.517,192.200 211.661 C 192.420 211.805,193.457 212.050,194.505 212.207 C 195.553 212.364,196.495 212.630,196.598 212.798 C 196.702 212.965,198.230 213.337,199.994 213.623 C 201.757 213.910,203.200 214.275,203.200 214.435 C 203.200 214.594,204.138 214.854,205.284 215.012 C 206.430 215.169,207.645 215.434,207.984 215.600 C 208.323 215.766,209.293 216.122,210.141 216.391 C 211.959 216.969,213.083 217.993,213.433 219.390 C 213.573 219.945,213.811 220.400,213.963 220.400 C 214.116 220.400,214.240 221.030,214.240 221.800 C 214.240 222.570,214.096 223.200,213.920 223.200 C 213.744 223.200,213.600 223.486,213.600 223.836 C 213.600 224.606,211.602 226.800,210.901 226.800 C 210.626 226.800,210.400 226.980,210.400 227.200 C 210.400 227.456,206.867 227.600,200.600 227.600 C 194.333 227.600,190.800 227.456,190.800 227.200 C 190.800 226.980,190.546 226.800,190.236 226.800 C 189.925 226.800,189.204 226.215,188.633 225.500 C 188.063 224.785,187.327 223.915,186.998 223.566 C 186.669 223.218,186.399 222.768,186.397 222.566 C 186.396 222.365,185.766 221.772,184.997 221.248 C 184.229 220.725,183.600 220.157,183.600 219.985 C 183.600 219.814,182.700 219.443,181.600 219.161 C 180.500 218.879,179.600 218.503,179.600 218.324 C 179.600 218.146,178.160 218.000,176.400 218.000 C 174.640 218.000,173.200 218.146,173.200 218.324 C 173.200 218.503,172.300 218.879,171.200 219.161 C 170.100 219.443,169.200 219.843,169.200 220.050 C 169.200 220.256,168.893 220.543,168.517 220.687 C 167.470 221.089,166.000 222.482,166.000 223.072 C 166.000 223.362,165.849 223.600,165.664 223.600 C 165.266 223.600,164.221 225.641,164.351 226.163 C 164.401 226.363,164.208 226.672,163.921 226.849 C 163.212 227.287,163.191 234.826,163.897 235.675 C 164.170 236.004,164.275 236.392,164.130 236.537 C 163.985 236.682,164.077 236.800,164.333 236.800 C 164.590 236.800,164.800 237.015,164.800 237.278 C 164.800 237.869,166.591 240.533,168.200 242.336 C 170.211 244.588,170.573 244.946,172.419 246.492 C 173.399 247.313,174.471 248.243,174.803 248.560 C 175.135 248.877,175.900 249.260,176.503 249.411 C 177.106 249.563,177.600 249.818,177.600 249.979 C 177.600 250.140,178.320 250.510,179.200 250.800 C 180.080 251.090,180.800 251.459,180.800 251.620 C 180.800 251.780,181.475 252.037,182.300 252.191 C 183.125 252.345,183.980 252.612,184.200 252.784 C 184.420 252.955,185.253 253.213,186.052 253.357 C 187.260 253.574,187.544 253.819,187.743 254.817 C 188.009 256.145,188.048 256.204,190.426 258.900 C 191.348 259.945,192.327 260.800,192.602 260.800 C 192.877 260.800,193.322 261.065,193.591 261.389 C 193.860 261.714,194.694 262.094,195.445 262.235 C 196.195 262.376,196.907 262.650,197.028 262.845 C 197.314 263.308,202.686 263.308,202.972 262.845 C 203.093 262.650,203.805 262.376,204.555 262.235 C 205.306 262.094,206.140 261.714,206.409 261.389 C 206.678 261.065,207.123 260.800,207.398 260.800 C 207.673 260.800,208.652 259.945,209.574 258.900 C 211.953 256.203,211.991 256.145,212.258 254.808 C 212.404 254.078,212.757 253.589,213.150 253.571 C 215.037 253.489,217.022 253.114,217.448 252.760 C 217.713 252.540,218.437 252.268,219.057 252.155 C 219.676 252.043,220.277 251.818,220.391 251.656 C 220.506 251.494,221.365 251.138,222.300 250.864 C 223.235 250.591,224.000 250.213,224.000 250.023 C 224.000 249.833,224.540 249.490,225.200 249.260 C 225.860 249.030,226.400 248.652,226.400 248.421 C 226.400 248.189,226.610 248.000,226.866 248.000 C 227.404 248.000,227.858 247.626,230.600 244.918 C 235.219 240.358,238.842 234.007,239.407 229.479 C 239.565 228.220,239.852 227.091,240.047 226.971 C 240.518 226.680,240.502 216.980,240.029 216.095 C 239.825 215.713,239.440 214.275,239.174 212.900 C 238.908 211.525,238.555 210.400,238.390 210.400 C 238.224 210.400,237.971 209.770,237.826 209.000 C 237.682 208.230,237.406 207.600,237.214 207.600 C 237.021 207.600,236.742 207.048,236.594 206.373 C 236.446 205.698,236.072 205.049,235.762 204.930 C 235.453 204.812,235.200 204.470,235.200 204.171 C 235.200 203.873,234.835 203.433,234.389 203.194 C 233.943 202.955,233.671 202.608,233.786 202.422 C 234.050 201.995,228.087 196.000,227.398 196.000 C 227.116 196.000,226.782 195.730,226.655 195.400 C 226.529 195.070,226.169 194.800,225.855 194.800 C 225.542 194.800,225.188 194.547,225.070 194.238 C 224.951 193.928,224.302 193.554,223.627 193.406 C 222.952 193.258,222.400 192.971,222.400 192.768 C 222.400 192.566,222.175 192.399,221.900 192.398 C 221.625 192.396,220.886 192.127,220.258 191.800 C 219.630 191.472,218.955 191.304,218.758 191.426 C 218.561 191.548,218.400 191.472,218.400 191.259 C 218.400 191.045,217.635 190.744,216.700 190.590 C 215.765 190.436,214.820 190.171,214.600 190.001 C 214.380 189.831,212.850 189.470,211.200 189.200 C 209.550 188.930,208.020 188.566,207.800 188.392 C 207.580 188.217,206.543 187.947,205.495 187.791 C 204.447 187.635,203.505 187.370,203.402 187.202 C 203.298 187.035,201.770 186.663,200.006 186.377 C 198.243 186.090,196.800 185.725,196.800 185.565 C 196.800 185.406,195.855 185.148,194.700 184.993 C 193.545 184.837,192.383 184.535,192.118 184.321 C 191.852 184.106,191.460 184.040,191.245 184.172 C 191.031 184.305,190.755 184.250,190.631 184.051 C 190.508 183.852,189.951 183.574,189.394 183.434 C 184.977 182.326,184.951 176.454,189.348 172.900 C 190.132 172.266,209.200 172.170,209.200 172.800 C 209.200 173.020,209.415 173.200,209.678 173.200 C 210.222 173.200,212.400 175.180,212.400 175.675 C 212.400 176.651,216.880 180.425,218.578 180.879 C 219.580 181.147,220.400 181.509,220.400 181.683 C 220.400 181.857,221.840 182.000,223.600 182.000 C 225.467 182.000,226.800 181.833,226.800 181.600 C 226.800 181.380,227.152 181.200,227.581 181.200 C 228.611 181.200,230.517 180.348,230.920 179.708 C 231.096 179.429,231.469 179.200,231.750 179.200 C 232.378 179.200,234.000 177.524,234.000 176.874 C 234.000 176.613,234.162 176.400,234.360 176.400 C 235.120 176.400,236.406 173.076,236.646 170.488 C 236.906 167.692,236.244 163.200,235.572 163.200 C 235.367 163.200,235.200 162.985,235.200 162.722 C 235.200 161.136,227.086 152.000,225.677 152.000 C 225.462 152.000,225.188 151.747,225.070 151.438 C 224.951 151.128,224.302 150.754,223.627 150.606 C 222.952 150.458,222.400 150.200,222.400 150.032 C 222.400 149.865,221.680 149.490,220.800 149.200 C 219.920 148.910,219.200 148.541,219.200 148.380 C 219.200 148.220,218.525 147.963,217.700 147.809 C 216.875 147.655,216.020 147.388,215.800 147.216 C 215.580 147.045,214.747 146.787,213.948 146.643 C 212.740 146.426,212.456 146.181,212.257 145.183 C 211.991 143.855,211.952 143.796,209.574 141.100 C 208.652 140.055,207.673 139.200,207.398 139.200 C 207.123 139.200,206.678 138.935,206.409 138.611 C 206.140 138.286,205.306 137.906,204.555 137.765 C 203.805 137.624,203.093 137.350,202.972 137.155 C 202.851 136.960,201.514 136.800,200.000 136.800 C 198.486 136.800,197.149 136.960,197.028 137.155 M63.200 187.191 C 62.870 187.380,61.633 188.013,60.450 188.597 C 58.266 189.677,56.000 191.761,56.000 192.689 C 56.000 192.970,55.838 193.200,55.639 193.200 C 55.322 193.200,55.077 193.699,54.067 196.400 C 53.579 197.704,53.957 214.219,54.507 215.600 C 54.638 215.930,54.865 217.955,55.010 220.100 C 55.156 222.245,55.404 224.000,55.562 224.000 C 55.720 224.000,56.080 225.890,56.363 228.200 C 56.645 230.510,57.016 232.400,57.186 232.400 C 57.357 232.400,57.618 233.475,57.767 234.788 C 57.915 236.101,58.188 237.269,58.372 237.383 C 58.557 237.497,58.929 238.765,59.200 240.200 C 59.471 241.635,59.836 242.899,60.011 243.007 C 60.187 243.115,60.452 243.923,60.600 244.802 C 60.749 245.681,61.045 246.400,61.259 246.400 C 61.472 246.400,61.531 246.588,61.389 246.818 C 61.247 247.047,61.311 247.452,61.530 247.718 C 61.749 247.983,62.055 248.875,62.209 249.700 C 62.363 250.525,62.629 251.200,62.800 251.200 C 62.971 251.200,63.229 251.830,63.374 252.600 C 63.518 253.370,63.819 254.000,64.042 254.000 C 64.265 254.000,64.348 254.161,64.226 254.358 C 64.104 254.555,64.272 255.230,64.600 255.858 C 64.927 256.486,65.196 257.225,65.198 257.500 C 65.199 257.775,65.346 258.000,65.524 258.000 C 65.703 258.000,66.079 258.900,66.361 260.000 C 66.643 261.100,67.037 262.000,67.237 262.000 C 67.437 262.000,67.600 262.257,67.600 262.571 C 67.600 262.886,67.843 263.386,68.140 263.682 C 68.436 263.979,68.913 264.937,69.198 265.811 C 69.483 266.685,69.825 267.490,69.958 267.600 C 70.091 267.710,70.740 268.834,71.400 270.099 C 72.060 271.363,72.715 272.398,72.857 272.399 C 72.998 272.399,73.229 272.860,73.370 273.423 C 73.511 273.986,74.251 275.334,75.013 276.419 C 75.776 277.504,76.400 278.579,76.400 278.808 C 76.400 279.038,76.670 279.329,77.000 279.455 C 77.330 279.582,77.600 279.838,77.600 280.025 C 77.600 280.212,78.053 281.047,78.607 281.882 C 79.161 282.717,79.836 283.740,80.107 284.156 C 80.378 284.571,81.005 285.407,81.500 286.013 C 81.995 286.620,82.400 287.223,82.400 287.355 C 82.400 287.618,83.594 289.090,85.300 290.931 C 85.905 291.584,86.400 292.263,86.400 292.440 C 86.400 292.617,87.030 293.373,87.800 294.121 C 88.570 294.869,89.200 295.623,89.200 295.796 C 89.200 296.209,103.791 310.800,104.204 310.800 C 104.377 310.800,105.131 311.430,105.879 312.200 C 106.627 312.970,107.383 313.600,107.560 313.600 C 107.737 313.600,108.428 314.095,109.096 314.700 C 111.011 316.435,112.450 317.600,112.676 317.600 C 112.791 317.600,113.389 318.005,114.006 318.500 C 116.425 320.441,117.032 320.841,117.871 321.053 C 118.350 321.173,118.839 321.526,118.959 321.836 C 119.078 322.146,119.451 322.400,119.787 322.400 C 120.124 322.400,120.400 322.570,120.400 322.778 C 120.400 323.131,121.137 323.613,123.600 324.872 C 124.150 325.153,124.736 325.598,124.902 325.860 C 125.069 326.123,125.744 326.456,126.402 326.601 C 127.061 326.745,127.600 327.000,127.600 327.166 C 127.600 327.333,128.635 327.986,129.900 328.617 C 131.165 329.249,132.290 329.882,132.400 330.025 C 132.510 330.167,133.315 330.517,134.189 330.802 C 135.063 331.087,136.021 331.564,136.318 331.860 C 136.614 332.157,137.114 332.400,137.429 332.400 C 137.743 332.400,138.000 332.563,138.000 332.763 C 138.000 332.963,138.900 333.357,140.000 333.639 C 141.100 333.921,142.000 334.297,142.000 334.476 C 142.000 334.654,142.190 334.800,142.422 334.800 C 142.654 334.800,143.644 335.165,144.622 335.610 C 145.600 336.056,146.940 336.528,147.600 336.660 C 148.260 336.792,148.800 337.042,148.800 337.215 C 148.800 337.388,149.520 337.651,150.400 337.800 C 151.280 337.949,152.000 338.206,152.000 338.372 C 152.000 338.537,153.035 338.901,154.300 339.181 C 155.565 339.460,156.780 339.830,157.000 340.001 C 157.220 340.173,158.480 340.532,159.800 340.800 C 161.120 341.068,162.392 341.442,162.626 341.631 C 162.861 341.821,164.076 342.096,165.326 342.243 C 166.577 342.390,167.600 342.634,167.600 342.786 C 167.600 343.086,173.123 344.007,174.900 344.003 C 175.505 344.001,176.000 344.163,176.000 344.363 C 176.000 344.562,177.755 344.853,179.900 345.010 C 182.045 345.166,184.053 345.498,184.361 345.747 C 185.154 346.386,214.846 346.386,215.639 345.747 C 215.947 345.498,217.955 345.166,220.100 345.010 C 222.245 344.853,224.000 344.596,224.000 344.438 C 224.000 344.280,225.890 343.920,228.200 343.637 C 230.510 343.355,232.400 342.982,232.400 342.808 C 232.400 342.634,233.390 342.368,234.600 342.217 C 235.810 342.066,236.800 341.810,236.800 341.649 C 236.800 341.488,238.146 341.130,239.792 340.853 C 241.437 340.577,242.869 340.212,242.973 340.043 C 243.078 339.874,244.159 339.513,245.375 339.241 C 246.591 338.968,247.680 338.594,247.795 338.408 C 247.910 338.222,248.723 337.948,249.602 337.800 C 250.481 337.651,251.200 337.383,251.200 337.205 C 251.200 337.026,252.100 336.664,253.200 336.400 C 254.300 336.136,255.200 335.778,255.200 335.605 C 255.200 335.431,255.830 335.171,256.600 335.026 C 257.370 334.882,258.000 334.610,258.000 334.422 C 258.000 334.234,258.900 333.864,260.000 333.600 C 261.100 333.336,262.000 332.958,262.000 332.760 C 262.000 332.562,262.257 332.400,262.571 332.400 C 262.886 332.400,263.386 332.157,263.682 331.860 C 263.979 331.564,264.937 331.087,265.811 330.802 C 266.685 330.517,267.490 330.175,267.600 330.042 C 267.710 329.909,268.430 329.486,269.200 329.102 C 270.874 328.268,272.125 327.499,272.404 327.132 C 272.516 326.984,273.104 326.739,273.709 326.587 C 274.315 326.435,274.943 326.102,275.105 325.847 C 275.267 325.592,275.850 325.153,276.400 324.872 C 278.863 323.613,279.600 323.131,279.600 322.778 C 279.600 322.570,279.876 322.400,280.213 322.400 C 280.549 322.400,280.922 322.146,281.041 321.836 C 281.161 321.526,281.650 321.173,282.129 321.053 C 282.968 320.841,283.575 320.441,285.994 318.500 C 286.611 318.005,287.223 317.600,287.355 317.600 C 287.618 317.600,289.090 316.406,290.931 314.700 C 291.584 314.095,292.263 313.600,292.440 313.600 C 292.617 313.600,293.373 312.970,294.121 312.200 C 294.869 311.430,295.623 310.800,295.796 310.800 C 296.244 310.800,310.635 296.326,310.910 295.600 C 311.035 295.270,311.151 300.969,311.168 308.265 C 311.210 325.564,311.639 327.940,315.435 331.847 C 316.315 332.753,317.432 333.620,317.918 333.774 C 318.403 333.928,318.800 334.211,318.800 334.402 C 318.800 334.594,319.612 334.873,320.605 335.022 C 321.598 335.171,322.508 335.452,322.629 335.646 C 322.931 336.136,326.800 336.093,326.800 335.600 C 326.800 335.380,327.295 335.197,327.900 335.194 C 328.505 335.191,329.450 334.926,330.000 334.607 C 330.550 334.287,331.495 333.822,332.100 333.573 C 332.705 333.325,333.200 332.974,333.200 332.793 C 333.200 332.613,333.829 331.872,334.597 331.147 C 335.366 330.422,336.202 329.193,336.455 328.415 C 336.709 327.637,337.115 326.872,337.358 326.715 C 338.206 326.167,337.958 260.472,337.102 259.000 C 336.719 258.340,336.404 257.619,336.402 257.397 C 336.399 256.780,333.067 253.195,332.500 253.198 C 332.225 253.199,332.000 253.042,332.000 252.849 C 332.000 252.656,331.055 252.071,329.900 251.549 L 327.800 250.600 295.033 250.600 C 269.089 250.600,262.232 250.705,262.099 251.102 C 262.007 251.379,261.786 251.515,261.607 251.405 C 261.050 251.060,257.612 253.137,256.048 254.764 C 254.680 256.186,253.200 259.134,253.200 260.436 C 253.200 261.050,253.020 261.664,252.800 261.800 C 252.580 261.936,252.400 262.847,252.400 263.824 C 252.400 264.801,252.580 265.600,252.800 265.600 C 253.020 265.600,253.200 266.096,253.200 266.703 C 253.200 269.413,256.673 273.820,260.212 275.600 L 262.200 276.600 277.100 276.722 C 285.295 276.790,292.000 276.919,292.000 277.010 C 292.000 277.177,291.087 278.217,287.815 281.772 C 286.817 282.856,286.000 283.902,286.000 284.095 C 286.000 284.289,285.865 284.375,285.700 284.287 C 285.307 284.077,283.996 285.463,284.300 285.767 C 284.428 285.895,284.356 286.000,284.138 286.000 C 283.921 286.000,282.917 286.765,281.908 287.700 C 280.899 288.635,279.126 290.210,277.968 291.200 C 276.810 292.190,275.468 293.405,274.986 293.900 C 274.503 294.395,273.930 294.800,273.713 294.800 C 273.495 294.800,272.866 295.205,272.315 295.700 C 271.765 296.195,270.912 296.870,270.420 297.200 C 269.928 297.530,269.161 298.110,268.715 298.488 C 268.270 298.867,267.566 299.284,267.152 299.415 C 266.739 299.546,266.400 299.822,266.400 300.027 C 266.400 300.232,266.208 300.400,265.973 300.400 C 265.739 300.400,264.957 300.850,264.236 301.400 C 263.514 301.950,262.716 302.400,262.462 302.400 C 262.208 302.400,262.000 302.580,262.000 302.800 C 262.000 303.020,261.724 303.200,261.387 303.200 C 261.051 303.200,260.667 303.480,260.536 303.823 C 260.404 304.166,260.062 304.356,259.774 304.245 C 259.487 304.135,259.195 304.170,259.126 304.322 C 259.057 304.475,257.966 305.140,256.701 305.800 C 255.437 306.460,254.402 307.127,254.401 307.282 C 254.401 307.437,253.770 307.682,253.000 307.826 C 252.230 307.971,251.600 308.226,251.600 308.393 C 251.600 308.559,250.790 308.923,249.800 309.200 C 248.810 309.477,248.000 309.839,248.000 310.004 C 248.000 310.170,247.201 310.506,246.224 310.752 C 245.247 310.998,244.336 311.380,244.200 311.600 C 244.064 311.820,243.648 312.006,243.276 312.014 C 242.904 312.021,241.880 312.375,241.000 312.800 C 240.120 313.225,239.085 313.579,238.700 313.586 C 238.315 313.594,238.000 313.763,238.000 313.963 C 238.000 314.162,237.640 314.231,237.200 314.116 C 236.760 314.001,236.400 314.091,236.400 314.316 C 236.400 314.541,235.500 314.849,234.400 315.000 C 233.300 315.151,232.400 315.417,232.400 315.590 C 232.400 315.763,230.960 316.139,229.200 316.424 C 227.440 316.710,226.000 317.073,226.000 317.231 C 226.000 317.390,224.740 317.645,223.200 317.800 C 221.660 317.955,220.400 318.216,220.400 318.381 C 220.400 318.741,211.278 319.607,207.524 319.603 C 206.052 319.601,204.736 319.780,204.600 320.000 C 204.460 320.227,202.470 320.400,200.000 320.400 C 197.530 320.400,195.540 320.227,195.400 320.000 C 195.264 319.780,193.948 319.601,192.476 319.603 C 188.722 319.607,179.600 318.741,179.600 318.381 C 179.600 318.216,178.340 317.955,176.800 317.800 C 175.260 317.645,174.000 317.357,174.000 317.159 C 174.000 316.962,173.540 316.800,172.977 316.800 C 171.756 316.800,168.450 316.078,167.585 315.623 C 167.246 315.445,166.211 315.171,165.285 315.014 C 164.358 314.858,163.600 314.546,163.600 314.322 C 163.600 314.098,163.336 314.016,163.013 314.140 C 162.690 314.264,162.334 314.216,162.221 314.034 C 162.109 313.852,161.428 313.589,160.708 313.450 C 159.989 313.311,158.860 312.952,158.200 312.652 C 157.540 312.353,156.370 311.820,155.600 311.468 C 154.830 311.116,153.705 310.712,153.100 310.570 C 152.495 310.429,152.000 310.176,152.000 310.009 C 152.000 309.841,151.145 309.469,150.100 309.182 C 149.055 308.894,148.110 308.556,148.000 308.430 C 147.819 308.222,145.348 306.855,142.200 305.222 C 141.540 304.880,140.886 304.442,140.745 304.249 C 140.604 304.056,140.308 304.010,140.087 304.146 C 139.865 304.283,139.581 304.126,139.454 303.798 C 139.328 303.469,138.949 303.200,138.613 303.200 C 138.276 303.200,138.000 303.020,138.000 302.800 C 138.000 302.580,137.792 302.400,137.538 302.400 C 137.284 302.400,136.486 301.950,135.764 301.400 C 135.043 300.850,134.261 300.400,134.027 300.400 C 133.792 300.400,133.600 300.232,133.600 300.027 C 133.600 299.822,133.261 299.546,132.848 299.415 C 132.434 299.284,131.730 298.867,131.285 298.488 C 130.839 298.110,130.072 297.530,129.580 297.200 C 129.088 296.870,128.235 296.195,127.685 295.700 C 127.134 295.205,126.556 294.800,126.400 294.800 C 126.244 294.800,125.664 294.395,125.111 293.900 C 124.558 293.405,123.158 292.190,122.000 291.200 C 120.842 290.210,118.667 288.207,117.166 286.748 C 115.665 285.290,114.338 284.195,114.218 284.315 C 114.098 284.435,114.000 284.356,114.000 284.138 C 114.000 283.921,113.235 282.917,112.300 281.908 C 111.365 280.899,109.790 279.125,108.800 277.967 C 107.810 276.808,106.595 275.433,106.100 274.912 C 105.605 274.390,105.200 273.818,105.200 273.640 C 105.200 273.462,104.795 272.866,104.300 272.315 C 103.805 271.765,103.130 270.912,102.800 270.420 C 102.470 269.928,101.890 269.161,101.512 268.715 C 101.133 268.270,100.716 267.566,100.585 267.152 C 100.454 266.739,100.178 266.400,99.973 266.400 C 99.768 266.400,99.600 266.208,99.600 265.973 C 99.600 265.739,99.150 264.957,98.600 264.236 C 98.050 263.514,97.600 262.716,97.600 262.462 C 97.600 262.208,97.464 262.000,97.298 262.000 C 97.131 262.000,96.741 261.415,96.430 260.700 C 96.119 259.985,95.760 259.310,95.632 259.200 C 95.504 259.090,94.860 257.966,94.200 256.701 C 93.540 255.437,92.885 254.402,92.745 254.401 C 92.604 254.401,92.371 253.770,92.226 253.000 C 92.082 252.230,91.815 251.600,91.634 251.600 C 91.452 251.600,91.077 250.790,90.800 249.800 C 90.523 248.810,90.161 248.000,89.996 248.000 C 89.830 248.000,89.494 247.201,89.248 246.224 C 89.002 245.247,88.620 244.336,88.400 244.200 C 88.180 244.064,88.000 243.684,88.000 243.354 C 88.000 243.025,87.656 242.001,87.236 241.078 C 86.816 240.155,86.346 238.725,86.192 237.900 C 86.037 237.075,85.768 236.400,85.593 236.400 C 85.418 236.400,85.151 235.500,85.000 234.400 C 84.849 233.300,84.584 232.400,84.411 232.400 C 84.239 232.400,83.874 230.960,83.600 229.200 C 83.326 227.440,82.962 226.000,82.792 226.000 C 82.621 226.000,82.355 224.740,82.200 223.200 C 82.045 221.660,81.781 220.400,81.612 220.400 C 81.444 220.400,81.100 217.565,80.848 214.100 C 80.597 210.635,80.298 206.900,80.184 205.800 C 80.071 204.700,79.833 201.910,79.656 199.600 C 79.285 194.752,78.659 193.276,75.874 190.685 C 73.239 188.231,72.973 188.047,71.766 187.828 C 71.163 187.719,70.483 187.443,70.255 187.215 C 69.759 186.719,64.056 186.700,63.200 187.191 " stroke="none" fill="#343434" fill-rule="evenodd"></path><path id="path1" d="" stroke="none" fill="#383434" fill-rule="evenodd"></path><path id="path2" d="" stroke="none" fill="#383434" fill-rule="evenodd"></path><path id="path3" d="" stroke="none" fill="#383434" fill-rule="evenodd"></path><path id="path4" d="" stroke="none" fill="#383434" fill-rule="evenodd"></path></g></svg>