<svg id="svg" version="1.1" xmlns="http://www.w3.org/2000/svg" xmlns:xlink="http://www.w3.org/1999/xlink" width="400" height="400" viewBox="0, 0, 400,400"><g id="svgg"><path id="path0" d="M272.623 37.510 C 272.535 37.598,271.324 37.727,269.931 37.796 C 268.539 37.865,267.310 37.962,267.200 38.011 C 267.090 38.061,266.640 38.133,266.200 38.172 C 264.957 38.283,263.053 38.868,262.490 39.312 C 262.210 39.533,261.863 39.597,261.720 39.453 C 261.577 39.310,261.041 39.586,260.530 40.066 C 260.018 40.546,259.600 40.829,259.600 40.693 C 259.600 40.558,259.118 40.698,258.529 41.003 C 257.939 41.309,257.316 41.472,257.144 41.365 C 256.971 41.258,256.058 41.666,255.115 42.270 C 254.172 42.875,253.164 43.321,252.876 43.262 C 252.588 43.202,251.623 43.883,250.732 44.774 C 249.842 45.664,248.924 46.277,248.695 46.135 C 248.465 45.993,248.390 46.060,248.529 46.285 C 248.668 46.509,248.444 46.998,248.032 47.371 C 247.449 47.899,247.237 47.933,247.073 47.524 C 246.958 47.236,246.849 47.196,246.832 47.435 C 246.804 47.811,238.375 56.290,193.000 101.588 C 188.600 105.980,183.773 110.840,182.274 112.387 C 180.774 113.934,179.379 115.200,179.174 115.200 C 178.968 115.200,178.800 115.398,178.800 115.640 C 178.800 116.212,176.212 118.800,175.640 118.800 C 175.398 118.800,175.200 118.956,175.200 119.147 C 175.200 119.635,169.681 125.200,169.197 125.200 C 168.979 125.200,168.800 125.386,168.800 125.613 C 168.800 125.841,168.176 126.651,167.413 127.413 C 166.651 128.176,165.841 128.800,165.613 128.800 C 165.386 128.800,165.200 128.982,165.200 129.203 C 165.200 129.541,162.196 132.650,159.335 135.274 C 158.931 135.644,158.021 136.544,157.314 137.274 C 156.607 138.003,154.357 140.265,152.314 142.300 C 150.271 144.336,148.020 146.586,147.310 147.300 C 146.601 148.015,144.666 149.934,143.010 151.565 C 141.355 153.195,140.000 154.680,140.000 154.865 C 140.000 155.049,139.730 155.200,139.400 155.200 C 139.070 155.200,138.800 155.398,138.800 155.640 C 138.800 156.212,136.212 158.800,135.640 158.800 C 135.398 158.800,135.200 158.974,135.200 159.186 C 135.200 159.399,133.934 160.839,132.386 162.386 C 130.839 163.934,129.399 165.200,129.186 165.200 C 128.974 165.200,128.800 165.398,128.800 165.640 C 128.800 165.882,128.188 166.692,127.440 167.440 C 126.692 168.188,125.882 168.800,125.640 168.800 C 125.398 168.800,125.200 168.974,125.200 169.186 C 125.200 169.399,123.934 170.839,122.386 172.386 C 120.839 173.934,119.399 175.200,119.186 175.200 C 118.974 175.200,118.800 175.449,118.800 175.754 C 118.800 176.059,118.395 176.577,117.900 176.905 C 117.113 177.426,104.107 190.356,100.805 193.900 C 100.138 194.615,99.415 195.200,99.197 195.200 C 98.978 195.200,98.800 195.386,98.800 195.613 C 98.800 195.841,98.176 196.651,97.413 197.413 C 96.651 198.176,95.841 198.800,95.613 198.800 C 95.386 198.800,95.200 198.975,95.200 199.190 C 95.200 199.578,67.585 227.198,67.195 227.199 C 67.082 227.200,66.805 227.605,66.580 228.100 C 66.355 228.595,65.959 228.957,65.700 228.905 C 65.432 228.851,65.328 229.067,65.457 229.405 C 65.583 229.732,65.478 230.000,65.224 230.000 C 64.656 230.000,62.830 232.023,62.813 232.671 C 62.806 232.930,62.345 233.500,61.789 233.937 C 61.233 234.375,60.828 234.973,60.889 235.266 C 60.950 235.560,60.762 235.751,60.470 235.690 C 60.179 235.630,60.046 235.750,60.174 235.958 C 60.302 236.166,60.136 236.607,59.804 236.939 C 59.472 237.271,59.200 237.753,59.200 238.010 C 59.200 238.266,58.829 238.998,58.375 239.636 C 57.921 240.273,57.661 240.976,57.798 241.197 C 57.935 241.419,57.857 241.600,57.624 241.600 C 57.391 241.600,57.200 241.924,57.200 242.320 C 57.200 242.716,57.016 243.224,56.791 243.449 C 56.565 243.675,56.299 244.296,56.197 244.829 C 55.729 247.300,55.514 248.000,55.220 248.000 C 54.949 248.000,54.540 250.008,54.200 253.000 C 54.151 253.440,54.310 253.932,54.555 254.094 C 54.877 254.306,54.872 254.389,54.538 254.394 C 54.241 254.398,54.131 254.967,54.228 255.982 C 54.312 256.853,54.203 257.674,53.987 257.808 C 53.484 258.119,53.465 334.269,53.967 334.580 C 54.160 334.699,54.289 335.415,54.253 336.171 C 54.218 336.926,54.263 337.470,54.355 337.379 C 54.608 337.126,55.573 338.524,55.587 339.164 C 55.594 339.475,56.110 340.195,56.733 340.764 C 57.356 341.334,57.980 342.115,58.120 342.500 C 58.260 342.885,58.651 343.200,58.987 343.200 C 59.324 343.200,59.600 343.376,59.600 343.590 C 59.600 344.092,63.112 345.701,63.579 345.413 C 63.773 345.293,63.992 345.375,64.066 345.594 C 64.140 345.814,64.650 345.967,65.200 345.935 C 65.750 345.903,84.200 345.823,106.200 345.756 C 128.200 345.689,147.010 345.533,148.000 345.410 C 148.990 345.287,150.205 345.187,150.700 345.188 C 151.195 345.190,151.600 344.992,151.600 344.749 C 151.600 344.493,152.021 344.387,152.600 344.498 C 153.150 344.603,153.600 344.540,153.600 344.357 C 153.600 344.174,153.872 344.130,154.205 344.257 C 154.538 344.385,155.078 344.267,155.405 343.996 C 155.732 343.724,156.000 343.635,156.000 343.797 C 156.000 343.959,156.444 343.801,156.986 343.446 C 157.528 343.091,158.229 342.800,158.543 342.800 C 158.857 342.800,159.211 342.548,159.329 342.240 C 159.447 341.932,160.232 341.456,161.072 341.182 C 161.912 340.908,162.690 340.573,162.800 340.437 C 162.910 340.301,163.540 340.008,164.200 339.785 C 164.860 339.563,165.408 339.115,165.418 338.790 C 165.428 338.466,165.626 338.236,165.859 338.280 C 166.091 338.324,166.870 337.753,167.589 337.011 C 168.308 336.269,169.123 335.749,169.399 335.855 C 169.694 335.968,170.012 335.606,170.170 334.977 C 170.318 334.388,170.555 334.022,170.697 334.164 C 170.840 334.306,177.660 327.668,185.855 319.411 C 194.049 311.155,200.944 304.400,201.177 304.400 C 201.410 304.400,201.600 304.212,201.600 303.982 C 201.600 303.514,203.387 301.620,203.882 301.563 C 204.057 301.543,205.507 300.148,207.105 298.463 C 211.771 293.544,266.834 238.400,267.081 238.400 C 267.420 238.400,269.931 235.664,269.754 235.488 C 269.670 235.403,270.051 235.094,270.601 234.800 C 271.150 234.506,271.600 234.046,271.600 233.779 C 271.600 233.512,271.960 233.199,272.400 233.084 C 272.840 232.969,273.200 232.588,273.200 232.237 C 273.200 231.887,273.470 231.600,273.800 231.600 C 274.130 231.600,274.400 231.434,274.400 231.231 C 274.400 231.028,276.920 228.314,280.000 225.200 C 283.080 222.086,285.600 219.639,285.600 219.761 C 285.600 219.884,286.560 219.043,287.732 217.892 C 288.905 216.741,289.794 215.665,289.709 215.500 C 289.623 215.335,289.743 215.200,289.976 215.200 C 290.473 215.200,295.200 210.556,295.200 210.068 C 295.200 209.885,295.644 209.498,296.186 209.207 C 296.729 208.917,297.078 208.527,296.963 208.340 C 296.847 208.153,296.903 208.000,297.087 208.000 C 297.523 208.000,300.151 205.602,299.725 205.593 C 299.546 205.590,299.940 205.232,300.600 204.800 C 301.260 204.367,302.520 203.179,303.400 202.160 C 304.280 201.141,308.600 196.651,313.000 192.181 C 317.400 187.712,322.736 182.288,324.858 180.127 C 326.979 177.967,329.724 175.219,330.958 174.019 C 332.191 172.820,333.200 171.695,333.200 171.519 C 333.200 171.344,333.380 171.200,333.600 171.200 C 333.821 171.200,334.991 170.170,336.200 168.911 C 337.410 167.652,338.400 166.794,338.400 167.004 C 338.400 167.214,338.856 166.714,339.414 165.893 C 339.972 165.072,340.692 164.400,341.014 164.400 C 341.336 164.400,341.600 164.248,341.600 164.062 C 341.600 163.568,349.606 155.438,350.920 154.598 C 351.574 154.179,351.951 153.650,351.827 153.326 C 351.709 153.020,351.880 152.667,352.207 152.542 C 352.533 152.417,352.800 152.140,352.800 151.926 C 352.800 151.712,353.520 150.846,354.400 150.000 C 355.280 149.154,356.000 148.269,356.000 148.031 C 356.000 147.794,356.159 147.600,356.353 147.600 C 356.662 147.600,356.858 147.189,357.404 145.400 C 357.788 144.144,358.845 142.019,359.194 141.804 C 359.417 141.666,359.600 141.203,359.600 140.776 C 359.600 140.349,359.762 140.000,359.961 140.000 C 360.543 140.000,361.226 137.664,360.733 137.359 C 360.479 137.202,360.463 137.002,360.692 136.850 C 361.265 136.470,361.996 134.056,361.740 133.389 C 361.616 133.065,361.720 132.800,361.971 132.800 C 362.304 132.800,362.312 132.583,362.000 132.000 C 361.764 131.559,361.737 131.200,361.939 131.200 C 362.141 131.200,362.339 130.435,362.379 129.500 C 362.612 124.074,362.626 121.755,362.428 121.400 C 362.306 121.180,362.158 120.550,362.101 120.000 C 361.936 118.411,361.755 117.446,361.502 116.800 C 361.061 115.676,360.673 113.802,360.750 113.171 C 360.792 112.825,360.551 112.015,360.216 111.371 C 359.880 110.727,359.604 110.003,359.602 109.762 C 359.601 109.521,359.244 109.002,358.809 108.609 C 358.375 108.215,358.095 107.770,358.188 107.619 C 358.559 107.019,356.428 103.200,355.718 103.194 C 355.108 103.189,355.090 103.129,355.600 102.800 C 356.000 102.542,356.033 102.410,355.700 102.406 C 355.425 102.403,355.200 102.211,355.200 101.981 C 355.200 101.750,354.734 101.130,354.164 100.601 C 353.594 100.073,353.244 99.452,353.387 99.221 C 353.530 98.989,353.371 98.800,353.033 98.800 C 352.695 98.800,352.105 98.305,351.723 97.700 C 351.340 97.095,350.496 96.150,349.846 95.600 C 349.197 95.050,346.941 92.822,344.833 90.648 C 342.725 88.475,340.330 86.025,339.510 85.205 C 338.691 84.384,338.136 83.598,338.277 83.457 C 338.418 83.315,338.298 83.200,338.011 83.200 C 337.723 83.200,335.803 81.488,333.744 79.395 C 331.685 77.302,329.994 75.727,329.986 75.895 C 329.978 76.063,329.753 75.812,329.486 75.337 C 328.954 74.392,323.725 68.800,323.373 68.800 C 323.253 68.800,318.485 64.117,312.778 58.393 C 307.070 52.669,302.400 48.070,302.400 48.173 C 302.400 48.275,301.725 47.739,300.900 46.982 C 300.075 46.224,299.257 45.603,299.083 45.602 C 298.723 45.600,297.851 44.926,296.883 43.900 C 296.520 43.515,295.992 43.200,295.711 43.200 C 295.430 43.200,295.200 43.001,295.200 42.757 C 295.200 42.514,294.964 42.405,294.675 42.516 C 294.387 42.626,293.712 42.380,293.175 41.967 C 292.639 41.555,291.975 41.214,291.700 41.209 C 291.425 41.204,291.198 41.065,291.197 40.900 C 291.191 40.451,286.517 39.081,286.025 39.384 C 285.791 39.529,285.600 39.457,285.600 39.224 C 285.600 38.991,285.180 38.800,284.667 38.800 C 284.153 38.800,283.608 38.675,283.455 38.522 C 282.974 38.041,282.001 38.050,281.987 38.535 C 281.980 38.791,281.724 38.669,281.417 38.264 C 281.039 37.766,280.592 37.612,280.033 37.790 C 279.579 37.934,278.986 37.915,278.715 37.748 C 278.206 37.433,272.907 37.226,272.623 37.510 M275.100 62.905 C 275.375 62.811,275.600 62.963,275.600 63.243 C 275.600 63.535,275.851 63.421,276.187 62.976 C 276.510 62.549,276.780 62.413,276.787 62.674 C 276.795 62.963,277.202 63.074,277.832 62.960 C 278.480 62.842,278.769 62.927,278.608 63.186 C 278.465 63.418,278.701 63.600,279.143 63.600 C 279.578 63.600,279.993 63.777,280.067 63.993 C 280.140 64.209,280.777 64.449,281.481 64.526 C 282.186 64.603,283.086 65.017,283.481 65.448 C 284.680 66.752,286.552 68.240,286.189 67.600 C 286.002 67.270,286.769 67.990,287.892 69.200 C 289.843 71.301,295.598 77.027,321.262 102.400 C 329.074 110.123,332.651 113.923,332.494 114.332 C 332.351 114.703,332.431 114.828,332.703 114.660 C 332.949 114.508,333.255 114.744,333.398 115.194 C 333.539 115.637,333.822 116.000,334.027 116.000 C 334.232 116.000,334.400 116.270,334.400 116.600 C 334.400 116.930,334.689 117.200,335.043 117.200 C 335.423 117.200,335.600 117.424,335.475 117.748 C 335.360 118.049,335.598 118.842,336.004 119.510 C 336.410 120.178,336.635 120.831,336.504 120.962 C 336.374 121.093,336.451 121.200,336.677 121.200 C 337.335 121.200,337.259 129.053,336.596 129.603 C 336.299 129.850,336.123 130.400,336.205 130.826 C 336.287 131.252,336.190 131.600,335.990 131.600 C 335.789 131.600,335.722 131.851,335.839 132.158 C 335.958 132.467,335.643 133.004,335.138 133.358 C 334.634 133.711,334.397 134.005,334.611 134.012 C 334.825 134.019,334.685 134.208,334.300 134.432 C 333.915 134.656,333.600 135.187,333.600 135.611 C 333.600 136.035,333.119 136.697,332.530 137.082 C 331.942 137.468,324.839 144.402,316.746 152.492 C 308.653 160.581,301.918 167.200,301.780 167.200 C 301.642 167.200,297.230 162.880,291.975 157.600 C 286.721 152.320,282.226 148.000,281.987 148.000 C 281.748 148.000,281.617 147.865,281.696 147.700 C 281.774 147.535,281.245 146.809,280.519 146.088 C 279.794 145.366,279.200 144.897,279.200 145.047 C 279.200 145.196,278.255 144.268,277.100 142.984 C 275.324 141.011,260.297 125.948,258.111 123.950 C 257.720 123.593,255.613 121.398,253.428 119.071 C 251.243 116.745,249.347 114.909,249.214 114.991 C 249.081 115.073,248.619 114.700,248.186 114.162 C 247.754 113.623,246.725 112.452,245.900 111.559 C 245.075 110.666,244.400 109.739,244.400 109.501 C 244.400 109.262,244.297 109.170,244.171 109.296 C 243.928 109.539,232.799 98.559,232.802 98.080 C 232.803 97.871,252.912 77.525,263.609 66.909 C 264.103 66.419,264.675 66.122,264.880 66.250 C 265.086 66.377,265.349 66.115,265.466 65.668 C 265.595 65.177,265.901 64.941,266.239 65.070 C 266.548 65.189,266.800 65.076,266.800 64.819 C 266.800 64.563,266.980 64.464,267.200 64.600 C 267.420 64.736,267.600 64.646,267.600 64.400 C 267.600 64.154,267.760 64.051,267.955 64.172 C 268.150 64.293,268.530 64.125,268.800 63.800 C 269.070 63.475,269.458 63.312,269.663 63.439 C 269.868 63.565,270.252 63.493,270.518 63.277 C 271.227 62.702,272.464 62.516,273.600 62.814 C 274.150 62.959,274.825 63.000,275.100 62.905 M224.006 124.934 C 228.922 129.811,232.690 133.855,232.542 134.095 C 232.384 134.349,232.465 134.407,232.738 134.238 C 233.017 134.066,233.200 134.217,233.200 134.619 C 233.200 135.068,233.411 135.205,233.845 135.038 C 234.332 134.851,234.424 134.960,234.223 135.483 C 234.077 135.864,234.088 136.046,234.246 135.887 C 234.664 135.469,236.029 136.822,235.726 137.353 C 235.586 137.599,235.619 137.667,235.799 137.503 C 236.260 137.086,237.246 137.994,236.931 138.545 C 236.789 138.795,236.806 138.880,236.970 138.733 C 237.284 138.451,238.460 139.263,239.673 140.600 C 241.282 142.374,242.399 143.817,242.400 144.124 C 242.400 144.302,242.580 144.336,242.800 144.200 C 243.020 144.064,243.200 144.191,243.200 144.481 C 243.200 144.772,243.681 145.368,244.270 145.805 C 244.858 146.242,245.533 146.830,245.770 147.110 C 247.229 148.841,249.624 151.200,249.923 151.200 C 250.428 151.200,251.646 152.621,251.374 152.892 C 251.249 153.018,251.474 153.093,251.873 153.060 C 252.338 153.022,252.580 153.251,252.545 153.696 C 252.515 154.078,252.651 154.292,252.848 154.170 C 253.045 154.049,253.313 154.230,253.445 154.572 C 253.576 154.915,253.876 155.077,254.110 154.932 C 254.380 154.765,254.439 154.921,254.273 155.355 C 254.128 155.733,254.166 155.944,254.358 155.826 C 254.550 155.707,255.448 156.413,256.353 157.395 C 257.258 158.377,258.458 159.482,259.019 159.850 C 259.608 160.235,259.949 160.756,259.825 161.080 C 259.705 161.392,259.786 161.532,260.008 161.395 C 260.530 161.073,267.291 167.929,266.968 168.452 C 266.831 168.673,267.098 168.953,267.560 169.074 C 268.022 169.194,268.400 169.542,268.400 169.847 C 268.400 170.355,268.907 170.580,269.730 170.437 C 269.911 170.406,269.951 170.556,269.819 170.770 C 269.686 170.984,269.981 171.376,270.474 171.640 C 271.679 172.284,282.561 183.157,283.172 184.326 C 283.556 185.062,283.547 185.388,283.128 185.921 C 281.931 187.442,269.273 200.061,268.011 200.992 C 267.259 201.546,266.776 202.000,266.936 202.000 C 267.097 202.000,266.817 202.426,266.314 202.947 C 265.811 203.468,265.310 203.857,265.200 203.811 C 265.090 203.765,264.685 204.058,264.300 204.463 C 263.915 204.869,263.696 205.200,263.814 205.200 C 263.932 205.200,263.617 205.626,263.114 206.147 C 262.611 206.668,262.078 207.026,261.929 206.941 C 261.780 206.857,261.552 207.122,261.422 207.530 C 261.293 207.938,260.760 208.501,260.237 208.780 C 259.715 209.059,259.059 209.715,258.780 210.237 C 258.501 210.760,257.938 211.293,257.530 211.422 C 257.122 211.552,256.857 211.780,256.941 211.929 C 257.026 212.078,256.668 212.611,256.147 213.114 C 255.626 213.617,255.200 213.932,255.200 213.814 C 255.200 213.696,254.869 213.915,254.463 214.300 C 254.058 214.685,253.765 215.090,253.811 215.200 C 253.943 215.515,252.105 217.172,251.877 216.944 C 251.765 216.832,251.564 217.084,251.430 217.506 C 251.296 217.927,250.760 218.501,250.237 218.780 C 249.715 219.059,249.059 219.715,248.780 220.237 C 248.501 220.760,247.938 221.293,247.530 221.422 C 247.122 221.552,246.857 221.780,246.941 221.929 C 247.026 222.078,246.668 222.611,246.147 223.114 C 245.626 223.617,245.200 223.923,245.200 223.794 C 245.200 223.513,243.636 225.194,242.827 226.343 C 242.512 226.791,242.120 227.074,241.956 226.973 C 241.792 226.871,241.552 227.122,241.422 227.530 C 241.293 227.938,240.760 228.501,240.237 228.780 C 239.715 229.059,239.059 229.715,238.780 230.237 C 238.501 230.760,237.938 231.293,237.530 231.422 C 237.122 231.552,236.848 231.780,236.920 231.929 C 236.992 232.078,236.635 232.599,236.126 233.086 C 235.617 233.573,235.200 233.888,235.200 233.786 C 235.200 233.684,234.869 233.915,234.463 234.300 C 234.058 234.685,233.765 235.090,233.811 235.200 C 233.943 235.515,232.105 237.172,231.877 236.944 C 231.765 236.832,231.564 237.084,231.430 237.506 C 231.296 237.927,230.760 238.501,230.237 238.780 C 229.715 239.059,229.059 239.715,228.780 240.237 C 228.501 240.760,227.938 241.293,227.530 241.422 C 227.122 241.552,226.857 241.780,226.941 241.929 C 227.026 242.078,226.668 242.611,226.147 243.114 C 225.626 243.617,225.200 243.922,225.200 243.792 C 225.200 243.662,224.571 244.240,223.802 245.078 C 223.033 245.915,222.403 246.746,222.402 246.924 C 222.401 247.102,222.233 247.144,222.029 247.018 C 221.825 246.892,221.543 247.151,221.402 247.594 C 221.261 248.037,221.014 248.400,220.852 248.400 C 220.691 248.400,219.725 249.210,218.707 250.200 C 217.688 251.190,216.957 252.000,217.081 252.000 C 217.206 252.000,216.791 252.405,216.158 252.900 C 214.739 254.011,213.527 255.200,213.814 255.200 C 213.932 255.200,213.617 255.626,213.114 256.147 C 212.611 256.668,212.110 257.068,212.000 257.035 C 211.890 257.003,210.697 258.106,209.348 259.488 C 207.999 260.870,206.971 262.000,207.062 262.000 C 207.153 262.000,206.817 262.426,206.314 262.947 C 205.811 263.468,205.265 263.818,205.100 263.724 C 204.935 263.630,204.800 263.753,204.800 263.997 C 204.800 264.242,193.280 275.965,179.200 290.050 C 165.120 304.134,153.600 315.825,153.600 316.029 C 153.600 316.233,153.364 316.400,153.075 316.400 C 152.786 316.400,152.031 316.941,151.398 317.602 C 150.711 318.320,149.985 318.722,149.601 318.600 C 149.246 318.488,148.606 318.721,148.178 319.118 C 147.116 320.104,146.002 320.497,145.994 319.887 C 145.990 319.546,145.885 319.562,145.644 319.943 C 145.420 320.296,144.986 320.386,144.400 320.200 C 143.905 320.043,143.595 320.069,143.712 320.257 C 144.132 320.936,80.265 320.679,79.709 320.000 C 79.101 319.259,78.994 256.975,79.599 256.601 C 79.826 256.460,79.826 255.995,79.600 255.400 C 79.360 254.769,79.375 254.339,79.643 254.174 C 79.869 254.034,79.958 253.667,79.840 253.360 C 79.722 253.052,79.799 252.800,80.013 252.800 C 80.226 252.800,80.400 252.440,80.400 252.000 C 80.400 251.560,80.580 251.200,80.800 251.200 C 81.020 251.200,81.200 250.921,81.200 250.581 C 81.200 250.240,81.695 249.506,82.300 248.949 C 82.905 248.391,83.130 248.071,82.800 248.236 C 82.200 248.538,83.380 246.903,84.176 246.330 C 84.383 246.181,95.373 235.246,108.600 222.030 C 121.827 208.813,132.863 198.000,133.124 198.000 C 133.386 198.000,133.600 197.825,133.600 197.611 C 133.600 197.396,134.415 196.406,135.411 195.411 C 136.406 194.415,137.396 193.600,137.611 193.600 C 137.825 193.600,138.000 193.434,138.000 193.232 C 138.000 193.030,139.094 191.770,140.432 190.432 C 141.770 189.094,143.030 188.000,143.232 188.000 C 143.434 188.000,143.600 187.825,143.600 187.611 C 143.600 187.396,144.415 186.406,145.411 185.411 C 146.406 184.415,147.396 183.600,147.611 183.600 C 147.825 183.600,148.000 183.449,148.000 183.264 C 148.000 183.079,149.109 181.819,150.464 180.464 C 151.819 179.109,153.079 178.000,153.264 178.000 C 153.449 178.000,153.600 177.825,153.600 177.611 C 153.600 177.396,154.415 176.406,155.411 175.411 C 156.406 174.415,157.396 173.600,157.611 173.600 C 157.825 173.600,158.000 173.430,158.000 173.222 C 158.000 172.881,160.406 170.370,162.860 168.149 C 163.377 167.681,164.552 166.466,165.472 165.449 C 166.392 164.432,167.337 163.600,167.572 163.600 C 167.807 163.600,168.000 163.434,168.000 163.232 C 168.000 163.030,169.094 161.770,170.432 160.432 C 171.770 159.094,173.030 158.000,173.232 158.000 C 173.434 158.000,173.600 157.811,173.600 157.581 C 173.600 157.350,174.455 156.370,175.500 155.403 C 176.545 154.436,177.557 153.476,177.748 153.270 C 178.201 152.784,182.664 148.320,183.218 147.800 C 183.452 147.580,184.436 146.545,185.403 145.500 C 186.370 144.455,187.350 143.600,187.581 143.600 C 187.811 143.600,188.000 143.426,188.000 143.214 C 188.000 142.758,192.821 138.000,193.283 138.000 C 193.457 138.000,193.600 137.802,193.600 137.560 C 193.600 136.997,214.472 115.957,214.891 116.097 C 215.064 116.155,219.166 120.131,224.006 124.934 M196.800 187.725 C 196.800 187.904,196.395 187.994,195.900 187.925 C 195.345 187.848,195.038 187.991,195.100 188.300 C 195.155 188.575,194.930 188.800,194.600 188.800 C 194.270 188.800,194.000 188.991,194.000 189.224 C 194.000 189.457,193.806 189.527,193.568 189.380 C 193.330 189.233,192.870 189.493,192.545 189.957 C 192.220 190.420,191.684 190.800,191.354 190.800 C 191.023 190.800,190.852 190.961,190.974 191.158 C 191.096 191.355,190.917 191.623,190.577 191.754 C 190.170 191.909,190.044 191.821,190.209 191.495 C 190.347 191.223,190.176 191.349,189.830 191.776 C 189.483 192.204,189.200 192.709,189.200 192.900 C 189.200 193.091,189.040 193.149,188.845 193.028 C 188.650 192.907,188.515 193.122,188.545 193.504 C 188.583 193.985,188.320 194.190,187.695 194.168 C 186.972 194.142,186.839 194.294,187.037 194.918 C 187.174 195.348,187.131 195.616,186.943 195.514 C 186.616 195.336,185.158 196.588,185.367 196.867 C 185.422 196.940,185.119 197.333,184.694 197.739 C 183.939 198.462,183.926 198.457,184.156 197.539 C 184.292 196.997,184.140 197.149,183.795 197.900 C 183.466 198.615,183.008 199.200,182.775 199.200 C 182.543 199.200,182.483 199.411,182.642 199.668 C 182.835 199.981,182.715 200.053,182.278 199.885 C 181.919 199.748,181.502 199.835,181.351 200.079 C 181.185 200.348,181.259 200.411,181.538 200.238 C 182.275 199.783,182.072 200.611,181.269 201.338 C 180.427 202.100,179.818 202.218,180.238 201.538 C 180.411 201.259,180.348 201.185,180.079 201.351 C 179.835 201.502,179.723 201.855,179.831 202.136 C 180.041 202.684,177.038 205.705,176.660 205.327 C 176.536 205.202,175.926 205.528,175.305 206.050 C 174.172 207.004,174.000 207.260,174.000 208.000 C 174.000 208.220,173.865 208.355,173.700 208.300 C 173.363 208.188,171.600 209.847,171.600 210.276 C 171.600 210.428,166.405 215.783,160.055 222.176 C 147.219 235.100,141.067 241.463,140.867 242.026 C 140.793 242.232,140.485 242.400,140.181 242.400 C 139.517 242.400,138.664 243.856,139.005 244.408 C 139.138 244.624,138.990 244.800,138.675 244.800 C 137.831 244.800,136.898 251.030,137.566 252.200 C 137.692 252.420,137.802 252.984,137.810 253.454 C 137.819 253.924,138.035 254.560,138.290 254.867 C 138.545 255.175,138.944 255.926,139.176 256.537 C 139.408 257.148,139.779 257.537,139.999 257.400 C 140.220 257.264,140.400 257.352,140.400 257.596 C 140.400 258.194,142.758 260.510,144.000 261.131 C 144.550 261.406,145.450 261.889,146.000 262.204 C 146.550 262.519,147.050 262.631,147.112 262.453 C 147.173 262.276,148.073 262.272,149.112 262.446 C 150.829 262.733,154.638 262.212,155.200 261.613 C 155.993 260.768,156.937 260.230,156.627 260.800 C 156.448 261.130,156.909 260.724,157.651 259.897 C 158.393 259.071,159.220 258.396,159.489 258.397 C 160.078 258.401,168.800 249.900,168.800 249.323 C 168.800 248.515,186.332 231.111,186.834 231.421 C 187.154 231.619,187.221 231.557,187.027 231.244 C 186.864 230.981,186.949 230.503,187.215 230.182 C 187.805 229.471,188.562 229.405,188.154 230.100 C 187.992 230.375,189.599 228.890,191.725 226.800 C 193.850 224.710,195.592 222.775,195.595 222.500 C 195.598 222.225,195.735 222.045,195.900 222.099 C 196.312 222.235,200.000 218.723,200.000 218.195 C 200.000 217.508,203.815 213.951,204.188 214.290 C 204.375 214.461,204.415 214.401,204.276 214.158 C 204.138 213.915,204.469 213.299,205.012 212.788 C 205.556 212.278,206.000 211.989,206.000 212.146 C 206.000 212.303,206.251 212.199,206.558 211.916 C 206.865 211.632,207.047 211.285,206.962 211.145 C 206.789 210.857,207.995 209.760,208.361 209.874 C 208.493 209.914,208.548 209.695,208.485 209.386 C 208.422 209.078,208.737 208.596,209.185 208.316 C 209.633 208.037,210.000 207.581,210.000 207.304 C 210.000 207.027,210.281 206.800,210.624 206.800 C 210.967 206.800,211.146 206.636,211.022 206.436 C 210.703 205.919,211.212 204.760,211.642 205.026 C 211.839 205.148,212.000 204.787,212.000 204.224 C 212.000 203.661,212.135 203.200,212.300 203.200 C 212.752 203.200,212.534 196.998,212.050 196.093 C 211.818 195.660,211.757 195.163,211.914 194.988 C 212.071 194.814,211.980 194.798,211.712 194.952 C 211.396 195.134,211.125 194.842,210.946 194.128 C 210.794 193.521,210.249 192.570,209.735 192.016 C 209.221 191.462,208.800 190.883,208.800 190.731 C 208.800 190.579,208.437 190.339,207.994 190.198 C 207.551 190.057,207.279 189.795,207.391 189.615 C 207.502 189.435,206.967 189.170,206.202 189.027 C 205.437 188.883,204.854 188.557,204.906 188.302 C 204.958 188.046,204.730 187.811,204.400 187.780 C 204.070 187.748,203.710 187.689,203.600 187.648 C 202.905 187.391,196.799 187.461,196.800 187.725 " stroke="none" fill="#343434" fill-rule="evenodd"></path><path id="path1" d="M272.200 36.691 C 269.369 36.983,263.392 38.073,263.013 38.367 C 262.786 38.543,262.015 38.798,261.300 38.934 C 260.585 39.069,259.200 39.544,258.222 39.990 C 257.244 40.435,256.367 40.800,256.272 40.800 C 255.522 40.800,252.415 42.962,252.813 43.208 C 253.091 43.380,254.040 43.006,255.045 42.328 C 256.006 41.679,256.942 41.241,257.125 41.354 C 257.308 41.467,257.939 41.309,258.529 41.003 C 259.118 40.698,259.600 40.555,259.600 40.686 C 259.600 40.817,259.960 40.598,260.400 40.200 C 260.840 39.802,261.200 39.615,261.200 39.784 C 261.200 39.953,261.605 39.830,262.100 39.509 C 263.062 38.886,264.894 38.289,266.200 38.172 C 266.640 38.133,267.090 38.058,267.200 38.006 C 268.068 37.592,278.431 37.327,278.669 37.712 C 278.789 37.906,279.337 37.952,279.886 37.814 C 280.591 37.637,281.046 37.775,281.430 38.282 C 281.729 38.677,281.980 38.791,281.987 38.535 C 282.001 38.050,282.974 38.041,283.455 38.522 C 283.608 38.675,284.153 38.800,284.667 38.800 C 285.180 38.800,285.600 38.991,285.600 39.224 C 285.600 39.457,285.791 39.529,286.025 39.384 C 286.517 39.081,291.191 40.451,291.197 40.900 C 291.198 41.065,291.425 41.204,291.700 41.209 C 291.975 41.214,292.639 41.555,293.175 41.967 C 293.712 42.380,294.387 42.626,294.675 42.516 C 294.964 42.405,295.200 42.514,295.200 42.757 C 295.200 43.001,295.430 43.200,295.711 43.200 C 295.992 43.200,296.520 43.515,296.883 43.900 C 297.851 44.926,298.723 45.600,299.083 45.602 C 299.257 45.603,300.075 46.224,300.900 46.982 C 301.725 47.739,302.400 48.275,302.400 48.173 C 302.400 48.070,307.070 52.669,312.778 58.393 C 318.485 64.117,323.253 68.800,323.373 68.800 C 323.725 68.800,328.954 74.392,329.486 75.337 C 329.753 75.812,329.978 76.063,329.986 75.895 C 329.994 75.727,331.685 77.302,333.744 79.395 C 335.803 81.488,337.723 83.200,338.011 83.200 C 338.298 83.200,338.418 83.315,338.277 83.457 C 338.136 83.598,338.691 84.384,339.510 85.205 C 340.330 86.025,342.725 88.475,344.833 90.648 C 346.941 92.822,349.197 95.050,349.846 95.600 C 350.496 96.150,351.340 97.095,351.723 97.700 C 352.105 98.305,352.695 98.800,353.033 98.800 C 353.371 98.800,353.530 98.989,353.387 99.221 C 353.244 99.452,353.594 100.073,354.164 100.601 C 354.734 101.130,355.200 101.750,355.200 101.981 C 355.200 102.211,355.425 102.403,355.700 102.406 C 356.033 102.410,356.000 102.542,355.600 102.800 C 355.090 103.129,355.108 103.189,355.718 103.194 C 356.428 103.200,358.559 107.019,358.188 107.619 C 358.095 107.770,358.375 108.215,358.809 108.609 C 359.244 109.002,359.601 109.521,359.602 109.762 C 359.604 110.003,359.880 110.727,360.216 111.371 C 360.551 112.015,360.792 112.825,360.750 113.171 C 360.673 113.802,361.061 115.676,361.502 116.800 C 361.732 117.387,361.896 118.286,362.103 120.100 C 362.159 120.595,362.306 121.180,362.428 121.400 C 362.626 121.755,362.612 124.074,362.379 129.500 C 362.339 130.435,362.141 131.200,361.939 131.200 C 361.737 131.200,361.764 131.559,362.000 132.000 C 362.312 132.583,362.304 132.800,361.971 132.800 C 361.720 132.800,361.616 133.065,361.740 133.389 C 361.996 134.056,361.265 136.470,360.692 136.850 C 360.459 137.004,360.467 137.194,360.712 137.346 C 361.445 137.799,361.939 136.612,362.598 132.812 C 364.870 119.717,361.194 106.999,352.200 96.836 C 350.620 95.051,304.925 49.353,303.167 47.800 C 294.581 40.216,281.954 35.687,272.200 36.691 M250.295 44.264 C 249.473 44.849,248.800 45.563,248.800 45.851 C 248.800 46.139,248.552 46.280,248.248 46.163 C 247.569 45.903,65.069 228.265,65.428 228.845 C 65.741 229.351,66.800 228.507,66.800 227.751 C 66.800 227.448,66.935 227.200,67.100 227.199 C 67.552 227.198,95.200 199.640,95.200 199.190 C 95.200 198.975,95.386 198.800,95.613 198.800 C 95.841 198.800,96.651 198.176,97.413 197.413 C 98.176 196.651,98.800 195.841,98.800 195.613 C 98.800 195.386,98.978 195.200,99.197 195.200 C 99.415 195.200,100.138 194.615,100.805 193.900 C 104.107 190.356,117.113 177.426,117.900 176.905 C 118.395 176.577,118.800 176.059,118.800 175.754 C 118.800 175.449,118.974 175.200,119.186 175.200 C 119.399 175.200,120.839 173.934,122.386 172.386 C 123.934 170.839,125.200 169.399,125.200 169.186 C 125.200 168.974,125.398 168.800,125.640 168.800 C 125.882 168.800,126.692 168.188,127.440 167.440 C 128.188 166.692,128.800 165.882,128.800 165.640 C 128.800 165.398,128.974 165.200,129.186 165.200 C 129.399 165.200,130.839 163.934,132.386 162.386 C 133.934 160.839,135.200 159.399,135.200 159.186 C 135.200 158.974,135.398 158.800,135.640 158.800 C 135.882 158.800,136.692 158.188,137.440 157.440 C 138.188 156.692,138.800 155.882,138.800 155.640 C 138.800 155.398,139.070 155.200,139.400 155.200 C 139.730 155.200,140.000 155.049,140.000 154.865 C 140.000 154.680,141.355 153.195,143.010 151.565 C 144.666 149.934,146.601 148.015,147.310 147.300 C 148.020 146.586,150.271 144.336,152.314 142.300 C 154.357 140.265,156.607 138.003,157.314 137.274 C 158.021 136.544,158.931 135.644,159.335 135.274 C 162.196 132.650,165.200 129.541,165.200 129.203 C 165.200 128.982,165.386 128.800,165.613 128.800 C 165.841 128.800,166.651 128.176,167.413 127.413 C 168.176 126.651,168.800 125.841,168.800 125.613 C 168.800 125.386,168.979 125.200,169.197 125.200 C 169.681 125.200,175.200 119.635,175.200 119.147 C 175.200 118.956,175.398 118.800,175.640 118.800 C 176.212 118.800,178.800 116.212,178.800 115.640 C 178.800 115.398,178.968 115.200,179.174 115.200 C 179.379 115.200,180.774 113.934,182.274 112.387 C 183.773 110.840,188.600 105.980,193.000 101.588 C 237.688 56.976,246.791 47.842,246.951 47.452 C 247.064 47.176,247.149 47.215,247.168 47.551 C 247.200 48.093,250.466 45.367,251.523 43.917 C 252.218 42.963,252.061 43.008,250.295 44.264 M271.800 62.719 C 271.360 62.811,270.783 63.062,270.518 63.277 C 270.252 63.493,269.868 63.565,269.663 63.439 C 269.458 63.312,269.070 63.475,268.800 63.800 C 268.530 64.125,268.150 64.293,267.955 64.172 C 267.760 64.051,267.600 64.154,267.600 64.400 C 267.600 64.646,267.420 64.736,267.200 64.600 C 266.980 64.464,266.800 64.563,266.800 64.819 C 266.800 65.076,266.548 65.189,266.239 65.070 C 265.901 64.941,265.595 65.177,265.466 65.668 C 265.349 66.115,265.086 66.377,264.880 66.250 C 264.675 66.122,264.103 66.419,263.609 66.909 C 252.912 77.525,232.803 97.871,232.802 98.080 C 232.799 98.559,243.928 109.539,244.171 109.296 C 244.297 109.170,244.400 109.262,244.400 109.501 C 244.400 109.739,245.075 110.666,245.900 111.559 C 246.725 112.452,247.754 113.623,248.186 114.162 C 248.619 114.700,249.081 115.073,249.214 114.991 C 249.347 114.909,251.243 116.745,253.428 119.071 C 255.613 121.398,257.720 123.593,258.111 123.950 C 260.297 125.948,275.324 141.011,277.100 142.984 C 278.255 144.268,279.200 145.196,279.200 145.047 C 279.200 144.897,279.794 145.366,280.519 146.088 C 281.245 146.809,281.774 147.535,281.696 147.700 C 281.617 147.865,281.748 148.000,281.987 148.000 C 282.226 148.000,286.721 152.320,291.975 157.600 C 297.230 162.880,301.642 167.200,301.780 167.200 C 301.918 167.200,308.653 160.581,316.746 152.492 C 324.839 144.402,331.942 137.468,332.530 137.082 C 333.154 136.674,333.603 136.010,333.606 135.491 C 333.611 134.749,333.684 134.700,334.044 135.200 C 334.408 135.706,334.440 135.691,334.250 135.100 C 334.126 134.712,334.228 134.400,334.479 134.400 C 334.729 134.400,334.814 134.281,334.669 134.136 C 334.524 133.991,334.776 133.612,335.229 133.294 C 335.683 132.977,335.957 132.466,335.839 132.158 C 335.722 131.851,335.769 131.600,335.946 131.600 C 336.122 131.600,336.267 131.330,336.267 131.000 C 336.267 129.802,335.282 130.437,335.026 131.800 C 334.882 132.570,334.604 133.200,334.409 133.200 C 334.214 133.200,333.934 133.579,333.787 134.042 C 333.530 134.851,302.503 166.000,301.954 166.000 C 301.605 166.000,234.000 98.378,234.000 98.029 C 234.000 97.476,265.132 66.476,265.946 66.217 C 266.416 66.068,266.800 65.793,266.800 65.605 C 266.800 65.417,267.385 65.137,268.100 64.982 C 268.815 64.826,269.515 64.520,269.655 64.300 C 269.795 64.080,271.190 63.808,272.755 63.696 C 274.320 63.584,275.600 63.322,275.600 63.113 C 275.600 62.904,275.375 62.811,275.100 62.905 C 274.825 63.000,274.150 62.959,273.600 62.814 C 273.050 62.670,272.240 62.627,271.800 62.719 M276.292 62.642 C 275.698 63.235,276.040 63.536,277.610 63.802 C 279.600 64.138,284.133 66.434,285.031 67.561 C 285.298 67.896,285.689 67.992,286.001 67.799 C 286.348 67.585,286.427 67.633,286.235 67.943 C 286.055 68.235,294.664 77.124,309.163 91.618 C 331.385 113.832,334.304 116.948,334.999 119.200 C 335.169 119.750,335.509 120.328,335.754 120.485 C 336.039 120.668,336.200 122.419,336.200 125.351 C 336.200 128.803,336.315 129.835,336.668 129.543 C 337.267 129.047,337.275 121.200,336.677 121.200 C 336.451 121.200,336.374 121.093,336.504 120.962 C 336.635 120.831,336.410 120.178,336.004 119.510 C 335.598 118.842,335.360 118.049,335.475 117.748 C 335.600 117.424,335.423 117.200,335.043 117.200 C 334.689 117.200,334.400 116.930,334.400 116.600 C 334.400 116.270,334.232 116.000,334.027 116.000 C 333.822 116.000,333.539 115.637,333.398 115.194 C 333.255 114.744,332.949 114.508,332.703 114.660 C 332.431 114.828,332.351 114.703,332.494 114.332 C 332.651 113.923,329.074 110.125,321.262 102.404 C 314.958 96.173,305.504 86.828,300.254 81.638 C 295.004 76.447,289.696 71.120,288.458 69.800 C 287.221 68.480,286.097 67.436,285.961 67.481 C 285.826 67.525,285.014 66.911,284.157 66.116 C 283.272 65.293,282.082 64.608,281.400 64.528 C 280.740 64.450,280.140 64.209,280.067 63.993 C 279.993 63.777,279.578 63.600,279.143 63.600 C 278.701 63.600,278.465 63.418,278.608 63.186 C 278.768 62.928,278.486 62.841,277.855 62.956 C 277.300 63.056,276.787 62.961,276.715 62.744 C 276.642 62.527,276.452 62.481,276.292 62.642 M204.088 126.556 C 198.320 132.367,193.600 137.318,193.600 137.560 C 193.600 137.802,193.457 138.000,193.283 138.000 C 192.821 138.000,188.000 142.758,188.000 143.214 C 188.000 143.426,187.811 143.600,187.581 143.600 C 187.350 143.600,186.370 144.455,185.403 145.500 C 184.436 146.545,183.452 147.580,183.218 147.800 C 182.664 148.320,178.201 152.784,177.748 153.270 C 177.557 153.476,176.545 154.436,175.500 155.403 C 174.455 156.370,173.600 157.350,173.600 157.581 C 173.600 157.811,173.434 158.000,173.232 158.000 C 173.030 158.000,171.770 159.094,170.432 160.432 C 169.094 161.770,168.000 163.030,168.000 163.232 C 168.000 163.434,167.807 163.600,167.572 163.600 C 167.337 163.600,166.392 164.432,165.472 165.449 C 164.552 166.466,163.377 167.681,162.860 168.149 C 160.406 170.370,158.000 172.881,158.000 173.222 C 158.000 173.430,157.825 173.600,157.611 173.600 C 157.396 173.600,156.406 174.415,155.411 175.411 C 154.415 176.406,153.600 177.396,153.600 177.611 C 153.600 177.825,153.449 178.000,153.264 178.000 C 153.079 178.000,151.819 179.109,150.464 180.464 C 149.109 181.819,148.000 183.079,148.000 183.264 C 148.000 183.449,147.825 183.600,147.611 183.600 C 147.396 183.600,146.406 184.415,145.411 185.411 C 144.415 186.406,143.600 187.396,143.600 187.611 C 143.600 187.825,143.434 188.000,143.232 188.000 C 143.030 188.000,141.770 189.094,140.432 190.432 C 139.094 191.770,138.000 193.030,138.000 193.232 C 138.000 193.434,137.825 193.600,137.611 193.600 C 137.396 193.600,136.406 194.415,135.411 195.411 C 134.415 196.406,133.600 197.396,133.600 197.611 C 133.600 197.825,133.386 198.000,133.124 198.000 C 132.863 198.000,121.776 208.845,108.487 222.100 C 79.951 250.563,82.396 248.070,82.637 248.460 C 82.744 248.632,82.464 249.003,82.016 249.283 C 81.567 249.563,81.200 250.109,81.200 250.496 C 81.200 250.883,81.020 251.200,80.800 251.200 C 80.580 251.200,80.400 251.560,80.400 252.000 C 80.400 252.440,80.226 252.800,80.013 252.800 C 79.799 252.800,79.722 253.052,79.840 253.360 C 79.958 253.667,79.869 254.034,79.643 254.174 C 79.375 254.339,79.360 254.769,79.600 255.400 C 79.826 255.995,79.826 256.460,79.599 256.601 C 78.994 256.975,79.101 319.259,79.709 320.000 C 80.265 320.679,144.132 320.936,143.712 320.257 C 143.595 320.069,143.905 320.043,144.400 320.200 C 144.986 320.386,145.420 320.296,145.644 319.943 C 145.885 319.562,145.990 319.546,145.994 319.887 C 146.001 320.471,147.130 320.112,148.000 319.250 C 148.532 318.723,148.486 318.696,147.600 319.014 C 147.050 319.211,131.705 319.428,113.500 319.497 L 80.400 319.622 80.400 287.631 C 80.400 257.182,80.565 251.983,81.555 251.200 C 81.694 251.090,82.279 250.280,82.855 249.400 C 83.431 248.520,113.319 218.370,149.274 182.400 L 214.646 117.000 248.623 151.077 C 267.310 169.820,282.646 185.226,282.703 185.314 C 282.760 185.401,279.265 189.012,274.937 193.337 C 270.608 197.662,267.180 201.313,267.318 201.451 C 267.536 201.669,281.723 187.741,283.132 185.926 C 283.548 185.390,283.556 185.060,283.172 184.326 C 282.561 183.157,271.679 172.284,270.474 171.640 C 269.981 171.376,269.686 170.984,269.819 170.770 C 269.951 170.556,269.911 170.406,269.730 170.437 C 268.907 170.580,268.400 170.355,268.400 169.847 C 268.400 169.542,268.022 169.194,267.560 169.074 C 267.098 168.953,266.831 168.673,266.968 168.452 C 267.291 167.929,260.530 161.073,260.008 161.395 C 259.786 161.532,259.705 161.392,259.825 161.080 C 259.949 160.756,259.608 160.235,259.019 159.850 C 258.458 159.482,257.258 158.377,256.353 157.395 C 255.448 156.413,254.550 155.707,254.358 155.826 C 254.166 155.944,254.128 155.733,254.273 155.355 C 254.439 154.921,254.380 154.765,254.110 154.932 C 253.876 155.077,253.576 154.915,253.445 154.572 C 253.313 154.230,253.045 154.049,252.848 154.170 C 252.651 154.292,252.515 154.078,252.545 153.696 C 252.580 153.251,252.338 153.022,251.873 153.060 C 251.474 153.093,251.249 153.018,251.374 152.892 C 251.646 152.621,250.428 151.200,249.923 151.200 C 249.624 151.200,247.229 148.841,245.770 147.110 C 245.533 146.830,244.858 146.242,244.270 145.805 C 243.681 145.368,243.200 144.772,243.200 144.481 C 243.200 144.191,243.020 144.064,242.800 144.200 C 242.580 144.336,242.397 144.302,242.393 144.124 C 242.383 143.683,240.414 141.229,239.262 140.221 C 238.747 139.769,237.867 138.910,237.306 138.311 C 236.746 137.712,236.105 137.335,235.882 137.473 C 235.659 137.611,235.590 137.540,235.729 137.315 C 236.037 136.817,234.651 135.482,234.246 135.887 C 234.088 136.046,234.077 135.864,234.223 135.483 C 234.424 134.960,234.332 134.851,233.845 135.038 C 233.411 135.205,233.200 135.068,233.200 134.619 C 233.200 134.217,233.017 134.066,232.738 134.238 C 232.465 134.407,232.384 134.349,232.542 134.095 C 232.770 133.726,215.768 116.389,214.891 116.097 C 214.718 116.039,209.857 120.746,204.088 126.556 M360.640 138.981 C 360.500 139.542,360.208 140.000,359.992 140.000 C 359.777 140.000,359.600 140.349,359.600 140.776 C 359.600 141.203,359.417 141.666,359.194 141.804 C 358.845 142.019,357.788 144.144,357.404 145.400 C 356.858 147.189,356.662 147.600,356.353 147.600 C 356.159 147.600,356.000 147.794,356.000 148.031 C 356.000 148.269,355.280 149.154,354.400 150.000 C 353.520 150.846,352.800 151.712,352.800 151.926 C 352.800 152.140,352.533 152.417,352.207 152.542 C 351.880 152.667,351.709 153.020,351.827 153.326 C 351.951 153.650,351.574 154.179,350.920 154.598 C 349.606 155.438,341.600 163.568,341.600 164.062 C 341.600 164.248,341.336 164.400,341.014 164.400 C 340.692 164.400,339.972 165.072,339.414 165.893 C 338.856 166.714,338.400 167.214,338.400 167.004 C 338.400 166.794,337.410 167.652,336.200 168.911 C 334.991 170.170,333.821 171.200,333.600 171.200 C 333.380 171.200,333.200 171.344,333.200 171.519 C 333.200 171.695,332.191 172.820,330.958 174.019 C 329.724 175.219,326.979 177.967,324.858 180.127 C 322.736 182.288,317.400 187.712,313.000 192.181 C 308.600 196.651,304.280 201.141,303.400 202.160 C 302.520 203.179,301.260 204.367,300.600 204.800 C 299.940 205.232,299.546 205.590,299.725 205.593 C 300.151 205.602,297.523 208.000,297.087 208.000 C 296.903 208.000,296.847 208.153,296.963 208.340 C 297.078 208.527,296.729 208.917,296.186 209.207 C 295.644 209.498,295.200 209.885,295.200 210.068 C 295.200 210.556,290.473 215.200,289.976 215.200 C 289.743 215.200,289.623 215.335,289.709 215.500 C 289.794 215.665,288.905 216.741,287.732 217.892 C 286.560 219.043,285.600 219.884,285.600 219.761 C 285.600 219.639,283.080 222.086,280.000 225.200 C 276.920 228.314,274.400 231.028,274.400 231.231 C 274.400 231.434,274.151 231.600,273.847 231.600 C 273.542 231.600,273.199 231.960,273.084 232.400 C 272.969 232.840,272.588 233.200,272.237 233.200 C 271.887 233.200,271.600 233.440,271.600 233.732 C 271.600 234.025,271.150 234.506,270.601 234.800 C 270.051 235.094,269.670 235.403,269.754 235.488 C 269.931 235.664,267.420 238.400,267.081 238.400 C 266.834 238.400,211.771 293.544,207.105 298.463 C 205.507 300.148,204.057 301.543,203.882 301.563 C 203.387 301.620,201.600 303.514,201.600 303.982 C 201.600 304.212,201.410 304.400,201.177 304.400 C 200.944 304.400,194.049 311.155,185.855 319.411 C 177.660 327.668,170.840 334.306,170.697 334.164 C 170.555 334.022,170.318 334.388,170.170 334.977 C 170.012 335.606,169.694 335.968,169.399 335.855 C 169.123 335.749,168.308 336.269,167.589 337.011 C 166.870 337.753,166.091 338.324,165.859 338.280 C 165.626 338.236,165.428 338.466,165.418 338.790 C 165.408 339.115,164.860 339.563,164.200 339.785 C 163.540 340.008,162.910 340.301,162.800 340.437 C 162.690 340.573,161.912 340.908,161.072 341.182 C 160.232 341.456,159.447 341.932,159.329 342.240 C 159.211 342.548,158.819 342.806,158.457 342.813 C 158.096 342.820,157.440 343.108,157.000 343.454 C 155.047 344.989,161.794 342.078,164.594 340.178 C 165.387 339.640,166.208 339.200,166.418 339.200 C 166.628 339.200,166.800 339.059,166.800 338.886 C 166.800 338.714,167.343 338.252,168.006 337.860 C 169.359 337.061,354.000 152.555,354.000 152.002 C 354.000 151.808,354.531 151.068,355.180 150.357 C 357.118 148.236,361.701 138.768,361.088 138.155 C 360.982 138.049,360.781 138.421,360.640 138.981 M197.033 186.722 C 195.781 187.020,195.117 188.000,196.167 188.000 C 196.515 188.000,196.800 187.865,196.800 187.700 C 196.799 187.335,203.013 187.437,203.620 187.813 C 204.224 188.186,204.636 187.676,204.135 187.175 C 203.625 186.665,198.616 186.346,197.033 186.722 M193.900 187.876 C 193.515 187.976,193.200 188.213,193.200 188.402 C 193.200 188.591,192.874 188.849,192.476 188.976 C 191.643 189.240,187.200 193.507,187.200 194.043 C 187.200 194.958,188.458 194.250,189.118 192.963 C 189.524 192.173,189.978 191.543,190.128 191.563 C 190.941 191.674,191.221 191.557,191.000 191.200 C 190.864 190.980,191.023 190.800,191.354 190.800 C 191.684 190.800,192.220 190.420,192.545 189.957 C 192.870 189.493,193.330 189.233,193.568 189.380 C 193.806 189.527,194.000 189.457,194.000 189.224 C 194.000 188.991,194.240 188.800,194.533 188.800 C 194.827 188.800,195.067 188.530,195.067 188.200 C 195.067 187.870,194.962 187.621,194.833 187.646 C 194.705 187.672,194.285 187.775,193.900 187.876 M204.933 188.189 C 204.933 188.552,205.458 188.887,206.263 189.038 C 206.995 189.175,207.502 189.435,207.391 189.615 C 207.279 189.795,207.506 190.044,207.894 190.169 C 208.282 190.293,208.960 190.936,209.400 191.597 C 209.840 192.257,210.335 192.798,210.500 192.799 C 210.665 192.799,210.800 193.094,210.800 193.453 C 210.800 193.812,211.176 194.714,211.636 195.458 C 212.475 196.816,213.023 203.201,212.300 203.200 C 212.135 203.200,212.000 203.661,212.000 204.224 C 212.000 204.787,211.839 205.148,211.642 205.026 C 211.212 204.760,210.703 205.919,211.022 206.436 C 211.352 206.970,212.000 206.880,212.002 206.300 C 212.004 206.025,212.311 205.260,212.684 204.600 C 213.634 202.921,213.634 197.079,212.684 195.400 C 212.311 194.740,212.004 194.057,212.002 193.883 C 211.998 193.330,208.812 189.846,207.125 188.549 C 206.050 187.722,204.933 187.538,204.933 188.189 M185.448 195.461 C 184.872 196.037,184.400 196.765,184.400 197.078 C 184.400 197.391,184.240 197.548,184.045 197.428 C 183.694 197.211,177.200 203.429,177.200 203.981 C 177.200 204.137,176.787 204.486,176.281 204.757 C 175.776 205.027,175.122 205.642,174.829 206.124 C 174.332 206.939,174.368 206.933,175.346 206.032 C 175.924 205.499,176.507 205.174,176.641 205.308 C 177.032 205.699,180.047 202.700,179.831 202.136 C 179.723 201.855,179.835 201.502,180.079 201.351 C 180.348 201.185,180.411 201.259,180.238 201.538 C 180.081 201.792,180.114 202.000,180.310 202.000 C 180.749 202.000,182.927 199.605,182.503 199.588 C 182.336 199.581,182.515 199.392,182.900 199.168 C 183.285 198.944,183.603 198.454,183.606 198.080 C 183.610 197.673,183.730 197.570,183.906 197.822 C 184.098 198.098,184.443 197.994,184.900 197.522 C 185.285 197.125,185.510 196.800,185.400 196.800 C 185.290 196.800,185.515 196.469,185.900 196.063 C 186.285 195.658,186.735 195.399,186.900 195.487 C 187.324 195.714,187.275 194.894,186.848 194.630 C 186.655 194.510,186.025 194.884,185.448 195.461 M264.029 204.171 C 262.649 205.563,261.672 206.791,261.860 206.899 C 262.047 207.006,262.611 206.668,263.114 206.147 C 263.617 205.626,263.932 205.200,263.814 205.200 C 263.696 205.200,263.915 204.869,264.300 204.463 C 264.685 204.058,265.090 203.765,265.200 203.811 C 265.570 203.966,267.192 202.043,266.864 201.839 C 266.685 201.729,265.409 202.778,264.029 204.171 M210.000 207.304 C 210.000 207.581,209.625 208.042,209.167 208.328 C 208.705 208.616,208.430 209.100,208.549 209.411 C 208.668 209.721,208.565 210.098,208.321 210.249 C 208.027 210.430,207.989 210.333,208.207 209.962 C 208.389 209.653,208.151 209.739,207.678 210.153 C 207.206 210.568,206.886 211.018,206.967 211.153 C 207.049 211.289,206.865 211.632,206.558 211.916 C 206.251 212.199,206.000 212.303,206.000 212.146 C 206.000 211.989,205.556 212.278,205.012 212.788 C 204.469 213.299,204.138 213.915,204.276 214.158 C 204.415 214.401,204.375 214.461,204.188 214.290 C 203.815 213.951,200.000 217.508,200.000 218.195 C 200.000 218.723,196.312 222.235,195.900 222.099 C 195.735 222.045,195.599 222.225,195.598 222.500 C 195.597 223.139,188.779 229.838,188.286 229.686 C 187.674 229.497,186.748 230.488,186.977 231.085 C 187.102 231.410,187.015 231.533,186.768 231.380 C 186.328 231.108,168.800 248.612,168.800 249.323 C 168.800 249.931,160.062 258.400,159.434 258.400 C 159.135 258.400,158.471 258.927,157.958 259.570 C 157.446 260.214,156.913 260.670,156.774 260.584 C 156.635 260.498,156.179 260.740,155.761 261.121 C 154.623 262.159,151.324 262.816,149.112 262.446 C 148.073 262.272,147.173 262.276,147.112 262.453 C 147.050 262.631,146.550 262.519,146.000 262.204 C 145.450 261.889,144.550 261.406,144.000 261.131 C 142.758 260.510,140.400 258.194,140.400 257.596 C 140.400 257.352,140.220 257.264,139.999 257.400 C 139.779 257.537,139.408 257.148,139.176 256.537 C 138.944 255.926,138.545 255.175,138.290 254.867 C 138.035 254.560,137.819 253.924,137.810 253.454 C 137.802 252.984,137.692 252.420,137.566 252.200 C 136.898 251.030,137.831 244.800,138.675 244.800 C 138.990 244.800,139.138 244.624,139.005 244.408 C 138.664 243.856,139.517 242.400,140.181 242.400 C 140.485 242.400,140.793 242.232,140.867 242.026 C 141.067 241.463,147.219 235.100,160.055 222.176 C 166.405 215.783,171.600 210.428,171.600 210.276 C 171.600 209.875,173.353 208.184,173.662 208.287 C 173.806 208.335,174.026 208.110,174.150 207.787 C 174.273 207.464,174.225 207.200,174.041 207.200 C 173.495 207.200,139.238 241.651,138.982 242.458 C 138.852 242.866,138.578 243.200,138.373 243.200 C 138.168 243.200,137.999 243.425,137.998 243.700 C 137.996 243.975,137.694 244.740,137.327 245.400 C 135.397 248.863,136.929 255.743,140.451 259.434 C 143.774 262.916,151.115 264.594,154.600 262.668 C 155.260 262.303,156.044 262.004,156.343 262.002 C 156.652 262.001,156.790 261.751,156.663 261.420 C 156.522 261.054,156.633 260.915,156.964 261.042 C 157.895 261.399,188.618 231.076,188.128 230.283 C 187.990 230.059,188.065 229.993,188.295 230.135 C 188.765 230.426,203.216 216.130,203.084 215.505 C 203.038 215.286,203.270 215.058,203.600 215.000 C 204.605 214.822,211.200 208.027,211.200 207.169 C 211.200 206.966,210.930 206.800,210.600 206.800 C 210.270 206.800,210.000 207.027,210.000 207.304 M259.041 209.218 C 257.964 210.317,257.181 211.314,257.301 211.434 C 257.529 211.662,259.200 210.041,259.200 209.592 C 259.200 209.451,259.640 209.099,260.179 208.811 C 260.717 208.523,261.251 208.043,261.366 207.744 C 261.752 206.739,261.013 207.208,259.041 209.218 M254.029 214.171 C 252.649 215.563,251.672 216.791,251.860 216.899 C 252.047 217.006,252.611 216.668,253.114 216.147 C 253.617 215.626,253.932 215.200,253.814 215.200 C 253.696 215.200,253.915 214.869,254.300 214.463 C 254.685 214.058,255.090 213.765,255.200 213.811 C 255.570 213.966,257.192 212.043,256.864 211.839 C 256.685 211.729,255.409 212.778,254.029 214.171 M249.041 219.218 C 247.964 220.317,247.181 221.314,247.301 221.434 C 247.529 221.662,249.200 220.041,249.200 219.592 C 249.200 219.451,249.640 219.099,250.179 218.811 C 250.717 218.523,251.251 218.043,251.366 217.744 C 251.752 216.739,251.013 217.208,249.041 219.218 M244.029 224.171 C 242.649 225.563,241.685 226.805,241.887 226.930 C 242.089 227.055,242.512 226.791,242.827 226.343 C 243.682 225.129,245.096 223.632,245.258 223.771 C 245.336 223.838,245.802 223.476,246.294 222.967 C 246.786 222.457,247.042 221.950,246.864 221.839 C 246.685 221.729,245.409 222.778,244.029 224.171 M239.041 229.218 C 237.964 230.317,237.181 231.314,237.301 231.434 C 237.529 231.662,239.200 230.041,239.200 229.592 C 239.200 229.451,239.640 229.099,240.179 228.811 C 240.717 228.523,241.251 228.043,241.366 227.744 C 241.752 226.739,241.013 227.208,239.041 229.218 M63.825 229.884 C 63.235 230.474,62.455 231.461,62.090 232.078 C 61.726 232.695,61.286 233.200,61.114 233.200 C 60.941 233.200,60.800 233.411,60.800 233.669 C 60.800 233.926,60.552 234.421,60.249 234.769 C 59.396 235.746,56.982 240.417,56.410 242.200 C 56.127 243.080,55.764 243.980,55.604 244.200 C 55.443 244.420,54.881 246.310,54.356 248.400 L 53.400 252.200 53.400 294.515 C 53.400 331.692,53.473 336.875,54.000 337.208 C 54.330 337.417,54.461 337.591,54.292 337.594 C 52.634 337.627,58.106 343.812,61.265 345.476 L 63.400 346.600 105.800 346.600 L 148.200 346.600 151.977 345.570 C 154.149 344.977,155.834 344.297,155.942 343.970 C 156.102 343.486,156.030 343.482,155.470 343.945 C 155.107 344.244,154.538 344.385,154.205 344.257 C 153.872 344.130,153.600 344.174,153.600 344.357 C 153.600 344.540,153.150 344.603,152.600 344.498 C 152.021 344.387,151.600 344.493,151.600 344.749 C 151.600 344.992,151.195 345.190,150.700 345.188 C 150.205 345.187,148.990 345.287,148.000 345.410 C 147.010 345.533,128.200 345.689,106.200 345.756 C 84.200 345.823,65.750 345.903,65.200 345.935 C 64.650 345.967,64.140 345.814,64.066 345.594 C 63.992 345.375,63.773 345.293,63.579 345.413 C 63.112 345.701,59.600 344.092,59.600 343.590 C 59.600 343.376,59.324 343.200,58.987 343.200 C 58.651 343.200,58.260 342.885,58.120 342.500 C 57.980 342.115,57.356 341.334,56.733 340.764 C 56.110 340.195,55.600 339.513,55.600 339.250 C 55.600 338.987,55.341 338.373,55.024 337.886 C 54.707 337.399,54.384 336.512,54.306 335.915 C 54.228 335.318,54.040 334.707,53.890 334.556 C 53.440 334.107,53.536 258.087,53.987 257.808 C 54.203 257.674,54.312 256.853,54.228 255.982 C 54.131 254.967,54.241 254.398,54.538 254.394 C 54.872 254.389,54.877 254.306,54.555 254.094 C 54.310 253.932,54.151 253.440,54.200 253.000 C 54.540 250.008,54.949 248.000,55.220 248.000 C 55.514 248.000,55.729 247.300,56.197 244.829 C 56.299 244.296,56.565 243.675,56.791 243.449 C 57.016 243.224,57.200 242.716,57.200 242.320 C 57.200 241.924,57.391 241.600,57.624 241.600 C 57.857 241.600,57.935 241.419,57.798 241.197 C 57.661 240.976,57.921 240.273,58.375 239.636 C 58.829 238.998,59.200 238.266,59.200 238.010 C 59.200 237.753,59.472 237.271,59.804 236.939 C 60.136 236.607,60.302 236.166,60.174 235.958 C 60.046 235.750,60.179 235.630,60.470 235.690 C 60.762 235.751,60.950 235.560,60.889 235.266 C 60.828 234.973,61.233 234.375,61.789 233.937 C 62.345 233.500,62.806 232.930,62.813 232.671 C 62.829 232.049,64.646 230.000,65.181 230.000 C 65.690 230.000,65.736 229.331,65.248 229.030 C 65.055 228.910,64.414 229.295,63.825 229.884 M234.029 234.171 C 232.649 235.563,231.672 236.791,231.860 236.899 C 232.047 237.006,232.611 236.668,233.114 236.147 C 233.617 235.626,233.932 235.200,233.814 235.200 C 233.696 235.200,233.915 234.869,234.300 234.463 C 234.685 234.058,235.090 233.755,235.200 233.789 C 235.572 233.905,237.155 232.020,236.846 231.828 C 236.677 231.724,235.409 232.778,234.029 234.171 M229.041 239.218 C 227.964 240.317,227.181 241.314,227.301 241.434 C 227.529 241.662,229.200 240.041,229.200 239.592 C 229.200 239.451,229.640 239.099,230.179 238.811 C 230.717 238.523,231.251 238.043,231.366 237.744 C 231.752 236.739,231.013 237.208,229.041 239.218 M224.029 244.171 C 222.497 245.717,221.691 246.809,221.960 246.975 C 222.202 247.125,222.401 247.102,222.402 246.924 C 222.404 246.529,225.058 243.599,225.257 243.771 C 225.336 243.838,225.802 243.476,226.294 242.967 C 226.786 242.457,227.042 241.950,226.864 241.839 C 226.685 241.729,225.409 242.778,224.029 244.171 M219.041 249.218 C 217.964 250.317,217.165 251.298,217.266 251.400 C 217.368 251.501,218.129 250.867,218.959 249.992 C 219.789 249.116,220.613 248.400,220.791 248.400 C 220.969 248.400,221.218 248.130,221.345 247.800 C 221.752 246.739,221.047 247.173,219.041 249.218 M214.029 254.171 C 212.649 255.563,211.672 256.791,211.860 256.899 C 212.047 257.006,212.611 256.668,213.114 256.147 C 213.617 255.626,213.932 255.200,213.814 255.200 C 213.530 255.200,214.734 254.015,216.118 252.932 C 216.728 252.454,217.072 251.968,216.883 251.851 C 216.694 251.734,215.409 252.778,214.029 254.171 M209.041 259.218 C 207.964 260.317,207.160 261.293,207.254 261.388 C 207.349 261.482,208.397 260.579,209.584 259.380 C 210.770 258.181,211.575 257.205,211.371 257.210 C 211.167 257.216,210.119 258.119,209.041 259.218 M179.393 288.889 C 164.437 303.861,151.432 316.606,150.493 317.210 C 149.138 318.083,148.925 318.362,149.461 318.568 C 149.906 318.739,150.560 318.415,151.386 317.613 C 152.075 316.946,152.855 316.400,153.119 316.400 C 153.384 316.400,153.600 316.233,153.600 316.029 C 153.600 315.825,165.120 304.134,179.200 290.050 C 193.280 275.965,204.800 264.242,204.800 263.997 C 204.800 263.753,204.935 263.630,205.100 263.724 C 205.499 263.951,207.275 262.093,206.888 261.854 C 206.722 261.752,194.350 273.918,179.393 288.889 " stroke="none" fill="#2c2c2c" fill-rule="evenodd"></path><path id="path2" d="" stroke="none" fill="#343830" fill-rule="evenodd"></path><path id="path3" d="" stroke="none" fill="#343830" fill-rule="evenodd"></path><path id="path4" d="" stroke="none" fill="#343830" fill-rule="evenodd"></path></g></svg>