<svg id="svg" version="1.1" xmlns="http://www.w3.org/2000/svg" xmlns:xlink="http://www.w3.org/1999/xlink" width="400" height="400" viewBox="0, 0, 400,400"><g id="svgg"><path id="path0" d="M187.000 39.252 C 183.040 39.435,179.518 39.749,179.174 39.950 C 178.830 40.150,176.805 40.445,174.674 40.605 C 172.543 40.764,170.800 41.009,170.800 41.148 C 170.800 41.286,170.215 41.429,169.500 41.464 C 167.624 41.556,163.136 42.374,162.200 42.795 C 161.760 42.993,160.590 43.276,159.600 43.423 C 158.610 43.571,157.620 43.804,157.400 43.940 C 157.180 44.076,156.730 44.193,156.400 44.200 C 156.070 44.207,155.620 44.324,155.400 44.460 C 155.180 44.596,154.190 44.839,153.200 44.999 C 152.210 45.159,151.220 45.430,151.000 45.601 C 150.780 45.771,149.565 46.140,148.300 46.419 C 147.035 46.699,146.000 47.058,146.000 47.218 C 146.000 47.378,145.190 47.631,144.200 47.779 C 143.210 47.928,142.400 48.193,142.400 48.370 C 142.400 48.546,141.320 48.920,140.000 49.200 C 138.680 49.480,137.600 49.850,137.600 50.023 C 137.600 50.195,137.015 50.458,136.300 50.607 C 135.585 50.757,134.637 51.107,134.194 51.387 C 133.751 51.666,132.806 52.023,132.094 52.179 C 131.382 52.336,130.800 52.621,130.800 52.814 C 130.800 53.006,130.170 53.282,129.400 53.426 C 128.630 53.571,128.000 53.849,128.000 54.045 C 128.000 54.240,127.865 54.377,127.700 54.348 C 127.184 54.258,124.800 55.359,124.800 55.688 C 124.800 55.859,124.578 56.000,124.306 56.000 C 123.778 56.000,119.535 58.026,119.200 58.438 C 119.090 58.573,118.325 58.904,117.500 59.173 C 116.675 59.442,116.000 59.789,116.000 59.943 C 116.000 60.098,115.505 60.441,114.900 60.705 C 114.295 60.969,113.260 61.552,112.600 62.000 C 111.940 62.448,110.905 63.031,110.300 63.295 C 109.695 63.559,109.200 63.914,109.200 64.082 C 109.200 64.251,108.615 64.668,107.900 65.009 C 105.464 66.170,104.400 66.843,104.400 67.222 C 104.400 67.430,104.167 67.600,103.881 67.600 C 103.377 67.600,102.194 68.378,100.840 69.600 C 100.475 69.930,99.671 70.464,99.053 70.786 C 98.436 71.108,97.487 71.783,96.945 72.286 C 96.403 72.789,95.794 73.200,95.593 73.200 C 95.393 73.200,95.042 73.548,94.814 73.973 C 94.587 74.398,94.026 74.865,93.568 75.010 C 93.111 75.155,92.236 75.798,91.625 76.437 C 91.013 77.077,90.385 77.600,90.227 77.600 C 90.070 77.600,89.279 78.223,88.471 78.984 C 84.814 82.424,82.800 84.264,82.800 84.165 C 82.800 84.106,81.945 84.965,80.900 86.074 C 79.855 87.184,78.666 88.386,78.257 88.746 C 76.966 89.882,73.814 93.242,73.475 93.843 C 73.296 94.160,72.486 95.109,71.675 95.952 C 70.864 96.796,69.716 98.097,69.125 98.843 C 68.534 99.589,67.589 100.766,67.025 101.458 C 66.461 102.150,66.000 102.915,66.000 103.158 C 66.000 103.401,65.845 103.600,65.657 103.600 C 65.468 103.600,64.672 104.545,63.888 105.700 C 63.103 106.855,61.728 108.837,60.831 110.104 C 59.934 111.372,59.200 112.559,59.200 112.743 C 59.200 112.927,58.840 113.493,58.400 114.000 C 57.960 114.507,57.600 115.146,57.600 115.418 C 57.600 115.691,57.347 116.012,57.038 116.130 C 56.728 116.249,56.354 116.898,56.206 117.573 C 56.058 118.248,55.809 118.800,55.654 118.800 C 55.499 118.800,54.838 119.835,54.186 121.100 C 53.534 122.365,52.879 123.492,52.732 123.604 C 52.584 123.716,52.341 124.294,52.192 124.888 C 52.043 125.481,51.681 126.167,51.386 126.411 C 51.092 126.655,50.736 127.383,50.594 128.028 C 50.452 128.672,50.187 129.200,50.005 129.200 C 49.823 129.200,49.443 130.100,49.161 131.200 C 48.879 132.300,48.503 133.200,48.324 133.200 C 48.146 133.200,48.000 133.428,48.000 133.706 C 48.000 133.984,47.640 134.884,47.200 135.704 C 46.760 136.525,46.400 137.518,46.400 137.910 C 46.400 138.301,46.145 138.986,45.833 139.431 C 45.521 139.877,45.141 140.907,44.989 141.720 C 44.836 142.534,44.530 143.200,44.309 143.200 C 44.088 143.200,44.001 143.560,44.116 144.000 C 44.231 144.440,44.182 144.800,44.007 144.800 C 43.832 144.800,43.567 145.452,43.417 146.249 C 43.268 147.046,42.990 147.991,42.800 148.349 C 42.351 149.194,41.529 152.346,41.457 153.500 C 41.426 153.995,41.274 154.400,41.120 154.400 C 40.966 154.400,40.718 155.480,40.568 156.800 C 40.419 158.120,40.172 159.200,40.020 159.200 C 39.724 159.200,38.800 165.491,38.800 167.512 C 38.800 168.184,38.628 168.793,38.418 168.867 C 38.208 168.940,37.911 171.391,37.758 174.314 C 37.604 177.236,37.326 179.722,37.139 179.837 C 36.697 180.111,36.695 196.288,37.138 196.561 C 37.323 196.676,37.596 199.146,37.742 202.050 C 37.889 204.954,38.164 207.526,38.352 207.765 C 38.540 208.004,38.922 210.230,39.201 212.710 C 39.481 215.191,39.852 217.309,40.027 217.416 C 40.201 217.524,40.467 218.600,40.618 219.806 C 40.769 221.013,41.046 222.000,41.234 222.000 C 41.421 222.000,41.470 222.272,41.343 222.605 C 41.215 222.938,41.288 223.433,41.505 223.705 C 41.722 223.977,42.023 225.055,42.174 226.100 C 42.325 227.145,42.588 228.000,42.757 228.000 C 42.927 228.000,43.280 228.855,43.542 229.900 C 43.804 230.945,44.065 231.980,44.121 232.200 C 44.177 232.420,44.336 232.781,44.475 233.003 C 44.614 233.225,44.854 234.080,45.008 234.903 C 45.163 235.726,45.427 236.400,45.595 236.400 C 45.763 236.400,46.008 236.940,46.140 237.600 C 46.272 238.260,46.744 239.600,47.190 240.578 C 47.635 241.556,48.000 242.546,48.000 242.778 C 48.000 243.010,48.141 243.200,48.313 243.200 C 48.485 243.200,48.865 244.010,49.157 245.000 C 49.449 245.990,49.848 246.800,50.044 246.800 C 50.240 246.800,50.400 247.022,50.400 247.294 C 50.400 247.851,52.444 252.089,52.864 252.404 C 53.014 252.516,53.260 253.101,53.412 253.704 C 53.563 254.307,53.847 254.800,54.043 254.800 C 54.240 254.800,54.369 254.935,54.330 255.100 C 54.226 255.549,55.284 257.600,55.621 257.600 C 55.782 257.600,56.018 258.017,56.146 258.526 C 56.274 259.036,56.743 259.873,57.189 260.387 C 57.635 260.902,58.000 261.565,58.000 261.861 C 58.000 262.158,58.158 262.400,58.351 262.400 C 58.545 262.400,58.927 262.940,59.200 263.600 C 59.473 264.260,59.855 264.800,60.049 264.800 C 60.242 264.800,60.400 264.992,60.400 265.227 C 60.400 265.461,60.850 266.243,61.400 266.964 C 61.950 267.686,62.400 268.394,62.400 268.538 C 62.400 268.682,62.715 269.130,63.100 269.534 C 63.485 269.938,64.070 270.680,64.400 271.183 C 64.730 271.686,65.186 272.301,65.413 272.549 C 65.640 272.797,66.261 273.630,66.792 274.400 C 67.322 275.170,68.126 276.188,68.578 276.662 C 69.030 277.137,69.588 277.767,69.818 278.062 C 73.241 282.467,83.812 293.395,87.002 295.829 C 87.846 296.472,89.115 297.539,89.823 298.199 C 90.532 298.860,91.580 299.760,92.152 300.200 C 92.724 300.640,93.599 301.336,94.096 301.746 C 94.593 302.156,95.405 302.762,95.900 303.092 L 96.800 303.692 96.800 328.422 C 96.800 342.907,96.951 353.246,97.165 353.378 C 97.366 353.503,97.652 354.323,97.800 355.202 C 97.949 356.081,98.222 356.800,98.408 356.800 C 98.594 356.800,98.862 357.165,99.003 357.610 C 99.328 358.632,101.944 361.200,102.661 361.200 C 102.958 361.200,103.200 361.372,103.200 361.581 C 103.200 363.084,114.252 364.336,115.119 362.932 C 115.278 362.674,115.901 362.340,116.504 362.188 C 117.107 362.037,117.600 361.782,117.600 361.621 C 117.600 361.460,118.320 361.090,119.200 360.800 C 120.080 360.510,120.800 360.149,120.800 359.999 C 120.800 359.849,121.520 359.511,122.400 359.247 C 123.280 358.984,124.000 358.609,124.000 358.416 C 124.000 358.222,124.540 357.945,125.200 357.800 C 125.860 357.655,126.400 357.399,126.400 357.232 C 126.400 357.064,127.120 356.711,128.000 356.447 C 128.880 356.184,129.600 355.809,129.600 355.616 C 129.600 355.422,130.140 355.145,130.800 355.000 C 131.460 354.855,132.000 354.600,132.000 354.432 C 132.000 354.265,132.720 353.890,133.600 353.600 C 134.480 353.310,135.200 352.935,135.200 352.768 C 135.200 352.600,135.740 352.345,136.400 352.200 C 137.060 352.055,137.600 351.800,137.600 351.632 C 137.600 351.465,138.320 351.090,139.200 350.800 C 140.080 350.510,140.800 350.121,140.800 349.936 C 140.800 349.751,141.019 349.600,141.286 349.600 C 141.715 349.600,143.453 348.812,150.400 345.467 C 151.390 344.990,152.260 344.465,152.333 344.300 C 152.407 344.135,152.674 344.000,152.928 344.000 C 153.431 344.000,157.677 341.959,158.000 341.562 C 158.110 341.427,158.875 341.096,159.700 340.827 C 160.525 340.558,161.200 340.172,161.200 339.969 C 161.200 339.766,161.408 339.600,161.661 339.600 C 162.234 339.600,166.526 337.599,166.800 337.204 C 166.910 337.046,167.672 336.697,168.494 336.429 C 169.316 336.161,170.092 335.775,170.218 335.571 C 170.511 335.097,172.919 335.087,173.420 335.557 C 173.843 335.954,182.683 336.800,186.408 336.800 C 187.736 336.800,188.800 336.978,188.800 337.200 C 188.800 337.747,211.062 337.747,211.400 337.200 C 211.536 336.980,212.713 336.800,214.016 336.800 C 217.439 336.800,226.565 335.949,226.800 335.607 C 226.910 335.448,228.436 335.190,230.192 335.034 C 231.947 334.878,233.477 334.611,233.592 334.442 C 233.706 334.272,235.417 333.911,237.394 333.638 C 239.370 333.366,241.080 333.001,241.194 332.827 C 241.307 332.653,242.300 332.379,243.400 332.217 C 244.500 332.055,245.580 331.806,245.800 331.663 C 246.020 331.521,247.370 331.104,248.800 330.737 C 253.562 329.516,256.196 328.730,256.600 328.409 C 256.820 328.235,257.630 327.959,258.400 327.795 C 259.170 327.632,260.155 327.251,260.589 326.949 C 261.023 326.647,261.715 326.400,262.127 326.400 C 262.539 326.400,263.354 326.152,263.938 325.850 C 265.885 324.841,268.683 323.600,269.044 323.586 C 269.240 323.579,270.120 323.225,271.000 322.800 C 271.880 322.375,272.825 322.021,273.100 322.014 C 273.375 322.006,273.600 321.848,273.600 321.663 C 273.600 321.478,274.320 321.111,275.200 320.847 C 276.080 320.584,276.800 320.195,276.800 319.984 C 276.800 319.773,277.022 319.600,277.294 319.600 C 277.851 319.600,282.089 317.556,282.404 317.136 C 282.516 316.986,283.116 316.736,283.736 316.580 C 284.357 316.424,284.955 316.061,285.066 315.773 C 285.176 315.485,285.792 315.134,286.433 314.993 C 287.075 314.852,287.601 314.616,287.601 314.468 C 287.602 314.321,288.592 313.666,289.801 313.014 C 291.011 312.362,292.000 311.720,292.000 311.589 C 292.000 311.457,292.630 311.102,293.400 310.800 C 294.170 310.498,294.800 310.100,294.800 309.915 C 294.800 309.731,295.250 309.409,295.800 309.200 C 296.350 308.991,296.800 308.635,296.800 308.410 C 296.800 308.184,296.974 308.000,297.187 308.000 C 297.760 308.000,302.400 304.746,302.400 304.344 C 302.400 304.155,302.625 304.000,302.900 304.000 C 303.339 303.999,304.264 303.339,306.390 301.508 C 306.714 301.229,308.334 299.916,309.990 298.590 C 313.321 295.924,315.616 293.814,320.515 288.915 C 324.896 284.535,331.200 277.544,331.200 277.065 C 331.200 276.935,331.695 276.287,332.300 275.627 C 333.943 273.835,335.200 272.123,335.200 271.680 C 335.200 271.463,335.470 271.182,335.800 271.055 C 336.130 270.929,336.400 270.558,336.400 270.232 C 336.400 269.906,336.633 269.496,336.917 269.320 C 337.552 268.927,341.200 263.385,341.200 262.813 C 341.200 262.586,341.380 262.400,341.600 262.400 C 341.820 262.400,342.000 262.228,342.000 262.018 C 342.000 261.688,343.365 259.417,344.294 258.200 C 344.462 257.980,345.132 256.720,345.783 255.400 C 346.433 254.080,347.449 252.190,348.040 251.200 C 348.632 250.210,349.239 248.815,349.389 248.100 C 349.540 247.385,349.817 246.800,350.005 246.800 C 350.335 246.800,350.796 245.713,350.971 244.519 C 351.018 244.198,351.246 243.815,351.478 243.668 C 351.710 243.521,352.026 242.815,352.182 242.100 C 352.337 241.385,352.601 240.800,352.768 240.800 C 352.935 240.800,353.310 239.810,353.600 238.600 C 353.890 237.390,354.279 236.400,354.464 236.400 C 354.649 236.400,354.801 236.085,354.802 235.700 C 354.804 235.315,355.069 234.493,355.392 233.874 C 355.715 233.255,356.200 231.680,356.470 230.374 C 356.739 229.068,357.093 228.000,357.256 228.000 C 357.418 228.000,357.675 227.145,357.826 226.100 C 357.977 225.055,358.246 224.017,358.423 223.793 C 358.600 223.568,358.959 222.128,359.221 220.593 C 359.484 219.057,359.844 217.617,360.021 217.393 C 360.198 217.169,360.563 215.009,360.832 212.593 C 361.100 210.177,361.466 208.103,361.646 207.985 C 361.825 207.867,362.095 205.296,362.247 202.271 C 362.399 199.246,362.675 196.677,362.862 196.562 C 363.304 196.288,363.303 180.111,362.861 179.837 C 362.674 179.722,362.396 177.236,362.242 174.314 C 362.089 171.391,361.792 168.940,361.582 168.867 C 361.372 168.793,361.200 168.184,361.200 167.512 C 361.200 165.503,360.277 159.200,359.983 159.200 C 359.833 159.200,359.597 158.239,359.459 157.065 C 359.321 155.891,358.846 153.798,358.404 152.413 C 357.962 151.029,357.600 149.570,357.600 149.171 C 357.600 148.773,357.446 148.352,357.257 148.235 C 357.069 148.119,356.684 146.938,356.402 145.612 C 356.121 144.285,355.755 143.200,355.590 143.200 C 355.424 143.200,355.164 142.534,355.011 141.720 C 354.859 140.907,354.479 139.877,354.167 139.431 C 353.855 138.986,353.600 138.301,353.600 137.910 C 353.600 137.518,353.240 136.525,352.800 135.704 C 352.360 134.884,352.000 133.984,352.000 133.706 C 352.000 133.428,351.854 133.200,351.676 133.200 C 351.497 133.200,351.121 132.300,350.839 131.200 C 350.557 130.100,350.191 129.200,350.026 129.200 C 349.862 129.200,349.511 128.480,349.247 127.600 C 348.984 126.720,348.615 126.000,348.427 126.000 C 348.240 126.000,347.963 125.507,347.812 124.904 C 347.660 124.301,347.416 123.716,347.268 123.604 C 347.121 123.492,346.466 122.365,345.814 121.100 C 345.162 119.835,344.501 118.800,344.346 118.800 C 344.191 118.800,343.942 118.248,343.794 117.573 C 343.646 116.898,343.272 116.249,342.962 116.130 C 342.653 116.012,342.400 115.691,342.400 115.418 C 342.400 115.146,342.040 114.507,341.600 114.000 C 341.160 113.493,340.800 112.927,340.800 112.743 C 340.800 112.559,340.066 111.372,339.169 110.104 C 338.272 108.837,336.897 106.855,336.112 105.700 C 335.328 104.545,334.532 103.600,334.343 103.600 C 334.155 103.600,334.000 103.401,334.000 103.158 C 334.000 102.915,333.539 102.150,332.975 101.458 C 332.411 100.766,331.466 99.589,330.875 98.843 C 330.284 98.097,329.136 96.796,328.325 95.952 C 327.514 95.109,326.704 94.160,326.525 93.843 C 326.186 93.242,323.034 89.882,321.743 88.746 C 321.334 88.386,320.145 87.184,319.100 86.074 C 318.055 84.965,317.200 84.141,317.200 84.243 C 317.200 84.344,316.642 83.792,315.960 83.015 C 315.278 82.238,314.558 81.703,314.360 81.825 C 314.162 81.947,314.000 81.767,314.000 81.424 C 314.000 81.081,313.827 80.800,313.615 80.800 C 313.404 80.800,312.518 80.080,311.647 79.200 C 310.776 78.320,309.953 77.600,309.818 77.600 C 309.683 77.600,309.045 77.060,308.400 76.400 C 307.755 75.740,307.060 75.200,306.855 75.200 C 306.651 75.200,306.060 74.753,305.542 74.207 C 305.024 73.661,304.474 73.211,304.321 73.207 C 304.167 73.203,303.597 72.789,303.055 72.286 C 302.513 71.783,301.564 71.108,300.947 70.786 C 300.329 70.464,299.517 69.930,299.141 69.600 C 298.202 68.776,297.599 68.325,296.200 67.402 C 294.209 66.087,293.460 65.650,292.100 65.005 C 291.385 64.666,290.800 64.251,290.800 64.082 C 290.800 63.914,290.305 63.559,289.700 63.295 C 289.095 63.031,288.060 62.448,287.400 62.000 C 286.740 61.552,285.705 60.969,285.100 60.705 C 284.495 60.441,284.000 60.098,284.000 59.943 C 284.000 59.789,283.325 59.442,282.500 59.173 C 281.675 58.904,280.910 58.573,280.800 58.438 C 280.465 58.026,276.222 56.000,275.694 56.000 C 275.422 56.000,275.200 55.859,275.200 55.688 C 275.200 55.359,272.816 54.258,272.300 54.348 C 272.135 54.377,272.000 54.240,272.000 54.045 C 272.000 53.849,271.370 53.571,270.600 53.426 C 269.830 53.282,269.200 53.006,269.200 52.814 C 269.200 52.621,268.618 52.336,267.906 52.179 C 267.194 52.023,266.249 51.666,265.806 51.387 C 265.363 51.107,264.415 50.757,263.700 50.607 C 262.985 50.458,262.400 50.195,262.400 50.023 C 262.400 49.850,261.320 49.480,260.000 49.200 C 258.680 48.920,257.600 48.546,257.600 48.370 C 257.600 48.193,256.790 47.928,255.800 47.779 C 254.810 47.631,254.000 47.378,254.000 47.218 C 254.000 47.058,252.965 46.699,251.700 46.419 C 250.435 46.140,249.220 45.771,249.000 45.601 C 248.780 45.430,247.790 45.159,246.800 44.999 C 245.810 44.839,244.820 44.596,244.600 44.460 C 244.380 44.324,243.930 44.207,243.600 44.200 C 243.270 44.193,242.820 44.076,242.600 43.940 C 242.380 43.804,241.390 43.571,240.400 43.423 C 239.410 43.276,238.240 42.993,237.800 42.795 C 236.864 42.374,232.376 41.556,230.500 41.464 C 229.785 41.429,229.200 41.286,229.200 41.148 C 229.200 41.009,227.445 40.765,225.300 40.607 C 223.155 40.448,221.220 40.174,221.000 39.997 C 219.898 39.110,199.659 38.667,187.000 39.252 M218.393 66.173 C 222.019 66.547,225.079 66.997,225.193 67.174 C 225.307 67.350,226.660 67.625,228.200 67.786 C 229.740 67.947,231.180 68.220,231.400 68.394 C 231.760 68.677,237.094 69.710,238.282 69.727 C 238.548 69.730,238.691 69.852,238.602 69.997 C 238.512 70.142,239.645 70.496,241.119 70.783 C 242.594 71.070,243.980 71.445,244.200 71.616 C 244.420 71.788,245.275 72.055,246.100 72.209 C 246.925 72.363,247.600 72.629,247.600 72.800 C 247.600 72.971,248.275 73.237,249.100 73.392 C 249.925 73.546,251.355 74.016,252.278 74.436 C 253.201 74.856,254.236 75.200,254.578 75.200 C 254.920 75.200,255.200 75.363,255.200 75.563 C 255.200 75.763,256.100 76.157,257.200 76.439 C 258.300 76.721,259.200 77.097,259.200 77.276 C 259.200 77.454,259.392 77.600,259.626 77.600 C 259.860 77.600,261.035 78.050,262.237 78.600 C 263.440 79.150,264.598 79.600,264.812 79.600 C 265.025 79.600,265.200 79.757,265.200 79.948 C 265.200 80.139,266.010 80.523,267.000 80.800 C 267.990 81.077,268.800 81.422,268.800 81.566 C 268.800 81.710,269.835 82.362,271.100 83.014 C 272.365 83.666,273.490 84.306,273.600 84.435 C 273.710 84.564,274.700 85.187,275.800 85.820 C 276.900 86.453,277.860 87.112,277.933 87.285 C 278.007 87.458,278.236 87.600,278.442 87.600 C 278.859 87.600,281.902 89.516,282.729 90.299 C 283.019 90.575,283.508 90.800,283.814 90.800 C 284.121 90.800,284.565 91.160,284.800 91.600 C 285.035 92.040,285.492 92.400,285.814 92.400 C 286.136 92.400,286.400 92.584,286.400 92.809 C 286.400 93.033,286.878 93.435,287.461 93.701 C 288.045 93.967,288.996 94.638,289.574 95.192 C 290.153 95.746,291.417 96.830,292.383 97.600 C 293.350 98.370,294.428 99.270,294.779 99.600 C 295.130 99.930,296.453 101.081,297.719 102.158 C 300.649 104.649,302.585 106.588,305.040 109.489 C 306.115 110.760,307.491 112.245,308.098 112.789 C 308.704 113.333,309.200 113.999,309.200 114.269 C 309.200 114.539,309.430 114.904,309.710 115.080 C 309.991 115.256,310.970 116.390,311.886 117.600 C 312.802 118.810,313.801 120.084,314.107 120.431 C 314.412 120.777,314.777 121.362,314.918 121.731 C 315.059 122.099,315.339 122.400,315.539 122.400 C 315.739 122.400,316.127 122.940,316.400 123.600 C 316.673 124.260,317.055 124.800,317.249 124.800 C 317.442 124.800,317.600 124.972,317.600 125.182 C 317.600 125.506,318.816 127.539,319.894 129.019 C 320.518 129.875,321.596 131.834,322.030 132.900 C 322.277 133.505,322.626 134.000,322.807 134.000 C 322.988 134.000,323.255 134.540,323.400 135.200 C 323.545 135.860,323.800 136.400,323.968 136.400 C 324.135 136.400,324.510 137.120,324.800 138.000 C 325.090 138.880,325.479 139.600,325.664 139.600 C 325.849 139.600,326.000 139.813,326.000 140.074 C 326.000 140.500,326.490 141.684,328.203 145.400 C 328.507 146.060,329.003 147.368,329.306 148.306 C 329.608 149.244,329.939 149.927,330.042 149.825 C 330.145 149.722,330.264 150.068,330.308 150.594 C 330.351 151.120,330.673 152.327,331.022 153.275 C 331.372 154.224,331.840 155.720,332.063 156.600 C 332.286 157.480,332.627 158.560,332.820 159.000 C 333.167 159.788,333.995 163.630,334.070 164.800 C 334.092 165.130,334.247 165.580,334.415 165.800 C 334.584 166.020,334.851 167.460,335.009 169.000 C 335.168 170.540,335.450 171.993,335.638 172.228 C 335.825 172.464,336.075 174.534,336.194 176.828 C 336.312 179.123,336.506 182.530,336.625 184.400 C 336.876 188.345,336.099 203.593,335.616 204.194 C 335.436 204.417,335.161 205.906,335.004 207.502 C 334.847 209.097,334.557 210.503,334.359 210.625 C 334.162 210.747,334.000 211.027,334.000 211.247 C 334.000 211.467,334.225 211.512,334.500 211.347 C 334.840 211.143,334.824 211.263,334.451 211.723 C 334.149 212.095,334.036 212.400,334.200 212.400 C 334.364 212.400,334.307 212.629,334.075 212.910 C 333.842 213.190,333.527 214.360,333.374 215.510 C 333.222 216.659,332.951 217.600,332.773 217.600 C 332.595 217.600,332.325 218.455,332.174 219.500 C 332.023 220.545,331.726 221.617,331.515 221.882 C 331.304 222.148,331.247 222.553,331.389 222.782 C 331.531 223.012,331.457 223.200,331.224 223.200 C 330.991 223.200,330.800 223.480,330.800 223.822 C 330.800 224.164,330.460 225.199,330.045 226.122 C 329.630 227.045,329.166 228.385,329.014 229.100 C 328.861 229.815,328.591 230.400,328.413 230.400 C 328.235 230.400,327.971 231.030,327.826 231.800 C 327.682 232.570,327.413 233.200,327.229 233.200 C 327.045 233.200,326.691 234.010,326.442 235.000 C 326.192 235.990,325.825 236.800,325.626 236.800 C 325.427 236.800,325.145 237.340,325.000 238.000 C 324.855 238.660,324.560 239.200,324.345 239.200 C 324.129 239.200,324.076 239.400,324.228 239.645 C 324.379 239.889,324.329 240.204,324.117 240.345 C 323.906 240.485,322.585 242.580,321.182 245.000 C 319.780 247.420,318.490 249.460,318.316 249.533 C 318.142 249.607,318.000 249.885,318.000 250.152 C 318.000 250.419,317.727 250.989,317.393 251.419 C 317.059 251.848,315.935 253.370,314.895 254.800 C 313.855 256.230,312.868 257.460,312.702 257.533 C 312.536 257.607,312.400 257.911,312.400 258.211 C 312.400 258.510,312.071 258.990,311.669 259.277 C 311.267 259.565,310.772 260.093,310.569 260.451 C 309.226 262.819,294.526 277.666,292.001 279.205 C 291.259 279.657,288.907 281.560,287.929 282.500 C 287.528 282.885,287.029 283.200,286.820 283.200 C 286.611 283.200,286.256 283.515,286.032 283.900 C 285.808 284.285,285.619 284.458,285.612 284.284 C 285.601 283.990,285.186 284.270,283.815 285.500 C 283.508 285.775,283.126 286.000,282.966 286.000 C 282.806 286.000,282.086 286.450,281.364 287.000 C 280.643 287.550,279.861 288.000,279.627 288.000 C 279.392 288.000,279.200 288.189,279.200 288.421 C 279.200 288.652,278.660 289.030,278.000 289.260 C 277.340 289.490,276.800 289.823,276.800 290.000 C 276.800 290.177,276.260 290.510,275.600 290.740 C 274.940 290.970,274.400 291.333,274.400 291.547 C 274.400 291.761,273.860 292.055,273.200 292.200 C 272.540 292.345,272.000 292.593,272.000 292.751 C 272.000 292.910,271.370 293.267,270.600 293.546 C 269.830 293.824,269.200 294.206,269.200 294.394 C 269.200 294.582,268.660 294.855,268.000 295.000 C 267.340 295.145,266.800 295.415,266.800 295.601 C 266.800 295.786,266.153 296.152,265.361 296.413 C 264.570 296.674,263.445 297.137,262.861 297.441 C 262.278 297.746,261.575 297.996,261.300 297.998 C 261.025 297.999,260.800 298.151,260.800 298.336 C 260.800 298.521,260.035 298.915,259.100 299.212 C 258.165 299.509,257.045 299.988,256.611 300.276 C 256.177 300.564,255.502 300.800,255.111 300.800 C 254.720 300.800,254.400 300.991,254.400 301.224 C 254.400 301.457,254.232 301.544,254.028 301.417 C 253.823 301.291,253.555 301.349,253.432 301.548 C 253.309 301.747,252.532 302.036,251.704 302.190 C 250.877 302.345,250.020 302.612,249.800 302.783 C 249.580 302.955,248.454 303.317,247.299 303.588 C 246.143 303.859,245.107 304.227,244.997 304.405 C 244.886 304.584,244.078 304.852,243.200 305.000 C 242.322 305.148,241.516 305.412,241.409 305.586 C 241.301 305.760,239.770 306.137,238.006 306.423 C 236.243 306.710,234.800 307.077,234.800 307.240 C 234.800 307.403,233.630 307.662,232.200 307.815 C 230.770 307.968,229.600 308.231,229.600 308.399 C 229.600 308.567,227.485 308.933,224.900 309.212 C 222.315 309.492,220.008 309.868,219.774 310.048 C 219.540 310.228,216.615 310.498,213.274 310.649 C 209.933 310.800,207.200 311.050,207.200 311.205 C 207.200 311.360,203.960 311.487,200.000 311.487 C 196.040 311.487,192.800 311.361,192.800 311.206 C 192.800 311.051,190.161 310.804,186.936 310.658 C 183.710 310.511,180.875 310.237,180.636 310.049 C 180.396 309.861,177.860 309.470,175.000 309.182 C 172.140 308.893,169.670 308.464,169.512 308.229 C 169.311 307.929,168.981 307.951,168.418 308.300 C 167.974 308.575,167.134 308.800,166.552 308.800 C 165.152 308.800,162.400 309.637,162.400 310.063 C 162.400 310.248,162.169 310.400,161.886 310.400 C 161.604 310.400,159.219 311.475,156.586 312.788 C 153.954 314.102,151.575 315.182,151.300 315.188 C 151.025 315.195,150.800 315.351,150.800 315.536 C 150.800 315.721,150.080 316.110,149.200 316.400 C 148.320 316.690,147.600 317.065,147.600 317.232 C 147.600 317.400,147.060 317.655,146.400 317.800 C 145.740 317.945,145.200 318.200,145.200 318.368 C 145.200 318.535,144.480 318.910,143.600 319.200 C 142.720 319.490,142.000 319.865,142.000 320.032 C 142.000 320.200,141.472 320.452,140.828 320.594 C 140.183 320.736,139.450 321.098,139.200 321.400 C 138.950 321.702,138.217 322.064,137.572 322.206 C 136.928 322.348,136.400 322.615,136.400 322.800 C 136.400 322.985,135.858 323.255,135.197 323.401 C 134.473 323.560,134.100 323.839,134.262 324.101 C 134.434 324.378,134.290 324.443,133.866 324.281 C 133.500 324.140,133.200 324.185,133.200 324.381 C 133.200 324.576,132.660 324.855,132.000 325.000 C 131.340 325.145,130.800 325.400,130.800 325.568 C 130.800 325.735,130.080 326.110,129.200 326.400 C 128.320 326.690,127.600 327.060,127.600 327.221 C 127.600 327.382,127.107 327.637,126.504 327.788 C 125.901 327.940,125.316 328.205,125.204 328.378 C 125.092 328.551,124.595 328.819,124.100 328.973 L 123.200 329.254 123.200 311.451 C 123.200 301.002,123.047 293.553,122.831 293.419 C 122.628 293.294,122.343 292.653,122.199 291.995 C 122.055 291.338,121.771 290.800,121.568 290.800 C 121.366 290.800,121.200 290.538,121.200 290.217 C 121.200 289.562,118.800 287.000,117.056 285.792 C 116.426 285.357,115.683 284.784,115.403 284.519 C 115.124 284.255,114.806 284.128,114.696 284.237 C 114.587 284.346,113.964 283.933,113.313 283.318 C 112.661 282.703,111.645 281.840,111.054 281.400 C 110.463 280.960,109.753 280.401,109.476 280.157 C 109.198 279.914,107.932 278.867,106.661 277.832 C 103.469 275.232,103.367 275.139,98.408 270.281 C 95.984 267.906,94.000 265.826,94.000 265.661 C 94.000 265.495,93.190 264.587,92.200 263.643 C 91.210 262.700,90.400 261.758,90.400 261.550 C 90.400 261.343,89.860 260.645,89.200 260.000 C 88.540 259.355,88.000 258.701,88.000 258.547 C 88.000 258.393,87.731 257.982,87.402 257.634 C 86.095 256.249,84.800 254.461,84.800 254.042 C 84.800 253.799,84.614 253.600,84.387 253.600 C 84.161 253.600,83.858 253.285,83.714 252.900 C 83.462 252.221,82.027 250.004,81.578 249.600 C 81.130 249.196,77.600 242.824,77.600 242.419 C 77.600 242.188,77.454 242.000,77.275 242.000 C 77.096 242.000,76.702 241.370,76.400 240.600 C 76.098 239.830,75.719 239.200,75.557 239.200 C 75.396 239.200,75.145 238.660,75.000 238.000 C 74.855 237.340,74.610 236.800,74.456 236.800 C 74.301 236.800,73.935 235.990,73.643 235.000 C 73.351 234.010,72.960 233.200,72.774 233.200 C 72.588 233.200,72.318 232.570,72.174 231.800 C 72.029 231.030,71.772 230.400,71.603 230.400 C 71.434 230.400,71.080 229.547,70.818 228.505 C 70.555 227.463,70.136 226.363,69.885 226.061 C 69.634 225.759,69.372 225.089,69.303 224.572 C 69.234 224.055,68.822 222.521,68.388 221.164 C 67.955 219.806,67.600 218.449,67.600 218.148 C 67.600 217.847,67.452 217.600,67.272 217.600 C 67.092 217.600,66.708 216.115,66.420 214.300 C 66.131 212.485,65.756 210.820,65.587 210.600 C 65.417 210.380,65.149 208.940,64.991 207.400 C 64.832 205.860,64.558 204.417,64.380 204.194 C 63.900 203.588,63.125 188.322,63.376 184.400 C 63.496 182.530,63.696 179.115,63.822 176.811 C 63.947 174.507,64.196 172.437,64.376 172.211 C 64.556 171.985,64.832 170.540,64.991 169.000 C 65.149 167.460,65.420 166.020,65.594 165.800 C 65.767 165.580,66.130 164.050,66.400 162.400 C 66.670 160.750,67.028 159.220,67.194 159.000 C 67.360 158.780,67.625 157.880,67.784 157.000 C 67.942 156.120,68.218 155.220,68.397 155.000 C 68.575 154.780,68.927 153.790,69.178 152.800 C 69.428 151.810,69.788 150.640,69.976 150.200 C 70.165 149.760,70.537 148.770,70.802 148.000 C 71.281 146.614,71.572 145.923,73.175 142.374 C 73.629 141.369,74.000 140.349,74.000 140.107 C 74.000 139.865,74.135 139.607,74.300 139.533 C 74.684 139.363,76.800 135.069,76.800 134.460 C 76.800 134.207,76.977 134.000,77.192 134.000 C 77.408 134.000,77.698 133.550,77.836 133.000 C 77.974 132.450,78.225 132.000,78.395 132.000 C 78.564 132.000,78.943 131.415,79.237 130.700 C 79.530 129.985,79.915 129.220,80.091 129.000 C 80.932 127.950,82.400 125.523,82.400 125.182 C 82.400 124.972,82.558 124.800,82.751 124.800 C 82.945 124.800,83.327 124.260,83.600 123.600 C 83.873 122.940,84.261 122.400,84.461 122.400 C 84.661 122.400,84.941 122.099,85.082 121.731 C 85.223 121.362,85.588 120.777,85.893 120.431 C 86.199 120.084,87.198 118.810,88.114 117.600 C 89.030 116.390,90.009 115.256,90.290 115.080 C 90.570 114.904,90.800 114.539,90.800 114.269 C 90.800 113.999,91.296 113.333,91.902 112.789 C 92.509 112.245,93.885 110.760,94.960 109.489 C 97.415 106.588,99.351 104.649,102.281 102.158 C 103.547 101.081,104.870 99.930,105.221 99.600 C 105.572 99.270,106.650 98.370,107.617 97.600 C 108.583 96.830,109.847 95.746,110.426 95.192 C 111.004 94.638,111.955 93.967,112.539 93.701 C 113.122 93.435,113.600 93.033,113.600 92.809 C 113.600 92.584,113.876 92.400,114.213 92.400 C 114.549 92.400,114.926 92.137,115.050 91.815 C 115.173 91.494,115.616 91.122,116.035 90.989 C 116.453 90.856,117.021 90.534,117.298 90.273 C 118.107 89.509,121.149 87.600,121.558 87.600 C 121.764 87.600,121.993 87.458,122.067 87.285 C 122.140 87.112,123.100 86.453,124.200 85.820 C 125.300 85.187,126.290 84.564,126.400 84.435 C 126.510 84.306,127.635 83.666,128.900 83.014 C 130.165 82.362,131.200 81.710,131.200 81.566 C 131.200 81.422,132.010 81.077,133.000 80.800 C 133.990 80.523,134.800 80.139,134.800 79.948 C 134.800 79.757,134.975 79.600,135.188 79.600 C 135.402 79.600,136.560 79.150,137.763 78.600 C 138.965 78.050,140.140 77.600,140.374 77.600 C 140.608 77.600,140.800 77.454,140.800 77.276 C 140.800 77.097,141.700 76.721,142.800 76.439 C 143.900 76.157,144.800 75.763,144.800 75.563 C 144.800 75.363,145.080 75.200,145.422 75.200 C 145.764 75.200,146.799 74.856,147.722 74.436 C 148.645 74.016,150.075 73.546,150.900 73.392 C 151.725 73.237,152.400 72.971,152.400 72.800 C 152.400 72.629,153.075 72.363,153.900 72.209 C 154.725 72.055,155.580 71.788,155.800 71.616 C 156.020 71.445,157.406 71.070,158.881 70.783 C 160.355 70.496,161.488 70.142,161.398 69.997 C 161.309 69.852,161.452 69.730,161.718 69.727 C 162.906 69.710,168.240 68.677,168.600 68.394 C 168.820 68.220,170.260 67.947,171.800 67.786 C 173.340 67.625,174.693 67.350,174.807 67.174 C 174.921 66.998,177.711 66.645,181.007 66.390 C 184.303 66.135,187.360 65.772,187.800 65.584 C 189.155 65.004,211.181 65.428,218.393 66.173 M192.000 117.848 C 191.230 117.945,190.240 118.186,189.800 118.384 C 189.360 118.581,188.010 118.959,186.800 119.224 C 185.590 119.488,184.420 119.836,184.200 119.997 C 183.980 120.158,183.305 120.408,182.700 120.552 C 182.095 120.697,181.600 120.986,181.600 121.195 C 181.600 121.404,181.330 121.471,181.000 121.345 C 180.670 121.218,180.400 121.299,180.400 121.525 C 180.400 121.751,179.860 122.055,179.200 122.200 C 178.540 122.345,178.000 122.629,178.000 122.832 C 178.000 123.034,177.792 123.200,177.538 123.200 C 177.284 123.200,176.486 123.650,175.764 124.200 C 175.043 124.750,174.345 125.200,174.213 125.200 C 174.081 125.200,173.445 125.740,172.800 126.400 C 172.155 127.060,171.507 127.600,171.361 127.600 C 171.014 127.600,167.600 131.014,167.600 131.361 C 167.600 131.507,167.060 132.155,166.400 132.800 C 165.740 133.445,165.200 134.081,165.200 134.213 C 165.200 134.345,164.750 135.043,164.200 135.764 C 163.650 136.486,163.200 137.284,163.200 137.538 C 163.200 137.792,163.020 138.000,162.800 138.000 C 162.580 138.000,162.400 138.168,162.400 138.374 C 162.400 138.580,162.207 139.255,161.972 139.874 C 161.736 140.493,161.572 141.070,161.606 141.155 C 161.640 141.241,161.469 141.434,161.225 141.585 C 160.981 141.735,160.702 142.269,160.606 142.770 C 160.509 143.271,160.259 143.888,160.051 144.141 C 159.842 144.393,159.436 145.770,159.149 147.200 C 158.862 148.630,158.457 149.918,158.249 150.063 C 156.588 151.222,158.072 163.704,160.182 166.319 C 161.224 167.611,162.691 168.857,163.700 169.306 C 164.305 169.575,164.800 169.910,164.800 170.050 C 164.800 170.503,168.291 171.200,170.557 171.200 C 173.116 171.200,176.800 170.488,176.800 169.994 C 176.800 169.807,177.163 169.539,177.606 169.398 C 178.049 169.257,178.291 168.948,178.144 168.709 C 177.985 168.453,178.063 168.392,178.335 168.560 C 178.854 168.880,181.851 165.850,182.252 164.600 C 182.393 164.160,182.673 163.693,182.876 163.563 C 183.078 163.433,183.426 161.453,183.649 159.163 C 183.871 156.873,184.218 154.640,184.419 154.200 C 184.619 153.760,184.975 152.950,185.209 152.400 C 186.202 150.066,189.010 146.817,190.500 146.278 C 190.885 146.139,191.200 145.854,191.200 145.644 C 191.200 145.435,191.785 145.137,192.500 144.982 C 193.215 144.826,193.916 144.518,194.057 144.295 C 194.406 143.748,201.985 143.731,202.331 144.277 C 202.479 144.509,203.185 144.826,203.900 144.982 C 204.615 145.137,205.200 145.417,205.200 145.605 C 205.200 145.793,205.548 146.057,205.974 146.192 C 207.847 146.786,211.117 150.997,212.176 154.179 C 212.676 155.681,212.467 161.111,211.864 162.273 C 211.143 163.661,207.406 167.600,206.810 167.600 C 206.571 167.600,206.271 167.870,206.145 168.200 C 206.018 168.530,205.696 168.800,205.429 168.800 C 204.604 168.800,199.189 172.990,196.072 176.041 C 194.168 177.905,192.886 179.439,191.401 181.630 C 190.742 182.604,190.093 183.490,189.959 183.600 C 189.825 183.710,189.496 184.475,189.227 185.300 C 188.958 186.125,188.580 186.800,188.387 186.800 C 188.194 186.800,187.918 187.430,187.774 188.200 C 187.629 188.970,187.367 189.600,187.192 189.600 C 187.016 189.600,186.662 190.905,186.404 192.500 C 186.146 194.095,185.769 195.713,185.567 196.095 C 185.096 196.986,185.084 208.681,185.555 208.972 C 185.750 209.093,186.030 209.833,186.177 210.617 C 186.324 211.401,186.704 212.142,187.022 212.264 C 187.340 212.386,187.601 212.691,187.602 212.943 C 187.604 213.613,191.057 216.800,191.781 216.800 C 192.122 216.800,192.400 216.946,192.400 217.124 C 192.400 217.745,197.146 218.886,198.892 218.685 C 201.212 218.418,203.665 217.739,203.959 217.283 C 204.091 217.077,204.650 216.770,205.200 216.601 C 208.615 215.554,210.923 211.114,211.126 205.200 C 211.213 202.670,211.424 200.420,211.596 200.200 C 211.767 199.980,212.025 199.249,212.169 198.575 C 212.416 197.421,216.787 192.400,217.545 192.400 C 217.727 192.400,218.202 192.040,218.600 191.600 C 218.998 191.160,219.572 190.800,219.875 190.800 C 220.177 190.800,220.529 190.530,220.655 190.200 C 220.782 189.870,221.065 189.600,221.285 189.600 C 221.505 189.600,222.185 189.195,222.797 188.700 C 223.408 188.205,224.591 187.260,225.426 186.600 C 228.491 184.176,233.038 178.967,233.719 177.100 C 233.860 176.715,234.146 176.400,234.356 176.400 C 234.565 176.400,234.855 175.860,235.000 175.200 C 235.145 174.540,235.410 174.000,235.588 174.000 C 235.767 174.000,236.037 173.505,236.187 172.900 C 236.338 172.295,236.711 171.260,237.017 170.600 C 237.597 169.346,238.220 167.049,238.806 164.000 C 239.256 161.659,239.251 154.702,238.798 152.400 C 237.872 147.702,237.507 146.187,237.257 146.001 C 237.108 145.891,236.755 144.904,236.471 143.810 C 236.187 142.715,235.799 141.723,235.609 141.606 C 235.419 141.488,235.140 140.899,234.988 140.296 C 234.837 139.693,234.589 139.200,234.437 139.200 C 234.285 139.200,233.933 138.570,233.654 137.800 C 233.376 137.030,232.980 136.400,232.774 136.400 C 232.568 136.400,232.400 136.124,232.400 135.787 C 232.400 135.451,232.130 135.071,231.800 134.945 C 231.470 134.818,231.200 134.504,231.200 134.246 C 231.200 133.080,224.213 126.123,221.953 125.039 C 221.539 124.840,221.200 124.515,221.200 124.315 C 221.200 124.116,221.020 124.064,220.800 124.200 C 220.580 124.336,220.400 124.283,220.400 124.082 C 220.400 123.621,214.033 120.392,213.133 120.397 C 212.767 120.399,212.407 120.235,212.333 120.033 C 212.260 119.831,211.030 119.432,209.600 119.146 C 208.170 118.860,206.888 118.468,206.752 118.274 C 206.489 117.900,194.370 117.550,192.000 117.848 M195.856 231.690 C 196.010 231.940,195.938 232.009,195.687 231.854 C 195.151 231.522,191.975 232.200,191.642 232.717 C 191.509 232.923,190.983 233.223,190.472 233.382 C 189.436 233.706,185.200 237.649,185.200 238.291 C 185.200 238.517,184.941 238.917,184.624 239.180 C 184.307 239.443,184.146 239.915,184.267 240.229 C 184.387 240.543,184.294 240.800,184.061 240.800 C 183.827 240.800,183.528 241.475,183.396 242.300 C 183.264 243.125,182.986 244.113,182.778 244.495 C 182.304 245.366,182.281 248.679,182.747 248.967 C 182.938 249.085,183.213 250.078,183.359 251.174 C 183.504 252.270,183.864 253.407,184.159 253.702 C 184.453 253.996,184.813 254.610,184.957 255.066 C 185.198 255.824,187.748 258.637,189.376 259.939 C 189.747 260.236,190.714 260.661,191.525 260.884 C 192.336 261.107,193.128 261.494,193.285 261.745 C 193.676 262.368,203.119 262.373,203.515 261.750 C 203.672 261.503,204.397 261.171,205.127 261.013 C 205.857 260.854,206.551 260.472,206.670 260.162 C 206.788 259.853,207.091 259.598,207.343 259.597 C 207.887 259.592,210.800 256.901,210.800 256.403 C 210.800 256.213,211.025 255.817,211.300 255.522 C 212.681 254.046,213.942 249.948,213.921 247.000 C 213.908 245.039,213.143 240.800,212.802 240.800 C 212.629 240.800,212.374 240.350,212.236 239.800 C 212.098 239.250,211.808 238.800,211.592 238.800 C 211.377 238.800,211.200 238.537,211.200 238.215 C 211.200 237.462,207.792 233.942,207.421 234.312 C 207.266 234.467,206.965 234.280,206.750 233.897 C 206.536 233.514,206.099 233.200,205.780 233.200 C 205.461 233.200,205.200 233.035,205.200 232.832 C 205.200 232.276,201.757 231.534,198.494 231.387 C 196.481 231.297,195.670 231.390,195.856 231.690 " stroke="none" fill="#343434" fill-rule="evenodd"></path><path id="path1" d="M193.891 311.489 C 194.601 311.577,195.861 311.579,196.691 311.492 C 197.521 311.405,196.940 311.333,195.400 311.331 C 193.860 311.329,193.181 311.400,193.891 311.489 M203.091 311.489 C 203.801 311.577,205.061 311.579,205.891 311.492 C 206.721 311.405,206.140 311.333,204.600 311.331 C 203.060 311.329,202.381 311.400,203.091 311.489 " stroke="none" fill="#383434" fill-rule="evenodd"></path><path id="path2" d="M193.891 311.489 C 194.601 311.577,195.861 311.579,196.691 311.492 C 197.521 311.405,196.940 311.333,195.400 311.331 C 193.860 311.329,193.181 311.400,193.891 311.489 M203.091 311.489 C 203.801 311.577,205.061 311.579,205.891 311.492 C 206.721 311.405,206.140 311.333,204.600 311.331 C 203.060 311.329,202.381 311.400,203.091 311.489 " stroke="none" fill="#383434" fill-rule="evenodd"></path><path id="path3" d="M193.891 311.489 C 194.601 311.577,195.861 311.579,196.691 311.492 C 197.521 311.405,196.940 311.333,195.400 311.331 C 193.860 311.329,193.181 311.400,193.891 311.489 M203.091 311.489 C 203.801 311.577,205.061 311.579,205.891 311.492 C 206.721 311.405,206.140 311.333,204.600 311.331 C 203.060 311.329,202.381 311.400,203.091 311.489 " stroke="none" fill="#383434" fill-rule="evenodd"></path><path id="path4" d="M193.891 311.489 C 194.601 311.577,195.861 311.579,196.691 311.492 C 197.521 311.405,196.940 311.333,195.400 311.331 C 193.860 311.329,193.181 311.400,193.891 311.489 M203.091 311.489 C 203.801 311.577,205.061 311.579,205.891 311.492 C 206.721 311.405,206.140 311.333,204.600 311.331 C 203.060 311.329,202.381 311.400,203.091 311.489 " stroke="none" fill="#383434" fill-rule="evenodd"></path></g></svg>