<svg id="svg" version="1.1" xmlns="http://www.w3.org/2000/svg" xmlns:xlink="http://www.w3.org/1999/xlink" width="400" height="400" viewBox="0, 0, 400,400"><g id="svgg"><path id="path0" d="M175.200 53.944 C 174.650 54.111,173.300 54.210,172.200 54.164 C 171.100 54.117,170.020 54.218,169.800 54.387 C 169.580 54.557,167.783 54.822,165.807 54.976 C 163.830 55.131,162.030 55.400,161.807 55.575 C 161.583 55.750,159.645 56.121,157.500 56.398 C 155.355 56.676,153.600 57.047,153.600 57.223 C 153.600 57.399,152.610 57.666,151.400 57.817 C 150.190 57.968,149.200 58.235,149.200 58.410 C 149.200 58.585,147.940 58.940,146.400 59.200 C 144.860 59.460,143.600 59.806,143.600 59.969 C 143.600 60.132,142.835 60.460,141.900 60.699 C 139.692 61.261,136.257 62.525,135.995 62.870 C 135.882 63.019,134.937 63.355,133.895 63.618 C 132.853 63.880,132.000 64.239,132.000 64.416 C 132.000 64.592,131.460 64.855,130.800 65.000 C 130.140 65.145,129.600 65.390,129.600 65.544 C 129.600 65.699,128.799 66.062,127.821 66.351 C 126.842 66.640,125.978 67.067,125.900 67.301 C 125.822 67.535,125.325 67.793,124.796 67.873 C 124.267 67.954,123.737 68.151,123.617 68.311 C 123.498 68.471,122.860 68.871,122.200 69.200 C 121.540 69.529,120.910 69.893,120.800 70.008 C 120.690 70.122,120.150 70.446,119.600 70.728 C 117.228 71.941,116.173 72.570,115.675 73.068 C 115.382 73.361,114.968 73.600,114.755 73.600 C 114.368 73.600,112.278 74.979,111.308 75.874 C 111.026 76.134,110.453 76.456,110.035 76.589 C 109.616 76.722,109.173 77.094,109.050 77.415 C 108.926 77.737,108.549 78.000,108.213 78.000 C 107.876 78.000,107.600 78.150,107.600 78.332 C 107.600 78.515,107.110 78.920,106.512 79.232 C 105.092 79.973,103.997 81.063,104.333 81.400 C 104.480 81.547,104.386 81.607,104.124 81.533 C 103.611 81.390,101.818 82.659,99.752 84.628 C 99.043 85.304,97.809 86.356,97.011 86.965 C 95.132 88.398,88.398 95.132,86.965 97.011 C 86.356 97.809,85.304 99.043,84.628 99.752 C 82.659 101.818,81.390 103.611,81.533 104.124 C 81.607 104.386,81.543 104.476,81.391 104.325 C 81.053 103.987,79.315 105.808,78.986 106.845 C 78.854 107.260,78.578 107.600,78.373 107.600 C 78.168 107.600,78.000 107.876,78.000 108.213 C 78.000 108.549,77.737 108.926,77.415 109.050 C 77.094 109.173,76.722 109.616,76.589 110.035 C 76.456 110.453,76.134 111.026,75.874 111.308 C 74.934 112.327,73.707 114.234,73.429 115.108 C 73.274 115.598,73.023 116.001,72.873 116.001 C 72.723 116.002,72.060 117.037,71.400 118.301 C 70.740 119.566,70.096 120.690,69.968 120.800 C 69.840 120.910,69.481 121.585,69.170 122.300 C 68.859 123.015,68.483 123.600,68.334 123.600 C 68.185 123.600,67.945 124.140,67.800 124.800 C 67.655 125.460,67.371 126.000,67.168 126.000 C 66.966 126.000,66.800 126.175,66.800 126.388 C 66.800 126.602,66.350 127.760,65.800 128.963 C 65.250 130.165,64.800 131.340,64.800 131.574 C 64.800 131.808,64.641 132.000,64.447 132.000 C 64.254 132.000,63.880 132.853,63.618 133.895 C 63.355 134.937,63.019 135.882,62.870 135.995 C 62.525 136.257,61.261 139.692,60.699 141.900 C 60.460 142.835,60.132 143.600,59.969 143.600 C 59.806 143.600,59.447 144.860,59.172 146.400 C 58.897 147.940,58.541 149.200,58.382 149.200 C 58.223 149.200,57.968 150.190,57.817 151.400 C 57.666 152.610,57.401 153.600,57.228 153.600 C 57.055 153.600,56.699 155.265,56.436 157.300 C 56.173 159.335,55.795 161.360,55.595 161.800 C 55.226 162.613,54.586 167.372,54.116 172.800 C 53.615 178.595,53.894 197.690,54.503 199.200 C 54.636 199.530,54.863 201.375,55.008 203.300 C 55.153 205.225,55.397 206.800,55.550 206.800 C 55.703 206.800,56.063 208.555,56.350 210.700 C 56.637 212.845,57.011 214.780,57.182 215.000 C 57.352 215.220,57.613 216.201,57.763 217.180 C 57.913 218.159,58.188 219.149,58.374 219.380 C 58.561 219.611,58.932 220.880,59.200 222.200 C 59.468 223.520,59.826 224.780,59.997 225.000 C 60.168 225.220,60.433 225.985,60.586 226.700 C 60.738 227.415,61.040 228.000,61.255 228.000 C 61.471 228.000,61.531 228.188,61.389 228.418 C 61.247 228.647,61.306 229.052,61.519 229.318 C 61.733 229.583,62.033 230.385,62.186 231.100 C 62.338 231.815,62.609 232.400,62.787 232.400 C 62.965 232.400,63.229 233.030,63.374 233.800 C 63.518 234.570,63.816 235.200,64.036 235.200 C 64.255 235.200,64.398 235.425,64.353 235.700 C 64.308 235.975,64.481 236.707,64.736 237.326 C 64.991 237.945,65.200 238.620,65.200 238.826 C 65.200 239.032,65.351 239.200,65.536 239.200 C 65.721 239.200,66.110 239.920,66.400 240.800 C 66.690 241.680,67.065 242.400,67.232 242.400 C 67.400 242.400,67.655 242.940,67.800 243.600 C 67.945 244.260,68.200 244.800,68.368 244.800 C 68.535 244.800,68.910 245.520,69.200 246.400 C 69.490 247.280,69.879 248.000,70.064 248.000 C 70.249 248.000,70.400 248.261,70.400 248.580 C 70.400 248.899,70.657 249.304,70.972 249.480 C 71.286 249.656,71.543 249.890,71.543 250.000 C 71.544 250.584,72.427 252.400,72.710 252.400 C 72.891 252.400,73.267 253.030,73.546 253.800 C 73.824 254.570,74.220 255.200,74.426 255.200 C 74.632 255.200,74.800 255.476,74.800 255.813 C 74.800 256.149,75.054 256.522,75.364 256.641 C 75.674 256.761,76.027 257.250,76.149 257.729 C 76.271 258.208,76.917 259.196,77.585 259.925 C 78.253 260.653,78.800 261.373,78.800 261.525 C 78.801 261.676,79.243 262.340,79.783 263.000 C 80.324 263.660,81.089 264.620,81.483 265.134 C 81.877 265.648,82.785 266.708,83.500 267.490 C 84.215 268.272,84.800 269.046,84.800 269.209 C 84.800 269.649,98.744 283.600,99.184 283.600 C 99.392 283.600,100.173 284.230,100.921 285.000 C 101.669 285.770,102.493 286.400,102.753 286.400 C 103.013 286.400,103.327 286.666,103.452 286.992 C 103.577 287.317,104.255 287.939,104.958 288.374 C 105.661 288.808,106.660 289.532,107.179 289.982 C 107.698 290.432,108.262 290.800,108.433 290.800 C 108.603 290.800,108.986 291.025,109.282 291.300 C 110.276 292.221,112.363 293.600,112.764 293.600 C 112.982 293.600,113.304 293.825,113.480 294.100 C 113.863 294.699,114.936 295.403,116.700 296.213 C 117.415 296.542,118.000 296.974,118.000 297.174 C 118.000 297.373,118.540 297.655,119.200 297.800 C 119.860 297.945,120.400 298.196,120.400 298.357 C 120.400 298.519,121.030 298.898,121.800 299.200 C 122.570 299.502,123.200 299.867,123.200 300.011 C 123.200 300.154,123.920 300.510,124.800 300.800 C 125.680 301.090,126.400 301.465,126.400 301.632 C 126.400 301.800,126.940 302.055,127.600 302.200 C 128.260 302.345,128.800 302.606,128.800 302.780 C 128.800 302.954,129.610 303.323,130.600 303.600 C 131.590 303.877,132.400 304.246,132.400 304.420 C 132.400 304.594,132.982 304.864,133.694 305.021 C 134.406 305.177,135.351 305.534,135.794 305.813 C 136.237 306.093,137.230 306.452,138.000 306.611 C 138.770 306.770,139.490 307.024,139.600 307.174 C 139.866 307.539,144.611 309.083,146.504 309.422 C 147.332 309.570,148.094 309.828,148.198 309.997 C 148.302 310.165,149.830 310.537,151.594 310.823 C 153.357 311.110,154.800 311.474,154.800 311.633 C 154.800 311.792,155.925 312.049,157.300 312.205 C 158.675 312.361,159.980 312.628,160.200 312.797 C 160.677 313.163,167.584 314.000,170.135 314.000 C 171.124 314.000,171.998 314.193,172.076 314.429 C 172.174 314.721,176.094 314.857,184.400 314.857 C 192.706 314.857,196.626 314.721,196.724 314.429 C 196.802 314.193,197.676 314.000,198.665 314.000 C 201.269 314.000,208.130 313.160,208.604 312.783 C 208.826 312.606,210.131 312.334,211.504 312.179 C 212.877 312.024,214.000 311.772,214.000 311.620 C 214.000 311.468,215.440 311.110,217.200 310.824 C 218.960 310.539,220.400 310.179,220.400 310.026 C 220.400 309.872,221.572 309.514,223.004 309.229 C 224.436 308.945,225.697 308.567,225.806 308.391 C 225.915 308.214,226.723 307.948,227.602 307.800 C 228.481 307.651,229.200 307.388,229.200 307.215 C 229.200 307.042,229.754 306.789,230.432 306.654 C 231.109 306.518,232.234 306.149,232.932 305.833 C 237.277 303.867,238.869 303.200,239.212 303.200 C 239.425 303.200,239.600 303.034,239.600 302.832 C 239.600 302.629,240.140 302.345,240.800 302.200 C 241.460 302.055,242.000 301.800,242.000 301.632 C 242.000 301.465,242.720 301.090,243.600 300.800 C 244.480 300.510,245.200 300.135,245.200 299.968 C 245.200 299.800,245.728 299.548,246.372 299.406 C 247.017 299.264,247.759 298.890,248.021 298.574 C 248.283 298.258,248.718 298.000,248.988 298.000 C 249.257 298.000,249.893 297.640,250.400 297.200 C 250.907 296.760,251.482 296.400,251.677 296.400 C 252.006 296.400,254.344 294.886,254.800 294.377 C 254.910 294.255,255.572 293.923,256.271 293.641 C 256.970 293.358,257.640 292.873,257.759 292.563 C 257.878 292.254,258.251 292.000,258.587 292.000 C 258.924 292.000,259.200 291.816,259.200 291.590 C 259.200 291.365,259.650 291.009,260.200 290.800 C 260.750 290.591,261.200 290.239,261.200 290.018 C 261.200 289.796,261.655 289.501,262.211 289.362 C 262.766 289.222,263.403 288.769,263.625 288.354 C 263.847 287.939,264.209 287.600,264.431 287.600 C 264.652 287.600,265.220 287.240,265.692 286.800 C 266.164 286.360,266.746 286.000,266.985 286.000 C 267.465 286.000,274.385 292.682,274.149 292.918 C 274.068 292.999,274.451 293.306,275.001 293.600 C 275.550 293.894,276.000 294.251,276.000 294.392 C 276.000 294.697,276.468 295.182,280.911 299.482 C 282.776 301.288,284.234 302.832,284.152 302.915 C 284.069 302.998,284.451 303.306,285.001 303.600 C 285.550 303.894,286.000 304.251,286.000 304.392 C 286.000 304.697,286.468 305.182,290.911 309.482 C 292.776 311.288,294.234 312.832,294.152 312.915 C 294.069 312.998,294.451 313.306,295.001 313.600 C 295.550 313.894,296.000 314.251,296.000 314.392 C 296.000 314.697,296.468 315.182,300.911 319.482 C 302.776 321.288,304.234 322.832,304.152 322.915 C 304.069 322.998,304.451 323.306,305.001 323.600 C 305.550 323.894,306.000 324.251,306.000 324.392 C 306.000 324.697,306.468 325.182,310.911 329.482 C 312.776 331.288,314.234 332.832,314.152 332.915 C 314.069 332.998,314.431 333.296,314.957 333.577 C 315.482 333.858,316.142 334.518,316.424 335.044 C 316.705 335.570,317.052 336.000,317.195 336.000 C 317.338 336.000,319.243 337.795,321.428 339.989 C 323.612 342.183,325.625 343.983,325.900 343.989 C 326.175 343.995,326.400 344.177,326.400 344.392 C 326.400 344.608,326.895 344.906,327.500 345.054 C 328.105 345.202,328.729 345.520,328.886 345.762 C 329.277 346.362,337.531 346.355,337.915 345.754 C 338.072 345.509,338.636 345.172,339.169 345.005 C 340.281 344.658,340.778 344.293,342.536 342.536 C 344.293 340.778,344.658 340.281,345.005 339.169 C 345.172 338.636,345.485 338.086,345.701 337.947 C 345.918 337.808,346.177 336.008,346.277 333.947 C 346.415 331.090,346.350 330.343,346.003 330.800 C 345.634 331.286,345.597 331.225,345.808 330.478 C 346.271 328.836,344.531 326.078,340.270 321.703 C 335.028 316.319,334.699 316.000,334.392 316.000 C 334.251 316.000,333.894 315.550,333.600 315.001 C 333.306 314.451,332.998 314.069,332.915 314.152 C 332.832 314.234,331.288 312.776,329.482 310.911 C 325.182 306.468,324.697 306.000,324.392 306.000 C 324.251 306.000,323.894 305.550,323.600 305.001 C 323.306 304.451,322.998 304.069,322.915 304.152 C 322.832 304.234,321.288 302.776,319.482 300.911 C 315.182 296.468,314.697 296.000,314.392 296.000 C 314.251 296.000,313.894 295.550,313.600 295.001 C 313.306 294.451,312.998 294.069,312.915 294.152 C 312.832 294.234,311.288 292.776,309.482 290.911 C 305.182 286.468,304.697 286.000,304.392 286.000 C 304.251 286.000,303.894 285.550,303.600 285.001 C 303.306 284.451,302.998 284.069,302.915 284.152 C 302.832 284.234,301.288 282.776,299.482 280.911 C 295.182 276.468,294.697 276.000,294.392 276.000 C 294.251 276.000,293.894 275.550,293.600 275.001 C 293.306 274.451,292.999 274.068,292.918 274.149 C 292.682 274.385,286.000 267.465,286.000 266.985 C 286.000 266.746,286.360 266.164,286.800 265.692 C 287.240 265.220,287.600 264.712,287.600 264.563 C 287.600 264.414,288.050 263.875,288.600 263.365 C 289.150 262.855,289.600 262.059,289.600 261.595 C 289.600 261.132,289.781 260.865,290.003 261.002 C 290.224 261.139,290.523 260.924,290.667 260.525 C 290.811 260.126,291.214 259.494,291.564 259.119 C 291.914 258.745,292.388 258.205,292.617 257.919 C 293.070 257.355,295.452 253.387,296.368 251.671 C 296.681 251.086,297.176 250.367,297.468 250.075 C 297.761 249.782,298.000 249.308,298.000 249.020 C 298.000 248.733,298.252 248.289,298.561 248.033 C 298.869 247.777,299.243 247.081,299.392 246.488 C 299.541 245.894,299.793 245.316,299.951 245.204 C 300.353 244.918,302.400 240.619,302.400 240.060 C 302.400 239.807,302.580 239.600,302.800 239.600 C 303.020 239.600,303.200 239.425,303.200 239.212 C 303.200 238.869,303.867 237.277,305.833 232.932 C 306.149 232.234,306.518 231.109,306.654 230.432 C 306.789 229.754,307.037 229.200,307.205 229.200 C 307.373 229.200,307.637 228.525,307.791 227.700 C 307.945 226.875,308.212 226.020,308.383 225.800 C 308.555 225.580,308.922 224.410,309.200 223.200 C 309.478 221.990,309.843 220.820,310.013 220.600 C 310.182 220.380,310.554 218.805,310.838 217.100 C 311.123 215.395,311.478 214.000,311.626 214.000 C 311.775 214.000,312.024 212.877,312.179 211.504 C 312.334 210.131,312.606 208.826,312.783 208.604 C 313.160 208.130,314.000 201.269,314.000 198.665 C 314.000 197.676,314.193 196.802,314.429 196.724 C 314.721 196.626,314.857 192.706,314.857 184.400 C 314.857 176.094,314.721 172.174,314.429 172.076 C 314.193 171.998,313.988 170.913,313.973 169.667 C 313.930 166.009,312.091 154.800,311.534 154.800 C 311.350 154.800,311.200 154.340,311.200 153.777 C 311.200 152.557,310.479 149.250,310.024 148.387 C 309.847 148.050,309.574 147.150,309.419 146.387 C 309.018 144.427,307.501 139.839,307.174 139.600 C 307.024 139.490,306.770 138.770,306.611 138.000 C 306.452 137.230,306.093 136.237,305.813 135.794 C 305.534 135.351,305.177 134.406,305.021 133.694 C 304.864 132.982,304.594 132.400,304.420 132.400 C 304.246 132.400,303.877 131.590,303.600 130.600 C 303.323 129.610,302.954 128.800,302.780 128.800 C 302.606 128.800,302.345 128.260,302.200 127.600 C 302.055 126.940,301.800 126.400,301.632 126.400 C 301.465 126.400,301.090 125.680,300.800 124.800 C 300.510 123.920,300.140 123.200,299.979 123.200 C 299.818 123.200,299.572 122.743,299.432 122.184 C 299.291 121.625,299.004 121.274,298.793 121.404 C 298.579 121.536,298.515 121.366,298.647 121.021 C 298.778 120.679,298.706 120.400,298.486 120.400 C 298.266 120.400,297.970 119.935,297.827 119.366 C 297.684 118.797,297.392 118.122,297.178 117.866 C 296.382 116.913,294.800 114.353,294.800 114.016 C 294.800 113.824,294.665 113.607,294.500 113.533 C 294.335 113.460,293.661 112.590,293.001 111.600 C 292.342 110.610,291.694 109.710,291.561 109.600 C 291.428 109.490,291.094 108.972,290.819 108.450 C 290.080 107.048,287.592 103.849,286.954 103.480 C 286.649 103.304,286.400 102.936,286.400 102.661 C 286.400 102.387,285.868 101.721,285.217 101.181 C 284.566 100.642,284.026 99.989,284.017 99.732 C 283.998 99.214,269.717 84.800,269.222 84.800 C 269.052 84.800,268.272 84.215,267.490 83.500 C 266.708 82.785,265.648 81.877,265.134 81.483 C 264.620 81.089,263.660 80.324,263.000 79.783 C 262.340 79.243,261.676 78.801,261.525 78.800 C 261.373 78.800,260.653 78.253,259.925 77.585 C 259.196 76.917,258.208 76.271,257.729 76.149 C 257.250 76.027,256.761 75.674,256.641 75.364 C 256.522 75.054,256.149 74.800,255.813 74.800 C 255.476 74.800,255.200 74.632,255.200 74.426 C 255.200 74.220,254.570 73.824,253.800 73.546 C 253.030 73.267,252.400 72.891,252.400 72.710 C 252.400 72.402,250.396 71.467,250.036 71.608 C 249.946 71.643,249.712 71.386,249.516 71.036 C 249.320 70.686,248.899 70.400,248.580 70.400 C 248.261 70.400,248.000 70.249,248.000 70.064 C 248.000 69.879,247.280 69.490,246.400 69.200 C 245.520 68.910,244.800 68.535,244.800 68.368 C 244.800 68.200,244.260 67.945,243.600 67.800 C 242.940 67.655,242.400 67.400,242.400 67.232 C 242.400 67.065,241.680 66.690,240.800 66.400 C 239.920 66.110,239.200 65.721,239.200 65.536 C 239.200 65.351,239.032 65.200,238.826 65.200 C 238.620 65.200,237.945 64.991,237.326 64.736 C 236.707 64.481,235.975 64.308,235.700 64.353 C 235.425 64.398,235.200 64.255,235.200 64.036 C 235.200 63.816,234.570 63.518,233.800 63.374 C 233.030 63.229,232.400 62.965,232.400 62.787 C 232.400 62.609,231.815 62.338,231.100 62.186 C 230.385 62.033,229.583 61.733,229.318 61.519 C 229.052 61.306,228.647 61.247,228.418 61.389 C 228.188 61.531,228.000 61.472,228.000 61.259 C 228.000 61.045,227.280 60.749,226.400 60.600 C 225.520 60.451,224.800 60.182,224.800 60.001 C 224.800 59.820,223.540 59.447,222.000 59.172 C 220.460 58.897,219.200 58.541,219.200 58.381 C 219.200 58.222,218.345 57.964,217.300 57.808 C 216.255 57.652,215.220 57.378,215.000 57.199 C 214.780 57.019,212.845 56.637,210.700 56.350 C 208.555 56.063,206.800 55.703,206.800 55.550 C 206.800 55.397,205.225 55.153,203.300 55.008 C 201.375 54.863,199.530 54.634,199.200 54.499 C 197.846 53.943,176.805 53.457,175.200 53.944 M189.800 80.172 C 190.900 80.293,194.365 80.597,197.500 80.848 C 200.635 81.098,203.200 81.442,203.200 81.611 C 203.200 81.780,204.460 82.045,206.000 82.200 C 207.540 82.355,208.800 82.619,208.800 82.787 C 208.800 82.955,210.150 83.333,211.800 83.626 C 213.450 83.919,214.800 84.288,214.800 84.444 C 214.800 84.601,215.519 84.851,216.398 85.000 C 217.277 85.148,218.086 85.416,218.197 85.595 C 218.307 85.773,219.298 86.136,220.399 86.400 C 221.499 86.664,222.400 87.042,222.400 87.240 C 222.400 87.438,222.715 87.606,223.100 87.613 C 223.485 87.619,224.700 88.068,225.800 88.609 C 226.900 89.150,228.115 89.594,228.500 89.596 C 228.885 89.598,229.200 89.751,229.200 89.936 C 229.200 90.121,229.920 90.510,230.800 90.800 C 231.680 91.090,232.400 91.479,232.400 91.664 C 232.400 91.849,232.646 92.000,232.946 92.000 C 233.246 92.000,233.936 92.349,234.478 92.775 C 235.020 93.202,235.931 93.668,236.503 93.811 C 237.074 93.955,237.639 94.326,237.759 94.636 C 237.878 94.946,238.251 95.200,238.587 95.200 C 238.924 95.200,239.200 95.346,239.200 95.525 C 239.200 95.704,239.823 96.095,240.583 96.393 C 241.344 96.692,242.059 97.176,242.171 97.468 C 242.283 97.761,242.651 98.000,242.987 98.000 C 243.324 98.000,243.600 98.184,243.600 98.409 C 243.600 98.633,244.093 99.038,244.695 99.309 C 245.296 99.579,246.085 100.070,246.447 100.400 C 246.809 100.730,247.531 101.320,248.053 101.711 C 252.468 105.026,260.988 113.062,262.969 115.779 C 263.392 116.359,264.330 117.501,265.055 118.317 C 267.298 120.842,267.454 121.042,267.718 121.731 C 267.859 122.099,268.148 122.400,268.360 122.400 C 268.573 122.400,268.860 122.759,268.999 123.198 C 269.138 123.636,269.466 124.221,269.727 124.498 C 270.483 125.298,272.400 128.347,272.400 128.749 C 272.400 128.950,272.670 129.218,273.000 129.345 C 273.330 129.471,273.600 129.851,273.600 130.187 C 273.600 130.524,273.746 130.800,273.925 130.800 C 274.104 130.800,274.498 131.430,274.800 132.200 C 275.102 132.970,275.467 133.600,275.611 133.600 C 275.754 133.600,276.110 134.320,276.400 135.200 C 276.690 136.080,277.065 136.800,277.232 136.800 C 277.400 136.800,277.655 137.340,277.800 138.000 C 277.945 138.660,278.193 139.200,278.351 139.200 C 278.510 139.200,278.881 139.875,279.176 140.700 C 279.471 141.525,279.822 142.290,279.956 142.400 C 280.228 142.623,281.432 145.796,282.118 148.100 C 282.364 148.925,282.692 149.600,282.847 149.600 C 283.003 149.600,283.256 150.365,283.410 151.300 C 283.564 152.235,283.872 153.225,284.094 153.500 C 284.316 153.775,284.364 154.000,284.200 154.000 C 284.036 154.000,284.084 154.225,284.306 154.500 C 284.528 154.775,284.840 155.810,285.000 156.800 C 285.160 157.790,285.442 158.789,285.627 159.019 C 285.812 159.250,286.185 161.097,286.455 163.125 C 286.725 165.153,287.072 166.608,287.226 166.358 C 287.380 166.109,287.637 168.086,287.797 170.753 C 287.957 173.419,288.249 175.600,288.444 175.600 C 288.641 175.600,288.800 179.529,288.800 184.400 C 288.800 189.240,288.646 193.200,288.457 193.200 C 288.269 193.200,287.988 195.040,287.833 197.288 C 287.678 199.537,287.410 201.562,287.238 201.788 C 287.065 202.015,286.695 203.820,286.414 205.800 C 286.134 207.780,285.769 209.580,285.604 209.800 C 285.439 210.020,285.175 210.920,285.016 211.800 C 284.858 212.680,284.544 213.623,284.319 213.895 C 284.095 214.167,284.015 214.662,284.143 214.995 C 284.270 215.328,284.221 215.600,284.032 215.600 C 283.843 215.600,283.572 216.222,283.430 216.983 C 283.287 217.744,282.908 218.869,282.588 219.483 C 282.267 220.097,281.998 220.870,281.990 221.200 C 281.981 221.530,281.718 222.139,281.404 222.554 C 281.090 222.969,280.712 224.112,280.565 225.094 C 280.414 226.103,280.170 226.674,280.004 226.407 C 279.833 226.129,279.521 226.691,279.250 227.767 C 278.996 228.775,278.625 229.600,278.426 229.600 C 278.227 229.600,277.945 230.140,277.800 230.800 C 277.655 231.460,277.371 232.000,277.168 232.000 C 276.966 232.000,276.800 232.209,276.800 232.465 C 276.800 233.005,273.273 239.147,272.513 239.929 C 272.231 240.219,272.000 240.632,272.000 240.846 C 272.000 241.059,271.280 242.188,270.400 243.354 C 269.520 244.519,268.800 245.600,268.800 245.755 C 268.800 245.911,268.350 246.455,267.800 246.965 C 267.250 247.475,266.800 248.086,266.800 248.323 C 266.800 248.560,266.482 248.990,266.093 249.277 C 265.704 249.565,265.098 250.250,264.746 250.800 C 264.393 251.350,263.271 252.631,262.253 253.647 C 261.234 254.663,260.400 255.597,260.400 255.721 C 260.400 256.017,256.017 260.400,255.721 260.400 C 255.597 260.400,254.663 261.234,253.647 262.253 C 252.631 263.271,251.350 264.393,250.800 264.746 C 250.250 265.098,249.565 265.704,249.277 266.093 C 248.990 266.482,248.560 266.800,248.323 266.800 C 248.086 266.800,247.475 267.250,246.965 267.800 C 246.455 268.350,245.911 268.800,245.755 268.800 C 245.600 268.800,244.519 269.520,243.354 270.400 C 242.188 271.280,241.059 272.000,240.846 272.000 C 240.632 272.000,240.219 272.234,239.929 272.519 C 239.638 272.805,238.369 273.626,237.108 274.344 C 235.848 275.062,234.721 275.804,234.604 275.994 C 234.487 276.183,233.853 276.457,233.195 276.601 C 232.538 276.745,232.000 277.015,232.000 277.200 C 232.000 277.385,231.460 277.655,230.800 277.800 C 230.140 277.945,229.600 278.227,229.600 278.426 C 229.600 278.625,228.790 278.992,227.800 279.242 C 226.810 279.491,226.000 279.839,226.000 280.016 C 226.000 280.192,225.460 280.455,224.800 280.600 C 224.140 280.745,223.600 281.040,223.600 281.255 C 223.600 281.471,223.412 281.531,223.182 281.389 C 222.953 281.247,222.548 281.306,222.282 281.519 C 222.017 281.733,221.215 282.033,220.500 282.186 C 219.785 282.338,219.200 282.613,219.200 282.797 C 219.200 282.980,218.481 283.251,217.602 283.400 C 216.723 283.548,215.907 283.826,215.789 284.017 C 215.671 284.209,215.308 284.263,214.982 284.138 C 214.656 284.013,214.167 284.095,213.895 284.319 C 213.623 284.544,212.680 284.858,211.800 285.016 C 210.920 285.175,210.011 285.453,209.781 285.634 C 209.550 285.816,207.705 286.184,205.681 286.454 C 203.656 286.724,202.000 287.076,202.000 287.238 C 202.000 287.400,200.020 287.661,197.600 287.818 C 195.180 287.975,193.200 288.260,193.200 288.451 C 193.200 288.643,189.240 288.800,184.400 288.800 C 179.560 288.800,175.600 288.643,175.600 288.451 C 175.600 288.260,173.620 287.975,171.200 287.818 C 168.780 287.661,166.800 287.400,166.800 287.238 C 166.800 287.076,165.144 286.724,163.119 286.454 C 161.095 286.184,159.250 285.812,159.019 285.627 C 158.789 285.442,157.790 285.160,156.800 285.000 C 155.810 284.840,154.775 284.528,154.500 284.306 C 154.225 284.084,154.000 284.036,154.000 284.200 C 154.000 284.364,153.775 284.316,153.500 284.094 C 153.225 283.872,152.235 283.564,151.300 283.410 C 150.365 283.256,149.600 283.003,149.600 282.847 C 149.600 282.692,148.925 282.364,148.100 282.118 C 145.796 281.432,142.623 280.228,142.400 279.956 C 142.290 279.822,141.525 279.471,140.700 279.176 C 139.875 278.881,139.200 278.510,139.200 278.351 C 139.200 278.193,138.660 277.945,138.000 277.800 C 137.340 277.655,136.800 277.400,136.800 277.232 C 136.800 277.065,136.080 276.690,135.200 276.400 C 134.320 276.110,133.600 275.754,133.600 275.611 C 133.600 275.467,132.970 275.102,132.200 274.800 C 131.430 274.498,130.800 274.104,130.800 273.925 C 130.800 273.746,130.626 273.600,130.413 273.600 C 130.015 273.600,125.400 270.578,124.498 269.726 C 124.221 269.466,123.653 269.144,123.235 269.011 C 122.816 268.878,122.373 268.506,122.250 268.185 C 122.126 267.863,121.839 267.600,121.613 267.600 C 121.201 267.600,120.891 267.364,118.580 265.293 C 117.909 264.692,116.709 263.707,115.914 263.105 C 112.819 260.763,105.160 252.645,101.711 248.053 C 101.320 247.531,100.730 246.809,100.400 246.447 C 100.070 246.085,99.579 245.296,99.309 244.695 C 99.038 244.093,98.633 243.600,98.409 243.600 C 98.184 243.600,98.000 243.324,98.000 242.987 C 98.000 242.651,97.761 242.283,97.468 242.171 C 97.176 242.059,96.692 241.344,96.393 240.583 C 96.095 239.823,95.704 239.200,95.525 239.200 C 95.346 239.200,95.200 238.939,95.200 238.620 C 95.200 238.301,94.955 237.896,94.657 237.720 C 94.358 237.544,93.894 236.725,93.626 235.900 C 93.357 235.075,92.991 234.400,92.812 234.400 C 92.633 234.400,92.374 233.950,92.236 233.400 C 92.098 232.850,91.808 232.400,91.592 232.400 C 91.377 232.400,91.200 232.218,91.200 231.996 C 91.200 231.614,90.830 230.741,88.545 225.725 C 88.025 224.583,87.600 223.368,87.600 223.025 C 87.600 222.681,87.440 222.400,87.245 222.400 C 87.049 222.400,86.778 221.815,86.642 221.100 C 86.507 220.385,86.144 219.317,85.836 218.727 C 85.527 218.137,85.147 217.057,84.991 216.327 C 84.834 215.597,84.592 214.820,84.453 214.600 C 84.150 214.121,82.929 209.145,82.294 205.800 C 82.044 204.480,81.718 203.310,81.571 203.200 C 81.423 203.090,81.098 200.570,80.849 197.600 C 80.599 194.630,80.291 191.210,80.165 190.000 C 79.866 187.147,79.863 181.542,80.159 179.000 C 80.287 177.900,80.597 174.435,80.848 171.300 C 81.098 168.165,81.439 165.600,81.605 165.600 C 81.771 165.600,82.032 164.432,82.185 163.004 C 82.338 161.577,82.607 160.319,82.783 160.211 C 82.959 160.102,83.336 158.579,83.620 156.825 C 83.905 155.072,84.267 153.718,84.425 153.816 C 84.583 153.913,84.829 153.372,84.971 152.613 C 85.113 151.855,85.492 150.731,85.812 150.117 C 86.133 149.503,86.396 148.765,86.398 148.478 C 86.399 148.191,86.734 147.201,87.142 146.278 C 87.550 145.355,88.313 143.520,88.838 142.200 C 89.363 140.880,89.904 139.710,90.040 139.600 C 90.176 139.490,90.529 138.725,90.824 137.900 C 91.119 137.075,91.490 136.400,91.649 136.400 C 91.807 136.400,92.055 135.860,92.200 135.200 C 92.345 134.540,92.607 134.000,92.783 134.000 C 92.959 134.000,93.340 133.415,93.629 132.700 C 93.918 131.985,94.270 131.310,94.412 131.200 C 94.553 131.090,95.185 130.100,95.815 129.000 C 96.446 127.900,97.078 126.910,97.221 126.800 C 97.662 126.460,98.575 124.618,98.475 124.270 C 98.423 124.089,98.534 124.036,98.722 124.152 C 98.910 124.268,99.571 123.561,100.190 122.582 C 100.809 121.602,101.470 120.800,101.658 120.800 C 101.846 120.800,102.000 120.539,102.000 120.220 C 102.000 119.901,102.225 119.496,102.500 119.320 C 102.775 119.144,103.900 117.928,105.000 116.617 C 107.670 113.436,113.977 107.151,116.758 104.900 C 117.991 103.902,119.144 102.841,119.320 102.543 C 119.496 102.244,119.811 102.000,120.020 102.000 C 120.229 102.000,120.740 101.685,121.155 101.300 C 121.570 100.915,122.843 99.970,123.983 99.200 C 125.123 98.430,126.268 97.614,126.528 97.386 C 126.788 97.159,127.900 96.455,129.000 95.821 C 130.100 95.188,131.090 94.553,131.200 94.412 C 131.310 94.270,131.985 93.918,132.700 93.629 C 133.415 93.340,134.000 92.959,134.000 92.783 C 134.000 92.607,134.540 92.345,135.200 92.200 C 135.860 92.055,136.400 91.807,136.400 91.649 C 136.400 91.490,137.075 91.119,137.900 90.824 C 138.725 90.529,139.490 90.176,139.600 90.040 C 139.710 89.904,140.880 89.363,142.200 88.838 C 143.520 88.313,145.355 87.550,146.278 87.142 C 147.201 86.734,148.191 86.399,148.478 86.398 C 148.765 86.396,149.503 86.133,150.117 85.812 C 150.731 85.492,151.856 85.113,152.617 84.970 C 153.378 84.828,154.000 84.576,154.000 84.412 C 154.000 84.248,155.356 83.881,157.013 83.598 C 158.670 83.314,160.113 82.942,160.219 82.769 C 160.325 82.597,161.445 82.331,162.706 82.179 C 163.968 82.026,165.180 81.766,165.400 81.600 C 165.933 81.199,173.881 80.399,177.400 80.393 C 178.940 80.390,180.470 80.206,180.800 79.985 C 181.372 79.600,185.348 79.683,189.800 80.172 M173.016 109.268 C 171.044 109.474,169.244 109.795,169.016 109.982 C 168.787 110.170,167.565 110.451,166.300 110.608 C 165.035 110.764,164.000 111.046,164.000 111.234 C 164.000 111.421,163.728 111.470,163.395 111.343 C 163.062 111.215,162.567 111.290,162.295 111.509 C 162.023 111.728,161.170 112.039,160.400 112.200 C 159.630 112.361,158.820 112.631,158.600 112.800 C 158.380 112.969,157.576 113.241,156.813 113.405 C 156.050 113.568,155.150 113.846,154.813 114.023 C 152.811 115.074,148.866 116.800,148.468 116.800 C 148.211 116.800,148.000 116.960,148.000 117.157 C 148.000 117.353,147.550 117.626,147.000 117.764 C 146.450 117.902,146.000 118.178,146.000 118.376 C 146.000 118.574,145.461 118.855,144.802 118.999 C 144.144 119.144,143.469 119.477,143.302 119.740 C 143.136 120.002,142.550 120.445,142.000 120.724 C 140.224 121.626,139.352 122.191,138.640 122.903 C 138.257 123.286,137.692 123.600,137.386 123.600 C 137.079 123.600,136.635 123.960,136.400 124.400 C 136.165 124.840,135.773 125.200,135.529 125.200 C 135.286 125.200,134.571 125.740,133.940 126.400 C 133.309 127.060,132.655 127.600,132.485 127.600 C 132.316 127.600,131.886 127.915,131.529 128.300 C 131.172 128.685,129.872 129.965,128.640 131.145 C 127.408 132.325,126.400 133.546,126.400 133.858 C 126.400 134.170,126.135 134.527,125.811 134.651 C 125.487 134.776,125.103 135.535,124.959 136.339 C 124.814 137.142,124.564 137.980,124.402 138.200 C 123.579 139.322,124.553 146.428,125.728 147.875 C 127.182 149.665,129.982 152.400,130.360 152.400 C 130.602 152.400,130.800 152.559,130.800 152.753 C 130.800 153.341,134.183 154.000,137.200 154.000 C 140.217 154.000,143.600 153.341,143.600 152.753 C 143.600 152.559,143.826 152.400,144.103 152.400 C 144.379 152.400,145.144 151.813,145.803 151.096 C 146.461 150.379,147.709 149.254,148.576 148.596 C 149.443 147.938,150.545 147.040,151.025 146.600 C 152.877 144.900,154.030 144.054,155.193 143.539 C 155.857 143.245,156.400 142.869,156.400 142.702 C 156.400 142.536,156.661 142.400,156.980 142.400 C 157.299 142.400,157.704 142.155,157.880 141.857 C 158.056 141.558,158.875 141.094,159.700 140.826 C 160.525 140.557,161.200 140.190,161.200 140.009 C 161.200 139.828,162.100 139.464,163.200 139.200 C 164.300 138.936,165.200 138.578,165.200 138.405 C 165.200 138.231,165.875 137.963,166.700 137.809 C 167.525 137.655,168.380 137.385,168.600 137.211 C 168.820 137.036,170.350 136.663,172.000 136.383 C 173.650 136.102,175.249 135.679,175.553 135.443 C 176.290 134.871,192.726 134.851,193.119 135.421 C 193.273 135.646,194.738 136.053,196.372 136.326 C 198.007 136.599,199.537 136.976,199.772 137.165 C 200.008 137.353,200.824 137.641,201.587 137.805 C 202.350 137.968,203.250 138.246,203.587 138.423 C 205.589 139.474,209.534 141.200,209.932 141.200 C 210.189 141.200,210.400 141.380,210.400 141.600 C 210.400 141.820,210.642 142.000,210.939 142.000 C 211.235 142.000,211.893 142.360,212.400 142.800 C 212.907 143.240,213.571 143.600,213.874 143.600 C 214.177 143.600,214.529 143.870,214.655 144.200 C 214.782 144.530,215.130 144.800,215.429 144.800 C 215.727 144.800,216.158 145.148,216.386 145.573 C 216.613 145.998,217.119 146.447,217.510 146.572 C 217.902 146.696,219.536 148.058,221.142 149.599 C 222.749 151.139,224.319 152.400,224.631 152.400 C 224.944 152.400,225.200 152.567,225.200 152.771 C 225.200 153.437,229.368 154.095,232.621 153.944 C 237.065 153.736,239.142 152.564,242.669 148.271 C 242.927 147.957,243.349 146.913,243.606 145.950 C 243.864 144.988,244.238 143.887,244.437 143.505 C 244.903 142.613,244.909 139.315,244.446 139.029 C 244.252 138.908,243.973 138.016,243.828 137.045 C 243.682 136.074,243.256 134.906,242.881 134.450 C 242.507 133.994,241.750 132.990,241.200 132.219 C 240.650 131.449,239.966 130.902,239.679 131.004 C 239.393 131.107,239.262 131.024,239.387 130.820 C 239.513 130.617,239.151 130.124,238.582 129.725 C 238.012 129.326,236.900 128.325,236.109 127.500 C 235.318 126.675,234.430 126.000,234.136 126.000 C 233.841 126.000,233.600 125.816,233.600 125.591 C 233.600 125.367,233.105 124.965,232.500 124.700 C 231.895 124.434,231.256 123.989,231.081 123.710 C 230.690 123.088,226.185 120.148,223.200 118.566 C 221.990 117.925,220.940 117.265,220.867 117.100 C 220.793 116.935,220.535 116.800,220.293 116.800 C 220.051 116.800,219.121 116.455,218.226 116.034 C 214.815 114.428,212.932 113.648,211.786 113.368 C 211.134 113.208,210.510 112.960,210.400 112.817 C 210.186 112.539,206.662 111.582,205.500 111.486 C 205.115 111.455,204.800 111.305,204.800 111.154 C 204.800 111.002,203.675 110.749,202.300 110.591 C 200.925 110.433,199.708 110.159,199.595 109.982 C 198.977 109.012,180.284 108.510,173.016 109.268 " stroke="none" fill="#343434" fill-rule="evenodd"></path><path id="path1" d="" stroke="none" fill="#383434" fill-rule="evenodd"></path><path id="path2" d="" stroke="none" fill="#383434" fill-rule="evenodd"></path><path id="path3" d="" stroke="none" fill="#383434" fill-rule="evenodd"></path><path id="path4" d="" stroke="none" fill="#383434" fill-rule="evenodd"></path></g></svg>