<svg id="svg" version="1.1" xmlns="http://www.w3.org/2000/svg" xmlns:xlink="http://www.w3.org/1999/xlink" width="400" height="400" viewBox="0, 0, 400,400"><g id="svgg"><path id="path0" d="M149.200 37.148 C 149.200 37.340,147.940 37.621,146.400 37.773 C 144.860 37.924,143.600 38.195,143.600 38.374 C 143.600 38.553,143.060 38.808,142.400 38.940 C 140.700 39.280,137.600 40.746,137.600 41.210 C 137.600 41.424,137.465 41.571,137.300 41.535 C 136.730 41.413,134.800 42.381,134.800 42.790 C 134.800 43.016,134.556 43.200,134.258 43.200 C 133.961 43.200,132.656 44.296,131.358 45.637 C 130.061 46.977,128.685 48.367,128.300 48.725 C 127.915 49.084,127.600 49.608,127.600 49.889 C 127.600 50.170,127.430 50.400,127.222 50.400 C 126.869 50.400,126.389 51.134,125.128 53.600 C 124.846 54.150,124.496 54.690,124.350 54.800 C 124.203 54.910,123.867 55.810,123.602 56.800 C 123.338 57.790,122.968 58.789,122.779 59.019 C 121.819 60.194,121.464 64.985,121.322 78.683 L 121.172 93.166 92.086 93.283 L 63.000 93.400 61.219 94.400 C 59.637 95.289,55.200 99.231,55.200 99.748 C 55.200 99.858,54.992 100.455,54.739 101.074 C 53.904 103.110,53.861 103.372,53.861 106.400 C 53.861 109.428,53.904 109.690,54.739 111.726 C 54.992 112.345,55.200 113.020,55.200 113.226 C 55.200 113.432,55.357 113.600,55.548 113.600 C 55.740 113.600,56.325 114.229,56.848 114.997 C 57.372 115.766,58.016 116.396,58.280 116.397 C 58.544 116.399,58.904 116.647,59.080 116.948 C 60.064 118.633,62.824 119.342,69.100 119.522 C 74.740 119.684,75.200 119.754,75.200 120.449 C 75.200 120.862,75.350 121.200,75.534 121.200 C 75.718 121.200,76.102 126.015,76.387 131.900 C 76.672 137.785,77.041 142.780,77.206 143.000 C 77.372 143.220,77.638 146.460,77.796 150.200 C 77.955 153.940,78.220 157.180,78.387 157.400 C 78.553 157.620,78.917 162.480,79.195 168.200 C 79.473 173.920,79.843 178.780,80.016 179.000 C 80.189 179.220,80.458 182.550,80.613 186.400 C 80.768 190.250,81.029 193.490,81.192 193.600 C 81.355 193.710,81.495 195.150,81.503 196.800 C 81.526 201.387,82.483 214.974,82.800 215.200 C 83.059 215.385,83.885 226.904,84.105 233.400 C 84.157 234.940,84.315 236.380,84.457 236.600 C 84.598 236.820,84.845 240.195,85.005 244.100 C 85.166 248.005,85.426 251.200,85.583 251.200 C 85.740 251.200,86.102 256.015,86.387 261.900 C 86.672 267.785,87.041 272.780,87.206 273.000 C 87.372 273.220,87.638 276.460,87.796 280.200 C 87.955 283.940,88.220 287.180,88.387 287.400 C 88.553 287.620,88.917 292.480,89.195 298.200 C 89.473 303.920,89.834 308.780,89.997 309.000 C 90.159 309.220,90.413 311.913,90.560 314.985 C 90.708 318.057,90.959 320.667,91.119 320.785 C 91.279 320.903,91.435 321.540,91.467 322.200 C 91.542 323.790,92.457 327.747,92.807 328.000 C 92.959 328.110,93.308 329.145,93.582 330.300 C 93.856 331.455,94.228 332.400,94.408 332.400 C 94.589 332.400,94.855 332.940,95.000 333.600 C 95.145 334.260,95.400 334.800,95.568 334.800 C 95.735 334.800,96.110 335.520,96.400 336.400 C 96.690 337.280,97.079 338.000,97.264 338.000 C 97.449 338.000,97.600 338.276,97.600 338.613 C 97.600 338.949,97.870 339.329,98.200 339.455 C 98.530 339.582,98.800 339.859,98.800 340.071 C 98.800 340.658,101.070 343.830,102.766 345.612 C 103.596 346.485,104.235 347.200,104.185 347.200 C 103.927 347.200,107.401 350.456,108.698 351.429 C 109.524 352.049,110.344 352.791,110.520 353.078 C 110.696 353.365,111.106 353.600,111.432 353.600 C 111.758 353.600,112.129 353.870,112.255 354.200 C 112.382 354.530,112.714 354.800,112.994 354.800 C 113.273 354.800,113.718 355.061,113.983 355.380 C 114.248 355.698,115.125 356.174,115.932 356.438 C 116.739 356.701,117.490 357.027,117.600 357.162 C 117.991 357.643,122.223 359.600,122.872 359.600 C 123.236 359.600,123.593 359.765,123.667 359.967 C 123.740 360.169,124.970 360.568,126.400 360.854 C 127.830 361.140,129.096 361.507,129.213 361.670 C 129.331 361.833,130.906 362.090,132.713 362.241 C 134.521 362.392,136.000 362.669,136.000 362.858 C 136.000 363.046,164.765 363.200,200.000 363.200 C 235.235 363.200,264.000 363.046,264.000 362.858 C 264.000 362.669,265.479 362.392,267.287 362.241 C 269.094 362.090,270.669 361.833,270.787 361.670 C 270.904 361.507,272.170 361.140,273.600 360.854 C 275.030 360.568,276.260 360.169,276.333 359.967 C 276.407 359.765,276.764 359.600,277.128 359.600 C 277.777 359.600,282.009 357.643,282.400 357.162 C 282.510 357.027,283.261 356.701,284.068 356.438 C 284.875 356.174,285.752 355.698,286.017 355.380 C 286.282 355.061,286.727 354.800,287.006 354.800 C 287.286 354.800,287.618 354.530,287.745 354.200 C 287.871 353.870,288.242 353.600,288.568 353.600 C 288.894 353.600,289.304 353.365,289.480 353.078 C 289.656 352.791,290.513 352.026,291.385 351.378 C 294.483 349.075,301.184 341.401,301.196 340.143 C 301.198 339.891,301.470 339.582,301.800 339.455 C 302.130 339.329,302.400 338.949,302.400 338.613 C 302.400 338.276,302.551 338.000,302.736 338.000 C 302.921 338.000,303.310 337.280,303.600 336.400 C 303.890 335.520,304.265 334.800,304.432 334.800 C 304.600 334.800,304.855 334.260,305.000 333.600 C 305.145 332.940,305.411 332.400,305.592 332.400 C 305.772 332.400,306.144 331.455,306.418 330.300 C 306.692 329.145,307.041 328.110,307.193 328.000 C 307.345 327.890,307.687 326.810,307.952 325.600 C 308.217 324.390,308.598 322.680,308.797 321.800 C 308.997 320.920,309.283 317.770,309.434 314.800 C 309.585 311.830,309.841 309.220,310.003 309.000 C 310.166 308.780,310.527 303.920,310.805 298.200 C 311.083 292.480,311.447 287.620,311.613 287.400 C 311.780 287.180,312.045 283.940,312.204 280.200 C 312.362 276.460,312.628 273.220,312.794 273.000 C 312.959 272.780,313.328 267.785,313.613 261.900 C 313.898 256.015,314.260 251.200,314.417 251.200 C 314.574 251.200,314.834 248.005,314.994 244.100 C 315.154 240.195,315.423 236.820,315.592 236.600 C 315.761 236.380,316.129 231.520,316.411 225.800 C 316.693 220.080,317.051 215.310,317.206 215.200 C 317.361 215.090,317.691 211.760,317.938 207.800 C 318.185 203.840,318.676 195.920,319.028 190.200 C 319.381 184.480,319.822 179.440,320.010 179.000 C 320.197 178.560,320.568 173.610,320.832 168.000 C 321.097 162.390,321.449 157.620,321.615 157.400 C 321.780 157.180,322.045 153.940,322.204 150.200 C 322.362 146.460,322.628 143.220,322.794 143.000 C 322.959 142.780,323.328 137.785,323.613 131.900 C 323.898 126.015,324.282 121.200,324.466 121.200 C 324.650 121.200,324.800 120.862,324.800 120.449 C 324.800 119.754,325.260 119.684,330.900 119.522 C 337.176 119.342,339.936 118.633,340.920 116.948 C 341.096 116.647,341.456 116.399,341.720 116.397 C 341.984 116.396,342.628 115.766,343.152 114.997 C 343.675 114.229,344.260 113.600,344.452 113.600 C 344.643 113.600,344.801 113.375,344.802 113.100 C 344.804 112.825,345.112 112.060,345.488 111.400 C 346.455 109.700,346.455 103.100,345.488 101.400 C 345.112 100.740,344.804 100.053,344.802 99.874 C 344.798 99.253,340.554 95.396,338.781 94.400 L 337.000 93.400 307.910 93.283 L 278.819 93.166 278.679 78.683 C 278.545 64.947,278.194 60.209,277.221 59.019 C 277.032 58.789,276.662 57.790,276.398 56.800 C 276.133 55.810,275.797 54.910,275.650 54.800 C 275.504 54.690,275.154 54.150,274.872 53.600 C 273.611 51.134,273.131 50.400,272.778 50.400 C 272.570 50.400,272.400 50.200,272.400 49.956 C 272.400 49.474,271.730 48.698,268.448 45.377 C 267.264 44.180,266.049 43.200,265.748 43.200 C 265.446 43.200,265.200 43.016,265.200 42.790 C 265.200 42.381,263.270 41.413,262.700 41.535 C 262.535 41.571,262.400 41.424,262.400 41.210 C 262.400 40.746,259.300 39.280,257.600 38.940 C 256.940 38.808,256.400 38.553,256.400 38.374 C 256.400 38.195,255.140 37.924,253.600 37.773 C 252.060 37.621,250.800 37.340,250.800 37.148 C 250.800 36.952,228.575 36.800,200.000 36.800 C 171.425 36.800,149.200 36.952,149.200 37.148 M248.532 63.625 C 249.766 63.935,250.484 64.437,251.209 65.495 L 252.200 66.940 252.316 80.070 L 252.431 93.200 200.000 93.200 L 147.569 93.200 147.684 80.100 L 147.800 67.000 148.800 65.517 C 149.465 64.531,150.269 63.909,151.200 63.659 C 153.242 63.110,246.359 63.078,248.532 63.625 M297.810 125.300 C 297.665 128.435,297.391 131.450,297.202 132.000 C 297.013 132.550,296.651 137.410,296.399 142.800 C 296.147 148.190,295.826 152.870,295.687 153.200 C 295.435 153.796,295.017 159.230,293.469 182.000 C 293.193 186.070,292.854 189.670,292.716 190.000 C 292.448 190.643,291.519 204.086,291.445 208.400 C 291.420 209.830,291.284 211.180,291.143 211.400 C 291.002 211.620,290.756 214.860,290.597 218.600 C 290.438 222.340,290.175 225.580,290.011 225.800 C 289.848 226.020,289.495 230.790,289.226 236.400 C 288.957 242.010,288.624 246.870,288.487 247.200 C 288.237 247.801,287.869 252.422,286.467 272.600 C 286.054 278.540,285.663 283.400,285.597 283.400 C 285.491 283.400,284.744 293.002,284.180 301.600 C 283.375 313.896,283.168 316.272,282.854 316.815 C 282.500 317.429,281.870 320.553,282.000 321.050 C 282.038 321.193,281.893 321.421,281.679 321.555 C 281.465 321.690,280.995 322.430,280.634 323.200 C 279.761 325.065,279.120 326.128,278.397 326.907 C 278.069 327.262,277.355 328.167,276.812 328.919 C 276.268 329.671,275.368 330.577,274.812 330.932 C 274.255 331.287,273.440 331.807,273.000 332.089 C 272.560 332.370,272.110 332.708,272.000 332.840 C 271.652 333.258,269.813 334.174,269.500 334.085 C 269.335 334.038,269.200 334.166,269.200 334.368 C 269.200 334.571,268.615 334.863,267.900 335.018 C 267.185 335.174,266.503 335.452,266.385 335.636 C 265.269 337.379,134.731 337.379,133.615 335.636 C 133.497 335.452,132.815 335.174,132.100 335.018 C 131.385 334.863,130.800 334.571,130.800 334.368 C 130.800 334.166,130.665 334.038,130.500 334.085 C 130.187 334.174,128.348 333.258,128.000 332.840 C 127.890 332.708,127.440 332.370,127.000 332.089 C 126.560 331.807,125.745 331.287,125.188 330.932 C 124.632 330.577,123.732 329.671,123.188 328.919 C 122.645 328.167,121.931 327.262,121.603 326.907 C 120.880 326.128,120.239 325.065,119.366 323.200 C 119.005 322.430,118.535 321.690,118.321 321.555 C 118.107 321.421,117.962 321.193,118.000 321.050 C 118.129 320.555,117.500 317.430,117.148 316.815 C 116.954 316.477,116.521 312.150,116.186 307.200 C 115.061 290.570,114.524 283.400,114.403 283.400 C 114.337 283.400,113.946 278.540,113.533 272.600 C 112.132 252.442,111.763 247.801,111.515 247.200 C 111.378 246.870,111.056 242.100,110.800 236.600 C 110.544 231.100,110.226 226.330,110.094 226.000 C 109.962 225.670,109.521 220.630,109.114 214.800 C 107.636 193.617,107.365 190.189,107.121 189.600 C 106.985 189.270,106.584 184.320,106.232 178.600 C 105.226 162.296,104.588 153.852,104.313 153.200 C 104.174 152.870,103.853 148.190,103.601 142.800 C 103.349 137.410,102.987 132.550,102.798 132.000 C 102.609 131.450,102.335 128.435,102.190 125.300 L 101.925 119.600 200.000 119.600 L 298.075 119.600 297.810 125.300 M218.400 187.433 C 217.850 187.739,217.085 187.991,216.700 187.994 C 216.315 187.997,216.000 188.168,216.000 188.373 C 216.000 188.578,215.652 188.857,215.226 188.992 C 214.395 189.256,211.490 191.983,210.045 193.855 C 209.012 195.194,205.876 198.676,202.900 201.787 C 201.745 202.995,200.797 204.122,200.793 204.291 C 200.789 204.461,200.356 205.007,199.831 205.505 L 198.876 206.411 196.881 204.405 C 195.784 203.302,194.753 202.400,194.590 202.400 C 194.428 202.400,193.731 201.815,193.041 201.100 C 192.352 200.385,190.715 198.900,189.402 197.800 C 188.090 196.700,186.499 195.215,185.867 194.500 C 185.234 193.785,184.485 193.200,184.201 193.200 C 183.918 193.200,183.595 192.965,183.485 192.678 C 183.375 192.391,182.411 191.733,181.343 191.215 C 180.274 190.697,179.087 190.122,178.705 189.937 C 177.716 189.457,171.600 189.511,171.600 190.000 C 171.600 190.220,171.195 190.401,170.700 190.401 C 168.850 190.405,164.041 194.359,163.404 196.400 C 163.233 196.950,162.891 197.528,162.646 197.685 C 161.987 198.107,162.037 207.279,162.700 207.500 C 162.975 207.592,163.200 207.950,163.200 208.296 C 163.200 209.486,165.309 211.895,169.651 215.666 C 170.833 216.692,172.197 217.907,172.683 218.366 C 173.169 218.825,173.677 219.200,173.813 219.200 C 173.948 219.200,175.088 220.235,176.347 221.500 C 177.605 222.765,179.046 224.070,179.550 224.400 C 181.694 225.806,181.578 226.049,175.926 232.020 C 174.895 233.109,174.130 234.000,174.226 234.000 C 174.322 234.000,174.085 234.329,173.700 234.732 C 173.000 235.463,169.523 239.265,167.558 241.448 C 166.985 242.085,166.375 243.054,166.204 243.603 C 166.032 244.151,165.691 244.728,165.446 244.885 C 164.835 245.277,164.835 254.723,165.446 255.115 C 165.691 255.272,166.030 255.850,166.199 256.400 C 166.563 257.585,170.196 261.200,171.024 261.200 C 171.341 261.200,171.600 261.372,171.600 261.582 C 171.600 261.792,172.232 262.082,173.004 262.227 C 173.777 262.372,174.507 262.650,174.628 262.845 C 174.915 263.309,180.800 263.308,180.800 262.845 C 180.800 262.649,181.430 262.371,182.200 262.226 C 182.970 262.082,183.600 261.811,183.600 261.625 C 183.600 261.439,184.043 261.176,184.585 261.040 C 185.554 260.796,188.703 257.870,190.127 255.888 C 190.528 255.331,191.608 254.088,192.527 253.124 C 194.006 251.575,196.052 249.293,199.915 244.883 L 201.068 243.566 202.686 245.083 C 204.593 246.872,209.169 250.969,211.312 252.807 C 212.143 253.520,213.493 254.728,214.312 255.491 C 216.513 257.543,216.867 257.825,218.400 258.751 C 219.170 259.216,220.205 259.598,220.700 259.599 C 221.195 259.599,221.600 259.780,221.600 260.000 C 221.600 260.235,223.000 260.400,225.000 260.400 C 227.000 260.400,228.400 260.235,228.400 260.000 C 228.400 259.780,228.805 259.599,229.300 259.599 C 231.158 259.595,235.976 255.584,236.627 253.499 C 236.782 253.005,237.109 252.472,237.354 252.315 C 238.287 251.718,237.913 243.569,236.858 241.515 C 235.677 239.215,231.196 234.660,226.712 231.200 C 226.285 230.870,224.901 229.610,223.637 228.400 C 222.373 227.190,220.933 225.930,220.437 225.600 C 218.698 224.443,218.711 223.853,220.517 221.867 C 225.115 216.812,226.610 215.110,226.720 214.808 C 226.787 214.626,227.867 213.412,229.120 212.110 C 232.714 208.378,233.463 207.463,233.796 206.397 C 233.968 205.849,234.309 205.272,234.554 205.115 C 234.842 204.931,235.000 203.115,235.000 200.000 C 235.000 196.885,234.842 195.069,234.554 194.885 C 234.309 194.728,233.967 194.150,233.796 193.600 C 233.172 191.600,228.276 187.600,226.453 187.600 C 225.984 187.600,225.600 187.420,225.600 187.200 C 225.600 186.587,219.573 186.782,218.400 187.433 " stroke="none" fill="#343434" fill-rule="evenodd"></path><path id="path1" d="" stroke="none" fill="#383434" fill-rule="evenodd"></path><path id="path2" d="" stroke="none" fill="#383434" fill-rule="evenodd"></path><path id="path3" d="" stroke="none" fill="#383434" fill-rule="evenodd"></path><path id="path4" d="" stroke="none" fill="#383434" fill-rule="evenodd"></path></g></svg>