<svg id="svg" version="1.1" xmlns="http://www.w3.org/2000/svg" xmlns:xlink="http://www.w3.org/1999/xlink" width="400" height="400" viewBox="0, 0, 400,400"><g id="svgg"><path id="path0" d="M124.900 70.667 C 123.525 70.761,122.400 70.978,122.400 71.149 C 122.400 71.320,121.815 71.476,121.100 71.495 C 119.053 71.550,114.400 72.456,114.400 72.799 C 114.400 72.969,113.590 73.231,112.600 73.379 C 111.610 73.528,110.800 73.808,110.800 74.002 C 110.800 74.195,110.440 74.285,110.000 74.200 C 109.560 74.115,109.200 74.196,109.200 74.378 C 109.200 74.561,108.570 74.829,107.800 74.974 C 107.030 75.118,106.400 75.374,106.400 75.543 C 106.400 75.711,105.500 76.079,104.400 76.361 C 103.300 76.643,102.400 77.034,102.400 77.229 C 102.400 77.425,101.950 77.698,101.400 77.836 C 100.850 77.974,100.400 78.219,100.400 78.380 C 100.400 78.541,99.701 78.883,98.847 79.139 C 97.994 79.394,97.072 79.873,96.798 80.202 C 96.525 80.531,96.094 80.800,95.840 80.800 C 95.586 80.800,94.787 81.340,94.064 82.000 C 93.342 82.660,92.591 83.200,92.395 83.200 C 92.200 83.200,91.880 83.486,91.684 83.836 C 91.488 84.186,91.212 84.411,91.069 84.336 C 90.416 83.993,80.400 93.178,80.400 94.121 C 80.400 94.300,80.220 94.336,80.000 94.200 C 79.780 94.064,79.600 94.098,79.600 94.276 C 79.599 94.454,79.148 95.140,78.596 95.800 C 78.044 96.460,77.279 97.403,76.896 97.896 C 76.513 98.389,75.885 99.182,75.500 99.657 C 75.115 100.133,74.800 100.647,74.800 100.800 C 74.800 101.044,74.324 101.685,72.807 103.483 C 72.583 103.749,72.400 104.081,72.400 104.221 C 72.400 104.362,72.052 104.965,71.627 105.563 C 71.201 106.160,70.732 107.133,70.583 107.724 C 70.435 108.316,70.160 108.800,69.973 108.800 C 69.785 108.800,69.416 109.520,69.153 110.400 C 68.889 111.280,68.522 112.000,68.337 112.000 C 68.152 112.000,68.000 112.190,68.000 112.422 C 68.000 112.654,67.656 113.599,67.236 114.522 C 66.816 115.445,66.346 116.875,66.192 117.700 C 66.037 118.525,65.781 119.200,65.623 119.200 C 65.306 119.200,64.382 122.471,64.295 123.900 C 64.265 124.395,64.117 124.800,63.967 124.800 C 63.816 124.800,63.565 126.015,63.407 127.500 C 63.250 128.985,62.944 130.417,62.727 130.682 C 62.038 131.524,61.771 146.810,62.438 147.232 C 62.747 147.428,62.820 147.590,62.600 147.594 C 62.181 147.600,62.253 151.335,62.692 152.400 C 62.828 152.730,63.168 154.350,63.449 156.000 C 64.082 159.730,64.164 160.104,64.464 160.600 C 64.597 160.820,64.838 161.630,64.999 162.400 C 65.160 163.170,65.431 163.980,65.600 164.200 C 65.769 164.420,66.039 165.230,66.199 166.000 C 66.519 167.535,67.931 170.882,68.393 171.200 C 68.553 171.310,68.916 172.120,69.200 173.000 C 69.484 173.880,69.825 174.690,69.958 174.800 C 70.091 174.910,70.734 176.035,71.386 177.300 C 72.038 178.565,72.669 179.600,72.788 179.600 C 72.907 179.600,73.235 180.121,73.517 180.757 C 73.799 181.394,74.473 182.393,75.015 182.978 C 75.557 183.563,76.000 184.167,76.000 184.321 C 76.001 184.799,80.842 190.395,83.120 192.551 C 83.846 193.238,85.333 194.655,86.425 195.700 C 87.517 196.745,88.517 197.600,88.648 197.600 C 88.896 197.600,90.946 199.176,92.034 200.202 C 92.382 200.531,92.789 200.800,92.938 200.800 C 93.086 200.800,94.072 201.407,95.127 202.148 C 96.182 202.890,97.485 203.634,98.023 203.802 C 98.560 203.970,99.090 204.220,99.200 204.358 C 99.530 204.771,103.773 206.800,104.306 206.800 C 104.578 206.800,104.800 206.972,104.800 207.182 C 104.800 207.392,105.430 207.682,106.200 207.826 C 106.970 207.971,107.600 208.231,107.600 208.405 C 107.600 208.578,108.545 208.942,109.700 209.212 C 110.855 209.483,111.992 209.856,112.228 210.041 C 112.463 210.226,113.993 210.601,115.628 210.874 C 117.262 211.147,118.696 211.505,118.813 211.669 C 118.931 211.833,120.511 212.091,122.326 212.242 C 124.141 212.393,125.720 212.671,125.836 212.859 C 126.112 213.305,140.688 213.305,140.964 212.859 C 141.080 212.671,142.659 212.393,144.474 212.242 C 146.289 212.091,147.869 211.833,147.987 211.669 C 148.104 211.505,149.538 211.147,151.172 210.874 C 152.807 210.601,154.337 210.224,154.572 210.035 C 154.808 209.847,155.630 209.561,156.400 209.401 C 157.170 209.241,158.555 208.770,159.478 208.355 C 160.401 207.940,161.346 207.600,161.578 207.600 C 161.810 207.600,162.000 207.440,162.000 207.245 C 162.000 207.049,162.612 206.774,163.360 206.634 C 164.108 206.494,164.940 206.114,165.209 205.789 C 165.478 205.465,165.933 205.200,166.220 205.200 C 166.508 205.200,166.981 204.975,167.271 204.700 C 167.562 204.425,168.430 203.886,169.200 203.502 C 170.796 202.707,172.107 201.911,172.400 201.560 C 172.510 201.428,173.039 201.088,173.575 200.806 C 174.582 200.275,175.143 199.863,176.379 198.750 C 176.775 198.393,177.277 198.033,177.494 197.950 C 179.150 197.320,188.939 187.537,189.550 185.901 C 189.633 185.681,189.993 185.184,190.350 184.797 C 191.579 183.469,192.400 182.236,192.400 181.719 C 192.400 181.433,192.584 181.200,192.810 181.200 C 193.035 181.200,193.391 180.750,193.600 180.200 C 193.809 179.650,194.150 179.200,194.358 179.200 C 194.566 179.200,194.855 178.660,195.000 178.000 C 195.145 177.340,195.407 176.800,195.583 176.800 C 195.759 176.800,196.140 176.215,196.429 175.500 C 196.718 174.785,197.062 174.110,197.193 174.000 C 197.324 173.890,197.935 172.630,198.551 171.200 C 199.166 169.770,199.909 168.060,200.202 167.400 C 200.494 166.740,200.859 165.523,201.012 164.696 C 201.165 163.868,201.435 163.102,201.611 162.993 C 201.786 162.885,202.056 162.032,202.210 161.098 C 202.364 160.164,202.627 159.220,202.793 159.000 C 203.157 158.518,204.000 152.922,204.000 150.984 C 204.000 150.223,204.180 149.600,204.400 149.600 C 204.909 149.600,204.946 134.671,204.440 133.695 C 204.242 133.313,203.878 131.214,203.632 129.032 C 203.386 126.849,203.025 124.869,202.830 124.632 C 202.635 124.394,202.348 123.345,202.192 122.300 C 202.036 121.255,201.770 120.400,201.599 120.400 C 201.429 120.400,201.163 119.725,201.008 118.900 C 200.854 118.075,200.384 116.645,199.964 115.722 C 199.544 114.799,199.200 113.899,199.200 113.723 C 199.200 113.321,195.890 106.673,195.554 106.400 C 195.419 106.290,195.181 105.795,195.027 105.300 C 194.872 104.805,194.596 104.400,194.412 104.400 C 194.229 104.400,193.890 103.860,193.660 103.200 C 193.430 102.540,193.052 102.000,192.821 102.000 C 192.589 102.000,192.400 101.724,192.400 101.387 C 192.400 101.051,192.130 100.671,191.800 100.545 C 191.470 100.418,191.200 100.083,191.200 99.799 C 191.200 99.516,190.753 98.860,190.207 98.342 C 189.661 97.824,189.211 97.237,189.207 97.038 C 189.203 96.839,188.525 96.000,187.700 95.174 C 186.875 94.348,185.320 92.666,184.245 91.436 C 183.169 90.206,182.120 89.200,181.913 89.200 C 181.707 89.200,180.862 88.525,180.036 87.700 C 178.360 86.025,176.319 84.435,175.974 84.535 C 175.849 84.571,175.309 84.134,174.774 83.566 C 174.238 82.997,172.900 82.015,171.800 81.385 C 170.700 80.754,169.710 80.120,169.600 79.976 C 169.490 79.831,168.725 79.471,167.900 79.176 C 167.075 78.881,166.400 78.510,166.400 78.351 C 166.400 78.193,165.860 77.945,165.200 77.800 C 164.540 77.655,164.000 77.385,164.000 77.199 C 164.000 77.014,163.353 76.648,162.561 76.387 C 161.770 76.126,160.645 75.663,160.061 75.359 C 159.478 75.054,158.696 74.804,158.324 74.802 C 157.952 74.801,157.528 74.608,157.383 74.373 C 157.238 74.138,156.867 74.042,156.560 74.160 C 156.252 74.278,156.000 74.221,156.000 74.033 C 156.000 73.845,155.190 73.569,154.200 73.421 C 153.210 73.272,152.400 73.002,152.400 72.820 C 152.400 72.487,148.048 71.601,145.800 71.476 C 145.140 71.439,144.491 71.259,144.358 71.074 C 144.093 70.708,128.931 70.391,124.900 70.667 M286.000 87.121 C 286.000 87.321,284.521 87.608,282.713 87.759 C 280.906 87.910,279.331 88.181,279.213 88.361 C 279.096 88.541,278.100 88.821,277.000 88.982 C 275.900 89.143,274.245 89.618,273.322 90.038 C 272.399 90.457,271.453 90.800,271.220 90.800 C 270.988 90.800,270.125 91.160,269.304 91.600 C 268.484 92.040,267.584 92.400,267.306 92.400 C 267.028 92.400,266.800 92.536,266.800 92.702 C 266.800 92.869,265.907 93.414,264.816 93.915 C 263.725 94.415,262.600 95.044,262.316 95.312 C 262.032 95.581,261.304 96.056,260.698 96.369 C 260.092 96.681,259.102 97.441,258.498 98.058 C 257.894 98.674,257.239 99.183,257.042 99.189 C 256.170 99.216,247.787 108.323,246.400 110.750 C 246.070 111.328,245.575 111.944,245.300 112.120 C 245.025 112.296,244.800 112.701,244.800 113.020 C 244.800 113.339,244.620 113.600,244.400 113.600 C 244.180 113.600,244.000 113.791,244.000 114.024 C 244.000 114.257,244.225 114.333,244.500 114.194 C 244.775 114.055,244.685 114.199,244.300 114.515 C 243.434 115.224,241.173 119.632,241.447 120.076 C 241.557 120.254,241.465 120.400,241.242 120.400 C 241.019 120.400,240.718 121.030,240.574 121.800 C 240.429 122.570,240.176 123.200,240.010 123.200 C 239.845 123.200,239.478 124.325,239.195 125.700 C 238.912 127.075,238.536 128.388,238.360 128.617 C 238.183 128.847,237.915 130.247,237.763 131.729 C 237.611 133.210,237.333 134.518,237.144 134.635 C 236.672 134.926,236.707 147.841,237.181 148.705 C 237.391 149.087,237.675 150.615,237.813 152.100 C 237.951 153.585,238.212 154.800,238.394 154.800 C 238.576 154.800,238.845 155.676,238.993 156.748 C 239.140 157.819,239.517 159.190,239.830 159.793 C 240.144 160.397,240.400 161.073,240.400 161.296 C 240.400 161.784,242.470 166.517,242.807 166.800 C 242.938 166.910,243.282 167.585,243.571 168.300 C 243.860 169.015,244.255 169.600,244.449 169.600 C 244.642 169.600,244.800 169.876,244.800 170.213 C 244.800 170.549,245.054 170.922,245.364 171.041 C 245.674 171.161,246.037 171.691,246.169 172.221 C 246.302 172.751,246.949 173.734,247.606 174.406 C 248.263 175.078,248.800 175.793,248.800 175.995 C 248.800 176.554,257.206 184.748,258.056 185.018 C 258.465 185.148,258.800 185.426,258.800 185.637 C 258.800 185.847,259.250 186.191,259.800 186.400 C 260.350 186.609,260.800 186.944,260.800 187.143 C 260.800 187.343,261.115 187.610,261.500 187.736 C 261.885 187.862,263.010 188.451,264.000 189.046 C 266.726 190.682,267.750 191.195,268.300 191.198 C 268.575 191.199,268.800 191.360,268.800 191.555 C 268.800 191.751,269.430 192.029,270.200 192.174 C 270.970 192.318,271.600 192.579,271.600 192.754 C 271.600 192.929,272.635 193.303,273.900 193.585 C 275.165 193.866,276.290 194.221,276.400 194.374 C 276.613 194.669,279.745 195.363,284.000 196.057 C 287.183 196.576,300.934 196.312,301.677 195.718 C 301.965 195.487,303.235 195.174,304.500 195.021 C 305.765 194.868,306.800 194.595,306.800 194.416 C 306.800 194.236,307.475 193.970,308.300 193.823 C 310.103 193.504,314.000 191.966,314.000 191.573 C 314.000 191.297,315.052 190.880,316.583 190.549 C 317.013 190.456,317.463 190.249,317.583 190.090 C 317.702 189.930,318.430 189.486,319.200 189.102 C 320.663 188.374,322.059 187.543,322.400 187.198 C 322.510 187.086,323.320 186.462,324.200 185.810 C 325.080 185.158,326.040 184.439,326.334 184.212 C 327.259 183.498,333.766 176.951,334.541 175.954 C 336.119 173.922,339.600 168.489,339.600 168.056 C 339.600 167.805,339.752 167.600,339.937 167.600 C 340.122 167.600,340.498 166.851,340.772 165.936 C 341.046 165.021,341.524 164.018,341.835 163.708 C 342.146 163.397,342.400 162.706,342.400 162.171 C 342.400 161.637,342.573 161.200,342.784 161.200 C 342.996 161.200,343.392 160.120,343.664 158.800 C 343.937 157.480,344.286 156.400,344.441 156.400 C 344.595 156.400,344.851 155.275,345.009 153.900 C 345.167 152.525,345.500 151.272,345.748 151.115 C 346.379 150.716,346.380 133.147,345.749 132.362 C 345.502 132.053,345.174 130.768,345.021 129.506 C 344.869 128.245,344.602 127.125,344.429 127.018 C 344.256 126.911,343.884 125.738,343.602 124.412 C 343.321 123.085,342.955 122.000,342.790 122.000 C 342.624 122.000,342.371 121.370,342.226 120.600 C 342.082 119.830,341.820 119.200,341.645 119.200 C 341.470 119.200,341.111 118.480,340.847 117.600 C 340.584 116.720,340.209 116.000,340.016 116.000 C 339.822 116.000,339.542 115.448,339.394 114.773 C 339.246 114.098,338.872 113.449,338.562 113.330 C 338.253 113.212,338.000 112.959,338.000 112.770 C 338.000 112.250,334.736 107.600,334.371 107.600 C 334.197 107.600,333.949 107.269,333.821 106.865 C 333.472 105.767,328.765 101.175,328.289 101.469 C 328.060 101.610,327.996 101.530,328.146 101.288 C 328.295 101.046,327.745 100.353,326.907 99.728 C 326.078 99.110,325.256 98.379,325.080 98.102 C 324.904 97.826,324.499 97.600,324.180 97.600 C 323.861 97.600,323.600 97.411,323.600 97.179 C 323.600 96.948,323.060 96.570,322.400 96.340 C 321.740 96.110,321.200 95.798,321.200 95.647 C 321.200 95.496,320.165 94.838,318.900 94.186 C 317.635 93.534,316.540 92.865,316.467 92.700 C 316.393 92.535,316.180 92.400,315.993 92.400 C 315.805 92.400,315.145 92.191,314.526 91.935 C 313.907 91.680,313.265 91.500,313.100 91.535 C 312.935 91.571,312.800 91.440,312.800 91.245 C 312.800 91.049,312.125 90.762,311.301 90.608 C 310.476 90.453,309.711 90.179,309.600 89.999 C 309.488 89.819,308.228 89.437,306.799 89.149 C 305.369 88.862,304.110 88.507,304.000 88.360 C 303.359 87.505,286.000 86.311,286.000 87.121 M140.800 97.203 C 140.910 97.368,142.125 97.633,143.500 97.791 C 144.875 97.949,146.000 98.212,146.000 98.376 C 146.000 98.539,146.990 98.894,148.200 99.165 C 149.410 99.436,150.400 99.790,150.400 99.953 C 150.400 100.116,151.311 100.482,152.424 100.767 C 153.537 101.053,154.344 101.390,154.217 101.516 C 154.090 101.643,154.485 101.989,155.093 102.285 C 157.636 103.520,159.461 104.706,160.351 105.700 C 160.696 106.085,161.148 106.400,161.355 106.400 C 161.866 106.400,170.400 115.277,170.400 115.809 C 170.400 116.149,172.574 119.389,172.900 119.533 C 173.065 119.607,173.200 119.859,173.200 120.095 C 173.200 120.481,174.748 124.101,175.554 125.600 C 175.731 125.930,176.108 127.190,176.391 128.400 C 176.673 129.610,177.054 130.790,177.237 131.022 C 177.419 131.254,177.692 132.925,177.843 134.734 C 177.994 136.544,178.271 138.120,178.459 138.236 C 178.903 138.511,178.904 145.088,178.460 145.363 C 178.273 145.479,178.003 146.956,177.860 148.645 C 177.717 150.335,177.447 151.916,177.260 152.159 C 177.073 152.401,176.688 153.725,176.405 155.100 C 176.122 156.475,175.755 157.600,175.590 157.600 C 175.424 157.600,175.171 158.230,175.026 159.000 C 174.882 159.770,174.592 160.400,174.382 160.400 C 174.172 160.400,174.023 160.535,174.052 160.700 C 174.142 161.216,173.041 163.600,172.712 163.600 C 172.541 163.600,172.400 163.808,172.400 164.062 C 172.400 164.316,171.950 165.114,171.400 165.836 C 170.850 166.557,170.400 167.339,170.400 167.573 C 170.400 167.808,170.250 168.000,170.068 168.000 C 169.885 168.000,169.489 168.459,169.189 169.020 C 168.550 170.214,163.364 175.478,161.255 177.075 C 160.455 177.680,159.620 178.319,159.400 178.494 C 158.449 179.249,156.051 180.684,154.200 181.605 C 153.100 182.152,152.108 182.721,151.996 182.868 C 151.884 183.016,151.254 183.266,150.596 183.423 C 149.938 183.581,149.175 183.888,148.900 184.104 C 148.625 184.321,148.400 184.364,148.400 184.200 C 148.400 184.036,148.175 184.088,147.900 184.315 C 147.625 184.542,146.680 184.858,145.800 185.016 C 144.920 185.175,144.017 185.448,143.793 185.624 C 142.197 186.878,124.616 186.892,123.029 185.642 C 122.793 185.456,121.880 185.175,121.000 185.016 C 120.120 184.858,119.175 184.542,118.900 184.315 C 118.625 184.088,118.400 184.036,118.400 184.200 C 118.400 184.364,118.175 184.317,117.900 184.095 C 117.625 183.874,116.815 183.567,116.100 183.414 C 115.385 183.262,114.800 182.971,114.800 182.768 C 114.800 182.566,114.632 182.400,114.426 182.400 C 114.220 182.400,113.545 182.207,112.926 181.972 C 112.307 181.736,111.751 181.560,111.692 181.580 C 111.633 181.600,111.363 181.430,111.092 181.201 C 109.236 179.633,108.617 179.196,107.950 178.984 C 107.111 178.718,106.278 178.001,102.200 174.033 C 99.190 171.104,96.800 168.471,96.800 168.083 C 96.800 167.854,94.824 164.820,94.401 164.400 C 94.007 164.008,92.000 159.712,92.000 159.260 C 92.000 159.007,91.849 158.800,91.664 158.800 C 91.479 158.800,91.089 157.765,90.797 156.500 C 90.505 155.235,90.134 154.020,89.974 153.800 C 89.813 153.580,89.479 151.960,89.232 150.200 C 88.984 148.440,88.595 145.920,88.368 144.600 C 87.926 142.038,88.003 138.401,88.500 138.400 C 88.665 138.400,88.800 137.760,88.800 136.977 C 88.800 135.142,89.633 129.920,90.008 129.400 C 90.167 129.180,90.534 128.055,90.824 126.900 C 91.114 125.745,91.497 124.800,91.676 124.800 C 91.854 124.800,92.000 124.617,92.000 124.393 C 92.000 123.670,94.124 119.200,94.468 119.200 C 94.650 119.200,94.800 119.016,94.800 118.791 C 94.800 118.411,96.717 115.245,97.217 114.800 C 97.341 114.690,97.964 113.906,98.601 113.058 C 100.273 110.831,104.211 107.014,105.390 106.477 C 105.946 106.224,106.400 105.833,106.400 105.609 C 106.400 105.384,106.676 105.200,107.013 105.200 C 107.349 105.200,107.717 104.961,107.829 104.668 C 107.941 104.376,108.656 103.892,109.417 103.593 C 110.177 103.295,110.800 102.904,110.800 102.725 C 110.800 102.546,111.076 102.400,111.413 102.400 C 111.749 102.400,112.123 102.145,112.243 101.833 C 112.363 101.521,113.347 101.053,114.430 100.793 C 115.514 100.533,116.400 100.176,116.400 100.000 C 116.400 99.824,117.345 99.458,118.500 99.188 C 119.655 98.917,120.784 98.550,121.010 98.373 C 121.235 98.196,122.405 97.926,123.610 97.772 C 124.814 97.619,125.986 97.348,126.214 97.169 C 127.135 96.447,140.318 96.477,140.800 97.203 M295.800 113.618 C 297.780 113.844,299.460 114.202,299.533 114.414 C 299.607 114.626,300.008 114.800,300.424 114.800 C 301.150 114.800,305.584 116.741,306.000 117.240 C 306.110 117.372,306.579 117.679,307.042 117.923 C 307.810 118.327,311.001 120.784,311.687 121.501 C 313.274 123.156,314.334 124.400,314.158 124.400 C 314.040 124.400,314.181 124.664,314.471 124.986 C 314.762 125.308,315.180 125.805,315.400 126.090 C 316.012 126.882,318.000 131.024,318.000 131.507 C 318.000 131.741,318.180 131.993,318.400 132.067 C 318.621 132.140,318.999 133.730,319.242 135.600 C 319.484 137.470,319.844 139.313,320.041 139.695 C 320.525 140.630,320.497 143.093,320.000 143.400 C 319.780 143.536,319.600 144.327,319.600 145.157 C 319.600 146.967,318.780 151.319,318.386 151.600 C 318.231 151.710,317.625 152.854,317.039 154.143 C 316.452 155.431,315.708 156.749,315.386 157.071 C 315.064 157.393,314.800 157.871,314.800 158.132 C 314.800 158.394,314.440 158.832,314.000 159.107 C 313.560 159.382,313.200 159.788,313.200 160.010 C 313.200 160.382,311.964 161.623,309.042 164.185 C 308.404 164.743,307.639 165.200,307.342 165.200 C 307.044 165.200,306.800 165.354,306.800 165.543 C 306.800 165.961,302.951 168.000,302.163 168.000 C 301.853 168.000,301.600 168.155,301.600 168.343 C 301.600 168.532,300.205 168.905,298.500 169.171 C 296.795 169.438,295.087 169.823,294.705 170.028 C 293.774 170.527,288.912 170.504,288.600 170.000 C 288.464 169.780,287.778 169.599,287.076 169.598 C 285.579 169.595,283.117 168.984,281.340 168.174 C 280.646 167.858,279.881 167.600,279.640 167.600 C 279.398 167.600,279.200 167.434,279.200 167.232 C 279.200 167.029,278.648 166.742,277.973 166.594 C 277.298 166.446,276.649 166.072,276.530 165.762 C 276.412 165.453,276.142 165.200,275.931 165.200 C 274.843 165.200,270.469 161.123,268.601 158.368 C 267.942 157.396,267.292 156.510,267.157 156.400 C 267.023 156.290,266.671 155.525,266.376 154.700 C 266.081 153.875,265.695 153.200,265.520 153.200 C 265.344 153.200,265.199 152.885,265.198 152.500 C 265.196 152.115,264.922 151.277,264.589 150.637 C 262.929 147.455,262.910 136.110,264.559 133.000 C 264.909 132.340,265.196 131.613,265.198 131.385 C 265.199 131.156,265.560 130.263,266.000 129.400 C 266.440 128.537,266.800 127.599,266.800 127.315 C 266.800 127.032,266.986 126.800,267.213 126.800 C 267.439 126.800,267.741 126.499,267.882 126.131 C 268.023 125.762,268.423 125.160,268.769 124.791 C 269.116 124.423,269.760 123.615,270.200 122.995 C 270.640 122.375,271.195 121.673,271.434 121.434 C 271.673 121.195,272.375 120.640,272.995 120.200 C 273.615 119.760,274.425 119.130,274.796 118.800 C 276.279 117.480,280.219 115.439,282.200 114.964 C 282.860 114.806,283.502 114.523,283.626 114.335 C 283.836 114.016,288.282 113.365,291.000 113.255 C 291.660 113.228,293.820 113.391,295.800 113.618 M262.494 220.672 C 261.996 220.774,261.699 221.036,261.834 221.255 C 261.970 221.474,261.837 221.613,261.540 221.564 C 260.812 221.443,259.543 221.988,258.749 222.764 C 258.391 223.114,257.761 223.689,257.349 224.043 C 255.864 225.317,254.393 227.594,254.234 228.867 C 254.215 229.013,254.065 229.268,253.900 229.433 C 253.421 229.913,253.536 236.800,254.024 236.800 C 254.257 236.800,254.351 236.956,254.234 237.146 C 253.678 238.045,256.608 242.172,259.255 244.221 C 261.931 246.292,260.182 246.179,292.839 246.397 C 314.558 246.543,323.236 246.728,323.639 247.055 C 323.947 247.305,325.010 247.640,326.000 247.800 C 326.990 247.960,327.980 248.228,328.200 248.396 C 328.420 248.564,329.050 248.832,329.600 248.992 C 331.010 249.400,334.973 251.340,335.133 251.700 C 335.207 251.865,335.424 252.000,335.616 252.000 C 336.510 252.000,339.189 254.136,342.640 257.600 C 346.021 260.995,346.400 261.413,346.400 261.750 C 346.400 262.024,347.973 264.396,348.423 264.800 C 348.545 264.910,348.895 265.630,349.200 266.400 C 349.505 267.170,349.880 267.890,350.033 268.000 C 350.186 268.110,350.500 268.830,350.731 269.600 C 350.962 270.370,351.425 271.720,351.758 272.600 C 352.092 273.480,352.394 274.830,352.429 275.600 C 352.474 276.582,352.563 276.761,352.727 276.200 C 352.856 275.760,353.173 278.010,353.431 281.200 C 353.933 287.382,353.962 287.554,354.834 289.400 C 355.325 290.442,357.542 292.851,359.291 294.246 C 361.552 296.048,370.220 297.154,371.115 295.754 C 371.272 295.509,371.836 295.172,372.369 295.005 C 374.184 294.438,377.119 291.626,378.428 289.200 C 379.517 287.183,379.785 277.112,378.875 272.400 C 378.110 268.441,377.573 266.211,377.235 265.587 C 377.052 265.250,376.768 264.350,376.606 263.587 C 376.443 262.824,375.960 261.390,375.533 260.400 C 375.106 259.410,374.605 258.240,374.421 257.800 C 373.369 255.292,371.824 252.400,371.535 252.400 C 371.351 252.400,371.200 252.154,371.200 251.853 C 371.200 251.552,370.390 250.098,369.400 248.622 C 368.410 247.145,367.600 245.880,367.600 245.810 C 367.600 245.008,354.856 232.400,354.046 232.400 C 353.869 232.400,353.398 232.040,353.000 231.600 C 352.602 231.160,352.132 230.800,351.956 230.800 C 351.675 230.800,349.320 229.362,348.200 228.506 C 347.415 227.906,343.380 226.000,342.894 226.000 C 342.622 226.000,342.400 225.840,342.400 225.645 C 342.400 225.449,341.770 225.171,341.000 225.026 C 340.230 224.882,339.600 224.571,339.600 224.335 C 339.600 224.100,339.240 224.001,338.800 224.116 C 338.360 224.231,338.000 224.164,338.000 223.967 C 338.000 223.770,337.280 223.494,336.400 223.354 C 335.520 223.213,334.800 222.973,334.800 222.819 C 334.800 222.555,330.702 221.597,329.000 221.463 C 328.560 221.428,328.072 221.220,327.915 221.000 C 327.629 220.600,264.399 220.283,262.494 220.672 M91.837 237.140 C 91.722 237.327,90.086 237.598,88.203 237.743 C 86.320 237.888,84.469 238.178,84.090 238.387 C 83.710 238.596,82.095 238.971,80.500 239.220 C 78.905 239.469,77.600 239.825,77.600 240.012 C 77.600 240.198,76.790 240.472,75.800 240.621 C 74.810 240.769,74.000 241.050,74.000 241.245 C 74.000 241.440,73.865 241.571,73.700 241.535 C 73.120 241.410,69.600 242.499,69.600 242.803 C 69.600 242.972,68.970 243.229,68.200 243.374 C 67.430 243.518,66.800 243.819,66.800 244.042 C 66.800 244.265,66.620 244.336,66.400 244.200 C 66.180 244.064,66.000 244.124,66.000 244.333 C 66.000 244.542,65.507 244.837,64.904 244.988 C 64.301 245.140,63.716 245.384,63.604 245.532 C 63.492 245.679,62.365 246.334,61.100 246.986 C 59.835 247.638,58.800 248.294,58.800 248.443 C 58.800 248.591,58.395 248.815,57.900 248.940 C 57.033 249.159,56.434 249.553,54.006 251.500 C 53.389 251.995,52.778 252.400,52.647 252.400 C 52.355 252.400,51.000 253.464,49.592 254.800 C 49.013 255.350,47.832 256.335,46.969 256.988 C 44.628 258.762,41.197 262.471,41.478 262.926 C 41.613 263.145,41.540 263.210,41.315 263.071 C 41.090 262.932,40.477 263.388,39.953 264.084 C 39.429 264.780,38.685 265.626,38.300 265.964 C 37.915 266.302,37.600 266.718,37.600 266.889 C 37.600 267.060,37.285 267.547,36.900 267.971 C 35.475 269.542,33.401 272.470,33.401 272.915 C 33.400 273.088,33.198 273.358,32.951 273.515 C 32.705 273.672,32.010 274.747,31.408 275.903 C 30.805 277.060,30.165 278.098,29.985 278.209 C 29.806 278.320,29.439 279.084,29.171 279.906 C 28.903 280.728,28.553 281.490,28.393 281.600 C 27.989 281.878,26.429 285.380,26.283 286.336 C 26.217 286.768,25.961 287.366,25.714 287.663 C 25.466 287.961,25.135 288.743,24.977 289.402 C 24.819 290.061,24.512 290.825,24.296 291.100 C 24.079 291.375,24.036 291.600,24.200 291.600 C 24.364 291.600,24.319 291.825,24.099 292.100 C 23.880 292.375,23.577 293.455,23.426 294.500 C 23.275 295.545,23.007 296.400,22.832 296.400 C 22.544 296.400,21.748 300.343,21.419 303.400 C 21.348 304.060,21.152 304.938,20.983 305.350 C 20.404 306.765,20.538 320.786,21.134 321.157 C 21.428 321.340,21.675 321.649,21.682 321.845 C 21.759 323.834,25.506 328.000,27.218 328.000 C 27.428 328.000,27.600 328.162,27.600 328.360 C 27.600 329.033,31.659 329.701,34.599 329.513 C 38.194 329.282,41.003 327.950,43.157 325.455 C 43.511 325.046,44.006 324.493,44.258 324.226 C 45.678 322.722,46.314 320.108,46.597 314.600 C 46.756 311.520,47.001 308.820,47.143 308.600 C 47.284 308.380,47.607 307.120,47.860 305.800 C 48.498 302.475,49.673 298.240,50.025 298.000 C 50.186 297.890,50.534 296.990,50.800 296.000 C 51.066 295.010,51.420 294.110,51.588 294.000 C 51.755 293.890,52.381 292.810,52.978 291.600 C 54.385 288.746,55.257 287.235,56.000 286.362 C 56.729 285.505,57.084 285.052,58.612 283.022 C 59.980 281.205,66.429 274.800,66.891 274.800 C 67.061 274.800,67.530 274.485,67.934 274.100 C 68.338 273.715,69.075 273.130,69.571 272.800 C 70.068 272.470,70.845 271.885,71.299 271.500 C 71.752 271.115,72.352 270.800,72.633 270.800 C 72.913 270.800,73.381 270.567,73.671 270.283 C 73.962 269.999,74.785 269.527,75.500 269.235 C 76.215 268.942,76.800 268.565,76.800 268.396 C 76.800 268.227,77.430 267.971,78.200 267.826 C 78.970 267.682,79.600 267.405,79.600 267.211 C 79.600 267.016,80.590 266.636,81.800 266.365 C 83.010 266.094,84.000 265.746,84.000 265.591 C 84.000 265.436,84.837 265.194,85.860 265.054 C 86.882 264.914,87.917 264.636,88.160 264.437 C 90.331 262.653,176.416 262.619,178.600 264.402 C 178.820 264.581,179.720 264.858,180.600 265.016 C 181.480 265.175,182.380 265.440,182.600 265.606 C 182.820 265.772,183.630 266.039,184.400 266.200 C 185.170 266.361,186.250 266.720,186.800 266.999 C 187.350 267.278,188.790 267.998,190.000 268.600 C 197.156 272.157,201.755 275.736,207.200 281.985 C 208.190 283.121,209.315 284.399,209.700 284.825 C 210.085 285.251,210.400 285.694,210.400 285.809 C 210.400 286.025,212.436 289.247,212.796 289.600 C 213.190 289.986,215.200 294.285,215.200 294.740 C 215.200 294.993,215.362 295.200,215.560 295.200 C 215.758 295.200,216.136 296.100,216.400 297.200 C 216.664 298.300,217.026 299.200,217.205 299.200 C 217.383 299.200,217.656 299.965,217.810 300.900 C 217.964 301.835,218.253 302.802,218.451 303.048 C 218.649 303.294,219.009 305.454,219.251 307.848 C 219.493 310.242,219.840 312.560,220.021 313.000 C 220.203 313.440,220.416 315.420,220.494 317.400 C 220.774 324.469,225.228 329.065,232.232 329.515 C 235.142 329.701,239.200 329.029,239.200 328.360 C 239.200 328.162,239.452 328.000,239.759 328.000 C 240.497 328.000,244.051 324.807,243.788 324.380 C 243.675 324.198,243.831 323.903,244.134 323.725 C 245.993 322.629,247.322 306.736,245.722 304.725 C 245.492 304.436,245.177 303.032,245.021 301.604 C 244.866 300.176,244.596 298.826,244.422 298.604 C 244.248 298.382,243.881 296.983,243.606 295.495 C 243.332 294.007,242.964 292.701,242.789 292.593 C 242.613 292.485,242.348 291.677,242.200 290.798 C 242.051 289.919,241.788 289.200,241.615 289.200 C 241.442 289.200,241.189 288.646,241.054 287.968 C 240.918 287.291,240.514 286.076,240.155 285.268 C 238.838 282.304,237.401 279.395,237.158 279.200 C 237.020 279.090,236.795 278.638,236.658 278.196 C 236.520 277.754,235.807 276.482,235.074 275.368 C 234.341 274.255,233.625 273.042,233.483 272.672 C 233.341 272.302,233.039 272.000,232.813 272.000 C 232.586 272.000,232.400 271.724,232.400 271.387 C 232.400 271.051,232.130 270.671,231.800 270.545 C 231.470 270.418,231.198 270.109,231.195 269.857 C 231.188 269.325,229.947 267.672,228.100 265.736 C 227.385 264.987,226.800 264.244,226.799 264.087 C 226.798 263.771,223.222 260.129,220.400 257.571 C 219.410 256.673,218.041 255.412,217.357 254.769 C 216.673 254.126,215.917 253.600,215.677 253.600 C 215.436 253.600,215.096 253.375,214.920 253.100 C 214.504 252.450,212.148 250.800,211.636 250.800 C 211.418 250.800,211.096 250.575,210.920 250.299 C 210.744 250.024,210.060 249.529,209.400 249.199 C 208.221 248.610,207.663 248.234,206.675 247.360 C 206.402 247.119,205.508 246.700,204.689 246.429 C 203.870 246.159,203.200 245.786,203.200 245.601 C 203.200 245.415,202.660 245.145,202.000 245.000 C 201.340 244.855,200.800 244.576,200.800 244.381 C 200.800 244.185,200.530 244.129,200.200 244.255 C 199.870 244.382,199.600 244.286,199.600 244.043 C 199.600 243.799,199.372 243.600,199.094 243.600 C 198.816 243.600,197.916 243.240,197.096 242.800 C 196.275 242.360,195.253 242.000,194.825 242.000 C 194.397 242.000,193.934 241.817,193.796 241.593 C 193.658 241.370,193.377 241.291,193.172 241.417 C 192.968 241.544,192.800 241.472,192.800 241.259 C 192.800 241.045,192.035 240.742,191.100 240.586 C 190.165 240.430,189.301 240.147,189.181 239.958 C 189.060 239.769,187.530 239.397,185.781 239.131 C 184.031 238.865,182.502 238.505,182.382 238.332 C 182.262 238.159,180.591 237.896,178.668 237.749 C 176.746 237.601,175.078 237.327,174.963 237.140 C 174.688 236.695,92.112 236.695,91.837 237.140 " stroke="none" fill="#343434" fill-rule="evenodd"></path><path id="path1" d="" stroke="none" fill="#383434" fill-rule="evenodd"></path><path id="path2" d="" stroke="none" fill="#383434" fill-rule="evenodd"></path><path id="path3" d="" stroke="none" fill="#383434" fill-rule="evenodd"></path><path id="path4" d="" stroke="none" fill="#383434" fill-rule="evenodd"></path></g></svg>