<svg id="svg" version="1.1" xmlns="http://www.w3.org/2000/svg" xmlns:xlink="http://www.w3.org/1999/xlink" width="400" height="400" viewBox="0, 0, 400,400"><g id="svgg"><path id="path0" d="M193.836 37.142 C 193.720 37.330,191.778 37.611,189.521 37.767 C 187.264 37.922,185.323 38.187,185.208 38.354 C 185.094 38.522,183.425 38.890,181.500 39.171 C 179.575 39.453,178.000 39.824,178.000 39.996 C 178.000 40.168,177.190 40.431,176.200 40.579 C 175.210 40.728,174.400 41.029,174.400 41.248 C 174.400 41.468,174.232 41.544,174.027 41.417 C 173.823 41.290,172.968 41.490,172.127 41.861 C 171.287 42.231,169.880 42.841,169.000 43.214 C 168.120 43.588,166.743 44.188,165.940 44.547 C 165.136 44.906,164.281 45.200,164.040 45.200 C 163.798 45.200,163.600 45.344,163.600 45.520 C 163.600 45.695,162.970 46.067,162.200 46.346 C 161.430 46.624,160.800 47.020,160.800 47.226 C 160.800 47.432,160.558 47.600,160.261 47.600 C 159.965 47.600,159.307 47.960,158.800 48.400 C 158.293 48.840,157.675 49.200,157.428 49.200 C 157.181 49.200,156.409 49.720,155.712 50.356 C 155.016 50.992,154.371 51.438,154.280 51.347 C 154.189 51.255,153.886 51.455,153.608 51.790 C 153.330 52.126,152.950 52.400,152.765 52.400 C 152.579 52.400,151.891 52.895,151.235 53.500 C 150.579 54.105,149.473 55.050,148.779 55.600 C 144.735 58.802,140.932 62.554,140.567 63.703 C 140.444 64.093,140.175 64.308,139.971 64.182 C 139.767 64.056,139.600 64.125,139.600 64.334 C 139.600 64.544,139.153 65.140,138.607 65.658 C 138.061 66.176,137.611 66.735,137.607 66.900 C 137.603 67.065,137.285 67.547,136.900 67.971 C 136.515 68.396,136.020 68.981,135.800 69.272 C 133.737 72.000,133.200 72.806,133.200 73.173 C 133.200 73.408,133.058 73.600,132.884 73.600 C 132.710 73.600,132.067 74.587,131.457 75.793 C 130.846 76.999,130.192 78.082,130.002 78.199 C 129.813 78.315,129.439 79.084,129.171 79.906 C 128.903 80.728,128.553 81.490,128.393 81.600 C 128.072 81.821,126.408 85.368,126.386 85.878 C 126.379 86.055,126.025 86.920,125.600 87.800 C 125.175 88.680,124.821 89.704,124.814 90.076 C 124.806 90.448,124.617 90.866,124.393 91.004 C 124.170 91.142,124.083 91.410,124.200 91.600 C 124.317 91.790,124.247 92.047,124.044 92.173 C 123.841 92.298,123.551 93.301,123.400 94.400 C 123.249 95.500,122.987 96.400,122.819 96.400 C 122.515 96.400,121.616 101.100,121.480 103.400 C 121.441 104.060,121.227 104.728,121.005 104.885 C 120.491 105.248,120.451 127.072,120.962 128.200 C 121.162 128.640,121.373 129.540,121.433 130.200 C 121.660 132.715,122.501 136.800,122.793 136.800 C 122.960 136.800,123.216 137.700,123.362 138.800 C 123.508 139.900,123.785 140.800,123.976 140.800 C 124.168 140.800,124.231 141.160,124.116 141.600 C 124.001 142.040,124.092 142.400,124.318 142.400 C 124.545 142.400,124.851 143.120,125.000 144.000 C 125.149 144.880,125.417 145.600,125.595 145.600 C 125.774 145.600,126.136 146.500,126.400 147.600 C 126.664 148.700,127.028 149.600,127.208 149.600 C 127.389 149.600,127.655 150.140,127.800 150.800 C 127.945 151.460,128.200 152.000,128.368 152.000 C 128.535 152.000,128.910 152.720,129.200 153.600 C 129.490 154.480,129.879 155.200,130.064 155.200 C 130.249 155.200,130.400 155.461,130.400 155.780 C 130.400 156.099,130.715 156.537,131.100 156.752 C 131.485 156.967,131.742 157.201,131.672 157.272 C 131.407 157.537,132.398 159.600,132.790 159.600 C 133.016 159.600,133.200 159.876,133.200 160.213 C 133.200 160.549,133.454 160.922,133.764 161.041 C 134.074 161.161,134.434 161.682,134.565 162.201 C 134.695 162.720,135.026 163.382,135.301 163.672 C 135.575 163.962,136.337 164.920,136.993 165.800 C 137.649 166.680,138.684 167.889,139.293 168.487 C 139.902 169.084,140.400 169.685,140.400 169.823 C 140.400 170.049,145.658 175.234,148.600 177.909 C 149.260 178.509,150.610 179.539,151.600 180.199 C 152.590 180.858,153.544 181.623,153.720 181.899 C 153.896 182.174,154.301 182.400,154.620 182.400 C 154.939 182.400,155.200 182.558,155.200 182.751 C 155.200 182.945,155.740 183.327,156.400 183.600 C 157.060 183.873,157.600 184.236,157.600 184.405 C 157.600 184.575,158.050 184.826,158.600 184.964 C 159.150 185.102,159.600 185.378,159.600 185.577 C 159.600 185.775,160.230 186.146,161.000 186.400 C 161.770 186.654,162.400 187.014,162.400 187.199 C 162.400 187.385,162.940 187.655,163.600 187.800 C 164.260 187.945,164.800 188.229,164.800 188.432 C 164.800 188.634,164.975 188.800,165.188 188.800 C 165.402 188.800,166.569 189.254,167.781 189.809 C 168.994 190.363,170.530 190.926,171.193 191.059 C 171.857 191.191,172.400 191.446,172.400 191.625 C 172.400 191.805,173.210 192.072,174.200 192.221 C 175.190 192.369,176.000 192.626,176.000 192.791 C 176.000 192.956,177.125 193.311,178.500 193.581 C 179.875 193.851,181.360 194.227,181.800 194.418 C 182.548 194.742,184.713 195.157,190.000 195.987 C 192.850 196.435,207.150 196.435,210.000 195.987 C 215.287 195.157,217.452 194.742,218.200 194.418 C 218.640 194.227,220.125 193.851,221.500 193.581 C 222.875 193.311,224.000 192.956,224.000 192.791 C 224.000 192.626,224.810 192.369,225.800 192.221 C 226.790 192.072,227.600 191.805,227.600 191.625 C 227.600 191.446,228.143 191.191,228.807 191.059 C 229.470 190.926,231.006 190.363,232.219 189.809 C 233.431 189.254,234.598 188.800,234.812 188.800 C 235.025 188.800,235.200 188.634,235.200 188.432 C 235.200 188.229,235.740 187.945,236.400 187.800 C 237.060 187.655,237.600 187.385,237.600 187.199 C 237.600 187.014,238.230 186.654,239.000 186.400 C 239.770 186.146,240.400 185.775,240.400 185.577 C 240.400 185.378,240.850 185.102,241.400 184.964 C 241.950 184.826,242.400 184.575,242.400 184.405 C 242.400 184.236,242.940 183.873,243.600 183.600 C 244.260 183.327,244.800 182.945,244.800 182.751 C 244.800 182.558,245.061 182.400,245.380 182.400 C 245.699 182.400,246.104 182.171,246.280 181.890 C 246.571 181.427,247.859 180.447,249.553 179.400 C 250.832 178.610,259.600 170.281,259.600 169.856 C 259.600 169.701,260.098 169.084,260.707 168.487 C 261.316 167.889,262.350 166.680,263.005 165.800 C 263.660 164.920,264.288 164.110,264.401 164.000 C 264.893 163.522,266.800 160.384,266.800 160.051 C 266.800 159.850,267.070 159.582,267.400 159.455 C 267.730 159.329,268.000 158.949,268.000 158.613 C 268.000 158.276,268.146 158.000,268.325 158.000 C 268.504 158.000,268.898 157.370,269.200 156.600 C 269.502 155.830,269.867 155.200,270.011 155.200 C 270.154 155.200,270.510 154.480,270.800 153.600 C 271.090 152.720,271.465 152.000,271.632 152.000 C 271.800 152.000,272.055 151.460,272.200 150.800 C 272.345 150.140,272.611 149.600,272.792 149.600 C 272.972 149.600,273.336 148.700,273.600 147.600 C 273.864 146.500,274.222 145.600,274.395 145.600 C 274.569 145.600,274.838 144.925,274.992 144.101 C 275.147 143.276,275.421 142.511,275.601 142.400 C 275.781 142.288,276.163 141.028,276.451 139.599 C 276.738 138.169,277.096 136.910,277.245 136.800 C 277.394 136.690,277.708 135.520,277.943 134.200 C 278.177 132.880,278.556 130.900,278.784 129.800 C 279.879 124.526,279.605 103.284,278.422 101.814 C 278.239 101.586,277.961 100.275,277.805 98.900 C 277.649 97.525,277.376 96.400,277.198 96.400 C 277.021 96.400,276.755 95.524,276.607 94.452 C 276.460 93.381,276.083 92.010,275.770 91.407 C 275.456 90.803,275.194 90.104,275.186 89.854 C 275.179 89.604,274.825 88.680,274.400 87.800 C 273.975 86.920,273.621 86.055,273.614 85.878 C 273.592 85.368,271.928 81.821,271.607 81.600 C 271.447 81.490,271.097 80.728,270.829 79.906 C 270.561 79.084,270.198 78.322,270.023 78.214 C 269.847 78.106,269.201 77.023,268.587 75.809 C 267.972 74.594,267.319 73.600,267.135 73.600 C 266.951 73.600,266.800 73.408,266.800 73.173 C 266.800 72.806,266.263 72.000,264.200 69.272 C 263.980 68.981,263.485 68.396,263.100 67.971 C 262.715 67.547,262.397 67.065,262.393 66.900 C 262.389 66.735,261.939 66.176,261.393 65.658 C 260.847 65.140,260.400 64.544,260.400 64.334 C 260.400 64.125,260.233 64.056,260.029 64.182 C 259.825 64.308,259.553 64.083,259.426 63.682 C 259.072 62.566,255.184 58.763,254.702 59.061 C 254.467 59.206,254.392 59.136,254.536 58.904 C 254.678 58.673,254.147 57.971,253.355 57.342 C 251.668 56.005,250.221 54.769,248.726 53.391 C 248.135 52.846,247.482 52.400,247.274 52.400 C 247.067 52.400,246.670 52.126,246.392 51.790 C 246.114 51.455,245.811 51.255,245.720 51.347 C 245.629 51.438,244.984 50.992,244.288 50.356 C 243.591 49.720,242.819 49.200,242.572 49.200 C 242.325 49.200,241.707 48.840,241.200 48.400 C 240.693 47.960,240.035 47.600,239.739 47.600 C 239.442 47.600,239.200 47.432,239.200 47.226 C 239.200 47.020,238.570 46.624,237.800 46.346 C 237.030 46.067,236.400 45.695,236.400 45.520 C 236.400 45.344,236.202 45.200,235.960 45.200 C 235.719 45.200,234.864 44.906,234.060 44.547 C 233.257 44.188,231.880 43.571,231.000 43.177 C 227.677 41.689,226.304 41.212,225.958 41.426 C 225.761 41.548,225.600 41.468,225.600 41.248 C 225.600 41.029,224.790 40.728,223.800 40.579 C 222.810 40.431,222.000 40.168,222.000 39.996 C 222.000 39.824,220.425 39.453,218.500 39.171 C 216.575 38.890,214.906 38.522,214.792 38.354 C 214.677 38.187,212.736 37.922,210.479 37.767 C 208.222 37.611,206.280 37.330,206.164 37.142 C 206.048 36.954,203.274 36.800,200.000 36.800 C 196.726 36.800,193.952 36.954,193.836 37.142 M205.429 63.618 C 208.259 63.848,210.670 64.183,210.787 64.362 C 210.904 64.542,211.900 64.821,213.000 64.982 C 214.100 65.143,215.180 65.412,215.400 65.580 C 215.620 65.747,216.618 66.084,217.618 66.327 C 218.618 66.571,220.680 67.407,222.199 68.185 C 223.719 68.963,225.195 69.600,225.481 69.600 C 225.766 69.600,226.000 69.758,226.000 69.951 C 226.000 70.145,226.585 70.543,227.300 70.837 C 228.706 71.414,229.294 71.816,230.317 72.900 C 230.680 73.285,231.199 73.600,231.469 73.600 C 231.739 73.600,232.104 73.829,232.280 74.110 C 232.456 74.390,233.050 74.912,233.600 75.269 C 234.950 76.146,240.157 81.328,241.510 83.139 C 243.008 85.146,243.313 85.532,243.972 86.257 C 244.586 86.933,245.557 88.610,246.545 90.700 C 246.883 91.415,247.343 92.000,247.567 92.000 C 247.791 92.000,247.880 92.247,247.764 92.548 C 247.649 92.850,247.831 93.373,248.169 93.712 C 248.507 94.050,249.004 95.153,249.275 96.163 C 249.545 97.173,249.893 98.000,250.048 98.000 C 250.203 98.000,250.451 98.720,250.600 99.600 C 250.749 100.480,250.996 101.200,251.149 101.200 C 251.303 101.200,251.462 101.515,251.502 101.900 C 251.765 104.408,252.608 108.243,252.947 108.470 C 253.519 108.853,253.509 124.140,252.936 124.855 C 252.696 125.155,252.369 126.480,252.211 127.800 C 252.052 129.120,251.788 130.380,251.624 130.600 C 251.459 130.820,251.088 131.900,250.800 133.000 C 250.512 134.100,250.142 135.180,249.979 135.400 C 249.816 135.620,249.456 136.565,249.178 137.500 C 248.900 138.435,248.536 139.200,248.368 139.200 C 248.201 139.200,247.948 139.728,247.806 140.372 C 247.664 141.017,247.302 141.750,247.000 142.000 C 246.698 142.250,246.339 142.968,246.201 143.594 C 246.064 144.221,245.692 144.833,245.376 144.954 C 245.059 145.076,244.800 145.451,244.800 145.787 C 244.800 146.124,244.642 146.400,244.449 146.400 C 244.255 146.400,243.879 146.927,243.612 147.571 C 243.345 148.215,242.873 148.840,242.563 148.959 C 242.254 149.078,242.000 149.368,242.000 149.603 C 242.000 150.032,233.882 158.245,232.713 159.000 C 232.372 159.220,231.108 160.075,229.905 160.900 C 228.702 161.725,227.526 162.400,227.292 162.400 C 227.058 162.400,226.807 162.535,226.733 162.700 C 226.454 163.329,223.956 164.829,222.804 165.059 C 222.142 165.192,221.600 165.440,221.600 165.610 C 221.600 165.781,220.700 166.136,219.600 166.400 C 218.500 166.664,217.600 167.036,217.600 167.226 C 217.600 167.417,216.700 167.692,215.600 167.838 C 214.500 167.984,213.600 168.238,213.600 168.403 C 213.600 168.757,208.251 169.600,206.007 169.600 C 205.149 169.600,204.336 169.780,204.200 170.000 C 204.062 170.223,202.204 170.400,200.000 170.400 C 197.796 170.400,195.938 170.223,195.800 170.000 C 195.664 169.780,194.851 169.600,193.993 169.600 C 191.749 169.600,186.400 168.757,186.400 168.403 C 186.400 168.238,185.500 167.984,184.400 167.838 C 183.300 167.692,182.400 167.417,182.400 167.226 C 182.400 167.036,181.500 166.664,180.400 166.400 C 179.300 166.136,178.400 165.758,178.400 165.560 C 178.400 165.362,178.112 165.200,177.759 165.200 C 176.986 165.200,173.201 163.124,173.200 162.700 C 173.200 162.535,172.994 162.400,172.741 162.400 C 172.489 162.400,171.298 161.725,170.095 160.900 C 168.892 160.075,167.628 159.220,167.287 159.000 C 166.118 158.245,158.000 150.032,158.000 149.603 C 158.000 149.368,157.746 149.078,157.437 148.959 C 157.127 148.840,156.655 148.215,156.388 147.571 C 156.121 146.927,155.745 146.400,155.551 146.400 C 155.358 146.400,155.200 146.124,155.200 145.787 C 155.200 145.451,154.941 145.076,154.624 144.954 C 154.308 144.833,153.936 144.221,153.799 143.594 C 153.661 142.968,153.302 142.250,153.000 142.000 C 152.698 141.750,152.336 141.017,152.194 140.372 C 152.052 139.728,151.799 139.200,151.632 139.200 C 151.464 139.200,151.100 138.435,150.822 137.500 C 150.544 136.565,150.184 135.620,150.021 135.400 C 149.858 135.180,149.488 134.100,149.200 133.000 C 148.912 131.900,148.541 130.820,148.376 130.600 C 148.212 130.380,147.948 129.120,147.789 127.800 C 147.631 126.480,147.304 125.155,147.064 124.855 C 146.476 124.121,146.482 108.848,147.071 108.470 C 147.302 108.322,147.623 107.120,147.784 105.800 C 147.945 104.480,148.216 103.220,148.386 103.000 C 148.556 102.780,148.925 101.610,149.206 100.400 C 149.486 99.190,149.834 98.110,149.978 98.000 C 150.121 97.890,150.471 97.006,150.755 96.036 C 151.038 95.066,151.535 94.008,151.858 93.685 C 152.181 93.361,152.351 92.850,152.236 92.548 C 152.120 92.247,152.198 92.000,152.409 92.000 C 152.621 92.000,153.146 91.325,153.576 90.500 C 154.006 89.675,154.593 88.552,154.879 88.005 C 155.166 87.459,155.670 86.706,156.000 86.334 C 156.682 85.565,156.955 85.220,158.610 83.033 C 160.068 81.108,165.038 76.154,166.400 75.269 C 166.950 74.912,167.544 74.390,167.720 74.110 C 167.896 73.829,168.261 73.600,168.531 73.600 C 168.801 73.600,169.320 73.285,169.683 72.900 C 170.706 71.816,171.294 71.414,172.700 70.837 C 173.415 70.543,174.000 70.145,174.000 69.951 C 174.000 69.758,174.234 69.600,174.519 69.600 C 174.805 69.600,176.281 68.963,177.801 68.185 C 179.320 67.407,181.382 66.571,182.382 66.327 C 183.382 66.084,184.380 65.747,184.600 65.580 C 184.820 65.412,185.900 65.143,187.000 64.982 C 188.100 64.821,189.101 64.533,189.225 64.343 C 189.348 64.152,191.328 63.842,193.625 63.654 C 199.648 63.160,199.783 63.159,205.429 63.618 M129.037 237.140 C 128.922 237.327,127.254 237.601,125.332 237.749 C 123.409 237.896,121.738 238.162,121.618 238.338 C 121.498 238.515,119.825 238.890,117.900 239.171 C 115.975 239.453,114.400 239.824,114.400 239.996 C 114.400 240.168,113.590 240.431,112.600 240.579 C 111.610 240.728,110.800 241.029,110.800 241.248 C 110.800 241.468,110.612 241.531,110.382 241.389 C 110.153 241.247,109.748 241.306,109.482 241.519 C 109.217 241.733,108.415 242.033,107.700 242.186 C 106.985 242.338,106.400 242.629,106.400 242.832 C 106.400 243.034,106.085 243.198,105.700 243.196 C 104.988 243.192,95.178 247.939,94.785 248.478 C 94.666 248.640,93.676 249.245,92.585 249.821 C 91.493 250.398,90.228 251.214,89.774 251.635 C 89.320 252.056,88.825 252.400,88.674 252.400 C 88.390 252.400,87.914 252.784,85.686 254.807 C 84.964 255.463,84.227 256.000,84.050 256.000 C 83.581 256.000,78.800 260.855,78.800 261.331 C 78.800 261.552,78.701 261.634,78.580 261.513 C 78.307 261.240,74.614 264.904,73.022 267.028 C 72.374 267.893,71.609 268.744,71.322 268.920 C 71.035 269.096,70.800 269.506,70.800 269.832 C 70.800 270.158,70.537 270.526,70.215 270.650 C 69.894 270.773,69.528 271.196,69.403 271.589 C 69.278 271.983,68.825 272.731,68.396 273.252 C 67.143 274.772,67.031 274.938,66.400 276.200 C 66.070 276.860,65.581 277.632,65.312 277.916 C 65.044 278.200,64.415 279.325,63.915 280.416 C 63.414 281.507,62.869 282.400,62.702 282.400 C 62.536 282.400,62.400 282.568,62.400 282.774 C 62.400 282.980,62.207 283.655,61.972 284.274 C 61.736 284.893,61.563 285.451,61.586 285.514 C 61.609 285.577,61.352 285.905,61.014 286.243 C 60.676 286.581,60.394 287.159,60.387 287.529 C 60.380 287.898,60.110 288.549,59.787 288.976 C 59.464 289.404,59.199 290.034,59.198 290.376 C 59.196 290.719,58.943 291.483,58.635 292.073 C 58.327 292.663,57.948 293.743,57.792 294.473 C 57.635 295.203,57.361 295.983,57.182 296.207 C 57.002 296.432,56.641 297.872,56.379 299.407 C 56.116 300.943,55.753 302.388,55.570 302.617 C 55.388 302.847,55.116 304.287,54.966 305.817 C 54.816 307.348,54.558 308.780,54.394 309.000 C 53.631 310.021,53.619 338.000,54.381 338.000 C 54.564 338.000,54.830 338.465,54.973 339.034 C 55.262 340.186,55.625 340.696,57.464 342.536 C 59.222 344.293,59.719 344.658,60.831 345.005 C 61.364 345.172,61.928 345.509,62.085 345.754 C 62.469 346.355,70.723 346.362,71.114 345.762 C 71.271 345.520,71.895 345.202,72.500 345.054 C 73.105 344.906,73.600 344.608,73.600 344.392 C 73.600 344.177,73.841 344.000,74.136 344.000 C 74.813 344.000,77.540 341.073,78.597 339.212 C 79.315 337.947,79.427 336.779,79.664 328.000 C 79.810 322.610,80.039 317.390,80.174 316.400 C 80.309 315.410,80.615 312.845,80.855 310.700 C 81.094 308.555,81.427 306.800,81.594 306.800 C 81.761 306.800,82.019 306.044,82.166 305.120 C 82.314 304.196,82.579 303.251,82.755 303.020 C 82.932 302.789,83.315 301.700,83.608 300.600 C 83.901 299.500,84.244 298.510,84.370 298.400 C 84.497 298.290,85.410 296.580,86.400 294.600 C 87.390 292.620,88.413 290.774,88.674 290.498 C 88.934 290.221,89.262 289.636,89.401 289.198 C 89.540 288.759,89.810 288.400,90.000 288.400 C 90.190 288.400,90.457 288.050,90.593 287.622 C 90.729 287.193,91.457 286.158,92.211 285.322 C 92.965 284.485,93.586 283.683,93.591 283.540 C 93.604 283.169,100.053 276.800,100.415 276.800 C 100.581 276.800,101.140 276.353,101.658 275.807 C 102.176 275.261,102.825 274.811,103.100 274.807 C 103.375 274.803,103.600 274.652,103.600 274.471 C 103.600 274.096,106.683 272.000,107.236 272.000 C 107.436 272.000,107.600 271.832,107.600 271.626 C 107.600 271.420,108.230 271.024,109.000 270.746 C 109.770 270.467,110.400 270.103,110.400 269.936 C 110.400 269.769,111.120 269.416,112.000 269.153 C 112.880 268.889,113.600 268.530,113.600 268.355 C 113.600 268.180,114.230 267.918,115.000 267.774 C 115.770 267.629,116.400 267.385,116.400 267.231 C 116.400 267.077,117.345 266.714,118.500 266.424 C 119.655 266.134,120.780 265.760,121.000 265.594 C 121.220 265.427,122.210 265.160,123.200 265.000 C 124.190 264.840,125.180 264.567,125.400 264.392 C 127.666 262.595,272.334 262.595,274.600 264.392 C 274.820 264.567,275.810 264.840,276.800 265.000 C 277.790 265.160,278.780 265.427,279.000 265.594 C 279.220 265.760,280.345 266.134,281.500 266.424 C 282.655 266.714,283.600 267.077,283.600 267.231 C 283.600 267.385,284.230 267.629,285.000 267.774 C 285.770 267.918,286.400 268.180,286.400 268.355 C 286.400 268.530,287.120 268.889,288.000 269.153 C 288.880 269.416,289.600 269.769,289.600 269.936 C 289.600 270.103,290.230 270.467,291.000 270.746 C 291.770 271.024,292.400 271.420,292.400 271.626 C 292.400 271.832,292.564 272.000,292.764 272.000 C 293.317 272.000,296.400 274.096,296.400 274.471 C 296.400 274.652,296.625 274.803,296.900 274.807 C 297.175 274.811,297.824 275.261,298.342 275.807 C 298.860 276.353,299.419 276.800,299.585 276.800 C 299.947 276.800,306.396 283.169,306.409 283.540 C 306.414 283.683,307.044 284.495,307.809 285.344 C 308.574 286.193,309.200 287.036,309.200 287.216 C 309.200 287.396,309.427 287.781,309.705 288.071 C 311.041 289.469,315.200 296.969,315.200 297.981 C 315.200 298.211,315.351 298.400,315.536 298.400 C 315.721 298.400,316.112 299.398,316.404 300.619 C 316.697 301.839,317.076 302.923,317.245 303.028 C 317.415 303.133,317.675 304.024,317.822 305.009 C 317.970 305.994,318.230 306.800,318.400 306.800 C 318.571 306.800,318.906 308.555,319.145 310.700 C 319.385 312.845,319.691 315.410,319.826 316.400 C 319.961 317.390,320.190 322.610,320.336 328.000 C 320.573 336.771,320.685 337.947,321.401 339.202 C 322.417 340.984,325.244 343.998,325.900 343.999 C 326.175 344.000,326.400 344.177,326.400 344.392 C 326.400 344.608,326.895 344.906,327.500 345.054 C 328.105 345.202,328.729 345.520,328.886 345.762 C 329.277 346.362,337.531 346.355,337.915 345.754 C 338.072 345.509,338.636 345.172,339.169 345.005 C 340.281 344.658,340.778 344.293,342.536 342.536 C 344.293 340.778,344.658 340.281,345.005 339.169 C 345.172 338.636,345.509 338.071,345.754 337.914 C 346.382 337.511,346.382 309.951,345.754 309.161 C 345.508 308.853,345.184 307.348,345.034 305.817 C 344.884 304.287,344.612 302.847,344.430 302.617 C 344.247 302.388,343.884 300.943,343.621 299.407 C 343.359 297.872,342.998 296.432,342.818 296.207 C 342.639 295.983,342.365 295.203,342.208 294.473 C 342.052 293.743,341.673 292.663,341.365 292.073 C 341.057 291.483,340.804 290.725,340.802 290.389 C 340.801 290.053,340.564 289.423,340.276 288.989 C 339.988 288.555,339.509 287.435,339.212 286.500 C 338.915 285.565,338.540 284.800,338.379 284.800 C 338.218 284.800,337.963 284.307,337.812 283.704 C 337.660 283.101,337.408 282.516,337.251 282.404 C 337.094 282.292,336.449 281.165,335.817 279.900 C 335.186 278.635,334.563 277.600,334.432 277.600 C 334.302 277.600,333.936 277.015,333.620 276.300 C 333.303 275.585,332.896 274.820,332.715 274.600 C 332.534 274.380,332.034 273.774,331.604 273.252 C 331.175 272.731,330.722 271.983,330.597 271.589 C 330.472 271.196,330.106 270.773,329.785 270.650 C 329.463 270.526,329.200 270.158,329.200 269.832 C 329.200 269.506,328.965 269.096,328.678 268.920 C 328.391 268.744,327.626 267.893,326.978 267.029 C 325.566 265.144,316.428 256.000,315.958 256.000 C 315.776 256.000,315.036 255.463,314.314 254.807 C 312.019 252.722,311.608 252.400,311.249 252.400 C 311.056 252.400,310.675 252.131,310.402 251.803 C 310.129 251.474,308.892 250.631,307.653 249.929 C 306.414 249.227,305.310 248.547,305.200 248.418 C 304.749 247.888,294.947 243.192,294.300 243.196 C 293.915 243.198,293.600 243.034,293.600 242.832 C 293.600 242.629,293.015 242.338,292.300 242.186 C 291.585 242.033,290.783 241.733,290.518 241.519 C 290.252 241.306,289.847 241.247,289.618 241.389 C 289.388 241.531,289.200 241.468,289.200 241.248 C 289.200 241.029,288.390 240.728,287.400 240.579 C 286.410 240.431,285.600 240.168,285.600 239.996 C 285.600 239.824,284.025 239.453,282.100 239.171 C 280.175 238.890,278.502 238.515,278.382 238.338 C 278.262 238.162,276.591 237.896,274.668 237.749 C 272.746 237.601,271.078 237.327,270.963 237.140 C 270.688 236.695,129.312 236.695,129.037 237.140 " stroke="none" fill="#343434" fill-rule="evenodd"></path><path id="path1" d="" stroke="none" fill="#383434" fill-rule="evenodd"></path><path id="path2" d="" stroke="none" fill="#383434" fill-rule="evenodd"></path><path id="path3" d="" stroke="none" fill="#383434" fill-rule="evenodd"></path><path id="path4" d="" stroke="none" fill="#383434" fill-rule="evenodd"></path></g></svg>