<svg width="351" height="474" viewBox="0 0 351 474" fill="none" xmlns="http://www.w3.org/2000/svg">
<path fill-rule="evenodd" clip-rule="evenodd" d="M314.726 292.309L328.954 222.68C330.04 217.368 325.98 212.396 320.558 212.396H156.833C151.411 212.396 147.352 217.368 148.438 222.68L162.665 292.309H137.969C137.969 305.604 148.746 316.38 162.04 316.38H315.352C328.645 316.38 339.423 305.604 339.423 292.309H314.726Z" fill="#EFF2F7"/>
<path fill-rule="evenodd" clip-rule="evenodd" d="M138.8 293.126C139.231 305.572 149.491 315.564 162.04 315.564H315.352C327.901 315.564 338.16 305.572 338.591 293.126H314.726C314.481 293.126 314.25 293.016 314.094 292.825C313.939 292.636 313.877 292.386 313.926 292.146L328.154 222.516C328.622 220.225 328.043 217.874 326.565 216.063C325.086 214.251 322.896 213.212 320.559 213.212H156.834C154.496 213.212 152.306 214.251 150.828 216.063C149.349 217.874 148.769 220.225 149.238 222.516L163.465 292.146C163.514 292.386 163.452 292.636 163.299 292.825C163.144 293.016 162.91 293.126 162.665 293.126H138.8ZM315.352 317.196H162.04C148.319 317.196 137.153 306.032 137.153 292.309C137.153 291.859 137.518 291.493 137.969 291.493H161.666L147.638 222.843C147.071 220.07 147.773 217.222 149.563 215.029C151.352 212.836 154.003 211.579 156.834 211.579H320.559C323.389 211.579 326.039 212.836 327.829 215.029C329.618 217.222 330.321 220.07 329.754 222.843L315.727 291.493H339.422C339.873 291.493 340.239 291.859 340.239 292.309C340.239 306.032 329.075 317.196 315.352 317.196Z" fill="black"/>
<path fill-rule="evenodd" clip-rule="evenodd" d="M314.726 293.126H162.665C162.214 293.126 161.849 292.76 161.849 292.309C161.849 291.858 162.214 291.493 162.665 291.493H314.726C315.177 291.493 315.543 291.858 315.543 292.309C315.543 292.76 315.177 293.126 314.726 293.126Z" fill="black"/>
<path fill-rule="evenodd" clip-rule="evenodd" d="M311.487 316.381H291.575L239.813 381.043L190.029 314.846L170.128 314.244L229.35 392.991L229.786 393.569L175.923 471.055H187.668L239.43 406.394L289.214 472.59L300.951 473.191L249.459 393.866L311.487 316.381Z" fill="#F5A95E"/>
<path fill-rule="evenodd" clip-rule="evenodd" d="M289.637 471.793L299.395 472.294L248.773 394.31C248.582 394.015 248.6 393.631 248.821 393.355L309.787 317.198H291.967L240.45 381.552C240.294 381.748 240.068 381.879 239.8 381.858C239.549 381.854 239.312 381.733 239.16 381.533L189.613 315.65L171.801 315.111L230.437 393.077C230.65 393.36 230.656 393.745 230.455 394.034L177.484 470.237H187.276L238.793 405.882C238.95 405.687 239.186 405.574 239.443 405.577C239.694 405.58 239.931 405.701 240.083 405.902L289.637 471.793ZM300.951 474.007C300.938 474.007 300.923 474.007 300.91 474.006L289.171 473.405C288.93 473.392 288.706 473.273 288.561 473.08L239.41 407.724L188.307 471.564C188.152 471.759 187.916 471.87 187.668 471.87H175.923C175.619 471.87 175.34 471.702 175.198 471.432C175.057 471.163 175.079 470.838 175.252 470.588L228.778 393.587L228.698 393.482L169.476 314.734C169.287 314.484 169.259 314.147 169.403 313.868C169.548 313.591 169.822 313.422 170.152 313.427L190.054 314.03C190.302 314.038 190.534 314.157 190.683 314.355L239.833 379.71L290.938 315.87C291.093 315.677 291.327 315.565 291.575 315.565H311.487C311.8 315.565 312.086 315.744 312.223 316.027C312.359 316.309 312.319 316.646 312.123 316.891L250.463 393.917L301.637 472.745C301.804 473.003 301.812 473.333 301.658 473.599C301.513 473.852 301.242 474.007 300.951 474.007Z" fill="black"/>
<path fill-rule="evenodd" clip-rule="evenodd" d="M249.457 394.683C249.209 394.683 248.964 394.57 248.804 394.356L237.996 379.986C237.725 379.626 237.797 379.114 238.158 378.843C238.519 378.572 239.031 378.644 239.301 379.005L250.109 393.376C250.38 393.736 250.308 394.247 249.947 394.518C249.8 394.629 249.627 394.683 249.457 394.683Z" fill="black"/>
<path fill-rule="evenodd" clip-rule="evenodd" d="M239.43 407.21C239.182 407.21 238.937 407.097 238.777 406.884L228.697 393.481C228.426 393.121 228.497 392.61 228.858 392.339C229.219 392.068 229.73 392.14 230.001 392.501L240.081 405.904C240.352 406.263 240.28 406.774 239.92 407.045C239.773 407.156 239.6 407.21 239.43 407.21Z" fill="black"/>
<path fill-rule="evenodd" clip-rule="evenodd" d="M53.4263 439.533C48.9439 443.568 43.4166 446.261 37.476 447.306L25.8922 449.341C14.4913 451.346 5.03837 459.306 1.12266 470.201L0.815674 471.055H122.184V439.308H53.6777L53.4263 439.533ZM257.287 325.039L207.147 371.719L207.118 372.055C206.586 378.063 204.375 383.801 200.738 388.611L193.648 397.995C186.669 407.231 185.173 419.499 189.732 430.141L190.09 430.974L281.939 345.463L257.287 325.039Z" fill="#4B69FD"/>
<path fill-rule="evenodd" clip-rule="evenodd" d="M207.931 372.103L207.929 372.127C207.384 378.295 205.122 384.165 201.388 389.105L194.298 398.487C187.562 407.4 186.071 419.292 190.382 429.584L280.701 345.5L257.317 326.125L207.931 372.103ZM190.088 431.791C190.031 431.791 189.976 431.786 189.918 431.773C189.659 431.719 189.442 431.539 189.337 431.296L188.981 430.461C184.318 419.578 185.856 406.949 192.995 397.504L200.087 388.12C203.633 383.425 205.784 377.846 206.303 371.984L206.332 371.649C206.349 371.447 206.442 371.259 206.589 371.122L256.729 324.442C257.031 324.162 257.491 324.149 257.806 324.409L282.458 344.833C282.64 344.984 282.747 345.204 282.754 345.439C282.761 345.674 282.666 345.901 282.494 346.06L190.643 431.572C190.492 431.714 190.292 431.791 190.088 431.791ZM1.9781 470.239H121.367V440.125L53.9731 440.141C49.3716 444.282 43.7168 447.039 37.6179 448.11L26.0341 450.146C15.0316 452.079 5.83666 459.769 1.9781 470.239ZM122.184 471.872H0.817109C0.550945 471.872 0.30111 471.743 0.149249 471.524C-0.00424389 471.307 -0.0418012 471.029 0.0480087 470.779L0.354995 469.925C4.35888 458.782 14.0894 450.587 25.7516 448.538L37.3338 446.501C43.1306 445.482 48.5061 442.863 52.8807 438.926L53.1322 438.701C53.2824 438.565 53.4767 438.492 53.6775 438.492H122.184C122.635 438.492 123 438.856 123 439.308V471.055C123 471.506 122.635 471.872 122.184 471.872Z" fill="black"/>
<path fill-rule="evenodd" clip-rule="evenodd" d="M1.12335 470.201L0.817993 471.053H122.184V463.746H4.31404C3.03058 465.751 1.94796 467.907 1.12335 470.201ZM276.092 340.921L187.668 423.242C188.096 425.584 188.772 427.899 189.732 430.141L190.09 430.974L281.939 345.462L276.092 340.921Z" fill="#EFF2F7"/>
<path fill-rule="evenodd" clip-rule="evenodd" d="M188.553 423.533C188.968 425.641 189.582 427.674 190.382 429.586L280.679 345.519L276.139 341.992L188.553 423.533ZM190.088 431.791C190.033 431.791 189.976 431.786 189.92 431.773C189.659 431.719 189.443 431.541 189.337 431.296L188.979 430.463C188.027 428.241 187.316 425.86 186.865 423.389C186.814 423.117 186.907 422.836 187.11 422.646L275.535 340.323C275.827 340.051 276.275 340.031 276.591 340.276L282.439 344.817C282.628 344.964 282.743 345.188 282.754 345.426C282.764 345.665 282.669 345.898 282.494 346.06L190.645 431.572C190.492 431.714 190.292 431.791 190.088 431.791ZM1.9781 470.239H121.366V464.563H4.76384C3.63061 466.389 2.69495 468.294 1.9781 470.239ZM122.182 471.872H0.817109C0.550945 471.872 0.302742 471.741 0.149249 471.524C-0.00424389 471.307 -0.0418012 471.029 0.0480087 470.779L0.354995 469.925C1.17145 467.651 2.27203 465.424 3.62571 463.307C3.77594 463.072 4.03393 462.93 4.31316 462.93H122.182C122.635 462.93 122.999 463.296 122.999 463.747V471.055C122.999 471.506 122.635 471.872 122.182 471.872Z" fill="black"/>
<path fill-rule="evenodd" clip-rule="evenodd" d="M103.585 353.191C89.7136 353.191 77.4602 362.232 73.3714 375.486L53.6786 439.307H122.184L134.202 392.707C139.364 372.694 124.253 353.191 103.585 353.191ZM207.159 288.946C194.869 280.095 178.042 281.153 166.958 291.473C152.984 304.483 153.563 326.791 168.193 339.059L207.147 371.719L257.287 325.039L207.159 288.946Z" fill="#0065FC"/>
<path fill-rule="evenodd" clip-rule="evenodd" d="M188.62 283.799C180.995 283.799 173.4 286.591 167.513 292.071C161.024 298.113 157.435 306.661 157.665 315.524C157.896 324.386 161.924 332.738 168.718 338.434L207.118 370.63L256.002 325.121L206.682 289.608C201.275 285.716 194.936 283.799 188.62 283.799ZM207.147 372.536C206.961 372.536 206.775 372.474 206.621 372.346L167.668 339.686C160.516 333.689 156.276 324.897 156.032 315.567C155.791 306.235 159.569 297.236 166.401 290.877C177.732 280.327 195.074 279.238 207.637 288.284L257.764 324.378C257.963 324.52 258.086 324.745 258.102 324.989C258.117 325.234 258.022 325.47 257.844 325.637L207.702 372.317C207.547 372.462 207.346 372.536 207.147 372.536ZM54.7839 438.492H121.552L133.412 392.503C135.809 383.212 133.812 373.532 127.935 365.945C122.057 358.359 113.182 354.009 103.585 354.009C89.9895 354.009 78.1607 362.737 74.1503 375.728L54.7839 438.492ZM122.184 440.125H53.6784C53.4188 440.125 53.1738 440.002 53.0203 439.793C52.8668 439.584 52.8211 439.315 52.8979 439.067L72.5907 375.246C76.8119 361.566 89.2677 352.376 103.585 352.376C113.691 352.376 123.036 356.956 129.225 364.944C135.415 372.932 137.517 383.127 134.994 392.911L122.974 439.513C122.881 439.873 122.556 440.125 122.184 440.125Z" fill="black"/>
<path fill-rule="evenodd" clip-rule="evenodd" d="M296.786 196.764H166.213L164.728 221.74L90.4238 207.589C68.1322 203.343 46.6888 218.191 42.8189 240.552C40.0315 256.659 47.1755 272.868 60.9457 281.677L87.9303 298.942L69.4287 356.098L47.4171 428.666L131.722 435.998L158.343 343.987L195.482 367.748L255.914 316.727L259.214 313.847L254.983 311.278L256.967 310.975C287.182 304.448 308.619 275.613 304.472 243.559L296.786 196.764Z" fill="#FCBD21"/>
<path fill-rule="evenodd" clip-rule="evenodd" d="M48.4909 427.94L131.124 435.126L157.557 343.76C157.629 343.514 157.812 343.315 158.054 343.225C158.294 343.133 158.565 343.163 158.782 343.3L195.413 366.737L255.387 316.104L257.836 313.966L254.559 311.976C254.265 311.799 254.114 311.457 254.181 311.119C254.248 310.782 254.519 310.524 254.859 310.472L256.843 310.168C287.053 303.64 307.641 274.424 303.662 243.663L296.067 197.581H166.983L165.541 221.787C165.528 222.022 165.413 222.239 165.227 222.383C165.043 222.527 164.803 222.584 164.574 222.542L90.2703 208.391C79.7054 206.377 69.0198 208.642 60.1776 214.764C51.3354 220.887 45.457 230.094 43.6232 240.691C40.8848 256.516 47.8573 272.334 61.386 280.988L88.3696 298.253C88.6831 298.454 88.8203 298.839 88.706 299.192L70.2053 356.35L48.4909 427.94ZM131.65 436.811L47.3462 429.48C47.1013 429.459 46.8792 429.328 46.7404 429.124C46.6033 428.92 46.5641 428.665 46.6359 428.43L68.6475 355.862L86.9588 299.29L60.5058 282.365C46.422 273.354 39.1638 256.888 42.0148 240.412C43.9237 229.38 50.0438 219.795 59.2485 213.422C68.4532 207.05 79.5797 204.695 90.5756 206.786L163.967 220.763L165.397 196.715C165.423 196.284 165.781 195.948 166.213 195.948H296.784C297.195 195.948 297.542 196.252 297.594 196.66L305.28 243.454C309.361 274.992 288.298 304.949 257.308 311.736L259.637 313.15C259.861 313.285 260.004 313.519 260.027 313.777C260.05 314.038 259.947 314.291 259.75 314.463L256.45 317.343L196.007 368.371C195.735 368.603 195.341 368.629 195.041 368.437L158.821 345.264L132.505 436.225C132.404 436.576 132.082 436.815 131.722 436.815C131.699 436.815 131.674 436.813 131.65 436.811Z" fill="black"/>
<path fill-rule="evenodd" clip-rule="evenodd" d="M147.856 247.055C147.447 247.055 147.094 246.748 147.047 246.331C146.996 245.882 147.318 245.479 147.765 245.426L218.336 237.379C218.783 237.317 219.19 237.649 219.241 238.098C219.291 238.547 218.969 238.95 218.522 239.001L147.949 247.05C147.918 247.053 147.887 247.055 147.856 247.055Z" fill="black"/>
<path fill-rule="evenodd" clip-rule="evenodd" d="M163.276 347.962C163.126 347.962 162.972 347.921 162.837 347.833L82.3181 296.321C81.9393 296.078 81.8282 295.573 82.0715 295.193C82.3148 294.812 82.8194 294.703 83.1982 294.944L163.717 346.458C164.096 346.701 164.208 347.206 163.965 347.586C163.808 347.828 163.545 347.962 163.276 347.962Z" fill="black"/>
<path fill-rule="evenodd" clip-rule="evenodd" d="M259.214 314.663C259.07 314.663 258.923 314.626 258.791 314.544L138.141 241.293C137.755 241.059 137.633 240.558 137.866 240.173C138.101 239.786 138.603 239.663 138.988 239.898L259.639 313.15C260.024 313.383 260.146 313.884 259.913 314.27C259.759 314.525 259.49 314.663 259.214 314.663Z" fill="black"/>
<path fill-rule="evenodd" clip-rule="evenodd" d="M173.606 224.142C173.557 224.142 173.508 224.138 173.459 224.128L161.764 222.006C161.321 221.926 161.026 221.501 161.107 221.057C161.187 220.614 161.61 220.322 162.056 220.399L173.751 222.522C174.195 222.602 174.489 223.026 174.407 223.47C174.337 223.866 173.993 224.142 173.606 224.142Z" fill="black"/>
<path fill-rule="evenodd" clip-rule="evenodd" d="M217.993 81.2137C217.993 81.2137 223.764 77.0055 222.738 59.6267C222.738 59.6267 231.865 64.3939 241.823 56.3333L244.119 81.013C244.119 81.013 237.216 89.765 229.977 88.9163C222.738 88.0676 217.993 81.2137 217.993 81.2137Z" fill="#0065FC"/>
<path fill-rule="evenodd" clip-rule="evenodd" d="M223.085 58.2233C228.882 61.3782 234.931 60.2905 241.342 54.8827C241.851 54.4534 242.57 54.8244 242.635 55.5495L244.932 81.2675C244.955 81.5291 244.883 81.79 244.734 81.9878C239.971 88.2797 235.014 91.1663 229.891 90.5404C224.839 89.9232 220.643 87.113 217.346 82.1502C217.056 81.7142 217.148 81.0852 217.545 80.7835C221.071 78.1042 222.59 70.9041 221.923 59.1406C221.883 58.4223 222.523 57.9169 223.085 58.2233ZM243.269 81.3948L241.152 57.9661L240.723 58.291C234.938 62.5429 229.298 63.5418 223.867 61.2418L223.627 61.1367L223.665 62.1086C223.988 72.119 222.558 78.7562 219.259 81.9936L219.159 82.0862L219.382 82.3903C222.156 86.0751 225.524 88.217 229.514 88.8433L230.063 88.9194C234.592 89.4663 239.063 86.8933 243.506 81.0942L243.269 81.3948Z" fill="black"/>
<path fill-rule="evenodd" clip-rule="evenodd" d="M229.764 61.0748C218.75 61.0748 209.82 51.6039 209.82 39.9221C209.82 28.2403 218.75 18.7695 229.764 18.7695C240.78 18.7695 249.71 28.2403 249.71 39.9221C249.71 51.6039 240.78 61.0748 229.764 61.0748Z" fill="#0065FC"/>
<path fill-rule="evenodd" clip-rule="evenodd" d="M210.629 39.9223C210.629 51.1404 219.213 60.2651 229.765 60.2651C240.316 60.2651 248.902 51.1404 248.902 39.9223C248.902 28.7042 240.316 19.5796 229.765 19.5796C219.213 19.5796 210.629 28.7042 210.629 39.9223ZM209.012 39.9223C209.012 27.8127 218.321 17.9614 229.765 17.9614C241.21 17.9614 250.519 27.8127 250.519 39.9223C250.519 52.0319 241.21 61.8833 229.765 61.8833C218.321 61.8833 209.012 52.0319 209.012 39.9223ZM224.077 46.7049L220.743 46.3C220.511 46.2706 220.3 46.1432 220.167 45.9472C220.034 45.7529 219.993 45.5096 220.054 45.281L221.063 41.4421C221.176 41.0061 221.628 40.7481 222.059 40.8591C222.497 40.9734 222.756 41.4208 222.642 41.8568L221.87 44.7912L224.277 45.0818C224.722 45.1373 225.041 45.5439 224.987 45.9913C224.938 46.4061 224.585 46.7098 224.179 46.7098C224.144 46.7098 224.112 46.7082 224.077 46.7049ZM227.524 39.4607C227.524 40.4453 228.027 41.2422 228.644 41.2422C229.263 41.2422 229.765 40.4453 229.765 39.4607C229.765 38.476 229.263 37.6792 228.644 37.6792C228.027 37.6792 227.524 38.476 227.524 39.4607ZM217.769 41.2422C217.15 41.2422 216.649 40.4453 216.649 39.4607C216.649 38.476 217.15 37.6792 217.769 37.6792C218.388 37.6792 218.889 38.476 218.889 39.4607C218.889 40.4453 218.388 41.2422 217.769 41.2422ZM227.549 33.9645C227.696 33.9674 229.402 34.0025 230.907 35.2948C231.062 35.4271 231.251 35.4924 231.439 35.4924C231.669 35.4924 231.896 35.3961 232.058 35.2083C232.353 34.8654 232.313 34.3494 231.971 34.0571C230.031 32.3909 227.851 32.3396 227.541 32.3324H227.54C227.522 32.3319 227.51 32.3316 227.505 32.3311C227.055 32.3425 226.702 32.7148 226.71 33.1639C226.718 33.6097 227.084 33.964 227.528 33.964H227.54C227.539 33.9642 227.539 33.9642 227.54 33.9643L227.549 33.9645ZM214.355 35.2083C214.06 34.8654 214.101 34.3494 214.442 34.0571C216.369 32.4034 218.545 32.3419 218.869 32.3327C218.891 32.3322 218.904 32.3318 218.908 32.3311C219.36 32.3425 219.716 32.7165 219.705 33.1671C219.695 33.6162 219.303 33.9983 218.874 33.964C218.901 33.946 217.063 33.9591 215.507 35.2948C215.352 35.4271 215.162 35.4924 214.974 35.4924C214.744 35.4924 214.517 35.3961 214.355 35.2083ZM220.165 50.8515C219.913 51.2255 220.013 51.7333 220.387 51.9848C221.161 52.5056 222.562 53.0804 224.183 53.0804C225.526 53.0804 227.023 52.6853 228.442 51.5406C228.793 51.2565 228.847 50.7421 228.564 50.3927C228.28 50.04 227.766 49.9861 227.415 50.2686C224.453 52.664 221.425 50.7127 221.295 50.6278C220.924 50.3812 220.416 50.4776 220.165 50.8515Z" fill="black"/>
<path fill-rule="evenodd" clip-rule="evenodd" d="M186.507 163.125C190.256 159.56 200.625 161.937 204.904 163.125H223.569V155.683H208.333L189.344 95.8831H98.7908L120.139 163.125H186.507Z" fill="#EFF2F7"/>
<path fill-rule="evenodd" clip-rule="evenodd" d="M223.571 163.125V155.684H208.333L192.139 104.683C195.312 102.882 209.202 94.5688 213.777 84.6473C214.858 82.3057 215.544 80.2597 215.978 78.4602H220.116L218.955 72.4609C218.885 72.1017 218.922 71.7555 219.027 71.4354C221.065 72.7107 223.489 73.599 224.943 71.9286C225.372 71.4371 225.833 70.7904 226.234 70.0181H244.938C246.157 70.0181 247.108 71.0746 246.979 72.2862L246.327 78.4602H253.997C285.605 78.4602 315.182 94.043 333.057 120.111L347.133 140.641C347.791 141.6 347.104 142.904 345.941 142.904H295.474C294.926 142.904 294.426 142.596 294.181 142.106L291.03 135.803L294.131 158.979L297.447 178.402C297.365 178.454 297.284 178.507 297.204 178.561C297.068 178.649 296.933 178.739 296.786 178.822C280.478 188.028 206.788 163.683 206.788 163.683C206.788 163.683 206.073 163.448 204.904 163.125H223.571ZM192.139 104.683L189.345 95.8833L192.139 104.683ZM185.199 168.033C185.052 167.285 185.046 166.453 185.221 165.523C185.408 164.521 185.864 163.737 186.509 163.123H176.377C179.238 166.673 185.199 168.033 185.199 168.033ZM221.55 196.165C214.843 192.615 198.963 187.386 198.963 187.386C190.861 185.154 184.438 182.906 179.349 180.729L176.377 198.138H225.598C223.623 197.22 222.23 196.526 221.55 196.165Z" fill="#409B81"/>
<path fill-rule="evenodd" clip-rule="evenodd" d="M192.139 104.683C195.312 102.882 209.2 94.5688 213.777 84.6473C218.957 73.4178 215.443 68.5991 215.443 68.5991C215.443 68.5991 222.08 75.2172 224.943 71.9286C227.805 68.6415 232.211 58.5714 209.35 48.6621C186.491 38.7536 170.652 66.4959 165.753 76.4566C164.244 79.5232 160.69 87.0052 156.491 95.8833H189.345L192.139 104.683ZM341.189 142.906H296.738C296.738 142.906 313.092 169.617 296.784 178.822C280.478 188.028 206.786 163.683 206.786 163.683C206.786 163.683 186.798 157.107 185.219 165.525C185.044 166.454 185.051 167.287 185.198 168.035C185.198 168.035 179.236 166.675 176.375 163.125H120.141L116.956 153.094C113.534 164.5 110.964 182.179 125.095 188.273C139.342 194.418 151.238 188.218 160.843 176.918C166.625 180.218 175.263 183.819 188.211 187.388C188.211 187.388 204.091 192.617 210.797 196.167C217.505 199.717 292.202 235.159 329.88 207.345C367.556 179.531 341.189 142.906 341.189 142.906Z" fill="#0065FC"/>
<path fill-rule="evenodd" clip-rule="evenodd" d="M218.333 70.9783C218.12 71.491 218.045 72.056 218.153 72.6144L219.125 77.6454H216.167C216.06 78.1647 215.927 78.7084 215.771 79.2783H220.116C220.359 79.2783 220.589 79.1689 220.746 78.9811C220.9 78.7934 220.963 78.5452 220.918 78.3068L219.757 72.3042C219.727 72.1589 219.745 72.0119 219.768 71.8698C219.272 71.5971 218.787 71.2934 218.333 70.9783Z" fill="black"/>
<path fill-rule="evenodd" clip-rule="evenodd" d="M155.985 95.883H156.491C156.574 95.7083 156.654 95.5385 156.736 95.3638C156.488 95.5401 156.232 95.705 155.985 95.883Z" fill="black"/>
<path fill-rule="evenodd" clip-rule="evenodd" d="M166.485 76.8174C172.072 65.4557 187.405 40.0387 209.025 49.4116C219.147 53.7992 225.111 58.8212 226.267 63.9305C227.116 67.6781 225.192 70.3969 224.325 71.3929C223.968 71.8061 223.533 72.0069 222.96 72.0265C220.648 72.1457 217.172 69.1656 216.02 68.0242V68.0226L210.772 62.7679C210.691 62.6863 210.594 62.6275 210.491 62.5883C205.648 56.5294 196.711 53.8269 196.176 53.6685C195.743 53.5428 195.289 53.7894 195.162 54.2221C195.034 54.6548 195.282 55.1088 195.715 55.2361C195.89 55.2868 213.261 60.539 211.839 72.2943C210.488 83.4617 207.902 85.9813 206.481 86.4892C205.297 86.9088 203.865 86.3324 202.226 84.7746C203.364 81.2443 203.39 76.3619 202.278 70.1242C200.616 60.7986 188.106 60.3773 187.574 60.3626C187.107 60.3496 186.749 60.7088 186.737 61.1595C186.726 61.6102 187.082 61.9841 187.533 61.9956C187.65 61.9988 199.241 62.3826 200.674 70.4377C202.763 82.1456 200.733 88.6462 194.716 89.7484C193.661 89.8399 190.746 89.7615 189.959 88.3049C189.958 88.3 189.953 88.2984 189.951 88.2935C192.098 84.737 193.379 79.7436 193.648 76.1741C194.277 67.8854 181.827 65.9717 181.297 65.8949C180.857 65.8247 180.436 66.1366 180.371 66.584C180.305 67.0298 180.614 67.4446 181.06 67.5099C181.176 67.5262 192.533 69.2767 192.02 76.0516C191.628 81.2312 188.934 89.4806 185.085 90.8474C183.601 91.3683 182.009 90.7494 180.35 88.9957C175.608 83.9875 183.028 75.5372 183.103 75.454C183.403 75.116 183.374 74.6 183.037 74.2995C182.701 74.0007 182.185 74.0301 181.884 74.3664C181.765 74.4987 180.748 75.6662 179.683 77.3726C179.06 76.9089 179.228 75.098 179.543 74.0072C179.667 73.5745 179.419 73.1222 178.986 72.9964C178.552 72.8691 178.101 73.1173 177.975 73.5516C177.859 73.9468 176.906 77.4445 178.769 78.7328C178.803 78.7557 178.842 78.7492 178.878 78.7671C177.126 82.077 175.849 86.6165 179.164 90.1191C181.016 92.0753 182.699 92.6615 184.048 92.6615C184.646 92.6615 185.178 92.5456 185.63 92.3856C186.886 91.9398 188.003 90.9796 188.981 89.7174C190.297 91.1805 192.758 91.3993 194.073 91.3993C194.546 91.3993 194.869 91.3715 194.935 91.365C198.04 90.7984 200.261 89.1279 201.595 86.3765C203.026 87.6061 204.397 88.2609 205.687 88.2609C206.145 88.2609 206.592 88.1825 207.031 88.0257C210.186 86.899 212.35 81.6721 213.46 72.4902C213.687 70.6222 213.502 68.9125 213.037 67.3482L214.809 69.1216C215.07 69.5249 217.751 74.0807 213.034 84.3043C208.658 93.7931 195.282 101.933 191.884 103.886L192.391 105.478C195.31 103.845 209.719 95.3901 214.518 84.9885C217.572 78.3671 217.691 73.8586 217.211 71.1774C218.852 72.4037 221.095 73.7264 223.017 73.6594C224.044 73.6235 224.898 73.2218 225.558 72.4641C226.589 71.2819 228.875 68.0471 227.861 63.5713C226.564 57.8512 220.446 52.5827 209.673 47.9125C186.762 37.9845 170.813 64.3159 165.02 76.0973C163.498 79.19 159.865 86.8353 155.588 95.8833H157.394C161.522 87.1521 165.007 79.8236 166.485 76.8174ZM329.393 206.687C290.631 235.299 211.956 195.855 211.179 195.445C204.487 191.903 189.117 186.826 188.428 186.601C160.815 178.99 153.189 171.247 151.104 167.308C150.268 165.732 150.18 164.57 150.224 163.941H157.709C157.706 164.075 157.682 164.193 157.703 164.344C157.993 166.454 160.902 168.877 166.349 171.55C176.938 176.748 190.111 180.734 190.243 180.773C190.322 180.796 190.4 180.807 190.478 180.807C190.83 180.807 191.153 180.579 191.261 180.226C191.39 179.793 191.146 179.339 190.714 179.209C190.583 179.17 177.539 175.223 167.068 170.086C160.523 166.874 159.479 164.898 159.334 164.199C159.31 164.085 159.323 164.015 159.331 163.941H175.995C178.609 166.916 183.104 168.322 184.551 168.712C186.303 174.775 196.319 175.267 196.719 175.28L204.214 175.938C204.241 175.941 204.263 175.941 204.288 175.941C204.706 175.941 205.064 175.621 205.1 175.197C205.14 174.748 204.807 174.351 204.358 174.312L196.824 173.652C196.728 173.647 187.046 173.19 185.998 167.876C185.866 167.204 185.872 166.462 186.021 165.675C186.228 164.565 186.819 163.735 187.827 163.141C193.014 160.071 206.396 164.416 206.528 164.459C209.552 165.458 280.754 188.809 297.186 179.534C300.834 177.475 303.208 174.411 304.241 170.429C306.817 160.496 300.388 147.733 298.154 143.723H340.756C343.242 147.459 364.092 181.072 329.393 206.687ZM341.851 142.429C341.697 142.215 341.45 142.09 341.188 142.09H296.738C296.443 142.09 296.17 142.248 296.026 142.506C295.881 142.764 295.887 143.079 296.041 143.332C296.136 143.487 305.518 159.007 302.659 170.022C301.741 173.557 299.63 176.279 296.382 178.111C280.572 187.035 207.774 163.151 207.041 162.908C206.461 162.716 192.82 158.291 186.997 161.733C185.58 162.571 184.711 163.796 184.415 165.373C184.316 165.906 184.269 166.425 184.272 166.928C182.477 166.366 178.944 165.012 177.01 162.614C176.855 162.419 176.622 162.308 176.375 162.308H149.546C149.207 162.308 148.901 162.519 148.782 162.837C148.704 163.045 148.065 164.945 149.574 167.907C150.876 170.465 153.712 173.654 159.556 177.129C155.895 181.31 151.919 184.736 147.608 186.968C140.531 190.634 133.066 190.82 125.419 187.524C121.149 185.682 118.165 182.576 116.55 178.288C113.841 171.09 115.365 161.756 117.409 154.526L116.511 151.694C114.081 159.349 111.817 170.345 115.022 178.861C116.797 183.58 120.079 186.999 124.772 189.023C128.611 190.678 132.406 191.505 136.14 191.505C140.304 191.505 144.39 190.476 148.361 188.418C152.74 186.15 156.966 182.649 161.032 177.974C166.916 181.24 175.492 184.728 187.954 188.164C188.112 188.216 203.845 193.41 210.415 196.888C210.991 197.192 253.858 218.678 292.295 218.678C306.335 218.678 319.782 215.812 330.363 208.002C368.251 180.032 342.118 142.802 341.851 142.429Z" fill="black"/>
<path fill-rule="evenodd" clip-rule="evenodd" d="M347.806 140.179L333.73 119.649C315.696 93.3475 285.889 77.6438 253.997 77.6438H247.234L247.79 72.3711C247.875 71.5628 247.612 70.7546 247.07 70.1504C246.526 69.5478 245.749 69.2017 244.936 69.2017H226.608C226.36 69.8075 226.069 70.3578 225.762 70.8346H244.936C245.292 70.8346 245.617 70.9799 245.855 71.2428C246.092 71.5073 246.203 71.847 246.166 72.1997L245.514 78.3737C245.49 78.6056 245.563 78.8342 245.718 79.0073C245.873 79.1787 246.094 79.2767 246.326 79.2767H253.997C285.35 79.2767 314.653 94.7142 332.383 120.573L346.46 141.102C346.655 141.386 346.552 141.65 346.498 141.752C346.446 141.853 346.282 142.088 345.939 142.088H295.474C295.234 142.088 295.017 141.954 294.91 141.74L291.76 135.437C291.58 135.081 291.172 134.907 290.791 135.022C290.409 135.14 290.168 135.516 290.22 135.911L293.324 159.114L296.699 178.866C296.727 178.851 296.756 178.837 296.784 178.822C297.285 178.539 297.752 178.239 298.193 177.925L294.939 158.869L292.488 140.545L293.45 142.47C293.835 143.241 294.612 143.721 295.474 143.721H297.214C296.92 143.202 296.738 142.905 296.738 142.905H341.191C341.191 142.905 341.395 143.19 341.738 143.721H345.939C346.782 143.721 347.549 143.257 347.941 142.513C348.333 141.768 348.283 140.873 347.806 140.179ZM166.592 197.321L169.37 181.048C168.843 180.827 168.327 180.607 167.827 180.388L164.819 198C164.78 198.237 164.845 198.48 165 198.663C165.155 198.848 165.384 198.954 165.624 198.954H216.623C215.243 198.329 214.068 197.778 213.117 197.321H166.592ZM241.945 71.9335C241.494 71.9335 241.128 72.2977 241.128 72.75V77.6764C241.128 78.1288 241.494 78.4929 241.945 78.4929C242.395 78.4929 242.761 78.1288 242.761 77.6764V72.75C242.761 72.2977 242.395 71.9335 241.945 71.9335ZM238.269 71.9335C237.818 71.9335 237.452 72.2977 237.452 72.75V77.6764C237.452 78.1288 237.818 78.4929 238.269 78.4929C238.721 78.4929 239.085 78.1288 239.085 77.6764V72.75C239.085 72.2977 238.721 71.9335 238.269 71.9335ZM234.595 71.9335C234.144 71.9335 233.778 72.2977 233.778 72.75V77.6764C233.778 78.1288 234.144 78.4929 234.595 78.4929C235.046 78.4929 235.411 78.1288 235.411 77.6764V72.75C235.411 72.2977 235.046 71.9335 234.595 71.9335ZM227.245 71.9335C226.794 71.9335 226.429 72.2977 226.429 72.75V77.6764C226.429 78.1288 226.794 78.4929 227.245 78.4929C227.696 78.4929 228.062 78.1288 228.062 77.6764V72.75C228.062 72.2977 227.696 71.9335 227.245 71.9335ZM230.919 71.9335C230.468 71.9335 230.103 72.2977 230.103 72.75V77.6764C230.103 78.1288 230.468 78.4929 230.919 78.4929C231.371 78.4929 231.736 78.1288 231.736 77.6764V72.75C231.736 72.2977 231.371 71.9335 230.919 71.9335ZM223.569 71.9335C223.12 71.9335 222.753 72.2977 222.753 72.75V77.6764C222.753 78.1288 223.12 78.4929 223.569 78.4929C224.022 78.4929 224.386 78.1288 224.386 77.6764V72.75C224.386 72.2977 224.022 71.9335 223.569 71.9335Z" fill="black"/>
<path fill-rule="evenodd" clip-rule="evenodd" d="M222.753 156.5V162.308H211.029L209.247 156.5H222.753ZM149.546 163.125H176.375C176.607 163.412 176.863 163.68 177.133 163.941H185.841C186.279 163.247 186.898 162.71 187.658 162.308H120.738L99.9066 96.6996H188.748L201.834 137.916V137.917L209.321 162.308H201.618C204.598 162.965 206.786 163.683 206.786 163.683C206.786 163.683 207.062 163.774 207.575 163.941H223.569C224.02 163.941 224.386 163.575 224.386 163.125V155.683C224.386 155.233 224.02 154.867 223.569 154.867H208.929L190.123 95.6365C190.015 95.2969 189.7 95.0667 189.344 95.0667H98.7913C98.5301 95.0667 98.2851 95.1908 98.1316 95.4014C97.9781 95.6104 97.934 95.8815 98.0124 96.1297L119.363 163.371C119.47 163.711 119.784 163.941 120.14 163.941H149.409C149.44 163.414 149.546 163.125 149.546 163.125Z" fill="black"/>
<path fill-rule="evenodd" clip-rule="evenodd" d="M211.153 40.0178C211.153 42.4606 213.132 44.4381 215.573 44.4381C217.719 44.4381 219.556 42.895 219.926 40.7804L220.65 36.6426C220.79 35.8408 220.173 35.1077 219.36 35.1077H212.464C211.741 35.1077 211.153 35.6939 211.153 36.4173V40.0178ZM234.574 40.2347C234.574 42.6759 232.595 44.6549 230.154 44.6549C228.006 44.6549 226.171 43.1118 225.8 40.9972L225.077 36.8594C224.937 36.0577 225.554 35.3245 226.367 35.3245H233.263C233.986 35.3245 234.574 35.9107 234.574 36.6341V40.2347Z" fill="#4B69FD"/>
<path fill-rule="evenodd" clip-rule="evenodd" d="M233.757 40.2352C233.757 42.2225 232.14 43.839 230.153 43.839C228.399 43.839 226.907 42.5833 226.605 40.8573L225.881 36.7179C225.845 36.522 225.933 36.3832 225.989 36.3162C226.045 36.2509 226.167 36.1399 226.368 36.1399H233.264C233.535 36.1399 233.757 36.362 233.757 36.633V40.2352ZM215.573 43.6219C213.585 43.6219 211.971 42.0053 211.971 40.018V36.4175C211.971 36.1448 212.191 35.9227 212.464 35.9227H219.359C219.56 35.9227 219.683 36.0337 219.738 36.0991C219.794 36.166 219.88 36.3048 219.846 36.5024L219.123 40.6402C218.819 42.3678 217.326 43.6219 215.573 43.6219ZM237.53 38.3427H235.39V36.633C235.39 35.4606 234.436 34.507 233.264 34.507H226.368C225.738 34.507 225.143 34.7846 224.738 35.2663C224.333 35.748 224.163 36.3799 224.271 37.0004L224.426 37.8806H221.263L221.454 36.7832C221.564 36.1627 221.394 35.5308 220.989 35.0491C220.584 34.5674 219.99 34.2898 219.359 34.2898H212.464C211.291 34.2898 210.338 35.2434 210.338 36.4175V38.3427H208.195C207.745 38.3427 207.379 38.7068 207.379 39.1591C207.379 39.6098 207.745 39.9756 208.195 39.9756H210.338V40.018C210.338 42.905 212.686 45.2548 215.573 45.2548C218.122 45.2548 220.29 43.4324 220.731 40.921L220.978 39.5135H224.71L224.996 41.1382C225.435 43.648 227.604 45.4719 230.153 45.4719C233.042 45.4719 235.39 43.1222 235.39 40.2352V39.9756H237.53C237.981 39.9756 238.347 39.6098 238.347 39.1591C238.347 38.7068 237.981 38.3427 237.53 38.3427Z" fill="black"/>
<path fill-rule="evenodd" clip-rule="evenodd" d="M257.684 2.18242C249.707 2.18242 243.138 8.16375 242.191 15.8841C240.076 15.2653 237.72 14.8995 235.08 14.8995C234.623 14.8995 234.183 14.9126 233.742 14.924C233.858 14.2529 233.932 13.5687 233.932 12.8665C233.932 6.2108 228.535 0.815674 221.879 0.815674C215.225 0.815674 209.828 6.2108 209.828 12.8665C209.828 16.5749 211.507 19.8897 214.143 22.1006C211.891 24.4618 211.212 26.4931 211.212 26.4931H236.126C238.099 26.4931 239.756 27.9725 239.98 29.9304L241.007 38.9261C242.064 38.7269 243.238 38.8559 244.644 40.5067C245.166 41.1174 245.535 41.8931 245.529 42.6964C245.514 44.7915 243.811 46.4832 241.716 46.4832C241.589 46.4832 241.469 46.457 241.347 46.4456L241.767 55.7973C246.789 55.7973 250.28 52.3959 253.058 48.0687C255.659 44.0126 256.905 38.4427 256.497 33.3677C256.89 33.3971 257.282 33.4281 257.684 33.4281C266.312 33.4281 273.306 26.4327 273.306 17.8044C273.306 9.17615 266.312 2.18242 257.684 2.18242Z" fill="#040226"/>
<path fill-rule="evenodd" clip-rule="evenodd" d="M258.808 32.5552C258.436 32.601 258.054 32.6336 257.651 32.6336C257.161 32.6336 256.7 32.5879 256.258 32.5193C255.366 32.4736 254.54 32.3299 253.808 32.0654C247.522 30.3557 242.878 24.6259 242.878 17.8052C242.878 17.5194 242.904 17.2402 242.92 16.9577C242.935 16.9626 242.95 16.9692 242.963 16.9741C242.977 16.4221 243.041 15.8735 243.152 15.3346C243.136 15.3281 243.121 15.3199 243.103 15.315C244.293 8.33436 250.371 2.99802 257.685 2.99802C265.849 2.99802 272.49 9.64068 272.49 17.8052C272.49 25.5909 266.447 31.9772 258.808 32.5552ZM252.37 47.6286C249.362 52.3167 246.222 54.6648 242.546 54.9506L242.202 47.2743C244.511 47.031 246.328 45.0747 246.346 42.7021C246.353 41.7697 245.969 40.8014 245.265 39.9768C243.936 38.4174 242.703 38.0434 241.728 38.0386L240.791 29.8381C240.52 27.4655 238.515 25.6774 236.127 25.6774H212.493C213.536 23.7849 216.421 19.8463 223.084 17.5292C223.191 17.4917 223.299 17.4541 223.41 17.4166C223.931 17.2435 224.473 17.0802 225.04 16.9283C225.105 16.9104 225.164 16.8908 225.231 16.8728C225.807 16.7226 226.418 16.5903 227.04 16.4646C227.288 16.4156 227.541 16.3715 227.796 16.3274C228.217 16.2523 228.653 16.187 229.096 16.1233C229.382 16.0841 229.663 16.0417 229.96 16.0057C230.598 15.9323 231.261 15.8735 231.944 15.8278C232.3 15.8033 232.67 15.7902 233.038 15.7755C233.706 15.7461 234.37 15.7151 235.079 15.7151C237.419 15.7151 239.471 16.009 241.312 16.4793C241.276 16.9185 241.245 17.3578 241.245 17.8052C241.245 26.2049 247.582 33.1415 255.722 34.1163C255.964 38.8076 254.79 43.8582 252.37 47.6286ZM210.644 12.8673C210.644 6.67206 215.685 1.63291 221.88 1.63291C228.075 1.63291 233.115 6.67206 233.115 12.8673C233.115 13.2723 233.088 13.6887 233.035 14.1263C223.005 14.5296 217.27 17.8754 214.088 20.9535C211.892 18.8372 210.644 15.9323 210.644 12.8673ZM257.685 1.36511C249.627 1.36511 242.92 7.19622 241.524 14.8562C239.569 14.3614 237.427 14.0822 235.079 14.0822C234.942 14.0822 234.813 14.0887 234.677 14.0903C234.721 13.6723 234.747 13.2641 234.747 12.8673C234.747 5.77233 228.975 0 221.88 0C214.785 0 209.011 5.77233 209.011 12.8673C209.011 16.3829 210.455 19.7026 212.976 22.1242C211.124 24.2682 210.499 26.0498 210.435 26.2359C210.353 26.4857 210.396 26.7584 210.549 26.9707C210.703 27.183 210.948 27.3104 211.211 27.3104H236.127C237.683 27.3104 238.993 28.4763 239.169 30.0242L240.196 39.0183C240.223 39.2453 240.34 39.4494 240.523 39.5833C240.706 39.7188 240.936 39.7727 241.158 39.7286C241.887 39.5914 242.772 39.5669 244.022 41.0366C244.471 41.5624 244.716 42.1502 244.713 42.6923C244.7 44.3318 243.356 45.6659 241.715 45.6659L241.424 45.6332C241.189 45.6103 240.956 45.6903 240.784 45.8536C240.613 46.0169 240.52 46.2455 240.531 46.4823L240.951 55.834C240.97 56.2699 241.33 56.6145 241.766 56.6145C246.39 56.6145 250.196 54.0394 253.745 48.5104C256.302 44.5245 257.558 39.2044 257.347 34.2273C257.461 34.229 257.571 34.2453 257.685 34.2453C266.749 34.2453 274.123 26.8711 274.123 17.8052C274.123 8.74094 266.749 1.36511 257.685 1.36511Z" fill="black"/>
</svg>
