<svg width="314" height="568" viewBox="0 0 314 568" fill="none" xmlns="http://www.w3.org/2000/svg">
<path fill-rule="evenodd" clip-rule="evenodd" d="M216.261 565.699H86.7705L87.098 564.786C91.2741 553.142 101.361 544.633 113.525 542.492L125.885 540.315C132.221 539.2 138.118 536.32 142.902 532.009L143.171 531.767H216.261V565.699Z" fill="#EFF2F7"/>
<path fill-rule="evenodd" clip-rule="evenodd" d="M88.0109 564.826H215.39V532.639L143.486 532.657C138.575 537.085 132.541 540.029 126.034 541.176L113.677 543.35C101.938 545.419 92.1277 553.635 88.0109 564.826ZM216.261 566.572H86.7722C86.4882 566.572 86.2217 566.434 86.0596 566.202C85.8959 565.97 85.8558 565.671 85.9516 565.404L86.2791 564.491C90.551 552.581 100.933 543.823 113.375 541.631L125.735 539.455C131.918 538.367 137.653 535.568 142.32 531.36L142.587 531.119C142.747 530.974 142.954 530.894 143.17 530.894H216.261C216.742 530.894 217.132 531.285 217.132 531.767V565.699C217.132 566.181 216.742 566.572 216.261 566.572Z" fill="black"/>
<path fill-rule="evenodd" clip-rule="evenodd" d="M211.029 548.733C211.029 551.003 209.191 552.845 206.924 552.845C204.658 552.845 202.821 551.003 202.821 548.733C202.821 546.462 204.658 544.623 206.924 544.623C209.191 544.623 211.029 546.462 211.029 548.733Z" fill="#FF5613"/>
<path fill-rule="evenodd" clip-rule="evenodd" d="M206.924 545.494C205.142 545.494 203.691 546.947 203.691 548.731C203.691 550.518 205.142 551.971 206.924 551.971C208.706 551.971 210.158 550.518 210.158 548.731C210.158 546.947 208.706 545.494 206.924 545.494ZM206.924 553.716C204.18 553.716 201.948 551.48 201.948 548.731C201.948 545.984 204.18 543.748 206.924 543.748C209.668 543.748 211.9 545.984 211.9 548.731C211.9 551.48 209.668 553.716 206.924 553.716Z" fill="black"/>
<path fill-rule="evenodd" clip-rule="evenodd" d="M134.796 546.579C134.533 546.579 134.271 546.46 134.101 546.234C130.496 541.462 126.998 541.102 126.963 541.101C126.485 541.059 126.128 540.64 126.167 540.162C126.205 539.683 126.623 539.312 127.093 539.361C127.266 539.373 131.371 539.725 135.489 545.179C135.78 545.563 135.703 546.111 135.32 546.403C135.163 546.522 134.979 546.579 134.796 546.579Z" fill="black"/>
<path fill-rule="evenodd" clip-rule="evenodd" d="M142.561 543.841C142.298 543.841 142.036 543.722 141.865 543.495C138.261 538.724 134.761 538.364 134.726 538.362C134.25 538.32 133.893 537.901 133.932 537.423C133.968 536.945 134.388 536.579 134.858 536.622C135.031 536.634 139.134 536.987 143.254 542.441C143.545 542.825 143.468 543.373 143.085 543.665C142.928 543.783 142.744 543.841 142.561 543.841Z" fill="black"/>
<path fill-rule="evenodd" clip-rule="evenodd" d="M88.0109 564.826H215.39V558.875H90.9099C89.7357 560.788 88.7635 562.788 88.0109 564.826ZM216.261 566.572H86.7722C86.4882 566.572 86.2217 566.434 86.0596 566.202C85.8959 565.97 85.8558 565.671 85.9516 565.404L86.2774 564.493C87.1381 562.099 88.2862 559.758 89.6904 557.536C89.8506 557.283 90.1276 557.13 90.4273 557.13H216.261C216.742 557.13 217.132 557.521 217.132 558.002V565.699C217.132 566.181 216.742 566.572 216.261 566.572Z" fill="black"/>
<path fill-rule="evenodd" clip-rule="evenodd" d="M92.0563 557.13H122.714C122.562 551.093 121.733 546.075 120.248 542.193L113.677 543.35C104.865 544.902 97.1417 549.86 92.0563 557.13ZM89.5597 560.327C89.4151 560.327 89.267 560.29 89.1311 560.214C88.713 559.975 88.5666 559.444 88.8036 559.023C88.8036 559.023 88.8036 559.023 88.8036 559.022C88.8053 559.022 88.8053 559.022 88.8053 559.022C88.8837 558.88 88.9656 558.741 89.0457 558.601C89.2565 558.241 89.4691 557.885 89.6921 557.535C89.7025 557.519 89.713 557.503 89.7235 557.487C95.0371 549.099 103.565 543.359 113.375 541.631L120.644 540.35C121.048 540.279 121.444 540.497 121.6 540.876C123.407 545.228 124.374 550.986 124.471 557.99C124.475 558.224 124.384 558.449 124.221 558.615C124.057 558.781 123.834 558.875 123.6 558.875H90.9134C90.7897 559.076 90.6695 559.28 90.5493 559.484C90.4709 559.618 90.3942 559.751 90.3175 559.887C90.1573 560.168 89.8628 560.327 89.5597 560.327Z" fill="black"/>
<path fill-rule="evenodd" clip-rule="evenodd" d="M88.6885 561.959C88.5579 561.959 88.4255 561.929 88.3 561.866C87.8697 561.652 87.6955 561.128 87.9098 560.697V560.695C87.9115 560.695 87.9115 560.694 87.9115 560.694C87.9951 560.526 88.0788 560.36 88.1659 560.196C88.3105 559.919 88.4585 559.641 88.6101 559.367C88.8436 558.947 89.3715 558.793 89.7931 559.029C90.2129 559.262 90.3662 559.791 90.1345 560.214C90.1345 560.214 90.1328 560.214 90.1328 560.215C89.9899 560.474 89.8506 560.734 89.7147 560.996C89.631 561.156 89.5492 561.315 89.469 561.477C89.3157 561.783 89.0073 561.959 88.6885 561.959Z" fill="black"/>
<path fill-rule="evenodd" clip-rule="evenodd" d="M87.8611 563.736C87.7461 563.736 87.6294 563.713 87.5161 563.664C87.1869 563.521 86.99 563.2 86.99 562.863C86.99 562.748 87.0126 562.629 87.0614 562.517C87.0632 562.514 87.0649 562.509 87.0667 562.503C87.2043 562.186 87.3524 561.873 87.4987 561.559C87.5022 561.554 87.5057 561.549 87.5074 561.542L87.5336 561.488L87.537 561.489C87.7635 561.1 88.2635 560.91 88.6747 561.104C89.1102 561.308 89.3158 561.788 89.1137 562.224L88.9987 562.469C88.8838 562.715 88.7688 562.959 88.6608 563.209C88.5196 563.538 88.1991 563.736 87.8611 563.736Z" fill="black"/>
<path fill-rule="evenodd" clip-rule="evenodd" d="M143.172 531.768H216.262V523.12H143.172V531.768Z" fill="#FF5613"/>
<path fill-rule="evenodd" clip-rule="evenodd" d="M144.042 530.894H215.39V523.991H144.042V530.894ZM216.262 532.639H143.17C142.69 532.639 142.299 532.248 142.299 531.767V523.12C142.299 522.637 142.69 522.248 143.17 522.248H216.262C216.743 522.248 217.133 522.637 217.133 523.12V531.767C217.133 532.248 216.743 532.639 216.262 532.639Z" fill="black"/>
<path fill-rule="evenodd" clip-rule="evenodd" d="M214.522 503.91L216.261 523.119H143.17L141.026 503.91H214.522Z" fill="#0065FC"/>
<path fill-rule="evenodd" clip-rule="evenodd" d="M143.949 522.246H215.308L213.726 504.782H142L143.949 522.246ZM216.261 523.991H143.171C142.726 523.991 142.353 523.658 142.305 523.216L140.16 504.006C140.132 503.76 140.211 503.514 140.376 503.327C140.542 503.142 140.779 503.037 141.026 503.037H214.522C214.972 503.037 215.348 503.381 215.39 503.831L217.128 523.04C217.151 523.284 217.069 523.525 216.904 523.707C216.74 523.888 216.505 523.991 216.261 523.991Z" fill="black"/>
<path fill-rule="evenodd" clip-rule="evenodd" d="M130.928 408.785C127.156 390.527 124.135 374.818 123.98 370.657L128.743 369.261L130.928 408.785ZM255.193 215.197H117.245L123.56 295.596L95.8123 302.546C67.6515 309.599 48.9107 336.234 51.7104 365.179C55.2871 402.132 61.6566 452.05 72.2056 489.152L140.966 480.54L146.336 496.953L152.103 503.91H220.796L197.961 348.972L206.447 346.483C252.324 333.035 278.722 284.966 265.502 238.947L255.193 215.197Z" fill="#FCBD21"/>
<path fill-rule="evenodd" clip-rule="evenodd" d="M124.893 371.299C125.174 374.741 126.684 383.326 129.398 396.905L127.933 370.407L124.893 371.299ZM130.928 409.658C130.52 409.658 130.16 409.372 130.074 408.963C125.59 387.251 123.247 374.375 123.111 370.69C123.095 370.29 123.353 369.933 123.736 369.819L128.498 368.425C128.752 368.351 129.029 368.395 129.245 368.549C129.463 368.702 129.597 368.947 129.613 369.214L131.797 408.736C131.824 409.194 131.492 409.591 131.041 409.651C131.003 409.656 130.965 409.658 130.928 409.658ZM152.512 503.037H219.785L197.098 349.099C197.036 348.668 197.299 348.256 197.715 348.134L206.201 345.645C251.488 332.37 277.713 284.615 264.664 239.188L254.538 216.07H118.187L124.428 295.528C124.461 295.954 124.184 296.34 123.771 296.443L96.0249 303.393C68.0679 310.395 49.7958 336.342 52.5781 365.093C56.0242 400.71 62.3309 450.872 72.8398 488.193L140.859 479.674C141.277 479.62 141.665 479.872 141.794 480.27L147.113 496.524L152.512 503.037ZM152.103 504.782C151.843 504.782 151.597 504.667 151.432 504.467L145.667 497.51C145.597 497.426 145.543 497.328 145.508 497.224L140.362 481.497L72.3137 490.017C71.8886 490.066 71.4844 489.804 71.3677 489.391C60.7002 451.872 54.3186 401.179 50.8446 365.262C47.9787 335.644 66.8014 308.911 95.6016 301.702L122.633 294.93L116.377 215.265C116.358 215.022 116.442 214.783 116.605 214.603C116.771 214.425 117.003 214.324 117.247 214.324H255.193C255.582 214.324 255.923 214.581 256.031 214.954L266.338 238.706C279.652 285.051 252.894 333.777 206.691 347.32L198.933 349.595L221.656 503.782C221.695 504.034 221.62 504.289 221.454 504.481C221.289 504.671 221.048 504.782 220.796 504.782H152.103Z" fill="black"/>
<path fill-rule="evenodd" clip-rule="evenodd" d="M105.459 376.169C105.079 376.169 104.731 375.917 104.621 375.535C104.49 375.071 104.759 374.589 105.222 374.457L197.722 348.132C198.185 347.998 198.666 348.27 198.799 348.732C198.929 349.195 198.661 349.678 198.198 349.809L105.698 376.136C105.617 376.158 105.537 376.169 105.459 376.169Z" fill="black"/>
<path fill-rule="evenodd" clip-rule="evenodd" d="M123.559 296.471C123.165 296.471 122.81 296.204 122.712 295.804C122.6 295.335 122.888 294.863 123.355 294.75L187.757 279.149C188.22 279.035 188.696 279.321 188.809 279.791C188.922 280.259 188.635 280.73 188.166 280.843L123.764 296.446C123.696 296.464 123.627 296.471 123.559 296.471Z" fill="black"/>
<path fill-rule="evenodd" clip-rule="evenodd" d="M146.336 496.953L140.967 480.542L83.5352 487.732L91.9046 523.12L146.336 496.953Z" fill="#0065FC"/>
<path fill-rule="evenodd" clip-rule="evenodd" d="M84.6066 488.478L92.5022 521.864L145.27 496.496L140.362 481.496L84.6066 488.478ZM91.9046 523.991C91.7757 523.991 91.6485 523.963 91.53 523.906C91.2914 523.792 91.1171 523.578 91.0562 523.319L82.6867 487.933C82.6309 487.692 82.678 487.437 82.8191 487.235C82.9602 487.031 83.1814 486.896 83.4271 486.867L140.859 479.674C141.277 479.62 141.663 479.872 141.794 480.268L147.164 496.681C147.299 497.096 147.108 497.55 146.712 497.738L92.2809 523.906C92.1625 523.963 92.0335 523.991 91.9046 523.991Z" fill="black"/>
<path fill-rule="evenodd" clip-rule="evenodd" d="M146.336 496.953L168.824 524.089L104.332 565.699H47.9509L48.5712 563.165C51.3517 551.819 61.5557 543.876 73.218 543.981L79.3452 544.035C81.0404 544.05 82.7077 543.595 84.1624 542.722L86.7513 541.165C89.3385 539.61 91.0005 536.882 91.1991 533.865L91.9047 523.121L146.336 496.953Z" fill="#EFF2F7"/>
<path fill-rule="evenodd" clip-rule="evenodd" d="M49.0623 564.826H104.077L167.528 523.888L146.101 498.033L92.7408 523.686L92.0701 533.922C91.8523 537.224 90.0317 540.21 87.2007 541.914L84.6118 543.469C83.0177 544.427 81.2319 544.895 79.3382 544.907L73.2109 544.853C61.9214 544.792 52.1164 552.367 49.4195 563.373L49.0623 564.826ZM104.333 566.572H47.9525C47.6842 566.572 47.4316 566.448 47.2661 566.238C47.1006 566.025 47.0414 565.751 47.1058 565.491L47.7261 562.955C50.6181 551.159 61.1253 542.998 73.2265 543.108L79.3538 543.162C80.8678 543.132 82.3957 542.764 83.7145 541.973L86.3034 540.416C88.645 539.01 90.1519 536.538 90.3296 533.809L91.037 523.063C91.0562 522.749 91.2443 522.469 91.5283 522.333L145.96 496.166C146.322 495.993 146.752 496.087 147.007 496.396L169.495 523.532C169.655 523.724 169.725 523.976 169.687 524.222C169.648 524.47 169.507 524.688 169.296 524.824L104.806 566.432C104.664 566.523 104.501 566.572 104.333 566.572Z" fill="black"/>
<path fill-rule="evenodd" clip-rule="evenodd" d="M91.199 533.865L152.103 503.91L146.336 496.953L91.9046 523.119L91.199 533.865Z" fill="#FF5613"/>
<path fill-rule="evenodd" clip-rule="evenodd" d="M92.7408 523.686L92.1676 532.416L150.724 503.615L146.101 498.035L92.7408 523.686ZM91.1989 534.739C91.03 534.739 90.861 534.688 90.7146 534.591C90.4568 534.416 90.3087 534.119 90.3296 533.809L91.0352 523.063C91.0561 522.749 91.2442 522.469 91.5282 522.333L145.96 496.166C146.32 495.993 146.752 496.087 147.007 496.396L152.773 503.353C152.942 503.559 153.01 503.831 152.954 504.093C152.899 504.355 152.726 504.576 152.486 504.693L91.584 534.648C91.462 534.707 91.3296 534.739 91.1989 534.739Z" fill="black"/>
<path fill-rule="evenodd" clip-rule="evenodd" d="M49.003 564.826H104.077L167.528 523.888L163.32 518.813L106.75 555.693C103.562 557.772 99.8646 558.871 96.0579 558.871H50.9908C49.9246 560.894 49.2922 563.442 49.003 564.826ZM104.333 566.572H47.9524C47.6981 566.572 47.4559 566.46 47.2904 566.266C47.1249 566.073 47.0517 565.818 47.0918 565.565C47.1214 565.371 47.8479 560.779 49.726 557.557C49.8828 557.29 50.1685 557.126 50.4786 557.126H96.0579C99.5266 557.126 102.894 556.124 105.8 554.231L163.021 516.926C163.392 516.685 163.885 516.76 164.167 517.101L169.497 523.532C169.655 523.724 169.725 523.976 169.686 524.222C169.648 524.47 169.507 524.688 169.298 524.824L104.805 566.432C104.664 566.523 104.501 566.572 104.333 566.572Z" fill="black"/>
<path fill-rule="evenodd" clip-rule="evenodd" d="M51.9265 557.126H83.3121C85.124 549.502 82.0874 545.724 81.1135 544.747C80.488 544.858 79.9009 544.893 79.3364 544.907L73.2109 544.853C64.3954 544.771 56.2506 549.55 51.9265 557.126ZM83.9916 558.871H50.477C50.1756 558.871 49.8934 558.718 49.7348 558.461C49.5763 558.205 49.5589 557.887 49.693 557.616C54.0903 548.714 63.3309 542.984 73.2266 543.108L79.3521 543.162C79.9288 543.165 80.5211 543.097 81.1901 542.952C81.4445 542.898 81.7145 542.959 81.9201 543.123C82.1536 543.308 87.6136 547.782 84.833 558.224C84.732 558.606 84.3853 558.871 83.9916 558.871Z" fill="black"/>
<path fill-rule="evenodd" clip-rule="evenodd" d="M155.62 516.174C155.62 518.445 153.782 520.286 151.515 520.286C149.249 520.286 147.413 518.445 147.413 516.174C147.413 513.904 149.249 512.064 151.515 512.064C153.782 512.064 155.62 513.904 155.62 516.174Z" fill="#FF5613"/>
<path fill-rule="evenodd" clip-rule="evenodd" d="M151.516 512.935C149.733 512.935 148.282 514.389 148.282 516.172C148.282 517.959 149.733 519.412 151.516 519.412C153.298 519.412 154.749 517.959 154.749 516.172C154.749 514.389 153.298 512.935 151.516 512.935ZM151.516 521.157C148.772 521.157 146.54 518.921 146.54 516.172C146.54 513.425 148.772 511.189 151.516 511.189C154.259 511.189 156.491 513.425 156.491 516.172C156.491 518.921 154.259 521.157 151.516 521.157Z" fill="black"/>
<path fill-rule="evenodd" clip-rule="evenodd" d="M100.969 540.485C100.957 540.485 100.947 540.485 100.935 540.485C93.8334 540.198 89.9169 538.484 89.7532 538.411C89.3142 538.214 89.1173 537.699 89.3124 537.259C89.5075 536.819 90.0215 536.624 90.4623 536.816C90.4988 536.832 94.2707 538.47 101.004 538.739C101.485 538.758 101.858 539.165 101.839 539.647C101.821 540.116 101.435 540.485 100.969 540.485Z" fill="black"/>
<path fill-rule="evenodd" clip-rule="evenodd" d="M94.5162 547.513C94.2531 547.513 93.9918 547.394 93.821 547.167C90.2164 542.396 86.7164 542.036 86.6815 542.034C86.2059 541.992 85.8488 541.574 85.8871 541.095C85.9237 540.617 86.3418 540.254 86.8139 540.294C86.9864 540.307 91.0893 540.659 95.2096 546.113C95.5005 546.497 95.4239 547.045 95.0406 547.337C94.8838 547.455 94.6991 547.513 94.5162 547.513Z" fill="black"/>
<path fill-rule="evenodd" clip-rule="evenodd" d="M72.2039 490.024C71.7719 490.024 71.3956 489.701 71.3416 489.26C71.2806 488.781 71.6203 488.345 72.0977 488.286L145.23 479.128C142.852 468.471 123.512 381.56 123.109 370.69C123.092 370.208 123.466 369.804 123.947 369.786C124.44 369.748 124.832 370.144 124.851 370.626C125.264 381.801 146.92 478.706 147.139 479.683C147.193 479.924 147.143 480.175 147.002 480.376C146.86 480.577 146.641 480.709 146.397 480.741L72.3137 490.017C72.2771 490.022 72.2405 490.024 72.2039 490.024Z" fill="black"/>
<path fill-rule="evenodd" clip-rule="evenodd" d="M171.646 91.6923C171.646 91.6923 177.804 87.1944 176.709 68.6192C176.709 68.6192 186.447 73.7147 197.071 65.0991L199.522 91.4778C199.522 91.4778 192.156 100.832 184.432 99.9251C176.709 99.018 171.646 91.6923 171.646 91.6923Z" fill="#0065FC"/>
<path fill-rule="evenodd" clip-rule="evenodd" d="M177.08 66.2477C183.264 69.62 189.718 68.4572 196.558 62.6771C197.101 62.2185 197.868 62.6148 197.937 63.3899L200.388 90.8782C200.413 91.1578 200.336 91.4367 200.177 91.6481C195.095 98.3731 189.806 101.458 184.341 100.789C178.95 100.13 174.474 97.1261 170.956 91.8217C170.647 91.3557 170.745 90.6834 171.169 90.3609C174.931 87.4972 176.551 79.8014 175.84 67.2282C175.796 66.4604 176.479 65.9203 177.08 66.2477ZM198.396 91.0145L196.125 65.9728L195.663 66.3201C189.455 70.8647 183.4 71.9325 177.571 69.4741L177.313 69.3617L177.354 70.4005C177.701 81.0999 176.166 88.1941 172.625 91.6543L172.518 91.7533L172.757 92.0783C175.734 96.0168 179.349 98.3061 183.633 98.9758L184.221 99.0569C189.083 99.6414 193.882 96.8913 198.65 90.693L198.396 91.0145Z" fill="black"/>
<path fill-rule="evenodd" clip-rule="evenodd" d="M184.209 70.165C172.456 70.165 162.928 60.0439 162.928 47.558C162.928 35.072 172.456 24.9492 184.209 24.9492C195.962 24.9492 205.488 35.072 205.488 47.558C205.488 60.0439 195.962 70.165 184.209 70.165Z" fill="#0065FC"/>
<path fill-rule="evenodd" clip-rule="evenodd" d="M184.208 25.8149C172.95 25.8149 163.791 35.5677 163.791 47.558C163.791 59.5466 172.95 69.3011 184.208 69.3011C195.466 69.3011 204.625 59.5466 204.625 47.558C204.625 35.5677 195.466 25.8149 184.208 25.8149ZM184.208 71.0307C171.998 71.0307 162.064 60.5013 162.064 47.558C162.064 34.6148 171.998 24.0853 184.208 24.0853C196.417 24.0853 206.351 34.6148 206.351 47.558C206.351 60.5013 196.417 71.0307 184.208 71.0307Z" fill="black"/>
<path fill-rule="evenodd" clip-rule="evenodd" d="M178.246 54.8129C178.211 54.8129 178.176 54.8112 178.14 54.8077L174.582 54.3749C174.333 54.3434 174.108 54.2073 173.967 53.9979C173.826 53.7902 173.781 53.5301 173.845 53.2858L174.924 49.1808C175.046 48.7166 175.521 48.4391 175.988 48.5595C176.452 48.6834 176.73 49.1599 176.609 49.6259L175.784 52.7622L178.351 53.0729C178.828 53.1322 179.168 53.5668 179.11 54.045C179.056 54.4883 178.682 54.8129 178.246 54.8129Z" fill="black"/>
<path fill-rule="evenodd" clip-rule="evenodd" d="M184.208 47.0647C184.208 48.1171 183.673 48.9688 183.013 48.9688C182.352 48.9688 181.816 48.1171 181.816 47.0647C181.816 46.0122 182.352 45.1605 183.013 45.1605C183.673 45.1605 184.208 46.0122 184.208 47.0647Z" fill="black"/>
<path fill-rule="evenodd" clip-rule="evenodd" d="M172.604 47.0647C172.604 48.1171 172.07 48.9688 171.408 48.9688C170.749 48.9688 170.212 48.1171 170.212 47.0647C170.212 46.0122 170.749 45.1605 171.408 45.1605C172.07 45.1605 172.604 46.0122 172.604 47.0647Z" fill="black"/>
<path fill-rule="evenodd" clip-rule="evenodd" d="M185.994 42.8224C185.791 42.8224 185.591 42.7526 185.426 42.6112C183.755 41.1731 181.858 41.1888 181.833 41.1906H181.821C181.347 41.1906 180.957 40.8101 180.948 40.3336C180.939 39.8537 181.316 39.4575 181.795 39.4452C181.901 39.4452 184.375 39.4069 186.561 41.2883C186.926 41.6025 186.967 42.1522 186.654 42.5187C186.481 42.7195 186.239 42.8224 185.994 42.8224Z" fill="black"/>
<path fill-rule="evenodd" clip-rule="evenodd" d="M168.428 42.8225C168.182 42.8225 167.94 42.7195 167.768 42.5188C167.454 42.1523 167.496 41.6008 167.86 41.2884C170.048 39.4069 172.528 39.4471 172.627 39.4453C173.108 39.4575 173.487 39.8572 173.475 40.3389C173.465 40.8189 173.137 41.2063 172.588 41.1906C172.531 41.1976 170.653 41.1871 168.996 42.6113C168.831 42.7527 168.63 42.8225 168.428 42.8225Z" fill="black"/>
<path fill-rule="evenodd" clip-rule="evenodd" d="M180.968 59.3637C180.88 59.3637 180.796 59.3602 180.718 59.355C180.238 59.3183 179.88 58.8977 179.916 58.4177C179.953 57.9395 180.374 57.5887 180.846 57.6149C181.117 57.6271 182.493 57.6446 182.711 56.2815C182.786 55.805 183.233 55.4821 183.709 55.5589C184.185 55.6357 184.507 56.0825 184.43 56.559C184.071 58.7965 182.134 59.3637 180.968 59.3637Z" fill="black"/>
<path fill-rule="evenodd" clip-rule="evenodd" d="M184.478 50.9647C181.884 50.9647 179.774 48.8511 179.774 46.2524C179.774 43.6536 181.884 41.5383 184.478 41.5383C187.072 41.5383 189.182 43.6536 189.182 46.2524C189.182 48.8511 187.072 50.9647 184.478 50.9647ZM170.797 50.9647C168.202 50.9647 166.093 48.8511 166.093 46.2524C166.093 43.6536 168.202 41.5383 170.797 41.5383C173.392 41.5383 175.502 43.6536 175.502 46.2524C175.502 48.8511 173.392 50.9647 170.797 50.9647ZM194.574 45.3797H190.835C190.405 42.2329 187.734 39.793 184.478 39.793C181.222 39.793 178.551 42.2329 178.121 45.3797H177.156C176.727 42.2329 174.053 39.793 170.797 39.793C167.542 39.793 164.868 42.2329 164.439 45.3797H162.936C162.453 45.3797 162.065 45.7689 162.065 46.2524C162.065 46.7341 162.453 47.125 162.936 47.125H164.439C164.868 50.2718 167.542 52.71 170.797 52.71C174.053 52.71 176.727 50.2718 177.156 47.125H178.121C178.551 50.2718 181.222 52.71 184.478 52.71C187.734 52.71 190.405 50.2718 190.835 47.125H194.574C195.055 47.125 195.445 46.7341 195.445 46.2524C195.445 45.7689 195.055 45.3797 194.574 45.3797Z" fill="black"/>
<path fill-rule="evenodd" clip-rule="evenodd" d="M167.464 36.7428H199.381C194.539 40.9595 194.33 48.761 196.224 52.7054C196.41 53.0939 196.601 53.4622 196.788 53.8219C198.497 57.115 199.828 59.6776 193.666 70.1882C189.354 77.543 196.501 89.3779 200.501 91.5421C211.447 97.4657 208.22 119.605 208.22 119.605H308.613C308.613 119.605 311.769 83.5503 286.934 75.96C262.065 68.3589 258.012 57.0394 253.73 45.0803C250.491 36.0384 247.124 26.6308 234.528 18.1884C205.273 -1.42017 183.171 17.1342 183.171 17.1342C159.176 16.2913 157.709 36.7428 157.709 36.7428H167.44C167.44 36.7428 161.076 39.483 161.285 53.6112C161.373 59.4987 163.387 62.7059 165.523 66.1079C168.284 70.5045 171.249 75.2262 170.524 86.4789C170.402 88.3586 171.083 90.2139 172.416 91.5421L179.25 70.1882H179.252C170.581 67.3311 164.283 58.7425 164.283 48.5917C164.283 44.2407 165.459 40.1915 167.464 36.7428Z" fill="#040226"/>
<path fill-rule="evenodd" clip-rule="evenodd" d="M307.792 118.732H209.207C209.711 114.229 211.033 96.2503 200.916 90.7735C198.674 89.5622 195.215 84.7591 193.834 79.8059C193.128 77.277 192.658 73.631 194.418 70.6291C200.513 60.2305 199.583 57.3158 197.56 53.4203C197.378 53.0678 197.191 52.7065 197.008 52.3277C195.297 48.7656 195.362 41.3986 199.952 37.4018C200.226 37.1627 200.324 36.777 200.196 36.4367C200.069 36.0964 199.743 35.8695 199.381 35.8695H158.701C158.973 34.2201 159.798 30.63 162.164 27.1097C166.452 20.7306 173.508 17.6851 183.142 18.0062C183.36 18.0236 183.565 17.9399 183.731 17.8037C183.785 17.7584 189.261 13.2398 198.161 11.1384C206.355 9.20634 219.228 8.98468 234.044 18.9138C246.401 27.197 249.711 36.4384 252.909 45.3744C257.272 57.5584 261.392 69.0653 286.68 76.7935C308.529 83.4711 308.053 113.442 307.792 118.732ZM208.221 120.477H308.613C309.064 120.477 309.44 120.131 309.48 119.679C309.512 119.313 312.407 82.8323 287.189 75.125C262.739 67.6518 258.76 56.5448 254.549 44.7868V44.7863C251.254 35.5815 247.847 26.066 235.012 17.4634C207.292 -1.11718 185.538 14.2241 182.884 16.2522C158.662 15.5628 156.856 36.4698 156.84 36.681C156.823 36.9219 156.906 37.1592 157.07 37.3373C157.236 37.5153 157.467 37.6148 157.708 37.6148H164.931C162.925 39.7491 160.277 44.3363 160.415 53.624C160.506 59.753 162.583 63.0635 164.782 66.5674L164.786 66.5742L164.787 66.5758C167.527 70.9403 170.361 75.454 169.654 86.4236C169.516 88.5721 170.299 90.663 171.802 92.1605C171.966 92.3245 172.189 92.4153 172.415 92.4153C172.485 92.4153 172.553 92.4066 172.621 92.3908C172.917 92.3193 173.152 92.0976 173.245 91.8097L180.083 70.454C180.229 69.9968 179.98 69.5081 179.525 69.358C170.929 66.5271 165.154 58.181 165.154 48.5905C165.154 44.7418 166.127 40.9572 167.971 37.6148H197.336C193.513 42.3533 193.647 49.3537 195.438 53.0835C195.628 53.4814 195.823 53.8584 196.015 54.2249C197.651 57.3752 198.832 59.6511 192.914 69.746C191.276 72.5402 191.015 76.1809 192.156 80.2754C193.726 85.9075 197.496 90.9079 200.087 92.3093C210.369 97.8734 207.39 119.264 207.359 119.479C207.322 119.73 207.395 119.983 207.562 120.175C207.726 120.367 207.968 120.477 208.221 120.477ZM162.157 53.5978C162.065 47.4613 163.253 43.5727 164.562 41.1607C163.802 43.5501 163.412 46.0581 163.412 48.5905C163.412 58.6313 169.304 67.4154 178.163 70.7298L172.095 89.6856C171.57 88.7414 171.321 87.6488 171.393 86.5353C172.136 75.0041 169.017 70.0329 166.264 65.648L166.262 65.644C164.194 62.3523 162.241 59.2404 162.157 53.5978Z" fill="black"/>
<path fill-rule="evenodd" clip-rule="evenodd" d="M170.228 89.7648C172.427 94.4038 177.878 97.6937 184.27 97.6937C190.664 97.6937 196.115 94.4038 198.314 89.7648H206.497C240.223 89.7648 271.779 106.419 290.849 134.282L307.523 158.643H249.798L246.008 151.055L254.908 217.68H112.211L123.997 148.524L124.98 98.2033L170.228 89.7648Z" fill="#4B69FD"/>
<path fill-rule="evenodd" clip-rule="evenodd" d="M113.243 216.808H253.911L245.144 151.17C245.089 150.748 245.345 150.345 245.752 150.221C246.162 150.095 246.597 150.284 246.787 150.664L250.336 157.771H305.868L290.129 134.776C271.213 107.138 239.949 90.6375 206.497 90.6375H198.851C196.29 95.472 190.636 98.5665 184.27 98.5665C177.95 98.5665 172.333 95.5174 169.747 90.7422L125.835 98.9312L124.868 148.542L113.243 216.808ZM254.906 218.553H112.21C111.954 218.553 111.71 218.44 111.544 218.242C111.379 218.047 111.309 217.787 111.353 217.534L123.138 148.378L124.107 98.186C124.116 97.7724 124.414 97.4215 124.82 97.3447L170.068 88.9062C170.455 88.8381 170.845 89.0318 171.014 89.3914C173.12 93.8367 178.448 96.8212 184.27 96.8212C190.093 96.8212 195.42 93.8367 197.527 89.3914C197.67 89.0859 197.976 88.8922 198.312 88.8922H206.497C240.524 88.8922 272.326 105.677 291.567 133.79L308.241 158.151C308.424 158.417 308.443 158.764 308.294 159.05C308.144 159.338 307.846 159.516 307.524 159.516H249.798C249.467 159.516 249.165 159.329 249.017 159.035L247.564 156.122L255.77 217.565C255.803 217.815 255.728 218.066 255.563 218.255C255.397 218.445 255.158 218.553 254.906 218.553Z" fill="black"/>
<path fill-rule="evenodd" clip-rule="evenodd" d="M252.101 158.644C252.101 158.644 269.549 187.195 252.15 197.033C234.752 206.873 156.129 180.853 156.129 180.853C156.129 180.853 134.801 173.824 133.118 182.821C132.931 183.814 132.937 184.705 133.095 185.504C133.095 185.504 126.734 184.05 123.682 180.256H104.95H95.0579C95.0579 180.256 90.1118 193.433 136.31 206.189C136.31 206.189 153.252 211.776 160.408 215.572C167.565 219.366 247.259 257.248 287.459 227.519C327.658 197.791 299.525 158.644 299.525 158.644H252.101Z" fill="#0065FC"/>
<path fill-rule="evenodd" clip-rule="evenodd" d="M95.7828 181.128C95.7375 181.8 95.8299 183.043 96.7219 184.729C98.9484 188.937 107.083 197.213 136.543 205.348C137.278 205.589 153.679 211.015 160.817 214.801C161.646 215.24 245.592 257.399 286.945 226.817C324.392 199.124 301.947 163.724 299.074 159.516H253.613C255.998 163.804 262.857 177.446 260.108 188.063C259.007 192.319 256.474 195.592 252.58 197.794C235.047 207.709 159.082 182.75 155.857 181.682C155.716 181.635 141.439 176.992 135.904 180.273C134.829 180.908 134.198 181.795 133.977 182.982C133.82 183.814 133.81 184.598 133.946 185.307L133.951 185.335C135.066 190.993 145.324 191.499 145.5 191.508H145.502L153.54 192.213C154.019 192.255 154.375 192.679 154.333 193.159C154.293 193.613 153.911 193.955 153.465 193.955C153.439 193.955 153.415 193.955 153.388 193.951L145.39 193.248C144.963 193.232 134.221 192.726 132.372 186.219C130.782 185.785 126.041 184.277 123.28 181.128H105.482C105.476 181.202 105.48 181.292 105.503 181.404C105.658 182.153 106.771 184.263 113.754 187.696C124.924 193.188 138.843 197.405 138.982 197.447C139.442 197.587 139.704 198.072 139.566 198.534C139.453 198.911 139.106 199.156 138.731 199.156C138.648 199.156 138.564 199.143 138.48 199.119C138.339 199.077 124.285 194.817 112.987 189.263C107.173 186.404 104.07 183.813 103.762 181.559C103.741 181.406 103.734 181.263 103.738 181.128H95.7828ZM104.915 179.383H95.0598C94.6974 179.383 94.3734 179.608 94.2445 179.949C94.1626 180.17 93.4796 182.202 95.0912 185.368C97.8822 190.858 107.259 199.072 136.04 207.018C136.209 207.074 152.995 212.626 160.004 216.344C160.617 216.668 206.355 239.633 247.366 239.633C262.344 239.633 276.69 236.57 287.978 228.222C328.402 198.327 300.522 158.532 300.236 158.134C300.072 157.905 299.809 157.771 299.529 157.771H252.103C251.788 157.771 251.498 157.942 251.343 158.218C251.19 158.493 251.195 158.83 251.361 159.099C251.488 159.31 261.467 175.858 258.422 187.624C257.444 191.405 255.19 194.314 251.725 196.274C234.859 205.812 157.186 180.284 156.402 180.024C155.786 179.819 141.231 175.09 135.017 178.769C133.507 179.664 132.58 180.973 132.264 182.659C132.158 183.23 132.106 183.783 132.109 184.321C130.196 183.72 126.426 182.273 124.364 179.709C124.198 179.502 123.949 179.383 123.684 179.383H104.99C104.964 179.381 104.94 179.381 104.915 179.383Z" fill="black"/>
<path fill-rule="evenodd" clip-rule="evenodd" d="M34.852 92.8611L21.0522 66.4353H168.758L154.958 92.8611H154.956V180.853H34.8516V92.8611H34.852Z" fill="#FCBD21"/>
<path fill-rule="evenodd" clip-rule="evenodd" d="M64.0388 180.256H125.774V167.641H64.0388V180.256Z" fill="#EFF2F7"/>
<path fill-rule="evenodd" clip-rule="evenodd" d="M45.1862 91.9884H35.3795L22.4909 67.3079H54.0391V91.9884H47.6528L30.8922 75.2002C30.5524 74.8599 30.0002 74.8599 29.6604 75.2002C29.3207 75.5423 29.3207 76.0938 29.6604 76.4341L45.1862 91.9884ZM46.9287 93.7337H35.7231V98.8771H47.1503C47.6311 98.8771 48.0214 99.268 48.0214 99.7497C48.0214 100.231 47.6311 100.622 47.1503 100.622H35.7231V179.98H63.1661V167.641C63.1661 167.159 63.5564 166.768 64.0372 166.768H125.773C126.254 166.768 126.644 167.159 126.644 167.641V179.98H154.085V93.7337H49.3918C49.6862 94.0775 49.6714 94.5958 49.3472 94.9222C49.1765 95.0915 48.9535 95.177 48.7305 95.177C48.5075 95.177 48.2845 95.0915 48.1137 94.9222L46.9287 93.7337ZM21.0519 65.5631H54.9102H168.756C169.061 65.5631 169.343 65.7219 169.502 65.9832C169.659 66.245 169.669 66.5696 169.528 66.8402L155.827 93.0792V180.853C155.827 181.336 155.439 181.725 154.956 181.725H34.852C34.3711 181.725 33.9809 181.336 33.9809 180.853V100.622H21.0522C20.5714 100.622 20.1812 100.231 20.1812 99.7497C20.1812 99.268 20.5714 98.8771 21.0522 98.8771H33.9809V93.0774L20.2801 66.8402C20.139 66.5696 20.1494 66.245 20.308 65.9832C20.4648 65.7219 20.7488 65.5631 21.0519 65.5631ZM167.317 67.3079L154.43 91.9884H55.7813V67.3079H167.317ZM124.902 179.383H64.9083V168.513H124.902V179.383Z" fill="black"/>
<path fill-rule="evenodd" clip-rule="evenodd" d="M40.7788 84.864C40.0593 80.6037 35.3135 78.3086 31.5852 80.4815C24.4022 84.665 10.6807 96.1055 10.6807 113.421C10.6807 140.875 22.8133 157.088 35.8972 157.088C43.1639 157.088 47.5995 156.38 50.2076 155.68C52.1971 155.146 53.5543 153.31 53.5543 151.249C53.5543 149.105 52.0856 147.247 50.002 146.767C45.319 145.686 34.0574 146.034 34.6428 140.69L53.1432 141.634C56.462 141.822 59.2548 139.178 59.2548 135.848C59.2548 132.851 56.9742 130.349 53.9951 130.075L35.2874 128.53L59.0109 126.132C61.8698 125.818 64.0371 123.399 64.0371 120.515C64.0371 117.555 61.7548 115.096 58.807 114.882L34.4599 113.236L54.124 112.091C57.0091 111.906 59.2548 109.51 59.2548 106.612C59.2548 103.635 56.8854 101.2 53.9132 101.125L30.195 100.523C30.195 100.523 33.5522 94.5697 38 91.6183C40.1063 90.2221 41.2718 87.7839 40.852 85.2916L40.7788 84.864Z" fill="#0065FC"/>
<path fill-rule="evenodd" clip-rule="evenodd" d="M34.6445 80.5199C33.7386 80.5199 32.8414 80.7591 32.0225 81.2373C22.5781 86.7385 11.5518 98.4687 11.5518 113.423C11.5518 134.167 20.0833 156.218 35.8972 156.218C43.2928 156.218 47.6396 155.467 49.9828 154.839C51.5717 154.411 52.6832 152.936 52.6832 151.249C52.6832 149.502 51.5003 148.008 49.8069 147.618C48.7424 147.372 47.2632 147.196 45.6988 147.011C40.1464 146.351 33.2369 145.533 33.7769 140.595C33.8275 140.136 34.2473 139.812 34.6881 139.82L53.1867 140.765C54.5578 140.843 55.8523 140.367 56.8453 139.428C57.8384 138.489 58.3837 137.216 58.3837 135.85C58.3837 133.286 56.4638 131.178 53.9167 130.945L35.216 129.401C34.7665 129.364 34.4198 128.991 34.4163 128.539C34.4111 128.088 34.7508 127.708 35.1986 127.663L58.922 125.264C61.3384 124.999 63.166 122.959 63.166 120.517C63.166 118.027 61.2234 115.934 58.7443 115.753L34.4006 114.108C33.9407 114.077 33.5853 113.695 33.5888 113.234C33.5905 112.773 33.9494 112.393 34.4093 112.367L54.0735 111.222C56.4882 111.066 58.3837 109.042 58.3837 106.614C58.3837 104.089 56.4115 102.062 53.8923 101.999L30.1723 101.397C29.8675 101.39 29.5869 101.221 29.4371 100.954C29.2856 100.689 29.2856 100.362 29.4354 100.095C29.5782 99.844 32.9494 93.9239 37.5192 90.8923C39.3729 89.6636 40.3433 87.5221 39.9931 85.4382L39.9199 85.0106C39.6255 83.2688 38.4965 81.7818 36.8955 81.0296C36.1707 80.6892 35.4041 80.5199 34.6445 80.5199ZM35.8972 157.963C22.9318 157.963 9.80957 142.664 9.80957 113.423C9.80957 93.1839 27.5834 81.8045 31.1462 79.7276C33.155 78.5565 35.5174 78.4552 37.6359 79.4501C39.7527 80.4431 41.2492 82.4136 41.6377 84.7192L41.7091 85.1468C42.176 87.9113 40.9095 90.737 38.4809 92.3479C35.4756 94.3411 32.9529 97.8265 31.7351 99.6904L53.9359 100.254C57.4063 100.341 60.1259 103.136 60.1259 106.614C60.1259 109.962 57.5143 112.749 54.1798 112.964L48.3573 113.302L58.8663 114.012C62.2566 114.26 64.9082 117.117 64.9082 120.517C64.9082 123.851 62.4134 126.638 59.1049 127.001L44.8294 128.443L54.0665 129.207C57.5248 129.523 60.1259 132.378 60.1259 135.85C60.1259 137.702 59.3854 139.424 58.0422 140.697C56.6972 141.969 54.9428 142.616 53.0944 142.506L35.5662 141.613C36.2421 144.131 41.5558 144.761 45.9043 145.278C47.5159 145.468 49.0403 145.65 50.1988 145.917C52.6867 146.491 54.4254 148.685 54.4254 151.249C54.4254 153.724 52.7825 155.893 50.434 156.523C46.8782 157.479 41.9879 157.963 35.8972 157.963Z" fill="black"/>
</svg>
