<svg width="233" height="288" viewBox="0 0 233 288" fill="none" xmlns="http://www.w3.org/2000/svg">
<path fill-rule="evenodd" clip-rule="evenodd" d="M183.355 189.834V128.298C183.355 126.144 181.608 124.397 179.454 124.397H99.559C97.405 124.397 95.658 126.144 95.658 128.298V189.834H91.365C91.365 195.133 95.661 199.428 100.959 199.428H111.89V285.415C111.89 286.554 112.813 287.477 113.953 287.477H119.193C120.332 287.477 121.256 286.554 121.256 285.415V199.428H157.757V285.415C157.757 286.554 158.681 287.477 159.82 287.477H165.061C166.2 287.477 167.123 286.554 167.123 285.415V199.428H178.054C183.353 199.428 187.648 195.133 187.648 189.834H183.355Z" fill="#5D2E00"/>
<path fill-rule="evenodd" clip-rule="evenodd" d="M121.256 198.92H157.757C158.038 198.92 158.266 199.148 158.266 199.428V285.415C158.266 286.272 158.963 286.969 159.82 286.969H165.061C165.918 286.969 166.615 286.272 166.615 285.415V199.428C166.615 199.148 166.842 198.92 167.123 198.92H178.054C182.893 198.92 186.861 195.117 187.126 190.342H183.355C183.074 190.342 182.847 190.115 182.847 189.834V128.298C182.847 126.427 181.325 124.905 179.454 124.905H99.5589C97.6889 124.905 96.1669 126.427 96.1669 128.298V189.834C96.1669 190.115 95.9389 190.342 95.6579 190.342H91.8879C92.1519 195.117 96.1199 198.92 100.96 198.92H111.89C112.171 198.92 112.399 199.148 112.399 199.428V285.415C112.399 286.272 113.096 286.969 113.953 286.969H119.193C120.05 286.969 120.748 286.272 120.748 285.415V199.428C120.748 199.148 120.975 198.92 121.256 198.92ZM165.061 287.985H159.82C158.402 287.985 157.249 286.832 157.249 285.415V199.937H121.764V285.415C121.764 286.832 120.611 287.985 119.193 287.985H113.953C112.535 287.985 111.382 286.832 111.382 285.415V199.937H100.96C95.3889 199.937 90.8569 195.405 90.8569 189.834C90.8569 189.553 91.0849 189.326 91.3649 189.326H95.1499V128.298C95.1499 125.867 97.1279 123.889 99.5589 123.889H179.454C181.885 123.889 183.863 125.867 183.863 128.298V189.326H187.648C187.929 189.326 188.156 189.553 188.156 189.834C188.156 195.405 183.625 199.937 178.054 199.937H167.631V285.415C167.631 286.832 166.478 287.985 165.061 287.985Z" fill="black"/>
<path fill-rule="evenodd" clip-rule="evenodd" d="M187.648 190.342H96.6579C96.3769 190.342 96.1499 190.114 96.1499 189.834C96.1499 189.553 96.3769 189.325 96.6579 189.325H187.648C187.929 189.325 188.156 189.553 188.156 189.834C188.156 190.114 187.929 190.342 187.648 190.342Z" fill="black"/>
<path fill-rule="evenodd" clip-rule="evenodd" d="M171.58 199.936H107.433C107.152 199.936 106.925 199.708 106.925 199.428C106.925 199.147 107.152 198.919 107.433 198.919H171.58C171.861 198.919 172.088 199.147 172.088 199.428C172.088 199.708 171.861 199.936 171.58 199.936Z" fill="black"/>
<path fill-rule="evenodd" clip-rule="evenodd" d="M91.919 268.035H33.7795L33.6255 268.174C30.8795 270.644 27.4955 272.294 23.8575 272.933L19.7895 273.648L16.7635 274.18C9.78149 275.407 3.99149 280.283 1.59449 286.954L1.40649 287.477H94.446L91.919 268.035Z" fill="#4B69FD"/>
<path fill-rule="evenodd" clip-rule="evenodd" d="M2.11843 286.977H93.876L91.479 268.535L33.9604 268.545C31.1414 271.082 27.6774 272.769 23.9434 273.426L16.8504 274.673C10.1124 275.856 4.48143 280.565 2.11843 286.977ZM94.445 287.977H1.40643C1.24343 287.977 1.09143 287.898 0.99743 287.765C0.90443 287.631 0.881429 287.461 0.936429 287.308L1.12443 286.786C3.57643 279.961 9.53543 274.943 16.6774 273.687L23.7704 272.44C27.3194 271.817 30.6114 270.213 33.2904 267.802L33.4444 267.664C33.5364 267.581 33.6554 267.535 33.7794 267.535H91.918C92.17 267.535 92.381 267.722 92.414 267.971L94.941 287.413C94.96 287.555 94.916 287.699 94.821 287.807C94.726 287.915 94.589 287.977 94.445 287.977Z" fill="black"/>
<path fill-rule="evenodd" clip-rule="evenodd" d="M83.671 235.884C84.387 224.997 75.7489 215.297 64.3429 215.297C64.3129 215.297 64.2839 215.3 64.2539 215.3C64.2249 215.3 64.1969 215.297 64.1689 215.297C61.6509 215.297 59.2669 215.805 57.0979 216.713C51.8099 218.849 47.5949 223.261 45.8399 228.951L33.7795 268.035H91.9189L83.671 235.884Z" fill="#0065FC"/>
<path fill-rule="evenodd" clip-rule="evenodd" d="M34.4569 267.535H91.274L83.186 236.008C83.173 235.957 83.168 235.904 83.172 235.851C83.511 230.698 81.661 225.557 78.095 221.75C74.5 217.911 69.616 215.797 64.343 215.797L64.181 215.798H64.175C61.784 215.798 59.472 216.261 57.29 217.174C51.993 219.314 47.996 223.66 46.317 229.098L34.4569 267.535ZM91.919 268.535H33.7799C33.6209 268.535 33.4709 268.46 33.3769 268.332C33.2829 268.204 33.2549 268.039 33.3019 267.888L45.362 228.804C47.129 223.077 51.338 218.5 56.91 216.249C59.211 215.286 61.655 214.797 64.168 214.797L64.298 215.299L64.269 214.799H64.279C69.902 214.799 75.041 217.025 78.825 221.066C82.56 225.056 84.508 230.435 84.175 235.837L92.403 267.911C92.442 268.06 92.409 268.22 92.314 268.342C92.219 268.464 92.073 268.535 91.919 268.535Z" fill="black"/>
<path fill-rule="evenodd" clip-rule="evenodd" d="M70.064 276.099C70.064 277.647 68.809 278.902 67.261 278.902C65.713 278.902 64.459 277.647 64.459 276.099C64.459 274.551 65.713 273.296 67.261 273.296C68.809 273.296 70.064 274.551 70.064 276.099Z" fill="#EFF2F7"/>
<path fill-rule="evenodd" clip-rule="evenodd" d="M67.262 273.796C65.992 273.796 64.959 274.829 64.959 276.099C64.959 277.368 65.992 278.401 67.262 278.401C68.532 278.401 69.565 277.368 69.565 276.099C69.565 274.829 68.532 273.796 67.262 273.796ZM67.262 279.401C65.441 279.401 63.959 277.92 63.959 276.099C63.959 274.277 65.441 272.796 67.262 272.796C69.083 272.796 70.565 274.277 70.565 276.099C70.565 277.92 69.083 279.401 67.262 279.401Z" fill="black"/>
<path fill-rule="evenodd" clip-rule="evenodd" d="M89.179 276.099C89.179 277.647 87.924 278.902 86.376 278.902C84.828 278.902 83.574 277.647 83.574 276.099C83.574 274.551 84.828 273.296 86.376 273.296C87.924 273.296 89.179 274.551 89.179 276.099Z" fill="#EFF2F7"/>
<path fill-rule="evenodd" clip-rule="evenodd" d="M86.376 273.796C85.106 273.796 84.073 274.829 84.073 276.099C84.073 277.368 85.106 278.401 86.376 278.401C87.646 278.401 88.679 277.368 88.679 276.099C88.679 274.829 87.646 273.796 86.376 273.796ZM86.376 279.401C84.555 279.401 83.073 277.92 83.073 276.099C83.073 274.277 84.555 272.796 86.376 272.796C88.197 272.796 89.679 274.277 89.679 276.099C89.679 277.92 88.197 279.401 86.376 279.401Z" fill="black"/>
<path fill-rule="evenodd" clip-rule="evenodd" d="M75.7329 287.977C75.4569 287.977 75.2329 287.753 75.2329 287.477V268.535H33.7795C33.5035 268.535 33.2795 268.311 33.2795 268.035C33.2795 267.759 33.5035 267.535 33.7795 267.535H75.7329C76.0089 267.535 76.2329 267.759 76.2329 268.035V287.477C76.2329 287.753 76.0089 287.977 75.7329 287.977Z" fill="black"/>
<path fill-rule="evenodd" clip-rule="evenodd" d="M75.7331 268.535C75.6911 268.535 75.6501 268.53 75.6081 268.519C75.3401 268.45 75.1791 268.178 75.2481 267.91L82.6081 239.371C82.6781 239.104 82.9511 238.944 83.2181 239.012C83.4851 239.081 83.6461 239.354 83.5771 239.621L76.2171 268.16C76.1581 268.386 75.9561 268.535 75.7331 268.535Z" fill="black"/>
<path fill-rule="evenodd" clip-rule="evenodd" d="M103.341 190.775L147.395 190.292H150.332C172.859 190.292 190.257 170.498 187.367 148.157L181.66 119.5H102.697L101.489 139.795L65.274 147.799C49.791 151.222 39.2136 165.551 40.5056 181.356L43.4256 217.077L29.9456 261.518L81.574 266.007L83.512 259.947H92.124L88.533 245.805L103.341 190.775Z" fill="#409B81"/>
<path fill-rule="evenodd" clip-rule="evenodd" d="M30.6032 261.073L81.219 265.474L83.036 259.794C83.102 259.587 83.295 259.447 83.512 259.447H91.481L88.048 245.928C88.027 245.845 88.028 245.758 88.05 245.675L102.858 190.645C102.916 190.428 103.111 190.277 103.335 190.275L147.389 189.791H150.332C160.925 189.791 171.011 185.228 178.005 177.272C184.998 169.315 188.23 158.727 186.87 148.221L181.22 120H103.168L101.988 139.824C101.974 140.048 101.815 140.235 101.596 140.283L65.382 148.287C50.219 151.639 39.7392 165.838 41.0042 181.315L43.9242 217.036C43.9292 217.099 43.9222 217.162 43.9042 217.222L30.6032 261.073ZM81.53 266.505L29.9022 262.016C29.7522 262.003 29.6162 261.923 29.5312 261.798C29.4472 261.673 29.4232 261.517 29.4672 261.373L42.9192 217.023L40.0072 181.396C38.7022 165.423 49.518 150.77 65.166 147.311L101.012 139.388L102.197 119.47C102.213 119.206 102.432 119 102.697 119H181.659C181.911 119 182.123 119.186 182.155 119.436L187.863 148.093C189.258 158.884 185.939 169.76 178.756 177.932C171.572 186.104 161.213 190.791 150.332 190.791H147.394L103.725 191.27L89.049 245.809L92.609 259.823C92.646 259.973 92.613 260.132 92.518 260.254C92.424 260.375 92.278 260.447 92.124 260.447H83.877L82.05 266.159C81.984 266.368 81.79 266.507 81.574 266.507C81.56 266.507 81.545 266.507 81.53 266.505Z" fill="black"/>
<path fill-rule="evenodd" clip-rule="evenodd" d="M43.4251 217.577C43.3711 217.577 43.3151 217.568 43.2601 217.549C43.0001 217.458 42.8621 217.173 42.9531 216.912L58.575 172.065C61.782 162.86 69.369 156.066 78.872 153.891L132.583 141.598C132.849 141.535 133.121 141.704 133.182 141.974C133.244 142.244 133.076 142.512 132.806 142.573L79.094 154.866C69.93 156.963 62.612 163.516 59.52 172.394L43.8971 217.242C43.8251 217.448 43.6321 217.577 43.4251 217.577Z" fill="black"/>
<path fill-rule="evenodd" clip-rule="evenodd" d="M94.1141 141.925C93.8861 141.925 93.6801 141.768 93.6271 141.537C93.5651 141.268 93.7331 141 94.0031 140.938L104.098 138.616C104.369 138.555 104.636 138.722 104.697 138.991C104.76 139.26 104.592 139.529 104.322 139.591L94.2271 141.912C94.1891 141.921 94.1511 141.925 94.1141 141.925Z" fill="black"/>
<path fill-rule="evenodd" clip-rule="evenodd" d="M81.5741 266.508C81.5241 266.508 81.472 266.501 81.422 266.484C81.158 266.4 81.013 266.119 81.098 265.856L90.702 235.821C90.786 235.558 91.066 235.411 91.331 235.497C91.594 235.581 91.739 235.862 91.655 236.126L82.0501 266.16C81.9821 266.373 81.7861 266.508 81.5741 266.508Z" fill="black"/>
<path fill-rule="evenodd" clip-rule="evenodd" d="M101.012 199.927C100.969 199.927 100.926 199.922 100.882 199.91C100.616 199.839 100.457 199.565 100.529 199.298L105.664 180.11C105.736 179.844 106.011 179.686 106.277 179.756C106.543 179.827 106.701 180.101 106.63 180.368L101.494 199.556C101.435 199.78 101.233 199.927 101.012 199.927Z" fill="black"/>
<path fill-rule="evenodd" clip-rule="evenodd" d="M1.59449 286.954L1.40649 287.476H20.9725C21.2925 286.076 21.5065 284.569 21.5065 283.001C21.5065 276.153 19.7895 273.647 19.7895 273.647L16.7635 274.18C9.78149 275.407 3.99149 280.282 1.59449 286.954Z" fill="#EFF2F7"/>
<path fill-rule="evenodd" clip-rule="evenodd" d="M2.11892 286.976H20.5709C20.8599 285.601 21.0069 284.266 21.0069 283.001C21.0069 277.648 19.9309 275.005 19.5269 274.201L16.8509 274.672C10.1129 275.856 4.48192 280.564 2.11892 286.976ZM20.9729 287.976H1.40692C1.24392 287.976 1.09192 287.897 0.997918 287.764C0.904918 287.631 0.881917 287.46 0.936917 287.308L1.12492 286.785C3.57592 279.961 9.53591 274.942 16.6779 273.687L19.7029 273.155C19.8969 273.122 20.0909 273.204 20.2019 273.365C20.2759 273.472 22.0069 276.078 22.0069 283.001C22.0069 284.459 21.8229 286.002 21.4599 287.588C21.4079 287.815 21.2059 287.976 20.9729 287.976Z" fill="black"/>
<path fill-rule="evenodd" clip-rule="evenodd" d="M82.775 262.752C82.76 262.752 82.744 262.752 82.729 262.75L31.1264 257.972C30.8514 257.946 30.6484 257.703 30.6744 257.428C30.6994 257.153 30.9414 256.946 31.2184 256.976L82.82 261.754C83.096 261.78 83.298 262.023 83.273 262.298C83.248 262.557 83.03 262.752 82.775 262.752Z" fill="black"/>
<path fill-rule="evenodd" clip-rule="evenodd" d="M91.149 257.38H84.74C84.464 257.38 84.24 257.156 84.24 256.88C84.24 256.604 84.464 256.38 84.74 256.38H91.149C91.425 256.38 91.649 256.604 91.649 256.88C91.649 257.156 91.425 257.38 91.149 257.38Z" fill="black"/>
<path fill-rule="evenodd" clip-rule="evenodd" d="M3.54798 283.001C2.76298 284.23 2.09898 285.549 1.59398 286.954L1.40698 287.477H94.446V283.001H3.54798Z" fill="#EFF2F7"/>
<path fill-rule="evenodd" clip-rule="evenodd" d="M2.11838 286.977H93.946V283.501H3.82438C3.13038 284.62 2.55738 285.787 2.11838 286.977ZM94.446 287.977H1.40738C1.24438 287.977 1.09138 287.898 0.998383 287.765C0.904383 287.632 0.881383 287.461 0.936383 287.308L1.12338 286.786C1.62438 285.392 2.29838 284.028 3.12638 282.732C3.21838 282.588 3.37738 282.501 3.54838 282.501H94.446C94.722 282.501 94.946 282.725 94.946 283.001V287.477C94.946 287.753 94.722 287.977 94.446 287.977Z" fill="black"/>
<path fill-rule="evenodd" clip-rule="evenodd" d="M31.1726 270.052L34.9446 272.933L31.1726 270.052Z" fill="#EFF2F7"/>
<path fill-rule="evenodd" clip-rule="evenodd" d="M34.9441 273.433C34.8381 273.433 34.7311 273.4 34.6411 273.33L30.8691 270.45C30.6491 270.282 30.6071 269.968 30.7751 269.748C30.9431 269.53 31.2571 269.487 31.4761 269.655L35.2481 272.536C35.4671 272.703 35.5091 273.017 35.3421 273.237C35.2431 273.365 35.0941 273.433 34.9441 273.433Z" fill="black"/>
<path fill-rule="evenodd" clip-rule="evenodd" d="M27.0237 272.207L30.7957 275.088L27.0237 272.207Z" fill="#EFF2F7"/>
<path fill-rule="evenodd" clip-rule="evenodd" d="M30.7954 275.588C30.6894 275.588 30.5824 275.555 30.4924 275.485L26.7204 272.605C26.5014 272.437 26.4594 272.123 26.6264 271.903C26.7944 271.684 27.1074 271.641 27.3274 271.81L31.0994 274.691C31.3184 274.859 31.3604 275.172 31.1934 275.392C31.0944 275.52 30.9454 275.588 30.7954 275.588Z" fill="black"/>
<path fill-rule="evenodd" clip-rule="evenodd" d="M133.407 48.7364C133.407 48.7364 136.941 46.1593 136.313 35.5164C136.313 35.5164 141.902 38.4359 148 33.4995L149.407 48.6135C149.407 48.6135 145.179 53.9733 140.746 53.4535C136.313 52.9338 133.407 48.7364 133.407 48.7364Z" fill="#0065FC"/>
<path fill-rule="evenodd" clip-rule="evenodd" d="M136.526 34.6568C140.075 36.5889 143.78 35.9228 147.706 32.611C148.018 32.3481 148.458 32.5753 148.498 33.0194L149.904 48.7692C149.919 48.9294 149.875 49.0892 149.783 49.2103C146.866 53.0635 143.83 54.8313 140.693 54.448C137.599 54.07 135.03 52.349 133.011 49.3098C132.833 49.0428 132.889 48.6576 133.133 48.4728C135.292 46.832 136.222 42.4226 135.814 35.2186C135.789 34.7787 136.181 34.4692 136.526 34.6568ZM148.886 48.8472L147.59 34.4993L147.327 34.6983C143.784 37.3022 140.33 37.9139 137.004 36.5054L136.857 36.441L136.88 37.0362C137.079 43.1666 136.202 47.2313 134.182 49.2139L134.121 49.2706L134.258 49.4568C135.956 51.7134 138.019 53.0251 140.463 53.4087L140.798 53.4553C143.572 53.7902 146.311 52.2145 149.031 48.6631L148.886 48.8472Z" fill="black"/>
<path fill-rule="evenodd" clip-rule="evenodd" d="M140.616 36.4033C133.871 36.4033 128.402 30.6033 128.402 23.4493C128.402 16.2953 133.871 10.4954 140.616 10.4954C147.362 10.4954 152.831 16.2953 152.831 23.4493C152.831 30.6033 147.362 36.4033 140.616 36.4033Z" fill="#0065FC"/>
<path fill-rule="evenodd" clip-rule="evenodd" d="M128.897 23.4492C128.897 30.3192 134.154 35.9072 140.616 35.9072C147.078 35.9072 152.336 30.3192 152.336 23.4492C152.336 16.5792 147.078 10.9912 140.616 10.9912C134.154 10.9912 128.897 16.5792 128.897 23.4492ZM127.907 23.4492C127.907 16.0332 133.608 10.0002 140.616 10.0002C147.625 10.0002 153.326 16.0332 153.326 23.4492C153.326 30.8652 147.625 36.8982 140.616 36.8982C133.608 36.8982 127.907 30.8652 127.907 23.4492ZM137.133 27.6029L135.091 27.3549C134.949 27.3369 134.82 27.2589 134.738 27.1389C134.657 27.0199 134.632 26.8709 134.669 26.7309L135.287 24.3799C135.356 24.1129 135.633 23.9549 135.897 24.0229C136.165 24.0929 136.324 24.3669 136.254 24.6339L135.781 26.4309L137.255 26.6089C137.528 26.6429 137.723 26.8919 137.69 27.1659C137.66 27.4199 137.444 27.6059 137.195 27.6059C137.174 27.6059 137.154 27.6049 137.133 27.6029ZM139.244 23.1665C139.244 23.7695 139.552 24.2575 139.93 24.2575C140.309 24.2575 140.616 23.7695 140.616 23.1665C140.616 22.5635 140.309 22.0755 139.93 22.0755C139.552 22.0755 139.244 22.5635 139.244 23.1665ZM133.27 24.2575C132.891 24.2575 132.584 23.7695 132.584 23.1665C132.584 22.5635 132.891 22.0755 133.27 22.0755C133.649 22.0755 133.956 22.5635 133.956 23.1665C133.956 23.7695 133.649 24.2575 133.27 24.2575ZM139.259 19.8006C139.349 19.8024 140.394 19.8239 141.315 20.6153C141.41 20.6963 141.526 20.7363 141.641 20.7363C141.782 20.7363 141.921 20.6773 142.02 20.5623C142.201 20.3523 142.176 20.0363 141.967 19.8573C140.779 18.8369 139.444 18.8055 139.254 18.8011H139.254C139.242 18.8008 139.235 18.8006 139.232 18.8003C138.956 18.8073 138.74 19.0353 138.745 19.3103C138.75 19.5833 138.974 19.8003 139.246 19.8003H139.253C139.253 19.8004 139.253 19.8004 139.254 19.8005L139.259 19.8006ZM131.179 20.5623C130.998 20.3523 131.023 20.0363 131.232 19.8573C132.413 18.8446 133.745 18.8069 133.943 18.8013C133.957 18.801 133.965 18.8007 133.967 18.8003C134.244 18.8073 134.462 19.0363 134.455 19.3123C134.449 19.5873 134.209 19.8213 133.946 19.8003C133.963 19.7893 132.837 19.7973 131.884 20.6153C131.789 20.6963 131.673 20.7363 131.558 20.7363C131.417 20.7363 131.278 20.6773 131.179 20.5623ZM134.737 30.1423C134.583 30.3713 134.644 30.6823 134.873 30.8363C135.347 31.1553 136.205 31.5073 137.198 31.5073C138.02 31.5073 138.937 31.2653 139.806 30.5643C140.021 30.3903 140.054 30.0753 139.881 29.8613C139.707 29.6453 139.392 29.6123 139.177 29.7853C137.363 31.2523 135.509 30.0573 135.429 30.0053C135.202 29.8543 134.891 29.9133 134.737 30.1423Z" fill="black"/>
<path fill-rule="evenodd" clip-rule="evenodd" d="M231.067 164.291L225.5 154.55C221.544 147.629 218.816 140.058 217.638 132.176C213.833 106.724 205.79 83.148 197.182 69.864C194.104 65.112 190.714 61.142 187.342 57.853C179.192 49.903 165.483 55.046 164.647 66.4C164.305 71.038 166.449 75.4501 170.177 78.231C189.285 92.493 197.457 137.694 198.035 143.733C198.672 150.384 191.87 149.693 190.758 163.514C189.522 178.863 196.186 180.01 198.944 178.473C201.703 176.934 200.043 164.531 200.043 164.531C205.977 172.616 202.018 185.049 206.357 188.792C210.39 192.27 214.172 188.714 214.172 188.714C220.764 190.775 223.458 185.455 223.458 185.455C231.032 184.345 230.207 177.104 230.207 177.104C234.766 172.06 231.067 164.291 231.067 164.291ZM82.022 88.012C82.022 88.012 76.2699 52.922 81.7696 49.635C87.269 46.349 91.317 39.037 94.085 33.9628C96.853 28.8881 94.543 25.4041 89.709 25.3236C84.8754 25.2422 82.203 36.319 82.203 36.319C82.1477 34.063 82.2814 32.714 84.6774 25.3307C87.073 17.9483 85.6003 11.5695 80.9502 10.9601C76.3001 10.3508 75.8285 16.055 75.8285 16.055C75.8285 16.055 74.0419 8.44944 68.7694 9.68014C62.9187 11.0476 64.7808 18.4219 64.7808 18.4219C64.7808 18.4219 61.7323 13.2326 57.1908 16.6241C52.9328 19.8055 59.8341 33.6361 59.8341 33.6361C59.8341 33.6361 54.5877 23.6676 50.5951 27.0038C46.0405 30.8106 56.4819 40.469 59.8934 54.118C60.8093 57.778 59.0951 88.128 58.7321 94.362C58.7251 94.452 58.721 94.548 58.716 94.6391C58.6828 95.1861 58.6647 95.497 58.6647 95.497L58.6678 95.496C58.1097 106.434 59.9356 122.962 75.8285 124.246C99.732 126.177 108.175 79.853 108.175 79.853L94.885 57.036C94.885 57.036 82.8897 65.773 82.022 88.012Z" fill="#0065FC"/>
<path fill-rule="evenodd" clip-rule="evenodd" d="M222.904 161.987C226.966 169.574 228.916 173.577 229.708 177.182C229.751 177.582 230.244 183.582 223.923 184.845C224.67 181.612 224.128 175.443 218.862 163.719C218.749 163.465 218.452 163.35 218.197 163.467C217.945 163.58 217.831 163.878 217.945 164.131C224.083 177.798 223.521 183.446 222.638 185.596C222.537 185.844 222.428 186.045 222.319 186.224C222.054 186.544 221.71 186.898 221.277 187.243C221.241 187.266 221.205 187.288 221.176 187.319C219.868 188.321 217.808 189.137 214.843 188.369C215.389 186.62 216.35 180.668 211.7 165.818C211.617 165.553 211.336 165.404 211.07 165.488C210.805 165.571 210.657 165.854 210.741 166.118C215.884 182.541 214.015 187.811 213.759 188.409C213.251 188.853 210.096 191.354 206.685 188.411C204.827 186.809 204.61 183.289 204.358 179.213C204.056 174.307 203.711 168.753 200.507 164.322C200.511 161.819 201.289 160.737 201.311 160.708C201.481 160.49 201.444 160.176 201.227 160.004C201.01 159.83 200.693 159.868 200.522 160.084C200.449 160.175 198.784 162.346 199.858 167.656C199.859 167.663 199.863 167.667 199.864 167.673C200.212 172.087 200.134 177.233 198.699 178.033C197.795 178.537 196.204 178.78 194.699 177.814C193.069 176.766 190.456 173.522 191.257 163.554C191.871 155.93 194.213 152.855 196.096 150.384C197.564 148.457 198.832 146.793 198.535 143.685C197.928 137.342 189.535 92.052 170.477 77.829C166.815 75.095 164.823 70.836 165.147 66.437C165.518 61.398 168.68 57.157 173.398 55.37C178.142 53.572 183.35 54.661 186.989 58.213C190.676 61.808 193.963 65.82 196.76 70.137C205.655 83.866 213.464 107.666 217.14 132.25C218.307 140.055 220.972 147.64 225.062 154.799L230.612 164.507C230.645 164.578 233.743 171.247 230.445 175.98C229.508 172.507 227.54 168.514 223.79 161.511C223.659 161.267 223.355 161.172 223.11 161.306C222.864 161.437 222.773 161.741 222.904 161.987ZM231.502 164.042L225.935 154.3C221.907 147.251 219.282 139.781 218.135 132.1C214.44 107.383 206.572 83.431 197.604 69.591C194.766 65.212 191.431 61.141 187.692 57.494C183.769 53.666 178.155 52.492 173.042 54.429C167.954 56.356 164.545 60.929 164.145 66.362C163.795 71.107 165.938 75.695 169.876 78.634C188.643 92.642 196.932 137.497 197.534 143.781C197.794 146.496 196.746 147.871 195.296 149.774C193.437 152.213 190.892 155.555 190.255 163.474C189.454 173.438 191.934 177.232 194.155 178.66C196.035 179.868 198.041 179.552 199.188 178.911C201.488 177.63 201.142 170.461 200.787 166.679C202.818 170.558 203.101 175.152 203.355 179.274C203.62 183.578 203.85 187.294 206.027 189.173C207.453 190.403 208.857 190.816 210.099 190.816C212.117 190.816 213.711 189.726 214.285 189.274C217.755 190.275 220.19 189.302 221.744 188.118C221.925 188.048 222.604 187.721 223.209 186.699C223.47 186.377 223.658 186.097 223.77 185.914C230.708 184.758 230.782 178.564 230.721 177.28C235.234 172.05 231.675 164.401 231.502 164.042ZM74.2118 34.311C69.7004 31.8876 64.7898 36.532 64.5827 36.732C64.3676 36.939 64.3605 37.282 64.5676 37.497C64.6742 37.609 64.816 37.664 64.9588 37.664C65.0935 37.664 65.2282 37.615 65.3338 37.513C65.379 37.471 69.8844 33.2259 73.7 35.266C73.9634 35.408 74.2922 35.308 74.434 35.045C74.5747 34.78 74.4762 34.453 74.2118 34.311ZM77.2552 123.762C76.8008 123.762 76.3373 123.744 75.8718 123.706C67.6473 123.043 58.0796 117.613 59.2077 95.523C59.2087 95.507 59.2087 95.489 59.2077 95.473L59.271 94.393C59.7717 85.838 61.3312 57.638 60.4192 53.986C58.9071 47.939 56.0134 42.634 53.6878 38.373C50.8063 33.0902 48.724 29.2733 50.942 27.4202C51.5171 26.9386 52.1324 26.7717 52.8252 26.9084C55.9712 27.5298 59.3203 33.8242 59.3535 33.8886C59.3535 33.8896 59.3545 33.8896 59.3555 33.8906L60.8546 36.688C60.9521 36.869 61.1391 36.973 61.3332 36.973C61.4196 36.973 61.5071 36.952 61.5885 36.908C61.852 36.767 61.9515 36.439 61.8097 36.175L60.3106 33.3788C60.3106 33.3788 60.3106 33.3788 60.3106 33.3778C58.4435 29.6313 54.3233 19.4426 57.5145 17.0576C58.6758 16.1909 59.822 15.8621 60.928 16.0833C62.8634 16.4704 64.1243 18.3949 64.2821 18.6473C64.5616 19.6176 67.6594 30.3754 67.956 31.9661C68.0042 32.2275 68.2325 32.4095 68.4878 32.4095C68.521 32.4095 68.5542 32.4065 68.5884 32.4004C68.883 32.3451 69.076 32.0616 69.0217 31.768C68.703 30.0616 65.4534 18.7991 65.3026 18.2762C65.2654 18.1244 64.446 14.6514 65.8988 12.2654C66.5383 11.2147 67.5447 10.5229 68.892 10.2082C73.4577 9.1433 75.1438 15.5443 75.2886 16.1295C75.3147 17.0415 75.6596 28.7475 75.5651 31.1938C75.553 31.4925 75.7863 31.7448 76.0859 31.7549C76.0929 31.7559 76.1 31.7559 76.107 31.7559C76.3966 31.7559 76.6369 31.5277 76.6479 31.2351C76.7465 28.7012 76.3956 16.9007 76.3704 16.0752C76.3956 15.8329 76.6851 13.3785 78.2064 12.1528C78.9192 11.5786 79.8211 11.3605 80.8788 11.4972C82.215 11.6732 83.2788 12.374 84.0419 13.5816C85.6456 16.1225 85.6898 20.4511 84.1606 25.1639C81.9396 32.0073 81.6339 33.7397 81.654 35.897C80.5772 36.212 77.8856 37.34 76.2357 40.987C76.1121 41.26 76.2337 41.581 76.5062 41.704C76.5786 41.736 76.654 41.753 76.7284 41.753C76.9355 41.753 77.1326 41.634 77.2231 41.433C79.0238 37.453 82.1527 36.877 82.2904 36.854C82.2995 36.852 82.3075 36.846 82.3166 36.844C82.3578 36.835 82.395 36.818 82.4332 36.799C82.4563 36.787 82.4805 36.781 82.5016 36.767C82.5418 36.74 82.575 36.705 82.6072 36.668C82.6192 36.655 82.6343 36.645 82.6444 36.63C82.6806 36.579 82.7067 36.522 82.7238 36.459C82.7248 36.454 82.7278 36.451 82.7288 36.447C83.4427 33.4934 86.072 25.8647 89.656 25.8647C89.67 25.8647 89.684 25.8657 89.699 25.8657C91.856 25.9009 93.466 26.646 94.233 27.9632C95.068 29.396 94.845 31.4341 93.609 33.7035C90.957 38.563 86.951 45.908 81.4911 49.17C76.2015 52.332 80.2856 80.482 81.3202 87.06C81.3624 87.627 81.9999 96.399 81.9999 101.836C81.9999 102.135 82.2422 102.378 82.5418 102.378C82.8414 102.378 83.0837 102.135 83.0837 101.836C83.0837 97.485 82.6796 91.03 82.4915 88.269C82.5307 88.196 82.5599 88.119 82.5629 88.032C83.0043 76.696 86.418 68.992 89.203 64.524C91.51 60.825 93.78 58.673 94.733 57.856L107.604 79.95C106.981 83.139 98.599 123.762 77.2552 123.762ZM95.351 56.764C95.275 56.631 95.144 56.537 94.994 56.506C94.845 56.475 94.688 56.509 94.564 56.598C94.438 56.689 91.444 58.901 88.318 63.897C85.8577 67.826 82.9239 74.194 81.8501 83.241C80.2514 71.774 78.3693 52.299 82.0471 50.101C87.76 46.686 91.852 39.186 94.56 34.222C95.986 31.6081 96.203 29.1919 95.17 27.4172C94.205 25.7611 92.268 24.824 89.718 24.7818H89.655C86.96 24.7818 84.9347 27.7611 83.5995 30.676C83.9625 29.3729 84.4743 27.7088 85.1921 25.4977C86.819 20.4833 86.731 15.8118 84.9579 13.0034C84.0278 11.5304 82.6665 10.6385 81.0196 10.4233C79.6542 10.2454 78.4758 10.543 77.5227 11.3122C76.6037 12.0542 76.0568 13.109 75.735 14.031C74.617 11.3383 72.3085 8.2927 68.6457 9.1534C67.0048 9.5365 65.7691 10.3932 64.9738 11.7013C64.0147 13.2759 63.892 15.1854 63.9765 16.589C63.2847 15.9304 62.3285 15.2598 61.1482 15.0215C59.7285 14.7369 58.2877 15.128 56.866 16.1898C54.0146 18.3195 55.4916 24.2871 57.1355 28.7344C55.932 27.3549 54.4972 26.1352 53.0363 25.8456C52.0158 25.6425 51.0777 25.8929 50.2462 26.5887C47.3466 29.0119 49.6078 33.1556 52.7357 38.891C55.0321 43.1 57.8885 48.337 59.3675 54.25C60.0643 57.035 59.1675 77.582 58.1902 94.327L58.1228 95.465C58.1218 95.485 58.1218 95.505 58.1228 95.525C57.601 105.907 59.2157 123.449 75.7843 124.786C76.2719 124.825 76.7555 124.846 77.2381 124.846C86.665 124.846 95.014 117.328 101.459 102.996C106.525 91.727 108.686 80.067 108.707 79.95C108.73 79.824 108.707 79.692 108.643 79.58L95.351 56.764Z" fill="black"/>
<path fill-rule="evenodd" clip-rule="evenodd" d="M179.502 86.8241V82.0641L187.728 57.0361C177.995 50.3071 166.32 46.5581 154.156 46.5581H149.432C149.431 46.5611 149.429 46.5631 149.428 46.5661L149.387 46.5581C148.121 49.2251 144.985 51.1171 141.306 51.1251C137.627 51.1171 134.491 49.2251 133.225 46.5581L133.184 46.5661C133.183 46.5631 133.181 46.5611 133.18 46.5581H128.456C116.292 46.5581 104.617 50.3071 94.884 57.0361L103.11 82.0641V86.8241C103.11 95.6941 101.787 104.514 99.184 112.993L96.956 120.252H185.656L183.428 112.993C180.825 104.514 179.502 95.6941 179.502 86.8241Z" fill="#FCBD21"/>
<path fill-rule="evenodd" clip-rule="evenodd" d="M97.636 119.749H184.976L182.947 113.141C180.328 104.604 178.999 95.7499 178.999 86.8239V82.0639C178.999 82.0109 179.008 81.9569 179.024 81.9059L187.133 57.2369C177.372 50.5789 165.978 47.0609 154.156 47.0609H149.698C148.225 49.8379 144.971 51.6199 141.307 51.6279C137.641 51.6199 134.388 49.8379 132.915 47.0609H128.456C116.635 47.0609 105.239 50.5789 95.479 57.2369L103.587 81.9059C103.604 81.9569 103.613 82.0109 103.613 82.0639V86.8239C103.613 95.7519 102.284 104.605 99.665 113.141L97.636 119.749ZM185.656 120.754H96.956C96.797 120.754 96.647 120.679 96.551 120.55C96.457 120.423 96.429 120.257 96.475 120.105L98.704 112.846C101.294 104.406 102.607 95.6509 102.607 86.8239V82.1439L94.407 57.1929C94.337 56.9809 94.415 56.7499 94.599 56.6229C104.596 49.7089 116.303 46.0549 128.456 46.0549H133.179C133.237 46.0549 133.291 46.0649 133.343 46.0819C133.487 46.1199 133.617 46.2109 133.679 46.3419C134.91 48.9349 137.904 50.6149 141.307 50.6219C144.709 50.6149 147.703 48.9349 148.933 46.3419C149.021 46.1589 149.21 46.0659 149.407 46.0549H149.433H154.156C166.308 46.0549 178.017 49.7089 188.014 56.6229C188.198 56.7499 188.275 56.9809 188.206 57.1929L180.004 82.1439V86.8239C180.004 95.6499 181.318 104.405 183.909 112.846L186.137 120.105C186.184 120.257 186.156 120.423 186.06 120.55C185.966 120.679 185.816 120.754 185.656 120.754Z" fill="black"/>
<path fill-rule="evenodd" clip-rule="evenodd" d="M142.407 50.0002C141.579 50.0002 140.907 49.1053 140.907 48.0002C140.907 46.8951 141.579 46.0002 142.407 46.0002C143.235 46.0002 143.907 46.8951 143.907 48.0002C143.907 49.1053 143.235 50.0002 142.407 50.0002Z" fill="#FCBD21"/>
<path fill-rule="evenodd" clip-rule="evenodd" d="M142.538 49.1388C141.893 49.1388 141.368 48.6488 141.368 48.0468C141.368 47.4448 141.893 46.9548 142.538 46.9548C143.183 46.9548 143.708 47.4448 143.708 48.0468C143.708 48.6488 143.183 49.1388 142.538 49.1388ZM149.054 43.1708C143.131 48.7428 135.932 44.2648 135.629 44.0718C135.419 43.9378 135.132 43.9868 134.988 44.1838C134.843 44.3798 134.898 44.6478 135.107 44.7828C135.152 44.8108 137.673 46.3808 141.015 46.7178C140.664 47.0668 140.446 47.5318 140.446 48.0468C140.446 49.1238 141.384 49.9998 142.538 49.9998C143.692 49.9998 144.631 49.1238 144.631 48.0468C144.631 47.4968 144.384 47.0008 143.99 46.6458C145.877 46.3468 147.857 45.5188 149.708 43.7778C149.887 43.6088 149.886 43.3358 149.705 43.1688C149.525 43.0008 149.233 43.0018 149.054 43.1708Z" fill="black"/>
<path fill-rule="evenodd" clip-rule="evenodd" d="M151.493 30.8098C151.697 30.5018 151.89 30.1818 152.071 29.8478C151.89 30.1818 151.698 30.5018 151.493 30.8098ZM151.127 31.3088C151.035 31.4308 150.948 31.5588 150.852 31.6758C150.948 31.5588 151.035 31.4308 151.127 31.3088ZM150.151 32.4418C150.202 32.3908 150.25 32.3338 150.301 32.2808C150.25 32.3328 150.203 32.3908 150.151 32.4418ZM142.9 9.53476L143.549 9.76376C144.681 9.90476 145.672 10.1748 146.543 10.5458C147.995 11.1648 149.115 12.0628 149.999 13.1088C150.53 13.7368 150.976 14.4168 151.36 15.1218C150.976 14.4168 150.53 13.7368 149.999 13.1088C149.115 12.0628 147.995 11.1648 146.543 10.5458C145.672 10.1748 144.681 9.90476 143.549 9.76376L142.9 9.53476C142.9 9.53476 130.768 -7.10324 119.773 4.77576C108.779 16.6558 128.226 16.8758 128.226 16.8758L129.218 16.6348H141.702C142.91 16.6348 143.925 17.5398 144.062 18.7398L144.691 24.2488C145.338 24.1268 146.056 24.2048 146.918 25.2168C147.237 25.5908 147.464 26.0658 147.46 26.5578C147.451 27.8398 146.409 28.8758 145.125 28.8758C145.047 28.8758 144.974 28.8608 144.898 28.8528L145.156 34.5808C145.333 34.5808 145.499 34.5528 145.672 34.5388L145.653 34.5808L143.673 35.5249C145.094 44.6199 157.054 43.8258 157.054 43.8258C157.054 43.8258 172.219 38.6448 166.406 18.5508C160.593 -1.54224 142.901 9.53376 142.9 9.53476Z" fill="#040226"/>
<path fill-rule="evenodd" clip-rule="evenodd" d="M151.084 10.017C148.801 3.21203 143.008 9.62803 143.008 9.62803C143.008 9.62803 153.367 16.823 151.084 10.017ZM143.008 1.53703C136.32 4.14403 143.008 9.62103 143.008 9.62103C143.008 9.62103 149.696 -1.07097 143.008 1.53703Z" fill="#FCBD21"/>
<path fill-rule="evenodd" clip-rule="evenodd" d="M156.956 43.3304C155.94 43.3774 146.003 43.6294 144.474 35.7174L145.874 35.0294C145.875 35.0294 145.877 35.0284 145.879 35.0274C146.893 34.9284 147.854 34.6214 148.745 34.1184C148.752 34.1144 148.759 34.1104 148.767 34.1064C149.05 33.9454 149.327 33.7674 149.595 33.5674C149.623 33.5464 149.649 33.5244 149.676 33.5034C149.923 33.3144 150.165 33.1144 150.398 32.8924C150.456 32.8384 150.509 32.7784 150.565 32.7224C150.766 32.5214 150.964 32.3184 151.153 32.0934C151.257 31.9704 151.353 31.8324 151.454 31.7024C151.59 31.5234 151.729 31.3524 151.859 31.1614C152.088 30.8224 152.307 30.4644 152.511 30.0854C154.329 26.7144 154.625 22.5124 153.324 18.5564C152.729 16.7484 151.951 14.9194 150.787 13.3494C150.974 13.2964 151.144 13.2194 151.29 13.1094C152.021 12.5614 152.108 11.4974 151.559 9.85735C151.186 8.74835 150.695 7.91135 150.097 7.33135C152.424 6.87135 155.055 6.79435 157.547 7.74835C161.438 9.24035 164.257 12.9214 165.926 18.6904C171.402 37.6164 158.139 42.9014 156.956 43.3304ZM147.961 26.5614C147.965 25.9904 147.73 25.3984 147.299 24.8924C146.485 23.9364 145.73 23.7084 145.133 23.7054L144.56 18.6834C144.393 17.2304 143.165 16.1344 141.703 16.1344H129.218C129.178 16.1344 129.139 16.1394 129.1 16.1484L128.172 16.3744C127.361 16.3544 118.767 16.0554 117.161 12.3204C116.384 10.5154 117.387 8.09135 120.141 5.11635C122.831 2.20935 125.816 0.820354 129.021 1.01635C133.765 1.29135 138.017 4.91636 140.425 7.43135C141.327 8.87235 142.604 9.93635 142.692 10.0084C142.694 10.0104 142.697 10.0104 142.699 10.0124C142.708 10.0194 142.713 10.0314 142.724 10.0384C143.579 10.6324 147.144 13.0214 149.577 13.3804C150.521 14.4854 151.209 15.7944 151.765 17.1814C151.986 17.7344 152.187 18.2994 152.374 18.8684C153.59 22.5654 153.319 26.4804 151.631 29.6104C150.187 32.2884 148.058 33.8614 145.635 34.0404C145.634 34.0404 145.634 34.0414 145.633 34.0414L145.422 29.3604C146.837 29.2124 147.95 28.0134 147.961 26.5614ZM140.563 4.43835C140.723 3.43935 141.606 2.62035 143.19 2.00235C143.83 1.75335 144.36 1.62635 144.742 1.62635C145.014 1.62635 145.21 1.69035 145.317 1.81935C146.037 2.68735 144.385 6.33935 142.895 8.84635C142.053 8.04435 140.293 6.13836 140.563 4.43835ZM143.788 9.55135C144.63 8.74935 146.621 7.07835 148.303 7.43535C149.293 7.64235 150.07 8.56435 150.61 10.1764C150.984 11.2894 151.013 12.0674 150.69 12.3094C149.788 12.9864 146.22 11.1604 143.788 9.55135ZM166.887 18.4124C165.126 12.3264 162.104 8.42435 157.905 6.81435C154.797 5.62335 151.551 5.87935 148.851 6.55835C148.737 6.52035 148.624 6.48035 148.506 6.45535C147.217 6.18735 145.879 6.76335 144.805 7.46435C145.918 5.29735 147.086 2.38835 146.087 1.18235C145.505 0.478354 144.438 0.442353 142.827 1.07035C140.888 1.82635 139.794 2.90735 139.576 4.28335C139.529 4.58035 139.533 4.87635 139.565 5.17135C136.973 2.81135 133.252 0.261353 129.083 0.0173533C125.565 -0.182647 122.311 1.29935 119.407 4.43635C116.36 7.72835 115.295 10.5144 116.242 12.7164C118.176 17.2104 127.812 17.3714 128.221 17.3754C128.269 17.3724 128.305 17.3714 128.345 17.3614L129.278 17.1344H141.703C142.657 17.1344 143.458 17.8494 143.566 18.7964L144.195 24.3054C144.211 24.4434 144.283 24.5684 144.395 24.6514C144.508 24.7344 144.648 24.7674 144.785 24.7404C145.231 24.6554 145.772 24.6414 146.538 25.5404C146.813 25.8634 146.963 26.2234 146.961 26.5544C146.954 27.5594 146.13 28.3764 145.125 28.3764L144.947 28.3554C144.806 28.3424 144.66 28.3914 144.555 28.4914C144.45 28.5904 144.393 28.7314 144.399 28.8754L144.653 34.5154L143.696 34.9854C143.5 35.0814 143.389 35.2944 143.423 35.5114C144.72 43.8184 154.228 44.3354 156.567 44.3354C156.885 44.3354 157.07 44.3264 157.084 44.3254C157.129 44.3224 157.174 44.3134 157.216 44.2994C157.377 44.2444 161.181 42.9124 164.3 39.0374C167.17 35.4714 169.95 28.9984 166.887 18.4124Z" fill="black"/>
</svg>
