<svg width="656" height="756" viewBox="0 0 656 756" fill="none" xmlns="http://www.w3.org/2000/svg">
<g opacity="0.5">
<path fill-rule="evenodd" clip-rule="evenodd" d="M86.8409 588.289V480.642C86.8409 476.874 89.897 473.818 93.665 473.818H233.426C237.194 473.818 240.25 476.874 240.25 480.642V588.289H247.76C247.76 597.558 240.245 605.072 230.977 605.072H211.856V755.49C211.856 757.482 210.241 759.097 208.247 759.097H199.08C197.088 759.097 195.472 757.482 195.472 755.49V605.072H131.62V755.49C131.62 757.482 130.003 759.097 128.011 759.097H118.843C116.85 759.097 115.236 757.482 115.236 755.49V605.072H96.114C86.8444 605.072 79.3311 597.558 79.3311 588.289H86.8409Z" fill="#5D2E00"/>
<path fill-rule="evenodd" clip-rule="evenodd" d="M195.472 604.183H131.62C131.129 604.183 130.73 604.582 130.73 605.072V755.49C130.73 756.989 129.51 758.208 128.011 758.208H118.843C117.344 758.208 116.125 756.989 116.125 755.49V605.072C116.125 604.582 115.728 604.183 115.236 604.183H96.1143C87.6493 604.183 80.7081 597.53 80.2445 589.178H86.8412C87.3327 589.178 87.7298 588.78 87.7298 588.289V480.642C87.7298 477.369 90.3923 474.707 93.6652 474.707H233.427C236.698 474.707 239.36 477.369 239.36 480.642V588.289C239.36 588.78 239.759 589.178 240.251 589.178H246.846C246.384 597.53 239.443 604.183 230.976 604.183H211.856C211.364 604.183 210.965 604.582 210.965 605.072V755.49C210.965 756.989 209.746 758.208 208.247 758.208H199.081C197.581 758.208 196.36 756.989 196.36 755.49V605.072C196.36 604.582 195.963 604.183 195.472 604.183ZM118.843 759.986H128.011C130.492 759.986 132.509 757.969 132.509 755.49V605.962H194.583V755.49C194.583 757.969 196.6 759.986 199.081 759.986H208.247C210.728 759.986 212.744 757.969 212.744 755.49V605.962H230.976C240.721 605.962 248.649 598.034 248.649 588.289C248.649 587.797 248.25 587.4 247.761 587.4H241.139V480.642C241.139 476.39 237.679 472.93 233.427 472.93H93.6652C89.4127 472.93 85.9525 476.39 85.9525 480.642V587.4H79.3314C78.8398 587.4 78.4427 587.797 78.4427 588.289C78.4427 598.034 86.3688 605.962 96.1143 605.962H114.347V755.49C114.347 757.969 116.364 759.986 118.843 759.986Z" fill="black"/>
<path fill-rule="evenodd" clip-rule="evenodd" d="M79.3315 589.177H238.501C238.993 589.177 239.39 588.779 239.39 588.289C239.39 587.797 238.993 587.398 238.501 587.398H79.3315C78.8399 587.398 78.4428 587.797 78.4428 588.289C78.4428 588.779 78.8399 589.177 79.3315 589.177Z" fill="black"/>
<path fill-rule="evenodd" clip-rule="evenodd" d="M107.439 605.96H219.652C220.144 605.96 220.541 605.561 220.541 605.072C220.541 604.58 220.144 604.181 219.652 604.181H107.439C106.948 604.181 106.551 604.58 106.551 605.072C106.551 605.561 106.948 605.96 107.439 605.96Z" fill="black"/>
<path fill-rule="evenodd" clip-rule="evenodd" d="M246.791 725.087H348.495L348.765 725.33C353.568 729.651 359.488 732.537 365.852 733.655L372.968 734.906L378.262 735.836C390.475 737.983 400.604 746.512 404.797 758.182L405.126 759.097H242.371L246.791 725.087Z" fill="#4B69FD"/>
<path fill-rule="evenodd" clip-rule="evenodd" d="M403.881 758.222H243.368L247.561 725.962L348.179 725.979C353.11 730.417 359.17 733.368 365.702 734.517L378.11 736.699C389.897 738.768 399.747 747.006 403.881 758.222ZM242.372 759.972H405.126C405.411 759.972 405.677 759.833 405.842 759.601C406.004 759.366 406.044 759.069 405.948 758.801L405.619 757.888C401.33 745.949 390.906 737.171 378.412 734.974L366.004 732.793C359.796 731.703 354.037 728.897 349.351 724.679L349.082 724.438C348.921 724.293 348.712 724.212 348.496 724.212H246.793C246.352 724.212 245.983 724.539 245.925 724.975L241.505 758.985C241.472 759.233 241.548 759.485 241.715 759.674C241.881 759.863 242.121 759.972 242.372 759.972Z" fill="black"/>
<path fill-rule="evenodd" clip-rule="evenodd" d="M261.22 668.845C259.967 649.8 275.078 632.832 295.03 632.832C295.083 632.832 295.134 632.837 295.186 632.837C295.237 632.837 295.286 632.832 295.335 632.832C299.74 632.832 303.91 633.72 307.704 635.309C316.955 639.045 324.328 646.763 327.398 656.717L348.495 725.087H246.791L261.22 668.845Z" fill="#0065FC"/>
<path fill-rule="evenodd" clip-rule="evenodd" d="M347.311 724.212H247.92L262.068 669.062C262.091 668.972 262.1 668.88 262.093 668.787C261.5 659.773 264.736 650.78 270.974 644.12C277.263 637.404 285.806 633.706 295.03 633.706L295.314 633.708H295.324C299.507 633.708 303.551 634.518 307.368 636.115C316.634 639.859 323.626 647.461 326.563 656.974L347.311 724.212ZM246.791 725.962H348.495C348.773 725.962 349.035 725.83 349.2 725.606C349.364 725.383 349.413 725.094 349.331 724.83L328.234 656.46C325.143 646.441 317.78 638.435 308.033 634.497C304.008 632.812 299.733 631.957 295.336 631.957L295.109 632.835L295.16 631.96H295.142C285.306 631.96 276.316 635.854 269.697 642.923C263.163 649.903 259.755 659.313 260.338 668.763L245.945 724.87C245.876 725.131 245.934 725.411 246.1 725.624C246.266 725.837 246.522 725.962 246.791 725.962Z" fill="black"/>
<path fill-rule="evenodd" clip-rule="evenodd" d="M285.022 739.193C285.022 741.901 287.218 744.097 289.926 744.097C292.634 744.097 294.827 741.901 294.827 739.193C294.827 736.485 292.634 734.29 289.926 734.29C287.218 734.29 285.022 736.485 285.022 739.193Z" fill="#EFF2F7"/>
<path fill-rule="evenodd" clip-rule="evenodd" d="M289.924 735.165C292.146 735.165 293.953 736.972 293.953 739.193C293.953 741.413 292.146 743.22 289.924 743.22C287.703 743.22 285.896 741.413 285.896 739.193C285.896 736.972 287.703 735.165 289.924 735.165ZM289.924 744.97C293.11 744.97 295.702 742.379 295.702 739.193C295.702 736.006 293.11 733.415 289.924 733.415C286.739 733.415 284.146 736.006 284.146 739.193C284.146 742.379 286.739 744.97 289.924 744.97Z" fill="black"/>
<path fill-rule="evenodd" clip-rule="evenodd" d="M251.584 739.193C251.584 741.901 253.78 744.097 256.488 744.097C259.196 744.097 261.389 741.901 261.389 739.193C261.389 736.485 259.196 734.29 256.488 734.29C253.78 734.29 251.584 736.485 251.584 739.193Z" fill="#EFF2F7"/>
<path fill-rule="evenodd" clip-rule="evenodd" d="M256.488 735.165C258.709 735.165 260.516 736.972 260.516 739.193C260.516 741.413 258.709 743.22 256.488 743.22C254.266 743.22 252.459 741.413 252.459 739.193C252.459 736.972 254.266 735.165 256.488 735.165ZM256.488 744.97C259.673 744.97 262.266 742.379 262.266 739.193C262.266 736.006 259.673 733.415 256.488 733.415C253.302 733.415 250.71 736.006 250.71 739.193C250.71 742.379 253.302 744.97 256.488 744.97Z" fill="black"/>
<path fill-rule="evenodd" clip-rule="evenodd" d="M275.106 759.972C275.589 759.972 275.98 759.58 275.98 759.097V725.962H348.495C348.978 725.962 349.37 725.57 349.37 725.087C349.37 724.604 348.978 724.212 348.495 724.212H275.106C274.623 724.212 274.231 724.604 274.231 725.087V759.097C274.231 759.58 274.623 759.972 275.106 759.972Z" fill="black"/>
<path fill-rule="evenodd" clip-rule="evenodd" d="M275.105 725.962C275.179 725.962 275.251 725.953 275.324 725.934C275.793 725.813 276.074 725.337 275.954 724.868L263.079 674.945C262.956 674.477 262.479 674.198 262.012 674.317C261.545 674.437 261.263 674.915 261.384 675.382L274.259 725.306C274.362 725.701 274.715 725.962 275.105 725.962Z" fill="black"/>
<path fill-rule="evenodd" clip-rule="evenodd" d="M226.811 589.935L149.746 589.09H144.609C105.202 589.09 74.7672 554.464 79.8228 515.383L89.8061 465.253H227.937L230.05 500.755L293.402 514.756C320.486 520.744 338.99 545.81 336.729 573.458L331.621 635.945L355.202 713.687L264.888 721.539L261.498 710.938H246.433L252.714 686.2L226.811 589.935Z" fill="#409B81"/>
<path fill-rule="evenodd" clip-rule="evenodd" d="M354.052 712.908L265.509 720.607L262.33 710.671C262.215 710.309 261.877 710.064 261.498 710.064H247.557L253.563 686.415C253.6 686.27 253.598 686.117 253.559 685.972L227.656 589.707C227.554 589.328 227.213 589.064 226.821 589.06L149.757 588.214H144.609C126.078 588.214 108.435 580.231 96.1999 566.314C83.9669 552.395 78.3132 533.873 80.6922 515.495L90.5758 466.128H227.113L229.177 500.806C229.202 501.198 229.48 501.525 229.863 501.609L293.213 515.611C319.738 521.474 338.07 546.312 335.857 573.386L330.749 635.874C330.741 635.984 330.753 636.094 330.784 636.199L354.052 712.908ZM264.965 722.41L355.278 714.558C355.541 714.535 355.778 714.395 355.927 714.176C356.074 713.958 356.116 713.685 356.039 713.433L332.507 635.851L337.601 573.528C339.884 545.586 320.964 519.954 293.591 513.903L230.885 500.044L228.812 465.201C228.784 464.739 228.401 464.379 227.937 464.379H89.8079C89.3671 464.379 88.9962 464.704 88.9402 465.141L78.9552 515.271C76.5149 534.148 82.3208 553.173 94.8861 567.468C107.453 581.764 125.574 589.963 144.609 589.963H149.748L226.139 590.801L251.812 686.207L245.584 710.721C245.52 710.984 245.577 711.262 245.743 711.475C245.908 711.687 246.163 711.813 246.433 711.813H260.859L264.055 721.805C264.171 722.171 264.51 722.414 264.888 722.414C264.912 722.414 264.939 722.414 264.965 722.41Z" fill="black"/>
<path fill-rule="evenodd" clip-rule="evenodd" d="M331.622 636.82C331.717 636.82 331.815 636.804 331.911 636.771C332.366 636.612 332.607 636.113 332.448 635.657L305.12 557.205C299.51 541.103 286.238 529.218 269.615 525.413L175.657 503.909C175.192 503.799 174.716 504.095 174.609 504.567C174.501 505.039 174.795 505.508 175.267 505.615L269.226 527.119C285.257 530.787 298.058 542.25 303.467 557.781L330.797 636.234C330.923 636.594 331.26 636.82 331.622 636.82Z" fill="black"/>
<path fill-rule="evenodd" clip-rule="evenodd" d="M242.951 504.481C243.35 504.481 243.71 504.206 243.803 503.802C243.912 503.331 243.618 502.862 243.145 502.754L225.486 498.692C225.012 498.585 224.545 498.878 224.438 499.348C224.328 499.819 224.622 500.289 225.094 500.398L242.754 504.458C242.82 504.474 242.887 504.481 242.951 504.481Z" fill="black"/>
<path fill-rule="evenodd" clip-rule="evenodd" d="M264.888 722.416C264.975 722.416 265.066 722.403 265.154 722.374C265.615 722.227 265.869 721.735 265.72 721.275L248.92 668.734C248.773 668.274 248.283 668.017 247.82 668.168C247.36 668.315 247.106 668.806 247.253 669.268L264.055 721.807C264.174 722.179 264.517 722.416 264.888 722.416Z" fill="black"/>
<path fill-rule="evenodd" clip-rule="evenodd" d="M230.885 605.945C230.96 605.945 231.035 605.936 231.112 605.915C231.577 605.791 231.855 605.311 231.729 604.844L222.747 571.278C222.621 570.813 222.14 570.537 221.674 570.659C221.209 570.783 220.933 571.263 221.057 571.73L230.041 605.296C230.145 605.687 230.498 605.945 230.885 605.945Z" fill="black"/>
<path fill-rule="evenodd" clip-rule="evenodd" d="M404.797 758.182L405.126 759.095H370.899C370.339 756.646 369.965 754.01 369.965 751.267C369.965 739.288 372.968 734.904 372.968 734.904L378.262 735.836C390.475 737.983 400.604 746.511 404.797 758.182Z" fill="#EFF2F7"/>
<path fill-rule="evenodd" clip-rule="evenodd" d="M403.88 758.221H371.601C371.096 755.815 370.839 753.48 370.839 751.267C370.839 741.903 372.721 737.28 373.428 735.873L378.109 736.697C389.896 738.768 399.746 747.004 403.88 758.221ZM370.898 759.97H405.125C405.41 759.97 405.676 759.832 405.841 759.599C406.003 759.366 406.044 759.067 405.948 758.801L405.619 757.887C401.331 745.949 390.905 737.169 378.412 734.974L373.12 734.043C372.781 733.986 372.441 734.129 372.247 734.411C372.118 734.598 369.089 739.157 369.089 751.267C369.089 753.818 369.411 756.517 370.046 759.291C370.137 759.688 370.491 759.97 370.898 759.97Z" fill="black"/>
<path fill-rule="evenodd" clip-rule="evenodd" d="M262.787 715.845C262.813 715.845 262.841 715.845 262.867 715.842L353.137 707.484C353.618 707.438 353.973 707.013 353.927 706.532C353.883 706.051 353.46 705.689 352.976 705.741L262.708 714.099C262.225 714.145 261.872 714.57 261.916 715.051C261.96 715.504 262.341 715.845 262.787 715.845Z" fill="black"/>
<path fill-rule="evenodd" clip-rule="evenodd" d="M248.138 706.448H259.349C259.832 706.448 260.224 706.056 260.224 705.573C260.224 705.091 259.832 704.699 259.349 704.699H248.138C247.655 704.699 247.263 705.091 247.263 705.573C247.263 706.056 247.655 706.448 248.138 706.448Z" fill="black"/>
<path fill-rule="evenodd" clip-rule="evenodd" d="M401.38 751.267C402.753 753.417 403.914 755.724 404.798 758.182L405.125 759.097H242.371V751.267H401.38Z" fill="#EFF2F7"/>
<path fill-rule="evenodd" clip-rule="evenodd" d="M403.881 758.222H243.245V752.142H400.896C402.11 754.099 403.113 756.141 403.881 758.222ZM242.371 759.972H405.124C405.41 759.972 405.677 759.833 405.84 759.601C406.004 759.368 406.045 759.069 405.948 758.801L405.621 757.888C404.745 755.45 403.566 753.064 402.117 750.797C401.956 750.545 401.678 750.392 401.379 750.392H242.371C241.888 750.392 241.496 750.784 241.496 751.267V759.097C241.496 759.58 241.888 759.972 242.371 759.972Z" fill="black"/>
<path fill-rule="evenodd" clip-rule="evenodd" d="M353.056 728.615L346.457 733.655L353.056 728.615Z" fill="#EFF2F7"/>
<path fill-rule="evenodd" clip-rule="evenodd" d="M346.458 734.53C346.644 734.53 346.831 734.472 346.988 734.35L353.587 729.311C353.971 729.018 354.045 728.468 353.751 728.083C353.457 727.702 352.908 727.627 352.525 727.921L345.926 732.961C345.543 733.253 345.47 733.802 345.762 734.187C345.935 734.411 346.196 734.53 346.458 734.53Z" fill="black"/>
<path fill-rule="evenodd" clip-rule="evenodd" d="M360.313 732.385L353.715 737.425L360.313 732.385Z" fill="#EFF2F7"/>
<path fill-rule="evenodd" clip-rule="evenodd" d="M353.716 738.3C353.901 738.3 354.088 738.242 354.246 738.119L360.844 733.081C361.227 732.787 361.301 732.238 361.008 731.853C360.715 731.47 360.167 731.395 359.782 731.691L353.184 736.73C352.801 737.024 352.727 737.572 353.019 737.957C353.193 738.181 353.453 738.3 353.716 738.3Z" fill="black"/>
<path fill-rule="evenodd" clip-rule="evenodd" d="M174.216 341.465C174.216 341.465 168.033 336.956 169.133 318.339C169.133 318.339 159.355 323.446 148.687 314.81L146.227 341.25C146.227 341.25 153.623 350.626 161.378 349.716C169.133 348.807 174.216 341.465 174.216 341.465Z" fill="#0065FC"/>
<path fill-rule="evenodd" clip-rule="evenodd" d="M168.76 316.835C162.55 320.215 156.07 319.05 149.202 313.257C148.657 312.797 147.887 313.194 147.817 313.971L145.357 341.522C145.332 341.803 145.408 342.082 145.569 342.294C150.671 349.034 155.982 352.127 161.469 351.456C166.882 350.795 171.377 347.785 174.909 342.468C175.219 342.001 175.121 341.327 174.696 341.004C170.918 338.134 169.291 330.42 170.005 317.818C170.049 317.049 169.363 316.507 168.76 316.835ZM147.138 341.659L149.405 316.56L149.866 316.908C156.062 321.463 162.105 322.533 167.923 320.069L168.181 319.956L168.139 320.998C167.793 331.722 169.325 338.832 172.86 342.3L172.967 342.399L172.728 342.725C169.756 346.673 166.148 348.967 161.873 349.638L161.286 349.72C156.433 350.306 151.643 347.549 146.884 341.337L147.138 341.659Z" fill="black"/>
<path fill-rule="evenodd" clip-rule="evenodd" d="M161.606 319.89C173.405 319.89 182.972 309.744 182.972 297.23C182.972 284.715 173.405 274.569 161.606 274.569C149.805 274.569 140.238 284.715 140.238 297.23C140.238 309.744 149.805 319.89 161.606 319.89Z" fill="#0065FC"/>
<path fill-rule="evenodd" clip-rule="evenodd" d="M182.105 297.23C182.105 309.247 172.909 319.022 161.605 319.022C150.301 319.022 141.103 309.247 141.103 297.23C141.103 285.212 150.301 275.437 161.605 275.437C172.909 275.437 182.105 285.212 182.105 297.23ZM183.837 297.23C183.837 284.257 173.864 273.703 161.605 273.703C149.344 273.703 139.371 284.257 139.371 297.23C139.371 310.202 149.344 320.756 161.605 320.756C173.864 320.756 183.837 310.202 183.837 297.23ZM167.698 304.496L171.27 304.062C171.518 304.03 171.744 303.894 171.887 303.684C172.029 303.476 172.073 303.215 172.008 302.97L170.927 298.858C170.806 298.391 170.322 298.114 169.86 298.233C169.391 298.356 169.113 298.835 169.235 299.302L170.063 302.445L167.484 302.757C167.007 302.816 166.665 303.252 166.723 303.731C166.776 304.176 167.154 304.501 167.589 304.501C167.626 304.501 167.661 304.499 167.698 304.496ZM164.005 296.735C164.005 297.79 163.466 298.643 162.805 298.643C162.142 298.643 161.605 297.79 161.605 296.735C161.605 295.68 162.142 294.826 162.805 294.826C163.466 294.826 164.005 295.68 164.005 296.735ZM174.456 298.643C175.119 298.643 175.656 297.79 175.656 296.735C175.656 295.68 175.119 294.826 174.456 294.826C173.793 294.826 173.256 295.68 173.256 296.735C173.256 297.79 173.793 298.643 174.456 298.643ZM163.978 290.847C163.821 290.85 161.993 290.888 160.381 292.272C160.215 292.414 160.012 292.484 159.811 292.484C159.564 292.484 159.321 292.381 159.148 292.179C158.832 291.812 158.875 291.259 159.241 290.946C161.32 289.161 163.655 289.106 163.987 289.099H163.988C164.008 289.098 164.02 289.098 164.025 289.097C164.508 289.109 164.886 289.508 164.877 289.989C164.868 290.467 164.477 290.846 164.001 290.846H163.989C163.989 290.847 163.989 290.847 163.988 290.847L163.978 290.847ZM178.112 292.179C178.429 291.812 178.385 291.259 178.02 290.946C175.955 289.175 173.624 289.109 173.278 289.099C173.254 289.098 173.24 289.098 173.235 289.097C172.751 289.109 172.369 289.51 172.382 289.993C172.392 290.474 172.812 290.883 173.272 290.846C173.242 290.827 175.212 290.841 176.879 292.272C177.045 292.414 177.248 292.484 177.449 292.484C177.696 292.484 177.939 292.381 178.112 292.179ZM171.889 308.938C172.158 309.338 172.052 309.882 171.651 310.152C170.822 310.71 169.321 311.326 167.584 311.326C166.146 311.326 164.542 310.902 163.022 309.676C162.646 309.372 162.588 308.821 162.891 308.446C163.195 308.068 163.746 308.011 164.122 308.313C167.295 310.88 170.539 308.789 170.679 308.698C171.076 308.434 171.62 308.537 171.889 308.938Z" fill="black"/>
<path fill-rule="evenodd" clip-rule="evenodd" d="M3.37785 543.606L13.1163 526.566C20.0366 514.459 24.8087 501.215 26.8694 487.427C33.5255 442.903 47.5953 401.661 62.6533 378.423C68.0377 370.111 73.9679 363.166 79.8666 357.412C94.1235 343.505 118.105 352.502 119.567 372.364C120.166 380.477 116.415 388.195 109.894 393.06C76.4677 418.009 62.1723 497.079 61.1612 507.644C60.0469 519.278 71.9457 518.069 73.8909 542.247C76.0531 569.097 64.3957 571.103 59.571 568.415C54.7447 565.723 57.6486 544.026 57.6486 544.026C47.2681 558.169 54.1937 579.918 46.6034 586.466C39.5484 592.55 32.9325 586.329 32.9325 586.329C21.401 589.935 16.6884 580.628 16.6884 580.628C3.43909 578.687 4.88226 566.02 4.88226 566.02C-3.09286 557.196 3.37785 543.606 3.37785 543.606ZM264.104 410.17C264.104 410.17 274.167 348.787 264.546 343.037C254.926 337.288 247.844 324.497 243.002 315.621C238.16 306.744 242.201 300.649 250.657 300.508C259.113 300.366 263.788 319.743 263.788 319.743C263.884 315.796 263.651 313.436 259.459 300.521C255.268 287.607 257.845 276.448 265.979 275.382C274.114 274.316 274.939 284.295 274.939 284.295C274.939 284.295 278.064 270.99 287.287 273.143C297.522 275.535 294.265 288.435 294.265 288.435C294.265 288.435 299.597 279.357 307.542 285.29C314.99 290.855 302.918 315.05 302.918 315.05C302.918 315.05 312.095 297.611 319.08 303.448C327.047 310.107 308.782 327.002 302.814 350.879C301.212 357.281 304.211 410.373 304.846 421.278C304.858 421.436 304.865 421.604 304.874 421.763C304.932 422.72 304.964 423.264 304.964 423.264L304.958 423.262C305.934 442.396 302.74 471.309 274.939 473.555C233.124 476.933 218.354 395.897 218.354 395.897L241.603 355.983C241.603 355.983 262.586 371.267 264.104 410.17Z" fill="#0065FC"/>
<path fill-rule="evenodd" clip-rule="evenodd" d="M17.6574 539.576C10.5517 552.848 7.14056 559.85 5.7551 566.156C5.67988 566.856 4.81745 577.352 15.8749 579.561C14.5681 573.906 15.5163 563.114 24.7281 542.605C24.9258 542.161 25.4454 541.96 25.8915 542.165C26.3323 542.362 26.5317 542.883 26.3323 543.326C15.595 567.234 16.5781 577.114 18.1227 580.875C18.2994 581.309 18.4901 581.661 18.6808 581.974C19.1443 582.533 19.7461 583.153 20.5036 583.756C20.5665 583.796 20.6295 583.835 20.6802 583.889C22.9683 585.642 26.5719 587.069 31.7586 585.726C30.8035 582.666 29.1224 572.254 37.2567 546.277C37.4019 545.814 37.8935 545.553 38.3588 545.7C38.8224 545.845 39.0813 546.34 38.9343 546.802C29.9376 575.531 33.2071 584.75 33.6549 585.796C34.5435 586.573 40.0626 590.948 46.0295 585.799C49.2798 582.997 49.6594 576.839 50.1002 569.709C50.6285 561.127 51.232 551.411 56.8368 543.66C56.8298 539.282 55.4688 537.389 55.4303 537.338C55.133 536.957 55.1977 536.408 55.5773 536.107C55.9569 535.802 56.5114 535.869 56.8106 536.247C56.9383 536.406 59.8509 540.204 57.9721 549.492C57.9703 549.505 57.9634 549.512 57.9616 549.522C57.3528 557.244 57.4893 566.246 59.9995 567.645C61.5809 568.527 64.3641 568.952 66.9968 567.262C69.8482 565.429 74.4191 559.754 73.0179 542.317C71.9439 528.98 67.847 523.601 64.553 519.278C61.985 515.907 59.7669 512.996 60.2864 507.56C61.3483 496.464 76.0302 417.237 109.369 392.357C115.775 387.574 119.259 380.124 118.693 372.429C118.044 363.614 112.512 356.195 104.259 353.069C95.9602 349.924 86.8498 351.829 80.484 358.042C74.0343 364.331 68.2843 371.349 63.3915 378.901C47.8313 402.917 34.1709 444.551 27.7405 487.556C25.699 501.21 21.0371 514.478 13.8824 527.001L4.17371 543.984C4.11598 544.108 -1.30338 555.774 4.46586 564.054C6.10497 557.978 9.54761 550.993 16.1075 538.743C16.3367 538.316 16.8685 538.15 17.2971 538.384C17.7274 538.613 17.8866 539.145 17.6574 539.576ZM2.61682 543.17L12.3553 526.129C19.4015 513.798 23.9934 500.73 25.9999 487.294C32.4636 444.056 46.2272 402.156 61.915 377.946C66.8796 370.286 72.7136 363.164 79.2542 356.785C86.1168 350.088 95.9375 348.034 104.882 351.423C113.782 354.794 119.746 362.793 120.445 372.297C121.058 380.598 117.309 388.624 110.42 393.765C77.5907 418.269 63.0906 496.735 62.0375 507.728C61.5827 512.477 63.416 514.882 65.9525 518.211C69.2044 522.478 73.6564 528.324 74.7708 542.177C76.172 559.607 71.8337 566.244 67.9484 568.742C64.6597 570.855 61.1506 570.302 59.1441 569.181C55.1207 566.94 55.726 554.399 56.347 547.783C52.7941 554.569 52.2991 562.605 51.8548 569.816C51.3912 577.345 50.9889 583.845 47.1806 587.132C44.6861 589.284 42.23 590.007 40.0574 590.007C36.5273 590.007 33.7389 588.1 32.7347 587.309C26.6646 589.06 22.4051 587.358 19.6866 585.287C19.37 585.164 18.1822 584.592 17.1239 582.805C16.6673 582.241 16.3384 581.751 16.1425 581.431C4.00577 579.409 3.87634 568.574 3.98305 566.328C-3.9116 557.179 2.31419 543.798 2.61682 543.17ZM277.767 316.23C285.659 311.991 294.249 320.115 294.611 320.465C294.987 320.827 295 321.427 294.637 321.803C294.451 321.999 294.203 322.096 293.953 322.096C293.717 322.096 293.482 322.01 293.297 321.831C293.218 321.758 285.337 314.332 278.662 317.901C278.201 318.149 277.626 317.974 277.378 317.514C277.132 317.051 277.304 316.479 277.767 316.23ZM272.443 472.708C273.238 472.708 274.049 472.677 274.863 472.61C289.25 471.45 305.987 461.951 304.014 423.309C304.012 423.281 304.012 423.25 304.014 423.222L303.903 421.332C303.027 406.367 300.299 357.036 301.894 350.648C304.539 340.07 309.601 330.79 313.67 323.336C318.71 314.095 322.353 307.418 318.473 304.176C317.467 303.334 316.391 303.042 315.179 303.281C309.675 304.368 303.817 315.379 303.759 315.491C303.759 315.493 303.757 315.493 303.755 315.495L301.133 320.388C300.962 320.705 300.635 320.887 300.295 320.887C300.144 320.887 299.991 320.85 299.849 320.773C299.388 320.526 299.214 319.953 299.462 319.491L302.084 314.599C302.084 314.599 302.084 314.599 302.084 314.598C305.35 308.044 312.558 290.221 306.976 286.049C304.944 284.532 302.939 283.957 301.004 284.344C297.619 285.021 295.413 288.388 295.137 288.829C294.648 290.527 289.229 309.346 288.71 312.128C288.626 312.585 288.226 312.904 287.78 312.904C287.722 312.904 287.664 312.899 287.604 312.888C287.088 312.791 286.751 312.295 286.846 311.782C287.403 308.797 293.088 289.095 293.352 288.18C293.417 287.915 294.85 281.839 292.309 277.666C291.19 275.828 289.43 274.617 287.073 274.067C279.086 272.204 276.136 283.401 275.883 284.425C275.837 286.02 275.234 306.498 275.399 310.777C275.421 311.3 275.012 311.741 274.488 311.759C274.476 311.761 274.464 311.761 274.451 311.761C273.945 311.761 273.524 311.361 273.505 310.849C273.333 306.417 273.947 285.774 273.991 284.33C273.947 283.906 273.44 279.613 270.779 277.469C269.532 276.464 267.954 276.083 266.104 276.322C263.767 276.63 261.906 277.855 260.571 279.968C257.765 284.413 257.688 291.985 260.363 300.229C264.248 312.2 264.783 315.231 264.748 319.005C266.632 319.556 271.34 321.529 274.226 327.909C274.442 328.386 274.23 328.948 273.753 329.163C273.626 329.219 273.495 329.249 273.364 329.249C273.002 329.249 272.657 329.04 272.499 328.689C269.349 321.727 263.876 320.719 263.635 320.679C263.619 320.675 263.605 320.665 263.589 320.661C263.517 320.645 263.452 320.616 263.385 320.582C263.344 320.561 263.302 320.551 263.265 320.526C263.195 320.479 263.137 320.418 263.081 320.353C263.06 320.331 263.033 320.313 263.015 320.287C262.952 320.198 262.906 320.098 262.877 319.988C262.875 319.979 262.87 319.974 262.868 319.967C261.619 314.8 257.019 301.455 250.75 301.455C250.725 301.455 250.701 301.457 250.675 301.457C246.901 301.518 244.085 302.822 242.743 305.126C241.283 307.632 241.673 311.198 243.835 315.167C248.474 323.668 255.482 336.517 265.033 342.223C274.286 347.755 267.142 396.998 265.332 408.505C265.258 409.497 264.143 424.842 264.143 434.353C264.143 434.876 263.719 435.301 263.195 435.301C262.671 435.301 262.247 434.876 262.247 434.353C262.247 426.741 262.954 415.449 263.283 410.62C263.214 410.492 263.163 410.357 263.158 410.205C262.386 390.375 256.414 376.898 251.542 369.082C247.507 362.611 243.536 358.847 241.869 357.418L219.353 396.067C220.443 401.646 235.106 472.708 272.443 472.708ZM240.788 355.508C240.921 355.275 241.15 355.11 241.412 355.056C241.673 355.002 241.947 355.061 242.164 355.217C242.385 355.376 247.622 359.246 253.091 367.985C257.394 374.858 262.527 385.998 264.405 401.824C267.202 381.765 270.494 347.697 264.06 343.852C254.067 337.878 246.908 324.758 242.171 316.074C239.677 311.502 239.297 307.275 241.104 304.171C242.792 301.274 246.181 299.634 250.642 299.561H250.752C255.466 299.561 259.009 304.772 261.345 309.871C260.71 307.592 259.814 304.681 258.559 300.813C255.713 292.041 255.867 283.869 258.968 278.957C260.595 276.38 262.977 274.82 265.858 274.443C268.246 274.132 270.308 274.653 271.975 275.998C273.583 277.296 274.539 279.141 275.102 280.754C277.058 276.044 281.096 270.716 287.504 272.222C290.374 272.892 292.536 274.39 293.927 276.679C295.605 279.433 295.819 282.774 295.671 285.229C296.882 284.077 298.554 282.904 300.619 282.487C303.103 281.989 305.623 282.673 308.11 284.531C313.098 288.256 310.514 298.695 307.639 306.475C309.744 304.062 312.254 301.928 314.809 301.422C316.594 301.066 318.235 301.504 319.69 302.721C324.762 306.96 320.807 314.209 315.335 324.242C311.318 331.605 306.321 340.766 303.734 351.11C302.515 355.982 304.084 391.925 305.794 421.217L305.911 423.208C305.913 423.243 305.913 423.278 305.911 423.313C306.824 441.474 304 472.16 275.016 474.499C274.163 474.568 273.317 474.604 272.473 474.604C255.982 474.604 241.377 461.453 230.103 436.382C221.241 416.669 217.461 396.272 217.424 396.067C217.384 395.847 217.424 395.616 217.536 395.42L240.788 355.508Z" fill="black"/>
<path fill-rule="evenodd" clip-rule="evenodd" d="M93.5811 408.092V399.765L79.1912 355.983C96.2173 344.212 116.641 337.654 137.919 337.654H146.183C146.185 337.659 146.188 337.663 146.19 337.668L146.262 337.654C148.476 342.319 153.962 345.629 160.398 345.643C166.834 345.629 172.319 342.319 174.534 337.654L174.606 337.668C174.608 337.663 174.611 337.659 174.613 337.654H182.877C204.155 337.654 224.578 344.212 241.604 355.983L227.215 399.765V408.092C227.215 423.608 229.529 439.037 234.082 453.87L237.98 466.568H82.8158L86.7133 453.87C91.2667 439.037 93.5811 423.608 93.5811 408.092Z" fill="#FCBD21"/>
<path fill-rule="evenodd" clip-rule="evenodd" d="M236.79 465.688H84.0054L87.5547 454.129C92.1362 439.195 94.461 423.706 94.461 408.092V399.765C94.461 399.672 94.4453 399.578 94.4173 399.489L80.2321 356.335C97.3072 344.688 117.239 338.534 137.919 338.534H145.718C148.294 343.392 153.987 346.509 160.396 346.523C166.809 346.509 172.5 343.392 175.076 338.534H182.877C203.555 338.534 223.49 344.688 240.564 356.335L226.38 399.489C226.351 399.578 226.335 399.672 226.335 399.765V408.092C226.335 423.71 228.66 439.196 233.241 454.129L236.79 465.688ZM82.8158 467.446H237.98C238.258 467.446 238.52 467.315 238.688 467.089C238.853 466.867 238.902 466.577 238.821 466.311L234.922 453.612C230.391 438.848 228.095 423.533 228.095 408.092V399.905L242.439 356.258C242.561 355.887 242.425 355.483 242.103 355.261C224.615 343.166 204.136 336.774 182.877 336.774H174.615C174.513 336.774 174.419 336.792 174.328 336.821C174.076 336.888 173.848 337.047 173.74 337.276C171.586 341.812 166.349 344.751 160.396 344.763C154.445 344.751 149.208 341.812 147.056 337.276C146.902 336.956 146.571 336.793 146.227 336.774H146.181H137.919C116.662 336.774 96.1789 343.166 78.691 355.261C78.3691 355.483 78.2344 355.887 78.3551 356.258L92.703 399.905V408.092C92.703 423.531 90.4044 438.847 85.8719 453.612L81.9744 466.311C81.8922 466.577 81.9412 466.867 82.1091 467.089C82.2736 467.315 82.536 467.446 82.8158 467.446Z" fill="black"/>
<path fill-rule="evenodd" clip-rule="evenodd" d="M158.471 343.675C159.921 343.675 161.096 342.11 161.096 340.177C161.096 338.243 159.921 336.678 158.471 336.678C157.023 336.678 155.848 338.243 155.848 340.177C155.848 342.11 157.023 343.675 158.471 343.675Z" fill="#FCBD21"/>
<path fill-rule="evenodd" clip-rule="evenodd" d="M158.242 342.169C159.37 342.169 160.289 341.311 160.289 340.258C160.289 339.205 159.37 338.348 158.242 338.348C157.114 338.348 156.195 339.205 156.195 340.258C156.195 341.311 157.114 342.169 158.242 342.169ZM146.845 331.729C157.206 341.476 169.799 333.642 170.329 333.305C170.697 333.07 171.199 333.156 171.45 333.501C171.703 333.844 171.607 334.312 171.242 334.549C171.163 334.597 166.753 337.344 160.907 337.933C161.52 338.544 161.903 339.357 161.903 340.258C161.903 342.142 160.261 343.675 158.242 343.675C156.223 343.675 154.582 342.142 154.582 340.258C154.582 339.296 155.013 338.428 155.703 337.807C152.402 337.284 148.938 335.836 145.7 332.79C145.386 332.495 145.388 332.017 145.705 331.725C146.02 331.431 146.532 331.433 146.845 331.729Z" fill="black"/>
<path fill-rule="evenodd" clip-rule="evenodd" d="M142.577 310.106C142.22 309.567 141.883 309.007 141.566 308.423C141.883 309.007 142.219 309.567 142.577 310.106ZM143.218 310.978C143.378 311.192 143.531 311.416 143.699 311.62C143.531 311.416 143.378 311.192 143.218 310.978ZM144.925 312.96C144.836 312.871 144.752 312.772 144.662 312.679C144.752 312.77 144.834 312.871 144.925 312.96ZM157.609 272.889L156.474 273.29C154.494 273.536 152.76 274.008 151.236 274.657C148.696 275.74 146.737 277.311 145.191 279.141C144.262 280.24 143.482 281.429 142.81 282.662C143.482 281.429 144.262 280.24 145.191 279.141C146.737 277.311 148.696 275.74 151.236 274.657C152.76 274.008 154.494 273.536 156.474 273.29L157.609 272.889C157.609 272.889 178.832 243.784 198.065 264.564C217.297 285.346 183.279 285.731 183.279 285.731L181.543 285.309H159.705C157.592 285.309 155.816 286.892 155.576 288.991L154.476 298.628C153.344 298.415 152.088 298.551 150.58 300.322C150.022 300.976 149.625 301.807 149.632 302.667C149.648 304.91 151.471 306.722 153.717 306.722C153.853 306.722 153.981 306.696 154.114 306.682L153.663 316.702C153.353 316.702 153.063 316.653 152.76 316.629L152.793 316.702L156.257 318.354C153.771 334.264 132.849 332.875 132.849 332.875C132.849 332.875 106.321 323.811 116.49 288.661C126.659 253.512 157.607 272.887 157.609 272.889Z" fill="#040226"/>
<path fill-rule="evenodd" clip-rule="evenodd" d="M143.293 273.732C147.287 261.828 157.421 273.052 157.421 273.052C157.421 273.052 139.3 285.638 143.293 273.732ZM157.421 258.898C169.12 263.458 157.421 273.039 157.421 273.039C157.421 273.039 145.721 254.336 157.421 258.898Z" fill="#FCBD21"/>
<path fill-rule="evenodd" clip-rule="evenodd" d="M133.022 332.008C134.799 332.09 152.182 332.531 154.857 318.69L152.407 317.487C152.406 317.487 152.402 317.485 152.399 317.483C150.625 317.31 148.944 316.773 147.385 315.893C147.373 315.886 147.361 315.879 147.347 315.872C146.852 315.59 146.367 315.279 145.898 314.929C145.849 314.892 145.804 314.854 145.757 314.817C145.325 314.487 144.901 314.137 144.494 313.748C144.392 313.654 144.299 313.549 144.201 313.451C143.85 313.099 143.503 312.744 143.173 312.351C142.991 312.136 142.823 311.894 142.646 311.667C142.408 311.354 142.165 311.055 141.938 310.72C141.537 310.127 141.154 309.501 140.797 308.838C137.617 302.941 137.099 295.591 139.375 288.67C140.416 285.508 141.777 282.308 143.813 279.562C143.486 279.469 143.189 279.334 142.933 279.142C141.654 278.183 141.502 276.322 142.463 273.453C143.115 271.513 143.974 270.049 145.02 269.034C140.949 268.23 136.347 268.095 131.988 269.764C125.181 272.374 120.25 278.813 117.33 288.905C107.75 322.012 130.952 331.257 133.022 332.008ZM148.757 302.674C148.75 301.675 149.161 300.639 149.915 299.754C151.339 298.082 152.659 297.683 153.704 297.678L154.706 288.892C154.998 286.351 157.146 284.433 159.704 284.433H181.544C181.614 284.433 181.682 284.442 181.75 284.458L183.374 284.853C184.793 284.818 199.826 284.295 202.636 277.762C203.995 274.604 202.24 270.364 197.423 265.16C192.717 260.074 187.495 257.644 181.889 257.987C173.59 258.468 166.152 264.81 161.939 269.209C160.362 271.73 158.128 273.591 157.974 273.717C157.97 273.721 157.965 273.721 157.962 273.724C157.946 273.736 157.937 273.757 157.918 273.77C156.422 274.809 150.186 278.988 145.93 279.616C144.278 281.549 143.075 283.839 142.102 286.265C141.716 287.232 141.364 288.221 141.037 289.216C138.91 295.683 139.384 302.532 142.337 308.007C144.863 312.692 148.587 315.444 152.826 315.757C152.827 315.757 152.827 315.758 152.829 315.758L153.198 307.57C150.723 307.311 148.776 305.214 148.757 302.674ZM161.698 263.973C161.418 262.226 159.874 260.793 157.103 259.712C155.983 259.277 155.056 259.054 154.388 259.054C153.912 259.054 153.569 259.166 153.382 259.392C152.122 260.91 155.012 267.299 157.619 271.684C159.092 270.282 162.17 266.947 161.698 263.973ZM156.057 272.918C154.584 271.515 151.101 268.592 148.158 269.216C146.427 269.578 145.067 271.191 144.123 274.011C143.468 275.958 143.418 277.319 143.983 277.742C145.561 278.927 151.802 275.732 156.057 272.918ZM115.649 288.418C118.73 277.772 124.016 270.946 131.361 268.13C136.798 266.046 142.477 266.494 147.2 267.682C147.399 267.616 147.597 267.546 147.803 267.502C150.058 267.033 152.399 268.041 154.278 269.267C152.331 265.476 150.287 260.387 152.035 258.278C153.053 257.046 154.919 256.983 157.738 258.082C161.13 259.404 163.043 261.295 163.425 263.702C163.507 264.222 163.5 264.74 163.444 265.256C167.978 261.127 174.487 256.667 181.78 256.24C187.934 255.89 193.627 258.482 198.707 263.97C204.037 269.729 205.9 274.602 204.243 278.454C200.86 286.316 184.004 286.597 183.288 286.604C183.204 286.599 183.141 286.597 183.071 286.58L181.439 286.183H159.704C158.035 286.183 156.634 287.434 156.445 289.09L155.345 298.727C155.317 298.969 155.191 299.187 154.995 299.332C154.797 299.478 154.552 299.535 154.312 299.488C153.532 299.339 152.586 299.315 151.246 300.887C150.765 301.453 150.502 302.082 150.506 302.661C150.518 304.419 151.96 305.849 153.718 305.849L154.029 305.812C154.276 305.789 154.531 305.875 154.715 306.05C154.899 306.223 154.998 306.47 154.988 306.721L154.543 316.588L156.217 317.41C156.56 317.578 156.755 317.95 156.695 318.33C154.426 332.861 137.794 333.766 133.702 333.766C133.146 333.766 132.822 333.75 132.798 333.748C132.719 333.743 132.64 333.727 132.567 333.703C132.285 333.607 125.631 331.277 120.175 324.498C115.154 318.26 110.291 306.937 115.649 288.418Z" fill="black"/>
</g>
<path fill-rule="evenodd" clip-rule="evenodd" d="M314.691 604.404L285.972 709.302H384.207L404.916 604.404H314.691ZM607.491 714.206L600.858 604.404H520.772L532.917 720.362C534.912 739.42 550.978 753.891 570.137 753.891C591.693 753.891 608.793 735.725 607.491 714.206Z" fill="#0065FC"/>
<path fill-rule="evenodd" clip-rule="evenodd" d="M383.247 708.131H287.507L315.586 605.575H403.492L383.247 708.131ZM285.973 710.473H384.21C384.769 710.473 385.249 710.077 385.359 709.529L406.066 604.631C406.134 604.287 406.045 603.931 405.822 603.662C405.6 603.39 405.267 603.233 404.918 603.233H314.691C314.164 603.233 313.703 603.587 313.562 604.095L284.842 708.993C284.746 709.346 284.821 709.721 285.041 710.011C285.264 710.302 285.608 710.473 285.973 710.473ZM534.084 720.238L522.074 605.575H599.757L606.325 714.276C606.934 724.357 603.457 733.961 596.535 741.315C589.611 748.67 580.238 752.719 570.139 752.719C551.521 752.719 536.022 738.757 534.084 720.238ZM531.754 720.484C533.819 740.195 550.32 755.061 570.139 755.061C580.889 755.061 590.869 750.75 598.24 742.921C605.609 735.092 609.311 724.868 608.662 714.133L602.029 604.334C601.991 603.716 601.478 603.233 600.86 603.233H520.774C520.442 603.233 520.125 603.374 519.903 603.622C519.683 603.868 519.575 604.196 519.61 604.526L531.754 720.484Z" fill="black"/>
<path fill-rule="evenodd" clip-rule="evenodd" d="M210.169 754.832H384.209V709.302H285.973L285.612 709.627C279.182 715.412 271.258 719.276 262.74 720.772L246.129 723.692C229.78 726.566 216.222 737.985 210.61 753.609L210.169 754.832ZM596.5 714.723C580.392 712.58 564.072 712.58 547.962 714.723C524.019 717.906 503.32 733.004 492.972 754.829H651.491C641.142 733.004 620.445 717.906 596.5 714.723Z" fill="#4B69FD"/>
<path fill-rule="evenodd" clip-rule="evenodd" d="M383.036 753.661H211.837C217.37 738.645 230.555 727.617 246.333 724.847L262.941 721.927C271.685 720.388 279.796 716.437 286.397 710.496L383.036 710.473V753.661ZM210.169 756.003H384.207C384.854 756.003 385.378 755.478 385.378 754.832V709.302C385.378 708.656 384.854 708.131 384.207 708.131H285.973C285.682 708.131 285.404 708.239 285.188 708.433L284.828 708.756C278.555 714.402 270.846 718.159 262.536 719.618L245.927 722.538C229.204 725.479 215.248 737.231 209.509 753.214L209.069 754.436C208.94 754.794 208.994 755.192 209.212 755.506C209.432 755.818 209.79 756.003 210.169 756.003ZM649.611 753.661H494.848C505.306 733.015 525.085 718.948 548.114 715.885C564.116 713.758 580.343 713.758 596.346 715.885C619.377 718.948 639.154 733.015 649.611 753.661ZM492.97 756.003H651.489C651.892 756.003 652.264 755.797 652.48 755.457C652.695 755.12 652.721 754.694 652.548 754.331C641.985 732.053 621.091 716.812 596.655 713.564C580.449 711.41 564.013 711.41 547.807 713.564C523.368 716.815 502.475 732.053 491.912 754.331C491.741 754.694 491.767 755.12 491.982 755.457C492.195 755.797 492.57 756.003 492.97 756.003Z" fill="black"/>
<path fill-rule="evenodd" clip-rule="evenodd" d="M215.183 744.35H384.209V754.832H210.169L210.61 753.607C211.792 750.317 213.345 747.228 215.183 744.35ZM651.491 754.832C649.735 751.13 647.661 747.638 645.345 744.35H499.117C496.801 747.638 494.726 751.13 492.97 754.832H651.491Z" fill="#EFF2F7"/>
<path fill-rule="evenodd" clip-rule="evenodd" d="M383.036 753.661H211.837C212.865 750.874 214.206 748.141 215.831 745.521H383.036V753.661ZM210.172 756.003H384.207C384.853 756.003 385.378 755.478 385.378 754.832V744.35C385.378 743.704 384.853 743.179 384.207 743.179H215.185C214.785 743.179 214.412 743.383 214.197 743.72C212.258 746.755 210.68 749.949 209.507 753.214L209.069 754.436C208.94 754.795 208.994 755.195 209.214 755.506C209.432 755.818 209.79 756.003 210.172 756.003ZM649.611 753.661H494.853C496.258 750.905 497.892 748.174 499.728 745.521H644.736C646.572 748.174 648.206 750.905 649.611 753.661ZM492.973 756.003H651.491C651.894 756.003 652.264 755.797 652.48 755.457C652.693 755.12 652.718 754.694 652.547 754.331C650.836 750.713 648.731 747.127 646.303 743.675C646.082 743.366 645.724 743.179 645.345 743.179H499.117C498.738 743.179 498.379 743.366 498.161 743.675C495.731 747.127 493.631 750.713 491.914 754.331C491.743 754.694 491.769 755.12 491.982 755.457C492.198 755.797 492.57 756.003 492.973 756.003Z" fill="black"/>
<path fill-rule="evenodd" clip-rule="evenodd" d="M577.803 284.533H394.257L272.5 698.377H398.905L475.118 427.879L513.225 698.377H628.474L577.803 284.533Z" fill="#409B81"/>
<path fill-rule="evenodd" clip-rule="evenodd" d="M627.158 697.206H514.241L476.315 427.996L488.802 383.726C488.978 383.103 488.615 382.457 487.992 382.281C487.369 382.11 486.723 382.469 486.548 383.089L474.051 427.399C474.027 427.451 474.006 427.504 473.99 427.563L398.018 697.206H274.066L395.133 285.703H576.758L627.158 697.206ZM464.148 471.128L400.029 698.696C399.889 699.199 399.427 699.548 398.903 699.548H272.502C272.132 699.548 271.785 699.375 271.563 699.077C271.343 698.782 271.275 698.401 271.378 698.047L393.133 284.202C393.279 283.703 393.737 283.361 394.255 283.361H577.8C578.395 283.361 578.896 283.806 578.964 284.396L629.636 698.241C629.675 698.574 629.57 698.906 629.348 699.157C629.125 699.405 628.807 699.548 628.474 699.548H513.223C512.64 699.548 512.145 699.117 512.063 698.541L474.739 433.584L464.153 471.114C464.15 471.119 464.15 471.123 464.148 471.128Z" fill="black"/>
<path fill-rule="evenodd" clip-rule="evenodd" d="M465.401 118.816C465.401 118.816 473.677 112.781 472.205 87.8569C472.205 87.8569 485.293 94.6939 499.572 83.1337L502.866 118.528C502.866 118.528 492.966 131.08 482.585 129.863C472.205 128.645 465.401 118.816 465.401 118.816Z" fill="#0065FC"/>
<path fill-rule="evenodd" clip-rule="evenodd" d="M472.703 84.6752C481.016 89.2001 489.69 87.64 498.883 79.8843C499.613 79.2688 500.644 79.8007 500.737 80.8407L504.03 117.724C504.064 118.099 503.961 118.473 503.746 118.757C496.917 127.781 489.808 131.92 482.463 131.023C475.218 130.138 469.201 126.107 464.473 118.99C464.058 118.365 464.189 117.463 464.759 117.03C469.815 113.187 471.993 102.861 471.037 85.9908C470.979 84.9607 471.896 84.2359 472.703 84.6752ZM501.354 117.907L498.301 84.3064L497.68 84.7724C489.336 90.8703 481.198 92.303 473.363 89.0043L473.017 88.8535L473.072 90.2474C473.539 104.604 471.475 114.123 466.716 118.765L466.572 118.898L466.894 119.334C470.895 124.619 475.754 127.691 481.511 128.589L482.302 128.698C488.836 129.482 495.287 125.792 501.695 117.476L501.354 117.907Z" fill="black"/>
<path fill-rule="evenodd" clip-rule="evenodd" d="M482.284 89.9339C466.488 89.9339 453.682 76.3513 453.682 59.5979C453.682 42.8444 466.488 29.2618 482.284 29.2618C498.08 29.2618 510.884 42.8444 510.884 59.5979C510.884 76.3513 498.08 89.9339 482.284 89.9339Z" fill="#0065FC"/>
<path fill-rule="evenodd" clip-rule="evenodd" d="M482.284 30.4232C467.153 30.4232 454.843 43.5094 454.843 59.5978C454.843 75.6862 467.153 88.7723 482.284 88.7723C497.415 88.7723 509.724 75.6862 509.724 59.5978C509.724 43.5094 497.415 30.4232 482.284 30.4232ZM482.284 91.0931C465.874 91.0931 452.522 76.9648 452.522 59.5978C452.522 42.2307 465.874 28.1025 482.284 28.1025C498.693 28.1025 512.045 42.2307 512.045 59.5978C512.045 76.9648 498.693 91.0931 482.284 91.0931Z" fill="black"/>
<path fill-rule="evenodd" clip-rule="evenodd" d="M474.271 69.3319C474.224 69.3319 474.177 69.3296 474.128 69.3249L469.347 68.7441C469.012 68.702 468.71 68.5193 468.52 68.2383C468.331 67.9596 468.27 67.6107 468.356 67.2828L469.806 61.7749C469.972 61.1519 470.614 60.7796 471.236 60.9412C471.859 61.1074 472.234 61.7468 472.07 62.372L470.962 66.5803L474.412 66.9971C475.053 67.0768 475.51 67.6599 475.432 68.3015C475.36 68.8964 474.856 69.3319 474.271 69.3319Z" fill="black"/>
<path fill-rule="evenodd" clip-rule="evenodd" d="M482.283 58.9355C482.283 60.3476 481.565 61.4904 480.677 61.4904C479.79 61.4904 479.071 60.3476 479.071 58.9355C479.071 57.5233 479.79 56.3805 480.677 56.3805C481.565 56.3805 482.283 57.5233 482.283 58.9355Z" fill="black"/>
<path fill-rule="evenodd" clip-rule="evenodd" d="M466.688 58.9355C466.688 60.3476 465.969 61.4904 465.08 61.4904C464.195 61.4904 463.473 60.3476 463.473 58.9355C463.473 57.5233 464.195 56.3805 465.08 56.3805C465.969 56.3805 466.688 57.5233 466.688 58.9355Z" fill="black"/>
<path fill-rule="evenodd" clip-rule="evenodd" d="M484.683 53.2443C484.412 53.2443 484.142 53.1507 483.92 52.961C481.691 51.0453 479.115 51.0711 479.092 51.0524C478.427 51.0336 477.914 50.5489 477.902 49.9049C477.893 49.2609 478.399 48.7269 479.043 48.7105C479.199 48.7152 482.51 48.6637 485.447 51.1859C485.936 51.6074 485.992 52.3451 485.571 52.8369C485.339 53.1062 485.014 53.2443 484.683 53.2443Z" fill="black"/>
<path fill-rule="evenodd" clip-rule="evenodd" d="M461.074 53.2448C460.744 53.2448 460.418 53.1067 460.186 52.8373C459.765 52.3456 459.821 51.6055 460.311 51.1864C463.247 48.6642 466.577 48.7087 466.715 48.711C467.363 48.7274 467.874 49.2637 467.857 49.9101C467.843 50.547 467.321 51.0529 466.687 51.0529C466.68 51.0529 466.67 51.0505 466.661 51.0529C466.539 51.0529 464.029 51.081 461.837 52.9615C461.615 53.1511 461.345 53.2448 461.074 53.2448Z" fill="black"/>
<path fill-rule="evenodd" clip-rule="evenodd" d="M474.316 82.2606C473.217 82.2606 471.997 82.0475 470.663 81.6189C470.047 81.4222 469.707 80.7618 469.906 80.1459C470.103 79.5323 470.756 79.1928 471.379 79.3895C473.803 80.167 475.62 80.0874 476.777 79.1553C477.858 78.2818 478.278 76.7877 478.43 75.5536C474.512 77.4668 470.574 76.1062 468.836 74.9377C468.298 74.577 468.157 73.8487 468.516 73.3124C468.876 72.7785 469.602 72.6333 470.138 72.9916C470.326 73.1157 474.665 75.9095 478.914 72.4764C479.249 72.2071 479.704 72.1415 480.102 72.3078C480.5 72.4741 480.771 72.8441 480.816 73.2726C480.837 73.4834 481.303 78.5043 478.256 80.9702C477.193 81.8297 475.875 82.2606 474.316 82.2606Z" fill="black"/>
<path fill-rule="evenodd" clip-rule="evenodd" d="M520.104 57.9876C518.713 70.7576 511.511 83.0616 499.725 83.0616L499.124 69.6476C499.299 69.6663 499.47 69.7015 499.653 69.7015C502.659 69.7015 505.099 67.2753 505.123 64.2754C505.13 63.1209 504.598 62.0085 503.854 61.1327C501.835 58.7651 500.152 58.5801 498.639 58.8658L497.164 45.9646C496.843 43.1568 494.466 41.0351 491.64 41.0351H458.722C458.722 41.0351 452.023 4.0318 459.692 5.34089C467.358 6.64997 466.707 11.7903 472.879 5.09265C479.049 -1.60733 484.29 2.07871 487.842 6.75535C491.394 11.4296 499.241 -2.86489 504.823 2.35974C511.731 8.82788 508.387 13.8815 520.352 11.8863C527.407 10.713 520.261 57.2031 520.104 57.9876Z" fill="#040226"/>
<path fill-rule="evenodd" clip-rule="evenodd" d="M500.349 70.8368L500.843 81.8504C511.558 81.0659 517.721 69.0499 518.941 57.8607C518.943 57.8279 518.95 57.7951 518.955 57.7623C519.957 52.4019 524.621 17.0285 520.83 13.1621C520.69 13.0169 520.622 13.0286 520.545 13.0404C512.08 14.4595 510.485 12.4994 508.186 8.63069C507.233 7.02419 506.151 5.20693 504.023 3.21637C501.929 1.25626 499.372 2.93769 495.703 5.71979C492.694 8.00073 489.283 10.5838 486.911 7.46211C484.546 4.35216 482.19 2.7199 479.907 2.61218C477.933 2.51148 475.828 3.61917 473.739 5.88606C469.532 10.4526 467.86 10.2044 464.778 8.48315C463.537 7.78763 461.992 6.92115 459.496 6.49493C459.175 6.44107 458.962 6.51133 458.73 6.74317C455.721 9.78287 457.676 28.2552 459.704 39.8637H491.641C495.066 39.8637 497.939 42.4303 498.328 45.833L499.67 57.5937C501.07 57.6007 502.836 58.1347 504.744 60.3735C505.753 61.5561 506.301 62.9448 506.294 64.282C506.266 67.6823 503.66 70.4902 500.349 70.8368ZM499.726 84.2321C499.101 84.2321 498.586 83.7403 498.558 83.115L497.953 69.701C497.939 69.3638 498.071 69.0336 498.316 68.7994C498.562 68.5675 498.899 68.4504 499.237 68.4832L499.653 68.5324C502.007 68.5324 503.934 66.6168 503.953 64.2656C503.957 63.4904 503.606 62.6474 502.962 61.891C501.166 59.7833 499.902 59.8185 498.855 60.0152C498.539 60.0784 498.206 60.0011 497.944 59.8091C497.682 59.6147 497.513 59.322 497.476 58.9988L496.003 46.0977C495.748 43.8776 493.874 42.2055 491.641 42.2055H458.723C458.156 42.2055 457.672 41.8004 457.569 41.243C456.995 38.0699 452.103 10.1084 457.065 5.09687C457.836 4.31938 458.817 4.00323 459.889 4.18823C462.783 4.68002 464.598 5.69872 465.923 6.43873C468.066 7.64244 468.642 7.96326 472.018 4.2983C474.596 1.49747 477.282 0.132178 480.017 0.272688C483.026 0.41554 485.972 2.35692 488.775 6.0453C489.587 7.11318 490.924 6.40595 494.289 3.85335C497.698 1.26797 501.941 -1.94502 505.624 1.50449C507.994 3.72455 509.216 5.78068 510.2 7.43401C512.094 10.6236 512.879 11.9491 520.161 10.7313C521.037 10.5885 521.872 10.8742 522.516 11.5369C527.74 16.9301 521.589 56.191 521.266 58.144C519.887 70.715 512.562 84.2321 499.726 84.2321Z" fill="black"/>
<path fill-rule="evenodd" clip-rule="evenodd" d="M420.251 236.289C425.627 231.177 440.496 234.587 446.631 236.289H473.397V225.617H451.548L424.318 139.855H294.467L325.081 236.289H420.251Z" fill="#EFF2F7"/>
<path fill-rule="evenodd" clip-rule="evenodd" d="M473.4 236.289V225.617H451.548L428.327 152.475C432.877 149.892 452.794 137.969 459.355 123.74C460.905 120.382 461.889 117.448 462.511 114.867H468.445L466.78 106.263C466.679 105.748 466.733 105.252 466.883 104.793C469.805 106.622 473.283 107.896 475.367 105.5C475.982 104.795 476.643 103.868 477.219 102.76H504.039C505.788 102.76 507.151 104.275 506.966 106.013L506.032 114.867H517.03C562.355 114.867 604.768 137.215 630.401 174.6L650.585 204.044C651.529 205.419 650.543 207.29 648.876 207.29H576.508C575.721 207.29 575.005 206.847 574.653 206.145L570.134 197.105L574.581 230.343L579.336 258.199C579.219 258.274 579.102 258.349 578.988 258.426C578.793 258.553 578.599 258.682 578.388 258.801C555.003 272.004 449.333 237.09 449.333 237.09C449.333 237.09 448.307 236.753 446.631 236.289H473.4ZM428.327 152.475L424.321 139.855L428.327 152.475ZM418.375 243.328C418.165 242.256 418.155 241.062 418.406 239.729C418.675 238.291 419.328 237.167 420.253 236.287H405.724C409.826 241.378 418.375 243.328 418.375 243.328ZM470.501 283.674C460.884 278.582 438.112 271.084 438.112 271.084C426.493 267.883 417.284 264.658 409.986 261.536L405.724 286.502H476.305C473.475 285.186 471.477 284.191 470.501 283.674Z" fill="#409B81"/>
<path fill-rule="evenodd" clip-rule="evenodd" d="M428.327 152.475C432.877 149.892 452.791 137.97 459.355 123.741C466.782 107.636 461.743 100.725 461.743 100.725C461.743 100.725 471.262 110.217 475.366 105.5C479.471 100.786 485.789 86.3441 453.007 72.1327C420.227 57.9225 397.514 97.709 390.49 111.994C388.326 116.392 383.228 127.122 377.208 139.855H424.32L428.327 152.475ZM642.062 207.293H578.32C578.32 207.293 601.771 245.6 578.386 258.801C555.003 272.005 449.331 237.09 449.331 237.09C449.331 237.09 420.668 227.66 418.403 239.732C418.153 241.064 418.162 242.259 418.373 243.331C418.373 243.331 409.824 241.38 405.721 236.289H325.082L320.516 221.903C315.608 238.261 311.922 263.616 332.186 272.356C352.616 281.168 369.675 272.276 383.449 256.071C391.74 260.804 404.127 265.967 422.693 271.087C422.693 271.087 445.465 278.585 455.081 283.676C464.701 288.767 571.815 339.597 625.844 299.708C679.871 259.818 642.062 207.293 642.062 207.293Z" fill="#0065FC"/>
<path fill-rule="evenodd" clip-rule="evenodd" d="M465.888 104.137C465.584 104.873 465.476 105.683 465.63 106.484L467.024 113.699H462.783C462.629 114.444 462.439 115.224 462.214 116.041H468.445C468.794 116.041 469.124 115.884 469.349 115.615C469.569 115.345 469.66 114.989 469.595 114.647L467.93 106.039C467.888 105.83 467.913 105.62 467.946 105.416C467.234 105.025 466.539 104.589 465.888 104.137Z" fill="black"/>
<path fill-rule="evenodd" clip-rule="evenodd" d="M376.482 139.855H377.208C377.328 139.604 377.442 139.361 377.56 139.11C377.204 139.363 376.836 139.6 376.482 139.855Z" fill="black"/>
<path fill-rule="evenodd" clip-rule="evenodd" d="M391.539 112.512C399.552 96.2172 421.539 59.7654 452.541 73.2075C467.056 79.5 475.608 86.7023 477.266 94.0299C478.483 99.4044 475.725 103.304 474.481 104.732C473.969 105.325 473.346 105.613 472.524 105.641C469.208 105.812 464.223 101.538 462.572 99.9009V99.8985L455.046 92.3625C454.929 92.2454 454.791 92.1611 454.644 92.1049C447.699 83.4155 434.883 79.5398 434.115 79.3127C433.495 79.1323 432.844 79.4859 432.661 80.1065C432.479 80.7271 432.834 81.3781 433.455 81.5608C433.705 81.6334 458.615 89.1659 456.576 106.025C454.639 122.041 450.93 125.654 448.893 126.382C447.195 126.984 445.142 126.157 442.791 123.923C444.423 118.86 444.46 111.858 442.866 102.912C440.482 89.5383 422.543 88.9341 421.78 88.913C421.11 88.8943 420.597 89.4095 420.581 90.0558C420.565 90.7022 421.075 91.2384 421.721 91.2548C421.89 91.2595 438.51 91.8098 440.566 103.362C443.561 120.153 440.651 129.476 432.022 131.057C430.509 131.188 426.33 131.075 425.201 128.986C425.199 128.979 425.192 128.977 425.189 128.97C428.268 123.87 430.104 116.708 430.491 111.589C431.392 99.7018 413.54 96.9572 412.779 96.8471C412.149 96.7464 411.545 97.1937 411.451 97.8354C411.358 98.4747 411.8 99.0695 412.439 99.1632C412.606 99.1866 428.891 101.697 428.156 111.413C427.594 118.842 423.73 130.673 418.211 132.633C416.083 133.38 413.8 132.492 411.421 129.977C404.621 122.795 415.261 110.676 415.369 110.556C415.8 110.071 415.757 109.331 415.275 108.901C414.793 108.472 414.053 108.514 413.622 108.997C413.451 109.186 411.992 110.861 410.466 113.308C409.571 112.643 409.812 110.046 410.264 108.481C410.442 107.861 410.086 107.212 409.466 107.032C408.843 106.849 408.197 107.205 408.016 107.828C407.85 108.395 406.483 113.411 409.154 115.259C409.203 115.291 409.26 115.282 409.311 115.308C406.799 120.055 404.968 126.565 409.721 131.588C412.376 134.394 414.79 135.234 416.724 135.234C417.582 135.234 418.345 135.068 418.993 134.839C420.794 134.199 422.396 132.822 423.798 131.012C425.686 133.11 429.214 133.424 431.099 133.424C431.778 133.424 432.242 133.384 432.336 133.375C436.789 132.562 439.974 130.167 441.887 126.221C443.938 127.984 445.905 128.923 447.755 128.923C448.41 128.923 449.052 128.811 449.682 128.586C454.206 126.97 457.308 119.474 458.901 106.306C459.226 103.627 458.962 101.175 458.294 98.9314L460.835 101.475C461.209 102.053 465.054 108.587 458.29 123.249C452.014 136.857 432.834 148.531 427.962 151.332L428.688 153.615C432.874 151.274 453.536 139.148 460.418 124.23C464.797 114.734 464.968 108.268 464.279 104.423C466.632 106.182 469.85 108.079 472.606 107.983C474.079 107.931 475.303 107.355 476.249 106.268C477.727 104.573 481.005 99.9337 479.551 93.5147C477.692 85.3113 468.918 77.7553 453.471 71.0577C420.616 56.8194 397.746 94.5826 389.438 111.479C387.256 115.914 382.046 126.879 375.913 139.855H378.503C384.423 127.333 389.42 116.823 391.539 112.512ZM625.147 298.765C569.563 339.798 456.744 283.229 455.629 282.641C446.034 277.562 423.993 270.281 423.005 269.958C383.409 259.042 372.474 247.937 369.484 242.289C368.285 240.029 368.158 238.362 368.221 237.46H378.955C378.95 237.652 378.915 237.821 378.946 238.038C379.363 241.064 383.533 244.539 391.344 248.373C406.529 255.827 425.419 261.543 425.608 261.6C425.721 261.632 425.833 261.649 425.946 261.649C426.449 261.649 426.913 261.321 427.067 260.815C427.252 260.195 426.903 259.544 426.283 259.356C426.095 259.3 407.391 253.64 392.375 246.272C382.99 241.666 381.493 238.832 381.285 237.83C381.25 237.666 381.269 237.565 381.28 237.46H405.176C408.925 241.727 415.371 243.743 417.446 244.303C419.958 252.998 434.321 253.703 434.895 253.722L445.643 254.665C445.68 254.67 445.713 254.67 445.748 254.67C446.348 254.67 446.86 254.211 446.912 253.602C446.97 252.958 446.493 252.389 445.849 252.333L435.045 251.387C434.907 251.38 421.024 250.724 419.52 243.104C419.331 242.139 419.34 241.076 419.553 239.947C419.85 238.355 420.698 237.165 422.143 236.313C429.582 231.91 448.771 238.142 448.961 238.202C453.297 239.636 555.399 273.124 578.962 259.822C584.193 256.869 587.597 252.476 589.08 246.764C592.772 232.519 583.554 214.215 580.35 208.463H641.442C645.005 213.822 674.905 262.028 625.147 298.765ZM643.01 206.609C642.79 206.302 642.437 206.122 642.06 206.122H578.32C577.896 206.122 577.505 206.349 577.299 206.719C577.091 207.089 577.1 207.541 577.32 207.904C577.456 208.126 590.911 230.383 586.811 246.181C585.495 251.251 582.467 255.155 577.81 257.782C555.139 270.581 450.747 236.327 449.696 235.978C448.865 235.704 429.303 229.357 420.953 234.294C418.921 235.495 417.675 237.252 417.251 239.514C417.109 240.277 417.041 241.022 417.045 241.743C414.472 240.938 409.405 238.996 406.632 235.556C406.41 235.277 406.075 235.118 405.722 235.118H367.25C366.763 235.118 366.325 235.42 366.154 235.877C366.041 236.174 365.126 238.9 367.29 243.148C369.156 246.816 373.223 251.389 381.603 256.373C376.354 262.37 370.652 267.283 364.47 270.485C354.322 275.742 343.617 276.009 332.651 271.281C326.528 268.639 322.25 264.185 319.934 258.035C316.049 247.713 318.234 234.327 321.166 223.957L319.878 219.896C316.394 230.875 313.146 246.645 317.742 258.857C320.288 265.625 324.994 270.529 331.724 273.431C337.229 275.805 342.671 276.99 348.026 276.99C353.997 276.99 359.855 275.515 365.55 272.564C371.83 269.311 377.89 264.29 383.72 257.586C392.157 262.269 404.455 267.272 422.326 272.199C422.553 272.274 445.114 279.723 454.534 284.711C455.36 285.147 516.831 315.961 571.949 315.961C592.082 315.961 611.364 311.851 626.538 300.65C680.869 260.536 643.394 207.143 643.01 206.609Z" fill="black"/>
<path fill-rule="evenodd" clip-rule="evenodd" d="M651.55 203.382L631.366 173.938C605.506 136.218 562.763 113.696 517.03 113.696H507.331L508.13 106.135C508.251 104.975 507.874 103.816 507.097 102.95C506.317 102.086 505.203 101.589 504.036 101.589H477.755C477.399 102.458 476.982 103.247 476.542 103.931H504.036C504.547 103.931 505.013 104.139 505.355 104.516C505.694 104.896 505.854 105.383 505.8 105.889L504.865 114.743C504.83 115.076 504.936 115.404 505.158 115.652C505.381 115.898 505.697 116.038 506.029 116.038H517.03C561.99 116.038 604.009 138.178 629.434 175.263L649.621 204.705C649.899 205.112 649.752 205.491 649.674 205.637C649.6 205.782 649.365 206.119 648.874 206.119H576.508C576.164 206.119 575.852 205.927 575.698 205.62L571.181 196.581C570.923 196.07 570.338 195.82 569.792 195.986C569.244 196.155 568.898 196.693 568.973 197.26L573.424 230.537L578.264 258.864C578.304 258.843 578.346 258.822 578.386 258.801C579.105 258.396 579.774 257.965 580.406 257.515L575.74 230.186L572.225 203.906L573.604 206.667C574.157 207.772 575.271 208.461 576.508 208.461H579.002C578.58 207.716 578.32 207.29 578.32 207.29H642.064C642.064 207.29 642.357 207.7 642.849 208.461H648.874C650.082 208.461 651.182 207.796 651.744 206.728C652.306 205.66 652.234 204.377 651.55 203.382ZM391.693 285.332L395.676 261.993C394.92 261.677 394.18 261.361 393.463 261.047L389.15 286.306C389.094 286.645 389.188 286.994 389.41 287.257C389.633 287.521 389.96 287.673 390.305 287.673H463.436C461.458 286.776 459.772 285.987 458.409 285.332H391.693ZM499.747 105.507C499.1 105.507 498.576 106.029 498.576 106.678V113.743C498.576 114.392 499.1 114.914 499.747 114.914C500.393 114.914 500.918 114.392 500.918 113.743V106.678C500.918 106.029 500.393 105.507 499.747 105.507ZM494.476 105.507C493.83 105.507 493.305 106.029 493.305 106.678V113.743C493.305 114.392 493.83 114.914 494.476 114.914C495.125 114.914 495.647 114.392 495.647 113.743V106.678C495.647 106.029 495.125 105.507 494.476 105.507ZM489.207 105.507C488.561 105.507 488.037 106.029 488.037 106.678V113.743C488.037 114.392 488.561 114.914 489.207 114.914C489.854 114.914 490.378 114.392 490.378 113.743V106.678C490.378 106.029 489.854 105.507 489.207 105.507ZM478.668 105.507C478.022 105.507 477.497 106.029 477.497 106.678V113.743C477.497 114.392 478.022 114.914 478.668 114.914C479.314 114.914 479.839 114.392 479.839 113.743V106.678C479.839 106.029 479.314 105.507 478.668 105.507ZM483.937 105.507C483.29 105.507 482.766 106.029 482.766 106.678V113.743C482.766 114.392 483.29 114.914 483.937 114.914C484.585 114.914 485.107 114.392 485.107 113.743V106.678C485.107 106.029 484.585 105.507 483.937 105.507ZM473.397 105.507C472.753 105.507 472.226 106.029 472.226 106.678V113.743C472.226 114.392 472.753 114.914 473.397 114.914C474.046 114.914 474.568 114.392 474.568 113.743V106.678C474.568 106.029 474.046 105.507 473.397 105.507Z" fill="black"/>
<path fill-rule="evenodd" clip-rule="evenodd" d="M472.226 226.788V235.118H455.414L452.859 226.788H472.226ZM367.25 236.289H405.721C406.054 236.701 406.422 237.085 406.808 237.46H419.295C419.923 236.465 420.81 235.694 421.902 235.118H325.938L296.067 141.026H423.463L442.229 200.136V200.138L452.965 235.118H441.92C446.193 236.06 449.331 237.09 449.331 237.09C449.331 237.09 449.726 237.221 450.462 237.46H473.397C474.043 237.46 474.568 236.935 474.568 236.289V225.617C474.568 224.971 474.043 224.446 473.397 224.446H452.403L425.435 139.501C425.281 139.014 424.829 138.684 424.318 138.684H294.468C294.093 138.684 293.742 138.862 293.522 139.164C293.302 139.464 293.238 139.852 293.351 140.208L323.967 236.643C324.121 237.13 324.571 237.46 325.081 237.46H367.053C367.097 236.704 367.25 236.289 367.25 236.289Z" fill="black"/>
</svg>
