<svg width="116" height="126" viewBox="0 0 116 126" fill="none" xmlns="http://www.w3.org/2000/svg">
<path fill-rule="evenodd" clip-rule="evenodd" d="M74.625 126C52.0504 126 33.75 107.7 33.75 85.125L33.75 10.5C33.75 5.11522 38.1152 0.749998 43.5 0.749999C48.8848 0.749999 53.25 5.11522 53.25 10.5L53.25 85.125C53.25 96.9301 62.8199 106.5 74.625 106.5L74.625 126Z" fill="#E3E7EC"/>
<path fill-rule="evenodd" clip-rule="evenodd" d="M0 54C0 48.6152 4.36522 44.25 9.75 44.25H74.625C97.1996 44.25 115.5 62.5504 115.5 85.125C115.5 107.7 97.1996 126 74.625 126H9.75C4.36522 126 0 121.635 0 116.25C0 110.865 4.36522 106.5 9.75 106.5H74.625C86.4301 106.5 96 96.9301 96 85.125C96 73.3199 86.4301 63.75 74.625 63.75H9.75C4.36522 63.75 0 59.3848 0 54Z" fill="#EFF3F8"/>
</svg>
