<svg width="256" height="287" viewBox="0 0 256 287" fill="none" xmlns="http://www.w3.org/2000/svg">
<path fill-rule="evenodd" clip-rule="evenodd" d="M224.033 117.5H145.07L143.862 137.795L104.401 149.099C97.253 151.147 91.163 155.858 87.3865 162.263L30.7725 258.274L78.7725 262.784L80.0615 258.596L124.839 262.784L146.584 188.678L189.768 188.293H192.705C215.231 188.293 232.63 168.498 229.74 146.157L224.033 117.5Z" fill="#4B69FD"/>
<path fill-rule="evenodd" clip-rule="evenodd" d="M119.82 262.315L83.1251 258.883L82.7801 260.326C82.1901 262.797 80.7681 264.991 78.7541 266.54C77.6141 267.418 76.3101 268.048 74.9251 268.429C75.2181 266.438 75.6551 264.472 76.2301 262.545L39.3071 259.076L37.9691 261.466C36.9781 263.234 35.6391 264.783 34.0331 266.018V266.019C32.3101 267.343 30.3201 268.278 28.2001 268.757L11.9091 272.435C5.6181 273.856 0.998102 279.228 0.537102 285.661H120.323L119.523 267.935C119.438 266.055 119.538 264.172 119.82 262.315Z" fill="#0065FC"/>
<path fill-rule="evenodd" clip-rule="evenodd" d="M1.084 285.161H119.799L119.023 267.957C118.945 266.228 119.022 264.484 119.251 262.764L83.51 259.421L83.266 260.442C82.651 263.016 81.157 265.323 79.059 266.936C77.885 267.84 76.539 268.504 75.057 268.911L74.319 269.114L74.43 268.356C74.696 266.554 75.082 264.751 75.581 262.987L39.584 259.604L38.405 261.71C37.375 263.548 36.007 265.131 34.337 266.414C32.57 267.774 30.485 268.753 28.31 269.244L12.019 272.923C6.074 274.265 1.739 279.147 1.084 285.161ZM120.846 286.161H0L0.0380001 285.625C0.519 278.924 5.245 273.427 11.799 271.947L28.089 268.269C30.124 267.809 32.074 266.894 33.728 265.622C35.289 264.421 36.569 262.94 37.532 261.222L39.03 258.548L76.883 262.104L76.709 262.688C76.218 264.335 75.827 266.021 75.544 267.712C76.605 267.338 77.58 266.812 78.449 266.143C80.366 264.669 81.732 262.561 82.294 260.209L82.739 258.345L120.394 261.866L120.314 262.39C120.037 264.215 119.939 266.073 120.022 267.912L120.846 286.161Z" fill="black"/>
<path fill-rule="evenodd" clip-rule="evenodd" d="M137.979 139.993C137.76 139.993 137.559 139.848 137.498 139.627C137.424 139.361 137.579 139.085 137.845 139.011L146.45 136.621C146.716 136.548 146.992 136.703 147.065 136.969C147.139 137.235 146.984 137.511 146.718 137.585L138.113 139.975C138.068 139.987 138.023 139.993 137.979 139.993Z" fill="black"/>
<path fill-rule="evenodd" clip-rule="evenodd" d="M192.706 187.793H189.764L147.218 188.172L149.332 180.855C149.409 180.59 149.256 180.313 148.99 180.236C148.726 180.162 148.448 180.312 148.371 180.578L144.399 194.326C144.395 194.338 144.398 194.351 144.396 194.363L124.476 262.248L80.6007 258.144L104.692 172.746C106.813 165.23 112.858 159.479 120.471 157.736L176.458 144.923C176.727 144.861 176.895 144.593 176.833 144.324C176.772 144.055 176.505 143.884 176.234 143.948L120.248 156.762C112.278 158.586 105.949 164.606 103.73 172.475L78.4047 262.248L31.6037 257.85L87.8177 162.517C91.546 156.195 97.484 151.601 104.54 149.58L144.001 138.276C144.204 138.218 144.35 138.038 144.362 137.826L145.542 118.001H223.594L229.245 146.222C230.604 156.728 227.372 167.316 220.379 175.273C213.385 183.229 203.299 187.793 192.706 187.793ZM224.529 117.437C224.497 117.187 224.285 117.001 224.033 117.001H145.071C144.806 117.001 144.587 117.207 144.572 117.471L143.385 137.413L104.264 148.619C96.961 150.711 90.815 155.466 86.9567 162.009L30.3417 258.02C30.2547 258.168 30.2497 258.349 30.3267 258.502C30.4047 258.654 30.5557 258.756 30.7257 258.772L78.7257 263.282C78.7327 263.283 78.7387 263.28 78.7457 263.281C78.7547 263.281 78.7637 263.284 78.7727 263.284C78.7817 263.284 78.7887 263.276 78.7977 263.276C78.8957 263.269 78.9857 263.242 79.0627 263.188C79.0697 263.182 79.0757 263.174 79.0837 263.168C79.1587 263.108 79.2197 263.029 79.2507 262.931L80.4197 259.132L124.793 263.282C124.809 263.284 124.824 263.284 124.84 263.284C125.06 263.284 125.256 263.14 125.319 262.925L146.96 189.174L189.769 188.793H192.706C203.587 188.793 213.946 184.106 221.13 175.933C228.314 167.761 231.633 156.884 230.236 146.094L224.529 117.437Z" fill="black"/>
<path fill-rule="evenodd" clip-rule="evenodd" d="M120.108 280.906H110.289C105.788 280.906 101.367 279.712 97.478 277.447L78.7541 266.54C76.4411 267.638 72.7661 268.945 72.7661 268.945L57.3081 272.435C54.5451 273.059 52.1051 274.447 50.1971 276.351L33.3551 266.54C31.0411 267.638 27.3661 268.945 27.3661 268.945L11.9091 272.435C5.6181 273.856 0.998102 279.228 0.537102 285.661H45.9371V285.66V285.661H120.323L120.108 280.906Z" fill="#FCBD21"/>
<path fill-rule="evenodd" clip-rule="evenodd" d="M45.4779 285.161H1.084C1.739 279.147 6.074 274.265 12.019 272.923L27.534 269.416C27.68 269.364 31.02 268.173 33.329 267.104L49.3761 276.452C47.2208 278.794 45.8186 281.817 45.4779 285.161ZM46.4839 285.161H119.8L119.63 281.406H110.289C105.705 281.406 101.188 280.186 97.226 277.878L78.729 267.104C76.9312 267.937 74.5085 268.843 73.4547 269.228C73.1552 269.337 72.9663 269.404 72.934 269.416L57.418 272.923C54.815 273.511 52.44 274.818 50.55 276.705L50.278 276.977L50.2632 276.968C48.1875 279.154 46.8277 282.001 46.4839 285.161ZM50.1011 275.716L50.121 275.728C52.097 273.852 54.536 272.548 57.198 271.947L72.656 268.457C72.6548 268.457 72.7001 268.44 72.7847 268.409C73.4489 268.167 76.5354 267.04 78.54 266.088L78.778 265.975L97.73 277.014C101.538 279.233 105.881 280.406 110.289 280.406H120.586L120.846 286.161H0L0.0380001 285.625C0.519 278.924 5.245 273.427 11.799 271.947L27.256 268.457C27.2548 268.457 27.3001 268.44 27.3846 268.409C28.0488 268.167 31.1353 267.04 33.14 266.088L33.378 265.975L50.1011 275.716Z" fill="black"/>
<path fill-rule="evenodd" clip-rule="evenodd" d="M218.046 201.77H154.604C150.979 201.77 148.041 198.831 148.041 195.206C148.041 191.581 150.979 188.643 154.604 188.643H218.046C221.671 188.643 224.609 191.581 224.609 195.206C224.609 198.831 221.671 201.77 218.046 201.77Z" fill="#FF5613"/>
<path fill-rule="evenodd" clip-rule="evenodd" d="M186.325 275.189C183.67 275.189 181.518 273.037 181.518 270.382V201.771H191.132V270.382C191.132 273.037 188.98 275.189 186.325 275.189Z" fill="#409B81"/>
<path fill-rule="evenodd" clip-rule="evenodd" d="M189.04 273.728C188.306 273.449 187.514 273.29 186.682 273.29C185.669 273.29 184.712 273.523 183.853 273.929C182.743 273.152 182.012 271.873 181.998 270.422H190.652C190.639 271.761 190.007 272.941 189.04 273.728ZM181.994 269.47H190.656V202.27H181.994V269.47ZM148.54 195.206C148.54 191.863 151.26 189.143 154.604 189.143H218.045C221.389 189.143 224.109 191.863 224.109 195.206C224.109 198.55 221.389 201.27 218.045 201.27H154.604C151.26 201.27 148.54 198.55 148.54 195.206ZM217.183 273.29C216.615 273.29 216.066 273.369 215.54 273.502C213.528 271.044 210.473 269.47 207.056 269.47H191.608V202.27H218.045C221.94 202.27 225.109 199.101 225.109 195.206C225.109 191.311 221.94 188.143 218.045 188.143H154.604C150.709 188.143 147.54 191.311 147.54 195.206C147.54 199.101 150.709 202.27 154.604 202.27H181.041V269.47H165.594C162.177 269.47 159.121 271.043 157.109 273.502C156.583 273.368 156.035 273.29 155.467 273.29C151.796 273.29 148.82 276.266 148.82 279.937C148.82 283.608 151.796 286.585 155.467 286.585C159.138 286.585 162.115 283.608 162.115 279.937C162.115 277.198 160.457 274.848 158.091 273.83C159.926 271.746 162.606 270.422 165.594 270.422H181.045C181.058 272.036 181.81 273.463 182.966 274.425C181.197 275.619 180.035 277.643 180.035 279.937C180.035 283.608 183.011 286.585 186.682 286.585C190.353 286.585 193.33 283.608 193.33 279.937C193.33 277.47 191.983 275.322 189.987 274.175C190.974 273.223 191.593 271.895 191.604 270.422H207.056C210.044 270.422 212.723 271.746 214.559 273.83C212.193 274.848 210.535 277.198 210.535 279.937C210.535 283.608 213.511 286.585 217.183 286.585C220.854 286.585 223.83 283.608 223.83 279.937C223.83 276.266 220.854 273.29 217.183 273.29Z" fill="black"/>
<path fill-rule="evenodd" clip-rule="evenodd" d="M176.5 46.7362C176.5 46.7362 180.034 44.1591 179.406 33.5162C179.406 33.5162 184.995 36.4357 191.093 31.4993L192.5 46.6133C192.5 46.6133 188.272 51.9731 183.839 51.4533C179.406 50.9335 176.5 46.7362 176.5 46.7362Z" fill="#0065FC"/>
<path fill-rule="evenodd" clip-rule="evenodd" d="M179.618 32.1575C183.168 34.0897 186.873 33.4235 190.799 30.1117C191.111 29.8489 191.551 30.076 191.591 30.5201L192.997 46.2699C193.012 46.4301 192.968 46.5899 192.876 46.711C189.959 50.5642 186.923 52.332 183.786 51.9487C180.692 51.5707 178.123 49.8497 176.104 46.8105C175.926 46.5435 175.982 46.1583 176.226 45.9735C178.385 44.3327 179.315 39.9233 178.907 32.7193C178.882 32.2794 179.274 31.9699 179.618 32.1575ZM191.854 46.348L190.55 32L190.285 32.199C186.722 34.8029 183.246 35.4147 179.9 34.0061L179.752 33.9417L179.776 34.5369C179.975 40.6673 179.094 44.732 177.061 46.7146L177 46.7713L177.137 46.9575C178.846 49.2141 180.921 50.5258 183.38 50.9095L183.718 50.956C186.508 51.2909 189.263 49.7152 192 46.1638L191.854 46.348Z" fill="black"/>
<path fill-rule="evenodd" clip-rule="evenodd" d="M183.71 34.4031C176.964 34.4031 171.495 28.6031 171.495 21.4491C171.495 14.2951 176.964 8.49512 183.71 8.49512C190.456 8.49512 195.924 14.2951 195.924 21.4491C195.924 28.6031 190.456 34.4031 183.71 34.4031Z" fill="#0065FC"/>
<path fill-rule="evenodd" clip-rule="evenodd" d="M183.71 8.991C177.248 8.991 171.991 14.579 171.991 21.449C171.991 28.319 177.248 33.907 183.71 33.907C190.172 33.907 195.429 28.319 195.429 21.449C195.429 14.579 190.172 8.991 183.71 8.991ZM183.71 34.898C176.702 34.898 171 28.865 171 21.449C171 14.033 176.702 8 183.71 8C190.718 8 196.42 14.033 196.42 21.449C196.42 28.865 190.718 34.898 183.71 34.898Z" fill="black"/>
<path fill-rule="evenodd" clip-rule="evenodd" d="M180.288 25.6057C180.268 25.6057 180.248 25.6047 180.227 25.6027L178.185 25.3547C178.042 25.3367 177.913 25.2587 177.832 25.1387C177.751 25.0197 177.725 24.8707 177.762 24.7307L178.381 22.3787C178.452 22.1127 178.726 21.9537 178.992 22.0227C179.258 22.0937 179.418 22.3667 179.348 22.6337L178.875 24.4307L180.348 24.6087C180.622 24.6427 180.817 24.8917 180.784 25.1657C180.753 25.4197 180.538 25.6057 180.288 25.6057Z" fill="black"/>
<path fill-rule="evenodd" clip-rule="evenodd" d="M183.71 21.1662C183.71 21.7692 183.403 22.2572 183.024 22.2572C182.645 22.2572 182.338 21.7692 182.338 21.1662C182.338 20.5632 182.645 20.0752 183.024 20.0752C183.403 20.0752 183.71 20.5632 183.71 21.1662Z" fill="black"/>
<path fill-rule="evenodd" clip-rule="evenodd" d="M177.05 21.1662C177.05 21.7692 176.743 22.2572 176.363 22.2572C175.985 22.2572 175.677 21.7692 175.677 21.1662C175.677 20.5632 175.985 20.0752 176.363 20.0752C176.743 20.0752 177.05 20.5632 177.05 21.1662Z" fill="black"/>
<path fill-rule="evenodd" clip-rule="evenodd" d="M184.735 18.736C184.619 18.736 184.504 18.696 184.409 18.615C183.457 17.797 182.357 17.808 182.347 17.8C182.063 17.792 181.844 17.585 181.839 17.31C181.835 17.035 182.051 16.807 182.326 16.8C182.393 16.802 183.807 16.78 185.061 17.857C185.27 18.037 185.294 18.352 185.114 18.562C185.015 18.677 184.876 18.736 184.735 18.736Z" fill="black"/>
<path fill-rule="evenodd" clip-rule="evenodd" d="M174.652 18.7362C174.511 18.7362 174.372 18.6772 174.273 18.5622C174.093 18.3522 174.117 18.0362 174.326 17.8572C175.58 16.7802 177.002 16.7992 177.061 16.8002C177.338 16.8072 177.556 17.0362 177.549 17.3122C177.543 17.5842 177.32 17.8002 177.049 17.8002C177.046 17.8002 177.042 17.7992 177.038 17.8002C176.986 17.8002 175.914 17.8122 174.978 18.6152C174.883 18.6962 174.768 18.7362 174.652 18.7362Z" fill="black"/>
<path fill-rule="evenodd" clip-rule="evenodd" d="M180.307 31.1264C179.838 31.1264 179.317 31.0354 178.747 30.8524C178.484 30.7684 178.339 30.4864 178.424 30.2234C178.508 29.9614 178.787 29.8164 179.053 29.9004C180.088 30.2324 180.864 30.1984 181.358 29.8004C181.82 29.4274 181.999 28.7894 182.064 28.2624C180.391 29.0794 178.709 28.4984 177.967 27.9994C177.737 27.8454 177.677 27.5344 177.83 27.3054C177.984 27.0774 178.294 27.0154 178.523 27.1684C178.603 27.2214 180.456 28.4144 182.271 26.9484C182.414 26.8334 182.608 26.8054 182.778 26.8764C182.948 26.9474 183.064 27.1054 183.083 27.2884C183.092 27.3784 183.291 29.5224 181.99 30.5754C181.536 30.9424 180.973 31.1264 180.307 31.1264Z" fill="black"/>
<path fill-rule="evenodd" clip-rule="evenodd" d="M252.817 85.6069L226.084 93.3099L227.783 97.292C227.783 97.292 209.904 85.2109 204.427 80.5409C198.951 75.8699 195.085 63.4669 192.508 59.6009C189.931 55.7349 184.454 56.0569 183.005 57.7089C181.555 59.3599 182.682 60.5669 182.682 60.5669C182.682 60.5669 173.823 55.2519 170.602 59.1179C167.38 62.9829 173.018 66.8489 173.018 66.8489C173.018 66.8489 163.837 62.8219 162.375 67.1709C160.913 71.5209 166.414 73.9369 166.414 73.9369C165.528 73.7149 164.631 74.115 163.919 74.613C162.825 75.378 162.072 76.5919 162.011 77.9249C161.828 81.9999 167.326 83.128 168.99 83.376C165.376 82.993 164.481 86.9019 164.481 86.9019C163.918 92.4599 170.28 92.1379 170.28 92.1379C183.73 90.9299 192.025 97.7749 192.025 97.7749C192.025 97.7749 212.481 132.406 238.092 129.185C263.702 125.963 252.817 85.6069 252.817 85.6069ZM126.307 80.057C124.696 86.661 124.562 88.5109 124.562 88.5109L114.406 85.2189C114.406 85.2189 90.5484 118.554 110.36 130.957C130.172 143.359 145.474 93.7489 145.474 93.7489C145.474 93.7489 148.842 90.8479 151.83 86.9069L155.974 70.4329C155.515 69.2599 154.978 68.7819 154.978 68.7819C154.978 68.7819 155.488 69.1049 156.218 69.4609L158.314 61.1279C156.312 59.7809 153.264 58.5519 148.696 57.6679C133.716 54.7689 127.918 73.453 126.307 80.057Z" fill="#0065FC"/>
<path fill-rule="evenodd" clip-rule="evenodd" d="M147.419 91.919L147.032 94.811L142.938 118.791H209.941C199.02 109.603 192.024 97.776 192.024 97.776C192.024 97.776 183.729 90.93 170.279 92.138C170.279 92.138 163.917 92.461 164.481 86.902C164.481 86.902 165.375 82.993 168.99 83.377C167.325 83.128 161.827 82.001 162.011 77.925C162.071 76.592 162.825 75.378 163.918 74.613C164.63 74.115 165.527 73.715 166.414 73.937C166.414 73.937 160.912 71.521 162.375 67.172C163.836 62.823 173.018 66.85 173.018 66.85C173.018 66.85 167.38 62.984 170.602 59.118C173.823 55.252 182.682 60.568 182.682 60.568C182.682 60.568 181.554 59.361 183.004 57.71C184.454 56.058 189.93 55.736 192.507 59.602C195.085 63.467 198.95 75.87 204.427 80.541C207.761 83.385 215.686 88.971 221.381 92.909L219.736 80.617L225.019 93.617L226.083 93.31L252.816 85.607L255.045 84.966L245.474 71.007C234.527 55.043 216.415 45.5 197.057 45.5H192.36C191.102 48.149 187.988 50.029 184.334 50.041C180.679 50.029 177.565 48.149 176.308 45.5H171.61C152.253 45.5 132.098 54.751 121.152 70.715L112.307 84.539L123.115 88.043L124.562 88.511C124.562 88.511 124.695 86.662 126.306 80.058C127.917 73.454 133.715 54.769 148.695 57.669C163.675 60.568 162.375 67.172 161.098 69.517C159.822 71.861 154.977 68.783 154.977 68.783C154.977 68.783 157.715 71.199 156.105 78.599C154.969 83.815 150.163 89.191 147.419 91.919Z" fill="#EFF2F7"/>
<path fill-rule="evenodd" clip-rule="evenodd" d="M170.279 92.138C170.279 92.138 163.917 92.46 164.48 86.902C164.48 86.902 165.375 82.993 168.989 83.376C167.325 83.128 161.827 82 162.01 77.925C162.071 76.592 162.824 75.378 163.918 74.613C164.63 74.115 165.527 73.715 166.413 73.937C166.413 73.937 160.912 71.521 162.374 67.172C163.836 62.823 173.017 66.849 173.017 66.849C173.017 66.849 167.38 62.984 170.601 59.118C173.393 55.767 180.411 59.309 182.235 60.314L182.337 59.909C182.201 59.436 182.208 58.739 182.838 57.918L183.423 55.59C183.773 54.199 182.929 52.788 181.539 52.439L164.268 48.095C162.878 47.745 161.467 48.589 161.117 49.979L151.731 87.297C151.382 88.687 152.225 90.098 153.615 90.448L170.886 94.791C172.277 95.141 173.687 94.298 174.037 92.907L174.259 92.023C172.985 91.992 171.667 92.013 170.279 92.138Z" fill="#FF5613"/>
<path fill-rule="evenodd" clip-rule="evenodd" d="M163.21 52.503C163.009 53.301 163.493 54.11 164.291 54.311C165.088 54.511 165.898 54.0271 166.098 53.2301C166.299 52.4321 165.815 51.623 165.017 51.422C164.22 51.222 163.411 51.706 163.21 52.503Z" fill="#EFF2F7"/>
<path fill-rule="evenodd" clip-rule="evenodd" d="M163.694 52.6249C163.561 53.1539 163.883 53.6919 164.412 53.8259C164.669 53.8899 164.934 53.8509 165.161 53.7149C165.388 53.5799 165.548 53.3639 165.612 53.1069C165.677 52.8519 165.638 52.5849 165.502 52.3589C165.367 52.1319 165.151 51.9719 164.894 51.9069C164.365 51.7709 163.827 52.0959 163.694 52.6249ZM164.657 54.8559C164.494 54.8559 164.33 54.8359 164.168 54.7949C163.104 54.5279 162.457 53.4449 162.724 52.3809C162.992 51.3169 164.074 50.6679 165.139 50.9379C165.654 51.0669 166.088 51.3899 166.361 51.8459C166.633 52.3009 166.712 52.8359 166.582 53.3519C166.453 53.8669 166.13 54.3009 165.674 54.5739C165.362 54.7609 165.012 54.8559 164.657 54.8559Z" fill="black"/>
<path fill-rule="evenodd" clip-rule="evenodd" d="M209.356 118.291H143.531L147.528 94.8771L148.003 91.3281C147.577 91.7651 147.181 92.1601 146.839 92.4891L146.54 94.7271L142.445 118.707C142.42 118.852 142.461 119.001 142.556 119.113C142.651 119.226 142.791 119.291 142.938 119.291H210.534C210.134 118.962 209.746 118.626 209.356 118.291Z" fill="black"/>
<path fill-rule="evenodd" clip-rule="evenodd" d="M255.457 84.683L245.886 70.725C234.842 54.617 216.588 45 197.057 45H192.359C192.166 45 191.991 45.112 191.908 45.286C190.686 47.86 187.712 49.531 184.335 49.541C180.955 49.531 177.981 47.86 176.759 45.286C176.677 45.112 176.501 45 176.308 45H171.61C151.301 45 131.333 54.983 120.73 70.446L111.885 84.27C111.802 84.4 111.783 84.562 111.836 84.708C111.888 84.854 112.005 84.967 112.152 85.015L114.107 85.649C114.297 85.37 114.405 85.22 114.405 85.22L124.561 88.512C124.561 88.512 124.573 88.359 124.624 88.006L113.077 84.264L121.564 70.998C131.977 55.813 151.621 46 171.61 46H175.999C177.462 48.758 180.693 50.53 184.335 50.541C187.974 50.53 191.205 48.758 192.668 46H197.057C216.258 46 234.203 55.454 245.061 71.29L254.24 84.677L225.312 93.012L220.199 80.429C220.104 80.195 219.849 80.069 219.608 80.134C219.364 80.199 219.207 80.434 219.24 80.683L220.825 92.525C221.205 92.787 221.576 93.044 221.937 93.293L220.753 84.449L224.555 93.805C224.651 94.043 224.91 94.168 225.157 94.098L226.281 93.774L226.083 93.31L252.816 85.608C252.816 85.608 252.862 85.778 252.94 86.093L255.183 85.446C255.337 85.402 255.461 85.286 255.516 85.135C255.569 84.983 255.548 84.815 255.457 84.683Z" fill="black"/>
<path fill-rule="evenodd" clip-rule="evenodd" d="M125.821 79.9389C125.113 82.8419 124.689 84.8279 124.436 86.1509C124.321 86.7259 124.205 87.2879 124.087 87.8319L114.56 84.7439C114.352 84.6759 114.126 84.7509 114 84.9279C113.963 84.9789 110.324 90.0909 107.096 96.9489C104.103 103.309 100.857 112.522 102.395 120.301C103.332 125.041 105.923 128.769 110.095 131.381C112.293 132.757 114.531 133.446 116.787 133.446C118.164 133.446 119.548 133.189 120.932 132.674C127.079 130.387 133.161 123.153 139.011 111.171C143.037 102.924 145.554 95.1529 145.909 94.0339C146.497 93.5189 149.128 91.1459 151.663 87.9529C151.661 87.7359 151.677 87.5169 151.732 87.2969L152.16 85.5969C149.088 89.9429 145.208 93.3189 145.149 93.3699C145.077 93.4309 145.025 93.5119 144.997 93.6019C144.895 93.9299 134.708 126.483 120.583 131.737C117.238 132.98 113.888 132.575 110.626 130.533C106.697 128.073 104.258 124.566 103.376 120.109C100.717 106.659 112.85 88.3639 114.604 85.8089L123.868 88.8119C120.868 101.967 117.013 105.564 116.956 105.616C116.75 105.797 116.729 106.112 116.91 106.32C117.009 106.433 117.148 106.491 117.287 106.491C117.404 106.491 117.521 106.45 117.616 106.367C117.797 106.209 121.789 102.574 124.879 88.8849C124.98 88.7989 125.05 88.6819 125.06 88.5479C125.061 88.5369 125.124 87.7939 125.547 85.6909C125.55 85.6769 125.552 85.6629 125.555 85.6479C125.813 84.3679 126.204 82.5909 126.793 80.1759C128.63 72.6429 134.437 55.4179 148.601 58.1589C152.796 58.9709 156.026 60.1559 158.183 61.6499L158.444 60.6109C156.186 59.1359 152.965 57.9849 148.791 57.1779C133.779 54.2719 127.726 72.1269 125.821 79.9389ZM155.244 68.3599L151.414 65.9149C151.354 65.8759 151.289 65.8539 151.222 65.8429C147.525 62.8619 141.823 62.4289 141.481 62.4059C141.202 62.4019 140.968 62.5959 140.949 62.8709C140.93 63.1469 141.138 63.3849 141.414 63.4039C141.526 63.4109 152.607 64.2519 153.312 71.4689C153.983 78.3249 152.77 80.1739 151.988 80.6659C151.336 81.0759 150.403 80.9179 149.216 80.2019C149.429 77.9419 148.799 75.0189 147.308 71.4369C145.08 66.0809 137.545 67.4839 137.224 67.5469C136.954 67.5999 136.777 67.8619 136.83 68.1329C136.883 68.4039 137.142 68.5809 137.416 68.5279C137.486 68.5159 144.47 67.2189 146.391 71.8359C149.189 78.5609 148.836 82.7159 145.384 84.1719C144.765 84.3659 143.012 84.7049 142.349 83.9379C142.347 83.9359 142.344 83.9349 142.342 83.9329C143.155 81.5219 143.26 78.3669 142.949 76.1969C142.227 71.1579 134.531 71.6629 134.203 71.6849C133.928 71.7049 133.721 71.9439 133.741 72.2189C133.761 72.4949 134 72.7099 134.276 72.6819C134.346 72.6749 141.369 72.2189 141.96 76.3379C142.411 79.4869 141.891 84.7759 139.771 86.1029C138.954 86.6129 137.919 86.4519 136.695 85.6239C133.196 83.2549 136.514 77.2219 136.549 77.1609C136.683 76.9199 136.597 76.6159 136.356 76.4809C136.116 76.3459 135.811 76.4309 135.676 76.6719C135.623 76.7679 135.169 77.6009 134.758 78.7619C134.323 78.5669 134.185 77.4619 134.228 76.7679C134.246 76.4929 134.037 76.2549 133.761 76.2369C133.486 76.2119 133.249 76.4269 133.23 76.7029C133.214 76.9539 133.106 79.1729 134.392 79.6959C134.414 79.7049 134.437 79.7029 134.459 79.7089C133.851 81.9189 133.691 84.7979 136.134 86.4519C137.167 87.1509 138.038 87.3939 138.75 87.3939C139.398 87.3939 139.914 87.1929 140.301 86.9509C140.995 86.5169 141.537 85.7909 141.956 84.9019C142.484 85.2799 143.156 85.4099 143.794 85.4099C144.767 85.4099 145.641 85.1379 145.729 85.1089C147.509 84.3599 148.615 83.0689 149.05 81.2499C149.828 81.6679 150.541 81.8909 151.176 81.8909C151.669 81.8909 152.118 81.7649 152.52 81.5119C154.258 80.4199 154.859 77.0079 154.307 71.3719C154.195 70.2239 153.86 69.2269 153.374 68.3519L154.664 69.1759C154.763 69.2769 155.345 69.9219 155.742 71.3559L156.343 68.9649C155.885 68.7379 155.491 68.5159 155.246 68.3599C155.245 68.3599 155.245 68.3599 155.244 68.3599ZM250.33 121.445C247.558 125.574 243.42 128.011 238.029 128.689C213.042 131.826 192.658 97.8649 192.455 97.5219C192.426 97.4719 192.388 97.4269 192.343 97.3899C192.027 97.1289 185.052 91.4919 173.502 91.4919C172.457 91.4919 171.373 91.5389 170.256 91.6389C170.225 91.6439 167.382 91.7579 165.88 90.1739C165.143 89.3979 164.841 88.3139 164.968 87.0139C165.002 86.8689 165.779 83.6749 168.736 83.8469C169.121 83.9079 169.374 83.9329 169.428 83.9389C169.474 83.9429 169.517 83.9329 169.561 83.9249C171.976 84.3379 175.964 85.0869 178.429 85.9089C178.482 85.9259 178.535 85.9349 178.588 85.9349C178.797 85.9349 178.992 85.8019 179.062 85.5929C179.149 85.3309 179.008 85.0469 178.746 84.9599C175.047 83.7269 168.28 82.6959 167.699 82.6089C165.579 82.0869 162.382 80.8229 162.511 77.9479C162.562 76.8229 163.195 75.7299 164.205 75.0229C164.99 74.4739 165.693 74.2729 166.293 74.4219C166.309 74.4259 166.325 74.4219 166.342 74.4249C166.358 74.4269 166.371 74.4359 166.387 74.4369C166.415 74.4379 167.551 74.5099 169.415 74.8759L177.921 77.5349C178.945 77.9739 180.003 78.4699 181.09 79.0409C181.164 79.0799 181.243 79.0989 181.322 79.0989C181.502 79.0989 181.675 79.0019 181.764 78.8309C181.893 78.5869 181.799 78.2849 181.554 78.1559C173.748 74.0519 167.379 73.5009 166.538 73.4439C165.899 73.1449 161.621 70.9849 162.849 67.3309C163.059 66.7049 163.465 66.2669 164.088 65.9909C166.901 64.7439 172.759 67.2819 172.817 67.3079C172.829 67.3129 172.842 67.3119 172.854 67.3159C172.865 67.3199 172.873 67.3279 172.884 67.3319C172.923 67.3419 175.076 67.9479 177.716 69.0639L180.609 70.4269C181.808 71.0579 182.991 71.7759 184.028 72.5789C184.119 72.6489 184.227 72.6829 184.334 72.6829C184.483 72.6829 184.631 72.6159 184.73 72.4889C184.899 72.2709 184.859 71.9569 184.64 71.7879C180.387 68.4969 174.026 66.6169 173.239 66.3929C172.835 66.0989 170.438 64.2709 170.138 62.0919C170.009 61.1469 170.286 60.2789 170.986 59.4389C173.897 55.9429 182.341 60.9449 182.426 60.9969C182.433 61.0019 182.443 61.0019 182.451 61.0059C182.458 61.0099 182.463 61.0169 182.471 61.0209C182.505 61.0369 185.919 62.6509 189.079 65.6069C189.175 65.6979 189.298 65.7419 189.42 65.7419C189.553 65.7419 189.687 65.6889 189.785 65.5839C189.974 65.3819 189.964 65.0659 189.761 64.8769C186.747 62.0559 183.602 60.4589 183 60.1659C182.84 59.9489 182.397 59.1599 183.381 58.0389C183.976 57.3609 185.461 56.9549 186.999 57.0599C189.135 57.2009 190.992 58.2289 192.092 59.8789C192.927 61.1319 193.92 63.3479 195.069 65.9129C197.429 71.1789 200.366 77.7329 204.103 80.9209C208.715 84.8549 222.215 94.1079 226.309 96.8959C226.382 96.9469 226.469 97.0059 226.576 97.0779C227.143 97.4629 227.48 97.6899 227.503 97.7069C227.562 97.7469 227.632 97.7499 227.698 97.7609C229.282 98.6499 231.86 99.7939 234.629 99.7939C234.882 99.7939 235.137 99.7839 235.393 99.7639C235.668 99.7419 235.874 99.5009 235.852 99.2259C235.83 98.9509 235.591 98.7519 235.314 98.7669C234.798 98.8079 234.283 98.7969 233.776 98.7509L228.399 96.9959C228.308 96.9469 228.223 96.8989 228.138 96.8509L226.765 93.6339L252.459 86.2309C253.299 89.6739 257.867 110.218 250.33 121.445ZM255.44 98.9209C254.907 91.4999 253.316 85.5369 253.3 85.4769C253.265 85.3479 253.179 85.2379 253.063 85.1719C252.945 85.1059 252.807 85.0879 252.678 85.1269L225.945 92.8299C225.807 92.8689 225.694 92.9659 225.632 93.0959C225.571 93.2249 225.568 93.3749 225.624 93.5059L226.654 95.9209C222.325 92.9709 209.248 83.9949 204.752 80.1609C201.186 77.1189 198.301 70.6789 195.982 65.5029C194.814 62.8969 193.806 60.6469 192.924 59.3239C191.65 57.4129 189.514 56.2239 187.065 56.0619C185.186 55.9399 183.441 56.4549 182.629 57.3789C181.952 58.1499 181.744 58.8839 181.766 59.4959C179.165 58.1579 172.97 55.4979 170.218 58.7979C169.339 59.8529 168.979 61.0079 169.148 62.2309C169.324 63.5059 170.053 64.6419 170.808 65.5099C168.691 64.8519 165.653 64.2049 163.683 65.0759C162.801 65.4659 162.202 66.1179 161.901 67.0129C160.899 69.9949 162.884 72.3039 164.772 73.5879C164.401 73.7269 164.02 73.9319 163.632 74.2039C162.369 75.0859 161.577 76.4699 161.512 77.9029C161.369 81.0649 164.19 82.6009 166.506 83.3259C165.012 84.1269 164.231 85.7459 163.984 86.8519C163.815 88.5189 164.21 89.8689 165.157 90.8659C166.98 92.7829 170.17 92.6429 170.325 92.6359C182.791 91.5159 190.851 97.4959 191.643 98.1109C192.732 99.9079 211.301 129.894 234.754 129.894C235.875 129.894 237.011 129.825 238.154 129.681C243.845 128.965 248.221 126.381 251.162 122.001C255.593 115.397 255.934 105.805 255.44 98.9209Z" fill="black"/>
<path fill-rule="evenodd" clip-rule="evenodd" d="M173.72 92.015L173.528 92.779C173.393 93.315 173.057 93.767 172.582 94.051C172.107 94.335 171.55 94.417 171.014 94.282L153.744 89.938C153.207 89.803 152.756 89.467 152.471 88.993C152.187 88.518 152.105 87.961 152.24 87.424L161.627 50.107C161.863 49.168 162.709 48.54 163.636 48.54C163.803 48.54 163.971 48.561 164.14 48.603L181.411 52.948C181.947 53.082 182.399 53.418 182.683 53.893C182.967 54.368 183.049 54.925 182.914 55.461L181.758 60.058C182.331 60.359 182.681 60.567 182.681 60.567C182.681 60.567 181.554 59.36 183.004 57.709C183.144 57.549 183.331 57.407 183.54 57.274L183.932 55.717C184.136 54.909 184.012 54.069 183.584 53.354C183.156 52.639 182.475 52.133 181.667 51.929L164.396 47.585C162.727 47.164 161.028 48.182 160.608 49.851L151.222 87.168C151.019 87.977 151.142 88.816 151.57 89.532C151.998 90.247 152.679 90.753 153.488 90.956L170.758 95.3C171.012 95.364 171.269 95.396 171.525 95.396C172.082 95.396 172.631 95.245 173.121 94.952C173.837 94.524 174.343 93.843 174.546 93.035L174.799 92.029C174.447 92.015 174.081 92.018 173.72 92.015Z" fill="black"/>
<path fill-rule="evenodd" clip-rule="evenodd" d="M198.039 27.0084C196.545 29.7794 194.2 31.7414 191.124 31.7414L190.867 26.0134C190.942 26.0214 191.016 26.0364 191.093 26.0364C192.377 26.0364 193.419 25.0004 193.429 23.7184C193.433 23.2264 193.206 22.7514 192.887 22.3764C192.025 21.3654 191.307 21.2874 190.66 21.4094L190.031 15.9004C189.893 14.7004 188.878 13.7954 187.671 13.7954H175.942C173.291 13.7954 171.233 11.4894 171.528 8.85436C172.143 3.34636 175.094 -3.83764 187.405 3.85636C193.587 7.71936 197.465 11.7624 198.817 15.8724C200.026 19.5484 199.875 23.6034 198.039 27.0084Z" fill="#040226"/>
<path fill-rule="evenodd" clip-rule="evenodd" d="M191.391 26.5211L191.602 31.2241C194.024 31.0421 196.14 29.4781 197.599 26.7711C199.287 23.6411 199.558 19.7261 198.342 16.0291C197.038 12.0631 193.269 8.11007 187.141 4.28007C182.232 1.21207 178.442 0.288069 175.879 1.52807C173.232 2.80907 172.322 6.24907 172.025 8.91007C171.9 10.0261 172.258 11.1461 173.006 11.9821C173.752 12.8161 174.823 13.2951 175.943 13.2951H187.671C189.134 13.2951 190.361 14.3911 190.528 15.8441L191.101 20.8661C191.897 20.8681 192.581 21.2471 193.267 22.0521C193.699 22.5591 193.933 23.1511 193.929 23.7221C193.918 25.1741 192.805 26.3721 191.391 26.5211ZM191.125 32.2411C190.857 32.2411 190.638 32.0311 190.625 31.7641L190.368 26.0361C190.362 25.8911 190.418 25.7511 190.523 25.6511C190.628 25.5511 190.771 25.5021 190.916 25.5161L191.094 25.5371C192.099 25.5371 192.922 24.7191 192.929 23.7151C192.932 23.3841 192.782 23.0241 192.506 22.7011C191.741 21.8021 191.2 21.8171 190.753 21.9001C190.617 21.9281 190.476 21.8951 190.363 21.8121C190.251 21.7291 190.179 21.6041 190.163 21.4661L189.535 15.9571C189.426 15.0101 188.625 14.2951 187.671 14.2951H175.943C174.538 14.2951 173.196 13.6951 172.26 12.6481C171.323 11.6011 170.875 10.1971 171.031 8.79907C171.497 4.62407 173.023 1.79807 175.443 0.628069C178.338 -0.771931 182.452 0.171068 187.671 3.43207C194.002 7.39007 197.912 11.5231 199.292 15.7161C200.594 19.6731 200.297 23.8751 198.479 27.2461C196.743 30.4671 194.131 32.2411 191.125 32.2411Z" fill="black"/>
</svg>
