<svg width="794" height="1342" viewBox="0 0 794 1342" fill="none" xmlns="http://www.w3.org/2000/svg">
<path fill-rule="evenodd" clip-rule="evenodd" d="M188.281 1072.34L137.351 1258.37H311.563L348.288 1072.34H188.281ZM707.54 1267.06L695.775 1072.34H553.749L575.289 1277.98C578.827 1311.78 607.317 1337.44 641.294 1337.44C679.522 1337.44 709.849 1305.22 707.54 1267.06Z" fill="#0065FC"/>
<path fill-rule="evenodd" clip-rule="evenodd" d="M309.86 1256.29H140.073L189.868 1074.41H345.764L309.86 1256.29ZM137.353 1260.44H311.567C312.56 1260.44 313.411 1259.74 313.606 1258.77L350.327 1072.74C350.448 1072.13 350.29 1071.5 349.895 1071.02C349.501 1070.54 348.911 1070.26 348.293 1070.26H188.282C187.347 1070.26 186.529 1070.89 186.28 1071.79L135.347 1257.82C135.177 1258.44 135.31 1259.11 135.7 1259.62C136.095 1260.14 136.705 1260.44 137.353 1260.44ZM577.357 1277.76L556.058 1074.41H693.824L705.472 1267.19C706.552 1285.07 700.385 1302.1 688.11 1315.14C675.831 1328.18 659.208 1335.36 641.298 1335.36C608.281 1335.36 580.795 1310.6 577.357 1277.76ZM573.225 1278.2C576.888 1313.15 606.151 1339.52 641.298 1339.52C660.362 1339.52 678.061 1331.87 691.133 1317.99C704.201 1304.1 710.766 1285.97 709.616 1266.93L697.852 1072.21C697.785 1071.12 696.876 1070.26 695.78 1070.26H553.754C553.164 1070.26 552.603 1070.51 552.209 1070.95C551.818 1071.39 551.627 1071.97 551.69 1072.55L573.225 1278.2Z" fill="black"/>
<path fill-rule="evenodd" clip-rule="evenodd" d="M2.92102 1339.11H311.567V1258.37H137.352L136.713 1258.94C125.31 1269.2 111.257 1276.05 96.1504 1278.71L66.6921 1283.89C37.6988 1288.98 13.6554 1309.23 3.70172 1336.94L2.92102 1339.11ZM688.048 1267.98C659.482 1264.18 630.539 1264.18 601.969 1267.98C559.509 1273.62 522.8 1300.4 504.45 1339.11H785.571C767.216 1300.4 730.512 1273.62 688.048 1267.98Z" fill="#4B69FD"/>
<path fill-rule="evenodd" clip-rule="evenodd" d="M309.487 1337.03H5.87736C15.6899 1310.4 39.073 1290.85 67.053 1285.93L96.5072 1280.75C112.013 1278.03 126.397 1271.02 138.104 1260.48L309.487 1260.44V1337.03ZM2.92071 1341.19H311.563C312.709 1341.19 313.639 1340.26 313.639 1339.11V1258.37C313.639 1257.22 312.709 1256.29 311.563 1256.29H137.352C136.837 1256.29 136.343 1256.48 135.961 1256.82L135.321 1257.4C124.197 1267.41 110.526 1274.07 95.7888 1276.66L66.3346 1281.84C36.677 1287.05 11.9276 1307.89 1.74969 1336.24L0.969025 1338.41C0.740634 1339.04 0.83613 1339.75 1.22232 1340.31C1.61266 1340.86 2.24799 1341.19 2.92071 1341.19ZM782.236 1337.03H507.776C526.322 1300.42 561.398 1275.47 602.239 1270.04C630.618 1266.27 659.395 1266.27 687.774 1270.04C728.618 1275.47 763.691 1300.42 782.236 1337.03ZM504.446 1341.19H785.567C786.281 1341.19 786.941 1340.82 787.323 1340.22C787.705 1339.62 787.751 1338.86 787.444 1338.22C768.711 1298.71 731.658 1271.68 688.322 1265.92C659.582 1262.1 630.435 1262.1 601.695 1265.92C558.354 1271.69 521.301 1298.71 502.569 1338.22C502.266 1338.86 502.311 1339.62 502.693 1340.22C503.071 1340.82 503.736 1341.19 504.446 1341.19Z" fill="black"/>
<path fill-rule="evenodd" clip-rule="evenodd" d="M11.8117 1320.52H311.567V1339.11H2.92102L3.70172 1336.94C5.79877 1331.1 8.55193 1325.62 11.8117 1320.52ZM785.571 1339.11C782.456 1332.54 778.777 1326.35 774.67 1320.52H515.346C511.239 1326.35 507.56 1332.54 504.446 1339.11H785.571Z" fill="#EFF2F7"/>
<path fill-rule="evenodd" clip-rule="evenodd" d="M309.487 1337.03H5.87741C7.70039 1332.09 10.0798 1327.24 12.9617 1322.6H309.487V1337.03ZM2.92491 1341.19H311.563C312.709 1341.19 313.639 1340.26 313.639 1339.11V1320.52C313.639 1319.37 312.709 1318.44 311.563 1318.44H11.8156C11.1055 1318.44 10.4452 1318.81 10.0632 1319.4C6.62486 1324.79 3.82603 1330.45 1.74559 1336.24L0.969078 1338.41C0.740687 1339.04 0.836181 1339.75 1.22652 1340.31C1.61271 1340.86 2.24804 1341.19 2.92491 1341.19ZM782.236 1337.03H507.785C510.276 1332.14 513.175 1327.3 516.43 1322.6H773.591C776.846 1327.3 779.745 1332.14 782.236 1337.03ZM504.45 1341.19H785.571C786.285 1341.19 786.941 1340.82 787.323 1340.22C787.701 1339.62 787.747 1338.86 787.444 1338.22C784.408 1331.8 780.675 1325.45 776.369 1319.32C775.978 1318.78 775.343 1318.44 774.67 1318.44H515.346C514.674 1318.44 514.038 1318.78 513.652 1319.32C509.342 1325.45 505.617 1331.8 502.573 1338.22C502.27 1338.86 502.316 1339.62 502.694 1340.22C503.076 1340.82 503.736 1341.19 504.45 1341.19Z" fill="black"/>
<path fill-rule="evenodd" clip-rule="evenodd" d="M654.889 505.071H329.386L113.459 1238.99H337.629L472.787 759.284L540.366 1238.99H744.751L654.889 505.071Z" fill="#409B81"/>
<path fill-rule="evenodd" clip-rule="evenodd" d="M742.417 1236.91H542.168L474.909 759.492L497.054 680.983C497.366 679.878 496.722 678.732 495.618 678.42C494.513 678.117 493.367 678.753 493.055 679.853L470.893 758.433C470.852 758.524 470.814 758.62 470.785 758.724L336.055 1236.91H116.236L330.939 507.146H653.037L742.417 1236.91ZM453.332 835.983L339.622 1239.56C339.373 1240.45 338.555 1241.07 337.625 1241.07H113.462C112.806 1241.07 112.191 1240.76 111.797 1240.23C111.406 1239.71 111.286 1239.03 111.469 1238.41L327.393 504.484C327.65 503.6 328.464 502.993 329.382 502.993H654.885C655.94 502.993 656.829 503.782 656.949 504.829L746.811 1238.75C746.881 1239.34 746.695 1239.93 746.3 1240.37C745.906 1240.81 745.341 1241.07 744.751 1241.07H540.362C539.328 1241.07 538.451 1240.3 538.306 1239.28L472.114 769.401L453.34 835.958C453.336 835.966 453.336 835.975 453.332 835.983Z" fill="black"/>
<path fill-rule="evenodd" clip-rule="evenodd" d="M455.553 211.186C455.553 211.186 470.23 200.483 467.62 156.282C467.62 156.282 490.831 168.407 516.154 147.906L521.995 210.675C521.995 210.675 504.438 232.935 486.029 230.776C467.62 228.617 455.553 211.186 455.553 211.186Z" fill="#0065FC"/>
<path fill-rule="evenodd" clip-rule="evenodd" d="M468.503 150.64C483.245 158.664 498.628 155.897 514.931 142.143C516.225 141.052 518.054 141.995 518.219 143.839L524.06 209.249C524.119 209.915 523.937 210.578 523.556 211.081C511.444 227.084 498.838 234.425 485.811 232.834C472.962 231.264 462.293 224.116 453.908 211.494C453.172 210.385 453.405 208.786 454.414 208.018C463.381 201.204 467.244 182.891 465.548 152.973C465.445 151.146 467.073 149.861 468.503 150.64ZM519.312 209.574L513.898 149.986L512.798 150.812C498 161.626 483.569 164.167 469.674 158.317L469.06 158.05L469.158 160.521C469.985 185.981 466.325 202.862 457.885 211.096L457.63 211.332L458.2 212.105C465.297 221.477 473.914 226.924 484.124 228.518L485.525 228.711C497.114 230.102 508.553 223.558 519.918 208.809L519.312 209.574Z" fill="black"/>
<path fill-rule="evenodd" clip-rule="evenodd" d="M485.494 159.966C457.481 159.966 434.77 135.878 434.77 106.167C434.77 76.456 457.481 52.3684 485.494 52.3684C513.507 52.3684 536.213 76.456 536.213 106.167C536.213 135.878 513.507 159.966 485.494 159.966Z" fill="#0065FC"/>
<path fill-rule="evenodd" clip-rule="evenodd" d="M485.494 54.4279C458.66 54.4279 436.83 77.6352 436.83 106.167C436.83 134.698 458.66 157.905 485.494 157.905C512.327 157.905 534.157 134.698 534.157 106.167C534.157 77.6352 512.327 54.4279 485.494 54.4279ZM485.494 162.021C456.392 162.021 432.714 136.966 432.714 106.167C432.714 75.3676 456.392 50.3123 485.494 50.3123C514.595 50.3123 538.273 75.3676 538.273 106.167C538.273 136.966 514.595 162.021 485.494 162.021Z" fill="black"/>
<path fill-rule="evenodd" clip-rule="evenodd" d="M471.284 123.43C471.201 123.43 471.118 123.426 471.031 123.417L462.551 122.387C461.957 122.313 461.422 121.989 461.085 121.49C460.749 120.996 460.641 120.377 460.794 119.796L463.365 110.028C463.66 108.923 464.798 108.263 465.902 108.549C467.007 108.844 467.671 109.978 467.38 111.087L465.416 118.55L471.533 119.289C472.671 119.43 473.481 120.464 473.344 121.602C473.215 122.657 472.322 123.43 471.284 123.43Z" fill="black"/>
<path fill-rule="evenodd" clip-rule="evenodd" d="M485.493 104.992C485.493 107.496 484.218 109.523 482.644 109.523C481.071 109.523 479.796 107.496 479.796 104.992C479.796 102.488 481.071 100.461 482.644 100.461C484.218 100.461 485.493 102.488 485.493 104.992Z" fill="black"/>
<path fill-rule="evenodd" clip-rule="evenodd" d="M457.837 104.992C457.837 107.496 456.562 109.523 454.984 109.523C453.414 109.523 452.135 107.496 452.135 104.992C452.135 102.488 453.414 100.461 454.984 100.461C456.562 100.461 457.837 102.488 457.837 104.992Z" fill="black"/>
<path fill-rule="evenodd" clip-rule="evenodd" d="M489.75 94.8997C489.268 94.8997 488.79 94.7336 488.396 94.3972C484.443 91 479.875 91.0457 479.833 91.0124C478.654 90.9792 477.745 90.1195 477.724 88.9774C477.707 87.8353 478.604 86.8884 479.746 86.8594C480.024 86.8677 485.896 86.7763 491.103 91.2492C491.971 91.9967 492.071 93.3049 491.323 94.1771C490.912 94.6547 490.335 94.8997 489.75 94.8997Z" fill="black"/>
<path fill-rule="evenodd" clip-rule="evenodd" d="M447.88 94.9003C447.294 94.9003 446.717 94.6553 446.306 94.1777C445.559 93.3055 445.658 91.9932 446.526 91.2498C451.733 86.7769 457.638 86.8558 457.883 86.86C459.034 86.8891 459.939 87.8401 459.91 88.9863C459.885 90.116 458.959 91.013 457.834 91.013C457.821 91.013 457.805 91.0089 457.788 91.013C457.572 91.013 453.12 91.0629 449.234 94.3978C448.839 94.7342 448.362 94.9003 447.88 94.9003Z" fill="black"/>
<path fill-rule="evenodd" clip-rule="evenodd" d="M471.363 146.358C469.415 146.358 467.252 145.98 464.885 145.22C463.793 144.871 463.19 143.7 463.543 142.607C463.892 141.519 465.051 140.917 466.155 141.266C470.453 142.645 473.676 142.504 475.727 140.851C477.646 139.302 478.389 136.652 478.659 134.463C471.711 137.856 464.727 135.443 461.646 133.371C460.691 132.731 460.441 131.44 461.077 130.489C461.716 129.542 463.004 129.284 463.954 129.92C464.287 130.14 471.981 135.095 479.518 129.006C480.112 128.529 480.918 128.412 481.624 128.707C482.33 129.002 482.811 129.658 482.89 130.418C482.928 130.792 483.754 139.696 478.351 144.069C476.466 145.593 474.128 146.358 471.363 146.358Z" fill="black"/>
<path fill-rule="evenodd" clip-rule="evenodd" d="M552.566 103.311C550.099 125.958 537.326 147.778 516.426 147.778L515.358 123.989C515.67 124.022 515.973 124.085 516.297 124.085C521.629 124.085 525.956 119.782 525.997 114.462C526.01 112.415 525.067 110.442 523.747 108.889C520.167 104.69 517.181 104.362 514.499 104.869L511.883 81.9893C511.314 77.0098 507.099 73.2472 502.087 73.2472H443.71C443.71 73.2472 431.829 7.62474 445.429 9.9463C459.025 12.2679 457.87 21.3838 468.816 9.50608C479.758 -2.37581 489.052 4.16109 495.351 12.4547C501.651 20.7442 515.566 -4.606 525.466 4.65946C537.716 16.1302 531.786 25.0925 553.006 21.5541C565.517 19.4734 552.844 101.92 552.566 103.311Z" fill="#040226"/>
<path fill-rule="evenodd" clip-rule="evenodd" d="M517.531 126.098L518.407 145.63C537.41 144.239 548.339 122.929 550.503 103.086C550.507 103.028 550.519 102.97 550.528 102.912C552.305 93.4052 560.577 30.6733 553.854 23.8166C553.605 23.5591 553.484 23.5799 553.347 23.6007C538.336 26.1174 535.508 22.6413 531.43 15.7805C529.74 12.9315 527.821 9.70869 524.047 6.17859C520.334 2.70248 515.8 5.68438 509.292 10.6182C503.956 14.6633 497.906 19.2441 493.7 13.7081C489.505 8.19282 485.328 5.29814 481.279 5.1071C477.779 4.92852 474.045 6.89292 470.341 10.9131C462.879 19.0115 459.914 18.5713 454.449 15.5188C452.249 14.2854 449.508 12.7487 445.081 11.9929C444.512 11.8973 444.134 12.0219 443.723 12.4331C438.387 17.8238 441.855 50.5831 445.451 71.1697H502.088C508.163 71.1697 513.258 75.7215 513.948 81.7559L516.327 102.613C518.81 102.625 521.941 103.572 525.326 107.542C527.115 109.639 528.087 112.102 528.075 114.474C528.025 120.504 523.403 125.483 517.531 126.098ZM516.427 149.854C515.318 149.854 514.404 148.981 514.354 147.873L513.283 124.084C513.258 123.486 513.491 122.9 513.927 122.485C514.363 122.074 514.961 121.866 515.559 121.924L516.298 122.011C520.471 122.011 523.889 118.614 523.922 114.445C523.93 113.07 523.307 111.575 522.165 110.233C518.98 106.496 516.738 106.558 514.882 106.907C514.321 107.019 513.732 106.882 513.267 106.541C512.801 106.197 512.502 105.677 512.436 105.104L509.824 82.2252C509.371 78.2881 506.049 75.3228 502.088 75.3228H443.711C442.706 75.3228 441.846 74.6043 441.664 73.6159C440.646 67.9885 431.972 18.401 440.771 9.5135C442.137 8.13468 443.877 7.57402 445.779 7.90211C450.911 8.77425 454.13 10.5808 456.48 11.8932C460.28 14.0279 461.301 14.5968 467.289 8.0973C471.861 3.13025 476.624 0.709017 481.474 0.9582C486.81 1.21154 492.034 4.65442 497.005 11.1955C498.446 13.0893 500.817 11.8351 506.784 7.30823C512.83 2.72325 520.355 -2.97474 526.887 3.14271C531.089 7.07981 533.257 10.7262 535.001 13.6582C538.36 19.3147 539.752 21.6653 552.666 19.5057C554.219 19.2524 555.702 19.7591 556.844 20.9344C566.108 30.4989 555.199 100.125 554.626 103.588C552.18 125.882 539.191 149.854 516.427 149.854Z" fill="black"/>
<path fill-rule="evenodd" clip-rule="evenodd" d="M375.484 419.514C385.018 410.448 411.387 416.495 422.266 419.514H469.735V400.589H430.987L382.697 248.496H152.416L206.707 419.514H375.484Z" fill="#EFF2F7"/>
<path fill-rule="evenodd" clip-rule="evenodd" d="M469.739 419.514V400.589H430.987L389.806 270.876C397.874 266.296 433.196 245.152 444.832 219.918C447.581 213.963 449.325 208.759 450.429 204.183H460.952L457.999 188.924C457.821 188.01 457.916 187.13 458.182 186.316C463.364 189.56 469.531 191.819 473.227 187.57C474.319 186.32 475.49 184.676 476.512 182.711H524.075C527.177 182.711 529.594 185.398 529.266 188.48L527.609 204.183H547.114C627.495 204.183 702.71 243.815 748.169 310.114L783.964 362.331C785.637 364.769 783.889 368.087 780.932 368.087H652.593C651.198 368.087 649.927 367.302 649.304 366.056L641.29 350.025L649.175 408.97L657.609 458.37C657.402 458.503 657.194 458.636 656.991 458.773C656.646 458.997 656.301 459.226 655.928 459.438C614.456 482.852 427.059 420.935 427.059 420.935C427.059 420.935 425.24 420.337 422.266 419.514H469.739ZM389.806 270.876L382.701 248.496L389.806 270.876ZM372.157 431.998C371.784 430.096 371.767 427.978 372.211 425.615C372.689 423.065 373.847 421.072 375.488 419.51H349.721C356.996 428.539 372.157 431.998 372.157 431.998ZM464.598 503.547C447.543 494.518 407.159 481.22 407.159 481.22C386.554 475.543 370.222 469.824 357.279 464.288L349.721 508.564H474.892C469.872 506.23 466.329 504.465 464.598 503.547Z" fill="#409B81"/>
<path fill-rule="evenodd" clip-rule="evenodd" d="M389.806 270.877C397.874 266.296 433.192 245.153 444.832 219.919C458.004 191.358 449.067 179.103 449.067 179.103C449.067 179.103 465.947 195.935 473.227 187.571C480.506 179.211 491.71 153.599 433.574 128.396C375.442 103.195 335.162 173.754 322.705 199.087C318.868 206.887 309.827 225.916 299.151 248.496H382.701L389.806 270.877ZM768.849 368.092H655.807C655.807 368.092 697.395 436.027 655.923 459.438C614.456 482.853 427.054 420.935 427.054 420.935C427.054 420.935 376.223 404.211 372.207 425.62C371.763 427.983 371.78 430.101 372.153 432.003C372.153 432.003 356.992 428.543 349.717 419.515H206.709L198.612 394.002C189.908 423.012 183.372 467.977 219.308 483.476C255.539 499.104 285.792 483.335 310.218 454.596C324.922 462.989 346.889 472.146 379.815 481.225C379.815 481.225 420.199 494.523 437.253 503.552C454.312 512.581 644.271 602.723 740.088 531.984C835.9 461.24 768.849 368.092 768.849 368.092Z" fill="#0065FC"/>
<path fill-rule="evenodd" clip-rule="evenodd" d="M456.417 185.154C455.877 186.458 455.686 187.895 455.961 189.315L458.431 202.11H450.911C450.637 203.431 450.301 204.814 449.902 206.264H460.952C461.571 206.264 462.156 205.985 462.555 205.508C462.945 205.03 463.107 204.399 462.991 203.792L460.038 188.526C459.964 188.156 460.009 187.782 460.067 187.421C458.805 186.728 457.572 185.955 456.417 185.154Z" fill="black"/>
<path fill-rule="evenodd" clip-rule="evenodd" d="M297.864 248.496H299.151C299.363 248.052 299.566 247.62 299.774 247.176C299.143 247.624 298.491 248.044 297.864 248.496Z" fill="black"/>
<path fill-rule="evenodd" clip-rule="evenodd" d="M324.565 200.005C338.775 171.108 377.768 106.464 432.748 130.302C458.489 141.461 473.655 154.234 476.595 167.229C478.754 176.76 473.862 183.675 471.657 186.208C470.748 187.259 469.643 187.77 468.186 187.82C462.306 188.123 453.465 180.544 450.537 177.641V177.637L437.191 164.272C436.983 164.064 436.738 163.915 436.477 163.815C424.16 148.405 401.433 141.532 400.071 141.129C398.971 140.809 397.816 141.436 397.492 142.537C397.168 143.638 397.8 144.792 398.9 145.116C399.344 145.245 443.519 158.603 439.903 188.501C436.468 216.904 429.891 223.312 426.278 224.603C423.267 225.671 419.626 224.205 415.456 220.243C418.351 211.264 418.417 198.846 415.589 182.982C411.362 159.263 379.549 158.192 378.195 158.155C377.008 158.121 376.098 159.035 376.069 160.181C376.04 161.327 376.945 162.279 378.091 162.308C378.39 162.316 407.865 163.292 411.511 183.779C416.823 213.556 411.661 230.09 396.359 232.893C393.676 233.125 386.264 232.926 384.262 229.222C384.258 229.209 384.246 229.205 384.241 229.193C389.702 220.147 392.958 207.447 393.643 198.369C395.242 177.288 363.582 172.42 362.233 172.225C361.116 172.047 360.044 172.84 359.878 173.978C359.712 175.111 360.497 176.166 361.631 176.332C361.926 176.374 390.807 180.826 389.503 198.057C388.506 211.231 381.654 232.212 371.867 235.688C368.092 237.013 364.043 235.439 359.824 230.978C347.765 218.241 366.635 196.749 366.826 196.537C367.59 195.677 367.515 194.365 366.66 193.601C365.804 192.841 364.492 192.916 363.728 193.771C363.425 194.108 360.838 197.077 358.13 201.417C356.544 200.237 356.972 195.632 357.773 192.857C358.089 191.757 357.457 190.607 356.357 190.287C355.252 189.963 354.106 190.594 353.786 191.699C353.492 192.704 351.067 201.6 355.805 204.876C355.892 204.935 355.992 204.918 356.083 204.964C351.627 213.382 348.38 224.927 356.81 233.836C361.519 238.811 365.8 240.302 369.23 240.302C370.75 240.302 372.104 240.007 373.254 239.6C376.447 238.466 379.287 236.024 381.775 232.814C385.122 236.535 391.38 237.092 394.723 237.092C395.927 237.092 396.749 237.021 396.915 237.004C404.813 235.563 410.461 231.315 413.853 224.317C417.491 227.444 420.979 229.11 424.26 229.11C425.423 229.11 426.56 228.91 427.677 228.511C435.7 225.646 441.202 212.352 444.026 188.999C444.603 184.248 444.134 179.9 442.951 175.921L447.456 180.432C448.12 181.457 454.939 193.044 442.942 219.047C431.813 243.18 397.8 263.883 389.158 268.85L390.445 272.899C397.87 268.746 434.512 247.242 446.717 220.787C454.482 203.946 454.785 192.48 453.564 185.66C457.738 188.779 463.443 192.143 468.331 191.973C470.943 191.882 473.115 190.86 474.792 188.933C477.413 185.926 483.226 177.699 480.648 166.315C477.35 151.767 461.791 138.367 434.396 126.49C376.131 101.239 335.573 168.209 320.84 198.173C316.97 206.039 307.73 225.484 296.855 248.496H301.448C311.945 226.29 320.807 207.651 324.565 200.005ZM738.85 530.31C640.277 603.08 440.202 502.758 438.225 501.716C421.208 492.708 382.119 479.796 380.367 479.223C310.147 459.866 290.755 440.172 285.452 430.155C283.326 426.147 283.101 423.19 283.214 421.591H302.249C302.241 421.932 302.178 422.231 302.232 422.617C302.972 427.983 310.367 434.146 324.22 440.944C351.15 454.164 384.648 464.301 384.985 464.401C385.184 464.459 385.383 464.488 385.583 464.488C386.476 464.488 387.298 463.907 387.572 463.009C387.9 461.909 387.281 460.754 386.181 460.422C385.849 460.322 352.678 450.285 326.047 437.219C309.404 429.05 306.75 424.025 306.381 422.247C306.318 421.957 306.352 421.778 306.372 421.591H348.749C355.398 429.158 366.83 432.734 370.509 433.726C374.965 449.147 400.436 450.397 401.454 450.43L420.514 452.104C420.581 452.112 420.639 452.112 420.701 452.112C421.764 452.112 422.674 451.298 422.765 450.218C422.869 449.076 422.022 448.067 420.88 447.967L401.72 446.289C401.475 446.277 376.854 445.114 374.188 431.6C373.852 429.889 373.868 428.003 374.246 426.002C374.774 423.178 376.277 421.068 378.839 419.556C392.032 411.748 426.062 422.8 426.398 422.908C434.089 425.449 615.158 484.838 656.945 461.249C666.222 456.012 672.26 448.22 674.888 438.091C681.437 412.828 665.088 380.368 659.407 370.168H767.748C774.068 379.67 827.092 465.161 738.85 530.31ZM770.53 366.879C770.14 366.335 769.513 366.015 768.844 366.015H655.807C655.056 366.015 654.362 366.418 653.997 367.074C653.627 367.73 653.644 368.532 654.034 369.175C654.275 369.57 678.136 409.041 670.864 437.057C668.531 446.048 663.161 452.972 654.902 457.631C614.697 480.328 429.567 419.581 427.702 418.962C426.228 418.476 391.538 407.222 376.729 415.976C373.125 418.107 370.916 421.221 370.164 425.233C369.911 426.587 369.791 427.908 369.799 429.187C365.235 427.758 356.249 424.315 351.332 418.215C350.938 417.72 350.344 417.438 349.717 417.438H281.49C280.627 417.438 279.85 417.974 279.547 418.784C279.348 419.311 277.724 424.145 281.561 431.679C284.87 438.183 292.083 446.294 306.945 455.131C297.635 465.767 287.524 474.48 276.561 480.158C258.564 489.481 239.579 489.955 220.132 481.57C209.273 476.885 201.687 468.986 197.58 458.08C190.691 439.773 194.565 416.034 199.764 397.645L197.48 390.443C191.301 409.913 185.541 437.879 193.693 459.538C198.207 471.54 206.553 480.236 218.488 485.382C228.251 489.593 237.901 491.695 247.398 491.695C257.987 491.695 268.376 489.078 278.475 483.845C289.613 478.077 300.36 469.173 310.699 457.282C325.661 465.589 347.47 474.46 379.163 483.198C379.566 483.33 419.576 496.541 436.281 505.387C437.747 506.16 546.761 560.806 644.508 560.806C680.212 560.806 714.408 553.517 741.317 533.653C837.669 462.515 771.211 367.826 770.53 366.879Z" fill="black"/>
<path fill-rule="evenodd" clip-rule="evenodd" d="M785.675 361.156L749.88 308.939C704.019 242.046 628.217 202.106 547.114 202.106H529.914L531.33 188.696C531.546 186.64 530.877 184.584 529.498 183.048C528.116 181.515 526.139 180.635 524.071 180.635H477.463C476.831 182.176 476.092 183.575 475.311 184.788H524.071C524.976 184.788 525.803 185.157 526.409 185.826C527.011 186.499 527.293 187.363 527.198 188.26L525.541 203.962C525.479 204.552 525.666 205.134 526.06 205.574C526.455 206.01 527.015 206.259 527.605 206.259H547.114C626.847 206.259 701.365 245.522 746.454 311.29L782.253 363.502C782.747 364.225 782.486 364.897 782.349 365.155C782.216 365.412 781.8 366.011 780.928 366.011H652.593C651.983 366.011 651.43 365.67 651.156 365.126L643.146 349.095C642.689 348.19 641.651 347.745 640.684 348.04C639.712 348.339 639.097 349.294 639.23 350.3L647.124 409.314L655.708 459.55C655.778 459.512 655.853 459.475 655.923 459.438C657.198 458.719 658.386 457.955 659.507 457.158L651.231 408.691L644.998 362.086L647.444 366.982C648.424 368.943 650.401 370.164 652.593 370.164H657.016C656.268 368.843 655.807 368.087 655.807 368.087H768.853C768.853 368.087 769.372 368.814 770.244 370.164H780.928C783.071 370.164 785.023 368.984 786.019 367.09C787.016 365.197 786.887 362.921 785.675 361.156ZM324.839 506.488L331.902 465.098C330.561 464.538 329.249 463.977 327.978 463.42L320.329 508.215C320.23 508.817 320.396 509.436 320.79 509.901C321.185 510.371 321.766 510.641 322.376 510.641H452.07C448.561 509.05 445.571 507.65 443.154 506.488H324.839ZM516.463 187.583C515.317 187.583 514.387 188.509 514.387 189.659V202.189C514.387 203.34 515.317 204.266 516.463 204.266C517.61 204.266 518.54 203.34 518.54 202.189V189.659C518.54 188.509 517.61 187.583 516.463 187.583ZM507.116 187.583C505.97 187.583 505.04 188.509 505.04 189.659V202.189C505.04 203.34 505.97 204.266 507.116 204.266C508.266 204.266 509.192 203.34 509.192 202.189V189.659C509.192 188.509 508.266 187.583 507.116 187.583ZM497.773 187.583C496.627 187.583 495.697 188.509 495.697 189.659V202.189C495.697 203.34 496.627 204.266 497.773 204.266C498.919 204.266 499.849 203.34 499.849 202.189V189.659C499.849 188.509 498.919 187.583 497.773 187.583ZM479.082 187.583C477.936 187.583 477.006 188.509 477.006 189.659V202.189C477.006 203.34 477.936 204.266 479.082 204.266C480.228 204.266 481.158 203.34 481.158 202.189V189.659C481.158 188.509 480.228 187.583 479.082 187.583ZM488.425 187.583C487.279 187.583 486.349 188.509 486.349 189.659V202.189C486.349 203.34 487.279 204.266 488.425 204.266C489.576 204.266 490.502 203.34 490.502 202.189V189.659C490.502 188.509 489.576 187.583 488.425 187.583ZM469.735 187.583C468.593 187.583 467.658 188.509 467.658 189.659V202.189C467.658 203.34 468.593 204.266 469.735 204.266C470.885 204.266 471.811 203.34 471.811 202.189V189.659C471.811 188.509 470.885 187.583 469.735 187.583Z" fill="black"/>
<path fill-rule="evenodd" clip-rule="evenodd" d="M467.658 402.666V417.438H437.843L433.312 402.666H467.658ZM281.49 419.515H349.717C350.307 420.246 350.959 420.927 351.644 421.591H373.789C374.902 419.826 376.476 418.46 378.411 417.438H208.228L155.253 250.572H381.181L414.46 355.4V355.404L433.499 417.438H413.912C421.49 419.108 427.054 420.935 427.054 420.935C427.054 420.935 427.756 421.168 429.06 421.591H469.735C470.881 421.591 471.811 420.661 471.811 419.515V400.589C471.811 399.443 470.881 398.513 469.735 398.513H432.503L384.678 247.869C384.403 247.005 383.602 246.419 382.697 246.419H152.417C151.753 246.419 151.13 246.735 150.739 247.271C150.349 247.802 150.237 248.492 150.436 249.123L204.731 420.142C205.005 421.006 205.803 421.591 206.708 421.591H281.141C281.22 420.25 281.49 419.515 281.49 419.515Z" fill="black"/>
</svg>
