<svg width="248" height="192" viewBox="0 0 248 192" fill="none" xmlns="http://www.w3.org/2000/svg">
<path fill-rule="evenodd" clip-rule="evenodd" d="M110.441 68.8324C110.441 68.8324 115.964 65.2245 114.981 50.3244C114.981 50.3244 123.715 54.4117 133.243 47.5007L135.441 68.6604C135.441 68.6604 128.835 76.1641 121.908 75.4364C114.981 74.7087 110.441 68.8324 110.441 68.8324Z" fill="#0065FC"/>
<path fill-rule="evenodd" clip-rule="evenodd" d="M115.193 49.8715C120.84 52.514 126.737 51.6022 132.95 47.0959C133.261 46.8698 133.701 47.066 133.741 47.449L135.939 68.6086C135.953 68.7474 135.909 68.8859 135.816 68.9907C131.314 74.1047 126.655 76.4377 121.856 75.9335C117.1 75.4339 113.154 73.1617 110.046 69.1381C109.867 68.9072 109.924 68.5733 110.168 68.4138C113.652 66.1374 115.127 60.1264 114.483 50.3572C114.458 49.9776 114.849 49.7102 115.193 49.8715ZM134.92 68.492L132.833 48.4L132.421 48.6795C126.692 52.4704 121.133 53.3258 115.791 51.2176L115.529 51.111L115.542 51.3404C116.007 60.3108 114.623 66.143 111.308 68.8193L111.16 68.934L111.398 69.2216C114.152 72.4853 117.527 74.3695 121.543 74.89L121.961 74.939C126.398 75.4051 130.76 73.2208 135.066 68.3299L134.92 68.492Z" fill="black"/>
<path fill-rule="evenodd" clip-rule="evenodd" d="M121.926 51.7009C111.833 51.7009 103.651 43.0249 103.651 32.3209C103.651 21.6169 111.833 12.9399 121.926 12.9399C132.019 12.9399 140.201 21.6169 140.201 32.3209C140.201 43.0249 132.019 51.7009 121.926 51.7009Z" fill="#0065FC"/>
<path fill-rule="evenodd" clip-rule="evenodd" d="M121.926 13.4399C112.125 13.4399 104.151 21.9099 104.151 32.3209C104.151 42.7319 112.125 51.2009 121.926 51.2009C131.727 51.2009 139.701 42.7319 139.701 32.3209C139.701 21.9099 131.727 13.4399 121.926 13.4399ZM121.926 52.2009C111.573 52.2009 103.151 43.2829 103.151 32.3209C103.151 21.3579 111.573 12.4399 121.926 12.4399C132.279 12.4399 140.701 21.3579 140.701 32.3209C140.701 43.2829 132.279 52.2009 121.926 52.2009Z" fill="black"/>
<path fill-rule="evenodd" clip-rule="evenodd" d="M117.039 40.7143C114.405 40.7143 112.263 42.8583 112.263 45.4923V46.0333C112.263 46.3163 112.491 46.5453 112.774 46.5453H121.305C121.588 46.5453 121.816 46.3163 121.816 46.0333V45.4923C121.816 42.8583 119.674 40.7143 117.039 40.7143ZM111.649 24.9993C111.564 24.9993 109.477 24.9663 107.62 26.5603C107.405 26.7443 107.38 27.0683 107.564 27.2813C107.666 27.4003 107.81 27.4603 107.953 27.4603C108.071 27.4603 108.19 27.4193 108.286 27.3373C109.842 26.0013 111.624 26.0113 111.626 26.0243C111.91 25.9963 112.143 25.8053 112.148 25.5233C112.154 25.2393 111.932 25.0073 111.649 24.9993ZM123.136 28.2283C123.112 28.2323 121.357 28.2543 119.796 26.9133C119.583 26.7333 119.259 26.7553 119.074 26.9693C118.89 27.1833 118.915 27.5063 119.13 27.6923C120.882 29.1933 122.838 29.2523 123.126 29.2523H123.159C123.442 29.2453 123.666 29.0113 123.659 28.7283C123.652 28.4443 123.438 28.2183 123.136 28.2283ZM110.583 29.7763C110 29.7763 109.528 30.5263 109.528 31.4523C109.528 32.3783 110 33.1293 110.583 33.1293C111.165 33.1293 111.637 32.3783 111.637 31.4523C111.637 30.5263 111.165 29.7763 110.583 29.7763ZM120.817 29.7763C120.235 29.7763 119.764 30.5263 119.764 31.4523C119.764 32.3783 120.235 33.1293 120.817 33.1293C121.4 33.1293 121.872 32.3783 121.872 31.4523C121.872 30.5263 121.4 29.7763 120.817 29.7763ZM113.413 37.6343L116.551 38.0133C116.571 38.0173 116.593 38.0183 116.613 38.0183C116.868 38.0183 117.09 37.8263 117.12 37.5683C117.154 37.2863 116.954 37.0313 116.675 36.9973L114.12 36.6883L114.921 33.6423C114.993 33.3693 114.83 33.0893 114.556 33.0173C114.285 32.9423 114.002 33.1103 113.931 33.3823L112.98 36.9953C112.942 37.1393 112.968 37.2903 113.051 37.4133C113.135 37.5353 113.268 37.6153 113.413 37.6343Z" fill="black"/>
<path fill-rule="evenodd" clip-rule="evenodd" d="M110.441 68.8324C110.441 68.8324 115.964 65.2245 114.981 50.3244C114.981 50.3244 123.715 54.4117 133.243 47.5007L135.441 68.6604C135.441 68.6604 128.835 76.1641 121.908 75.4364C114.981 74.7087 110.441 68.8324 110.441 68.8324Z" fill="#0065FC"/>
<path fill-rule="evenodd" clip-rule="evenodd" d="M115.193 49.8715C120.84 52.514 126.737 51.6022 132.95 47.0959C133.261 46.8698 133.701 47.066 133.741 47.449L135.939 68.6086C135.953 68.7474 135.909 68.8859 135.816 68.9907C131.314 74.1047 126.655 76.4377 121.856 75.9335C117.1 75.4339 113.154 73.1617 110.046 69.1381C109.867 68.9072 109.924 68.5733 110.168 68.4138C113.652 66.1374 115.127 60.1264 114.483 50.3572C114.458 49.9776 114.849 49.7102 115.193 49.8715ZM134.92 68.492L132.833 48.4L132.421 48.6795C126.692 52.4704 121.133 53.3258 115.791 51.2176L115.529 51.111L115.542 51.3404C116.007 60.3108 114.623 66.143 111.308 68.8193L111.16 68.934L111.398 69.2216C114.152 72.4853 117.527 74.3695 121.543 74.89L121.961 74.939C126.398 75.4051 130.76 73.2208 135.066 68.3299L134.92 68.492Z" fill="black"/>
<path fill-rule="evenodd" clip-rule="evenodd" d="M118.568 12.6824C82.4607 14.4194 83.5197 42.588 83.5197 42.588C64.4607 48.653 69.5347 65.298 69.5347 65.298H112.159L116.674 51.217H116.675C109.027 48.702 103.472 41.14 103.472 32.2024C103.472 22.5414 109.962 14.4944 118.568 12.6824ZM164.092 42.588C164.092 42.588 165.221 12.5984 125.486 12.5984C125.486 12.5984 124.284 17.0414 129.646 18.8624C129.646 18.8624 128.307 24.8854 132.769 28.4534C137.231 32.0244 125.888 31.9984 131.113 49.745L129.125 50.725L133.833 65.298H178.077C178.077 65.298 183.151 48.653 164.092 42.588Z" fill="#040226"/>
<path fill-rule="evenodd" clip-rule="evenodd" d="M102.959 32.2019C102.959 41.021 108.191 48.725 116.033 51.538L111.785 64.786H69.9254C69.2974 62.306 66.6494 48.493 83.6744 43.076C83.8944 43.007 84.0394 42.8 84.0314 42.569C83.9924 41.487 83.4754 17.0159 114.455 13.5219C107.604 16.7289 102.959 24.0069 102.959 32.2019ZM118.542 12.1719C84.6824 13.8009 83.0664 38.7689 83.0084 42.217C64.1094 48.458 68.9934 65.277 69.0454 65.447C69.1104 65.663 69.3094 65.81 69.5344 65.81H112.158C112.381 65.81 112.578 65.667 112.646 65.454L117.161 51.373C117.247 51.104 117.102 50.818 116.835 50.731C109.148 48.204 103.983 40.758 103.983 32.2019C103.983 22.9749 110.161 14.9759 118.673 13.1829C118.934 13.1289 119.109 12.8819 119.075 12.6179C119.041 12.3509 118.782 12.1259 118.542 12.1719ZM177.687 64.786H134.205L129.749 50.989L131.338 50.205C131.562 50.095 131.674 49.841 131.604 49.601C128.456 38.9099 131.403 34.8889 133.164 32.4869C134.248 31.0089 135.184 29.7299 133.088 28.0539C128.937 24.7329 130.133 19.0299 130.145 18.9719C130.201 18.7179 130.057 18.4609 129.81 18.3769C125.816 17.0219 125.781 14.1499 125.911 13.1099C139.208 13.1829 149.26 16.6519 155.79 23.4249C163.875 31.8079 163.584 42.463 163.581 42.569C163.572 42.8 163.717 43.007 163.937 43.076C180.961 48.493 178.314 62.306 177.687 64.786ZM164.604 42.217C164.576 40.17 164.031 30.5059 156.539 22.7269C149.739 15.6659 139.291 12.0859 125.485 12.0859C125.253 12.0859 125.051 12.2409 124.991 12.4639C124.978 12.5119 123.792 17.1559 129.066 19.1949C128.839 20.7079 128.457 25.6599 132.448 28.8539C133.778 29.9179 133.473 30.3339 132.338 31.8819C130.489 34.4049 127.409 38.6069 130.501 49.476L128.899 50.266C128.671 50.378 128.56 50.641 128.638 50.882L133.346 65.456C133.414 65.667 133.611 65.81 133.833 65.81H178.077C178.302 65.81 178.501 65.663 178.566 65.447C178.618 65.277 183.503 48.458 164.604 42.217Z" fill="black"/>
<path fill-rule="evenodd" clip-rule="evenodd" d="M137.79 20.0827H103.779L105.547 12.5767C107.212 5.50772 113.521 0.511719 120.785 0.511719C128.047 0.511719 134.357 5.50772 136.022 12.5767L137.79 20.0827Z" fill="#409B81"/>
<path fill-rule="evenodd" clip-rule="evenodd" d="M95.9815 20.0828C81.8335 20.0828 70.3625 18.8698 70.3625 17.3728C70.3625 15.8768 81.8335 14.6628 95.9815 14.6628C110.131 14.6628 119.206 16.0438 121.6 17.3728L126.056 20.0828H95.9815Z" fill="#FF4200"/>
<path fill-rule="evenodd" clip-rule="evenodd" d="M126.199 19.572L121.849 16.925C119.976 15.885 114.428 14.84 105.647 14.385L106.046 12.694C107.664 5.823 113.725 1.024 120.784 1.024C127.845 1.024 133.906 5.823 135.524 12.694L137.144 19.572H126.199ZM70.9408 17.373C72.0948 16.443 81.2968 15.176 95.9818 15.176C110.138 15.176 119.056 16.546 121.335 17.81L124.23 19.572H95.9818C81.2978 19.572 72.0948 18.302 70.9408 17.373ZM138.289 19.967L136.521 12.46C134.793 5.123 128.322 0 120.784 0C113.247 0 106.777 5.123 105.049 12.46L104.606 14.339C101.992 14.22 99.1248 14.151 95.9818 14.151C89.1208 14.151 82.6678 14.434 77.8128 14.947C69.8508 15.79 69.8508 16.82 69.8508 17.373C69.8508 17.926 69.8508 18.956 77.8128 19.799C82.6688 20.312 89.1208 20.595 95.9818 20.595H126.056H137.791C137.947 20.595 138.095 20.523 138.192 20.401C138.289 20.278 138.324 20.119 138.289 19.967Z" fill="black"/>
<path fill-rule="evenodd" clip-rule="evenodd" d="M178.704 120.411L180.861 125.736L221.565 105.087C204.674 80.3872 173.578 66.0742 143.71 66.0742H136.461C134.521 70.1742 129.716 73.0812 124.078 73.1002C118.44 73.0812 113.635 70.1742 111.695 66.0742H104.446C74.5791 66.0742 43.4821 80.3872 26.5911 105.087L67.2951 125.736L69.4521 120.411L66.5231 142.366L60.2061 179.468H187.95L181.633 142.366L178.704 120.411Z" fill="#409B81"/>
<path fill-rule="evenodd" clip-rule="evenodd" d="M60.8141 178.952H187.341L181.126 142.454L178.194 120.48C178.16 120.222 178.321 119.98 178.571 119.912C178.821 119.852 179.081 119.977 179.179 120.216L181.127 125.024L220.807 104.893C204.609 81.6073 174.421 66.5893 143.71 66.5893H136.78C134.602 70.8513 129.658 73.5963 124.079 73.6153C118.496 73.5963 113.552 70.8513 111.374 66.5893H104.445C73.7341 66.5893 43.5461 81.6073 27.3491 104.893L67.0281 125.024L68.9751 120.216C69.0741 119.976 69.3331 119.847 69.5841 119.912C69.8341 119.98 69.9951 120.222 69.9611 120.48L67.0321 142.434L60.8141 178.952ZM187.95 179.983H60.2051C60.0541 179.983 59.9101 179.916 59.8121 179.8C59.7151 179.685 59.6741 179.531 59.6991 179.382L66.0151 142.28L68.4071 124.359L67.7701 125.931C67.7161 126.064 67.6091 126.168 67.4741 126.218C67.3401 126.269 67.1901 126.261 67.0621 126.197L26.3591 105.546C26.2261 105.479 26.1301 105.358 26.0921 105.214C26.0561 105.07 26.0831 104.917 26.1671 104.794C42.4651 80.9603 73.1911 65.5593 104.445 65.5593H111.695C111.893 65.5593 112.073 65.6743 112.158 65.8533C114.086 69.9253 118.765 72.5673 124.079 72.5843C129.389 72.5673 134.068 69.9253 135.996 65.8533C136.081 65.6743 136.262 65.5593 136.46 65.5593H143.71C174.963 65.5593 205.69 80.9603 221.988 104.794C222.072 104.917 222.099 105.07 222.063 105.214C222.025 105.358 221.929 105.479 221.797 105.546L181.092 126.197C180.965 126.259 180.815 126.27 180.681 126.218C180.546 126.168 180.439 126.064 180.385 125.931L179.748 124.359L182.142 142.299L188.456 179.382C188.481 179.531 188.44 179.685 188.343 179.8C188.244 179.916 188.101 179.983 187.95 179.983Z" fill="black"/>
<path fill-rule="evenodd" clip-rule="evenodd" d="M188.426 44.2832H181.949L169.488 92.3492H76.354L63.893 44.2832H57.416L69.877 92.3492V170.352H176.246V92.3492H175.965L188.426 44.2832Z" fill="#FCBD21"/>
<path fill-rule="evenodd" clip-rule="evenodd" d="M70.3901 169.837H175.732V92.8652H70.3901V169.837ZM176.246 170.867H69.8761C69.5931 170.867 69.3621 170.637 69.3621 170.352V92.3492C69.3621 92.0642 69.5931 91.8342 69.8761 91.8342H176.246C176.529 91.8342 176.76 92.0642 176.76 92.3492V170.352C176.76 170.637 176.529 170.867 176.246 170.867Z" fill="black"/>
<path fill-rule="evenodd" clip-rule="evenodd" d="M95.7231 169.822H150.399V158.639H95.7231V169.822Z" fill="#EEF2F8"/>
<path fill-rule="evenodd" clip-rule="evenodd" d="M96.2382 169.307H149.886V159.155H96.2382V169.307ZM150.399 170.338H95.7242C95.4402 170.338 95.2102 170.108 95.2102 169.822V158.639C95.2102 158.354 95.4402 158.123 95.7242 158.123H150.399C150.683 158.123 150.913 158.354 150.913 158.639V169.822C150.913 170.108 150.683 170.338 150.399 170.338Z" fill="black"/>
<path fill-rule="evenodd" clip-rule="evenodd" d="M93.8601 103.533H148.535V92.3494H93.8601V103.533Z" fill="#EEF2F8"/>
<path fill-rule="evenodd" clip-rule="evenodd" d="M94.3742 103.017H148.023V92.8652H94.3742V103.017ZM148.537 104.048H93.8602C93.5772 104.048 93.3462 103.818 93.3462 103.534V92.3492C93.3462 92.0642 93.5772 91.8342 93.8602 91.8342H148.537C148.82 91.8342 149.05 92.0642 149.05 92.3492V103.534C149.05 103.818 148.82 104.048 148.537 104.048Z" fill="black"/>
<path fill-rule="evenodd" clip-rule="evenodd" d="M70.2752 91.8343H75.6892L63.4952 44.7983H58.0802L70.2752 91.8343ZM76.3542 92.8643H69.8772C69.6432 92.8643 69.4382 92.7053 69.3802 92.4803L56.9192 44.4133C56.8792 44.2583 56.9122 44.0943 57.0092 43.9683C57.1062 43.8413 57.2572 43.7683 57.4162 43.7683H63.8932C64.1272 43.7683 64.3322 43.9273 64.3912 44.1533L76.8512 92.2203C76.8912 92.3753 76.8582 92.5383 76.7612 92.6643C76.6632 92.7913 76.5132 92.8643 76.3542 92.8643Z" fill="black"/>
<path fill-rule="evenodd" clip-rule="evenodd" d="M170.152 91.8343H175.567L187.761 44.7983H182.346L170.152 91.8343ZM175.965 92.8643H169.487C169.328 92.8643 169.178 92.7913 169.081 92.6643C168.983 92.5383 168.949 92.3753 168.99 92.2203L181.451 44.1533C181.51 43.9273 181.715 43.7683 181.949 43.7683H188.426C188.584 43.7683 188.735 43.8413 188.832 43.9683C188.93 44.0943 188.963 44.2583 188.923 44.4133L176.462 92.4803C176.403 92.7053 176.198 92.8643 175.965 92.8643Z" fill="black"/>
<path fill-rule="evenodd" clip-rule="evenodd" d="M219.565 106.264L203.548 114.447L202.553 112.001C202.429 111.696 202.283 111.426 202.147 111.138C202.181 110.194 202.227 109.262 202.227 108.285C202.227 92.9374 190.074 82.7934 183.713 79.0854C180.411 77.1594 176.207 79.1934 175.57 82.9704L175.506 83.3494C175.133 85.5604 176.166 87.7204 178.03 88.9594C181.971 91.5754 184.944 96.8514 184.944 96.8514L163.937 97.3854C161.306 97.4514 159.207 99.6114 159.207 102.251C159.207 104.817 161.196 106.943 163.75 107.106L181.167 108.122L159.603 109.58C156.992 109.77 154.971 111.949 154.971 114.575C154.971 117.13 156.89 119.276 159.424 119.553L180.434 121.68L163.865 123.049C161.226 123.291 159.207 125.509 159.207 128.167C159.207 131.119 161.681 133.463 164.62 133.296L181.004 132.46C181.523 137.197 171.549 136.887 167.401 137.845C165.556 138.271 164.256 139.919 164.256 141.818C164.256 143.646 165.457 145.273 167.219 145.747C169.529 146.368 173.458 146.996 179.894 146.996C180.45 146.996 181.001 146.934 181.551 146.867C192.193 165.625 217.732 204.282 238.764 186.107C266.083 162.498 219.565 106.264 219.565 106.264ZM88.8722 109.58L67.3092 108.122L84.7262 107.106C87.2802 106.943 89.2692 104.817 89.2692 102.251C89.2692 99.6114 87.1702 97.4514 84.5392 97.3854L63.5322 96.8514C63.5322 96.8514 66.5052 91.5754 70.4452 88.9594C72.3102 87.7204 73.3422 85.5604 72.9702 83.3494L72.9062 82.9704C72.2692 79.1934 68.0662 77.1594 64.7632 79.0854C58.4032 82.7934 46.2492 92.9374 46.2492 108.285C46.2492 109.262 46.2952 110.194 46.3292 111.138C46.1932 111.426 46.0462 111.696 45.9222 112.001L44.9272 114.447L28.9112 106.264C28.9112 106.264 -17.6077 162.498 9.71218 186.107C30.7442 204.282 56.2832 165.625 66.9242 146.867C67.4752 146.934 68.0262 146.996 68.5822 146.996C75.0192 146.996 78.9462 146.368 81.2572 145.747C83.0182 145.273 84.2202 143.646 84.2202 141.818C84.2202 139.919 82.9202 138.271 81.0752 137.845C76.9272 136.887 66.9532 137.197 67.4722 132.46L83.8562 133.296C86.7952 133.463 89.2692 131.119 89.2692 128.167C89.2692 125.509 87.2492 123.291 84.6102 123.049L68.0422 121.68L89.0522 119.553C91.5852 119.276 93.5042 117.13 93.5042 114.575C93.5042 111.949 91.4832 109.77 88.8722 109.58Z" fill="#0065FC"/>
<path fill-rule="evenodd" clip-rule="evenodd" d="M89.0011 119.041L67.9911 121.166C67.7271 121.192 67.5261 121.417 67.5281 121.683C67.5311 121.949 67.7361 122.169 68.0001 122.192L84.5651 123.563C86.9531 123.782 88.7551 125.76 88.7551 128.166C88.7551 129.451 88.2431 130.643 87.3121 131.525C86.3811 132.407 85.1691 132.853 83.8821 132.781L67.4981 131.945C67.2271 131.927 66.9911 132.133 66.9621 132.403C66.5101 136.522 72.4881 137.233 77.2921 137.804C78.6861 137.97 80.0021 138.126 80.9601 138.347C82.5771 138.721 83.7061 140.148 83.7061 141.818C83.7061 143.43 82.6441 144.841 81.1241 145.249C79.0301 145.812 75.1561 146.481 68.5821 146.481H68.5791C68.0631 146.48 67.5521 146.425 66.9861 146.356C66.9521 146.352 66.9231 146.371 66.8901 146.372C54.5141 144.952 47.5491 128.039 46.8311 111.179C46.8321 111.159 46.8441 111.14 46.8431 111.12L46.8211 110.53C46.7921 109.805 46.7651 109.078 46.7641 108.329C46.7641 108.315 46.7631 108.3 46.7631 108.285C46.7631 91.5434 61.1161 81.8714 64.7301 79.7054C64.8361 79.6404 64.9361 79.5824 65.0221 79.5324C66.4311 78.7094 68.0911 78.6414 69.5771 79.3374C71.0701 80.0394 72.1261 81.4304 72.4001 83.0584L72.4641 83.4354C72.7911 85.3834 71.8891 87.3844 70.1621 88.5274C66.1651 91.1824 63.2101 96.3794 63.0851 96.5984C62.9971 96.7564 62.9971 96.9494 63.0851 97.1054C63.1751 97.2634 63.3391 97.3634 63.5201 97.3684L84.5261 97.9004C86.8971 97.9614 88.7551 99.8714 88.7551 102.249C88.7551 104.539 86.9701 106.446 84.6951 106.593L67.2791 107.608C67.0091 107.623 66.7961 107.848 66.7951 108.12C66.7941 108.393 67.0041 108.618 67.2751 108.636L88.8361 110.095C91.1651 110.264 92.9911 112.233 92.9911 114.574C92.9911 116.871 91.2741 118.792 89.0011 119.041ZM24.5471 190.068C19.3161 190.978 14.4371 189.51 10.0471 185.716C-15.5247 163.617 25.3641 111.496 29.0481 106.912L44.2891 114.699C35.8081 138.471 25.8371 149.087 25.7371 149.191C25.5401 149.397 25.5471 149.724 25.7521 149.92C25.8521 150.016 25.9801 150.063 26.1081 150.063C26.2431 150.063 26.3781 150.01 26.4791 149.904C26.5811 149.797 36.8121 138.929 45.4081 114.63L45.9001 113.421C47.2101 134.062 56.3871 145.6 66.0921 147.286C57.4771 162.354 40.9741 187.22 24.5471 190.068ZM88.9071 109.067L75.5091 108.16L84.7591 107.62C87.5761 107.44 89.7831 105.08 89.7831 102.249C89.7831 99.3074 87.4861 96.9454 84.5521 96.8704L64.4341 96.3604C65.3981 94.8304 67.8091 91.3274 70.7291 89.3884C72.7941 88.0174 73.8731 85.6144 73.4771 83.2634L73.4131 82.8854C73.0821 80.9244 71.8111 79.2504 70.0131 78.4054C68.2181 77.5594 66.2111 77.6474 64.5071 78.6394H64.5051C63.9381 78.9714 62.9551 79.5754 61.7331 80.4424C56.2131 84.3584 45.7351 93.7114 45.7351 108.285C45.7351 108.3 45.7361 108.314 45.7361 108.328C45.7371 109.263 45.7561 110.176 45.7861 111.078L45.7341 111.186C45.6351 111.387 45.5351 111.589 45.4471 111.806L44.6631 113.734L29.1441 105.805C28.9291 105.695 28.6681 105.751 28.5151 105.934C28.3981 106.076 16.7511 120.237 8.60413 137.107C-2.25617 159.596 -1.98908 176.674 9.37712 186.497C13.1191 189.731 17.2061 191.36 21.5651 191.359C22.6021 191.359 23.6541 191.268 24.7211 191.082C41.6941 188.142 58.5451 162.623 67.1931 147.435C67.6541 147.481 68.1141 147.511 68.5761 147.511H68.5821C75.2681 147.511 79.2371 146.823 81.3901 146.245C83.3591 145.716 84.7331 143.896 84.7331 141.818C84.7331 139.666 83.2771 137.825 81.1911 137.343C80.1781 137.109 78.8361 136.949 77.4131 136.779C73.2971 136.291 68.2301 135.688 67.9781 133.001L83.8281 133.81C85.3891 133.889 86.8801 133.354 88.0181 132.275C89.1561 131.195 89.7831 129.737 89.7831 128.166C89.7831 125.224 87.5801 122.804 84.6531 122.536L73.6721 121.627L89.1081 120.067C91.9071 119.758 94.0191 117.399 94.0191 114.574C94.0191 111.695 91.7751 109.276 88.9071 109.067Z" fill="black"/>
<path fill-rule="evenodd" clip-rule="evenodd" d="M238.429 185.716C234.041 189.51 229.166 190.978 223.931 190.067C207.503 187.22 191 162.355 182.384 147.286C192.09 145.6 201.267 134.062 202.577 113.421L203.069 114.63C211.664 138.929 221.896 149.797 221.998 149.905C222.099 150.009 222.234 150.064 222.369 150.064C222.497 150.064 222.626 150.016 222.725 149.92C222.93 149.724 222.937 149.397 222.74 149.192C222.64 149.086 212.669 138.471 204.187 114.699L219.43 106.912C223.112 111.495 264.001 163.617 238.429 185.716ZM181.552 146.352C181.533 146.352 181.512 146.353 181.492 146.356C180.924 146.425 180.413 146.48 179.898 146.481H179.894C173.321 146.481 169.446 145.811 167.353 145.249C165.833 144.841 164.771 143.43 164.771 141.817C164.771 140.148 165.9 138.721 167.517 138.347C168.475 138.125 169.79 137.969 171.184 137.804C175.988 137.233 181.967 136.522 181.516 132.404C181.486 132.131 181.251 131.914 180.979 131.945L164.592 132.782C163.31 132.864 162.095 132.409 161.165 131.526C160.234 130.644 159.722 129.451 159.722 128.167C159.722 125.76 161.523 123.781 163.908 123.564L180.477 122.192C180.742 122.169 180.946 121.949 180.948 121.683C180.951 121.417 180.75 121.192 180.487 121.167L159.481 119.04C157.204 118.792 155.486 116.871 155.486 114.575C155.486 112.233 157.311 110.265 159.639 110.096L181.201 108.636C181.473 108.619 181.682 108.392 181.681 108.12C181.679 107.848 181.468 107.624 181.197 107.608L163.784 106.592C161.506 106.446 159.722 104.538 159.722 102.25C159.722 99.8714 161.579 97.9614 163.951 97.8994L184.958 97.3684C185.137 97.3634 185.303 97.2644 185.391 97.1054C185.481 96.9494 185.481 96.7574 185.392 96.5984C185.268 96.3794 182.312 91.1824 178.315 88.5284C176.589 87.3834 175.685 85.3844 176.014 83.4364L176.077 83.0564C176.352 81.4294 177.406 80.0394 178.899 79.3384C180.386 78.6384 182.047 78.7094 183.455 79.5314C183.761 79.7094 184.194 79.9724 184.717 80.3114C189.408 83.3424 201.713 92.7814 201.713 108.286C201.713 109.057 201.685 109.802 201.656 110.546L201.635 111.119C201.634 111.14 201.645 111.159 201.647 111.18C200.929 128.025 193.974 144.924 181.616 146.37C181.594 146.366 181.575 146.352 181.552 146.352ZM239.873 137.107C231.725 120.237 220.078 106.076 219.962 105.935C219.807 105.749 219.546 105.695 219.332 105.805L203.814 113.733L203.03 111.806C202.942 111.589 202.843 111.388 202.743 111.186L202.691 111.077C202.721 110.162 202.741 109.234 202.741 108.286C202.741 94.4374 193.281 85.3034 187.602 81.0674C185.982 79.8564 184.668 79.0454 183.972 78.6384H183.971C182.266 77.6474 180.259 77.5604 178.463 78.4054C176.665 79.2494 175.394 80.9244 175.064 82.8844L174.999 83.2634C174.604 85.6134 175.683 88.0174 177.748 89.3884C180.667 91.3274 183.079 94.8314 184.044 96.3604L163.925 96.8694C160.992 96.9454 158.694 99.3084 158.694 102.25C158.694 105.08 160.901 107.44 163.722 107.621L172.967 108.161L159.567 109.067C156.702 109.275 154.458 111.695 154.458 114.575C154.458 117.399 156.569 119.758 159.372 120.066L174.806 121.628L163.819 122.536C160.898 122.805 158.694 125.224 158.694 128.167C158.694 129.737 159.32 131.195 160.459 132.275C161.597 133.354 163.087 133.893 164.647 133.81L180.5 133.002C180.247 135.689 175.179 136.291 171.064 136.78C169.642 136.948 168.298 137.109 167.286 137.343C165.2 137.826 163.743 139.667 163.743 141.817C163.743 143.896 165.118 145.716 167.088 146.246C169.24 146.823 173.209 147.512 179.894 147.512H179.895H179.9C180.362 147.512 180.823 147.48 181.284 147.436C189.932 162.623 206.784 188.141 223.755 191.082C224.822 191.268 225.876 191.359 226.913 191.359C231.27 191.359 235.359 189.731 239.101 186.497C250.467 176.675 250.733 159.596 239.873 137.107Z" fill="black"/>
</svg>
