<svg width="547" height="568" viewBox="0 0 547 568" fill="none" xmlns="http://www.w3.org/2000/svg">
<g opacity="0.5">
<path fill-rule="evenodd" clip-rule="evenodd" d="M48.7246 326.764H161.301L163.023 355.718L219.283 371.844C229.473 374.765 238.156 381.486 243.54 390.624L324.254 527.597L255.821 534.031L253.983 528.056L190.144 534.031L159.143 428.309L97.5758 427.759H93.3886C61.2735 427.759 36.4679 399.519 40.5882 367.647L48.7246 326.764Z" fill="#4B69FD"/>
<path fill-rule="evenodd" clip-rule="evenodd" d="M197.3 533.362L249.616 528.466L250.107 530.525C250.949 534.05 252.976 537.18 255.847 539.39C257.473 540.642 259.332 541.541 261.306 542.085C260.888 539.244 260.265 536.439 259.446 533.69L312.086 528.741L313.994 532.151C315.407 534.673 317.316 536.883 319.605 538.645V538.646C322.062 540.535 324.899 541.869 327.922 542.553L351.147 547.8C360.116 549.827 366.703 557.491 367.36 566.668H196.583L197.723 541.38C197.845 538.698 197.702 536.011 197.3 533.362Z" fill="#0065FC"/>
<path fill-rule="evenodd" clip-rule="evenodd" d="M366.581 565.955H197.33L198.436 541.411C198.547 538.945 198.438 536.457 198.111 534.003L249.067 529.233L249.415 530.69C250.291 534.362 252.421 537.654 255.412 539.955C257.086 541.244 259.005 542.192 261.118 542.772L262.17 543.062L262.012 541.981C261.633 539.41 261.082 536.837 260.371 534.321L311.692 529.495L313.372 532.499C314.841 535.121 316.791 537.38 319.172 539.21C321.691 541.15 324.664 542.547 327.765 543.247L350.991 548.496C359.466 550.411 365.647 557.375 366.581 565.955ZM195.837 567.382H368.126L368.072 566.617C367.386 557.057 360.648 549.215 351.304 547.104L328.08 541.856C325.179 541.2 322.398 539.895 320.04 538.08C317.815 536.367 315.99 534.254 314.617 531.803L312.481 527.988L258.515 533.061L258.763 533.894C259.463 536.244 260.02 538.649 260.424 541.062C258.911 540.528 257.521 539.778 256.282 538.823C253.549 536.721 251.602 533.713 250.8 530.358L250.166 527.698L196.482 532.722L196.596 533.469C196.991 536.073 197.13 538.724 197.012 541.347L195.837 567.382Z" fill="black"/>
<path fill-rule="evenodd" clip-rule="evenodd" d="M171.411 358.853C171.723 358.853 172.01 358.646 172.097 358.331C172.202 357.952 171.981 357.558 171.602 357.452L159.334 354.043C158.955 353.939 158.561 354.16 158.457 354.539C158.352 354.919 158.573 355.312 158.952 355.418L171.22 358.828C171.284 358.845 171.348 358.853 171.411 358.853Z" fill="black"/>
<path fill-rule="evenodd" clip-rule="evenodd" d="M93.3871 427.046H97.5815L158.239 427.587L155.225 417.148C155.115 416.77 155.333 416.375 155.713 416.265C156.089 416.159 156.485 416.373 156.595 416.753L162.258 436.366C162.264 436.383 162.259 436.402 162.262 436.419L190.662 533.267L253.214 527.412L218.868 405.579C215.844 394.857 207.226 386.652 196.372 384.166L116.552 365.886C116.168 365.797 115.929 365.415 116.017 365.031C116.104 364.647 116.485 364.403 116.871 364.495L196.69 382.776C208.052 385.378 217.076 393.967 220.239 405.193L256.345 533.267L323.069 526.992L242.925 390.986C237.61 381.967 229.144 375.413 219.084 372.53L162.825 356.403C162.536 356.32 162.328 356.063 162.311 355.761L160.628 327.478H49.3504L41.2939 367.739C39.3564 382.728 43.9642 397.833 53.934 409.185C63.9053 420.535 78.2848 427.046 93.3871 427.046ZM48.0174 326.673C48.063 326.316 48.3653 326.051 48.7245 326.051H161.3C161.678 326.051 161.99 326.345 162.011 326.722L163.704 355.172L219.478 371.159C229.89 374.143 238.652 380.927 244.153 390.262L324.868 527.235C324.992 527.446 324.999 527.704 324.889 527.922C324.778 528.139 324.563 528.285 324.321 528.308L255.888 534.742C255.878 534.743 255.869 534.739 255.859 534.74C255.846 534.74 255.833 534.745 255.821 534.745C255.808 534.745 255.798 534.733 255.785 534.733C255.645 534.723 255.517 534.685 255.407 534.608C255.397 534.599 255.389 534.588 255.377 534.579C255.27 534.493 255.183 534.381 255.139 534.241L253.472 528.821L190.21 534.742C190.187 534.745 190.166 534.745 190.143 534.745C189.829 534.745 189.55 534.539 189.46 534.232L158.607 429.016L97.5744 428.473H93.3871C77.8742 428.473 63.1055 421.786 52.8633 410.126C42.6212 398.468 37.8893 382.95 39.881 367.556L48.0174 326.673Z" fill="black"/>
<path fill-rule="evenodd" clip-rule="evenodd" d="M196.889 559.885H210.888C217.305 559.885 223.608 558.181 229.153 554.95L255.847 539.39C259.145 540.956 264.384 542.821 264.384 542.821L286.423 547.8C290.362 548.69 293.84 550.67 296.561 553.386L320.572 539.39C323.871 540.956 329.111 542.821 329.111 542.821L351.147 547.8C360.116 549.827 366.703 557.491 367.36 566.669H302.634V566.667V566.669H196.583L196.889 559.885Z" fill="#FCBD21"/>
<path fill-rule="evenodd" clip-rule="evenodd" d="M303.289 565.955H366.581C365.647 557.375 359.466 550.411 350.991 548.496L328.871 543.493C328.663 543.419 323.901 541.719 320.609 540.194L297.731 553.531C300.804 556.872 302.803 561.185 303.289 565.955ZM301.854 565.955H197.328L197.571 560.598H210.888C217.424 560.598 223.863 558.858 229.512 555.565L255.883 540.194C258.446 541.383 261.9 542.675 263.402 543.225C263.829 543.38 264.099 543.476 264.145 543.493L286.266 548.496C289.977 549.335 293.363 551.199 296.057 553.892L296.445 554.28L296.466 554.267C299.426 557.385 301.364 561.447 301.854 565.955ZM296.697 552.481L296.669 552.498C293.852 549.821 290.375 547.961 286.579 547.104L264.541 542.125C264.543 542.125 264.478 542.1 264.358 542.056C263.411 541.711 259.01 540.103 256.152 538.745L255.813 538.584L228.793 554.332C223.364 557.498 217.173 559.172 210.888 559.172H196.208L195.837 567.382H368.126L368.072 566.617C367.386 557.057 360.648 549.215 351.304 547.104L329.267 542.125C329.269 542.125 329.205 542.1 329.084 542.056C328.137 541.711 323.737 540.103 320.879 538.745L320.539 538.584L296.697 552.481Z" fill="black"/>
<path fill-rule="evenodd" clip-rule="evenodd" d="M57.2601 446.986H147.709C152.877 446.986 157.065 442.793 157.065 437.622C157.065 432.45 152.877 428.259 147.709 428.259H57.2601C52.092 428.259 47.9033 432.45 47.9033 437.622C47.9033 442.793 52.092 446.986 57.2601 446.986Z" fill="#FF5613"/>
<path fill-rule="evenodd" clip-rule="evenodd" d="M102.484 551.729C106.27 551.729 109.338 548.659 109.338 544.871V446.988H95.6311V544.871C95.6311 548.659 98.6992 551.729 102.484 551.729Z" fill="#409B81"/>
<path fill-rule="evenodd" clip-rule="evenodd" d="M98.6137 549.644C99.6602 549.246 100.789 549.02 101.975 549.02C103.42 549.02 104.784 549.352 106.009 549.931C107.591 548.823 108.633 546.998 108.653 544.928H96.3155C96.334 546.838 97.2351 548.522 98.6137 549.644ZM108.659 543.57H96.3098V447.7H108.659V543.57ZM156.354 437.622C156.354 432.853 152.476 428.972 147.709 428.972H57.2616C52.4941 428.972 48.6162 432.853 48.6162 437.622C48.6162 442.392 52.4941 446.273 57.2616 446.273H147.709C152.476 446.273 156.354 442.392 156.354 437.622ZM58.4905 549.02C59.3003 549.02 60.083 549.132 60.833 549.322C63.7014 545.815 68.0569 543.57 72.9285 543.57H94.9525V447.7H57.2616C51.7085 447.7 47.1905 443.179 47.1905 437.622C47.1905 432.065 51.7085 427.545 57.2616 427.545H147.709C153.262 427.545 157.78 432.065 157.78 437.622C157.78 443.179 153.262 447.7 147.709 447.7H110.018V543.57H132.04C136.912 543.57 141.269 545.814 144.137 549.322C144.887 549.131 145.669 549.02 146.478 549.02C151.712 549.02 155.955 553.265 155.955 558.502C155.955 563.74 151.712 567.987 146.478 567.987C141.245 567.987 137 563.74 137 558.502C137 554.595 139.364 551.242 142.737 549.79C140.121 546.817 136.3 544.928 132.04 544.928H110.012C109.994 547.231 108.921 549.266 107.273 550.639C109.795 552.342 111.452 555.23 111.452 558.502C111.452 563.74 107.209 567.987 101.975 567.987C96.7418 567.987 92.4975 563.74 92.4975 558.502C92.4975 554.983 94.4179 551.918 97.2636 550.282C95.8564 548.924 94.9739 547.029 94.9582 544.928H72.9285C68.6685 544.928 64.8491 546.817 62.2315 549.79C65.6047 551.242 67.9685 554.595 67.9685 558.502C67.9685 563.74 63.7257 567.987 58.4905 567.987C53.2568 567.987 49.014 563.74 49.014 558.502C49.014 553.265 53.2568 549.02 58.4905 549.02Z" fill="black"/>
<path fill-rule="evenodd" clip-rule="evenodd" d="M116.492 225.809C116.492 225.809 111.453 222.132 112.349 206.949C112.349 206.949 104.38 211.114 95.6863 204.071L93.6809 225.634C93.6809 225.634 99.7086 233.28 106.029 232.539C112.349 231.797 116.492 225.809 116.492 225.809Z" fill="#0065FC"/>
<path fill-rule="evenodd" clip-rule="evenodd" d="M112.046 205.01C106.985 207.767 101.703 206.817 96.106 202.092C95.6618 201.717 95.0338 202.041 94.9773 202.674L92.9719 225.144C92.9514 225.372 93.0141 225.6 93.1449 225.773C97.3033 231.27 101.631 233.792 106.104 233.245C110.515 232.706 114.178 230.251 117.057 225.915C117.31 225.534 117.23 224.984 116.883 224.721C113.804 222.38 112.478 216.089 113.06 205.812C113.096 205.184 112.537 204.743 112.046 205.01ZM94.6018 225.255L96.4606 204.786L96.8384 205.07C101.919 208.784 106.874 209.657 111.644 207.648L111.855 207.556L111.821 208.405C111.537 217.151 112.794 222.95 115.692 225.778L115.779 225.859L115.583 226.125C113.147 229.344 110.188 231.215 106.683 231.763L106.202 231.829C102.223 232.307 98.2957 230.059 94.3938 224.992L94.6018 225.255Z" fill="black"/>
<path fill-rule="evenodd" clip-rule="evenodd" d="M106.213 208.214C115.83 208.214 123.627 199.94 123.627 189.733C123.627 179.527 115.83 171.253 106.213 171.253C96.595 171.253 88.7993 179.527 88.7993 189.733C88.7993 199.94 96.595 208.214 106.213 208.214Z" fill="#0065FC"/>
<path fill-rule="evenodd" clip-rule="evenodd" d="M106.213 171.96C115.426 171.96 122.92 179.932 122.92 189.733C122.92 199.534 115.426 207.506 106.213 207.506C97 207.506 89.5051 199.534 89.5051 189.733C89.5051 179.932 97 171.96 106.213 171.96ZM106.213 208.92C116.204 208.92 124.333 200.313 124.333 189.733C124.333 179.153 116.204 170.546 106.213 170.546C96.2215 170.546 88.0923 179.153 88.0923 189.733C88.0923 200.313 96.2215 208.92 106.213 208.92Z" fill="black"/>
<path fill-rule="evenodd" clip-rule="evenodd" d="M111.091 195.663C111.12 195.663 111.148 195.662 111.178 195.659L114.089 195.305C114.293 195.28 114.477 195.168 114.593 194.997C114.708 194.827 114.745 194.615 114.693 194.415L113.81 191.06C113.709 190.68 113.318 190.453 112.939 190.552C112.56 190.653 112.332 191.042 112.431 191.423L113.106 193.987L111.006 194.241C110.615 194.289 110.337 194.645 110.384 195.036C110.428 195.398 110.735 195.663 111.091 195.663Z" fill="black"/>
<path fill-rule="evenodd" clip-rule="evenodd" d="M106.213 189.33C106.213 190.19 106.651 190.886 107.191 190.886C107.731 190.886 108.169 190.19 108.169 189.33C108.169 188.469 107.731 187.773 107.191 187.773C106.651 187.773 106.213 188.469 106.213 189.33Z" fill="black"/>
<path fill-rule="evenodd" clip-rule="evenodd" d="M115.708 189.33C115.708 190.19 116.146 190.886 116.687 190.886C117.226 190.886 117.666 190.19 117.666 189.33C117.666 188.469 117.226 187.773 116.687 187.773C116.146 187.773 115.708 188.469 115.708 189.33Z" fill="black"/>
<path fill-rule="evenodd" clip-rule="evenodd" d="M104.751 185.863C104.917 185.863 105.081 185.806 105.216 185.69C106.574 184.523 108.142 184.539 108.156 184.527C108.561 184.516 108.873 184.221 108.88 183.828C108.886 183.436 108.578 183.111 108.186 183.101C108.09 183.104 106.075 183.072 104.287 184.609C103.989 184.866 103.955 185.315 104.211 185.615C104.352 185.779 104.55 185.863 104.751 185.863Z" fill="black"/>
<path fill-rule="evenodd" clip-rule="evenodd" d="M119.127 185.863C119.328 185.863 119.526 185.779 119.667 185.615C119.924 185.315 119.889 184.864 119.591 184.609C117.804 183.073 115.776 183.1 115.692 183.101C115.297 183.111 114.986 183.438 114.996 183.831C115.005 184.22 115.323 184.528 115.709 184.528C115.713 184.528 115.719 184.526 115.725 184.528C115.799 184.528 117.327 184.545 118.662 185.69C118.797 185.806 118.961 185.863 119.127 185.863Z" fill="black"/>
<path fill-rule="evenodd" clip-rule="evenodd" d="M111.064 203.539C111.733 203.539 112.476 203.41 113.288 203.148C113.663 203.029 113.87 202.626 113.749 202.251C113.629 201.877 113.231 201.67 112.852 201.79C111.376 202.264 110.27 202.215 109.566 201.648C108.907 201.115 108.652 200.205 108.559 199.453C110.944 200.619 113.342 199.79 114.4 199.078C114.728 198.859 114.814 198.415 114.596 198.088C114.376 197.763 113.934 197.674 113.608 197.893C113.493 197.968 110.852 199.67 108.264 197.579C108.06 197.415 107.784 197.375 107.541 197.476C107.299 197.577 107.134 197.803 107.106 198.064C107.094 198.192 106.81 201.251 108.665 202.753C109.312 203.277 110.115 203.539 111.064 203.539Z" fill="black"/>
<path fill-rule="evenodd" clip-rule="evenodd" d="M7.68761 281.264L45.8005 292.253L43.3783 297.934C43.3783 297.934 68.8682 280.699 76.6767 274.036C84.4837 267.372 89.9955 249.678 93.6695 244.162C97.3435 238.647 105.152 239.106 107.218 241.463C109.285 243.819 107.678 245.54 107.678 245.54C107.678 245.54 120.308 237.958 124.901 243.473C129.494 248.987 121.456 254.503 121.456 254.503C121.456 254.503 134.545 248.758 136.63 254.962C138.714 261.168 130.871 264.615 130.871 264.615C132.135 264.298 133.413 264.869 134.428 265.579C135.988 266.67 137.062 268.402 137.149 270.304C137.41 276.118 129.571 277.727 127.199 278.081C132.351 277.534 133.627 283.111 133.627 283.111C134.43 291.04 125.36 290.581 125.36 290.581C106.184 288.858 94.3581 298.623 94.3581 298.623C94.3581 298.623 65.1942 348.029 28.6809 343.434C-7.831 338.837 7.68761 281.264 7.68761 281.264ZM188.051 273.346C190.348 282.767 190.539 285.407 190.539 285.407L205.018 280.71C205.018 280.71 239.032 328.267 210.786 345.962C182.541 363.655 160.725 292.879 160.725 292.879C160.725 292.879 155.924 288.741 151.664 283.118L145.756 259.616C146.41 257.942 147.176 257.26 147.176 257.26C147.176 257.26 146.448 257.721 145.408 258.229L142.419 246.341C145.274 244.419 149.619 242.666 156.132 241.405C177.489 237.269 185.754 263.924 188.051 273.346Z" fill="#0065FC"/>
<path fill-rule="evenodd" clip-rule="evenodd" d="M157.952 290.268L158.504 294.394L164.341 328.605H68.8152C84.3851 315.497 94.3592 298.624 94.3592 298.624C94.3592 298.624 106.185 288.858 125.361 290.581C125.361 290.581 134.431 291.042 133.627 283.111C133.627 283.111 132.352 277.534 127.199 278.082C129.572 277.727 137.411 276.119 137.148 270.304C137.063 268.402 135.988 266.67 134.43 265.579C133.415 264.869 132.136 264.298 130.871 264.615C130.871 264.615 138.715 261.168 136.63 254.963C134.547 248.759 121.456 254.504 121.456 254.504C121.456 254.504 129.494 248.989 124.9 243.473C120.308 237.958 107.678 245.542 107.678 245.542C107.678 245.542 109.286 243.82 107.219 241.465C105.152 239.108 97.3446 238.648 93.6706 244.164C89.9952 249.678 84.4849 267.372 76.6764 274.036C71.9232 278.094 60.6246 286.063 52.5053 291.681L54.8506 274.145L47.3186 292.691L45.8017 292.253L7.68876 281.264L4.51089 280.349L18.1562 260.435C33.7632 237.66 59.5853 224.045 87.1837 224.045H93.8802C95.6737 227.824 100.113 230.507 105.323 230.524C110.534 230.507 114.973 227.824 116.765 224.045H123.463C151.06 224.045 179.795 237.243 195.401 260.018L208.011 279.74L192.603 284.739L190.54 285.406C190.54 285.406 190.35 282.769 188.053 273.347C185.756 263.926 177.49 237.269 156.133 241.406C134.776 245.542 136.629 254.963 138.45 258.309C140.269 261.653 147.177 257.262 147.177 257.262C147.177 257.262 143.273 260.708 145.569 271.266C147.188 278.707 154.04 286.377 157.952 290.268Z" fill="#EFF2F7"/>
<path fill-rule="evenodd" clip-rule="evenodd" d="M125.361 290.581C125.361 290.581 134.431 291.04 133.629 283.111C133.629 283.111 132.353 277.534 127.2 278.081C129.572 277.727 137.411 276.118 137.15 270.304C137.063 268.402 135.99 266.67 134.43 265.579C133.415 264.869 132.136 264.298 130.873 264.615C130.873 264.615 138.715 261.168 136.631 254.963C134.547 248.759 121.457 254.503 121.457 254.503C121.457 254.503 129.494 248.989 124.902 243.473C120.921 238.693 110.916 243.746 108.315 245.18L108.17 244.602C108.364 243.927 108.354 242.933 107.456 241.761L106.622 238.44C106.123 236.456 107.326 234.443 109.308 233.945L133.931 227.747C135.913 227.248 137.924 228.452 138.423 230.435L151.805 283.675C152.302 285.658 151.1 287.671 149.119 288.17L124.496 294.366C122.512 294.865 120.502 293.662 120.003 291.678L119.687 290.417C121.503 290.373 123.382 290.403 125.361 290.581Z" fill="#FF5613"/>
<path fill-rule="evenodd" clip-rule="evenodd" d="M135.439 234.036C135.726 235.174 135.036 236.329 133.898 236.615C132.762 236.901 131.607 236.21 131.322 235.073C131.035 233.935 131.725 232.781 132.863 232.494C133.999 232.209 135.152 232.899 135.439 234.036Z" fill="#EFF2F7"/>
<path fill-rule="evenodd" clip-rule="evenodd" d="M134.749 234.21C134.939 234.965 134.48 235.732 133.725 235.923C133.359 236.015 132.981 235.959 132.658 235.765C132.334 235.573 132.106 235.264 132.015 234.898C131.922 234.534 131.978 234.153 132.171 233.831C132.364 233.507 132.672 233.279 133.038 233.186C133.792 232.992 134.559 233.455 134.749 234.21ZM133.376 237.393C133.609 237.393 133.842 237.364 134.073 237.306C135.59 236.925 136.513 235.38 136.132 233.862C135.75 232.344 134.207 231.418 132.689 231.803C131.955 231.987 131.336 232.448 130.947 233.099C130.559 233.748 130.446 234.511 130.632 235.247C130.816 235.982 131.276 236.601 131.926 236.991C132.371 237.257 132.87 237.393 133.376 237.393Z" fill="black"/>
<path fill-rule="evenodd" clip-rule="evenodd" d="M69.6494 327.892H163.495L157.797 294.488L157.12 289.425C157.727 290.049 158.292 290.612 158.779 291.082L159.206 294.275L165.044 328.485C165.079 328.692 165.021 328.905 164.885 329.065C164.75 329.226 164.55 329.318 164.341 329.318H67.97C68.5403 328.849 69.0934 328.37 69.6494 327.892Z" fill="black"/>
<path fill-rule="evenodd" clip-rule="evenodd" d="M3.92364 279.945L17.5689 260.032C33.3142 237.052 59.3387 223.332 87.1839 223.332H93.8818C94.1569 223.332 94.4064 223.492 94.5247 223.74C96.2669 227.412 100.507 229.796 105.321 229.81C110.14 229.796 114.38 227.412 116.123 223.74C116.239 223.492 116.49 223.332 116.765 223.332H123.463C152.418 223.332 180.886 237.574 196.002 259.634L208.612 279.356C208.731 279.542 208.758 279.773 208.682 279.981C208.608 280.189 208.441 280.35 208.232 280.419L205.444 281.323C205.173 280.925 205.019 280.711 205.019 280.711L190.54 285.408C190.54 285.408 190.523 285.19 190.45 284.686L206.913 279.348L194.813 260.422C179.968 238.758 151.961 224.759 123.463 224.759H117.206C115.12 228.693 110.514 231.221 105.321 231.237C100.133 231.221 95.527 228.693 93.4412 224.759H87.1839C59.8092 224.759 34.2252 238.246 18.7451 260.838L5.6587 279.937L46.901 291.828L54.1906 273.876C54.326 273.543 54.6896 273.363 55.0332 273.456C55.381 273.548 55.6049 273.884 55.5578 274.239L53.2981 291.133C52.7563 291.507 52.2274 291.873 51.7127 292.229L53.4007 279.611L47.9803 292.959C47.8434 293.299 47.4742 293.477 47.122 293.377L45.5195 292.915L45.8018 292.253L7.6889 281.265C7.6889 281.265 7.6233 281.507 7.5121 281.957L4.31428 281.034C4.09473 280.971 3.91793 280.806 3.83952 280.59C3.76396 280.373 3.7939 280.134 3.92364 279.945Z" fill="black"/>
<path fill-rule="evenodd" clip-rule="evenodd" d="M188.744 273.177C189.754 277.319 190.358 280.152 190.719 282.04C190.883 282.86 191.048 283.662 191.216 284.438L204.799 280.032C205.095 279.935 205.418 280.042 205.597 280.295C205.65 280.368 210.838 287.661 215.44 297.444C219.707 306.518 224.335 319.662 222.142 330.759C220.807 337.522 217.113 342.84 211.165 346.567C208.031 348.53 204.84 349.513 201.624 349.513C199.661 349.513 197.688 349.146 195.714 348.411C186.951 345.148 178.28 334.828 169.939 317.734C164.2 305.969 160.611 294.882 160.105 293.286C159.267 292.551 155.516 289.166 151.902 284.61C151.904 284.301 151.882 283.988 151.803 283.675L151.193 281.249C155.573 287.449 161.104 292.266 161.189 292.339C161.291 292.426 161.365 292.541 161.405 292.67C161.551 293.137 176.074 339.579 196.212 347.074C200.981 348.848 205.757 348.27 210.408 345.357C216.009 341.847 219.486 336.844 220.744 330.485C224.535 311.297 207.237 285.197 204.736 281.552L191.529 285.836C195.806 304.603 201.302 309.735 201.383 309.809C201.677 310.067 201.707 310.517 201.449 310.814C201.307 310.975 201.109 311.057 200.911 311.057C200.744 311.057 200.577 310.999 200.442 310.881C200.184 310.655 194.493 305.469 190.087 285.94C189.943 285.817 189.843 285.65 189.829 285.459C189.828 285.444 189.738 284.384 189.135 281.383C189.131 281.363 189.128 281.343 189.123 281.322C188.756 279.496 188.198 276.961 187.358 273.515C184.74 262.769 176.461 238.195 156.267 242.105C150.286 243.264 145.681 244.954 142.606 247.085L142.234 245.603C145.453 243.499 150.045 241.857 155.996 240.706C177.399 236.56 186.028 262.032 188.744 273.177ZM146.796 256.658L152.257 253.17C152.342 253.114 152.435 253.083 152.53 253.067C157.801 248.815 165.93 248.197 166.418 248.164C166.816 248.158 167.149 248.435 167.176 248.827C167.204 249.221 166.907 249.561 166.513 249.588C166.354 249.598 150.556 250.798 149.551 261.094C148.594 270.875 150.323 273.513 151.438 274.214C152.368 274.799 153.698 274.574 155.39 273.553C155.087 270.328 155.985 266.158 158.11 261.048C161.287 253.407 172.029 255.409 172.487 255.498C172.872 255.574 173.124 255.948 173.049 256.334C172.973 256.721 172.604 256.974 172.213 256.898C172.114 256.881 162.157 255.03 159.418 261.617C155.429 271.211 155.932 277.139 160.854 279.216C161.736 279.493 164.235 279.977 165.18 278.882C165.183 278.88 165.188 278.878 165.19 278.875C164.031 275.436 163.882 270.935 164.325 267.839C165.354 260.65 176.327 261.37 176.794 261.402C177.186 261.43 177.481 261.771 177.453 262.164C177.424 262.557 177.084 262.864 176.69 262.824C176.59 262.814 166.578 262.164 165.735 268.04C165.092 272.532 165.833 280.078 168.856 281.971C170.021 282.699 171.496 282.469 173.241 281.288C178.23 277.908 173.499 269.301 173.449 269.214C173.258 268.87 173.381 268.437 173.725 268.244C174.067 268.051 174.502 268.173 174.694 268.516C174.77 268.653 175.417 269.842 176.003 271.498C176.623 271.22 176.82 269.644 176.758 268.653C176.733 268.261 177.031 267.922 177.424 267.896C177.816 267.86 178.154 268.167 178.181 268.561C178.204 268.919 178.358 272.085 176.525 272.831C176.493 272.843 176.461 272.841 176.429 272.849C177.296 276.002 177.524 280.109 174.041 282.469C172.568 283.466 171.327 283.813 170.312 283.813C169.388 283.813 168.652 283.526 168.1 283.181C167.111 282.562 166.338 281.526 165.741 280.258C164.988 280.797 164.03 280.982 163.12 280.982C161.733 280.982 160.487 280.594 160.362 280.553C157.824 279.484 156.247 277.643 155.627 275.048C154.518 275.644 153.501 275.962 152.596 275.962C151.893 275.962 151.253 275.782 150.68 275.421C148.202 273.864 147.345 268.996 148.132 260.955C148.292 259.317 148.769 257.895 149.462 256.647L147.623 257.822C147.482 257.966 146.652 258.887 146.086 260.932L145.229 257.521C145.882 257.198 146.444 256.881 146.793 256.658C146.795 256.658 146.795 256.658 146.796 256.658ZM11.2332 332.391C15.1852 338.282 21.0847 341.759 28.7705 342.726C64.3942 347.201 93.4555 298.751 93.7449 298.262C93.7863 298.191 93.8404 298.126 93.9046 298.074C94.3551 297.701 104.299 289.659 120.766 289.659C122.256 289.659 123.801 289.726 125.394 289.869C125.438 289.876 129.491 290.039 131.633 287.779C132.683 286.672 133.114 285.125 132.933 283.271C132.884 283.064 131.777 278.507 127.561 278.753C127.012 278.84 126.651 278.875 126.574 278.884C126.509 278.89 126.447 278.875 126.385 278.864C122.942 279.453 117.256 280.522 113.742 281.694C113.666 281.719 113.591 281.731 113.515 281.731C113.217 281.731 112.939 281.542 112.839 281.244C112.715 280.87 112.916 280.465 113.29 280.34C118.563 278.581 128.211 277.111 129.039 276.986C132.062 276.242 136.62 274.438 136.436 270.337C136.363 268.732 135.461 267.173 134.021 266.164C132.901 265.381 131.899 265.094 131.044 265.307C131.021 265.312 130.998 265.307 130.974 265.311C130.951 265.314 130.933 265.327 130.91 265.328C130.87 265.329 129.25 265.432 126.593 265.954L114.466 269.748C113.006 270.374 111.498 271.082 109.948 271.896C109.842 271.952 109.73 271.979 109.617 271.979C109.36 271.979 109.114 271.841 108.987 271.597C108.803 271.248 108.937 270.818 109.286 270.634C120.415 264.779 129.495 263.993 130.694 263.911C131.606 263.485 137.705 260.403 135.954 255.19C135.654 254.297 135.076 253.672 134.187 253.279C130.177 251.5 121.825 255.12 121.743 255.157C121.725 255.165 121.707 255.163 121.69 255.169C121.674 255.175 121.663 255.186 121.647 255.192C121.591 255.206 118.522 256.07 114.758 257.663L110.634 259.607C108.924 260.507 107.238 261.532 105.759 262.677C105.629 262.777 105.475 262.826 105.323 262.826C105.111 262.826 104.9 262.73 104.758 262.549C104.517 262.238 104.574 261.79 104.887 261.549C110.95 256.854 120.019 254.172 121.141 253.852C121.717 253.433 125.134 250.825 125.562 247.716C125.746 246.368 125.351 245.13 124.353 243.931C120.203 238.944 108.164 246.08 108.043 246.154C108.033 246.161 108.019 246.161 108.007 246.167C107.998 246.172 107.99 246.182 107.979 246.188C107.931 246.211 103.063 248.514 98.558 252.731C98.4212 252.861 98.2458 252.923 98.0719 252.923C97.8823 252.923 97.6912 252.848 97.5515 252.698C97.282 252.41 97.2963 251.959 97.5857 251.689C101.883 247.665 106.367 245.386 107.225 244.968C107.453 244.659 108.084 243.533 106.682 241.934C105.833 240.967 103.716 240.387 101.523 240.537C98.4782 240.738 95.8307 242.205 94.2624 244.559C93.072 246.346 91.6563 249.508 90.0182 253.167C86.6535 260.68 82.4663 270.03 77.1385 274.578C70.5632 280.191 51.3164 293.391 45.4796 297.369C45.3756 297.442 45.2515 297.526 45.099 297.628C44.2906 298.178 43.8102 298.502 43.7774 298.526C43.6932 298.583 43.5935 298.587 43.4994 298.603C41.2411 299.871 37.5656 301.503 33.6179 301.503C33.2572 301.503 32.8936 301.489 32.5287 301.46C32.1366 301.429 31.8429 301.085 31.8743 300.693C31.9056 300.301 32.2464 300.017 32.6413 300.038C33.377 300.097 34.1112 300.081 34.834 300.015L42.4999 297.512C42.6297 297.442 42.7509 297.373 42.8721 297.305L44.8295 292.715L8.19787 282.154C7.00029 287.066 0.487739 316.375 11.2332 332.391ZM3.94789 300.258C4.70778 289.671 6.97605 281.164 6.99886 281.078C7.04876 280.894 7.17137 280.737 7.33675 280.643C7.50498 280.549 7.70174 280.523 7.88565 280.579L45.9986 291.568C46.1953 291.624 46.3564 291.762 46.4448 291.948C46.5318 292.132 46.5361 292.346 46.4562 292.533L44.9878 295.978C51.1596 291.769 69.8033 278.964 76.2132 273.494C81.2972 269.154 85.4103 259.967 88.7165 252.582C90.3817 248.865 91.8188 245.655 93.0763 243.767C94.8926 241.041 97.9379 239.345 101.429 239.113C104.108 238.939 106.596 239.674 107.754 240.992C108.719 242.092 109.015 243.139 108.984 244.013C112.692 242.104 121.524 238.309 125.448 243.017C126.701 244.522 127.214 246.17 126.973 247.914C126.723 249.733 125.683 251.354 124.607 252.592C127.625 251.654 131.956 250.731 134.765 251.973C136.022 252.53 136.876 253.46 137.305 254.737C138.734 258.991 135.904 262.285 133.212 264.117C133.741 264.315 134.284 264.607 134.838 264.996C136.638 266.254 137.767 268.228 137.86 270.273C138.064 274.784 134.042 276.975 130.74 278.009C132.87 279.152 133.984 281.462 134.336 283.04C134.577 285.418 134.013 287.344 132.663 288.766C130.064 291.501 125.516 291.301 125.295 291.291C107.523 289.694 96.0317 298.225 94.9026 299.102C93.35 301.666 66.8764 344.445 33.4397 344.445C31.8415 344.445 30.2219 344.347 28.5923 344.141C20.4787 343.12 14.2399 339.433 10.047 333.185C3.72975 323.763 3.2436 310.079 3.94789 300.258Z" fill="black"/>
<path fill-rule="evenodd" clip-rule="evenodd" d="M120.455 290.405L120.729 291.495C120.921 292.26 121.401 292.905 122.078 293.31C122.755 293.715 123.549 293.832 124.313 293.64L148.935 287.442C149.7 287.25 150.343 286.77 150.75 286.094C151.155 285.416 151.272 284.622 151.079 283.856L137.696 230.618C137.36 229.278 136.154 228.382 134.832 228.382C134.594 228.382 134.354 228.412 134.113 228.472L109.49 234.671C108.726 234.862 108.082 235.341 107.677 236.019C107.272 236.697 107.155 237.491 107.347 238.256L108.996 244.814C108.179 245.244 107.68 245.54 107.68 245.54C107.68 245.54 109.286 243.819 107.219 241.463C107.02 241.235 106.753 241.032 106.455 240.843L105.896 238.621C105.605 237.469 105.782 236.27 106.392 235.25C107.002 234.23 107.973 233.508 109.125 233.217L133.748 227.02C136.128 226.419 138.55 227.872 139.149 230.253L152.53 283.491C152.82 284.645 152.644 285.842 152.034 286.863C151.424 287.883 150.453 288.605 149.3 288.895L124.678 295.092C124.316 295.183 123.95 295.229 123.585 295.229C122.791 295.229 122.008 295.013 121.309 294.595C120.288 293.985 119.567 293.013 119.278 291.861L118.917 290.425C119.419 290.405 119.941 290.41 120.455 290.405Z" fill="black"/>
<path fill-rule="evenodd" clip-rule="evenodd" d="M85.7842 197.664C87.9142 201.618 91.2575 204.417 95.6429 204.417L96.0093 196.245C95.9024 196.256 95.7969 196.278 95.6871 196.278C93.8565 196.278 92.3709 194.8 92.3567 192.971C92.351 192.269 92.6746 191.591 93.1294 191.056C94.3583 189.614 95.382 189.503 96.3044 189.677L97.2012 181.817C97.3979 180.105 98.845 178.814 100.566 178.814H117.288C121.067 178.814 124.001 175.524 123.581 171.765C122.704 163.907 118.497 153.658 100.945 164.635C92.1314 170.146 86.6026 175.914 84.675 181.777C82.9514 187.022 83.1667 192.807 85.7842 197.664Z" fill="#040226"/>
<path fill-rule="evenodd" clip-rule="evenodd" d="M95.2625 196.969L94.9617 203.679C91.5087 203.419 88.4919 201.188 86.4119 197.326C84.0053 192.861 83.6189 187.275 85.3526 182.001C87.2117 176.343 92.5851 170.703 101.322 165.239C108.32 160.862 113.724 159.544 117.378 161.313C121.152 163.141 122.449 168.048 122.872 171.845C123.051 173.437 122.54 175.035 121.474 176.227C120.41 177.417 118.883 178.101 117.287 178.101H100.566C98.4803 178.101 96.7296 179.664 96.4929 181.737L95.676 188.902C94.5411 188.904 93.566 189.445 92.5879 190.594C91.972 191.317 91.6384 192.161 91.6441 192.976C91.6598 195.048 93.2466 196.757 95.2625 196.969ZM95.6418 205.13C96.0239 205.13 96.3361 204.83 96.3546 204.449L96.721 196.277C96.7296 196.07 96.6497 195.871 96.5 195.728C96.3503 195.585 96.1465 195.516 95.9397 195.535L95.686 195.565C94.2532 195.565 93.0798 194.398 93.0698 192.966C93.0656 192.494 93.2794 191.98 93.6729 191.519C94.7635 190.237 95.5348 190.258 96.1721 190.377C96.366 190.417 96.567 190.37 96.7281 190.251C96.8878 190.133 96.9905 189.954 97.0133 189.758L97.9086 181.898C98.064 180.547 99.206 179.527 100.566 179.527H117.287C119.29 179.527 121.203 178.671 122.537 177.177C123.873 175.684 124.512 173.681 124.29 171.686C123.625 165.73 121.45 161.698 117.999 160.029C113.872 158.032 108.007 159.377 100.566 164.03C91.5401 169.676 85.9656 175.573 83.9982 181.554C82.1419 187.2 82.5654 193.194 85.1573 198.004C87.6323 202.599 91.3562 205.13 95.6418 205.13Z" fill="black"/>
</g>
<path fill-rule="evenodd" clip-rule="evenodd" d="M491.866 353.09L508.851 269.911C510.147 263.566 505.301 257.626 498.828 257.626H303.376C296.904 257.626 292.058 263.566 293.354 269.911L310.339 353.09H280.857C280.857 368.972 293.723 381.844 309.592 381.844H492.613C508.483 381.844 521.348 368.972 521.348 353.09H491.866Z" fill="#EFF2F7"/>
<path fill-rule="evenodd" clip-rule="evenodd" d="M281.849 354.065C282.364 368.933 294.611 380.869 309.592 380.869H492.613C507.594 380.869 519.841 368.933 520.356 354.065H491.866C491.574 354.065 491.297 353.934 491.112 353.706C490.927 353.48 490.853 353.181 490.911 352.895L507.896 269.716C508.455 266.979 507.763 264.17 505.999 262.007C504.233 259.842 501.619 258.601 498.829 258.601H303.378C300.586 258.601 297.972 259.842 296.208 262.007C294.442 264.17 293.75 266.979 294.309 269.716L311.294 352.895C311.352 353.181 311.278 353.48 311.095 353.706C310.91 353.934 310.631 354.065 310.339 354.065H281.849ZM492.613 382.819H309.592C293.212 382.819 279.882 369.483 279.882 353.09C279.882 352.551 280.319 352.114 280.857 352.114H309.146L292.399 270.106C291.723 266.794 292.561 263.392 294.697 260.772C296.834 258.153 299.998 256.651 303.378 256.651H498.829C502.208 256.651 505.371 258.153 507.508 260.772C509.644 263.392 510.483 266.794 509.806 270.106L493.061 352.114H521.348C521.886 352.114 522.323 352.551 522.323 353.09C522.323 369.483 508.995 382.819 492.613 382.819Z" fill="black"/>
<path fill-rule="evenodd" clip-rule="evenodd" d="M491.866 354.065H310.339C309.801 354.065 309.364 353.628 309.364 353.09C309.364 352.551 309.801 352.114 310.339 352.114H491.866C492.404 352.114 492.841 352.551 492.841 353.09C492.841 353.628 492.404 354.065 491.866 354.065Z" fill="black"/>
<path fill-rule="evenodd" clip-rule="evenodd" d="M487.999 381.846H464.229L402.437 459.09L343.006 380.012L319.247 379.293L389.946 473.362L390.466 474.053L326.165 566.617H340.187L401.979 489.373L461.41 568.45L475.422 569.168L413.952 474.408L487.999 381.846Z" fill="#F5A95E"/>
<path fill-rule="evenodd" clip-rule="evenodd" d="M461.915 567.499L473.564 568.097L413.133 474.939C412.905 474.585 412.927 474.127 413.19 473.797L485.97 382.821H464.697L403.197 459.698C403.01 459.932 402.741 460.088 402.422 460.063C402.121 460.059 401.839 459.915 401.657 459.675L342.509 380.972L321.245 380.328L391.244 473.466C391.498 473.803 391.505 474.264 391.266 474.609L328.029 565.64H339.719L401.219 488.763C401.406 488.529 401.689 488.394 401.995 488.398C402.295 488.402 402.578 488.546 402.759 488.786L461.915 567.499ZM475.422 570.144C475.407 570.144 475.389 570.144 475.373 570.142L461.36 569.424C461.071 569.408 460.804 569.266 460.631 569.036L401.956 490.963L340.949 567.225C340.764 567.458 340.483 567.59 340.187 567.59H326.166C325.803 567.59 325.47 567.389 325.3 567.067C325.132 566.746 325.158 566.357 325.364 566.059L389.264 474.074L389.168 473.95L318.47 379.878C318.243 379.579 318.21 379.178 318.382 378.844C318.555 378.512 318.883 378.312 319.277 378.317L343.035 379.037C343.331 379.047 343.608 379.189 343.786 379.425L402.461 457.498L463.469 381.236C463.654 381.005 463.933 380.871 464.229 380.871H487.999C488.374 380.871 488.715 381.085 488.878 381.423C489.04 381.76 488.993 382.162 488.759 382.455L415.151 474.468L476.241 568.636C476.44 568.944 476.449 569.338 476.266 569.656C476.093 569.958 475.769 570.144 475.422 570.144Z" fill="black"/>
<path fill-rule="evenodd" clip-rule="evenodd" d="M413.95 475.383C413.653 475.383 413.361 475.249 413.17 474.993L400.267 457.828C399.944 457.396 400.029 456.786 400.46 456.462C400.891 456.138 401.503 456.224 401.825 456.655L414.727 473.823C415.051 474.252 414.965 474.862 414.534 475.186C414.359 475.319 414.152 475.383 413.95 475.383Z" fill="black"/>
<path fill-rule="evenodd" clip-rule="evenodd" d="M401.979 490.349C401.683 490.349 401.39 490.214 401.199 489.958L389.166 473.948C388.842 473.518 388.928 472.908 389.359 472.584C389.79 472.26 390.4 472.346 390.724 472.777L402.757 488.788C403.08 489.217 402.995 489.828 402.564 490.152C402.388 490.284 402.182 490.349 401.979 490.349Z" fill="black"/>
<path fill-rule="evenodd" clip-rule="evenodd" d="M179.931 528.962C174.58 533.782 167.982 536.998 160.89 538.247L147.062 540.677C133.451 543.073 122.167 552.582 117.492 565.597L117.126 566.617H262.013V528.692H180.231L179.931 528.962ZM423.297 392.188L363.441 447.951L363.405 448.353C362.77 455.53 360.131 462.384 355.789 468.131L347.325 479.341C338.994 490.374 337.208 505.029 342.651 517.742L343.078 518.736L452.726 416.587L423.297 392.188Z" fill="#4B69FD"/>
<path fill-rule="evenodd" clip-rule="evenodd" d="M364.376 448.41L364.374 448.439C363.723 455.807 361.023 462.819 356.565 468.72L348.101 479.928C340.06 490.575 338.281 504.781 343.427 517.076L451.248 416.63L423.332 393.486L364.376 448.41ZM343.076 519.712C343.008 519.712 342.941 519.706 342.873 519.69C342.563 519.626 342.304 519.411 342.179 519.121L341.754 518.124C336.187 505.123 338.023 490.037 346.546 478.754L355.012 467.544C359.246 461.936 361.813 455.27 362.433 448.267L362.468 447.868C362.487 447.626 362.599 447.401 362.774 447.237L422.63 391.474C422.991 391.141 423.541 391.125 423.917 391.435L453.346 415.834C453.562 416.014 453.691 416.277 453.699 416.558C453.706 416.839 453.593 417.11 453.389 417.299L343.739 519.45C343.557 519.62 343.32 519.712 343.076 519.712ZM118.514 565.641H261.038V529.668L180.584 529.687C175.091 534.634 168.34 537.927 161.06 539.206L147.231 541.639C134.096 543.948 123.12 553.134 118.514 565.641ZM262.013 567.592H117.128C116.81 567.592 116.512 567.438 116.33 567.177C116.147 566.917 116.102 566.586 116.209 566.287L116.576 565.267C121.356 551.956 132.972 542.165 146.894 539.717L160.72 537.285C167.641 536.068 174.058 532.939 179.28 528.236L179.58 527.967C179.76 527.805 179.992 527.717 180.231 527.717H262.013C262.551 527.717 262.988 528.152 262.988 528.692V566.617C262.988 567.155 262.551 567.592 262.013 567.592Z" fill="black"/>
<path fill-rule="evenodd" clip-rule="evenodd" d="M117.493 565.597L117.129 566.615H262.013V557.886H121.302C119.77 560.281 118.478 562.856 117.493 565.597ZM445.745 411.16L340.187 509.5C340.698 512.297 341.505 515.063 342.651 517.741L343.078 518.736L452.726 416.585L445.745 411.16Z" fill="#EFF2F7"/>
<path fill-rule="evenodd" clip-rule="evenodd" d="M341.244 509.847C341.739 512.365 342.472 514.794 343.427 517.078L451.221 416.653L445.802 412.44L341.244 509.847ZM343.076 519.712C343.01 519.712 342.941 519.706 342.875 519.69C342.563 519.626 342.306 519.413 342.179 519.121L341.752 518.126C340.616 515.471 339.766 512.627 339.228 509.676C339.168 509.35 339.279 509.014 339.52 508.788L445.081 410.446C445.43 410.121 445.964 410.097 446.342 410.39L453.322 415.814C453.549 415.99 453.685 416.257 453.699 416.542C453.71 416.827 453.597 417.106 453.389 417.299L343.741 519.45C343.557 519.62 343.32 519.712 343.076 519.712ZM118.514 565.641H261.036V558.861H121.839C120.486 561.042 119.369 563.318 118.514 565.641ZM262.011 567.592H117.128C116.81 567.592 116.514 567.436 116.33 567.177C116.147 566.917 116.102 566.586 116.209 566.287L116.576 565.267C117.551 562.55 118.864 559.889 120.48 557.361C120.66 557.08 120.968 556.91 121.301 556.91H262.011C262.551 556.91 262.986 557.347 262.986 557.886V566.617C262.986 567.155 262.551 567.592 262.011 567.592Z" fill="black"/>
<path fill-rule="evenodd" clip-rule="evenodd" d="M239.81 425.817C223.251 425.817 208.623 436.618 203.742 452.452L180.233 528.69H262.013L276.36 473.023C282.522 449.116 264.483 425.817 239.81 425.817ZM363.454 349.071C348.784 338.499 328.696 339.763 315.464 352.091C298.781 367.632 299.473 394.281 316.937 408.937L363.441 447.951L423.297 392.188L363.454 349.071Z" fill="#0065FC"/>
<path fill-rule="evenodd" clip-rule="evenodd" d="M341.324 342.923C332.22 342.923 323.154 346.259 316.127 352.805C308.38 360.022 304.095 370.234 304.37 380.822C304.645 391.408 309.454 401.386 317.565 408.189L363.406 446.65L421.763 392.286L362.885 349.863C356.431 345.213 348.864 342.923 341.324 342.923ZM363.441 448.927C363.219 448.927 362.996 448.853 362.813 448.7L316.312 409.686C307.774 402.521 302.711 392.019 302.421 380.873C302.132 369.725 306.643 358.975 314.799 351.379C328.325 338.776 349.027 337.475 364.026 348.281L423.866 391.398C424.104 391.568 424.25 391.837 424.27 392.128C424.287 392.42 424.174 392.703 423.962 392.902L364.104 448.665C363.918 448.839 363.679 448.927 363.441 448.927ZM181.552 527.717H261.259L275.417 472.779C278.278 461.68 275.894 450.117 268.879 441.054C261.861 431.991 251.266 426.795 239.81 426.795C223.58 426.795 209.459 437.221 204.671 452.74L181.552 527.717ZM262.013 529.668H180.232C179.923 529.668 179.63 529.521 179.447 529.272C179.264 529.022 179.209 528.7 179.301 528.404L202.81 452.165C207.849 435.822 222.718 424.844 239.81 424.844C251.875 424.844 263.031 430.316 270.419 439.858C277.809 449.401 280.317 461.579 277.306 473.267L262.957 528.936C262.845 529.367 262.458 529.668 262.013 529.668Z" fill="black"/>
<path fill-rule="evenodd" clip-rule="evenodd" d="M470.449 238.954H314.575L312.801 268.789L224.099 251.885C197.487 246.813 171.889 264.55 167.269 291.262C163.941 310.503 172.469 329.865 188.908 340.389L221.122 361.013L199.035 429.292L172.758 515.98L273.399 524.738L305.179 414.824L349.515 443.207L421.658 382.26L425.597 378.819L420.546 375.75L422.915 375.387C458.985 367.591 484.576 333.144 479.625 294.853L470.449 238.954Z" fill="#FCBD21"/>
<path fill-rule="evenodd" clip-rule="evenodd" d="M174.04 515.112L272.686 523.697L304.241 414.552C304.327 414.258 304.545 414.02 304.834 413.913C305.121 413.803 305.444 413.839 305.703 414.002L349.433 442L421.028 381.514L423.952 378.961L420.04 376.583C419.689 376.373 419.509 375.963 419.589 375.559C419.669 375.157 419.993 374.849 420.398 374.787L422.767 374.424C458.831 366.625 483.408 331.724 478.658 294.978L469.592 239.929H315.493L313.772 268.845C313.756 269.126 313.62 269.386 313.397 269.557C313.177 269.729 312.891 269.797 312.618 269.747L223.915 252.842C211.303 250.437 198.547 253.143 187.991 260.456C177.435 267.771 170.418 278.768 168.229 291.428C164.96 310.332 173.283 329.227 189.434 339.566L221.646 360.19C222.02 360.43 222.184 360.89 222.048 361.312L199.962 429.592L174.04 515.112ZM273.313 525.71L172.673 516.951C172.381 516.926 172.116 516.77 171.95 516.526C171.786 516.282 171.74 515.978 171.825 515.697L198.102 429.009L219.962 361.429L188.383 341.21C171.57 330.447 162.905 310.776 166.309 291.094C168.587 277.916 175.894 266.466 186.882 258.852C197.87 251.241 211.153 248.428 224.28 250.925L311.892 267.622L313.6 238.895C313.631 238.38 314.058 237.978 314.575 237.978H470.447C470.939 237.978 471.352 238.341 471.414 238.829L480.59 294.728C485.461 332.403 460.317 368.19 423.322 376.296L426.102 377.986C426.369 378.148 426.541 378.427 426.568 378.735C426.595 379.047 426.472 379.349 426.236 379.554L422.297 382.995L350.142 443.953C349.817 444.23 349.347 444.261 348.988 444.031L305.75 416.349L274.335 525.01C274.214 525.429 273.83 525.714 273.399 525.714C273.372 525.714 273.342 525.712 273.313 525.71Z" fill="black"/>
<path fill-rule="evenodd" clip-rule="evenodd" d="M292.66 299.03C292.171 299.03 291.75 298.663 291.694 298.165C291.633 297.628 292.017 297.147 292.551 297.084L376.798 287.471C377.332 287.397 377.817 287.793 377.877 288.33C377.938 288.866 377.554 289.348 377.02 289.408L292.771 299.024C292.734 299.028 292.697 299.03 292.66 299.03Z" fill="black"/>
<path fill-rule="evenodd" clip-rule="evenodd" d="M311.068 419.571C310.888 419.571 310.705 419.523 310.543 419.417L214.422 357.882C213.97 357.592 213.837 356.989 214.127 356.535C214.418 356.08 215.02 355.949 215.472 356.238L311.594 417.775C312.046 418.066 312.181 418.668 311.89 419.123C311.703 419.412 311.389 419.571 311.068 419.571Z" fill="black"/>
<path fill-rule="evenodd" clip-rule="evenodd" d="M425.597 379.794C425.426 379.794 425.25 379.749 425.092 379.652L281.062 292.147C280.602 291.868 280.456 291.269 280.734 290.809C281.015 290.346 281.614 290.2 282.074 290.481L426.104 377.986C426.564 378.265 426.71 378.864 426.431 379.324C426.248 379.628 425.927 379.794 425.597 379.794Z" fill="black"/>
<path fill-rule="evenodd" clip-rule="evenodd" d="M323.4 271.658C323.341 271.658 323.283 271.654 323.224 271.642L309.263 269.107C308.735 269.011 308.382 268.504 308.479 267.973C308.575 267.445 309.08 267.095 309.612 267.187L323.573 269.723C324.103 269.819 324.454 270.326 324.357 270.856C324.273 271.328 323.862 271.658 323.4 271.658Z" fill="black"/>
<path fill-rule="evenodd" clip-rule="evenodd" d="M376.388 100.919C376.388 100.919 383.278 95.892 382.053 75.1315C382.053 75.1315 392.948 80.8264 404.836 71.1973L407.578 100.679C407.578 100.679 399.336 111.134 390.694 110.12C382.053 109.107 376.388 100.919 376.388 100.919Z" fill="#0065FC"/>
<path fill-rule="evenodd" clip-rule="evenodd" d="M382.467 73.4552C389.387 77.224 396.609 75.9247 404.262 69.4645C404.869 68.9517 405.728 69.3949 405.805 70.2612L408.547 100.983C408.575 101.296 408.489 101.608 408.311 101.844C402.625 109.36 396.707 112.808 390.592 112.061C384.56 111.323 379.552 107.966 375.615 102.038C375.27 101.517 375.379 100.766 375.853 100.405C380.063 97.2046 381.876 88.6035 381.08 74.551C381.031 73.693 381.795 73.0892 382.467 73.4552ZM406.562 101.136L404.035 73.1479L403.522 73.5361C396.617 78.6154 389.883 79.8086 383.4 77.0611L383.113 76.9355L383.159 78.0965C383.545 90.0547 381.837 97.9835 377.899 101.851L377.78 101.961L378.046 102.325C381.357 106.726 385.378 109.285 390.142 110.033L390.797 110.124C396.204 110.778 401.541 107.704 406.844 100.776L406.562 101.136Z" fill="black"/>
<path fill-rule="evenodd" clip-rule="evenodd" d="M390.44 76.8616C377.292 76.8616 366.631 65.5478 366.631 51.5929C366.631 37.6381 377.292 26.3244 390.44 26.3244C403.59 26.3244 414.251 37.6381 414.251 51.5929C414.251 65.5478 403.59 76.8616 390.44 76.8616Z" fill="#0065FC"/>
<path fill-rule="evenodd" clip-rule="evenodd" d="M367.597 51.5929C367.597 64.9939 377.844 75.894 390.441 75.894C403.037 75.894 413.287 64.9939 413.287 51.5929C413.287 38.192 403.037 27.2919 390.441 27.2919C377.844 27.2919 367.597 38.192 367.597 51.5929ZM365.667 51.5929C365.667 37.127 376.78 25.3588 390.441 25.3588C404.104 25.3588 415.217 37.127 415.217 51.5929C415.217 66.0589 404.104 77.8271 390.441 77.8271C376.78 77.8271 365.667 66.0589 365.667 51.5929ZM383.651 59.6953L379.671 59.2116C379.394 59.1765 379.143 59.0243 378.983 58.7902C378.825 58.5581 378.776 58.2675 378.848 57.9944L380.053 53.4084C380.188 52.8876 380.727 52.5794 381.242 52.712C381.765 52.8486 382.074 53.383 381.938 53.9039L381.016 57.4092L383.889 57.7564C384.421 57.8227 384.802 58.3084 384.737 58.8429C384.679 59.3384 384.258 59.7012 383.772 59.7012C383.731 59.7012 383.692 59.6992 383.651 59.6953ZM387.766 51.0415C387.766 52.2177 388.367 53.1696 389.104 53.1696C389.842 53.1696 390.441 52.2177 390.441 51.0415C390.441 49.8653 389.842 48.9133 389.104 48.9133C388.367 48.9133 387.766 49.8653 387.766 51.0415ZM376.121 53.1696C375.382 53.1696 374.783 52.2177 374.783 51.0415C374.783 49.8653 375.382 48.9133 376.121 48.9133C376.859 48.9133 377.458 49.8653 377.458 51.0415C377.458 52.2177 376.859 53.1696 376.121 53.1696ZM387.796 44.4758C387.971 44.4793 390.008 44.5213 391.804 46.065C391.989 46.223 392.216 46.301 392.44 46.301C392.715 46.301 392.985 46.186 393.178 45.9616C393.531 45.552 393.483 44.9356 393.075 44.5864C390.759 42.596 388.156 42.5347 387.786 42.5262H387.786C387.763 42.5256 387.749 42.5252 387.744 42.5246C387.206 42.5383 386.785 42.983 386.794 43.5194C386.804 44.052 387.241 44.4752 387.771 44.4752H387.785C387.784 44.4754 387.784 44.4754 387.786 44.4756L387.796 44.4758ZM372.046 45.9616C371.693 45.552 371.742 44.9356 372.149 44.5864C374.45 42.611 377.048 42.5375 377.433 42.5265C377.46 42.526 377.476 42.5254 377.48 42.5246C378.02 42.5383 378.445 42.9849 378.432 43.5233C378.42 44.0598 377.952 44.5162 377.44 44.4752C377.473 44.4538 375.278 44.4694 373.42 46.065C373.235 46.223 373.009 46.301 372.785 46.301C372.51 46.301 372.239 46.186 372.046 45.9616ZM378.981 64.6488C378.68 65.0955 378.799 65.7021 379.246 66.0025C380.17 66.6248 381.842 67.3114 383.778 67.3114C385.38 67.3114 387.168 66.8394 388.862 65.472C389.281 65.1325 389.345 64.5181 389.008 64.1007C388.669 63.6793 388.055 63.6149 387.636 63.9524C384.1 66.814 380.486 64.483 380.33 64.3816C379.887 64.087 379.281 64.2021 378.981 64.6488Z" fill="black"/>
<path fill-rule="evenodd" clip-rule="evenodd" d="M338.801 198.768C343.277 194.51 355.655 197.35 360.762 198.768H383.045V189.879H364.856L342.187 118.443H234.087L259.572 198.768H338.801Z" fill="#EFF2F7"/>
<path fill-rule="evenodd" clip-rule="evenodd" d="M383.047 198.769V189.879H364.856L345.524 128.955C349.312 126.803 365.893 116.873 371.355 105.021C372.645 102.223 373.464 99.7793 373.983 97.6297H378.922L377.536 90.463C377.452 90.0339 377.497 89.6204 377.622 89.238C380.055 90.7615 382.949 91.8226 384.684 89.8271C385.197 89.24 385.747 88.4675 386.226 87.5449H408.554C410.01 87.5449 411.145 88.8069 410.991 90.2543L410.213 97.6297H419.369C457.102 97.6297 492.41 116.245 513.75 147.385L530.553 171.91C531.339 173.055 530.518 174.614 529.13 174.614H468.884C468.229 174.614 467.632 174.245 467.34 173.66L463.578 166.13L467.28 193.816L471.239 217.019C471.141 217.081 471.044 217.144 470.948 217.208C470.786 217.313 470.625 217.421 470.449 217.52C450.981 228.518 363.012 199.436 363.012 199.436C363.012 199.436 362.158 199.155 360.762 198.769H383.047ZM345.524 128.955L342.189 118.443L345.524 128.955ZM337.24 204.632C337.064 203.739 337.056 202.744 337.265 201.634C337.489 200.436 338.033 199.5 338.803 198.767H326.707C330.123 203.007 337.24 204.632 337.24 204.632ZM380.634 238.238C372.628 233.997 353.67 227.751 353.67 227.751C343.998 225.085 336.331 222.399 330.255 219.798L326.707 240.594H385.466C383.109 239.498 381.446 238.669 380.634 238.238Z" fill="#409B81"/>
<path fill-rule="evenodd" clip-rule="evenodd" d="M345.524 128.955C349.312 126.803 365.891 116.873 371.355 105.021C377.538 91.6061 373.343 85.8497 373.343 85.8497C373.343 85.8497 381.267 93.7557 384.684 89.8271C388.102 85.9005 393.361 73.8708 366.07 62.0334C338.782 50.1969 319.873 83.3373 314.025 95.2362C312.224 98.8995 307.98 107.837 302.968 118.443H342.189L345.524 128.955ZM523.457 174.616H470.393C470.393 174.616 489.915 206.524 470.447 217.52C450.981 228.518 363.01 199.436 363.01 199.436C363.01 199.436 339.148 191.58 337.263 201.636C337.054 202.746 337.062 203.741 337.238 204.634C337.238 204.634 330.121 203.009 326.705 198.769H259.573L255.772 186.786C251.686 200.411 248.618 221.531 265.488 228.81C282.496 236.151 296.697 228.744 308.163 215.246C315.066 219.188 325.378 223.489 340.834 227.753C340.834 227.753 359.791 233.999 367.797 238.24C375.805 242.48 464.978 284.819 509.956 251.594C554.933 218.367 523.457 174.616 523.457 174.616Z" fill="#0065FC"/>
<path fill-rule="evenodd" clip-rule="evenodd" d="M376.793 88.6918C376.54 89.3043 376.45 89.9793 376.579 90.6464L377.739 96.6563H374.209C374.08 97.2766 373.922 97.9262 373.735 98.6069H378.922C379.212 98.6069 379.487 98.4763 379.674 98.2519C379.858 98.0276 379.934 97.7311 379.879 97.4463L378.493 90.2757C378.458 90.1021 378.48 89.9266 378.507 89.7569C377.914 89.4311 377.335 89.0683 376.793 88.6918Z" fill="black"/>
<path fill-rule="evenodd" clip-rule="evenodd" d="M302.364 118.443H302.969C303.068 118.234 303.163 118.031 303.261 117.823C302.965 118.033 302.659 118.23 302.364 118.443Z" fill="black"/>
<path fill-rule="evenodd" clip-rule="evenodd" d="M314.898 95.6673C321.569 82.0947 339.873 51.732 365.682 62.9287C377.766 68.1701 384.885 74.1693 386.265 80.2728C387.279 84.7496 384.983 87.9974 383.948 89.1873C383.521 89.6808 383.002 89.9207 382.318 89.9441C379.558 90.0865 375.408 86.5266 374.033 85.1631V85.1612L367.768 78.884C367.671 78.7865 367.556 78.7162 367.433 78.6694C361.651 71.4316 350.983 68.2032 350.343 68.014C349.827 67.8638 349.285 68.1584 349.133 68.6753C348.981 69.1922 349.277 69.7345 349.793 69.8867C350.002 69.9471 370.739 76.2214 369.041 90.264C367.429 103.604 364.341 106.614 362.645 107.221C361.232 107.722 359.523 107.034 357.565 105.173C358.924 100.956 358.955 95.1231 357.628 87.6716C355.643 76.5315 340.71 76.0283 340.074 76.0107C339.517 75.9951 339.09 76.4242 339.076 76.9626C339.062 77.501 339.487 77.9477 340.025 77.9613C340.166 77.9652 354.002 78.4236 355.714 88.0462C358.207 102.032 355.784 109.798 348.6 111.114C347.341 111.224 343.862 111.13 342.922 109.39C342.92 109.384 342.914 109.382 342.912 109.376C345.476 105.128 347.004 99.1629 347.326 94.8988C348.076 84.9973 333.214 82.7112 332.581 82.6195C332.056 82.5356 331.554 82.9082 331.476 83.4426C331.398 83.9752 331.766 84.4706 332.298 84.5487C332.437 84.5682 345.994 86.6592 345.382 94.7525C344.914 100.94 341.698 110.795 337.103 112.427C335.331 113.049 333.431 112.31 331.45 110.215C325.789 104.233 334.647 94.138 334.737 94.0385C335.095 93.6347 335.06 93.0183 334.659 92.6594C334.257 92.3025 333.641 92.3376 333.283 92.7394C333.14 92.8974 331.926 94.2921 330.655 96.3305C329.91 95.7766 330.111 93.6133 330.487 92.3103C330.635 91.7933 330.339 91.253 329.823 91.1028C329.304 90.9507 328.766 91.2472 328.616 91.766C328.477 92.2381 327.339 96.4164 329.563 97.9554C329.604 97.9827 329.651 97.9749 329.694 97.9964C327.602 101.95 326.078 107.373 330.035 111.557C332.246 113.894 334.255 114.594 335.865 114.594C336.579 114.594 337.214 114.456 337.754 114.265C339.253 113.732 340.587 112.585 341.754 111.077C343.326 112.825 346.263 113.087 347.832 113.087C348.398 113.087 348.784 113.053 348.862 113.046C352.569 112.369 355.22 110.373 356.813 107.086C358.521 108.555 360.158 109.337 361.698 109.337C362.244 109.337 362.778 109.244 363.302 109.057C367.068 107.711 369.651 101.467 370.977 90.4981C371.248 88.2666 371.028 86.2243 370.472 84.3555L372.587 86.4739C372.899 86.9558 376.1 92.398 370.468 104.611C365.244 115.946 349.277 125.67 345.22 128.003L345.825 129.905C349.31 127.954 366.511 117.854 372.24 105.428C375.885 97.5185 376.028 92.1327 375.454 88.9298C377.414 90.3947 380.092 91.9748 382.386 91.8948C383.612 91.8519 384.632 91.372 385.419 90.4669C386.649 89.0546 389.379 85.1904 388.168 79.8437C386.62 73.0106 379.316 66.7169 366.456 61.138C339.105 49.2781 320.066 80.7332 313.15 94.8071C311.333 98.5016 306.996 107.635 301.891 118.443H304.046C308.974 108.013 313.134 99.2584 314.898 95.6673ZM509.376 250.808C463.102 284.987 369.182 237.867 368.254 237.378C360.265 233.147 341.916 227.082 341.094 226.813C308.13 217.721 299.027 208.471 296.538 203.766C295.54 201.884 295.434 200.495 295.487 199.744H304.423C304.419 199.904 304.39 200.044 304.415 200.226C304.762 202.746 308.234 205.641 314.737 208.834C327.378 215.043 343.103 219.804 343.261 219.851C343.355 219.878 343.448 219.892 343.542 219.892C343.961 219.892 344.347 219.619 344.476 219.198C344.63 218.681 344.339 218.138 343.823 217.982C343.667 217.936 328.095 213.221 315.594 207.084C307.781 203.247 306.536 200.887 306.362 200.052C306.333 199.916 306.349 199.832 306.358 199.744H326.251C329.372 203.298 334.739 204.977 336.466 205.444C338.557 212.686 350.515 213.273 350.992 213.289L359.94 214.075C359.971 214.079 359.998 214.079 360.027 214.079C360.526 214.079 360.953 213.697 360.996 213.19C361.045 212.653 360.647 212.179 360.111 212.132L351.117 211.344C351.002 211.338 339.444 210.792 338.193 204.445C338.035 203.641 338.043 202.756 338.22 201.815C338.468 200.489 339.173 199.498 340.376 198.788C346.569 195.121 362.544 200.311 362.702 200.362C366.312 201.556 451.311 229.45 470.927 218.371C475.282 215.911 478.116 212.251 479.35 207.494C482.424 195.628 474.75 180.382 472.083 175.591H522.941C525.908 180.054 550.799 220.208 509.376 250.808ZM524.247 174.046C524.064 173.791 523.769 173.64 523.456 173.64H470.393C470.04 173.64 469.714 173.83 469.543 174.138C469.369 174.446 469.377 174.822 469.56 175.125C469.674 175.31 480.874 193.849 477.461 207.008C476.366 211.231 473.845 214.483 469.968 216.672C451.094 227.332 364.189 198.8 363.314 198.509C362.622 198.281 346.337 192.995 339.386 197.107C337.694 198.107 336.657 199.57 336.304 201.455C336.185 202.09 336.129 202.711 336.133 203.312C333.99 202.641 329.772 201.023 327.464 198.158C327.279 197.926 327 197.793 326.706 197.793H294.678C294.273 197.793 293.908 198.045 293.766 198.425C293.672 198.673 292.91 200.943 294.711 204.482C296.265 207.537 299.651 211.346 306.627 215.497C302.257 220.493 297.51 224.585 292.364 227.252C283.916 231.631 275.004 231.853 265.875 227.915C260.777 225.715 257.216 222.005 255.288 216.882C252.054 208.284 253.873 197.134 256.313 188.496L255.241 185.114C252.341 194.259 249.637 207.394 253.463 217.567C255.582 223.204 259.501 227.289 265.103 229.706C269.686 231.684 274.216 232.671 278.674 232.671C283.645 232.671 288.522 231.442 293.263 228.984C298.491 226.275 303.536 222.092 308.39 216.508C315.413 220.409 325.651 224.576 340.528 228.68C340.717 228.742 359.499 234.947 367.341 239.102C368.029 239.465 419.203 265.131 465.089 265.131C481.849 265.131 497.902 261.708 510.533 252.378C555.764 218.965 524.567 174.491 524.247 174.046Z" fill="black"/>
<path fill-rule="evenodd" clip-rule="evenodd" d="M531.356 171.358L514.553 146.833C493.025 115.414 457.441 96.6544 419.369 96.6544H411.295L411.96 90.3557C412.061 89.3902 411.747 88.4246 411.1 87.7028C410.451 86.9831 409.523 86.5695 408.552 86.5695H386.673C386.376 87.2932 386.029 87.9506 385.663 88.5202H408.552C408.977 88.5202 409.365 88.6938 409.65 89.0078C409.932 89.3238 410.065 89.7296 410.02 90.1509L409.242 97.5263C409.213 97.8033 409.301 98.0764 409.486 98.2831C409.671 98.488 409.934 98.605 410.211 98.605H419.369C456.798 98.605 491.779 117.046 512.945 147.937L529.75 172.46C529.982 172.8 529.859 173.116 529.795 173.237C529.732 173.358 529.537 173.638 529.128 173.638H468.884C468.597 173.638 468.338 173.478 468.21 173.223L464.449 165.693C464.235 165.268 463.747 165.059 463.293 165.198C462.837 165.338 462.549 165.787 462.611 166.259L466.317 193.978L470.346 217.573C470.379 217.555 470.414 217.538 470.447 217.52C471.046 217.183 471.603 216.824 472.13 216.449L468.245 193.685L465.319 171.795L466.467 174.095C466.927 175.016 467.855 175.589 468.884 175.589H470.96C470.609 174.969 470.393 174.614 470.393 174.614H523.459C523.459 174.614 523.703 174.955 524.112 175.589H529.128C530.134 175.589 531.05 175.035 531.518 174.146C531.986 173.256 531.925 172.187 531.356 171.358ZM315.027 239.619L318.343 220.179C317.713 219.915 317.097 219.652 316.501 219.391L312.91 240.43C312.863 240.713 312.941 241.004 313.126 241.222C313.312 241.443 313.584 241.57 313.871 241.57H374.753C373.105 240.822 371.702 240.165 370.567 239.619H315.027ZM404.981 89.833C404.443 89.833 404.006 90.2679 404.006 90.8083V96.6934C404.006 97.2337 404.443 97.6687 404.981 97.6687C405.519 97.6687 405.956 97.2337 405.956 96.6934V90.8083C405.956 90.2679 405.519 89.833 404.981 89.833ZM400.593 89.833C400.055 89.833 399.618 90.2679 399.618 90.8083V96.6934C399.618 97.2337 400.055 97.6687 400.593 97.6687C401.133 97.6687 401.568 97.2337 401.568 96.6934V90.8083C401.568 90.2679 401.133 89.833 400.593 89.833ZM396.207 89.833C395.669 89.833 395.232 90.2679 395.232 90.8083V96.6934C395.232 97.2337 395.669 97.6687 396.207 97.6687C396.745 97.6687 397.182 97.2337 397.182 96.6934V90.8083C397.182 90.2679 396.745 89.833 396.207 89.833ZM387.433 89.833C386.895 89.833 386.458 90.2679 386.458 90.8083V96.6934C386.458 97.2337 386.895 97.6687 387.433 97.6687C387.971 97.6687 388.408 97.2337 388.408 96.6934V90.8083C388.408 90.2679 387.971 89.833 387.433 89.833ZM391.819 89.833C391.281 89.833 390.844 90.2679 390.844 90.8083V96.6934C390.844 97.2337 391.281 97.6687 391.819 97.6687C392.359 97.6687 392.794 97.2337 392.794 96.6934V90.8083C392.794 90.2679 392.359 89.833 391.819 89.833ZM383.045 89.833C382.509 89.833 382.07 90.2679 382.07 90.8083V96.6934C382.07 97.2337 382.509 97.6687 383.045 97.6687C383.585 97.6687 384.02 97.2337 384.02 96.6934V90.8083C384.02 90.2679 383.585 89.833 383.045 89.833Z" fill="black"/>
<path fill-rule="evenodd" clip-rule="evenodd" d="M382.07 190.855V197.793H368.074L365.947 190.855H382.07ZM294.678 198.768H326.705C326.982 199.112 327.288 199.432 327.61 199.744H338.006C338.528 198.915 339.267 198.273 340.175 197.793H260.286L235.419 119.418H341.475L357.097 168.654V168.656L366.035 197.793H356.84C360.398 198.577 363.01 199.436 363.01 199.436C363.01 199.436 363.339 199.545 363.951 199.744H383.045C383.583 199.744 384.02 199.307 384.02 198.768V189.879C384.02 189.341 383.583 188.904 383.045 188.904H365.567L343.117 118.148C342.988 117.743 342.612 117.468 342.187 117.468H234.087C233.775 117.468 233.483 117.616 233.3 117.868C233.117 118.117 233.064 118.441 233.157 118.738L258.645 199.063C258.774 199.469 259.148 199.744 259.573 199.744H294.514C294.551 199.114 294.678 198.768 294.678 198.768Z" fill="black"/>
<path fill-rule="evenodd" clip-rule="evenodd" d="M368.222 51.7064C368.222 54.6246 370.585 56.9868 373.499 56.9868C376.061 56.9868 378.254 55.1435 378.696 52.6174L379.56 47.6745C379.727 46.7167 378.991 45.8409 378.02 45.8409H369.788C368.924 45.8409 368.222 46.5411 368.222 47.4053V51.7064ZM396.182 51.9655C396.182 54.8817 393.819 57.2459 390.905 57.2459C388.342 57.2459 386.151 55.4025 385.708 52.8764L384.845 47.9335C384.677 46.9757 385.414 46.0999 386.385 46.0999H394.617C395.48 46.0999 396.182 46.8002 396.182 47.6643V51.9655Z" fill="#4B69FD"/>
<path fill-rule="evenodd" clip-rule="evenodd" d="M395.206 51.9663C395.206 54.3402 393.277 56.2713 390.904 56.2713C388.811 56.2713 387.029 54.7713 386.668 52.7095L385.805 47.7646C385.762 47.5305 385.867 47.3647 385.934 47.2847C386 47.2067 386.146 47.0741 386.386 47.0741H394.618C394.941 47.0741 395.206 47.3393 395.206 47.6632V51.9663ZM373.499 56.0119C371.126 56.0119 369.199 54.0808 369.199 51.7068V47.4057C369.199 47.0799 369.462 46.8146 369.787 46.8146H378.019C378.259 46.8146 378.405 46.9473 378.471 47.0253C378.538 47.1053 378.641 47.2711 378.6 47.5071L377.737 52.45C377.374 54.5138 375.592 56.0119 373.499 56.0119ZM399.711 49.7055H397.156V47.6632C397.156 46.2626 396.017 45.1234 394.618 45.1234H386.386C385.633 45.1234 384.924 45.455 384.44 46.0305C383.957 46.6059 383.754 47.3608 383.883 48.102L384.068 49.1534H380.292L380.52 47.8426C380.651 47.1014 380.448 46.3465 379.965 45.771C379.481 45.1956 378.772 44.864 378.019 44.864H369.787C368.388 44.864 367.249 46.0032 367.249 47.4057V49.7055H364.692C364.154 49.7055 363.717 50.1405 363.717 50.6808C363.717 51.2192 364.154 51.6561 364.692 51.6561H367.249V51.7068C367.249 55.1556 370.052 57.9625 373.499 57.9625C376.542 57.9625 379.13 55.7856 379.657 52.7855L379.951 51.1041H384.407L384.748 53.045C385.273 56.0431 387.861 58.222 390.904 58.222C394.353 58.222 397.156 55.415 397.156 51.9663V51.6561H399.711C400.249 51.6561 400.686 51.2192 400.686 50.6808C400.686 50.1405 400.249 49.7055 399.711 49.7055Z" fill="black"/>
<path fill-rule="evenodd" clip-rule="evenodd" d="M423.77 6.5093C414.248 6.5093 406.406 13.6545 405.275 22.8771C402.751 22.1379 399.938 21.7009 396.786 21.7009C396.24 21.7009 395.716 21.7165 395.189 21.7302C395.328 20.9285 395.415 20.1111 395.415 19.2724C395.415 11.3215 388.973 4.87662 381.027 4.87662C373.084 4.87662 366.641 11.3215 366.641 19.2724C366.641 23.7023 368.645 27.6621 371.791 30.3032C369.103 33.1239 368.292 35.5505 368.292 35.5505H398.035C400.39 35.5505 402.369 37.3178 402.636 39.6566L403.862 50.4027C405.123 50.1647 406.525 50.3188 408.203 52.2909C408.827 53.0204 409.267 53.947 409.26 54.9067C409.242 57.4094 407.209 59.4302 404.708 59.4302C404.556 59.4302 404.414 59.399 404.267 59.3854L404.768 70.5567C410.764 70.5567 414.932 66.4935 418.248 61.3243C421.353 56.4789 422.841 49.8253 422.353 43.7627C422.823 43.7978 423.291 43.8348 423.77 43.8348C434.071 43.8348 442.42 35.4783 442.42 25.1711C442.42 14.8639 434.071 6.5093 423.77 6.5093Z" fill="#040226"/>
<path fill-rule="evenodd" clip-rule="evenodd" d="M425.113 42.7922C424.668 42.8468 424.212 42.8858 423.731 42.8858C423.146 42.8858 422.596 42.8312 422.068 42.7493C421.003 42.6947 420.017 42.523 419.144 42.207C411.639 40.1647 406.095 33.3199 406.095 25.1721C406.095 24.8307 406.126 24.4971 406.146 24.1597C406.163 24.1655 406.181 24.1733 406.196 24.1792C406.214 23.5199 406.29 22.8644 406.422 22.2207C406.403 22.2129 406.385 22.2032 406.364 22.1973C407.785 13.8583 415.04 7.48363 423.772 7.48363C433.518 7.48363 441.446 15.4188 441.446 25.1721C441.446 34.4727 434.232 42.1017 425.113 42.7922ZM417.426 60.7986C413.836 66.3989 410.087 69.2039 405.699 69.5453L405.288 60.3753C408.044 60.0847 410.214 57.7478 410.235 54.9135C410.243 53.7997 409.785 52.6429 408.945 51.6579C407.358 49.795 405.886 49.3483 404.723 49.3425L403.604 39.5463C403.28 36.7121 400.886 34.5761 398.036 34.5761H369.822C371.067 32.3153 374.512 27.6104 382.465 24.8424C382.594 24.7975 382.722 24.7527 382.855 24.7078C383.477 24.501 384.124 24.306 384.8 24.1246C384.878 24.1031 384.949 24.0797 385.029 24.0582C385.717 23.8788 386.446 23.7208 387.188 23.5706C387.485 23.5121 387.787 23.4594 388.091 23.4067C388.594 23.317 389.114 23.239 389.643 23.1629C389.984 23.1161 390.319 23.0654 390.674 23.0225C391.436 22.9347 392.227 22.8644 393.042 22.8098C393.467 22.7806 393.91 22.765 394.348 22.7474C395.146 22.7123 395.939 22.6752 396.785 22.6752C399.578 22.6752 402.029 23.0263 404.226 23.5881C404.183 24.1129 404.146 24.6376 404.146 25.1721C404.146 35.2062 411.711 43.4925 421.428 44.657C421.717 50.2612 420.315 56.2946 417.426 60.7986ZM367.615 19.2733C367.615 11.8726 373.633 5.85289 381.028 5.85289C388.424 5.85289 394.44 11.8726 394.44 19.2733C394.44 19.7571 394.409 20.2545 394.344 20.7773C382.372 21.2591 375.526 25.2559 371.726 28.9329C369.104 26.4049 367.615 22.9347 367.615 19.2733ZM423.772 5.53299C414.152 5.53299 406.146 12.4987 404.479 21.6492C402.146 21.0582 399.588 20.7246 396.785 20.7246C396.621 20.7246 396.467 20.7324 396.305 20.7343C396.358 20.235 396.389 19.7473 396.389 19.2733C396.389 10.7978 389.498 3.90225 381.028 3.90225C372.559 3.90225 365.666 10.7978 365.666 19.2733C365.666 23.473 367.389 27.4387 370.399 30.3315C368.188 32.8927 367.442 35.0209 367.366 35.2432C367.268 35.5417 367.319 35.8674 367.502 36.121C367.685 36.3746 367.978 36.5267 368.292 36.5267H398.036C399.894 36.5267 401.457 37.9195 401.668 39.7687L402.894 50.5129C402.925 50.784 403.066 51.0278 403.284 51.1878C403.502 51.3497 403.777 51.4141 404.042 51.3614C404.912 51.1975 405.968 51.1683 407.461 52.9238C407.998 53.552 408.29 54.2542 408.286 54.9018C408.27 56.8602 406.666 58.4539 404.707 58.4539L404.36 58.4149C404.079 58.3876 403.801 58.4832 403.596 58.6782C403.391 58.8733 403.28 59.1464 403.294 59.4292L403.795 70.6006C403.818 71.1214 404.247 71.533 404.767 71.533C410.288 71.533 414.832 68.4568 419.068 61.8519C422.12 57.0904 423.619 50.7352 423.368 44.7897C423.504 44.7916 423.635 44.8111 423.772 44.8111C434.592 44.8111 443.395 36.002 443.395 25.1721C443.395 14.344 434.592 5.53299 423.772 5.53299Z" fill="black"/>
</svg>
