<svg width="20" height="21" viewBox="0 0 20 21" fill="none" xmlns="http://www.w3.org/2000/svg">
<path d="M10 16.0796V20M10 16.0796C8.90974 16.0796 7.84392 15.7567 6.93677 15.1519C6.73717 15.0188 6.49288 14.9705 6.25765 15.0176L3.41165 15.5868C2.73159 15.7228 2.11966 16.0902 1.67997 16.6265C1.24029 17.1629 1 17.835 1 18.5285V20M10 16.0796C11.0903 16.0796 12.1562 15.7567 13.0633 15.1519C13.2629 15.0188 13.5072 14.9705 13.7424 15.0176L16.5884 15.5868C17.2685 15.7228 17.8804 16.0902 18.3201 16.6266C18.7597 17.1629 19 17.835 19 18.5285V20M14 6.39834V9C14 10.0609 13.5786 11.0783 12.8284 11.8284C12.0783 12.5786 11.0609 13 10 13C8.93913 13 7.92172 12.5786 7.17157 11.8284C6.42143 11.0783 6 10.0609 6 9V6.39834M12.1012 12.4054L12.8253 15.3019M7.90123 12.4054L7.17718 15.3018M16.5 4.53453V7.13453M4.09686 5.45618L8.55139 7.66141C9.00181 7.88413 9.49752 8 10 8C10.5025 8 10.9982 7.88413 11.4486 7.66141L15.9031 5.45618C16.0822 5.36865 16.233 5.23263 16.3385 5.06358C16.4441 4.89454 16.5 4.69927 16.5 4.5C16.5 4.30073 16.4441 4.10545 16.3385 3.93641C16.233 3.76737 16.0822 3.63134 15.9031 3.54382L11.4486 1.33859C10.9982 1.11586 10.5025 1 10 1C9.49752 1 9.00181 1.11586 8.55139 1.33859L4.09686 3.54382C3.91784 3.63134 3.76698 3.76737 3.66146 3.93641C3.55594 4.10545 3.5 4.30073 3.5 4.5C3.5 4.69927 3.55594 4.89454 3.66146 5.06358C3.76698 5.23263 3.91784 5.36865 4.09686 5.45618Z" stroke="#343B46" stroke-width="1.5" stroke-linecap="round" stroke-linejoin="round"/>
</svg>
