<svg width="20" height="21" viewBox="0 0 20 21" fill="none" xmlns="http://www.w3.org/2000/svg">
<path d="M2.50012 11.5V9.75408C2.49912 9.58349 2.53313 9.41451 2.60005 9.2576C2.66697 9.10068 2.76537 8.95916 2.88918 8.8418C3.01298 8.72444 3.15955 8.63373 3.31981 8.57528C3.48008 8.51683 3.65063 8.49189 3.82092 8.502C5.99336 8.57114 8.11543 9.17372 10 10.2566M10 10.2566C11.8846 9.17372 14.0066 8.57114 16.1791 8.502C16.3494 8.49189 16.5199 8.51682 16.6802 8.57527C16.8405 8.63372 16.9871 8.72443 17.1109 8.84179C17.2347 8.95916 17.3331 9.10068 17.4 9.25761C17.4669 9.41453 17.5009 9.58352 17.4999 9.75411L17.5 11.5M10 10.2566V20M2.50007 15.5V17.2151C2.50179 17.4734 2.60289 17.7212 2.78239 17.907C2.96189 18.0927 3.20601 18.2023 3.46412 18.2128C5.76606 18.193 8.02845 18.8116 10 20M10 20C11.9716 18.8116 14.234 18.193 16.5359 18.2128C16.794 18.2023 17.0382 18.0927 17.2177 17.907C17.3972 17.7212 17.4983 17.4734 17.5 17.2151V15.5M12.75 3.75C12.75 5.26878 11.5188 6.5 10 6.5C8.48122 6.5 7.25 5.26878 7.25 3.75C7.25 2.23122 8.48122 1 10 1C11.5188 1 12.75 2.23122 12.75 3.75ZM2 11.5H3C3.53043 11.5 4.03914 11.7107 4.41421 12.0858C4.78929 12.4609 5 12.9696 5 13.5C5 14.0304 4.78929 14.5391 4.41421 14.9142C4.03914 15.2893 3.53043 15.5 3 15.5H2C1.73478 15.5 1.48043 15.3946 1.29289 15.2071C1.10536 15.0196 1 14.7652 1 14.5V12.5C1 12.2348 1.10536 11.9804 1.29289 11.7929C1.48043 11.6054 1.73478 11.5 2 11.5ZM18 15.5H17C16.4696 15.5 15.9609 15.2893 15.5858 14.9142C15.2107 14.5391 15 14.0304 15 13.5C15 12.9696 15.2107 12.4609 15.5858 12.0858C15.9609 11.7107 16.4696 11.5 17 11.5H18C18.2652 11.5 18.5196 11.6054 18.7071 11.7929C18.8946 11.9804 19 12.2348 19 12.5V14.5C19 14.7652 18.8946 15.0196 18.7071 15.2071C18.5196 15.3946 18.2652 15.5 18 15.5Z" stroke="#343B46" stroke-width="1.5" stroke-linecap="round" stroke-linejoin="round"/>
</svg>
